<?xml version="1.0" standalone="no"?>
<!DOCTYPE svg PUBLIC "-//W3C//DTD SVG 20010904//EN"
 "http://www.w3.org/TR/2001/REC-SVG-20010904/DTD/svg10.dtd">
<svg version="1.0" xmlns="http://www.w3.org/2000/svg"
 width="512.000000pt" height="512.000000pt" viewBox="0 0 512.000000 512.000000"
 preserveAspectRatio="xMidYMid meet">

<g transform="translate(0.000000,512.000000) scale(0.100000,-0.100000)"
fill="#000000" stroke="none">
<path d="M1525 5106 c-37 -16 -70 -52 -84 -89 -7 -18 -11 -144 -11 -343 0
-351 2 -361 66 -410 31 -24 47 -29 94 -29 46 0 63 5 92 27 68 52 69 59 66 426
l-3 329 -29 37 c-46 61 -123 82 -191 52z"/>
<path d="M520 4689 c-83 -33 -122 -129 -86 -212 7 -18 128 -145 267 -284 242
-239 256 -251 300 -258 114 -17 211 91 179 200 -10 32 -58 86 -258 289 -136
136 -261 254 -279 262 -37 16 -87 17 -123 3z"/>
<path d="M2535 4686 c-16 -8 -141 -126 -276 -262 -272 -275 -282 -288 -259
-370 15 -54 74 -110 125 -120 74 -14 102 8 372 278 216 217 252 258 258 291
25 132 -101 237 -220 183z"/>
<path d="M95 3676 c-93 -40 -124 -168 -60 -245 51 -59 62 -61 410 -61 354 0
362 1 413 68 22 29 27 46 27 92 0 47 -5 63 -29 94 -49 65 -58 66 -413 66 -242
-1 -325 -4 -348 -14z"/>
<path d="M1518 3670 c-47 -26 -80 -72 -85 -123 -4 -37 71 -233 682 -1759 608
-1520 691 -1721 720 -1746 39 -35 91 -47 144 -32 54 14 87 43 105 93 9 23 110
370 225 771 l208 729 729 208 c401 115 748 216 771 225 100 37 133 168 61 249
-25 29 -225 112 -1743 719 -1080 432 -1727 686 -1748 686 -17 -1 -49 -10 -69
-20z"/>
<path d="M975 3119 c-20 -5 -117 -96 -287 -266 -223 -224 -257 -263 -264 -296
-15 -83 44 -178 119 -192 87 -17 92 -13 365 258 268 267 291 299 278 369 -10
54 -43 98 -89 118 -45 21 -75 23 -122 9z"/>
</g>
</svg>
