<svg version="1.1" id="Layer_1" xmlns="http://www.w3.org/2000/svg" xmlns:xlink="http://www.w3.org/1999/xlink" x="0px" y="0px"
	 width="100%" viewBox="0 0 512 512" enable-background="new 0 0 512 512" xml:space="preserve">
<path fill="#000000" opacity="1.000000" stroke="none" 
	d="
M36.000000,1.000001 
	C194.942398,1.000000 353.884796,1.000000 512.913574,1.000000 
	C512.913574,171.547195 512.913574,342.094452 512.913574,513.000000 
	C446.977112,513.000000 380.953552,513.000000 314.191895,512.625366 
	C316.864044,511.499847 320.299255,510.846161 323.679779,509.979248 
	C332.484833,507.721313 341.265930,505.369873 350.402893,503.024292 
	C351.520142,502.686005 352.291046,502.379120 353.455750,502.039612 
	C361.103424,499.265930 368.574371,496.985443 375.566833,493.689789 
	C391.034851,486.399475 405.525421,477.520386 418.925812,466.738739 
	C435.888672,453.090851 450.756348,437.620392 463.047760,419.668671 
	C476.910156,399.422516 487.571167,377.578308 493.379150,353.748657 
	C496.560883,340.694214 497.738159,327.151276 499.875977,313.410217 
	C500.264069,307.061005 501.009857,301.117340 500.826660,295.202515 
	C500.572235,286.986542 500.106537,278.716949 498.850891,270.606659 
	C497.092621,259.249969 495.220367,247.824829 492.144806,236.777542 
	C487.011810,218.339996 479.503571,200.762070 469.032013,184.651154 
	C463.750488,176.525330 457.775970,168.849899 451.976990,160.653259 
	C445.182526,153.348846 438.591095,146.298431 431.855011,139.389038 
	C419.894684,127.120918 405.866699,117.522736 391.092316,109.104965 
	C358.597321,90.590813 323.327423,81.913414 286.108276,81.125099 
	C277.449005,80.941689 268.662262,81.745552 260.101257,83.129036 
	C247.156082,85.221031 234.196869,87.614555 221.533524,90.973030 
	C201.513367,96.282616 183.117813,105.456512 165.548859,116.756317 
	C160.081528,111.535255 154.914093,106.429756 149.450500,101.031662 
	C157.518188,96.427872 164.896988,92.217201 171.402924,88.504623 
	C178.631012,92.820923 185.244949,96.770485 191.858902,100.720039 
	C192.428955,100.125450 192.999023,99.530853 193.569077,98.936256 
	C190.312408,93.035179 187.055725,87.134102 183.801178,81.236862 
	C188.445862,78.606514 193.295944,75.859840 198.213364,73.075027 
	C204.046295,77.802048 209.713760,82.784813 218.882782,84.168259 
	C215.262695,77.582924 212.242462,72.088814 209.230576,66.609856 
	C216.475586,62.385574 223.697922,58.387150 230.670746,53.992798 
	C233.088394,52.469162 236.299301,50.217575 236.722839,47.862385 
	C238.501450,37.972012 234.803375,32.047405 223.452896,33.166504 
	C215.485901,33.952007 207.637741,36.016373 199.764130,37.643307 
	C196.106857,38.399014 193.019669,38.187405 190.400436,34.994648 
	C188.191986,32.302650 185.544647,29.962101 183.020737,27.539793 
	C180.242844,24.873728 177.117249,24.202183 173.460739,25.817009 
	C169.727905,27.465553 167.426773,30.035677 168.073044,34.220032 
	C168.507385,37.032112 169.622192,39.739094 170.418213,42.444313 
	C163.798233,44.896206 157.809723,44.600914 153.287033,37.917297 
	C152.241104,36.371635 150.319977,35.318356 148.631943,34.327526 
	C144.941650,32.161430 141.343430,32.397953 138.141891,35.384346 
	C135.045349,38.272793 133.971268,41.642860 135.856613,45.692326 
	C136.217361,46.467133 136.232376,47.402905 136.437119,48.413654 
	C126.055504,50.315426 116.089767,52.322063 106.047958,53.818031 
	C104.182510,54.095928 101.525185,52.821388 100.059746,51.407055 
	C90.949211,42.614212 82.254372,33.387302 73.068375,24.676954 
	C64.542557,16.592606 54.911041,10.010542 43.984043,5.424412 
	C41.195007,4.253836 38.654625,2.490820 36.000000,1.000001 
z"/>
<path fill="#6DAFDF" opacity="1.000000" stroke="none" 
	d="
M350.056580,503.055725 
	C341.265930,505.369873 332.484833,507.721313 323.679779,509.979248 
	C320.299255,510.846161 316.864044,511.499847 313.726868,512.625366 
	C294.979095,513.000000 275.958221,513.000000 256.740936,512.624390 
	C255.867569,511.841858 255.238678,511.230255 254.506500,511.058289 
	C241.129623,507.916046 227.404373,505.821838 214.447540,501.447968 
	C201.307129,497.012115 188.343460,491.340637 176.337097,484.416229 
	C155.840988,472.595551 137.454391,457.886200 122.005470,439.649506 
	C111.752335,427.546234 102.545921,414.819580 94.976868,400.891113 
	C85.639557,383.708679 78.433815,365.666107 74.367645,346.548401 
	C71.967636,335.264435 70.176849,323.779083 69.175201,312.291595 
	C68.325302,302.544434 68.776558,292.656921 69.098686,282.846191 
	C69.251595,278.189209 70.445869,273.566406 71.487686,268.901733 
	C72.860214,269.695618 74.206764,270.324005 74.898369,271.380951 
	C75.952492,272.991852 76.367882,275.014526 77.387093,276.655792 
	C79.251945,279.658813 81.571930,282.390411 83.313179,285.456116 
	C85.522141,289.345367 86.573654,294.165649 89.489700,297.323608 
	C95.884285,304.248749 94.585526,311.333954 92.173759,319.128235 
	C91.338654,321.827118 92.233429,325.039703 92.191734,328.015564 
	C92.173088,329.345947 92.271233,331.158722 91.497490,331.916901 
	C87.555237,335.779816 88.754982,339.418762 90.961189,343.642944 
	C94.626747,350.661255 97.636574,358.019440 101.206879,365.090942 
	C104.171783,370.963348 106.907883,377.123505 110.893028,382.266937 
	C116.426697,389.408936 120.624962,396.853821 122.199196,405.802582 
	C125.063644,422.085571 130.510544,437.463135 140.878494,450.483429 
	C146.635483,457.713226 153.556213,464.052002 160.274857,470.454010 
	C161.847351,471.952393 164.726852,472.079163 166.938782,472.814941 
	C162.328156,467.904724 157.293625,464.056763 154.284973,459.002808 
	C149.082901,450.264343 151.508026,445.051056 160.926834,441.921387 
	C160.766647,440.408691 160.603134,438.864594 160.439621,437.320465 
	C160.907486,437.578674 161.375366,437.836853 161.843246,438.095062 
	C163.277466,436.352875 165.190964,434.817078 166.048172,432.826447 
	C167.951355,428.406708 169.321808,423.757843 170.915726,419.204590 
	C172.163040,415.641418 174.466110,413.562347 178.314224,412.611267 
	C189.222870,409.915161 191.797684,406.588623 193.032990,395.037262 
	C194.107162,384.992493 196.649796,375.459900 202.524475,366.989838 
	C206.706131,360.960785 205.888458,357.957428 199.699112,353.909210 
	C197.068527,352.188629 193.382965,350.746368 192.314301,348.259247 
	C190.292175,343.553070 186.841568,343.304321 182.890060,342.991974 
	C178.770950,342.666382 175.129532,342.019379 172.140442,338.181976 
	C170.617142,336.226410 166.569321,336.174011 163.619797,335.431580 
	C162.742462,335.210754 161.077011,335.956055 160.862045,335.600372 
	C158.448914,331.607117 155.342896,333.486359 151.304443,335.409058 
	C152.407990,333.429626 152.645874,332.305542 153.295044,331.964569 
	C155.568558,330.770477 158.413498,330.385895 158.107391,326.703217 
	C157.891312,324.103455 158.469879,321.414276 158.084518,318.856781 
	C157.279465,313.514008 153.304245,311.305573 148.550186,309.873291 
	C143.352173,308.307190 137.101028,307.816071 134.421341,302.371277 
	C130.185928,293.765472 122.889603,289.928314 114.420853,287.129730 
	C110.535637,285.845795 107.547272,286.295868 104.332695,288.984253 
	C102.145821,290.813141 99.156586,291.867004 96.360352,292.730530 
	C93.622040,293.576111 91.455566,292.584930 91.001442,289.309601 
	C90.773621,287.666534 90.225655,286.050079 90.152260,284.406830 
	C89.947990,279.833618 90.969307,275.061951 86.515213,271.527313 
	C85.738693,270.911102 86.274345,268.388245 86.514877,266.792847 
	C87.141815,262.634338 87.941360,258.501831 88.711235,254.136902 
	C80.797241,253.829666 83.944778,265.264435 74.854988,264.923401 
	C78.365044,255.489975 81.713966,247.054688 84.625648,238.471085 
	C86.659782,232.474503 92.342155,228.644623 96.589622,227.399307 
	C104.747536,225.007492 111.192482,221.926285 115.502342,214.527298 
	C116.257294,213.231216 118.493629,212.860535 119.463722,211.610672 
	C120.558235,210.200516 121.937302,208.017242 121.550148,206.627899 
	C120.090256,201.388977 122.918213,198.709793 126.988289,197.558334 
	C134.253387,195.502914 139.164856,191.079971 142.702133,184.664551 
	C143.481247,183.251480 144.803421,182.137848 145.903168,181.291351 
	C143.742249,191.566696 141.165482,201.373856 139.545258,211.336578 
	C138.840958,215.667313 138.916077,220.872971 140.711487,224.710892 
	C144.822021,233.497757 154.319611,234.727371 164.937500,228.933044 
	C186.434814,242.044693 207.997360,254.368668 228.584869,268.149292 
	C245.558594,279.510925 261.377655,292.597595 277.857849,305.187225 
	C278.342072,305.646881 278.676880,305.839142 278.996033,306.027832 
	C278.980377,306.024261 278.967804,305.994720 279.003784,306.281525 
	C279.362274,306.720642 279.684814,306.872925 279.996826,307.020081 
	C279.986328,307.014984 279.974670,306.994659 279.878571,307.356323 
	C284.358490,313.257263 288.580750,319.157837 293.686218,324.156311 
	C295.703644,326.131470 299.687317,326.098236 303.078125,327.140747 
	C311.761475,336.253876 320.512177,344.891937 328.437134,354.230774 
	C340.474182,368.415344 351.078278,383.634796 358.270813,401.372559 
	C358.237122,404.304016 357.854584,406.889954 358.412598,409.253876 
	C361.757599,423.424469 365.318909,437.543976 368.837769,452.117371 
	C368.052856,457.468536 367.530914,462.453735 366.365082,467.283478 
	C363.472107,479.268250 357.769531,489.921936 350.359589,499.726044 
	C349.797577,500.469604 350.081787,501.852814 349.991333,502.969574 
	C350.010010,503.000488 350.056580,503.055695 350.056580,503.055725 
z"/>
<path fill="#000000" opacity="1.000000" stroke="none" 
	d="
M71.168381,268.928131 
	C70.445869,273.566406 69.251595,278.189209 69.098686,282.846191 
	C68.776558,292.656921 68.325302,302.544434 69.175201,312.291595 
	C70.176849,323.779083 71.967636,335.264435 74.367645,346.548401 
	C78.433815,365.666107 85.639557,383.708679 94.976868,400.891113 
	C102.545921,414.819580 111.752335,427.546234 122.005470,439.649506 
	C137.454391,457.886200 155.840988,472.595551 176.337097,484.416229 
	C188.343460,491.340637 201.307129,497.012115 214.447540,501.447968 
	C227.404373,505.821838 241.129623,507.916046 254.506500,511.058289 
	C255.238678,511.230255 255.867569,511.841858 256.272278,512.624390 
	C171.048447,513.000000 86.096878,513.000000 1.072660,513.000000 
	C1.072660,342.333344 1.072660,171.666687 1.067638,1.000005 
	C5.726636,1.000000 10.390655,1.000000 15.631329,1.372485 
	C13.029567,6.553293 12.363349,11.649228 13.530618,17.343588 
	C17.212013,35.302757 27.049419,49.727871 39.304035,62.713024 
	C47.303871,71.189758 55.722275,79.273003 64.006523,87.478661 
	C65.951431,89.405128 67.288231,90.927803 66.250816,94.253082 
	C64.848320,98.748573 64.768089,103.643303 63.940739,108.335037 
	C63.022224,113.543747 61.901356,118.716782 60.847416,124.011719 
	C59.180428,123.518913 58.414062,123.179245 57.616982,123.075447 
	C53.116745,122.489426 48.333076,122.620880 46.505833,127.377953 
	C44.888569,131.588348 45.342186,136.149521 49.756554,139.354431 
	C51.886333,140.900696 53.674747,142.973312 55.402584,144.991791 
	C56.189049,145.910522 56.995064,147.346649 56.854321,148.425766 
	C56.415802,151.787933 55.529129,155.091660 54.794651,158.518784 
	C47.997105,153.857681 43.555336,153.895416 39.843033,158.493271 
	C36.283489,162.901932 37.225983,167.718430 42.728615,173.228394 
	C44.964931,175.467697 47.304100,177.616226 49.389626,179.987946 
	C50.158642,180.862457 50.871151,182.351440 50.692665,183.404816 
	C49.298035,191.635498 47.414246,199.790985 46.253342,208.050079 
	C45.741024,211.694870 45.475056,216.045975 46.978100,219.172089 
	C50.938763,227.409698 61.870941,226.875534 66.755737,218.524734 
	C71.046753,211.189026 75.133934,203.734055 79.278671,196.389313 
	C83.094917,198.724197 86.608910,200.874161 90.091431,203.396851 
	C86.534767,212.566452 82.632576,221.234634 79.575272,230.191223 
	C75.290504,242.743713 71.672562,255.519012 71.168381,268.928131 
z"/>
<path fill="#5A5F63" opacity="1.000000" stroke="none" 
	d="
M90.122910,203.024139 
	C86.608910,200.874161 83.094917,198.724197 79.278671,196.389313 
	C75.133934,203.734055 71.046753,211.189026 66.755737,218.524734 
	C61.870941,226.875534 50.938763,227.409698 46.978100,219.172089 
	C45.475056,216.045975 45.741024,211.694870 46.253342,208.050079 
	C47.414246,199.790985 49.298035,191.635498 50.692665,183.404816 
	C50.871151,182.351440 50.158642,180.862457 49.389626,179.987946 
	C47.304100,177.616226 44.964931,175.467697 42.728615,173.228394 
	C37.225983,167.718430 36.283489,162.901932 39.843033,158.493271 
	C43.555336,153.895416 47.997105,153.857681 54.794651,158.518784 
	C55.529129,155.091660 56.415802,151.787933 56.854321,148.425766 
	C56.995064,147.346649 56.189049,145.910522 55.402584,144.991791 
	C53.674747,142.973312 51.886333,140.900696 49.756554,139.354431 
	C45.342186,136.149521 44.888569,131.588348 46.505833,127.377953 
	C48.333076,122.620880 53.116745,122.489426 57.616982,123.075447 
	C58.414062,123.179245 59.180428,123.518913 60.847416,124.011719 
	C61.901356,118.716782 63.022224,113.543747 63.940739,108.335037 
	C64.768089,103.643303 64.848320,98.748573 66.250816,94.253082 
	C67.288231,90.927803 65.951431,89.405128 64.006523,87.478661 
	C55.722275,79.273003 47.303871,71.189758 39.304035,62.713024 
	C27.049419,49.727871 17.212013,35.302757 13.530618,17.343588 
	C12.363349,11.649228 13.029567,6.553293 16.103992,1.372485 
	C22.354399,1.000000 28.708796,1.000000 35.531597,1.000001 
	C38.654625,2.490820 41.195007,4.253836 43.984043,5.424412 
	C54.911041,10.010542 64.542557,16.592606 73.068375,24.676954 
	C82.254372,33.387302 90.949211,42.614212 100.059746,51.407055 
	C101.525185,52.821388 104.182510,54.095928 106.047958,53.818031 
	C116.089767,52.322063 126.055504,50.315426 136.437119,48.413654 
	C136.232376,47.402905 136.217361,46.467133 135.856613,45.692326 
	C133.971268,41.642860 135.045349,38.272793 138.141891,35.384346 
	C141.343430,32.397953 144.941650,32.161430 148.631943,34.327526 
	C150.319977,35.318356 152.241104,36.371635 153.287033,37.917297 
	C157.809723,44.600914 163.798233,44.896206 170.418213,42.444313 
	C169.622192,39.739094 168.507385,37.032112 168.073044,34.220032 
	C167.426773,30.035677 169.727905,27.465553 173.460739,25.817009 
	C177.117249,24.202183 180.242844,24.873728 183.020737,27.539793 
	C185.544647,29.962101 188.191986,32.302650 190.400436,34.994648 
	C193.019669,38.187405 196.106857,38.399014 199.764130,37.643307 
	C207.637741,36.016373 215.485901,33.952007 223.452896,33.166504 
	C234.803375,32.047405 238.501450,37.972012 236.722839,47.862385 
	C236.299301,50.217575 233.088394,52.469162 230.670746,53.992798 
	C223.697922,58.387150 216.475586,62.385574 209.230576,66.609856 
	C212.242462,72.088814 215.262695,77.582924 218.882782,84.168259 
	C209.713760,82.784813 204.046295,77.802048 198.213364,73.075027 
	C193.295944,75.859840 188.445862,78.606514 183.801178,81.236862 
	C187.055725,87.134102 190.312408,93.035179 193.569077,98.936256 
	C192.999023,99.530853 192.428955,100.125450 191.858902,100.720039 
	C185.244949,96.770485 178.631012,92.820923 171.402924,88.504623 
	C164.896988,92.217201 157.518188,96.427872 149.450500,101.031662 
	C154.914093,106.429756 160.081528,111.535255 165.592621,117.111145 
	C171.038467,122.713287 176.140656,127.845032 181.419586,133.212585 
	C183.050125,133.932755 184.562515,134.945511 185.945618,134.792145 
	C188.879379,134.466858 191.745773,133.534027 195.062836,132.908295 
	C204.657013,130.926544 213.828171,128.886765 223.410995,126.845322 
	C229.928970,124.770920 235.450516,126.336761 240.806824,129.879669 
	C245.081329,134.693497 245.599854,140.126633 244.705933,146.107391 
	C242.433716,151.231247 238.887497,154.374313 233.919083,156.248413 
	C227.402023,158.706711 221.013397,161.505478 214.569534,164.157852 
	C205.155594,168.032761 205.173035,168.031876 205.698807,178.432663 
	C205.782318,180.084824 205.437881,181.770676 205.623535,183.403152 
	C206.021042,186.898727 206.635818,190.369598 206.992645,194.022522 
	C206.823685,194.194443 206.526688,194.574234 206.177063,194.483414 
	C203.172897,193.893082 200.536026,193.142075 197.859619,192.954239 
	C194.048264,192.686737 190.043488,193.511581 186.420578,192.634140 
	C181.635773,191.475311 180.189484,193.442322 178.552338,197.412079 
	C174.190582,207.988419 169.275787,218.336685 164.580856,228.775635 
	C154.319611,234.727371 144.822021,233.497757 140.711487,224.710892 
	C138.916077,220.872971 138.840958,215.667313 139.545258,211.336578 
	C141.165482,201.373856 143.742249,191.566696 146.027771,180.929764 
	C149.027069,170.476105 148.977127,170.356384 141.217392,163.904282 
	C140.221664,163.076340 139.446609,161.987747 138.480484,161.118668 
	C134.394440,157.443146 130.274796,153.804947 126.026855,149.834351 
	C121.851929,145.383606 117.817596,141.251587 113.697540,137.031784 
	C109.748909,143.743591 106.125359,149.988892 102.408157,156.177963 
	C100.966301,158.578629 100.701721,160.393280 103.017181,162.707169 
	C105.418190,165.106552 107.053375,168.272293 109.067009,171.462860 
	C110.070557,174.353516 111.030602,176.884171 112.062950,179.605438 
	C109.130966,179.062653 106.658211,178.604889 104.040894,177.818970 
	C100.844215,175.341721 97.792122,173.192596 94.285667,170.723557 
	C91.687119,175.166946 89.144928,179.362823 86.792595,183.662552 
	C86.316284,184.533173 86.067291,186.153046 86.551155,186.817673 
	C88.848091,189.972687 91.434929,192.916672 93.946327,196.337372 
	C94.574867,199.176895 95.175621,201.614838 95.820183,204.230560 
	C93.636414,203.768143 91.879654,203.396133 90.122910,203.024139 
z"/>
<path fill="#E7EEF3" opacity="1.000000" stroke="none" 
	d="
M452.114807,160.970825 
	C457.775970,168.849899 463.750488,176.525330 469.032013,184.651154 
	C479.503571,200.762070 487.011810,218.339996 492.144806,236.777542 
	C495.220367,247.824829 497.092621,259.249969 498.850891,270.606659 
	C500.106537,278.716949 500.572235,286.986542 500.826660,295.202515 
	C501.009857,301.117340 500.264069,307.061005 499.657898,313.117432 
	C498.572144,307.993958 497.573059,302.765869 496.982513,297.492035 
	C494.328613,273.791504 491.324707,268.613983 472.066345,255.626068 
	C469.250458,253.727005 465.953979,252.639435 463.748749,256.160919 
	C461.748871,259.354584 463.905518,261.987274 466.546051,263.682709 
	C468.757080,265.102356 471.408478,265.815430 473.781067,267.008179 
	C479.832947,270.050598 483.150909,274.977173 482.944489,281.794861 
	C482.744110,288.411285 479.183105,293.000397 473.260162,295.761566 
	C468.733246,297.871948 464.156494,299.875519 459.580475,301.936279 
	C452.048615,284.500427 444.190063,266.308350 435.933807,247.195526 
	C431.251404,254.499054 433.299683,260.240356 435.979279,265.891785 
	C438.690430,271.609741 441.532715,277.175293 441.271515,283.865082 
	C441.173859,286.365601 442.176971,289.187500 443.461945,291.409637 
	C446.872009,297.306976 450.587006,303.040161 454.411102,308.682495 
	C458.259186,314.360291 462.429749,315.751343 469.005188,314.016296 
	C468.993103,313.998871 468.960541,313.971375 469.017761,314.348114 
	C468.636688,315.967316 468.301636,317.258270 467.744415,318.444916 
	C460.055206,334.819519 452.643494,351.334534 444.524811,367.494141 
	C438.138519,380.205536 430.870605,392.473999 423.957092,404.477600 
	C424.932220,387.960297 423.443909,372.157501 419.363373,356.578247 
	C409.158020,317.614838 388.516632,284.285950 363.123413,253.718018 
	C351.456116,239.673141 338.556519,226.651978 326.659821,213.118500 
	C337.580536,212.635803 348.081696,212.496597 358.522339,211.628876 
	C363.029480,211.254272 365.332123,212.003677 366.230774,216.784851 
	C367.364624,222.817627 370.806915,225.358627 376.922699,226.125732 
	C378.179474,226.283386 379.875488,227.000183 380.435059,227.988235 
	C383.781189,233.896423 389.363495,236.095184 395.319214,237.821091 
	C396.682007,234.378235 397.963959,231.139618 399.782654,226.544968 
	C403.980957,234.540817 410.502899,235.602722 416.919891,236.707474 
	C423.215820,237.791412 429.555695,238.620209 436.279724,239.621033 
	C435.993530,236.504532 435.414734,232.896103 435.388062,229.283600 
	C435.347412,223.777847 432.948822,221.675476 427.382294,221.821503 
	C422.236420,221.956512 417.853333,219.733002 414.963409,214.611298 
	C424.466858,211.056458 433.812469,211.534897 443.353882,212.922485 
	C439.818359,205.911469 436.434662,199.201614 432.887238,192.167038 
	C431.955383,194.333252 431.173523,196.150757 430.267426,198.257095 
	C428.461365,195.908859 427.413025,193.387802 425.567261,192.469269 
	C423.694122,191.537140 420.916504,191.769363 418.781097,192.368546 
	C418.024597,192.580780 417.319580,195.582230 417.741821,196.956909 
	C420.082855,204.578873 418.225861,207.737625 410.299500,208.661407 
	C408.706757,208.847031 407.073944,208.688217 405.411896,208.688217 
	C404.804993,210.903717 404.244812,212.948776 403.563446,215.436096 
	C402.583405,213.138077 401.769379,211.229370 400.955353,209.320648 
	C400.608948,209.768402 400.262573,210.216171 399.916168,210.663925 
	C398.095001,209.865829 396.030548,209.378479 394.514099,208.191177 
	C392.607788,206.698639 391.149994,204.633301 388.971954,202.235168 
	C384.978424,209.139145 382.195099,204.657196 379.138275,201.833344 
	C375.958832,198.896210 372.719238,196.024094 369.499359,193.130875 
	C362.857056,187.162430 356.852112,186.172241 348.859131,190.065857 
	C341.365173,193.716370 335.232300,198.871246 332.371735,206.375809 
	C328.209625,206.989792 324.607452,207.521194 320.696594,207.918488 
	C315.613434,203.313950 310.838959,198.843491 306.288147,194.085083 
	C309.747009,184.722549 315.673676,181.787521 324.741608,184.738159 
	C326.320923,185.252045 327.957153,185.591949 329.533112,186.114761 
	C333.615936,187.469238 334.732788,185.034821 333.651306,182.056046 
	C332.130371,177.866791 329.673096,174.017456 327.557129,169.907913 
	C339.038147,165.396210 351.433228,160.565384 363.778839,155.611069 
	C365.000824,155.120682 366.955109,153.500931 366.791473,153.048752 
	C366.232849,151.505020 365.104034,149.931015 363.759796,148.981705 
	C362.649139,148.197357 360.760162,148.587769 359.509277,147.913620 
	C357.215454,146.677383 353.501587,145.180176 353.360840,143.536514 
	C353.159515,141.185379 355.100433,137.074478 357.062805,136.386810 
	C365.632507,133.383835 374.414734,130.294952 383.357605,129.225174 
	C394.458344,127.897285 403.662445,134.306595 412.984283,139.560562 
	C417.571564,142.146027 419.291107,145.079056 416.774170,150.018524 
	C416.783112,150.105530 416.954193,150.119293 417.583923,150.164398 
	C428.070557,148.651627 436.929993,150.731949 444.562012,157.881378 
	C446.416718,159.618835 449.562622,159.977951 452.114807,160.970825 
M451.580994,202.130920 
	C452.980621,205.867874 454.349609,209.616714 455.789978,213.337906 
	C456.866119,216.118088 458.922638,218.850342 458.960999,221.625809 
	C459.024231,226.202179 460.923798,229.357407 464.355713,231.668716 
	C465.554077,232.475815 467.595673,232.030807 469.252197,232.157623 
	C468.983948,230.704239 468.811188,229.224030 468.413269,227.807068 
	C468.155792,226.890182 467.568939,226.065826 467.165710,225.271042 
	C470.897034,221.475784 470.777954,219.464828 466.663422,216.502579 
	C465.048248,215.339722 463.261505,214.413589 461.543396,213.395752 
	C459.098480,211.947296 457.780365,210.830200 459.266602,207.201828 
	C460.172150,204.991150 457.673218,201.385925 456.703491,198.407089 
	C455.082336,199.410965 453.461212,200.414841 451.580994,202.130920 
z"/>
<path fill="#6EAFDF" opacity="1.000000" stroke="none" 
	d="
M451.976959,160.653275 
	C449.562622,159.977951 446.416718,159.618835 444.562012,157.881378 
	C436.929993,150.731949 428.070557,148.651627 417.537659,150.116455 
	C417.032745,150.037170 416.936310,149.945267 416.936310,149.945267 
	C419.291107,145.079056 417.571564,142.146027 412.984283,139.560562 
	C403.662445,134.306595 394.458344,127.897285 383.357605,129.225174 
	C374.414734,130.294952 365.632507,133.383835 357.062805,136.386810 
	C355.100433,137.074478 353.159515,141.185379 353.360840,143.536514 
	C353.501587,145.180176 357.215454,146.677383 359.509277,147.913620 
	C360.760162,148.587769 362.649139,148.197357 363.759796,148.981705 
	C365.104034,149.931015 366.232849,151.505020 366.791473,153.048752 
	C366.955109,153.500931 365.000824,155.120682 363.778839,155.611069 
	C351.433228,160.565384 339.038147,165.396210 327.557129,169.907913 
	C329.673096,174.017456 332.130371,177.866791 333.651306,182.056046 
	C334.732788,185.034821 333.615936,187.469238 329.533112,186.114761 
	C327.957153,185.591949 326.320923,185.252045 324.741608,184.738159 
	C315.673676,181.787521 309.747009,184.722549 305.969727,193.907410 
	C285.266144,177.966003 265.104706,161.914307 244.943268,145.862610 
	C245.599854,140.126633 245.081329,134.693497 241.002502,129.546753 
	C245.433502,124.088440 250.372986,121.145653 257.316986,121.978104 
	C259.674866,122.260765 262.540192,120.924072 264.715637,119.583900 
	C269.616028,116.565071 274.761566,115.449097 280.437897,115.837624 
	C284.753448,116.133018 289.096863,116.117859 293.425934,116.068581 
	C295.081512,116.049736 296.731659,115.551781 298.339966,115.279655 
	C296.545563,112.846199 295.110199,110.899635 294.183777,109.643250 
	C303.393524,105.923325 311.853271,102.506325 320.313049,99.089325 
	C316.343018,97.684364 312.714447,97.293343 309.075867,97.141380 
	C300.597595,96.787270 292.116425,96.407127 283.632965,96.294151 
	C269.342499,96.103851 255.035950,95.713097 240.762482,96.191757 
	C232.562607,96.466728 225.718628,101.018753 219.361008,106.167831 
	C221.428864,106.539101 223.299683,106.254417 225.178787,106.043381 
	C228.763290,105.640808 233.399719,109.378098 233.931763,113.486412 
	C234.416519,117.229263 231.372650,118.175102 228.618469,118.942451 
	C224.528351,120.082039 222.147430,122.272667 222.999313,126.847000 
	C213.828171,128.886765 204.657013,130.926544 195.209869,132.558472 
	C196.571762,129.453690 196.444382,125.506042 201.307098,125.249191 
	C203.383682,125.139503 202.659988,120.105492 200.220108,118.941338 
	C195.597321,116.735641 190.866028,118.449799 188.558151,122.978027 
	C187.966949,124.138008 186.894302,125.711197 185.855484,125.870163 
	C181.428833,126.547569 180.518539,129.144745 181.242844,132.976791 
	C176.140656,127.845032 171.038467,122.713287 165.892502,117.226700 
	C183.117813,105.456512 201.513367,96.282616 221.533524,90.973030 
	C234.196869,87.614555 247.156082,85.221031 260.101257,83.129036 
	C268.662262,81.745552 277.449005,80.941689 286.108276,81.125099 
	C323.327423,81.913414 358.597321,90.590813 391.092316,109.104965 
	C405.866699,117.522736 419.894684,127.120918 431.855011,139.389038 
	C438.591095,146.298431 445.182526,153.348846 451.976959,160.653275 
M290.970795,124.547974 
	C287.495514,125.815483 284.020233,127.082993 279.895721,128.587296 
	C287.721252,131.784256 294.424194,130.304062 296.524323,125.034660 
	C294.843109,124.788116 293.278198,124.558624 290.970795,124.547974 
z"/>
<path fill="#6EB0DF" opacity="1.000000" stroke="none" 
	d="
M469.017303,314.033722 
	C462.429749,315.751343 458.259186,314.360291 454.411102,308.682495 
	C450.587006,303.040161 446.872009,297.306976 443.461945,291.409637 
	C442.176971,289.187500 441.173859,286.365601 441.271515,283.865082 
	C441.532715,277.175293 438.690430,271.609741 435.979279,265.891785 
	C433.299683,260.240356 431.251404,254.499054 435.933807,247.195526 
	C444.190063,266.308350 452.048615,284.500427 459.580475,301.936279 
	C464.156494,299.875519 468.733246,297.871948 473.260162,295.761566 
	C479.183105,293.000397 482.744110,288.411285 482.944489,281.794861 
	C483.150909,274.977173 479.832947,270.050598 473.781067,267.008179 
	C471.408478,265.815430 468.757080,265.102356 466.546051,263.682709 
	C463.905518,261.987274 461.748871,259.354584 463.748749,256.160919 
	C465.953979,252.639435 469.250458,253.727005 472.066345,255.626068 
	C491.324707,268.613983 494.328613,273.791504 496.982513,297.492035 
	C497.573059,302.765869 498.572144,307.993958 499.601196,313.535858 
	C497.738159,327.151276 496.560883,340.694214 493.379150,353.748657 
	C487.571167,377.578308 476.910156,399.422516 463.047760,419.668671 
	C450.756348,437.620392 435.888672,453.090851 418.925812,466.738739 
	C405.525421,477.520386 391.034851,486.399475 375.566833,493.689789 
	C368.574371,496.985443 361.103424,499.265930 353.332397,501.889648 
	C352.815216,501.772308 352.569611,501.471527 352.848358,501.273743 
	C380.166321,487.818024 401.102478,468.161041 413.368561,440.541809 
	C418.354309,429.315521 420.536499,416.844086 423.994324,404.939178 
	C430.870605,392.473999 438.138519,380.205536 444.524811,367.494141 
	C452.643494,351.334534 460.055206,334.819519 467.744415,318.444916 
	C468.301636,317.258270 468.636688,315.967316 469.145538,314.325745 
	C469.216064,313.926666 469.289246,313.625732 469.289246,313.625732 
	C469.289246,313.625732 469.017303,314.033722 469.017303,314.033722 
M460.800842,389.607269 
	C459.770844,387.759888 458.740814,385.912506 457.365234,383.445282 
	C456.351593,384.716431 455.192413,385.495392 455.158417,386.320709 
	C454.911896,392.303772 451.301575,394.987213 446.098846,396.755005 
	C444.704254,397.228882 442.875580,399.687225 443.061676,400.971466 
	C443.766449,405.834991 442.148895,409.318024 438.472137,412.292328 
	C437.371033,413.183044 436.629333,414.634949 435.991882,415.959198 
	C434.358673,419.351959 435.593994,421.364594 439.224792,422.005463 
	C448.302277,423.607727 452.133301,420.462494 453.134460,411.224915 
	C453.799652,405.087158 453.463776,398.401215 460.178802,394.607605 
	C461.026367,394.128784 460.810028,391.766754 460.800842,389.607269 
z"/>
<path fill="#6EB0DF" opacity="1.000000" stroke="none" 
	d="
M352.938568,501.922272 
	C352.291046,502.379120 351.520142,502.686005 350.402893,503.024292 
	C350.056580,503.055695 350.010010,503.000488 350.167969,502.719391 
	C351.073822,502.116028 351.821716,501.793762 352.569611,501.471497 
	C352.569611,501.471527 352.815216,501.772308 352.938568,501.922272 
z"/>
<path fill="#FFD93C" opacity="1.000000" stroke="none" 
	d="
M352.848358,501.273712 
	C351.821716,501.793762 351.073822,502.116028 350.149292,502.688477 
	C350.081787,501.852814 349.797577,500.469604 350.359589,499.726044 
	C357.769531,489.921936 363.472107,479.268250 366.365082,467.283478 
	C367.530914,462.453735 368.052856,457.468536 368.912201,451.690460 
	C369.777252,433.267853 365.985687,416.688599 358.356598,400.924500 
	C351.078278,383.634796 340.474182,368.415344 328.437134,354.230774 
	C320.512177,344.891937 311.761475,336.253876 302.948242,326.851868 
	C300.199554,324.255646 297.955017,322.025116 295.551880,319.980988 
	C290.402893,315.601166 285.172028,311.317627 279.974670,306.994659 
	C279.974670,306.994659 279.986328,307.014984 279.956421,306.743347 
	C279.606934,306.312683 279.287354,306.153717 278.967804,305.994720 
	C278.967804,305.994720 278.980377,306.024261 278.888733,305.741272 
	C278.434235,305.278809 278.071320,305.099304 277.708405,304.919800 
	C261.377655,292.597595 245.558594,279.510925 228.584869,268.149292 
	C207.997360,254.368668 186.434814,242.044693 164.937500,228.933044 
	C169.275787,218.336685 174.190582,207.988419 178.552338,197.412079 
	C180.189484,193.442322 181.635773,191.475311 186.420578,192.634140 
	C190.043488,193.511581 194.048264,192.686737 197.859619,192.954239 
	C200.536026,193.142075 203.172897,193.893082 206.370056,194.625763 
	C206.995667,194.522812 207.078644,194.186707 207.161621,193.850586 
	C206.635818,190.369598 206.021042,186.898727 205.623535,183.403152 
	C205.437881,181.770676 205.782318,180.084824 205.698807,178.432663 
	C205.173035,168.031876 205.155594,168.032761 214.569534,164.157852 
	C221.013397,161.505478 227.402023,158.706711 233.919083,156.248413 
	C238.887497,154.374313 242.433716,151.231247 244.705933,146.107391 
	C265.104706,161.914307 285.266144,177.966003 305.746033,194.195374 
	C310.838959,198.843491 315.613434,203.313950 320.828735,208.214462 
	C322.918304,210.151871 324.567017,211.659241 326.215729,213.166595 
	C338.556519,226.651978 351.456116,239.673141 363.123413,253.718018 
	C388.516632,284.285950 409.158020,317.614838 419.363373,356.578247 
	C423.443909,372.157501 424.932220,387.960297 423.957092,404.477600 
	C420.536499,416.844086 418.354309,429.315521 413.368561,440.541809 
	C401.102478,468.161041 380.166321,487.818024 352.848358,501.273712 
M331.562500,277.912292 
	C322.664001,267.404510 314.190094,256.496063 304.754181,246.495377 
	C294.143768,235.249908 283.026642,224.416809 271.468994,214.148239 
	C258.332397,202.476822 244.509827,191.572983 230.886383,180.456863 
	C226.920197,177.220642 222.218323,177.789368 219.404846,181.379837 
	C216.751755,184.765610 217.739746,190.545410 221.461960,193.247498 
	C224.420334,195.395081 227.400650,197.512619 230.380768,199.630066 
	C252.341400,215.233627 273.718048,231.616211 292.420837,251.066299 
	C308.649719,267.943604 324.852600,284.947906 339.724152,303.002136 
	C357.590759,324.692413 370.673615,349.457458 380.318329,375.870453 
	C386.776550,393.556885 391.519226,411.715912 390.965973,430.792053 
	C390.712769,439.522949 389.992065,448.240326 389.437653,457.748260 
	C390.069672,456.013611 390.629700,454.988983 390.811798,453.901154 
	C394.358185,432.712158 393.844421,411.611389 389.346436,390.604248 
	C384.324402,367.149414 375.633636,344.979584 363.451874,324.484070 
	C353.979095,308.546234 342.565613,293.761902 331.562500,277.912292 
z"/>
<path fill="#E7EEF3" opacity="1.000000" stroke="none" 
	d="
M104.185463,178.147110 
	C106.658211,178.604889 109.130966,179.062653 112.062950,179.605438 
	C111.030602,176.884171 110.070557,174.353516 109.402657,171.350037 
	C115.185669,163.969193 120.676552,157.061142 126.167435,150.153107 
	C130.274796,153.804947 134.394440,157.443146 138.480484,161.118668 
	C139.446609,161.987747 140.221664,163.076340 141.217392,163.904282 
	C148.977127,170.356384 149.027069,170.476105 146.000122,180.524719 
	C144.803421,182.137848 143.481247,183.251480 142.702133,184.664551 
	C139.164856,191.079971 134.253387,195.502914 126.988289,197.558334 
	C122.918213,198.709793 120.090256,201.388977 121.550148,206.627899 
	C121.937302,208.017242 120.558235,210.200516 119.463722,211.610672 
	C118.493629,212.860535 116.257294,213.231216 115.502342,214.527298 
	C111.192482,221.926285 104.747536,225.007492 96.589622,227.399307 
	C92.342155,228.644623 86.659782,232.474503 84.625648,238.471085 
	C81.713966,247.054688 78.365044,255.489975 74.854988,264.923401 
	C83.944778,265.264435 80.797241,253.829666 88.711235,254.136902 
	C87.941360,258.501831 87.141815,262.634338 86.514877,266.792847 
	C86.274345,268.388245 85.738693,270.911102 86.515213,271.527313 
	C90.969307,275.061951 89.947990,279.833618 90.152260,284.406830 
	C90.225655,286.050079 90.773621,287.666534 91.001442,289.309601 
	C91.455566,292.584930 93.622040,293.576111 96.360352,292.730530 
	C99.156586,291.867004 102.145821,290.813141 104.332695,288.984253 
	C107.547272,286.295868 110.535637,285.845795 114.420853,287.129730 
	C122.889603,289.928314 130.185928,293.765472 134.421341,302.371277 
	C137.101028,307.816071 143.352173,308.307190 148.550186,309.873291 
	C153.304245,311.305573 157.279465,313.514008 158.084518,318.856781 
	C158.469879,321.414276 157.891312,324.103455 158.107391,326.703217 
	C158.413498,330.385895 155.568558,330.770477 153.295044,331.964569 
	C152.645874,332.305542 152.407990,333.429626 151.304443,335.409058 
	C155.342896,333.486359 158.448914,331.607117 160.862045,335.600372 
	C161.077011,335.956055 162.742462,335.210754 163.619797,335.431580 
	C166.569321,336.174011 170.617142,336.226410 172.140442,338.181976 
	C175.129532,342.019379 178.770950,342.666382 182.890060,342.991974 
	C186.841568,343.304321 190.292175,343.553070 192.314301,348.259247 
	C193.382965,350.746368 197.068527,352.188629 199.699112,353.909210 
	C205.888458,357.957428 206.706131,360.960785 202.524475,366.989838 
	C196.649796,375.459900 194.107162,384.992493 193.032990,395.037262 
	C191.797684,406.588623 189.222870,409.915161 178.314224,412.611267 
	C174.466110,413.562347 172.163040,415.641418 170.915726,419.204590 
	C169.321808,423.757843 167.951355,428.406708 166.048172,432.826447 
	C165.190964,434.817078 163.277466,436.352875 161.843246,438.095062 
	C161.375366,437.836853 160.907486,437.578674 160.439621,437.320465 
	C160.603134,438.864594 160.766647,440.408691 160.926834,441.921387 
	C151.508026,445.051056 149.082901,450.264343 154.284973,459.002808 
	C157.293625,464.056763 162.328156,467.904724 166.938782,472.814941 
	C164.726852,472.079163 161.847351,471.952393 160.274857,470.454010 
	C153.556213,464.052002 146.635483,457.713226 140.878494,450.483429 
	C130.510544,437.463135 125.063644,422.085571 122.199196,405.802582 
	C120.624962,396.853821 116.426697,389.408936 110.893028,382.266937 
	C106.907883,377.123505 104.171783,370.963348 101.206879,365.090942 
	C97.636574,358.019440 94.626747,350.661255 90.961189,343.642944 
	C88.754982,339.418762 87.555237,335.779816 91.497490,331.916901 
	C92.271233,331.158722 92.173088,329.345947 92.191734,328.015564 
	C92.233429,325.039703 91.338654,321.827118 92.173759,319.128235 
	C94.585526,311.333954 95.884285,304.248749 89.489700,297.323608 
	C86.573654,294.165649 85.522141,289.345367 83.313179,285.456116 
	C81.571930,282.390411 79.251945,279.658813 77.387093,276.655792 
	C76.367882,275.014526 75.952492,272.991852 74.898369,271.380951 
	C74.206764,270.324005 72.860214,269.695618 71.487686,268.901733 
	C71.672562,255.519012 75.290504,242.743713 79.575272,230.191223 
	C82.632576,221.234634 86.534767,212.566452 90.091431,203.396851 
	C91.879654,203.396133 93.636414,203.768143 95.820183,204.230560 
	C95.175621,201.614838 94.574867,199.176895 94.113266,196.021820 
	C97.563438,189.585480 100.874451,183.866302 104.185463,178.147110 
z"/>
<path fill="#E3EBEC" opacity="1.000000" stroke="none" 
	d="
M358.270813,401.372559 
	C365.985687,416.688599 369.777252,433.267853 368.882141,451.253723 
	C365.318909,437.543976 361.757599,423.424469 358.412598,409.253876 
	C357.854584,406.889954 358.237122,404.304016 358.270813,401.372559 
z"/>
<path fill="#E4ECED" opacity="1.000000" stroke="none" 
	d="
M279.878571,307.356323 
	C285.172028,311.317627 290.402893,315.601166 295.551880,319.980988 
	C297.955017,322.025116 300.199554,324.255646 302.645813,326.690613 
	C299.687317,326.098236 295.703644,326.131470 293.686218,324.156311 
	C288.580750,319.157837 284.358490,313.257263 279.878571,307.356323 
z"/>
<path fill="#E4ECED" opacity="1.000000" stroke="none" 
	d="
M279.003784,306.281525 
	C279.287354,306.153717 279.606934,306.312683 279.966919,306.748444 
	C279.684814,306.872925 279.362274,306.720642 279.003784,306.281525 
z"/>
<path fill="#E4ECED" opacity="1.000000" stroke="none" 
	d="
M277.857849,305.187195 
	C278.071320,305.099304 278.434235,305.278809 278.904419,305.744873 
	C278.676880,305.839142 278.342072,305.646881 277.857849,305.187195 
z"/>
<path fill="#E6EEF3" opacity="1.000000" stroke="none" 
	d="
M223.410995,126.845322 
	C222.147430,122.272667 224.528351,120.082039 228.618469,118.942451 
	C231.372650,118.175102 234.416519,117.229263 233.931763,113.486412 
	C233.399719,109.378098 228.763290,105.640808 225.178787,106.043381 
	C223.299683,106.254417 221.428864,106.539101 219.361008,106.167831 
	C225.718628,101.018753 232.562607,96.466728 240.762482,96.191757 
	C255.035950,95.713097 269.342499,96.103851 283.632965,96.294151 
	C292.116425,96.407127 300.597595,96.787270 309.075867,97.141380 
	C312.714447,97.293343 316.343018,97.684364 320.313049,99.089325 
	C311.853271,102.506325 303.393524,105.923325 294.183777,109.643250 
	C295.110199,110.899635 296.545563,112.846199 298.339966,115.279655 
	C296.731659,115.551781 295.081512,116.049736 293.425934,116.068581 
	C289.096863,116.117859 284.753448,116.133018 280.437897,115.837624 
	C274.761566,115.449097 269.616028,116.565071 264.715637,119.583900 
	C262.540192,120.924072 259.674866,122.260765 257.316986,121.978104 
	C250.372986,121.145653 245.433502,124.088440 240.901855,129.224060 
	C235.450516,126.336761 229.928970,124.770920 223.410995,126.845322 
z"/>
<path fill="#000000" opacity="1.000000" stroke="none" 
	d="
M126.026848,149.834351 
	C120.676552,157.061142 115.185669,163.969193 109.359146,170.990051 
	C107.053375,168.272293 105.418190,165.106552 103.017181,162.707169 
	C100.701721,160.393280 100.966301,158.578629 102.408157,156.177963 
	C106.125359,149.988892 109.748909,143.743591 113.697540,137.031784 
	C117.817596,141.251587 121.851929,145.383606 126.026848,149.834351 
z"/>
<path fill="#000000" opacity="1.000000" stroke="none" 
	d="
M104.040894,177.818970 
	C100.874451,183.866302 97.563438,189.585480 94.085480,195.620239 
	C91.434929,192.916672 88.848091,189.972687 86.551155,186.817673 
	C86.067291,186.153046 86.316284,184.533173 86.792595,183.662552 
	C89.144928,179.362823 91.687119,175.166946 94.285667,170.723557 
	C97.792122,173.192596 100.844215,175.341721 104.040894,177.818970 
z"/>
<path fill="#DEE9F1" opacity="1.000000" stroke="none" 
	d="
M181.419586,133.212585 
	C180.518539,129.144745 181.428833,126.547569 185.855484,125.870163 
	C186.894302,125.711197 187.966949,124.138008 188.558151,122.978027 
	C190.866028,118.449799 195.597321,116.735641 200.220108,118.941338 
	C202.659988,120.105492 203.383682,125.139503 201.307098,125.249191 
	C196.444382,125.506042 196.571762,129.453690 194.786835,132.500458 
	C191.745773,133.534027 188.879379,134.466858 185.945618,134.792145 
	C184.562515,134.945511 183.050125,133.932755 181.419586,133.212585 
z"/>
<path fill="#6FB0DF" opacity="1.000000" stroke="none" 
	d="
M326.659821,213.118500 
	C324.567017,211.659241 322.918304,210.151871 321.137451,208.348541 
	C324.607452,207.521194 328.209625,206.989792 332.371735,206.375809 
	C335.232300,198.871246 341.365173,193.716370 348.859131,190.065857 
	C356.852112,186.172241 362.857056,187.162430 369.499359,193.130875 
	C372.719238,196.024094 375.958832,198.896210 379.138275,201.833344 
	C382.195099,204.657196 384.978424,209.139145 388.971954,202.235168 
	C391.149994,204.633301 392.607788,206.698639 394.514099,208.191177 
	C396.030548,209.378479 398.095001,209.865829 399.916168,210.663925 
	C400.262573,210.216171 400.608948,209.768402 400.955353,209.320648 
	C401.769379,211.229370 402.583405,213.138077 403.563446,215.436096 
	C404.244812,212.948776 404.804993,210.903717 405.411896,208.688217 
	C407.073944,208.688217 408.706757,208.847031 410.299500,208.661407 
	C418.225861,207.737625 420.082855,204.578873 417.741821,196.956909 
	C417.319580,195.582230 418.024597,192.580780 418.781097,192.368546 
	C420.916504,191.769363 423.694122,191.537140 425.567261,192.469269 
	C427.413025,193.387802 428.461365,195.908859 430.267426,198.257095 
	C431.173523,196.150757 431.955383,194.333252 432.887238,192.167038 
	C436.434662,199.201614 439.818359,205.911469 443.353882,212.922485 
	C433.812469,211.534897 424.466858,211.056458 414.963409,214.611298 
	C417.853333,219.733002 422.236420,221.956512 427.382294,221.821503 
	C432.948822,221.675476 435.347412,223.777847 435.388062,229.283600 
	C435.414734,232.896103 435.993530,236.504532 436.279724,239.621033 
	C429.555695,238.620209 423.215820,237.791412 416.919891,236.707474 
	C410.502899,235.602722 403.980957,234.540817 399.782654,226.544968 
	C397.963959,231.139618 396.682007,234.378235 395.319214,237.821091 
	C389.363495,236.095184 383.781189,233.896423 380.435059,227.988235 
	C379.875488,227.000183 378.179474,226.283386 376.922699,226.125732 
	C370.806915,225.358627 367.364624,222.817627 366.230774,216.784851 
	C365.332123,212.003677 363.029480,211.254272 358.522339,211.628876 
	C348.081696,212.496597 337.580536,212.635803 326.659821,213.118500 
z"/>
<path fill="#72B2E0" opacity="1.000000" stroke="none" 
	d="
M451.710510,201.774811 
	C453.461212,200.414841 455.082336,199.410965 456.703491,198.407089 
	C457.673218,201.385925 460.172150,204.991150 459.266602,207.201828 
	C457.780365,210.830200 459.098480,211.947296 461.543396,213.395752 
	C463.261505,214.413589 465.048248,215.339722 466.663422,216.502579 
	C470.777954,219.464828 470.897034,221.475784 467.165710,225.271042 
	C467.568939,226.065826 468.155792,226.890182 468.413269,227.807068 
	C468.811188,229.224030 468.983948,230.704239 469.252197,232.157623 
	C467.595673,232.030807 465.554077,232.475815 464.355713,231.668716 
	C460.923798,229.357407 459.024231,226.202179 458.960999,221.625809 
	C458.922638,218.850342 456.866119,216.118088 455.789978,213.337906 
	C454.349609,209.616714 452.980621,205.867874 451.710510,201.774811 
z"/>
<path fill="#6EAFDF" opacity="1.000000" stroke="none" 
	d="
M417.078979,150.085114 
	C416.954193,150.119293 416.783112,150.105530 416.774170,150.018524 
	C416.936310,149.945267 417.032745,150.037170 417.078979,150.085114 
z"/>
<path fill="#DFEAF2" opacity="1.000000" stroke="none" 
	d="
M291.342041,124.438553 
	C293.278198,124.558624 294.843109,124.788116 296.524323,125.034660 
	C294.424194,130.304062 287.721252,131.784256 279.895721,128.587296 
	C284.020233,127.082993 287.495514,125.815483 291.342041,124.438553 
z"/>
<path fill="#E4EDF2" opacity="1.000000" stroke="none" 
	d="
M460.943726,389.942230 
	C460.810028,391.766754 461.026367,394.128784 460.178802,394.607605 
	C453.463776,398.401215 453.799652,405.087158 453.134460,411.224915 
	C452.133301,420.462494 448.302277,423.607727 439.224792,422.005463 
	C435.593994,421.364594 434.358673,419.351959 435.991882,415.959198 
	C436.629333,414.634949 437.371033,413.183044 438.472137,412.292328 
	C442.148895,409.318024 443.766449,405.834991 443.061676,400.971466 
	C442.875580,399.687225 444.704254,397.228882 446.098846,396.755005 
	C451.301575,394.987213 454.911896,392.303772 455.158417,386.320709 
	C455.192413,385.495392 456.351593,384.716431 457.365234,383.445282 
	C458.740814,385.912506 459.770844,387.759888 460.943726,389.942230 
z"/>
<path fill="#E7EEF3" opacity="1.000000" stroke="none" 
	d="
M469.005188,314.016296 
	C469.017303,314.033722 469.289246,313.625732 469.289246,313.625732 
	C469.289246,313.625732 469.216064,313.926666 469.088318,313.949036 
	C468.960541,313.971375 468.993103,313.998871 469.005188,314.016296 
z"/>
<path fill="#EAB12C" opacity="1.000000" stroke="none" 
	d="
M331.788574,278.188599 
	C342.565613,293.761902 353.979095,308.546234 363.451874,324.484070 
	C375.633636,344.979584 384.324402,367.149414 389.346436,390.604248 
	C393.844421,411.611389 394.358185,432.712158 390.811798,453.901154 
	C390.629700,454.988983 390.069672,456.013611 389.437653,457.748260 
	C389.992065,448.240326 390.712769,439.522949 390.965973,430.792053 
	C391.519226,411.715912 386.776550,393.556885 380.318329,375.870453 
	C370.673615,349.457458 357.590759,324.692413 339.724152,303.002136 
	C324.852600,284.947906 308.649719,267.943604 292.420837,251.066299 
	C273.718048,231.616211 252.341400,215.233627 230.380768,199.630066 
	C227.400650,197.512619 224.420334,195.395081 221.461960,193.247498 
	C217.739746,190.545410 216.751755,184.765610 219.404846,181.379837 
	C222.218323,177.789368 226.920197,177.220642 230.886383,180.456863 
	C244.509827,191.572983 258.332397,202.476822 271.468994,214.148239 
	C283.026642,224.416809 294.143768,235.249908 304.754181,246.495377 
	C314.190094,256.496063 322.664001,267.404510 331.788574,278.188599 
z"/>
<path fill="#5A5F63" opacity="1.000000" stroke="none" 
	d="
M206.992645,194.022522 
	C207.078644,194.186707 206.995667,194.522812 206.719696,194.716583 
	C206.526688,194.574234 206.823685,194.194443 206.992645,194.022522 
z"/>
</svg>