<?xml version="1.0" standalone="no"?>
<!DOCTYPE svg PUBLIC "-//W3C//DTD SVG 20010904//EN"
 "http://www.w3.org/TR/2001/REC-SVG-20010904/DTD/svg10.dtd">
<svg version="1.0" xmlns="http://www.w3.org/2000/svg"
 width="512.000000pt" height="512.000000pt" viewBox="0 0 512.000000 512.000000"
 preserveAspectRatio="xMidYMid meet">

<g transform="translate(0.000000,512.000000) scale(0.100000,-0.100000)"
fill="#000000" stroke="none">
<path d="M3313 4786 c-154 -50 -254 -205 -269 -421 -15 -207 78 -405 224 -477
69 -34 206 -33 277 1 248 123 304 572 99 800 -82 92 -222 133 -331 97z"/>
<path d="M2479 4652 c-104 -54 -154 -167 -147 -331 3 -82 8 -106 35 -162 55
-119 138 -178 248 -179 161 0 267 126 268 320 1 179 -79 322 -206 369 -55 21
-140 13 -198 -17z"/>
<path d="M1934 4371 c-80 -20 -150 -91 -174 -175 -19 -70 -9 -199 22 -267 32
-71 91 -137 143 -160 55 -25 145 -25 194 1 142 72 182 272 90 452 -58 113
-172 175 -275 149z"/>
<path d="M1475 3858 c-147 -81 -166 -306 -38 -448 26 -29 66 -61 88 -71 100
-46 212 -1 267 105 28 55 22 201 -10 263 -53 103 -141 163 -234 163 -29 0 -62
-6 -73 -12z"/>
<path d="M2665 3815 c-312 -57 -593 -241 -760 -499 -67 -103 -86 -141 -124
-248 -74 -211 -78 -344 -27 -828 68 -645 95 -993 96 -1210 1 -223 81 -401 242
-538 272 -231 676 -226 925 11 112 106 174 207 208 337 29 108 23 212 -33 582
-57 367 -63 473 -37 619 26 153 50 211 195 474 175 316 229 509 200 707 -33
233 -176 431 -384 534 -50 24 -122 51 -161 59 -85 18 -245 18 -340 0z"/>
</g>
</svg>
