<?xml version="1.0" standalone="no"?>
<!DOCTYPE svg PUBLIC "-//W3C//DTD SVG 20010904//EN"
 "http://www.w3.org/TR/2001/REC-SVG-20010904/DTD/svg10.dtd">
<svg version="1.0" xmlns="http://www.w3.org/2000/svg"
 width="512.000000pt" height="512.000000pt" viewBox="0 0 512.000000 512.000000"
 preserveAspectRatio="xMidYMid meet">

<g transform="translate(0.000000,512.000000) scale(0.100000,-0.100000)"
fill="#000000" stroke="none">
<path d="M2410 5033 c-364 -39 -690 -199 -946 -466 -257 -267 -401 -602 -420
-977 -28 -554 284 -1332 905 -2255 55 -82 99 -150 98 -152 -2 -1 -66 -9 -143
-18 -622 -69 -1036 -217 -1152 -414 -22 -37 -27 -58 -27 -111 0 -80 29 -136
107 -204 259 -227 1032 -373 1868 -353 877 22 1519 193 1668 445 38 67 39 157
0 223 -116 196 -521 343 -1148 414 -80 9 -146 18 -147 19 -1 1 52 82 118 181
606 907 912 1674 886 2220 -20 408 -183 760 -483 1044 -283 268 -662 416
-1049 409 -55 0 -116 -3 -135 -5z m408 -178 c360 -70 686 -291 884 -600 64
-99 101 -176 142 -293 56 -162 70 -252 70 -447 0 -177 -10 -248 -59 -446 -118
-467 -416 -1057 -868 -1719 -121 -176 -418 -580 -427 -580 -3 0 -73 91 -156
203 -752 1008 -1171 1874 -1201 2482 -34 706 478 1317 1187 1415 92 13 330 4
428 -15z m-567 -3947 c172 -230 262 -338 286 -344 13 -4 33 -4 46 0 23 5 110
110 285 343 l92 122 57 -5 c557 -48 977 -152 1154 -288 114 -86 79 -163 -117
-260 -632 -311 -2354 -311 -2988 0 -240 119 -243 208 -9 324 214 105 641 197
1038 223 28 2 53 4 57 5 4 1 49 -53 99 -120z"/>
<path d="M2462 4169 c-227 -33 -433 -201 -516 -420 -107 -285 2 -611 259 -779
124 -81 292 -120 431 -100 424 59 679 470 540 871 -62 178 -217 333 -394 395
-68 23 -183 45 -232 43 -14 -1 -53 -6 -88 -10z m238 -176 c206 -56 353 -253
353 -473 0 -275 -218 -493 -493 -493 -275 1 -493 218 -493 493 0 163 67 295
202 398 122 92 272 119 431 75z"/>
</g>
</svg>
