<svg version="1.1" id="Layer_1" xmlns="http://www.w3.org/2000/svg" xmlns:xlink="http://www.w3.org/1999/xlink" x="0px" y="0px"
	 width="100%" viewBox="0 0 512 512" enable-background="new 0 0 512 512" xml:space="preserve">
<path fill="#000000" opacity="1.000000" stroke="none" 
	d="
M276.000000,513.000000 
	C184.022324,513.000000 92.544647,513.000000 1.033484,513.000000 
	C1.033484,342.397308 1.033484,171.794586 1.033484,1.095938 
	C171.561035,1.095938 342.122131,1.095938 512.841614,1.095938 
	C512.841614,171.666550 512.841614,342.333252 512.841614,513.000000 
	C434.127899,513.000000 355.313934,513.000000 276.000000,513.000000 
M235.500122,376.000122 
	C230.887543,380.612701 226.332977,385.285156 221.649597,389.824738 
	C213.429611,397.792236 205.741028,406.469147 196.730133,413.424042 
	C180.930832,425.618347 162.847214,431.652435 142.477829,431.140472 
	C121.951416,430.624512 103.944138,423.781586 89.037491,410.268188 
	C66.932503,390.229187 56.823925,365.139618 60.966198,334.970062 
	C63.490448,316.585052 71.070503,300.585541 84.087921,287.517700 
	C144.663254,226.707779 205.410553,166.069153 266.122375,105.395309 
	C272.244568,99.276955 273.390045,91.755142 271.385040,84.001534 
	C267.371338,68.480301 247.065353,62.445152 234.624619,74.884483 
	C173.928375,135.573959 113.227951,196.259247 52.562225,256.979248 
	C49.419601,260.124664 46.279560,263.352509 43.652557,266.920563 
	C24.241146,293.285492 14.266915,322.402588 16.855570,355.595032 
	C18.286964,373.948792 23.124945,390.993744 31.604719,407.241150 
	C43.316933,429.682037 60.409214,446.835815 82.386436,459.004425 
	C110.864342,474.772430 141.223114,478.703125 173.018509,472.001953 
	C196.054840,467.146820 216.466812,456.697510 233.025436,440.253510 
	C309.538452,364.270264 385.644989,287.877686 461.861359,211.596008 
	C466.531647,206.921722 471.108612,202.120422 475.362091,197.069275 
	C493.897156,175.058182 500.868591,149.351288 496.732300,121.279472 
	C493.154388,96.997322 481.956787,76.325882 462.273346,60.685444 
	C439.448792,42.549061 413.618378,35.727921 385.062347,40.177242 
	C363.449402,43.544762 345.285065,54.169018 329.882812,69.572472 
	C268.848694,130.611359 207.785477,191.621277 146.826111,252.734772 
	C133.120682,266.474854 125.368233,282.618896 125.824394,302.730865 
	C126.335228,325.253387 135.979919,342.437347 154.027252,354.880127 
	C168.276703,364.704437 184.454239,368.096466 201.618515,364.907166 
	C212.812103,362.827271 223.502930,358.748383 231.645386,350.677582 
	C273.902832,308.792145 315.895142,266.639008 357.919342,224.518829 
	C364.026154,218.398041 364.728333,207.331482 360.626984,200.326385 
	C352.499115,186.444153 335.823792,184.687561 324.377197,196.129242 
	C305.870728,214.627686 287.368744,233.130630 268.866272,251.633102 
	C247.181946,273.317413 225.524826,295.029022 203.801758,316.674438 
	C196.193542,324.255493 183.319397,323.842407 175.502884,316.023193 
	C167.607910,308.125488 167.128311,295.258545 174.830292,287.575134 
	C238.782135,223.777847 302.538818,159.784637 366.580750,96.078133 
	C378.993011,83.730911 394.706268,80.737297 411.592316,83.936531 
	C424.223114,86.329567 434.497559,92.651657 442.511505,102.921127 
	C449.465118,111.831932 453.351105,121.782257 453.939758,132.914764 
	C454.846375,150.059113 447.524109,163.936981 435.742004,175.729431 
	C369.185730,242.343994 302.585419,308.914551 235.500122,376.000122 
z"/>
<path fill="#4285F4" opacity="1.000000" stroke="none" 
	d="
M235.750122,375.750122 
	C302.585419,308.914551 369.185730,242.343994 435.742004,175.729431 
	C447.524109,163.936981 454.846375,150.059113 453.939758,132.914764 
	C453.351105,121.782257 449.465118,111.831932 442.511505,102.921127 
	C434.497559,92.651657 424.223114,86.329567 411.592316,83.936531 
	C394.706268,80.737297 378.993011,83.730911 366.580750,96.078133 
	C302.538818,159.784637 238.782135,223.777847 174.830292,287.575134 
	C167.128311,295.258545 167.607910,308.125488 175.502884,316.023193 
	C183.319397,323.842407 196.193542,324.255493 203.801758,316.674438 
	C225.524826,295.029022 247.181946,273.317413 268.866272,251.633102 
	C287.368744,233.130630 305.870728,214.627686 324.377197,196.129242 
	C335.823792,184.687561 352.499115,186.444153 360.626984,200.326385 
	C364.728333,207.331482 364.026154,218.398041 357.919342,224.518829 
	C315.895142,266.639008 273.902832,308.792145 231.645386,350.677582 
	C223.502930,358.748383 212.812103,362.827271 201.618515,364.907166 
	C184.454239,368.096466 168.276703,364.704437 154.027252,354.880127 
	C135.979919,342.437347 126.335228,325.253387 125.824394,302.730865 
	C125.368233,282.618896 133.120682,266.474854 146.826111,252.734772 
	C207.785477,191.621277 268.848694,130.611359 329.882812,69.572472 
	C345.285065,54.169018 363.449402,43.544762 385.062347,40.177242 
	C413.618378,35.727921 439.448792,42.549061 462.273346,60.685444 
	C481.956787,76.325882 493.154388,96.997322 496.732300,121.279472 
	C500.868591,149.351288 493.897156,175.058182 475.362091,197.069275 
	C471.108612,202.120422 466.531647,206.921722 461.861359,211.596008 
	C385.644989,287.877686 309.538452,364.270264 233.025436,440.253510 
	C216.466812,456.697510 196.054840,467.146820 173.018509,472.001953 
	C141.223114,478.703125 110.864342,474.772430 82.386436,459.004425 
	C60.409214,446.835815 43.316933,429.682037 31.604719,407.241150 
	C23.124945,390.993744 18.286964,373.948792 16.855570,355.595032 
	C14.266915,322.402588 24.241146,293.285492 43.652557,266.920563 
	C46.279560,263.352509 49.419601,260.124664 52.562225,256.979248 
	C113.227951,196.259247 173.928375,135.573959 234.624619,74.884483 
	C247.065353,62.445152 267.371338,68.480301 271.385040,84.001534 
	C273.390045,91.755142 272.244568,99.276955 266.122375,105.395309 
	C205.410553,166.069153 144.663254,226.707779 84.087921,287.517700 
	C71.070503,300.585541 63.490448,316.585052 60.966198,334.970062 
	C56.823925,365.139618 66.932503,390.229187 89.037491,410.268188 
	C103.944138,423.781586 121.951416,430.624512 142.477829,431.140472 
	C162.847214,431.652435 180.930832,425.618347 196.730133,413.424042 
	C205.741028,406.469147 213.429611,397.792236 221.649597,389.824738 
	C226.332977,385.285156 230.887543,380.612701 235.750122,375.750122 
z"/>
</svg>