<svg version="1.1" id="Layer_1" xmlns="http://www.w3.org/2000/svg" xmlns:xlink="http://www.w3.org/1999/xlink" x="0px" y="0px"
	 width="100%" viewBox="0 0 512 512" enable-background="new 0 0 512 512" xml:space="preserve">
<path fill="#FFFFFF" opacity="1.000000" stroke="none" 
	d="
M0.999997,498.000000 
	C1.000000,332.421143 1.000000,166.842255 1.000000,1.000000 
	C105.689842,1.000000 210.379913,1.000000 315.447205,1.316524 
	C314.538330,2.710151 313.252228,3.787255 311.699463,4.975042 
	C311.138336,5.541078 310.843842,5.996430 310.473633,6.478208 
	C310.397919,6.504633 310.252197,6.571660 309.987976,6.723794 
	C304.749237,13.485476 299.307983,19.799017 294.891907,26.762693 
	C283.740112,44.347912 276.916260,63.480888 277.093719,84.547737 
	C277.173492,94.019760 278.266357,103.483238 278.593689,113.080566 
	C265.360809,126.138138 252.456329,139.088409 239.500214,151.986847 
	C227.023697,164.407791 214.493805,176.775131 201.661896,189.006805 
	C196.681625,186.562424 192.114624,184.072784 187.355865,182.029831 
	C172.130829,175.493652 155.995682,175.249252 139.894501,176.146942 
	C131.337524,176.623993 122.766472,178.167831 114.376762,180.021927 
	C101.224899,182.928436 89.490593,189.247726 78.675262,197.108368 
	C59.290779,211.197113 52.013359,225.909683 57.937866,251.068756 
	C61.364098,265.618622 67.852814,278.749847 76.015015,291.158386 
	C87.950020,309.302429 100.712166,326.810516 115.035797,342.994720 
	C114.220634,343.573456 113.667740,343.972443 113.285751,344.496094 
	C96.546555,367.443878 79.858398,390.428955 63.087440,413.353455 
	C42.426853,441.594727 21.698854,469.786713 0.999997,498.000000 
z"/>
<path fill="#FFFFFF" opacity="1.000000" stroke="none" 
	d="
M513.000000,198.000000 
	C513.000000,302.944366 513.000000,407.888702 513.000000,513.000000 
	C347.643372,513.000000 182.286697,513.000000 16.650257,512.717896 
	C17.393805,511.885468 18.500101,511.448334 19.428228,510.768097 
	C38.634575,496.691925 57.815929,482.581696 77.011932,468.491394 
	C101.272644,450.683533 125.562744,432.915588 149.794922,415.069000 
	C156.955475,409.795319 163.962952,404.313843 171.355347,399.048706 
	C177.105972,403.935791 182.190567,409.194397 188.047180,413.370239 
	C202.454178,423.642761 216.967468,433.809631 231.905182,443.282288 
	C246.990616,452.848541 263.448151,458.735138 281.728180,458.010681 
	C290.168610,457.676178 297.868286,454.791107 303.995331,449.330383 
	C326.782074,429.021759 336.395416,402.584656 337.893158,372.806000 
	C338.272919,365.255524 337.607697,357.614532 336.941010,350.057617 
	C335.747650,336.531403 332.263428,323.637787 325.180206,311.602356 
	C334.659851,301.861969 344.047241,292.420624 353.482361,283.027222 
	C369.634277,266.946716 385.816071,250.896149 402.409180,234.905380 
	C416.526855,237.655579 430.385559,238.253448 444.057495,235.817169 
	C468.631592,231.438202 490.103973,220.519424 508.069336,203.045013 
	C508.031464,203.033951 508.023468,203.112488 508.283905,203.020676 
	C508.743378,202.628525 508.942383,202.328201 509.443024,201.903107 
	C510.829742,200.518890 511.914856,199.259430 513.000000,198.000000 
z"/>
<path fill="#F44336" opacity="1.000000" stroke="none" 
	d="
M513.000000,197.531586 
	C511.914856,199.259430 510.829742,200.518890 509.189758,202.005829 
	C508.431061,202.526367 508.227264,202.819427 508.023499,203.112488 
	C508.023468,203.112488 508.031464,203.033951 507.638550,203.021759 
	C504.956543,203.300232 502.625916,204.025894 500.385132,203.811600 
	C484.866791,202.327545 470.251373,197.494278 456.187927,191.027908 
	C436.029541,181.759064 417.019348,170.402740 400.031769,156.167374 
	C387.609680,145.757874 375.098999,135.010208 364.825897,122.594513 
	C352.515076,107.716042 341.861847,91.319756 331.753418,74.807777 
	C322.292511,59.353573 315.269409,42.552956 312.004242,24.525320 
	C310.936218,18.628429 310.809448,12.561062 310.252197,6.571660 
	C310.252197,6.571660 310.397919,6.504633 310.804321,6.547216 
	C311.462555,6.014652 311.714355,5.439506 311.966125,4.864359 
	C313.252228,3.787255 314.538330,2.710151 315.912201,1.316524 
	C322.021149,1.000000 328.042297,1.000000 334.700439,1.367432 
	C348.019318,3.302037 360.136200,7.041713 371.646576,12.368769 
	C396.838074,24.027510 418.324097,41.070251 438.356171,59.984451 
	C446.173859,67.365906 453.515900,75.285728 460.689087,83.305145 
	C467.452972,90.866989 474.036102,98.637741 480.118011,106.751869 
	C490.683350,120.847549 499.901794,135.824921 505.728729,152.557770 
	C508.624695,160.874069 510.605286,169.509140 513.000000,178.000000 
	C513.000000,184.354401 513.000000,190.708786 513.000000,197.531586 
z"/>
<path fill="#FFFFFF" opacity="1.000000" stroke="none" 
	d="
M513.000000,177.531342 
	C510.605286,169.509140 508.624695,160.874069 505.728729,152.557770 
	C499.901794,135.824921 490.683350,120.847549 480.118011,106.751869 
	C474.036102,98.637741 467.452972,90.866989 460.689087,83.305145 
	C453.515900,75.285728 446.173859,67.365906 438.356171,59.984451 
	C418.324097,41.070251 396.838074,24.027510 371.646576,12.368769 
	C360.136200,7.041713 348.019318,3.302037 335.168732,1.367432 
	C394.260132,1.000000 453.520264,1.000000 513.000000,1.000000 
	C513.000000,59.687378 513.000000,118.375031 513.000000,177.531342 
z"/>
<path fill="#CFD8DC" opacity="1.000000" stroke="none" 
	d="
M171.040588,398.927582 
	C163.962952,404.313843 156.955475,409.795319 149.794922,415.069000 
	C125.562744,432.915588 101.272644,450.683533 77.011932,468.491394 
	C57.815929,482.581696 38.634575,496.691925 19.428228,510.768097 
	C18.500101,511.448334 17.393805,511.885468 16.185246,512.717896 
	C11.075477,513.000000 6.150953,513.000000 1.000000,513.000000 
	C1.000000,508.316681 1.000000,503.630981 0.999997,498.472656 
	C21.698854,469.786713 42.426853,441.594727 63.087440,413.353455 
	C79.858398,390.428955 96.546555,367.443878 113.285751,344.496094 
	C113.667740,343.972443 114.220634,343.573456 115.289291,343.193848 
	C121.209404,348.919769 126.400696,354.701355 131.885330,360.189819 
	C144.862961,373.176483 157.979950,386.023865 171.040588,398.927582 
z"/>
<path fill="#D32F2F" opacity="1.000000" stroke="none" 
	d="
M171.355347,399.048706 
	C157.979950,386.023865 144.862961,373.176483 131.885330,360.189819 
	C126.400696,354.701355 121.209404,348.919769 115.631271,343.072266 
	C100.712166,326.810516 87.950020,309.302429 76.015015,291.158386 
	C67.852814,278.749847 61.364098,265.618622 57.937866,251.068756 
	C52.013359,225.909683 59.290779,211.197113 78.675262,197.108368 
	C89.490593,189.247726 101.224899,182.928436 114.376762,180.021927 
	C122.766472,178.167831 131.337524,176.623993 139.894501,176.146942 
	C155.995682,175.249252 172.130829,175.493652 187.355865,182.029831 
	C192.114624,184.072784 196.681625,186.562424 201.623642,189.340118 
	C199.702774,192.291367 197.458832,194.718964 195.293610,197.214890 
	C189.765717,203.587128 187.409454,211.266113 188.220383,219.390503 
	C189.658173,233.795380 195.664322,246.726089 204.603241,257.848053 
	C214.568024,270.246399 225.036621,282.360992 236.346451,293.524719 
	C248.907639,305.923615 263.198273,316.400238 280.083557,322.429016 
	C295.125946,327.799744 309.425812,327.885132 321.052795,314.547699 
	C322.070068,313.380768 323.741699,312.784332 325.109406,311.922913 
	C332.263428,323.637787 335.747650,336.531403 336.941010,350.057617 
	C337.607697,357.614532 338.272919,365.255524 337.893158,372.806000 
	C336.395416,402.584656 326.782074,429.021759 303.995331,449.330383 
	C297.868286,454.791107 290.168610,457.676178 281.728180,458.010681 
	C263.448151,458.735138 246.990616,452.848541 231.905182,443.282288 
	C216.967468,433.809631 202.454178,423.642761 188.047180,413.370239 
	C182.190567,409.194397 177.105972,403.935791 171.355347,399.048706 
z"/>
<path fill="#F44336" opacity="1.000000" stroke="none" 
	d="
M325.180206,311.602356 
	C323.741699,312.784332 322.070068,313.380768 321.052795,314.547699 
	C309.425812,327.885132 295.125946,327.799744 280.083557,322.429016 
	C263.198273,316.400238 248.907639,305.923615 236.346451,293.524719 
	C225.036621,282.360992 214.568024,270.246399 204.603241,257.848053 
	C195.664322,246.726089 189.658173,233.795380 188.220383,219.390503 
	C187.409454,211.266113 189.765717,203.587128 195.293610,197.214890 
	C197.458832,194.718964 199.702774,192.291367 201.949127,189.499329 
	C214.493805,176.775131 227.023697,164.407791 239.500214,151.986847 
	C252.456329,139.088409 265.360809,126.138138 278.887024,113.320175 
	C283.924072,132.050873 291.262970,149.523422 303.021027,164.581161 
	C312.583435,176.827133 323.300934,188.230347 334.101715,199.433121 
	C344.562286,210.283035 357.337189,218.201019 371.160919,224.029068 
	C381.174194,228.250641 391.692322,231.274841 401.985321,234.832993 
	C385.816071,250.896149 369.634277,266.946716 353.482361,283.027222 
	C344.047241,292.420624 334.659851,301.861969 325.180206,311.602356 
z"/>
<path fill="#D32F2F" opacity="1.000000" stroke="none" 
	d="
M402.409180,234.905380 
	C391.692322,231.274841 381.174194,228.250641 371.160919,224.029068 
	C357.337189,218.201019 344.562286,210.283035 334.101715,199.433121 
	C323.300934,188.230347 312.583435,176.827133 303.021027,164.581161 
	C291.262970,149.523422 283.924072,132.050873 279.192871,113.190201 
	C278.266357,103.483238 277.173492,94.019760 277.093719,84.547737 
	C276.916260,63.480888 283.740112,44.347912 294.891907,26.762693 
	C299.307983,19.799017 304.749237,13.485476 309.987976,6.723794 
	C310.809448,12.561062 310.936218,18.628429 312.004242,24.525320 
	C315.269409,42.552956 322.292511,59.353573 331.753418,74.807777 
	C341.861847,91.319756 352.515076,107.716042 364.825897,122.594513 
	C375.098999,135.010208 387.609680,145.757874 400.031769,156.167374 
	C417.019348,170.402740 436.029541,181.759064 456.187927,191.027908 
	C470.251373,197.494278 484.866791,202.327545 500.385132,203.811600 
	C502.625916,204.025894 504.956543,203.300232 507.676422,203.032822 
	C490.103973,220.519424 468.631592,231.438202 444.057495,235.817169 
	C430.385559,238.253448 416.526855,237.655579 402.409180,234.905380 
z"/>
<path fill="#D32F2F" opacity="1.000000" stroke="none" 
	d="
M311.699493,4.975042 
	C311.714355,5.439506 311.462555,6.014652 310.880066,6.520791 
	C310.843842,5.996430 311.138336,5.541078 311.699493,4.975042 
z"/>
<path fill="#D32F2F" opacity="1.000000" stroke="none" 
	d="
M508.283936,203.020691 
	C508.227264,202.819427 508.431061,202.526367 508.888123,202.130585 
	C508.942383,202.328201 508.743378,202.628525 508.283936,203.020691 
z"/>
</svg>