<?xml version="1.0" standalone="no"?>
<!DOCTYPE svg PUBLIC "-//W3C//DTD SVG 20010904//EN"
 "http://www.w3.org/TR/2001/REC-SVG-20010904/DTD/svg10.dtd">
<svg version="1.0" xmlns="http://www.w3.org/2000/svg"
 width="512.000000pt" height="512.000000pt" viewBox="0 0 512.000000 512.000000"
 preserveAspectRatio="xMidYMid meet">

<g transform="translate(0.000000,512.000000) scale(0.100000,-0.100000)"
fill="#000000" stroke="none">
<path d="M1925 5103 c-123 -44 -201 -118 -247 -230 l-23 -58 -5 -1468 -5
-1468 -258 325 c-142 179 -274 339 -295 357 -93 82 -245 118 -365 86 -123 -32
-214 -109 -270 -227 -41 -85 -49 -206 -20 -290 17 -51 815 -1446 909 -1590
176 -269 440 -447 768 -518 73 -15 160 -17 931 -17 844 0 851 0 932 22 337 90
585 329 690 668 l28 90 3 1144 c2 999 1 1151 -13 1196 -20 71 -88 169 -144
211 -55 40 -155 74 -220 74 -49 0 -147 -24 -168 -42 -10 -8 -13 -113 -13 -463
l0 -452 -25 -26 c-14 -13 -36 -27 -48 -29 -33 -6 -81 9 -103 33 -18 20 -19 45
-24 443 l-5 421 -32 67 c-95 201 -297 285 -495 206 l-28 -10 0 -550 0 -550
-29 -29 c-41 -41 -101 -41 -142 0 l-29 29 0 484 c0 402 -3 494 -15 543 -61
234 -274 353 -497 279 l-48 -16 0 -645 0 -645 -29 -29 c-44 -44 -102 -43 -143
2 l-28 29 0 1128 c0 732 -4 1149 -11 1191 -31 192 -176 330 -357 338 -56 3
-91 -1 -127 -14z"/>
</g>
</svg>
