<?xml version="1.0" standalone="no"?>
<!DOCTYPE svg PUBLIC "-//W3C//DTD SVG 20010904//EN"
 "http://www.w3.org/TR/2001/REC-SVG-20010904/DTD/svg10.dtd">
<svg version="1.0" xmlns="http://www.w3.org/2000/svg"
 width="512.000000pt" height="512.000000pt" viewBox="0 0 512.000000 512.000000"
 preserveAspectRatio="xMidYMid meet">

<g transform="translate(0.000000,512.000000) scale(0.100000,-0.100000)"
fill="#000000" stroke="none">
<path d="M1235 4911 c-11 -5 -31 -21 -45 -36 l-25 -27 -3 -761 c-2 -518 1
-779 8 -814 34 -164 160 -295 325 -338 32 -8 60 -16 62 -18 1 -2 -15 -560 -38
-1239 -30 -922 -38 -1246 -30 -1275 40 -147 201 -235 352 -193 85 24 167 107
190 193 8 29 0 353 -30 1275 -31 918 -38 1238 -30 1243 7 4 30 10 52 13 58 10
153 63 208 118 54 54 103 145 119 221 7 35 10 296 8 814 l-3 763 -33 32 c-28
28 -39 33 -82 33 -43 0 -54 -5 -82 -33 l-33 -32 -5 -597 c-5 -553 -6 -597 -22
-607 -13 -8 -23 -8 -35 0 -17 10 -18 54 -23 607 l-5 597 -33 32 c-28 28 -39
33 -82 33 -43 0 -54 -5 -82 -33 l-33 -32 -5 -597 c-5 -553 -6 -597 -22 -607
-13 -8 -23 -8 -35 0 -17 10 -18 54 -23 607 l-5 597 -33 32 c-28 28 -39 33 -82
33 -43 0 -54 -5 -82 -33 l-33 -32 -5 -597 c-5 -553 -6 -597 -22 -607 -13 -8
-23 -8 -35 0 -17 10 -18 54 -23 607 l-5 597 -31 31 c-33 33 -92 46 -129 30z
m74 -84 c7 -9 11 -194 13 -605 l3 -592 33 -32 c28 -28 39 -33 82 -33 43 0 54
5 82 33 l33 32 5 597 c5 553 6 597 23 607 12 8 22 8 35 0 16 -10 17 -54 22
-607 l5 -597 33 -32 c28 -28 39 -33 82 -33 43 0 54 5 82 33 l33 32 5 597 c5
553 6 597 23 607 12 8 22 8 35 0 16 -10 17 -54 22 -607 l5 -597 33 -32 c28
-28 39 -33 82 -33 43 0 54 5 82 33 l33 32 5 597 c5 553 6 597 23 607 12 8 22
8 35 0 16 -11 17 -59 17 -785 l0 -774 -28 -61 c-53 -114 -170 -199 -292 -211
-30 -3 -60 -11 -65 -18 -8 -9 2 -393 30 -1280 l41 -1267 -23 -47 c-69 -132
-251 -149 -337 -31 -17 23 -33 56 -36 74 -3 17 12 595 35 1284 29 879 38 1258
30 1267 -5 7 -35 15 -65 18 -122 12 -239 97 -292 211 l-28 61 -3 769 c-2 567
1 772 9 782 15 18 43 18 58 1z"/>
<path d="M3430 4914 c-43 -8 -136 -43 -187 -71 -72 -40 -220 -194 -276 -290
-158 -266 -235 -640 -196 -953 27 -224 115 -404 251 -517 57 -48 187 -115 257
-133 l43 -11 -6 -142 c-4 -78 -22 -640 -42 -1248 -26 -822 -33 -1117 -25
-1146 49 -182 271 -262 431 -154 49 33 95 97 111 154 8 29 1 324 -25 1146 -20
608 -38 1170 -42 1247 l-6 142 58 17 c341 98 524 420 501 880 -19 362 -137
679 -330 882 -127 133 -246 192 -402 198 -49 2 -101 2 -115 -1z m182 -85 c278
-58 513 -414 574 -869 65 -494 -106 -846 -455 -933 -36 -9 -71 -23 -78 -30
-11 -11 -7 -222 27 -1275 31 -958 38 -1271 30 -1302 -20 -76 -108 -140 -190
-140 -82 0 -170 64 -190 140 -8 31 -1 338 30 1302 34 1057 39 1264 27 1275 -7
7 -42 21 -78 30 -316 79 -488 375 -466 802 15 277 95 535 228 732 140 209 343
309 541 268z"/>
</g>
</svg>
