<svg version="1.1" id="Layer_1" xmlns="http://www.w3.org/2000/svg" xmlns:xlink="http://www.w3.org/1999/xlink" x="0px" y="0px"
	 width="100%" viewBox="0 0 512 512" enable-background="new 0 0 512 512" xml:space="preserve">
<path fill="#000000" opacity="1.000000" stroke="none" 
	d="
M322.000000,513.000000 
	C214.692734,513.000000 107.885460,513.000000 1.039095,513.000000 
	C1.039095,342.401031 1.039095,171.802063 1.039095,1.101549 
	C171.557281,1.101549 342.114624,1.101549 512.835999,1.101549 
	C512.835999,171.666534 512.835999,342.333252 512.835999,513.000000 
	C449.468719,513.000000 385.984344,513.000000 322.000000,513.000000 
M302.273102,429.743225 
	C320.782135,439.482941 339.201324,449.399078 357.837677,458.888733 
	C367.304352,463.709137 377.003448,463.216431 386.047546,457.438934 
	C397.168030,450.335144 402.025269,440.218842 399.975739,426.163879 
	C399.650024,424.117218 399.375671,422.060760 398.989166,420.025665 
	C397.717651,413.330536 396.405518,406.643158 395.012756,399.087463 
	C393.952850,393.057800 392.892944,387.028107 391.977631,380.157623 
	C391.318268,375.998108 390.734314,371.824921 389.984131,367.681854 
	C388.311798,358.446533 386.556396,349.226227 384.978516,339.158356 
	C384.651947,336.934814 384.409210,334.695038 383.981964,332.490997 
	C382.979248,327.318024 381.888306,322.162140 380.987213,316.290894 
	C387.672272,309.565582 394.357330,302.840302 401.662903,295.846893 
	C408.476501,289.248474 415.290070,282.650024 422.718597,275.796844 
	C429.847900,268.547638 436.977203,261.298431 444.721222,253.795166 
	C449.142151,249.370697 453.720337,245.090012 457.936035,240.477951 
	C461.545441,236.529205 464.739502,232.200821 468.796478,227.654541 
	C470.834869,220.439545 472.330139,213.223633 468.971802,205.269073 
	C465.202576,196.257706 459.280823,189.078140 449.426147,187.156403 
	C436.390045,184.614304 423.150696,183.114456 409.162842,181.019409 
	C405.503632,180.348663 401.863251,179.542999 398.182098,179.029724 
	C378.668640,176.308884 359.143433,173.672440 339.626068,170.979294 
	C335.800354,170.451370 333.154175,168.755447 331.307373,164.916779 
	C325.419342,152.678116 319.047882,140.672012 312.937622,127.794937 
	C303.297821,108.226730 293.371613,88.792618 284.123901,69.040825 
	C278.427917,56.875092 262.570190,49.510429 250.410797,52.847572 
	C242.267105,55.082603 235.258743,58.854092 231.510742,66.214989 
	C220.951874,86.952034 211.044327,108.020714 200.240265,129.273392 
	C193.973114,141.868561 187.762161,154.492493 181.354874,167.015976 
	C180.688660,168.318130 178.970810,169.648636 177.548599,169.906845 
	C167.356125,171.757355 157.128510,173.431000 146.883820,174.973312 
	C132.602585,177.123352 118.296753,179.110046 103.160286,181.017715 
	C92.591614,182.673431 82.072029,184.851456 71.441650,185.850571 
	C58.609890,187.056580 50.024387,193.263153 45.002140,205.799057 
	C41.556522,213.727417 42.932453,221.408356 46.247375,229.675095 
	C53.460388,237.130997 60.673405,244.586914 68.151337,252.664719 
	C76.420609,260.815186 84.689873,268.965668 93.224678,277.744720 
	C95.329155,279.509705 97.528320,281.174713 99.518929,283.059906 
	C104.050774,287.351807 108.480293,291.751770 113.203995,296.722992 
	C119.858307,303.481750 126.512619,310.240509 132.793671,317.731598 
	C131.584167,325.154327 130.374664,332.577087 128.790771,340.731476 
	C127.527023,347.733307 126.182213,354.721771 125.023430,361.740936 
	C123.966492,368.143127 123.111191,374.578644 121.788033,381.729492 
	C120.580856,388.819183 119.373680,395.908844 118.018532,403.819611 
	C116.734512,410.879242 115.450500,417.938873 114.020241,425.839355 
	C114.011497,429.182831 113.826546,432.536682 114.023560,435.868011 
	C115.045952,453.155273 135.108307,467.019531 152.102570,460.261230 
	C160.499924,456.921753 168.419617,452.347931 176.457657,448.145599 
	C190.361008,440.876801 204.188217,433.462372 218.781357,426.002106 
	C229.305603,420.645020 240.229172,415.925995 250.200500,409.685425 
	C255.946289,406.089447 259.553650,407.089233 264.829956,410.063324 
	C276.939514,416.889099 289.552338,422.822083 302.273102,429.743225 
z"/>
<path fill="#FFB726" opacity="1.000000" stroke="none" 
	d="
M122.167015,380.999451 
	C123.111191,374.578644 123.966492,368.143127 125.023430,361.740936 
	C126.182213,354.721771 127.527023,347.733307 129.347214,340.446289 
	C133.124420,340.774323 136.344513,341.918854 139.566071,341.923004 
	C217.275238,342.022888 294.984619,342.030945 372.693756,341.915802 
	C376.741730,341.909790 380.787842,340.666870 384.834839,339.999817 
	C386.556396,349.226227 388.311798,358.446533 389.984131,367.681854 
	C390.734314,371.824921 391.318268,375.998108 391.483246,380.576691 
	C382.370056,380.663849 373.751770,380.061371 365.132355,380.044830 
	C316.719696,379.951843 268.306396,379.878571 219.894104,380.042419 
	C187.317703,380.152710 154.742661,380.666321 122.167015,380.999451 
z"/>
<path fill="#FFCA22" opacity="1.000000" stroke="none" 
	d="
M468.117279,228.040329 
	C464.739502,232.200821 461.545441,236.529205 457.936035,240.477951 
	C453.720337,245.090012 449.142151,249.370697 444.023682,253.754959 
	C440.694641,253.476501 438.063660,253.036545 435.431458,253.028976 
	C312.916504,252.676620 190.401459,252.361893 67.886414,252.042831 
	C60.673405,244.586914 53.460388,237.130997 46.616428,229.247742 
	C48.951118,228.547119 50.916714,228.034988 52.882397,228.034637 
	C191.294022,228.010437 329.705658,228.027069 468.117279,228.040329 
z"/>
<path fill="#FFCD21" opacity="1.000000" stroke="none" 
	d="
M468.456879,227.847443 
	C329.705658,228.027069 191.294022,228.010437 52.882397,228.034637 
	C50.916714,228.034988 48.951118,228.547119 46.588898,228.906509 
	C42.932453,221.408356 41.556522,213.727417 45.482597,205.486282 
	C48.762913,205.449005 51.562702,205.964767 54.362644,205.965561 
	C192.519562,206.004639 330.676483,205.999481 468.833405,205.999207 
	C472.330139,213.223633 470.834869,220.439545 468.456879,227.847443 
z"/>
<path fill="#FFD121" opacity="1.000000" stroke="none" 
	d="
M468.902588,205.634140 
	C330.676483,205.999481 192.519562,206.004639 54.362644,205.965561 
	C51.562702,205.964767 48.762913,205.449005 45.564819,205.086609 
	C50.024387,193.263153 58.609890,187.056580 71.441650,185.850571 
	C82.072029,184.851456 92.591614,182.673431 103.749321,181.437592 
	C106.383598,182.238297 108.427979,182.945282 110.474213,182.950714 
	C138.123688,183.024109 165.773407,183.000000 193.423065,183.000000 
	C263.380035,183.000015 333.337067,183.016968 403.293915,182.922943 
	C405.529602,182.919937 407.763824,181.777771 409.998718,181.166656 
	C423.150696,183.114456 436.390045,184.614304 449.426147,187.156403 
	C459.280823,189.078140 465.202576,196.257706 468.902588,205.634140 
z"/>
<path fill="#FFD520" opacity="1.000000" stroke="none" 
	d="
M409.580780,181.093033 
	C407.763824,181.777771 405.529602,182.919937 403.293915,182.922943 
	C333.337067,183.016968 263.380035,183.000015 193.423065,183.000000 
	C165.773407,183.000000 138.123688,183.024109 110.474213,182.950714 
	C108.427979,182.945282 106.383598,182.238297 104.169907,181.512054 
	C118.296753,179.110046 132.602585,177.123352 146.883820,174.973312 
	C157.128510,173.431000 167.356125,171.757355 177.548599,169.906845 
	C178.970810,169.648636 180.688660,168.318130 181.354874,167.015976 
	C187.762161,154.492493 193.973114,141.868561 201.036407,129.125854 
	C236.859543,128.985596 271.886566,128.999756 306.913574,128.981964 
	C308.896820,128.980957 310.879944,128.717438 312.863129,128.576080 
	C319.047882,140.672012 325.419342,152.678116 331.307373,164.916779 
	C333.154175,168.755447 335.800354,170.451370 339.626068,170.979294 
	C359.143433,173.672440 378.668640,176.308884 398.182098,179.029724 
	C401.863251,179.542999 405.503632,180.348663 409.580780,181.093033 
z"/>
<path fill="#FFC623" opacity="1.000000" stroke="none" 
	d="
M68.018875,252.353775 
	C190.401459,252.361893 312.916504,252.676620 435.431458,253.028976 
	C438.063660,253.036545 440.694641,253.476501 443.716339,253.881989 
	C436.977203,261.298431 429.847900,268.547638 422.021545,275.756104 
	C418.859070,275.476929 416.393707,275.031128 413.928192,275.030029 
	C332.158936,274.993744 250.389709,275.000000 168.620468,275.000000 
	C145.638489,275.000000 122.656120,274.941681 99.675125,275.092438 
	C97.432137,275.107147 95.197601,276.410797 92.959137,277.116150 
	C84.689873,268.965668 76.420609,260.815186 68.018875,252.353775 
z"/>
<path fill="#FFC024" opacity="1.000000" stroke="none" 
	d="
M401.042419,296.114990 
	C394.357330,302.840302 387.672272,309.565582 380.511963,316.732147 
	C377.740570,317.448914 375.444519,317.963989 373.148224,317.965240 
	C295.777130,318.007080 218.406006,318.009796 141.034912,317.957855 
	C138.412033,317.956116 135.789581,317.332855 133.166931,316.999268 
	C126.512619,310.240509 119.858307,303.481750 113.273499,296.089417 
	C116.055473,294.637207 118.766960,293.106842 121.480545,293.103088 
	C211.801605,292.978638 302.122864,292.999664 392.444092,293.003235 
	C393.943146,293.003296 395.587891,292.671539 396.903198,293.176147 
	C398.433533,293.763214 399.675354,295.102264 401.042419,296.114990 
z"/>
<path fill="#FFB327" opacity="1.000000" stroke="none" 
	d="
M121.977524,381.364471 
	C154.742661,380.666321 187.317703,380.152710 219.894104,380.042419 
	C268.306396,379.878571 316.719696,379.951843 365.132355,380.044830 
	C373.751770,380.061371 382.370056,380.663849 391.410950,380.997101 
	C392.892944,387.028107 393.952850,393.057800 394.775146,399.757294 
	C391.467255,401.284760 388.398071,402.887054 385.326477,402.891663 
	C296.273285,403.025177 207.219879,402.999023 118.166504,402.998535 
	C119.373680,395.908844 120.580856,388.819183 121.977524,381.364471 
z"/>
<path fill="#FFBC25" opacity="1.000000" stroke="none" 
	d="
M132.980301,317.365417 
	C135.789581,317.332855 138.412033,317.956116 141.034912,317.957855 
	C218.406006,318.009796 295.777130,318.007080 373.148224,317.965240 
	C375.444519,317.963989 377.740570,317.448914 380.434906,317.086365 
	C381.888306,322.162140 382.979248,327.318024 383.981964,332.490997 
	C384.409210,334.695038 384.651947,336.934814 384.906677,339.579102 
	C380.787842,340.666870 376.741730,341.909790 372.693756,341.915802 
	C294.984619,342.030945 217.275238,342.022888 139.566071,341.923004 
	C136.344513,341.918854 133.124420,340.774323 129.534409,340.080444 
	C130.374664,332.577087 131.584167,325.154327 132.980301,317.365417 
z"/>
<path fill="#FFDD1E" opacity="1.000000" stroke="none" 
	d="
M312.900391,128.185516 
	C310.879944,128.717438 308.896820,128.980957 306.913574,128.981964 
	C271.886566,128.999756 236.859543,128.985596 201.356277,128.968506 
	C211.044327,108.020714 220.951874,86.952034 231.510742,66.214989 
	C235.258743,58.854092 242.267105,55.082603 250.410797,52.847572 
	C262.570190,49.510429 278.427917,56.875092 284.123901,69.040825 
	C293.371613,88.792618 303.297821,108.226730 312.900391,128.185516 
z"/>
<path fill="#FFC423" opacity="1.000000" stroke="none" 
	d="
M401.352661,295.980957 
	C399.675354,295.102264 398.433533,293.763214 396.903198,293.176147 
	C395.587891,292.671539 393.943146,293.003296 392.444092,293.003235 
	C302.122864,292.999664 211.801605,292.978638 121.480545,293.103088 
	C118.766960,293.106842 116.055473,294.637207 113.147202,295.781799 
	C108.480293,291.751770 104.050774,287.351807 99.518929,283.059906 
	C97.528320,281.174713 95.329155,279.509705 93.091911,277.430420 
	C95.197601,276.410797 97.432137,275.107147 99.675125,275.092438 
	C122.656120,274.941681 145.638489,275.000000 168.620468,275.000000 
	C250.389709,275.000000 332.158936,274.993744 413.928192,275.030029 
	C416.393707,275.031128 418.859070,275.476929 421.714081,275.883484 
	C415.290070,282.650024 408.476501,289.248474 401.352661,295.980957 
z"/>
<path fill="#FFB027" opacity="1.000000" stroke="none" 
	d="
M118.092522,403.409058 
	C207.219879,402.999023 296.273285,403.025177 385.326477,402.891663 
	C388.398071,402.887054 391.467255,401.284760 394.823273,400.189941 
	C396.405518,406.643158 397.717651,413.330536 398.989166,420.025665 
	C399.375671,422.060760 399.650024,424.117218 399.488037,426.573456 
	C396.704498,426.657166 394.409363,426.053284 392.112793,426.047852 
	C364.667755,425.982788 337.221802,425.922791 309.778381,426.142731 
	C307.164764,426.163727 304.566315,428.080719 301.960846,429.117493 
	C289.552338,422.822083 276.939514,416.889099 264.829956,410.063324 
	C259.553650,407.089233 255.946289,406.089447 250.200500,409.685425 
	C240.229172,415.925995 229.305603,420.645020 218.143890,425.773010 
	C215.296982,425.029480 213.094269,424.107544 210.876907,424.070801 
	C201.065491,423.908264 191.248657,423.901764 181.435989,424.019867 
	C159.012131,424.289764 136.589569,424.665680 114.166489,424.998505 
	C115.450500,417.938873 116.734512,410.879242 118.092522,403.409058 
z"/>
<path fill="#FFAD28" opacity="1.000000" stroke="none" 
	d="
M114.093361,425.418945 
	C136.589569,424.665680 159.012131,424.289764 181.435989,424.019867 
	C191.248657,423.901764 201.065491,423.908264 210.876907,424.070801 
	C213.094269,424.107544 215.296982,425.029480 217.776917,425.826508 
	C204.188217,433.462372 190.361008,440.876801 176.457657,448.145599 
	C168.419617,452.347931 160.499924,456.921753 152.102570,460.261230 
	C135.108307,467.019531 115.045952,453.155273 114.023560,435.868011 
	C113.826546,432.536682 114.011497,429.182831 114.093361,425.418945 
z"/>
<path fill="#FFAD28" opacity="1.000000" stroke="none" 
	d="
M302.116974,429.430359 
	C304.566315,428.080719 307.164764,426.163727 309.778381,426.142731 
	C337.221802,425.922791 364.667755,425.982788 392.112793,426.047852 
	C394.409363,426.053284 396.704498,426.657166 399.416565,426.990723 
	C402.025269,440.218842 397.168030,450.335144 386.047546,457.438934 
	C377.003448,463.216431 367.304352,463.709137 357.837677,458.888733 
	C339.201324,449.399078 320.782135,439.482941 302.116974,429.430359 
z"/>
</svg>