<svg version="1.1" id="Layer_1" xmlns="http://www.w3.org/2000/svg" xmlns:xlink="http://www.w3.org/1999/xlink" x="0px" y="0px"
	 width="100%" viewBox="0 0 512 512" enable-background="new 0 0 512 512" xml:space="preserve">
<path fill="#000000" opacity="1.000000" stroke="none" 
	d="
M275.000000,513.000000 
	C184.688583,513.000000 94.877144,512.978577 5.065850,513.085693 
	C1.786970,513.089600 0.895023,512.626587 0.897515,509.067627 
	C1.015118,341.108673 1.016980,173.149658 0.891168,5.190738 
	C0.888347,1.424732 1.860397,0.914211 5.307318,0.916179 
	C173.099655,1.011998 340.892059,1.011652 508.684418,0.918076 
	C512.108887,0.916166 513.113403,1.393531 513.110474,5.182446 
	C512.982666,173.141373 512.985107,341.100403 513.101562,509.059357 
	C513.104004,512.601440 512.239136,513.091980 508.942413,513.087219 
	C431.128387,512.974731 353.314178,513.000000 275.000000,513.000000 
z"/>
<path fill="#070502" opacity="1.000000" stroke="none" 
	d="
M122.260239,288.750641 
	C115.110489,282.958008 109.112732,276.467957 102.780975,270.327209 
	C100.129990,267.756195 98.637550,264.685364 98.158470,261.140839 
	C97.505066,256.306549 100.295021,252.899109 105.030563,251.965561 
	C115.813354,249.839874 126.243256,252.408173 136.622589,254.488754 
	C159.800659,259.134918 182.919159,264.089935 206.000275,269.197693 
	C210.351044,270.160522 212.459351,268.408661 214.553574,265.205200 
	C225.994720,247.704071 234.902130,228.931641 242.984726,209.701874 
	C248.978333,195.442123 254.340988,180.903534 262.192108,167.450180 
	C268.447754,156.730759 276.473328,148.829803 289.166626,146.410843 
	C309.252808,142.583008 312.844086,126.228188 306.133942,111.556313 
	C300.636932,99.537041 292.301483,90.029350 279.282990,85.518127 
	C276.458466,84.539360 273.711731,83.292580 271.019470,81.983521 
	C262.820770,77.997017 260.564270,71.769257 264.448700,64.134636 
	C267.876648,57.397106 276.446991,54.804100 283.389862,59.059212 
	C314.472778,78.109131 335.740265,104.418022 342.869080,140.902679 
	C343.772491,145.526321 344.809387,149.798309 348.406158,153.337906 
	C351.608215,156.488983 353.780579,160.529816 354.804138,165.042145 
	C354.950531,165.687347 355.043335,166.478027 355.462036,166.908539 
	C364.528595,176.230438 361.522064,187.186829 358.840454,197.514023 
	C351.930878,224.123505 338.292969,247.600784 323.432678,270.436249 
	C321.684082,273.123230 317.753693,275.883270 319.245636,278.858521 
	C320.623474,281.606262 325.047577,279.650879 328.105957,279.996460 
	C346.587006,282.084991 365.269897,280.975433 383.728119,284.439575 
	C396.141541,286.769257 404.586578,294.051392 412.681549,302.544128 
	C416.926208,306.997375 419.627502,312.324158 420.756958,318.333740 
	C421.316956,321.313202 422.862213,322.215637 425.614441,321.922485 
	C444.565521,319.904144 460.924347,313.693939 470.029297,295.194733 
	C471.864258,291.466492 474.841400,288.465057 478.433868,286.150391 
	C484.502472,282.240387 491.376923,284.494141 493.789978,291.346863 
	C495.027039,294.859955 495.520782,298.563660 494.812561,302.194916 
	C490.832550,322.602173 480.392609,338.225494 460.730377,346.479553 
	C448.702667,351.528717 436.068573,354.568695 423.086975,355.997955 
	C420.317413,356.302917 419.191223,357.638641 417.722809,360.122925 
	C409.948456,373.275665 401.735016,384.960968 383.701294,386.365753 
	C359.176697,388.276184 335.637573,384.196381 312.014587,379.218597 
	C290.468536,374.678558 269.306458,368.722961 248.584259,361.283386 
	C244.210007,359.712952 240.502167,360.117767 236.836060,362.766907 
	C221.019272,374.195923 204.497879,384.468170 187.226425,393.582489 
	C174.242157,400.434418 160.905579,406.483032 147.208710,411.675018 
	C127.719177,419.062836 107.868263,425.378265 87.166641,428.409454 
	C70.686638,430.822540 54.120441,432.499756 37.486618,429.908142 
	C31.043213,428.904236 24.741213,427.238525 19.535994,422.928040 
	C13.619162,418.028259 13.783812,414.456299 19.956272,410.020752 
	C32.045368,401.333374 45.225662,394.473480 58.478405,387.896729 
	C87.417122,373.535767 113.596367,354.909302 139.965881,336.533844 
	C146.523941,331.963898 153.029465,327.311920 159.707458,322.923340 
	C163.198929,320.628815 163.085571,318.935760 159.689255,316.778198 
	C146.597198,308.461243 134.521042,298.774445 122.260239,288.750641 
z"/>
<path fill="#DC1300" opacity="1.000000" stroke="none" 
	d="
M300.648071,155.273560 
	C307.292969,155.303329 313.301971,157.378738 319.876099,158.300537 
	C325.005585,165.708359 324.737885,173.899399 323.910553,181.903732 
	C319.651398,223.112000 301.134125,257.973785 275.382294,289.535889 
	C268.438171,298.046783 261.125061,306.230194 253.596924,314.227142 
	C240.387375,328.259338 224.671173,339.238983 209.304489,350.639069 
	C183.864380,369.512360 155.073166,381.661377 125.497314,392.201752 
	C111.058060,397.347687 96.510887,402.129120 81.325928,404.653412 
	C78.970276,405.045044 76.689529,405.532074 74.715927,403.034607 
	C74.286163,400.532562 75.957367,400.022125 77.389565,399.151123 
	C83.181412,395.628784 89.611053,393.179230 95.120270,388.505798 
	C95.556419,388.094849 95.746895,387.949463 96.254486,387.640869 
	C99.521790,386.912750 102.201187,385.816772 104.523895,383.299927 
	C104.961441,382.930450 105.156853,382.807495 105.681915,382.581299 
	C108.720505,381.825867 111.164963,380.660370 113.490402,378.536285 
	C113.936714,378.182587 114.122658,378.051178 114.617630,377.776978 
	C118.314034,376.435364 121.714500,375.260223 124.474167,372.236145 
	C124.911339,371.853485 125.104744,371.721069 125.621490,371.450012 
	C128.731003,370.845306 131.225327,369.785706 133.457733,367.462036 
	C133.871094,367.050476 134.056366,366.906433 134.556595,366.607727 
	C137.161942,366.043854 139.176773,365.070831 141.166290,363.294495 
	C143.017334,362.276398 144.717819,361.663116 146.302612,360.188538 
	C149.221634,358.712921 151.801956,357.329803 154.300354,355.164062 
	C164.239380,349.705414 172.737183,342.793823 181.264175,335.960632 
	C192.626678,326.855194 203.681641,317.371918 215.172333,307.816620 
	C214.313965,308.433228 213.705276,308.495270 212.758209,308.173035 
	C210.918060,305.766418 211.710617,303.868195 213.279175,302.122253 
	C233.648315,279.449219 246.728363,252.623749 257.421112,224.460632 
	C259.211456,219.745117 261.824158,215.505615 264.273224,211.169067 
	C272.871216,195.944550 279.340729,179.648590 287.982086,164.433624 
	C290.882446,159.326889 293.788147,155.144913 300.648071,155.273560 
z"/>
<path fill="#C81600" opacity="1.000000" stroke="none" 
	d="
M74.755745,401.949036 
	C80.144470,403.929169 84.893677,401.541962 89.615967,400.474548 
	C113.425049,395.092743 136.010193,386.029297 158.484756,376.728577 
	C189.643539,363.834045 216.214600,343.768982 241.843460,322.424957 
	C252.716919,313.369446 261.655701,302.244568 270.832764,291.489349 
	C284.065552,275.980988 295.374695,259.175323 304.191010,240.709473 
	C313.447906,221.320755 320.209106,201.257843 321.896057,179.702454 
	C322.433319,172.836853 320.720886,166.143814 320.204407,158.907349 
	C331.858063,160.554855 341.883057,165.255737 349.744171,174.603683 
	C352.880585,178.333328 353.249054,181.764679 352.610809,186.023926 
	C350.363861,201.019684 344.753876,214.871643 337.860413,228.185638 
	C288.579193,323.367310 212.011826,385.189545 109.059082,414.333893 
	C88.527275,420.146088 67.334038,422.759094 45.961227,422.748474 
	C38.293804,422.744690 30.429726,422.453278 23.314194,418.681305 
	C20.956701,417.431610 19.945309,416.298737 23.714485,415.097168 
	C24.175777,414.857788 24.295486,414.712708 24.659420,414.426331 
	C25.091721,414.246521 25.279797,414.208008 25.742840,414.083984 
	C26.149992,413.854767 26.282179,413.711151 26.662792,413.412537 
	C27.091866,413.212067 27.272511,413.166595 27.723831,413.051819 
	C31.012741,413.310028 33.410332,411.529907 35.875401,410.362823 
	C59.843861,399.015076 84.001266,388.075592 108.026825,376.852203 
	C110.415741,375.736206 112.787582,374.249176 115.783516,376.290894 
	C116.463799,377.360931 116.327446,378.039154 115.300583,378.822571 
	C114.987991,379.054535 114.991035,378.988770 115.023483,378.994324 
	C112.414124,380.921356 109.504326,382.344177 106.239990,383.824249 
	C105.977211,384.052277 105.989120,383.984192 106.023003,383.991028 
	C103.417206,385.921661 100.506660,387.341705 97.244507,388.824158 
	C96.982231,389.052673 96.991249,388.987152 97.023300,388.995270 
	C86.089645,395.402496 75.174896,401.903717 64.539902,405.430725 
	C66.929771,404.746948 70.610031,402.973633 74.755745,401.949036 
z"/>
<path fill="#EF1A05" opacity="1.000000" stroke="none" 
	d="
M116.718750,377.429688 
	C109.120110,377.005981 103.622169,381.685242 97.598793,384.463837 
	C81.355896,391.956696 64.905090,399.016174 48.950268,407.155273 
	C43.089458,410.145081 36.588810,411.881805 30.375675,414.178375 
	C29.526707,414.492188 28.753923,414.409363 28.122482,413.253998 
	C42.294914,404.681824 57.050632,397.256348 71.738945,389.673645 
	C86.051064,382.285156 99.587227,373.421021 113.024178,364.484497 
	C126.382248,355.600403 139.497177,346.357941 152.767654,337.346985 
	C169.025101,326.307800 184.880966,314.535095 197.982300,299.696198 
	C217.083405,278.061737 232.345810,253.969040 244.138748,227.541611 
	C252.064484,209.780365 258.637146,191.402191 268.000854,174.288193 
	C271.873291,167.210526 276.162964,160.582077 283.700134,156.632339 
	C289.071228,153.817719 294.548004,154.276932 300.566193,154.998901 
	C291.089813,158.623306 288.723969,168.276596 284.620544,176.118011 
	C269.886353,204.274353 256.636108,233.158783 243.294922,262.003967 
	C236.304794,277.117432 226.852264,290.931946 215.342697,303.161163 
	C214.179611,304.396942 213.095276,305.636505 213.084274,307.832581 
	C212.234161,313.056091 207.548065,314.526825 204.517944,317.150146 
	C192.544281,327.516205 180.482269,337.813202 167.742310,347.262146 
	C166.673355,348.054962 165.533524,348.723724 164.153427,349.654907 
	C163.015030,350.120117 162.156677,350.381439 161.281555,351.274109 
	C160.907669,351.662720 160.751755,351.811096 160.324646,352.132446 
	C159.456635,352.539093 158.866638,352.785370 158.149994,353.440002 
	C157.757309,353.797180 157.590439,353.928955 157.135223,354.196899 
	C154.963303,354.396484 153.838791,355.745331 152.353912,357.085663 
	C151.972046,357.451111 151.810211,357.587341 151.367554,357.870514 
	C150.511185,358.281250 149.943573,358.558167 149.239624,359.206726 
	C148.832672,359.536469 148.655914,359.650482 148.179749,359.864197 
	C147.001175,360.125214 146.297501,360.521576 145.775757,361.665527 
	C145.120438,362.374634 144.575073,362.701294 143.628922,362.941345 
	C142.404984,363.063019 141.580780,363.285461 140.924988,364.436401 
	C139.270905,366.168579 137.319183,366.760773 135.220810,367.782410 
	C134.945358,367.975311 134.998947,367.998840 134.996017,367.969727 
	C132.542908,370.177277 129.432175,371.207428 126.226311,372.783447 
	C125.941422,372.982727 126.001167,373.001953 126.002823,372.970642 
	C123.284149,374.986359 120.358154,376.635071 116.718750,377.429688 
z"/>
<path fill="#C71600" opacity="1.000000" stroke="none" 
	d="
M362.599487,355.709167 
	C363.579315,359.872864 364.439026,363.744598 364.994659,367.659515 
	C365.580933,371.790131 367.132172,374.328461 371.928680,374.164246 
	C375.704987,374.035004 379.548218,374.449677 383.290619,375.059143 
	C389.510376,376.072021 394.642731,374.229919 399.377655,369.808594 
	C400.033081,369.665680 400.369659,369.651764 400.736328,370.142212 
	C398.015869,375.018951 394.132568,377.327484 388.903961,377.629181 
	C381.637177,378.048523 374.382690,378.688904 367.126404,379.277374 
	C364.304077,379.506317 362.460083,378.353455 361.173279,375.825531 
	C358.943115,371.444305 356.527771,367.157318 353.676849,362.969879 
	C352.836792,366.242920 354.022705,369.209290 354.834717,372.600769 
	C353.719421,374.830963 352.042053,375.091919 350.077393,374.681549 
	C325.185425,369.481476 299.721527,366.563751 276.149139,356.103821 
	C273.405762,354.886475 270.671692,353.647583 268.100555,352.104462 
	C263.979462,349.631104 263.326263,346.888916 266.277985,343.083649 
	C272.909851,334.533997 280.620972,326.897369 287.436584,318.506256 
	C292.984772,311.675568 299.051208,305.228424 303.759216,297.249329 
	C307.983215,287.893188 315.163544,285.477356 324.320801,287.130920 
	C325.605408,287.362885 326.924469,287.403778 328.603394,287.703430 
	C332.139465,291.596558 329.518524,294.544739 327.456116,297.912231 
	C326.291840,299.635132 324.756958,299.375641 323.391663,299.606049 
	C323.334564,299.615692 323.256042,299.853668 323.288269,299.952271 
	C323.333984,300.092224 323.473419,300.201538 323.779449,300.579163 
	C325.710510,304.260254 323.666046,306.887604 322.116394,309.612793 
	C315.690460,320.913361 306.311584,329.667267 297.148773,338.614563 
	C296.149353,339.590485 294.104401,340.174561 294.696564,341.977386 
	C295.223297,343.581085 297.127502,343.454742 298.569031,343.725342 
	C313.916718,346.606232 329.163879,350.040894 344.701385,351.874756 
	C348.446686,352.316803 352.015930,353.605164 355.960663,353.212616 
	C358.059479,353.003784 360.660187,353.437744 362.599487,355.709167 
z"/>
<path fill="#DC1300" opacity="1.000000" stroke="none" 
	d="
M325.898224,298.726379 
	C326.862976,295.145538 327.898590,291.899658 328.956665,288.263733 
	C331.360016,287.875427 333.740875,287.877106 336.560974,287.959167 
	C342.292999,289.679047 347.752991,289.431854 353.190186,289.522522 
	C355.081482,289.554047 357.509674,288.775482 358.328918,291.365845 
	C359.043304,293.624634 357.416870,294.989075 355.805786,296.327271 
	C343.426270,306.609802 340.741119,319.859375 343.889191,335.551483 
	C345.793549,332.825195 345.947571,330.110321 347.189819,327.432861 
	C350.237457,321.891479 350.547607,316.032501 351.657959,309.950989 
	C359.150360,300.405365 368.660065,295.197845 380.463623,294.378418 
	C383.039734,294.199554 384.585083,295.311981 384.189606,298.472107 
	C379.873413,304.144806 374.044342,305.220123 367.937561,304.914673 
	C363.344452,304.684998 361.523468,306.258118 361.952179,310.897186 
	C362.611572,318.032104 360.797913,324.363892 355.384613,329.460205 
	C352.312683,332.352325 352.602539,335.434937 355.162384,338.721924 
	C358.968658,343.609436 361.870819,348.997864 362.894653,355.597839 
	C347.429901,355.164886 332.216125,352.813141 317.092682,349.774414 
	C309.450531,348.238861 301.781860,346.833740 294.148102,345.258698 
	C292.443329,344.906952 289.799072,345.758301 289.239258,343.766876 
	C288.562897,341.360870 291.257080,340.207062 292.805847,338.908936 
	C303.425415,330.008057 312.988983,320.192139 320.177277,308.239136 
	C321.376984,306.244232 322.621216,304.276306 322.987305,301.544128 
	C323.966187,298.936615 325.813477,299.838501 327.325928,300.089386 
	C329.142670,300.390686 330.941772,300.582886 332.311310,300.489899 
	C330.421082,300.424622 327.956177,300.874298 325.898224,298.726379 
z"/>
<path fill="#DA1400" opacity="1.000000" stroke="none" 
	d="
M203.020020,280.611755 
	C196.502365,290.747711 188.895981,299.535736 179.350403,306.964508 
	C176.627151,307.240753 174.485840,306.487915 172.394760,305.367828 
	C153.252121,295.114288 134.463516,284.260712 116.677803,271.777527 
	C114.318054,270.121307 110.108757,268.889954 112.215027,263.979675 
	C117.506485,261.735718 122.263252,263.086975 127.326370,264.993958 
	C130.379776,268.626007 134.332016,269.412720 138.260559,270.207672 
	C152.099442,273.008179 165.237747,278.478333 175.978256,280.100189 
	C172.283234,279.259766 165.415482,277.519043 158.558884,275.747559 
	C156.809189,275.295532 154.359406,275.705231 153.540161,272.831268 
	C154.734512,270.108917 156.851181,270.380951 158.778320,270.738678 
	C172.288071,273.246643 185.826401,275.586487 199.383331,277.821594 
	C200.925049,278.075745 202.240860,278.657349 203.020020,280.611755 
z"/>
<path fill="#B11900" opacity="1.000000" stroke="none" 
	d="
M303.660278,297.064911 
	C303.728058,301.056946 300.749146,303.756165 298.585968,306.836761 
	C289.397491,319.922363 279.072052,332.104370 268.382172,343.964569 
	C265.295105,347.389648 266.508453,348.794128 269.931427,350.523895 
	C288.134613,359.722839 307.732971,364.232605 327.576385,367.967865 
	C336.402374,369.629272 345.226654,371.299896 354.454651,372.974548 
	C355.948761,374.611664 357.039886,376.240509 358.641357,378.631226 
	C351.769867,379.172729 345.868744,377.714355 340.002228,376.790558 
	C310.950012,372.215973 282.572205,364.844635 254.650620,355.668213 
	C249.475632,353.967468 249.446503,353.889496 253.334946,350.044525 
	C270.588470,332.983673 288.260803,316.321259 303.660278,297.064911 
z"/>
<path fill="#53A44E" opacity="1.000000" stroke="none" 
	d="
M370.300110,361.351776 
	C367.655090,351.941772 365.490326,342.843353 358.849854,335.670044 
	C356.910828,333.575409 359.331146,332.561798 360.515259,331.047058 
	C365.155487,328.908203 366.241730,324.751099 367.118988,320.735718 
	C367.948547,316.938629 369.776031,314.925903 373.710815,314.604736 
	C377.061798,314.331177 380.062653,312.788727 383.043518,311.318970 
	C387.029846,309.353424 390.877045,309.218353 394.839478,311.626617 
	C398.957458,314.129425 403.417877,315.962463 408.073547,317.269073 
	C409.833435,317.762970 411.632721,318.171967 413.006165,320.139343 
	C412.595581,322.154175 412.555237,322.309174 411.455780,322.022858 
	C407.946838,321.109192 404.452057,320.130371 400.985596,319.066528 
	C393.076324,316.639160 387.391937,319.122101 383.928162,326.596771 
	C378.881989,337.486176 381.583405,347.177643 391.863525,354.597839 
	C394.355286,357.120880 394.665497,359.808136 393.325562,362.560852 
	C392.027618,365.227203 389.312988,365.373169 386.857971,365.157898 
	C381.337860,364.673859 375.599182,365.022491 370.300110,361.351776 
z"/>
<path fill="#E71903" opacity="1.000000" stroke="none" 
	d="
M384.286041,298.651733 
	C381.697632,294.087128 377.842499,295.902618 374.571716,296.851562 
	C366.408295,299.219971 359.073303,303.112549 353.214508,309.936798 
	C350.066681,315.581970 349.332184,321.578461 348.984924,328.042542 
	C348.325226,333.030823 345.873352,337.154938 345.644501,341.989105 
	C340.441010,338.390411 338.704590,327.119720 341.254517,315.033020 
	C342.886993,307.295013 345.243439,303.803345 357.173676,291.640015 
	C350.414032,290.192322 343.480530,291.751587 337.173340,288.371674 
	C348.939240,287.706085 360.837097,287.969604 373.836365,290.325195 
	C365.495148,292.105621 358.892059,294.391846 356.308685,302.510040 
	C364.447479,294.989197 374.411041,291.870514 384.909973,292.351624 
	C396.139313,292.866211 402.091278,302.305908 409.252441,309.395599 
	C404.296173,308.999634 400.716888,306.138824 396.891479,303.501678 
	C393.250549,300.991730 390.047150,296.828186 384.286041,298.651733 
z"/>
<path fill="#499E42" opacity="1.000000" stroke="none" 
	d="
M397.414093,350.988464 
	C392.288757,349.983154 389.651337,346.536194 387.241364,342.419983 
	C387.383362,341.259460 387.713440,340.494812 388.829163,339.797241 
	C392.573822,338.288208 396.106506,338.666138 399.587463,338.649628 
	C412.870697,338.586609 426.158325,339.029419 439.277283,336.026611 
	C448.853577,333.834656 457.727142,330.512451 464.978333,322.979736 
	C466.546906,321.535797 468.558594,321.376221 469.684418,319.407349 
	C472.909027,315.728027 476.762451,312.855652 477.010559,307.350952 
	C478.840240,303.586884 481.215485,300.575775 483.219299,297.328430 
	C484.021820,296.027893 484.967468,294.876617 487.072601,294.836365 
	C488.483978,305.651886 485.115234,315.119598 478.358521,323.832703 
	C477.824646,324.237122 477.568695,324.452942 477.184814,324.891571 
	C477.045166,325.100464 477.057983,325.032288 477.082306,325.057007 
	C461.386688,338.674561 442.701721,345.577942 422.524750,348.770813 
	C414.372223,350.060913 406.114471,350.947144 397.414093,350.988464 
z"/>
<path fill="#EA1904" opacity="1.000000" stroke="none" 
	d="
M126.410400,268.280792 
	C122.319542,264.294647 117.479187,265.183716 112.438690,265.012451 
	C110.709953,266.561951 109.200836,266.477722 107.165054,265.386047 
	C106.190208,264.613739 105.635193,264.095947 104.954788,263.319458 
	C104.860992,262.107422 104.152458,261.752777 103.253700,261.180725 
	C101.139603,256.999084 103.917854,257.416351 106.325081,257.495911 
	C117.242386,257.856659 127.882706,260.111603 138.582504,262.055328 
	C149.029282,263.953064 159.360916,266.420654 169.794037,268.393738 
	C178.679626,270.074127 187.576721,272.246979 196.423950,274.391083 
	C198.016251,274.776978 199.682312,275.222443 201.281982,275.122559 
	C203.309631,274.995880 205.152512,275.490204 205.898392,277.165741 
	C206.588501,278.716003 204.619629,279.604736 203.415131,280.885712 
	C191.382187,279.004791 179.674042,276.897675 167.938263,274.957520 
	C163.438431,274.213593 159.099365,272.157104 154.123245,273.385803 
	C153.242218,274.036194 152.532806,273.990326 151.470322,273.943085 
	C150.154556,273.722900 149.322220,273.125488 147.946884,273.023376 
	C140.660248,271.360382 133.686646,270.037079 126.410400,268.280792 
z"/>
<path fill="#C71600" opacity="1.000000" stroke="none" 
	d="
M106.864044,265.450439 
	C108.201729,265.086700 109.658241,265.041840 111.551224,265.006378 
	C118.427704,271.393524 126.368965,275.680176 133.954590,280.382172 
	C147.788666,288.957245 161.712143,297.412415 176.299561,304.694458 
	C177.165558,305.126770 177.865906,305.890869 178.835587,306.786621 
	C171.473648,316.020569 170.777100,316.481293 161.688080,309.773804 
	C142.851151,295.872650 123.783241,282.218109 106.864044,265.450439 
z"/>
<path fill="#A1D594" opacity="1.000000" stroke="none" 
	d="
M487.490967,294.447327 
	C484.740814,299.013367 482.028320,303.191437 479.130890,307.651001 
	C476.473480,312.366180 472.847321,315.870148 469.334717,319.917023 
	C468.836090,320.582764 468.485229,320.903595 467.752258,321.310669 
	C463.200317,323.853882 458.623566,325.566101 454.150391,328.305267 
	C447.952057,330.385254 442.002014,331.884003 435.582306,333.151215 
	C424.202026,332.378387 413.054077,332.756317 402.328094,329.386261 
	C396.794159,327.647552 395.294434,328.576904 392.788147,333.933319 
	C391.760162,336.130371 391.652191,338.892303 388.912811,340.489319 
	C388.232239,341.012634 387.929047,341.427246 387.400452,341.969482 
	C384.174896,334.392181 387.407013,328.210327 392.093872,322.461121 
	C393.643311,320.560455 395.717987,320.129578 397.848022,321.652557 
	C408.400360,329.197479 420.498474,328.343811 432.401917,327.641205 
	C438.467987,327.283112 444.405975,325.547424 450.151825,323.235718 
	C461.095276,318.832947 469.368835,311.670929 474.592621,301.028381 
	C475.978607,298.204620 477.584930,295.487183 479.135559,292.746704 
	C480.271362,290.739410 482.339630,290.403961 484.310181,290.371735 
	C486.598358,290.334259 487.290985,292.093170 487.490967,294.447327 
z"/>
<path fill="#499E42" opacity="1.000000" stroke="none" 
	d="
M287.036133,75.232468 
	C287.842377,70.486000 289.504730,69.734840 293.308136,72.726601 
	C306.914490,83.429398 316.959717,96.947296 325.428772,112.236755 
	C325.512909,112.747070 325.428741,112.949173 325.236450,113.464439 
	C325.791138,117.178062 327.692596,120.054527 329.216156,123.495956 
	C329.534973,126.286324 330.535797,128.500519 331.325165,131.218231 
	C330.415222,134.550201 331.129059,137.423355 331.429016,140.328323 
	C331.609100,142.072174 331.831696,143.933929 330.398682,145.844925 
	C325.881439,145.322296 321.709564,144.517120 317.152313,143.516663 
	C315.027069,141.574051 316.011139,139.580780 316.261505,137.657730 
	C317.446320,128.556290 318.337311,119.481133 313.832214,110.499924 
	C314.721680,104.140930 313.592438,98.998856 307.560669,95.595657 
	C304.868073,94.670395 303.726196,92.529526 302.351929,90.745789 
	C299.100037,86.524979 295.407715,82.816216 291.002197,79.815773 
	C289.379242,78.710449 287.545868,77.782387 287.036133,75.232468 
z"/>
<path fill="#A1D594" opacity="1.000000" stroke="none" 
	d="
M413.298279,320.053741 
	C406.038696,320.347046 399.723206,317.401520 393.724579,313.805359 
	C390.498932,311.871613 387.667206,311.781738 384.407074,313.524384 
	C380.754791,315.476624 376.968628,317.231537 372.651001,317.134369 
	C370.238251,317.080078 369.624969,318.840607 369.247040,320.685333 
	C368.709015,323.311523 368.015656,325.919373 366.371643,328.028625 
	C365.160309,329.582764 364.261322,332.051849 361.111633,331.029053 
	C364.344696,324.983795 366.809357,318.781311 366.005707,311.694031 
	C365.800201,309.881378 366.436554,309.016998 368.447357,308.968170 
	C375.313721,308.801514 381.998169,308.050201 386.968506,302.391479 
	C388.575653,300.561707 389.686829,302.495697 390.637756,303.335815 
	C396.857086,308.830414 403.054596,314.256348 411.777374,315.422241 
	C414.556854,315.793762 413.591400,317.960388 413.298279,320.053741 
z"/>
<path fill="#9AD28F" opacity="1.000000" stroke="none" 
	d="
M315.091614,108.602753 
	C317.886902,116.781998 319.744690,124.715256 319.142273,133.118790 
	C318.903503,136.449615 318.537079,139.657440 316.882874,142.986832 
	C314.649353,143.746368 312.531555,144.166580 310.342712,143.627548 
	C309.883545,140.821060 312.120361,139.109238 313.036407,136.909637 
	C318.104706,124.739807 315.337402,113.664322 308.575378,103.149101 
	C302.492706,93.690338 294.965302,85.744774 283.949951,82.128021 
	C281.261841,81.245407 281.590851,80.285851 282.868866,78.725311 
	C283.916046,77.446579 285.169098,76.336441 286.654114,75.014847 
	C295.976929,78.730453 301.826111,86.031868 307.669769,93.828476 
	C311.731049,98.061943 314.093536,102.793518 315.091614,108.602753 
z"/>
<path fill="#2F852B" opacity="1.000000" stroke="none" 
	d="
M369.901123,361.446411 
	C374.562378,360.808472 379.057617,361.876495 383.580475,362.609009 
	C391.045502,363.817993 391.828583,363.240662 392.038666,355.309937 
	C398.272400,357.026154 405.001923,355.160278 411.275879,357.096802 
	C411.170776,359.476715 409.222992,359.327881 408.033722,359.699585 
	C402.538177,361.417236 397.592468,364.043945 393.417297,368.009705 
	C391.721527,369.620392 389.843353,370.306580 387.537109,370.115387 
	C383.893372,369.813232 380.227081,369.251129 376.598755,369.417816 
	C370.970001,369.676422 369.263794,366.940948 369.901123,361.446411 
z"/>
<path fill="#2F852B" opacity="1.000000" stroke="none" 
	d="
M397.289368,351.213684 
	C398.841888,349.672455 400.929291,349.054565 403.122955,349.093018 
	C428.181091,349.532074 450.486481,341.410919 470.914215,327.399292 
	C472.568115,326.264832 474.245819,325.167786 476.728516,325.081848 
	C472.376862,333.098846 464.801666,337.544556 456.573608,340.918304 
	C442.450806,346.708954 427.555237,349.363678 412.451782,350.905060 
	C409.939423,351.161469 407.473511,351.518433 405.140228,352.356720 
	C402.383118,353.347260 399.931976,353.104858 397.289368,351.213684 
z"/>
<path fill="#63B25E" opacity="1.000000" stroke="none" 
	d="
M281.148071,74.642578 
	C280.873077,76.517471 279.716278,76.758049 278.178406,76.987335 
	C270.000916,74.078506 268.013123,71.203323 269.781738,64.756531 
	C271.910828,62.188530 274.716125,62.659889 277.572144,62.134705 
	C283.656616,64.964554 281.556244,69.858727 281.148071,74.642578 
z"/>
<path fill="#2F852B" opacity="1.000000" stroke="none" 
	d="
M329.221924,131.312653 
	C328.659851,128.573883 328.315826,126.143333 327.963562,123.295670 
	C327.347687,122.091400 327.417145,121.124947 327.608337,119.637482 
	C333.144470,127.122299 335.015930,136.342056 336.768280,145.513367 
	C337.529572,149.497757 334.495819,147.252136 332.521606,146.995438 
	C330.716156,141.918137 330.841309,136.633820 329.221924,131.312653 
z"/>
<path fill="#9AD28F" opacity="1.000000" stroke="none" 
	d="
M297.137390,151.324402 
	C296.478394,150.326065 296.779297,149.707443 298.150940,148.931976 
	C302.231628,146.624985 306.425018,145.602554 311.192352,145.751892 
	C314.029877,145.840775 313.910675,147.363220 314.799164,148.962494 
	C315.285004,148.879120 315.436584,149.248413 315.348145,149.431595 
	C315.259735,149.614777 314.925079,149.863358 314.717926,149.911758 
	C314.510773,149.960159 314.088501,149.878647 313.879028,149.829987 
	C308.586273,152.218567 303.048950,149.248199 297.585144,151.368073 
	C297.141785,151.453796 297.030090,151.275330 297.137390,151.324402 
z"/>
<path fill="#9AD28F" opacity="1.000000" stroke="none" 
	d="
M269.614594,64.558990 
	C270.335236,68.179787 271.410828,71.559654 275.306366,73.271408 
	C276.662842,73.867462 277.097717,75.153336 277.628662,76.741539 
	C273.511932,79.152893 269.609741,78.281723 267.206146,74.321976 
	C265.153625,70.940643 267.405762,67.700439 269.614594,64.558990 
z"/>
<path fill="#2F852B" opacity="1.000000" stroke="none" 
	d="
M328.609619,149.453796 
	C332.437683,150.776428 335.951172,152.281311 339.355652,154.001862 
	C340.695007,154.678741 341.944550,155.930176 341.151459,157.639862 
	C340.259247,159.563202 338.735840,158.723236 337.334503,158.108719 
	C334.762115,156.980667 332.165375,155.907990 329.225128,154.654602 
	C327.287201,153.084335 327.080231,151.492844 328.609619,149.453796 
z"/>
<path fill="#499E42" opacity="1.000000" stroke="none" 
	d="
M281.349792,74.808487 
	C279.914276,73.927170 279.196533,72.761345 279.738098,71.042717 
	C280.674072,68.072411 279.175323,65.518524 278.044525,62.545845 
	C283.795959,63.351227 285.175995,65.662743 283.177582,71.004532 
	C282.721191,72.224464 282.155182,73.403404 281.349792,74.808487 
z"/>
<path fill="#0C140A" opacity="1.000000" stroke="none" 
	d="
M329.002808,131.444397 
	C332.383575,135.579086 332.672485,140.799362 332.167511,146.553726 
	C331.611389,146.772415 331.062408,146.621353 330.283386,146.298889 
	C330.576202,141.315277 329.061829,136.653488 329.002808,131.444397 
z"/>
<path fill="#499E42" opacity="1.000000" stroke="none" 
	d="
M328.636841,149.051071 
	C328.952240,150.704758 328.936615,152.224304 328.896240,154.120407 
	C326.768005,153.825256 323.260803,155.113174 323.755310,150.427414 
	C323.617584,149.839005 323.471527,149.649414 323.592773,149.220184 
	C325.315186,147.088791 326.816528,148.422607 328.636841,149.051071 
z"/>
<path fill="#63B25E" opacity="1.000000" stroke="none" 
	d="
M315.254547,149.073395 
	C315.559570,148.965057 315.351898,148.792099 315.318451,148.835602 
	C315.972687,147.958939 316.670837,147.052277 318.474457,146.842117 
	C320.846344,148.417343 320.828491,150.207504 319.305237,152.479767 
	C317.578033,151.656891 314.849548,152.730545 314.021606,149.923950 
	C313.669586,149.781326 313.835175,149.744766 313.857178,149.826645 
	C314.249451,149.686142 314.605621,149.442963 315.254547,149.073395 
z"/>
<path fill="#499E42" opacity="1.000000" stroke="none" 
	d="
M319.304077,152.851562 
	C318.976135,151.117615 318.998077,149.408081 319.029297,147.269424 
	C320.404480,147.034622 322.183289,146.233398 322.753723,148.663086 
	C322.758820,149.173050 322.751495,149.395767 322.480591,149.824081 
	C321.929077,151.488480 321.408569,152.737915 319.304077,152.851562 
z"/>
<path fill="#2F852B" opacity="1.000000" stroke="none" 
	d="
M347.361389,162.636505 
	C344.426239,163.594925 344.213806,161.128769 342.470886,158.983597 
	C345.563141,159.175781 346.249084,161.093170 347.361389,162.636505 
z"/>
<path fill="#C71600" opacity="1.000000" stroke="none" 
	d="
M103.088623,261.268311 
	C103.961945,261.250641 105.452591,260.800873 104.980728,262.850220 
	C104.265678,262.558380 103.701965,262.055939 103.088623,261.268311 
z"/>
<path fill="#C71600" opacity="1.000000" stroke="none" 
	d="
M399.960815,369.924866 
	C400.348297,369.051178 401.059540,367.866486 401.929565,368.491425 
	C402.713989,369.054810 401.658844,369.777496 400.965515,370.484253 
	C400.586060,370.487762 400.405609,370.328949 399.960815,369.924866 
z"/>
<path fill="#2F852B" opacity="1.000000" stroke="none" 
	d="
M326.600342,116.691681 
	C327.733917,116.642952 327.934143,117.473412 327.941589,118.723068 
	C327.965271,119.054184 327.996704,119.018524 328.013977,119.002151 
	C326.507874,119.444359 326.383636,118.379753 326.600342,116.691681 
z"/>
<path fill="#2F852B" opacity="1.000000" stroke="none" 
	d="
M325.606873,113.798279 
	C326.257355,114.479324 326.593201,114.954933 326.945923,115.737686 
	C326.962769,116.044830 326.997986,116.007927 327.016479,115.990372 
	C325.787628,116.571136 325.230591,115.764610 324.729736,114.465210 
	C324.916290,113.924019 325.104279,113.758430 325.606873,113.798279 
z"/>
<path fill="#0C140A" opacity="1.000000" stroke="none" 
	d="
M322.474823,150.028625 
	C322.148590,149.722290 322.212189,149.445267 322.587036,149.074478 
	C322.948517,148.955933 323.130829,148.961517 323.586609,148.973816 
	C323.879517,149.158463 323.899048,149.336380 323.841095,149.771454 
	C323.419952,150.028259 323.076263,150.027924 322.474823,150.028625 
z"/>
<path fill="#EF1A05" opacity="1.000000" stroke="none" 
	d="
M24.676670,414.253479 
	C24.723291,414.454071 24.533676,414.612030 24.195433,414.880890 
	C24.023956,414.660278 24.155167,414.399963 24.676670,414.253479 
z"/>
<path fill="#EF1A05" opacity="1.000000" stroke="none" 
	d="
M26.680153,413.237183 
	C26.724522,413.436523 26.524828,413.599609 26.164970,413.872620 
	C26.014046,413.656464 26.157806,413.395966 26.680153,413.237183 
z"/>
<path fill="#9AD28F" opacity="1.000000" stroke="none" 
	d="
M297.266113,151.595398 
	C297.253510,151.632263 297.289307,151.346436 297.289307,151.346436 
	C297.289307,151.346436 297.214417,151.566544 297.285400,151.559235 
	C297.356415,151.551941 297.278748,151.558533 297.266113,151.595398 
z"/>
<path fill="#2F852B" opacity="1.000000" stroke="none" 
	d="
M477.288452,325.002258 
	C477.251465,324.835693 477.457794,324.570923 477.878235,324.170715 
	C477.905518,324.324890 477.718628,324.614502 477.288452,325.002258 
z"/>
<path fill="#499E42" opacity="1.000000" stroke="none" 
	d="
M325.926758,113.749336 
	C325.921509,114.003708 325.551422,113.952950 325.364685,113.947983 
	C325.023651,113.848915 324.869385,113.754822 324.777466,113.396950 
	C324.839752,113.133163 325.210632,112.831963 325.403870,112.688461 
	C325.708740,112.861626 325.820374,113.178299 325.926758,113.749336 
z"/>
<path fill="#1B0200" opacity="1.000000" stroke="none" 
	d="
M281.831482,201.160522 
	C273.050385,228.960648 259.841736,254.679214 240.992538,277.331024 
	C240.809570,277.550903 240.430710,277.607788 238.650879,278.431366 
	C256.392944,253.577179 267.950562,226.903946 281.831482,201.160522 
z"/>
<path fill="#340400" opacity="1.000000" stroke="none" 
	d="
M162.851013,349.225311 
	C177.895187,338.979584 191.239075,327.111237 204.802277,315.515442 
	C207.439590,313.260681 210.072006,311.000214 212.893143,308.473267 
	C215.443222,306.507477 217.806824,304.810791 220.170441,303.114136 
	C220.451584,303.470978 220.732727,303.827789 221.013885,304.184631 
	C200.060654,322.391968 179.343704,340.886108 155.817749,356.511780 
	C155.278000,356.755402 155.030014,356.811981 154.612091,356.528381 
	C154.239471,354.603424 155.288574,353.962738 156.880432,353.408264 
	C157.253647,353.366577 157.302063,353.369171 157.316177,353.349457 
	C157.479385,351.992920 158.730362,351.926910 159.873108,351.295197 
	C160.175568,351.203156 160.038467,351.050629 160.109528,351.130096 
	C160.606339,350.109497 161.681229,349.859009 162.851013,349.225311 
z"/>
<path fill="#340400" opacity="1.000000" stroke="none" 
	d="
M75.337662,401.997864 
	C68.936806,404.535034 63.026600,407.421814 56.349594,408.248383 
	C70.433136,403.340271 83.133537,395.662048 96.686821,388.987305 
	C92.476059,393.950592 85.977180,395.825500 80.491676,399.323792 
	C78.966118,400.296692 77.269028,401.000610 75.337662,401.997864 
z"/>
<path fill="#340400" opacity="1.000000" stroke="none" 
	d="
M116.188889,377.521301 
	C119.344215,375.824036 122.308655,374.347290 125.638786,372.904907 
	C123.545784,376.636383 119.280624,377.425049 115.349304,379.193726 
	C115.324654,378.616974 115.661324,378.179413 116.188889,377.521301 
z"/>
<path fill="#340400" opacity="1.000000" stroke="none" 
	d="
M126.291031,373.163696 
	C128.104111,370.284515 131.364029,369.375671 134.628448,367.910034 
	C133.192520,371.262177 129.650467,371.892120 126.291031,373.163696 
z"/>
<path fill="#340400" opacity="1.000000" stroke="none" 
	d="
M106.342468,384.162170 
	C108.200668,381.442841 111.367920,380.390564 114.690704,378.996094 
	C113.118202,382.095276 109.624313,382.726624 106.342468,384.162170 
z"/>
<path fill="#340400" opacity="1.000000" stroke="none" 
	d="
M97.341965,389.188660 
	C99.203285,386.439789 102.385811,385.406036 105.691048,383.985413 
	C104.123169,387.108826 100.649765,387.804749 97.341965,389.188660 
z"/>
<path fill="#340400" opacity="1.000000" stroke="none" 
	d="
M155.348022,356.460266 
	C153.057327,358.259796 150.588684,359.820801 147.819550,361.554901 
	C147.284775,361.861115 147.050491,361.994232 146.650696,361.764801 
	C146.413818,360.552124 146.712448,359.884949 147.828140,359.337097 
	C148.199860,359.236237 148.088104,359.034424 148.149048,359.136749 
	C148.599838,358.088074 149.696976,357.855225 150.927399,357.367401 
	C151.241531,357.347168 151.285583,357.349609 151.301697,357.334534 
	C151.831161,356.050201 152.822662,355.500214 154.468109,355.601105 
	C154.919907,355.913727 155.044968,356.067719 155.348022,356.460266 
z"/>
<path fill="#340400" opacity="1.000000" stroke="none" 
	d="
M135.270737,368.194397 
	C135.918701,366.031433 138.109741,365.780640 139.841431,364.347351 
	C140.501114,363.657776 141.038757,363.401917 142.115692,363.394501 
	C142.825394,363.645966 143.079422,363.823700 143.001831,364.327454 
	C140.312180,365.906799 137.954147,367.160156 135.270737,368.194397 
z"/>
<path fill="#340400" opacity="1.000000" stroke="none" 
	d="
M143.016190,362.266907 
	C143.809753,361.991638 144.289810,361.777161 144.918365,361.343811 
	C145.342758,360.719818 145.725769,360.515533 146.529373,360.663757 
	C146.959488,360.963837 147.076157,361.112457 147.355957,361.494507 
	C146.081238,362.594177 144.643417,363.460388 142.937897,364.490051 
	C142.530640,364.515259 142.391083,364.377075 142.048737,364.025208 
	C141.685089,363.059174 142.091766,362.634491 143.016190,362.266907 
z"/>
<path fill="#340400" opacity="1.000000" stroke="none" 
	d="
M284.139008,195.821289 
	C284.098175,195.522400 284.230194,195.110840 284.362244,194.699265 
	C284.908478,195.063797 284.706604,195.391006 284.139008,195.821289 
z"/>
<path fill="#340400" opacity="1.000000" stroke="none" 
	d="
M283.903717,195.882553 
	C283.835754,196.327820 283.785797,196.793365 283.735840,197.258896 
	C282.906677,197.032974 283.363159,196.618912 283.776367,196.086456 
	C283.966125,195.933975 283.921722,195.902817 283.903717,195.882553 
z"/>
<path fill="#340400" opacity="1.000000" stroke="none" 
	d="
M281.957947,200.883026 
	C281.950531,200.257782 281.762634,199.535126 282.611725,199.548859 
	C282.669098,199.549774 282.713745,200.338394 282.572296,200.948547 
	C282.380249,201.136414 282.080353,200.994888 281.957947,200.883026 
z"/>
<path fill="#B11900" opacity="1.000000" stroke="none" 
	d="
M285.547241,192.486130 
	C285.580719,192.545898 285.513733,192.426361 285.547241,192.486130 
z"/>
<path fill="#C81600" opacity="1.000000" stroke="none" 
	d="
M154.962067,355.523865 
	C153.840302,356.222229 152.885757,356.684723 151.624512,357.233337 
	C151.778015,354.348877 153.872879,353.454193 156.877640,353.302063 
	C156.545532,354.007050 155.837433,354.647522 154.962067,355.523865 
z"/>
<path fill="#C81600" opacity="1.000000" stroke="none" 
	d="
M146.978851,360.588776 
	C146.449570,360.892639 146.056335,360.970032 145.364990,361.086212 
	C145.381241,359.854156 146.171875,359.182526 147.850861,359.212830 
	C147.838211,359.611603 147.476562,359.986969 146.978851,360.588776 
z"/>
<path fill="#C81600" opacity="1.000000" stroke="none" 
	d="
M150.890350,357.299072 
	C150.430176,357.935333 149.618820,358.523499 148.508728,359.175354 
	C148.386948,357.874084 149.156464,357.203339 150.890350,357.299072 
z"/>
<path fill="#C81600" opacity="1.000000" stroke="none" 
	d="
M142.972809,362.190674 
	C142.936554,362.587250 142.543427,362.968414 141.998123,363.580566 
	C141.447968,363.883514 141.049957,363.955475 140.350311,364.059570 
	C140.414703,362.796875 141.288422,362.182098 142.972809,362.190674 
z"/>
<path fill="#C81600" opacity="1.000000" stroke="none" 
	d="
M162.778168,349.090240 
	C162.345490,349.737946 161.568085,350.402130 160.485626,351.137939 
	C160.358841,349.895050 161.126953,349.212524 162.778168,349.090240 
z"/>
<path fill="#C81600" opacity="1.000000" stroke="none" 
	d="
M159.824097,351.191010 
	C159.419006,351.850739 158.662445,352.498322 157.618073,353.237823 
	C157.353546,351.924683 158.097031,351.236969 159.824097,351.191010 
z"/>
<path fill="#1B0200" opacity="1.000000" stroke="none" 
	d="
M325.419312,298.385223 
	C330.531830,299.589752 335.607788,298.829102 341.333221,301.350647 
	C334.694122,302.670288 329.286316,300.843781 323.448364,301.125671 
	C320.739441,301.026581 318.456543,300.869232 315.106171,300.638306 
	C318.728668,298.055847 321.993561,298.740997 325.419312,298.385223 
z"/>
<path fill="#1B0200" opacity="1.000000" stroke="none" 
	d="
M349.249756,328.126343 
	C347.400452,321.858978 347.117279,315.521729 352.538574,310.085144 
	C353.208557,316.249023 350.668518,321.907318 349.249756,328.126343 
z"/>
<path fill="#1B0200" opacity="1.000000" stroke="none" 
	d="
M352.998962,349.826111 
	C352.924347,351.312927 352.484558,352.489410 351.339935,351.342682 
	C348.700256,348.698090 347.376099,345.531860 348.720245,340.519379 
	C351.260376,343.776825 352.411865,346.461060 352.998962,349.826111 
z"/>
<path fill="#340400" opacity="1.000000" stroke="none" 
	d="
M126.254257,268.408783 
	C133.593338,268.424652 140.770569,270.784882 148.543762,272.102051 
	C149.520111,272.067078 150.062805,272.145355 150.788940,272.626862 
	C151.735306,273.003967 152.447525,273.225159 153.520187,273.544067 
	C163.937561,276.163666 173.994476,278.685516 184.258682,281.259338 
	C183.133698,282.645630 181.894379,282.173523 180.959854,281.954041 
	C163.234360,277.791199 145.526367,273.553864 127.818497,269.316223 
	C127.343651,269.202576 126.910995,268.912628 126.254257,268.408783 
z"/>
<path fill="#0C140A" opacity="1.000000" stroke="none" 
	d="
M375.978455,334.911682 
	C376.136047,329.367828 375.633026,324.018738 381.383942,321.030212 
	C377.729095,329.946014 378.728302,338.858490 380.928070,347.860596 
	C377.209839,344.364441 375.767120,340.177338 375.978455,334.911682 
z"/>
<path fill="#0C140A" opacity="1.000000" stroke="none" 
	d="
M381.820984,356.790894 
	C382.486664,356.891296 382.863647,356.882782 383.118744,357.054871 
	C384.309387,357.858246 385.917816,358.377319 385.744537,360.241333 
	C385.719849,360.507416 385.016479,360.909088 384.627625,360.908630 
	C382.841553,360.906525 382.049255,359.690796 381.519775,357.812378 
	C381.468109,357.226196 381.472137,356.995667 381.820984,356.790894 
z"/>
<path fill="#0C140A" opacity="1.000000" stroke="none" 
	d="
M381.643311,357.300781 
	C381.307770,356.992004 380.933319,356.419983 382.045410,356.668427 
	C382.165863,356.816620 381.822479,357.144836 381.643311,357.300781 
z"/>
<path fill="#63B25E" opacity="1.000000" stroke="none" 
	d="
M389.038696,340.679443 
	C388.900299,337.809814 389.363831,335.106354 390.887573,332.598938 
	C395.329590,325.289307 396.701050,324.699524 404.590698,327.673615 
	C414.249573,331.314636 424.308899,331.371704 434.893555,331.239960 
	C433.941437,335.113159 430.004791,334.143524 427.690918,334.220428 
	C419.263672,334.500458 410.711975,335.545044 403.805267,333.692596 
	C419.382355,336.110016 435.991699,334.266693 452.277863,328.816620 
	C452.916748,328.602814 453.374725,328.079895 453.783081,327.138184 
	C457.766510,324.030151 461.923340,321.711792 466.704346,319.868317 
	C467.754517,320.740784 467.617310,321.611816 467.075439,322.827667 
	C463.997162,328.977051 458.007751,330.830383 452.784546,333.377899 
	C442.648285,338.321716 431.569214,340.215515 420.448608,340.837372 
	C410.179932,341.411560 399.846741,340.832153 389.038696,340.679443 
z"/>
<path fill="#63B25E" opacity="1.000000" stroke="none" 
	d="
M468.129944,319.306671 
	C470.634918,314.731628 475.010559,311.991943 478.657593,308.098694 
	C478.112305,312.861267 475.002045,316.358765 471.284973,319.826508 
	C470.083008,320.066345 469.149841,320.264099 468.129944,319.306671 
z"/>
<path fill="#0F1E0E" opacity="1.000000" stroke="none" 
	d="
M467.826660,319.255737 
	C468.790680,319.180603 469.689331,319.304779 470.791443,319.712402 
	C469.860474,320.979065 468.726013,321.962189 467.284912,323.053467 
	C465.280579,322.305176 466.648102,321.419983 467.016968,320.221680 
	C467.381195,319.864075 467.608185,319.716217 467.826660,319.255737 
z"/>
<path fill="#DA1400" opacity="1.000000" stroke="none" 
	d="
M150.932983,272.558929 
	C150.463730,272.707916 149.904373,272.633026 149.145599,272.349640 
	C149.654800,271.458862 150.301498,271.382019 150.932983,272.558929 
z"/>
<path fill="#0F1E0E" opacity="1.000000" stroke="none" 
	d="
M453.502747,326.930145 
	C455.267548,326.798401 456.674225,326.798401 458.080933,326.798401 
	C437.971130,335.991516 417.449921,339.276337 396.164612,331.780304 
	C408.961823,333.997284 421.808136,333.979950 435.019226,331.537537 
	C441.439941,330.486755 447.310516,328.850311 453.502747,326.930145 
z"/>
<path fill="#63B25E" opacity="1.000000" stroke="none" 
	d="
M315.332458,108.649902 
	C311.841766,104.708618 309.886902,99.770645 307.932251,94.444260 
	C313.831390,96.582146 316.423340,101.421066 315.332458,108.649902 
z"/>
<path fill="#0C140A" opacity="1.000000" stroke="none" 
	d="
M324.565826,112.994057 
	C324.839752,113.133163 324.949493,113.562828 325.063721,113.752930 
	C325.605377,114.583679 326.032806,115.224335 326.747620,115.918900 
	C327.202759,116.827942 327.370544,117.683067 327.784760,118.761986 
	C328.015808,120.023743 328.000427,121.061714 327.970154,122.489120 
	C325.399689,120.282997 324.221283,116.873482 322.783997,113.673569 
	C321.828186,111.545624 323.173126,112.041138 324.565826,112.994057 
z"/>
<path fill="#070502" opacity="1.000000" stroke="none" 
	d="
M315.192200,148.499374 
	C315.233307,149.302689 314.907074,149.640320 314.229980,149.943237 
	C313.707581,149.038025 314.026611,148.414993 315.192200,148.499374 
z"/>
</svg>