<svg version="1.1" id="Layer_1" xmlns="http://www.w3.org/2000/svg" xmlns:xlink="http://www.w3.org/1999/xlink" x="0px" y="0px"
	 width="100%" viewBox="0 0 512 512" enable-background="new 0 0 512 512" xml:space="preserve">
<path fill="#000000" opacity="1.000000" stroke="none" 
	d="
M289.000000,513.000000 
	C192.690048,513.000000 96.880096,513.000000 1.035069,513.000000 
	C1.035069,342.398346 1.035069,171.796707 1.035069,1.097524 
	C171.559967,1.097524 342.120026,1.097524 512.840027,1.097524 
	C512.840027,171.666550 512.840027,342.333252 512.840027,513.000000 
	C438.463348,513.000000 363.981659,513.000000 289.000000,513.000000 
M299.009827,391.355835 
	C296.644531,401.649292 294.787170,412.094666 291.766724,422.192139 
	C288.917725,431.716461 289.313416,440.041199 295.874390,447.953247 
	C299.489990,452.313385 302.259827,457.366516 305.534729,462.020081 
	C308.199554,465.806824 311.048584,469.463989 314.094086,473.551971 
	C317.779724,464.263092 324.475586,462.457916 334.074707,465.111237 
	C327.192596,456.464264 327.386017,449.119537 334.795898,442.507965 
	C325.136627,438.989990 315.861877,435.517914 306.520203,432.236359 
	C297.242859,428.977386 297.213501,429.061493 298.980103,419.791748 
	C299.253754,418.355865 299.497009,416.913605 299.801422,415.484314 
	C301.528259,407.375977 303.269379,399.270721 305.732910,391.010315 
	C316.671387,385.950409 321.534119,375.678680 327.786743,365.802490 
	C338.658630,358.418152 347.980591,349.386078 356.760284,339.414307 
	C360.656799,345.253754 364.168365,351.407318 368.586243,356.821350 
	C371.494995,360.386047 375.365540,359.243652 376.915924,354.825470 
	C382.306549,339.463470 385.945160,323.626801 386.824677,307.400482 
	C387.414337,296.521484 386.622223,285.534546 385.939911,274.627716 
	C385.018646,259.901520 380.403778,246.098648 374.333374,232.748749 
	C368.841034,220.670044 361.297363,209.876083 352.420502,200.161804 
	C347.268921,194.524246 340.882141,190.015427 334.995728,184.205688 
	C333.330566,176.187103 331.317078,168.220901 330.101318,160.134766 
	C328.959015,152.536957 328.699432,144.808701 327.980072,137.144547 
	C326.681549,123.310852 325.193787,109.493523 324.036774,95.648315 
	C322.757172,80.336517 316.322784,67.773285 303.720703,59.055828 
	C287.578674,47.889599 269.748230,47.447487 251.521667,52.889038 
	C232.033051,58.707371 221.945267,72.630249 219.073517,92.162689 
	C217.933044,99.919754 217.720810,107.809883 216.965958,115.627838 
	C215.694122,128.800034 214.344040,141.964767 212.993622,155.129227 
	C211.955322,165.250931 211.127258,175.419357 206.743866,185.548401 
	C199.526886,192.828903 191.774246,199.658447 185.193726,207.474762 
	C165.712234,230.614777 157.409454,258.064240 156.098053,287.835632 
	C155.771881,295.240326 156.677414,302.698212 156.994370,310.132599 
	C157.643417,325.356903 161.751663,339.872803 166.196259,354.294434 
	C167.728241,359.265381 171.693390,360.317352 174.980377,356.310974 
	C179.419159,350.900665 183.032761,344.813354 187.682388,339.172333 
	C190.812042,343.077087 193.941696,346.981873 196.973572,351.601837 
	C193.366623,356.516602 190.152817,361.787842 186.079788,366.279999 
	C173.335587,380.335602 158.675919,392.232117 143.058502,402.951294 
	C137.938416,406.465546 132.662048,409.752045 127.457138,413.142670 
	C155.722855,407.621796 183.043488,399.997406 207.415756,382.029694 
	C205.764526,388.217255 204.396194,393.344696 202.787720,399.372009 
	C213.240616,396.009338 221.304382,390.689636 229.740540,385.198090 
	C232.489029,387.182373 235.237534,389.166626 238.035812,391.938660 
	C240.001022,399.963043 241.927643,407.997162 243.940521,416.009552 
	C246.917130,427.858093 246.952774,427.873779 235.556854,432.761810 
	C233.473206,433.655548 231.268631,434.264069 229.133545,435.041748 
	C222.374603,437.503510 215.622131,439.983124 207.990219,442.776855 
	C217.174438,449.384430 214.264832,456.870148 210.545822,464.572510 
	C219.427200,462.890717 226.050812,464.413818 229.254990,473.474213 
	C232.098328,469.748657 234.595383,466.727783 236.814087,463.514709 
	C240.784714,457.764587 243.999207,451.375793 248.596817,446.202209 
	C255.742325,438.161469 253.687195,429.760437 251.534012,420.917999 
	C249.115402,410.985382 247.041077,400.968903 245.100388,390.356628 
	C247.776688,386.922119 250.452988,383.487610 253.976013,380.008789 
	C261.039612,380.661743 268.097229,381.728760 275.168793,381.831024 
	C280.419495,381.906921 285.688324,380.730927 291.002045,380.833923 
	C293.727722,384.061493 296.453430,387.289093 299.009827,391.355835 
M308.492249,50.046227 
	C305.847626,43.284111 300.545929,40.772217 293.695282,41.105213 
	C292.475647,41.164501 291.313232,42.401337 290.124390,43.094433 
	C291.237640,43.724079 292.339203,44.869617 293.466187,44.895199 
	C298.696594,45.013901 302.676636,46.856300 305.020691,51.790913 
	C305.409180,52.608719 306.653015,53.020210 307.501556,53.619453 
	C307.932281,52.650570 308.362976,51.681686 308.492249,50.046227 
M246.920273,41.042362 
	C237.408417,43.783546 233.661957,48.244354 236.703369,54.852993 
	C239.842636,48.019848 244.630569,44.281277 251.877975,44.687954 
	C252.178253,44.704807 252.848587,43.672367 252.791565,43.195103 
	C252.708725,42.502022 252.234573,41.430840 251.724503,41.297665 
	C250.466507,40.969219 249.093033,41.083092 246.920273,41.042362 
z"/>
<path fill="#EFEEED" opacity="1.000000" stroke="none" 
	d="
M207.071793,184.943939 
	C211.127258,175.419357 211.955322,165.250931 212.993622,155.129227 
	C214.344040,141.964767 215.694122,128.800034 216.965958,115.627838 
	C217.720810,107.809883 217.933044,99.919754 219.073517,92.162689 
	C221.945267,72.630249 232.033051,58.707371 251.521667,52.889038 
	C269.748230,47.447487 287.578674,47.889599 303.720703,59.055828 
	C316.322784,67.773285 322.757172,80.336517 324.036774,95.648315 
	C325.193787,109.493523 326.681549,123.310852 327.980072,137.144547 
	C328.699432,144.808701 328.959015,152.536957 330.101318,160.134766 
	C331.317078,168.220901 333.330566,176.187103 334.668213,184.670197 
	C329.283020,186.142303 326.979492,190.094528 326.393433,194.385315 
	C325.228516,202.913757 324.112457,211.592453 324.442902,220.152451 
	C325.190277,239.511902 328.885986,258.517365 334.556152,277.008514 
	C339.913361,294.479156 346.178589,311.671326 351.742981,329.133972 
	C348.584534,332.065857 345.718597,334.840576 342.872009,337.635071 
	C325.741364,354.451996 304.939514,363.672852 281.293854,365.850861 
	C257.421875,368.049713 235.039673,362.509033 214.969315,349.221924 
	C206.162384,343.391510 197.437378,337.176392 191.886505,327.390320 
	C204.821793,294.623566 215.478989,261.558868 218.352875,226.605881 
	C219.240295,215.812775 217.901489,204.761429 216.777298,193.911697 
	C216.260178,188.921051 212.987854,185.031845 207.071793,184.943939 
M290.126801,95.665962 
	C290.699066,96.229744 291.186432,97.140320 291.856567,97.304359 
	C299.662598,99.215179 308.138672,98.292084 311.775909,88.335258 
	C314.474670,80.947433 310.232513,71.986862 302.661774,69.402794 
	C295.498505,66.957802 289.171051,69.377914 286.611755,75.975548 
	C280.643524,83.242050 281.709900,89.222221 290.126801,95.665962 
M253.532059,94.594887 
	C261.886353,89.581100 262.747437,82.733284 255.978622,74.279282 
	C254.981598,73.069145 254.226593,71.379044 252.945175,70.732903 
	C247.716034,68.096169 242.341324,67.990395 237.390610,71.406174 
	C232.106750,75.051765 230.005081,80.334511 231.162979,86.587875 
	C232.214523,92.266769 236.048492,96.005226 241.327560,97.807678 
	C245.548462,99.248833 250.096039,100.038567 253.532059,94.594887 
M282.012543,111.985512 
	C285.709778,112.183128 289.407013,112.380745 293.104248,112.578362 
	C293.221924,112.068428 293.339630,111.558487 293.457336,111.048546 
	C285.417419,108.281868 278.138763,104.921089 274.928009,96.046822 
	C273.713409,92.689713 269.299286,93.284134 267.775299,97.210480 
	C265.252930,103.709068 260.546356,107.219543 254.300232,109.330551 
	C252.765533,109.849243 251.328506,110.656960 249.846588,111.331802 
	C249.898224,111.746170 249.949875,112.160538 250.001511,112.574913 
	C254.000900,112.383400 258.000275,112.191887 262.082489,112.757118 
	C263.703064,116.544922 264.890503,120.605469 267.058411,124.048660 
	C269.538177,127.987122 273.469055,128.121277 275.963165,124.223785 
	C278.314117,120.550102 279.504150,116.133507 282.012543,111.985512 
M310.154419,113.008415 
	C312.090973,111.628883 314.027496,110.249352 315.964050,108.869820 
	C314.062317,107.337524 312.323608,104.874603 310.218079,104.505783 
	C307.515991,104.032463 304.318787,104.760399 301.699982,105.849098 
	C298.427521,107.209534 298.417694,110.185684 301.669128,111.655647 
	C303.952728,112.688057 306.738922,112.608887 310.154419,113.008415 
M243.754837,107.754333 
	C239.948944,103.692902 233.076843,102.739716 228.975235,105.740471 
	C226.822769,107.315216 226.397079,109.056290 228.541611,111.048187 
	C232.507111,114.731476 241.072815,113.326767 243.754837,107.754333 
M225.331482,170.238861 
	C226.225983,170.579361 227.877899,171.271744 227.906586,171.210007 
	C229.514511,167.749023 231.846252,164.443207 231.645889,160.497589 
	C231.057510,160.266022 230.469131,160.034470 229.880737,159.802917 
	C228.370056,163.046066 226.859360,166.289230 225.331482,170.238861 
M250.001312,193.565872 
	C250.129486,195.218552 250.257660,196.871216 250.446564,199.307068 
	C254.058395,194.933121 254.342499,188.539871 251.387085,186.413620 
	C250.909637,188.602631 250.459579,190.666122 250.001312,193.565872 
M289.998901,191.531128 
	C290.382324,193.933487 290.765747,196.335846 291.149170,198.738205 
	C291.924469,198.629837 292.699768,198.521484 293.475067,198.413132 
	C293.097534,194.436142 292.719971,190.459152 292.342407,186.482162 
	C291.697144,186.496597 291.051880,186.511032 290.406616,186.525467 
	C290.270691,187.906601 290.134766,189.287720 289.998901,191.531128 
M262.000000,214.368546 
	C262.000000,211.737000 262.000000,209.105438 262.000000,206.473892 
	C261.294312,206.460358 260.588593,206.446823 259.882904,206.433304 
	C259.593170,210.423584 259.303467,214.413864 259.013733,218.404144 
	C259.654572,218.492661 260.295380,218.581161 260.936218,218.669678 
	C261.288788,217.513748 261.641388,216.357819 262.000000,214.368546 
M261.992889,180.051620 
	C262.329224,176.569275 262.665558,173.086914 263.001923,169.604568 
	C262.259308,169.521271 261.516693,169.437973 260.774109,169.354675 
	C260.231354,172.809967 259.628082,176.258957 259.266693,179.733124 
	C259.239349,179.996262 260.931091,180.438202 261.992889,180.051620 
M284.151917,213.918518 
	C283.759644,211.422424 283.367340,208.926331 282.975037,206.430222 
	C282.230408,206.569122 281.485779,206.708023 280.741150,206.846924 
	C281.198792,210.747818 281.656464,214.648712 282.114136,218.549606 
	C282.711761,218.574585 283.309418,218.599579 283.907074,218.624573 
	C284.068634,217.310959 284.230194,215.997345 284.151917,213.918518 
M273.000061,228.963989 
	C273.000061,225.814575 273.000061,222.665176 273.000061,219.515762 
	C272.370087,219.502899 271.740112,219.490051 271.110168,219.477203 
	C269.202515,222.955261 269.938873,226.767258 270.447449,230.550476 
	C271.290222,230.299088 272.133026,230.047684 273.000061,228.963989 
M232.989716,186.784561 
	C232.159058,186.299973 231.328400,185.815369 230.497757,185.330765 
	C229.656082,188.698990 228.814407,192.067230 227.972748,195.435455 
	C228.751984,195.679703 229.531235,195.923935 230.310471,196.168182 
	C231.201385,193.305374 232.092285,190.442551 232.989716,186.784561 
M280.479614,170.341721 
	C280.490173,174.221313 280.381104,178.128799 283.233948,181.426483 
	C283.768616,178.350266 283.572144,175.374268 283.003845,172.471039 
	C282.809479,171.478134 281.682617,170.667755 280.479614,170.341721 
M270.007996,190.911346 
	C270.007996,193.854767 270.007996,196.798203 270.007996,199.741623 
	C270.899109,199.753601 271.790253,199.765564 272.681366,199.777542 
	C272.681366,196.213638 272.681366,192.649734 272.681366,189.085815 
	C271.803925,189.408798 270.926483,189.731796 270.007996,190.911346 
M305.988586,205.742599 
	C305.516174,204.849228 305.043732,203.955872 304.571320,203.062500 
	C303.981537,203.255707 303.391785,203.448914 302.802002,203.642120 
	C303.351288,207.391510 303.900604,211.140915 304.449921,214.890305 
	C305.204926,214.814163 305.959930,214.738022 306.714966,214.661896 
	C306.477203,211.968033 306.239441,209.274170 305.988586,205.742599 
M300.000732,173.362061 
	C299.792877,170.675400 300.791412,167.455841 296.160400,165.822617 
	C296.759277,170.208481 297.265350,173.914551 297.771393,177.620605 
	C298.301727,177.619095 298.832031,177.617584 299.362335,177.616074 
	C299.574982,176.478104 299.787598,175.340134 300.000732,173.362061 
M246.016739,174.462418 
	C246.221893,171.805069 246.427032,169.147720 246.632187,166.490372 
	C245.868729,166.430725 245.105286,166.371094 244.341827,166.311462 
	C243.926407,170.051315 243.510986,173.791153 243.095566,177.531006 
	C243.661514,177.663483 244.227463,177.795959 244.793411,177.928436 
	C245.192856,177.048264 245.592316,176.168106 246.016739,174.462418 
M315.524872,164.004288 
	C314.853424,162.729446 314.181946,161.454620 313.510498,160.179794 
	C312.818268,160.501266 312.126007,160.822739 311.433777,161.144211 
	C312.960236,164.753036 314.486694,168.361847 316.013123,171.970673 
	C316.671814,171.732376 317.330505,171.494064 317.989197,171.255768 
	C317.277863,169.063766 316.566498,166.871780 315.524872,164.004288 
M310.795105,188.818253 
	C311.525146,191.156372 312.255188,193.494492 312.985229,195.832611 
	C313.754303,195.587463 314.523346,195.342300 315.292419,195.097153 
	C314.263611,191.459473 313.234772,187.821808 312.205963,184.184143 
	C311.557587,184.309555 310.909180,184.434967 310.260773,184.560379 
	C310.350800,185.737228 310.440857,186.914093 310.795105,188.818253 
M237.154999,213.631226 
	C237.920776,213.642288 238.686569,213.653351 239.452347,213.664413 
	C239.452347,210.265701 239.452347,206.866974 239.452347,203.468262 
	C238.813705,203.455688 238.175079,203.443115 237.536438,203.430557 
	C237.366867,206.563232 237.197311,209.695923 237.154999,213.631226 
z"/>
<path fill="#79797A" opacity="1.000000" stroke="none" 
	d="
M352.044403,328.985992 
	C346.178589,311.671326 339.913361,294.479156 334.556152,277.008514 
	C328.885986,258.517365 325.190277,239.511902 324.442902,220.152451 
	C324.112457,211.592453 325.228516,202.913757 326.393433,194.385315 
	C326.979492,190.094528 329.283020,186.142303 334.695923,185.066681 
	C340.882141,190.015427 347.268921,194.524246 352.420502,200.161804 
	C361.297363,209.876083 368.841034,220.670044 374.333374,232.748749 
	C380.403778,246.098648 385.018646,259.901520 385.939911,274.627716 
	C386.622223,285.534546 387.414337,296.521484 386.824677,307.400482 
	C385.945160,323.626801 382.306549,339.463470 376.915924,354.825470 
	C375.365540,359.243652 371.494995,360.386047 368.586243,356.821350 
	C364.168365,351.407318 360.656799,345.253754 356.407959,338.882721 
	C354.718567,335.229431 353.381470,332.107697 352.044403,328.985992 
z"/>
<path fill="#79797A" opacity="1.000000" stroke="none" 
	d="
M206.907837,185.246170 
	C212.987854,185.031845 216.260178,188.921051 216.777298,193.911697 
	C217.901489,204.761429 219.240295,215.812775 218.352875,226.605881 
	C215.478989,261.558868 204.821793,294.623566 191.637543,327.641693 
	C189.893600,331.842072 188.447021,335.429321 187.000443,339.016541 
	C183.032761,344.813354 179.419159,350.900665 174.980377,356.310974 
	C171.693390,360.317352 167.728241,359.265381 166.196259,354.294434 
	C161.751663,339.872803 157.643417,325.356903 156.994370,310.132599 
	C156.677414,302.698212 155.771881,295.240326 156.098053,287.835632 
	C157.409454,258.064240 165.712234,230.614777 185.193726,207.474762 
	C191.774246,199.658447 199.526886,192.828903 206.907837,185.246170 
z"/>
<path fill="#E2E2E2" opacity="1.000000" stroke="none" 
	d="
M187.341415,339.094421 
	C188.447021,335.429321 189.893600,331.842072 191.589157,328.003479 
	C197.437378,337.176392 206.162384,343.391510 214.969315,349.221924 
	C235.039673,362.509033 257.421875,368.049713 281.293854,365.850861 
	C304.939514,363.672852 325.741364,354.451996 342.872009,337.635071 
	C345.718597,334.840576 348.584534,332.065857 351.742981,329.133972 
	C353.381470,332.107697 354.718567,335.229431 356.101196,338.738220 
	C347.980591,349.386078 338.658630,358.418152 327.096680,365.947998 
	C317.698914,369.748840 309.016449,373.466095 300.269745,377.025543 
	C297.244995,378.256409 294.060577,379.094879 290.949066,380.112610 
	C285.688324,380.730927 280.419495,381.906921 275.168793,381.831024 
	C268.097229,381.728760 261.039612,380.661743 253.203644,379.876221 
	C245.086960,377.377625 237.686874,375.168610 230.419022,372.587280 
	C225.987595,371.013367 221.759781,368.866150 217.220154,366.768127 
	C210.356979,361.335388 203.714157,356.111023 197.071350,350.886658 
	C193.941696,346.981873 190.812042,343.077087 187.341415,339.094421 
z"/>
<path fill="#363A38" opacity="1.000000" stroke="none" 
	d="
M197.022461,351.244263 
	C203.714157,356.111023 210.356979,361.335388 217.359314,367.115173 
	C221.521851,373.421753 225.324905,379.172943 229.127945,384.924133 
	C221.304382,390.689636 213.240616,396.009338 202.787720,399.372009 
	C204.396194,393.344696 205.764526,388.217255 207.415756,382.029694 
	C183.043488,399.997406 155.722855,407.621796 127.457138,413.142670 
	C132.662048,409.752045 137.938416,406.465546 143.058502,402.951294 
	C158.675919,392.232117 173.335587,380.335602 186.079788,366.279999 
	C190.152817,361.787842 193.366623,356.516602 197.022461,351.244263 
z"/>
<path fill="#EA672D" opacity="1.000000" stroke="none" 
	d="
M244.816956,390.988922 
	C247.041077,400.968903 249.115402,410.985382 251.534012,420.917999 
	C253.687195,429.760437 255.742325,438.161469 248.596817,446.202209 
	C243.999207,451.375793 240.784714,457.764587 236.814087,463.514709 
	C234.595383,466.727783 232.098328,469.748657 229.254990,473.474213 
	C226.050812,464.413818 219.427200,462.890717 210.545822,464.572510 
	C214.264832,456.870148 217.174438,449.384430 207.990219,442.776855 
	C215.622131,439.983124 222.374603,437.503510 229.133545,435.041748 
	C231.268631,434.264069 233.473206,433.655548 235.556854,432.761810 
	C246.952774,427.873779 246.917130,427.858093 243.940521,416.009552 
	C241.927643,407.997162 240.001022,399.963043 238.435364,391.482788 
	C240.828934,391.014282 242.822952,391.001587 244.816956,390.988922 
z"/>
<path fill="#EA672D" opacity="1.000000" stroke="none" 
	d="
M305.005676,391.164398 
	C303.269379,399.270721 301.528259,407.375977 299.801422,415.484314 
	C299.497009,416.913605 299.253754,418.355865 298.980103,419.791748 
	C297.213501,429.061493 297.242859,428.977386 306.520203,432.236359 
	C315.861877,435.517914 325.136627,438.989990 334.795898,442.507965 
	C327.386017,449.119537 327.192596,456.464264 334.074707,465.111237 
	C324.475586,462.457916 317.779724,464.263092 314.094086,473.551971 
	C311.048584,469.463989 308.199554,465.806824 305.534729,462.020081 
	C302.259827,457.366516 299.489990,452.313385 295.874390,447.953247 
	C289.313416,440.041199 288.917725,431.716461 291.766724,422.192139 
	C294.787170,412.094666 296.644531,401.649292 299.511108,391.008301 
	C301.676788,390.828674 303.341248,390.996521 305.005676,391.164398 
z"/>
<path fill="#EFEEED" opacity="1.000000" stroke="none" 
	d="
M305.369293,391.087341 
	C303.341248,390.996521 301.676788,390.828674 299.595734,390.588745 
	C296.453430,387.289093 293.727722,384.061493 290.975555,380.473267 
	C294.060577,379.094879 297.244995,378.256409 300.269745,377.025543 
	C309.016449,373.466095 317.698914,369.748840 326.775818,366.071167 
	C321.534119,375.678680 316.671387,385.950409 305.369293,391.087341 
z"/>
<path fill="#EFEEED" opacity="1.000000" stroke="none" 
	d="
M244.958679,390.672791 
	C242.822952,391.001587 240.828934,391.014282 238.410477,391.088928 
	C235.237534,389.166626 232.489029,387.182373 229.434235,385.061096 
	C225.324905,379.172943 221.521851,373.421753 217.579651,367.323486 
	C221.759781,368.866150 225.987595,371.013367 230.419022,372.587280 
	C237.686874,375.168610 245.086960,377.377625 252.780289,379.898376 
	C250.452988,383.487610 247.776688,386.922119 244.958679,390.672791 
z"/>
<path fill="#413E37" opacity="1.000000" stroke="none" 
	d="
M308.642944,50.379517 
	C308.362976,51.681686 307.932281,52.650570 307.501587,53.619461 
	C306.653015,53.020210 305.409180,52.608719 305.020691,51.790913 
	C302.676636,46.856300 298.696594,45.013901 293.466187,44.895199 
	C292.339203,44.869617 291.237640,43.724079 290.124390,43.094437 
	C291.313232,42.401337 292.475647,41.164501 293.695282,41.105213 
	C300.545929,40.772217 305.847626,43.284111 308.642944,50.379517 
z"/>
<path fill="#413E37" opacity="1.000000" stroke="none" 
	d="
M247.343124,41.030754 
	C249.093033,41.083092 250.466507,40.969219 251.724503,41.297665 
	C252.234573,41.430840 252.708725,42.502022 252.791565,43.195103 
	C252.848587,43.672367 252.178253,44.704807 251.877975,44.687954 
	C244.630569,44.281277 239.842636,48.019848 236.703369,54.852993 
	C233.661957,48.244354 237.408417,43.783546 247.343124,41.030754 
z"/>
<path fill="#EA6B34" opacity="1.000000" stroke="none" 
	d="
M261.999664,112.000374 
	C258.000275,112.191887 254.000900,112.383400 250.001511,112.574913 
	C249.949875,112.160538 249.898224,111.746170 249.846588,111.331802 
	C251.328506,110.656960 252.765533,109.849243 254.300232,109.330551 
	C260.546356,107.219543 265.252930,103.709068 267.775299,97.210480 
	C269.299286,93.284134 273.713409,92.689713 274.928009,96.046822 
	C278.138763,104.921089 285.417419,108.281868 293.457336,111.048546 
	C293.339630,111.558487 293.221924,112.068428 293.104248,112.578362 
	C289.407013,112.380745 285.709778,112.183128 281.281738,112.129707 
	C277.593933,115.431557 274.636932,118.589203 272.161774,121.232277 
	C268.490295,117.896873 265.244995,114.948624 261.999664,112.000374 
z"/>
<path fill="#423F38" opacity="1.000000" stroke="none" 
	d="
M255.993088,75.023392 
	C262.747437,82.733284 261.886353,89.581100 252.826599,94.810165 
	C242.934723,95.690498 238.157852,91.496727 238.574554,83.132408 
	C244.264297,81.872536 244.824249,80.931557 243.356567,75.033493 
	C247.563110,72.048264 251.775208,72.867119 255.993088,75.023392 
z"/>
<path fill="#413E37" opacity="1.000000" stroke="none" 
	d="
M289.987427,94.906372 
	C281.709900,89.222221 280.643524,83.242050 287.133972,75.533211 
	C292.035065,72.468369 296.332611,72.232666 300.538483,75.394836 
	C299.369873,80.863846 299.673523,81.417641 304.835754,83.418121 
	C304.940033,92.184914 300.127747,95.908218 289.987427,94.906372 
z"/>
<path fill="#FBFBFB" opacity="1.000000" stroke="none" 
	d="
M290.057129,95.286163 
	C300.127747,95.908218 304.940033,92.184914 304.835754,83.418121 
	C299.673523,81.417641 299.369873,80.863846 300.538483,75.394836 
	C296.332611,72.232666 292.035065,72.468369 287.292603,75.255554 
	C289.171051,69.377914 295.498505,66.957802 302.661774,69.402794 
	C310.232513,71.986862 314.474670,80.947433 311.775909,88.335258 
	C308.138672,98.292084 299.662598,99.215179 291.856567,97.304359 
	C291.186432,97.140320 290.699066,96.229744 290.057129,95.286163 
z"/>
<path fill="#FBFBFB" opacity="1.000000" stroke="none" 
	d="
M255.985855,74.651337 
	C251.775208,72.867119 247.563110,72.048264 243.356567,75.033493 
	C244.824249,80.931557 244.264297,81.872536 238.574554,83.132408 
	C238.157852,91.496727 242.934723,95.690498 252.559464,95.022858 
	C250.096039,100.038567 245.548462,99.248833 241.327560,97.807678 
	C236.048492,96.005226 232.214523,92.266769 231.162979,86.587875 
	C230.005081,80.334511 232.106750,75.051765 237.390610,71.406174 
	C242.341324,67.990395 247.716034,68.096169 252.945175,70.732903 
	C254.226593,71.379044 254.981598,73.069145 255.985855,74.651337 
z"/>
<path fill="#F2B4D0" opacity="1.000000" stroke="none" 
	d="
M309.727539,113.017258 
	C306.738922,112.608887 303.952728,112.688057 301.669128,111.655647 
	C298.417694,110.185684 298.427521,107.209534 301.699982,105.849098 
	C304.318787,104.760399 307.515991,104.032463 310.218079,104.505783 
	C312.323608,104.874603 314.062317,107.337524 315.964050,108.869820 
	C314.027496,110.249352 312.090973,111.628883 309.727539,113.017258 
z"/>
<path fill="#F2B4D0" opacity="1.000000" stroke="none" 
	d="
M243.817276,108.127960 
	C241.072815,113.326767 232.507111,114.731476 228.541611,111.048187 
	C226.397079,109.056290 226.822769,107.315216 228.975235,105.740471 
	C233.076843,102.739716 239.948944,103.692902 243.817276,108.127960 
z"/>
<path fill="#D95825" opacity="1.000000" stroke="none" 
	d="
M262.041077,112.378746 
	C265.244995,114.948624 268.490295,117.896873 272.161774,121.232277 
	C274.636932,118.589203 277.593933,115.431557 280.877930,112.158813 
	C279.504150,116.133507 278.314117,120.550102 275.963165,124.223785 
	C273.469055,128.121277 269.538177,127.987122 267.058411,124.048660 
	C264.890503,120.605469 263.703064,116.544922 262.041077,112.378746 
z"/>
<path fill="#E3E2E1" opacity="1.000000" stroke="none" 
	d="
M225.340088,169.885620 
	C226.859360,166.289230 228.370056,163.046066 229.880737,159.802917 
	C230.469131,160.034470 231.057510,160.266022 231.645889,160.497589 
	C231.846252,164.443207 229.514511,167.749023 227.906586,171.210007 
	C227.877899,171.271744 226.225983,170.579361 225.340088,169.885620 
z"/>
<path fill="#E3E2E1" opacity="1.000000" stroke="none" 
	d="
M250.005417,193.147751 
	C250.459579,190.666122 250.909637,188.602631 251.387085,186.413620 
	C254.342499,188.539871 254.058395,194.933121 250.446564,199.307068 
	C250.257660,196.871216 250.129486,195.218552 250.005417,193.147751 
z"/>
<path fill="#E3E2E1" opacity="1.000000" stroke="none" 
	d="
M289.998871,191.099991 
	C290.134766,189.287720 290.270691,187.906601 290.406616,186.525467 
	C291.051880,186.511032 291.697144,186.496597 292.342407,186.482162 
	C292.719971,190.459152 293.097534,194.436142 293.475067,198.413132 
	C292.699768,198.521484 291.924469,198.629837 291.149170,198.738205 
	C290.765747,196.335846 290.382324,193.933487 289.998871,191.099991 
z"/>
<path fill="#E3E2E1" opacity="1.000000" stroke="none" 
	d="
M261.996979,214.785217 
	C261.641388,216.357819 261.288788,217.513748 260.936218,218.669678 
	C260.295380,218.581161 259.654572,218.492661 259.013733,218.404144 
	C259.303467,214.413864 259.593170,210.423584 259.882904,206.433304 
	C260.588593,206.446823 261.294312,206.460358 262.000000,206.473892 
	C262.000000,209.105438 262.000000,211.737000 261.996979,214.785217 
z"/>
<path fill="#E3E2E1" opacity="1.000000" stroke="none" 
	d="
M261.908295,180.424316 
	C260.931091,180.438202 259.239349,179.996262 259.266693,179.733124 
	C259.628082,176.258957 260.231354,172.809967 260.774109,169.354675 
	C261.516693,169.437973 262.259308,169.521271 263.001923,169.604568 
	C262.665558,173.086914 262.329224,176.569275 261.908295,180.424316 
z"/>
<path fill="#E3E2E1" opacity="1.000000" stroke="none" 
	d="
M284.271820,214.301117 
	C284.230194,215.997345 284.068634,217.310959 283.907074,218.624573 
	C283.309418,218.599579 282.711761,218.574585 282.114136,218.549606 
	C281.656464,214.648712 281.198792,210.747818 280.741150,206.846924 
	C281.485779,206.708023 282.230408,206.569122 282.975037,206.430222 
	C283.367340,208.926331 283.759644,211.422424 284.271820,214.301117 
z"/>
<path fill="#E3E2E1" opacity="1.000000" stroke="none" 
	d="
M272.987915,229.380142 
	C272.133026,230.047684 271.290222,230.299088 270.447449,230.550476 
	C269.938873,226.767258 269.202515,222.955261 271.110168,219.477203 
	C271.740112,219.490051 272.370087,219.502899 273.000061,219.515762 
	C273.000061,222.665176 273.000061,225.814575 272.987915,229.380142 
z"/>
<path fill="#E3E2E1" opacity="1.000000" stroke="none" 
	d="
M232.986450,187.182159 
	C232.092285,190.442551 231.201385,193.305374 230.310471,196.168182 
	C229.531235,195.923935 228.751984,195.679703 227.972748,195.435455 
	C228.814407,192.067230 229.656082,188.698990 230.497742,185.330765 
	C231.328400,185.815369 232.159058,186.299973 232.986450,187.182159 
z"/>
<path fill="#E3E2E1" opacity="1.000000" stroke="none" 
	d="
M280.730713,170.057861 
	C281.682617,170.667755 282.809479,171.478134 283.003845,172.471039 
	C283.572144,175.374268 283.768616,178.350266 283.233948,181.426483 
	C280.381104,178.128799 280.490173,174.221313 280.730713,170.057861 
z"/>
<path fill="#E3E2E1" opacity="1.000000" stroke="none" 
	d="
M270.028503,190.483063 
	C270.926483,189.731796 271.803925,189.408798 272.681366,189.085815 
	C272.681366,192.649734 272.681366,196.213638 272.681366,199.777542 
	C271.790253,199.765564 270.899109,199.753601 270.007996,199.741623 
	C270.007996,196.798203 270.007996,193.854767 270.028503,190.483063 
z"/>
<path fill="#E3E2E1" opacity="1.000000" stroke="none" 
	d="
M305.995117,206.161453 
	C306.239441,209.274170 306.477203,211.968033 306.714966,214.661896 
	C305.959930,214.738022 305.204926,214.814163 304.449921,214.890305 
	C303.900604,211.140915 303.351288,207.391510 302.802002,203.642120 
	C303.391785,203.448914 303.981537,203.255707 304.571320,203.062500 
	C305.043732,203.955872 305.516174,204.849228 305.995117,206.161453 
z"/>
<path fill="#E3E2E1" opacity="1.000000" stroke="none" 
	d="
M300.000488,173.782104 
	C299.787598,175.340134 299.574982,176.478104 299.362335,177.616074 
	C298.832031,177.617584 298.301727,177.619095 297.771393,177.620605 
	C297.265350,173.914551 296.759277,170.208481 296.160400,165.822617 
	C300.791412,167.455841 299.792877,170.675400 300.000488,173.782104 
z"/>
<path fill="#E3E2E1" opacity="1.000000" stroke="none" 
	d="
M246.004242,174.875183 
	C245.592316,176.168106 245.192856,177.048264 244.793411,177.928436 
	C244.227463,177.795959 243.661514,177.663483 243.095566,177.531006 
	C243.510986,173.791153 243.926407,170.051315 244.341827,166.311462 
	C245.105286,166.371094 245.868729,166.430725 246.632187,166.490372 
	C246.427032,169.147720 246.221893,171.805069 246.004242,174.875183 
z"/>
<path fill="#E3E2E1" opacity="1.000000" stroke="none" 
	d="
M315.690002,164.342041 
	C316.566498,166.871780 317.277863,169.063766 317.989197,171.255768 
	C317.330505,171.494064 316.671814,171.732376 316.013123,171.970673 
	C314.486694,168.361847 312.960236,164.753036 311.433777,161.144211 
	C312.126007,160.822739 312.818268,160.501266 313.510498,160.179794 
	C314.181946,161.454620 314.853424,162.729446 315.690002,164.342041 
z"/>
<path fill="#E3E2E1" opacity="1.000000" stroke="none" 
	d="
M310.662994,188.454590 
	C310.440857,186.914093 310.350800,185.737228 310.260773,184.560379 
	C310.909180,184.434967 311.557587,184.309555 312.205963,184.184143 
	C313.234772,187.821808 314.263611,191.459473 315.292419,195.097153 
	C314.523346,195.342300 313.754303,195.587463 312.985229,195.832611 
	C312.255188,193.494492 311.525146,191.156372 310.662994,188.454590 
z"/>
<path fill="#E3E2E1" opacity="1.000000" stroke="none" 
	d="
M237.091370,213.229919 
	C237.197311,209.695923 237.366867,206.563232 237.536438,203.430557 
	C238.175079,203.443115 238.813705,203.455688 239.452347,203.468262 
	C239.452347,206.866974 239.452347,210.265701 239.452347,213.664413 
	C238.686569,213.653351 237.920776,213.642288 237.091370,213.229919 
z"/>
</svg>