<svg version="1.1" id="Layer_1" xmlns="http://www.w3.org/2000/svg" xmlns:xlink="http://www.w3.org/1999/xlink" x="0px" y="0px"
	 width="100%" viewBox="0 0 512 512" enable-background="new 0 0 512 512" xml:space="preserve">
<path fill="#EFEEED" opacity="1.000000" stroke="none" 
	d="
M209.999359,195.000000 
	C215.197113,182.708832 216.200500,170.561615 207.938950,159.155670 
	C205.907349,156.350845 203.004227,153.946793 200.043289,152.089386 
	C191.612396,146.800674 182.234894,142.769699 174.566177,136.586487 
	C166.553192,130.125671 162.042725,120.644119 161.068024,110.152031 
	C159.714050,95.577156 163.343765,82.148613 172.002853,70.290787 
	C176.855896,63.645008 182.586075,57.864487 190.818420,55.048374 
	C190.320343,57.403255 189.588455,59.639183 188.856552,61.875111 
	C189.438690,62.282410 190.020813,62.689709 190.602936,63.097004 
	C192.534744,55.182655 198.928940,53.308887 205.000366,50.998192 
	C216.676315,50.245895 227.172501,53.670990 237.626648,58.765804 
	C255.217377,67.338623 271.845642,77.318352 287.036865,89.589012 
	C300.035950,100.088997 308.238281,113.907631 312.947723,129.822937 
	C319.032623,150.386398 324.989044,170.987915 331.013916,191.569199 
	C331.281616,192.483719 331.679840,193.360046 331.730591,194.690506 
	C327.681305,194.218872 325.214813,196.111710 323.871643,199.246307 
	C322.581909,202.256134 321.487061,205.471527 321.035919,208.698532 
	C318.415009,227.446930 320.932678,245.979218 325.804871,263.927338 
	C331.835510,286.142975 339.505066,307.913757 346.118439,330.004333 
	C339.681244,335.514069 333.942780,341.368958 327.438965,346.191833 
	C305.751587,362.274017 281.220764,367.024780 254.834488,363.006683 
	C230.747711,359.338776 211.408890,347.297546 195.916595,328.437988 
	C197.887985,323.128906 199.949310,318.230652 201.713577,313.227661 
	C211.672440,284.987030 220.215805,256.362061 221.381836,226.199631 
	C221.703339,217.883041 220.201813,209.414307 218.777039,201.146301 
	C218.062729,197.001251 214.963303,194.140549 209.999359,195.000000 
M185.552734,105.479805 
	C185.081406,105.371559 184.529007,105.046638 184.151062,105.188034 
	C179.549652,106.909454 175.119492,113.080498 175.011948,117.812759 
	C174.896835,122.876938 179.093613,129.352173 183.784531,131.348053 
	C188.336990,133.285019 195.742493,132.086060 199.063889,128.284332 
	C201.823013,125.126183 204.885483,121.631172 201.639664,116.143013 
	C200.582382,106.599129 195.400818,103.234894 185.552734,105.479805 
M216.392090,82.973709 
	C217.611664,81.941460 219.173187,81.126755 219.992096,79.839584 
	C223.685440,74.034286 222.120438,66.533409 216.484283,62.028236 
	C211.279968,57.868237 203.621033,58.206360 198.684387,62.814053 
	C192.965149,68.152184 192.221237,75.934052 197.504486,80.498009 
	C202.297394,88.320030 208.276733,89.163406 216.392090,82.973709 
M225.727005,97.326355 
	C225.924759,96.028778 225.930344,94.662964 226.361572,93.448273 
	C227.177307,91.150574 228.237534,88.939674 229.196167,86.692703 
	C222.686935,91.386330 217.739166,97.314583 208.752289,96.446800 
	C205.404907,96.123589 204.044861,100.548126 206.896225,103.043739 
	C212.198318,107.684311 212.563431,113.619377 212.759048,119.823700 
	C212.795609,120.983253 213.044449,122.136101 213.195328,123.292046 
	C213.526062,123.310211 213.856781,123.328384 214.187515,123.346550 
	C215.479050,120.022392 216.770584,116.698242 218.924240,113.699532 
	C222.516525,113.659805 226.197205,114.100899 229.679077,113.460678 
	C234.200439,112.629311 235.633835,109.174438 233.071808,105.364410 
	C231.199554,102.580162 228.430969,100.398643 225.727005,97.326355 
M233.591995,76.911385 
	C234.288956,75.436295 235.553680,73.961319 235.553955,72.486099 
	C235.554398,70.085693 234.728012,67.685135 234.250595,65.284653 
	C232.238983,66.592621 230.039566,67.694336 228.288651,69.288628 
	C227.293854,70.194450 226.507675,71.928185 226.562485,73.250298 
	C226.648849,75.332451 227.523239,77.381935 228.063995,79.445244 
	C229.732178,78.784904 231.400345,78.124565 233.591995,76.911385 
M200.781494,136.270523 
	C201.426849,138.421814 202.072189,140.573105 202.717545,142.724411 
	C204.453354,141.652267 206.454437,140.839706 207.839432,139.424316 
	C208.912033,138.328156 209.763763,136.465530 209.729828,134.965881 
	C209.678848,132.712845 208.767258,130.479294 208.221588,128.237457 
	C206.244080,129.599319 204.143219,130.819885 202.346420,132.388733 
	C201.566605,133.069595 201.412704,134.467331 200.781494,136.270523 
M272.000092,205.137543 
	C272.000092,202.612457 272.000092,200.087387 272.000092,196.592041 
	C269.016235,199.652344 268.130768,206.091766 269.737732,207.700928 
	C269.827850,207.791168 271.213135,206.587982 272.000092,205.137543 
M294.508911,182.032242 
	C294.925476,183.980881 295.342072,185.929535 295.891937,188.501633 
	C298.516907,184.724945 297.698822,179.065887 294.233856,176.108948 
	C294.233856,178.154831 294.233856,179.701157 294.508911,182.032242 
M247.929855,178.814285 
	C247.413589,177.969101 246.897308,177.123932 246.381042,176.278748 
	C245.991623,176.363205 245.602219,176.447662 245.212814,176.532120 
	C244.789795,180.129974 244.366791,183.727844 243.943771,187.325699 
	C244.612350,187.449951 245.280930,187.574203 245.949493,187.698441 
	C246.598480,184.999054 247.247467,182.299667 247.929855,178.814285 
M240.999588,218.414078 
	C240.999588,216.101608 240.999588,213.789124 240.999588,211.476654 
	C240.387604,211.456192 239.775620,211.435745 239.163635,211.415298 
	C238.725723,215.030136 238.287811,218.644974 237.849884,222.259811 
	C238.446838,222.408813 239.043777,222.557831 239.640732,222.706848 
	C240.091629,221.547577 240.542526,220.388321 240.999588,218.414078 
M300.935242,218.668488 
	C301.215759,220.071289 301.496246,221.474075 301.776733,222.876877 
	C302.515625,222.758179 303.254486,222.639496 303.993378,222.520798 
	C303.535126,219.058838 303.076843,215.596863 302.618591,212.134903 
	C301.846466,212.191711 301.074371,212.248520 300.302246,212.305328 
	C300.465332,214.152359 300.628418,215.999390 300.935242,218.668488 
M279.317932,215.996750 
	C279.780823,219.289948 280.243713,222.583145 280.881470,227.120697 
	C284.068787,221.265167 283.358154,217.365433 279.317932,215.996750 
M232.943176,203.275162 
	C233.591217,200.347824 234.239273,197.420486 234.887314,194.493149 
	C234.189529,194.325256 233.491730,194.157364 232.793930,193.989456 
	C231.895615,196.999771 230.971024,200.003540 230.213196,203.048843 
	C230.187866,203.150604 231.848816,203.671997 232.943176,203.275162 
M280.512878,180.285355 
	C277.845123,184.349869 278.563477,188.642868 282.872253,190.869247 
	C282.298126,187.168991 281.782501,183.845871 280.512878,180.285355 
M232.844467,172.269348 
	C232.227402,172.256027 231.167740,172.033585 231.060272,172.261032 
	C229.654144,175.237030 228.382675,178.276657 227.077377,181.300293 
	C227.653366,181.586227 228.229355,181.872147 228.805344,182.158081 
	C231.438797,179.835556 232.524384,176.597275 232.844467,172.269348 
M309.841217,195.956009 
	C309.185059,195.415131 308.528900,194.874252 307.872711,194.333374 
	C307.477722,194.547440 307.082733,194.761520 306.687744,194.975586 
	C307.742981,198.331146 308.798187,201.686691 309.853424,205.042236 
	C310.531464,204.850952 311.209503,204.659668 311.887543,204.468384 
	C311.273804,201.875626 310.660065,199.282867 309.841217,195.956009 
M253.556335,202.836563 
	C253.556335,200.642105 253.556335,198.447662 253.556335,196.253204 
	C252.910370,196.235321 252.264404,196.217453 251.618439,196.199585 
	C251.174515,199.641876 250.730606,203.084167 250.286697,206.526459 
	C250.795883,206.682434 251.305054,206.838394 251.814240,206.994370 
	C252.299973,205.864929 252.785690,204.735489 253.556335,202.836563 
M259.943054,185.225861 
	C259.745270,187.037521 259.547485,188.849182 259.349731,190.660843 
	C260.118256,190.722412 260.886780,190.783966 261.655334,190.845535 
	C262.088623,187.382950 262.521942,183.920364 262.955231,180.457779 
	C262.215881,180.351151 261.476501,180.244522 260.737152,180.137894 
	C260.486938,181.554550 260.236694,182.971191 259.943054,185.225861 
M310.793671,179.528061 
	C311.496674,180.275055 312.199707,181.022034 312.902710,181.769028 
	C313.429321,181.465469 313.955933,181.161926 314.482513,180.858383 
	C312.939056,177.577957 311.395630,174.297531 309.852173,171.017120 
	C309.244629,171.264908 308.637085,171.512695 308.029541,171.760498 
	C308.841766,174.130447 309.653992,176.500397 310.793671,179.528061 
M270.124725,236.538071 
	C270.479187,236.819946 271.062103,237.408234 271.154877,237.339081 
	C273.788025,235.376221 273.768890,229.991104 270.021149,226.243591 
	C270.021149,230.135345 270.021149,232.941269 270.124725,236.538071 
M290.997894,204.005295 
	C290.686829,201.476990 290.375763,198.948685 290.064697,196.420380 
	C289.374054,196.511856 288.683380,196.603333 287.992737,196.694809 
	C288.149445,199.389587 288.051849,202.133560 288.559906,204.760391 
	C288.856903,206.295822 290.119019,207.969406 290.997894,204.005295 
M261.995911,217.993271 
	C261.758057,217.170624 261.520203,216.347977 261.282379,215.525330 
	C260.738556,215.544525 260.194763,215.563736 259.650940,215.582932 
	C259.471619,218.859238 259.292297,222.135544 259.112946,225.411850 
	C259.877472,225.477631 260.641998,225.543396 261.406525,225.609177 
	C261.604370,223.346329 261.802216,221.083466 261.995911,217.993271 
z"/>
<path fill="#79797A" opacity="1.000000" stroke="none" 
	d="
M209.677490,195.100586 
	C214.963303,194.140549 218.062729,197.001251 218.777039,201.146301 
	C220.201813,209.414307 221.703339,217.883041 221.381836,226.199631 
	C220.215805,256.362061 211.672440,284.987030 201.713577,313.227661 
	C199.949310,318.230652 197.887985,323.128906 195.663971,328.685974 
	C194.201721,332.567596 193.039307,335.838715 191.876892,339.109833 
	C188.549088,344.120148 185.391525,349.255096 181.843155,354.104034 
	C178.615601,358.514587 173.630371,358.148743 172.172699,353.063690 
	C169.027420,342.091461 166.279587,330.967194 164.142059,319.757690 
	C162.731812,312.362122 162.010071,304.700775 162.115250,297.174316 
	C162.539383,266.824493 170.331512,238.737473 189.920151,214.904053 
	C195.753738,207.806381 202.842163,201.740067 209.677490,195.100586 
z"/>
<path fill="#79797A" opacity="1.000000" stroke="none" 
	d="
M346.466553,329.876709 
	C339.505066,307.913757 331.835510,286.142975 325.804871,263.927338 
	C320.932678,245.979218 318.415009,227.446930 321.035919,208.698532 
	C321.487061,205.471527 322.581909,202.256134 323.871643,199.246307 
	C325.214813,196.111710 327.681305,194.218872 331.861572,195.063690 
	C346.450012,208.023178 359.540192,221.861404 367.437225,239.838821 
	C372.669525,251.750000 376.999908,263.940887 377.917297,276.971222 
	C378.707977,288.202545 379.990021,299.649597 378.670013,310.716858 
	C376.955963,325.088043 373.081940,339.225586 369.710571,353.361877 
	C368.553772,358.212463 362.873444,358.490509 359.412872,353.741974 
	C356.139099,349.249786 353.614136,344.211884 350.404541,338.890137 
	C348.855011,335.536438 347.660797,332.706573 346.466553,329.876709 
z"/>
<path fill="#E2E2E2" opacity="1.000000" stroke="none" 
	d="
M346.118439,330.004333 
	C347.660797,332.706573 348.855011,335.536438 350.098053,338.745789 
	C342.546875,348.624237 334.101837,357.218842 323.075195,363.937988 
	C311.879395,370.103302 300.758118,374.536377 288.890961,377.039276 
	C279.693512,377.612549 270.501038,378.314026 261.295227,378.673584 
	C258.838104,378.769562 256.340088,377.819611 253.127960,377.043518 
	C242.535095,373.012756 232.682556,369.267975 222.793533,365.622253 
	C222.284058,365.434418 221.461914,366.094666 220.502594,366.160004 
	C213.842926,360.596802 207.466003,355.233643 201.089096,349.870514 
	C198.119171,346.487335 195.149231,343.104126 192.028107,339.415405 
	C193.039307,335.838715 194.201721,332.567596 195.616730,329.048462 
	C211.408890,347.297546 230.747711,359.338776 254.834488,363.006683 
	C281.220764,367.024780 305.751587,362.274017 327.438965,346.191833 
	C333.942780,341.368958 339.681244,335.514069 346.118439,330.004333 
z"/>
<path fill="#363B38" opacity="1.000000" stroke="none" 
	d="
M200.954224,350.197083 
	C207.466003,355.233643 213.842926,360.596802 220.583099,366.489380 
	C224.046280,371.687836 227.146225,376.356842 230.246185,381.025818 
	C227.830093,383.154663 225.648788,385.664001 222.947586,387.330872 
	C217.787506,390.515015 212.331314,393.219360 206.998047,396.122864 
	C206.684006,395.808258 206.369980,395.493652 206.055939,395.179047 
	C207.422729,390.090088 208.789520,385.001160 210.392990,379.031036 
	C187.958160,396.689789 162.034149,402.658722 136.430466,409.436890 
	C136.224304,409.063110 136.018127,408.689301 135.811951,408.315491 
	C140.839691,404.885773 146.085068,401.731934 150.852173,397.971771 
	C162.643448,388.671082 174.616287,379.533508 185.713760,369.447479 
	C191.610855,364.087891 195.838242,356.891113 200.954224,350.197083 
z"/>
<path fill="#EA672D" opacity="1.000000" stroke="none" 
	d="
M302.054810,388.102051 
	C299.861694,398.083313 297.863739,408.113525 295.379822,418.021881 
	C294.381012,422.006165 295.626038,423.772827 299.209412,425.007263 
	C309.436493,428.530365 319.603485,432.227905 330.386292,436.067688 
	C323.149628,442.406281 323.686493,449.172607 328.613159,456.945435 
	C319.766785,454.385895 314.044769,457.326843 310.358704,465.288422 
	C304.688873,457.075714 299.600372,448.916138 293.688873,441.404266 
	C289.347321,435.887329 286.731018,430.129181 288.131287,423.296753 
	C290.281158,412.806824 293.012634,402.436493 295.459442,392.006500 
	C295.753967,390.751038 295.813568,389.440460 296.392273,387.731140 
	C298.553284,387.571899 300.304047,387.836975 302.054810,388.102051 
z"/>
<path fill="#EA672D" opacity="1.000000" stroke="none" 
	d="
M244.843964,387.341309 
	C246.894287,395.501160 248.958801,403.657471 250.988754,411.822388 
	C251.967163,415.757721 253.184937,419.666870 253.741287,423.664825 
	C254.349319,428.034088 254.317017,432.287262 251.395172,436.322845 
	C244.631790,445.664368 238.283768,455.306610 231.320938,465.479095 
	C228.095093,457.411957 222.640244,454.266632 213.203537,457.238037 
	C217.242188,449.523254 219.622391,442.378265 211.309982,436.083496 
	C221.480423,432.497192 230.809189,429.323547 240.048340,425.907471 
	C245.831467,423.769226 247.951065,423.561951 245.927246,415.706085 
	C243.627960,406.781006 241.528015,397.804504 239.575699,388.402832 
	C241.487976,387.750641 243.165970,387.545990 244.843964,387.341309 
z"/>
<path fill="#EFEEED" opacity="1.000000" stroke="none" 
	d="
M302.414917,388.050751 
	C300.304047,387.836975 298.553284,387.571899 296.427490,387.329346 
	C293.699951,384.157837 291.347473,380.963837 288.942993,377.404541 
	C300.758118,374.536377 311.879395,370.103302 322.751709,364.065247 
	C318.232849,373.636810 312.435883,382.457764 302.414917,388.050751 
z"/>
<path fill="#EEECEB" opacity="1.000000" stroke="none" 
	d="
M245.126511,387.200775 
	C243.165970,387.545990 241.487976,387.750641 239.407684,388.058990 
	C236.260315,385.968811 233.515228,383.774933 230.508148,381.303467 
	C227.146225,376.356842 224.046280,371.687836 220.865845,366.689453 
	C221.461914,366.094666 222.284058,365.434418 222.793533,365.622253 
	C232.682556,369.267975 242.535095,373.012756 252.751419,376.890503 
	C250.541504,380.382599 247.975281,383.721405 245.126511,387.200775 
z"/>
<path fill="#423F38" opacity="1.000000" stroke="none" 
	d="
M150.221954,102.554947 
	C151.566299,99.997871 152.784958,97.828964 154.003601,95.660057 
	C154.608063,95.920250 155.212524,96.180443 155.816971,96.440628 
	C155.230713,99.815155 153.881500,103.283630 154.282074,106.536644 
	C154.650665,109.529999 156.901382,112.291595 158.740738,115.996819 
	C152.241867,114.418068 150.049408,110.546379 150.221954,102.554947 
z"/>
<path fill="#43403A" opacity="1.000000" stroke="none" 
	d="
M204.827240,50.669041 
	C198.928940,53.308887 192.534744,55.182655 190.602936,63.097004 
	C190.020813,62.689709 189.438690,62.282410 188.856552,61.875111 
	C189.588455,59.639183 190.320343,57.403255 191.094040,54.763786 
	C195.001953,50.868198 198.799667,47.146229 204.827240,50.669041 
z"/>
<path fill="#EA6B33" opacity="1.000000" stroke="none" 
	d="
M218.062134,113.374084 
	C216.770584,116.698242 215.479050,120.022392 214.187515,123.346550 
	C213.856781,123.328384 213.526062,123.310211 213.195328,123.292046 
	C213.044449,122.136101 212.795609,120.983253 212.759048,119.823700 
	C212.563431,113.619377 212.198318,107.684311 206.896225,103.043739 
	C204.044861,100.548126 205.404907,96.123589 208.752289,96.446800 
	C217.739166,97.314583 222.686935,91.386330 229.196167,86.692703 
	C228.237534,88.939674 227.177307,91.150574 226.361572,93.448273 
	C225.930344,94.662964 225.924759,96.028778 225.647903,97.848129 
	C226.803680,101.788589 228.038574,105.207275 229.269745,108.615677 
	C225.401321,110.258095 221.731720,111.816093 218.062134,113.374084 
z"/>
<path fill="#423F38" opacity="1.000000" stroke="none" 
	d="
M215.625320,83.053925 
	C208.276733,89.163406 202.297394,88.320030 197.267883,79.821381 
	C196.365738,74.332451 197.449966,70.309830 202.259430,67.563492 
	C205.498886,71.993431 208.146774,69.237823 210.529831,66.781242 
	C217.862946,70.689903 219.195145,75.178406 215.625320,83.053925 
z"/>
<path fill="#43403A" opacity="1.000000" stroke="none" 
	d="
M185.993729,105.984589 
	C195.400818,103.234894 200.582382,106.599129 201.514450,116.806145 
	C198.529404,125.092346 193.596619,127.332306 186.043976,124.166534 
	C188.744217,118.864838 185.385040,117.628059 181.102173,117.387566 
	C180.791672,111.330170 181.309677,110.159325 185.993729,105.984589 
z"/>
<path fill="#FAF9F9" opacity="1.000000" stroke="none" 
	d="
M216.008698,83.013817 
	C219.195145,75.178406 217.862946,70.689903 210.529831,66.781242 
	C208.146774,69.237823 205.498886,71.993431 202.259430,67.563492 
	C197.449966,70.309830 196.365738,74.332451 197.036179,79.574646 
	C192.221237,75.934052 192.965149,68.152184 198.684387,62.814053 
	C203.621033,58.206360 211.279968,57.868237 216.484283,62.028236 
	C222.120438,66.533409 223.685440,74.034286 219.992096,79.839584 
	C219.173187,81.126755 217.611664,81.941460 216.008698,83.013817 
z"/>
<path fill="#FAF9F9" opacity="1.000000" stroke="none" 
	d="
M185.773224,105.732193 
	C181.309677,110.159325 180.791672,111.330170 181.102173,117.387566 
	C185.385040,117.628059 188.744217,118.864838 186.043976,124.166534 
	C193.596619,127.332306 198.529404,125.092346 201.580200,117.182144 
	C204.885483,121.631172 201.823013,125.126183 199.063889,128.284332 
	C195.742493,132.086060 188.336990,133.285019 183.784531,131.348053 
	C179.093613,129.352173 174.896835,122.876938 175.011948,117.812759 
	C175.119492,113.080498 179.549652,106.909454 184.151062,105.188034 
	C184.529007,105.046638 185.081406,105.371559 185.773224,105.732193 
z"/>
<path fill="#F2B3D0" opacity="1.000000" stroke="none" 
	d="
M233.330261,77.187805 
	C231.400345,78.124565 229.732178,78.784904 228.063995,79.445244 
	C227.523239,77.381935 226.648849,75.332451 226.562485,73.250298 
	C226.507675,71.928185 227.293854,70.194450 228.288651,69.288628 
	C230.039566,67.694336 232.238983,66.592621 234.250595,65.284653 
	C234.728012,67.685135 235.554398,70.085693 235.553955,72.486099 
	C235.553680,73.961319 234.288956,75.436295 233.330261,77.187805 
z"/>
<path fill="#F2B3D0" opacity="1.000000" stroke="none" 
	d="
M200.878006,135.904999 
	C201.412704,134.467331 201.566605,133.069595 202.346420,132.388733 
	C204.143219,130.819885 206.244080,129.599319 208.221588,128.237457 
	C208.767258,130.479294 209.678848,132.712845 209.729828,134.965881 
	C209.763763,136.465530 208.912033,138.328156 207.839432,139.424316 
	C206.454437,140.839706 204.453354,141.652267 202.717545,142.724396 
	C202.072189,140.573105 201.426849,138.421814 200.878006,135.904999 
z"/>
<path fill="#D95521" opacity="1.000000" stroke="none" 
	d="
M218.493195,113.536812 
	C221.731720,111.816093 225.401321,110.258095 229.269745,108.615677 
	C228.038574,105.207275 226.803680,101.788589 225.815369,98.159180 
	C228.430969,100.398643 231.199554,102.580162 233.071808,105.364410 
	C235.633835,109.174438 234.200439,112.629311 229.679077,113.460678 
	C226.197205,114.100899 222.516525,113.659805 218.493195,113.536812 
z"/>
<path fill="#E2E2E2" opacity="1.000000" stroke="none" 
	d="
M271.997864,205.562164 
	C271.213135,206.587982 269.827850,207.791168 269.737732,207.700928 
	C268.130768,206.091766 269.016235,199.652344 272.000092,196.592041 
	C272.000092,200.087387 272.000092,202.612457 271.997864,205.562164 
z"/>
<path fill="#E2E2E2" opacity="1.000000" stroke="none" 
	d="
M294.371399,181.639862 
	C294.233856,179.701157 294.233856,178.154831 294.233856,176.108948 
	C297.698822,179.065887 298.516907,184.724945 295.891937,188.501633 
	C295.342072,185.929535 294.925476,183.980881 294.371399,181.639862 
z"/>
<path fill="#E2E2E2" opacity="1.000000" stroke="none" 
	d="
M247.913147,179.207275 
	C247.247467,182.299667 246.598480,184.999054 245.949493,187.698441 
	C245.280930,187.574203 244.612350,187.449951 243.943771,187.325699 
	C244.366791,183.727844 244.789795,180.129974 245.212814,176.532120 
	C245.602219,176.447662 245.991623,176.363205 246.381042,176.278748 
	C246.897308,177.123932 247.413589,177.969101 247.913147,179.207275 
z"/>
<path fill="#E2E2E2" opacity="1.000000" stroke="none" 
	d="
M240.996506,218.821564 
	C240.542526,220.388321 240.091629,221.547577 239.640732,222.706848 
	C239.043777,222.557831 238.446838,222.408813 237.849884,222.259811 
	C238.287811,218.644974 238.725723,215.030136 239.163635,211.415298 
	C239.775620,211.435745 240.387604,211.456192 240.999588,211.476654 
	C240.999588,213.789124 240.999588,216.101608 240.996506,218.821564 
z"/>
<path fill="#E2E2E2" opacity="1.000000" stroke="none" 
	d="
M300.863373,218.257446 
	C300.628418,215.999390 300.465332,214.152359 300.302246,212.305328 
	C301.074371,212.248520 301.846466,212.191711 302.618591,212.134903 
	C303.076843,215.596863 303.535126,219.058838 303.993378,222.520798 
	C303.254486,222.639496 302.515625,222.758179 301.776733,222.876877 
	C301.496246,221.474075 301.215759,220.071289 300.863373,218.257446 
z"/>
<path fill="#E2E2E2" opacity="1.000000" stroke="none" 
	d="
M279.563751,215.710510 
	C283.358154,217.365433 284.068787,221.265167 280.881470,227.120697 
	C280.243713,222.583145 279.780823,219.289948 279.563751,215.710510 
z"/>
<path fill="#E2E2E2" opacity="1.000000" stroke="none" 
	d="
M232.833466,203.636475 
	C231.848816,203.671997 230.187866,203.150604 230.213196,203.048843 
	C230.971024,200.003540 231.895615,196.999771 232.793930,193.989456 
	C233.491730,194.157364 234.189529,194.325256 234.887314,194.493149 
	C234.239273,197.420486 233.591217,200.347824 232.833466,203.636475 
z"/>
<path fill="#E2E2E2" opacity="1.000000" stroke="none" 
	d="
M280.889893,180.404053 
	C281.782501,183.845871 282.298126,187.168991 282.872253,190.869247 
	C278.563477,188.642868 277.845123,184.349869 280.889893,180.404053 
z"/>
<path fill="#E2E2E2" opacity="1.000000" stroke="none" 
	d="
M232.905579,172.623886 
	C232.524384,176.597275 231.438797,179.835556 228.805344,182.158081 
	C228.229355,181.872147 227.653366,181.586227 227.077377,181.300293 
	C228.382675,178.276657 229.654144,175.237030 231.060272,172.261032 
	C231.167740,172.033585 232.227402,172.256027 232.905579,172.623886 
z"/>
<path fill="#E2E2E2" opacity="1.000000" stroke="none" 
	d="
M309.943787,196.323059 
	C310.660065,199.282867 311.273804,201.875626 311.887543,204.468384 
	C311.209503,204.659668 310.531464,204.850952 309.853424,205.042236 
	C308.798187,201.686691 307.742981,198.331146 306.687744,194.975586 
	C307.082733,194.761520 307.477722,194.547440 307.872711,194.333374 
	C308.528900,194.874252 309.185059,195.415131 309.943787,196.323059 
z"/>
<path fill="#E2E2E2" opacity="1.000000" stroke="none" 
	d="
M253.413879,203.221298 
	C252.785690,204.735489 252.299973,205.864929 251.814240,206.994370 
	C251.305054,206.838394 250.795883,206.682434 250.286697,206.526459 
	C250.730606,203.084167 251.174515,199.641876 251.618439,196.199585 
	C252.264404,196.217453 252.910370,196.235321 253.556335,196.253204 
	C253.556335,198.447662 253.556335,200.642105 253.413879,203.221298 
z"/>
<path fill="#E2E2E2" opacity="1.000000" stroke="none" 
	d="
M259.964783,184.806854 
	C260.236694,182.971191 260.486938,181.554550 260.737152,180.137894 
	C261.476501,180.244522 262.215881,180.351151 262.955231,180.457779 
	C262.521942,183.920364 262.088623,187.382950 261.655334,190.845535 
	C260.886780,190.783966 260.118256,190.722412 259.349731,190.660843 
	C259.547485,188.849182 259.745270,187.037521 259.964783,184.806854 
z"/>
<path fill="#E2E2E2" opacity="1.000000" stroke="none" 
	d="
M310.629944,179.199203 
	C309.653992,176.500397 308.841766,174.130447 308.029541,171.760498 
	C308.637085,171.512695 309.244629,171.264908 309.852173,171.017120 
	C311.395630,174.297531 312.939056,177.577957 314.482513,180.858383 
	C313.955933,181.161926 313.429321,181.465469 312.902710,181.769028 
	C312.199707,181.022034 311.496674,180.275055 310.629944,179.199203 
z"/>
<path fill="#E2E2E2" opacity="1.000000" stroke="none" 
	d="
M270.072937,236.142639 
	C270.021149,232.941269 270.021149,230.135345 270.021149,226.243591 
	C273.768890,229.991104 273.788025,235.376221 271.154877,237.339081 
	C271.062103,237.408234 270.479187,236.819946 270.072937,236.142639 
z"/>
<path fill="#E2E2E2" opacity="1.000000" stroke="none" 
	d="
M290.988159,204.400482 
	C290.119019,207.969406 288.856903,206.295822 288.559906,204.760391 
	C288.051849,202.133560 288.149445,199.389587 287.992737,196.694809 
	C288.683380,196.603333 289.374054,196.511856 290.064697,196.420380 
	C290.375763,198.948685 290.686829,201.476990 290.988159,204.400482 
z"/>
<path fill="#E2E2E2" opacity="1.000000" stroke="none" 
	d="
M261.997986,218.406952 
	C261.802216,221.083466 261.604370,223.346329 261.406525,225.609177 
	C260.641998,225.543396 259.877472,225.477631 259.112946,225.411850 
	C259.292297,222.135544 259.471619,218.859238 259.650940,215.582932 
	C260.194763,215.563736 260.738556,215.544525 261.282379,215.525330 
	C261.520203,216.347977 261.758057,217.170624 261.997986,218.406952 
z"/>
</svg>