<svg version="1.1" id="Layer_1" xmlns="http://www.w3.org/2000/svg" xmlns:xlink="http://www.w3.org/1999/xlink" x="0px" y="0px"
	 width="100%" viewBox="0 0 512 512" enable-background="new 0 0 512 512" xml:space="preserve">
<path fill="#000000" opacity="1.000000" stroke="none" 
	d="
M89.001717,94.007202 
	C89.001717,94.007202 89.059143,94.070442 88.309265,94.043892 
	C87.978462,94.066414 87.593658,93.985565 87.324524,94.126144 
	C63.263840,106.694489 50.838158,126.975540 49.148010,153.653854 
	C48.218224,168.330109 54.167389,181.001175 63.180988,192.013153 
	C56.482780,195.320923 50.741947,199.750763 46.473675,205.987152 
	C42.593914,211.655899 43.623425,217.650879 48.420391,220.307693 
	C45.944714,223.786942 43.413761,227.343857 40.325371,231.385574 
	C36.328873,240.812012 37.505539,245.480164 45.146603,252.929504 
	C46.236820,253.992340 46.686687,256.545013 46.310661,258.144318 
	C43.772297,268.940277 42.748863,279.654785 45.989742,290.520966 
	C46.778126,293.164276 46.810833,296.062195 46.981369,298.855804 
	C48.020622,315.880524 48.955776,332.911804 50.075768,349.931000 
	C50.171993,351.393250 51.360390,352.783630 52.041443,354.207397 
	C52.588451,354.025757 53.135464,353.844116 53.682472,353.662476 
	C54.121120,350.092285 54.696838,346.532593 54.972202,342.949860 
	C55.735348,333.020691 56.968872,323.325775 61.669147,314.199463 
	C63.693565,310.268799 65.529648,304.927185 64.503929,300.995514 
	C61.843700,290.798492 69.705414,280.991852 81.411148,280.055969 
	C87.432678,279.574554 91.585747,283.438904 92.016953,289.355377 
	C92.618011,297.602570 93.282013,305.847534 94.107414,314.074554 
	C94.360336,316.595490 95.231293,319.054474 95.819229,321.541809 
	C96.296211,321.579224 96.773201,321.616669 97.250191,321.654083 
	C97.831108,319.397491 98.536407,317.164459 98.968597,314.879730 
	C100.072906,309.041901 100.841240,303.132599 102.150078,297.343719 
	C103.341209,292.075378 106.537392,290.733765 111.677231,291.936066 
	C115.240677,292.769592 119.225525,293.587708 122.638931,292.784485 
	C126.196045,291.947388 129.293289,289.156219 132.211395,287.442657 
	C133.447128,296.018494 134.649658,304.828003 136.046768,313.606537 
	C136.281616,315.082153 137.357864,316.423859 138.045319,317.827454 
	C138.709030,316.541748 139.424576,315.279785 140.025604,313.965393 
	C141.247803,311.292664 141.813553,307.987305 143.760605,306.071533 
	C145.723282,304.140350 149.678757,302.016907 151.588577,302.808105 
	C154.002014,303.807953 156.247314,307.475983 156.793442,310.331879 
	C159.240417,323.127869 160.924759,336.068176 163.235840,348.893066 
	C163.614304,350.993225 165.752930,352.776154 167.078033,354.705719 
	C168.424515,352.862885 170.373627,351.203888 171.002686,349.142151 
	C172.778351,343.322601 174.012238,337.337677 175.459625,331.417938 
	C177.748138,336.523621 179.082062,341.435608 180.654495,346.269989 
	C186.619431,364.608917 196.777481,380.708893 207.882874,396.229431 
	C211.572510,401.385925 216.132812,405.919403 220.304825,410.766205 
	C220.304825,410.766205 220.286652,410.793030 220.241730,411.330750 
	C220.499069,411.565704 220.756409,411.800629 221.339478,412.669556 
	C225.294006,419.685669 229.116684,426.780273 233.234116,433.699432 
	C239.331894,443.946533 246.038101,453.884277 247.994598,466.800568 
	C248.046448,471.500000 248.098297,476.199463 247.832397,481.579193 
	C244.569214,487.858459 241.255478,494.112335 238.081223,500.436218 
	C237.358444,501.876160 236.316269,503.994568 236.870010,505.012390 
	C237.485474,506.143646 239.745911,506.872528 241.311417,506.910919 
	C248.968750,507.098694 256.633179,506.998871 264.295074,506.998749 
	C282.450470,506.998444 300.605865,506.980225 318.761200,507.012451 
	C321.819580,507.017883 324.818909,506.692841 324.888916,502.875092 
	C325.052032,493.974640 325.580231,485.000305 324.714691,476.178131 
	C322.838379,457.053986 312.602722,441.881165 300.346436,427.798767 
	C291.276642,417.377563 283.249146,406.219574 278.597168,393.038361 
	C275.875610,385.327026 275.790558,377.887421 279.797028,370.168488 
	C289.027344,352.385223 302.249969,338.007874 318.000000,326.256836 
	C331.467682,316.208649 346.272217,307.961487 360.403717,298.791718 
	C383.798462,283.611084 401.104614,263.594879 409.247528,236.458588 
	C410.559265,232.087311 411.493103,227.602615 412.558258,223.343735 
	C423.699951,222.300751 427.190887,226.655106 424.575043,237.026306 
	C423.828278,239.987228 423.740936,243.399429 424.388580,246.379227 
	C427.690765,261.572235 431.677521,276.611053 431.116547,292.400238 
	C430.911591,298.168976 431.528992,303.988495 432.110474,309.750610 
	C432.284943,311.479584 433.605591,313.092896 434.401123,314.759186 
	C435.276581,313.276276 436.614655,311.890625 436.950256,310.294220 
	C438.748779,301.738953 439.834503,293.009949 442.043976,284.570679 
	C445.140198,272.744324 449.310699,261.101135 448.880585,248.713303 
	C448.568329,239.720688 451.836761,232.769226 457.912354,226.448837 
	C463.834717,220.287857 467.871521,213.296082 465.108795,204.043777 
	C462.887024,196.603043 463.873016,189.273758 467.330170,182.311523 
	C471.169708,174.579239 474.366364,166.775497 475.329254,157.954514 
	C476.374268,148.381226 474.764862,140.270660 467.035095,133.121918 
	C464.544708,118.293434 454.644623,110.056923 441.492889,105.088356 
	C433.726379,102.154274 428.314758,98.010345 425.367157,89.520126 
	C420.857819,76.531456 411.816498,66.786644 398.707214,60.260567 
	C389.471649,55.313358 379.417633,54.529995 369.088654,54.970268 
	C371.738525,44.959072 367.020142,39.025074 356.917786,39.001118 
	C352.660156,38.991020 348.402435,38.999432 344.196777,38.999432 
	C343.634644,27.873915 341.306000,24.123070 333.768860,23.141987 
	C329.348724,22.566635 324.542542,22.107433 320.348572,23.231882 
	C311.338531,25.647602 303.746979,22.853439 296.716003,18.081242 
	C283.405823,9.047102 269.045319,6.161176 253.284317,8.894136 
	C249.713318,9.513347 245.761139,9.704767 242.294891,8.843531 
	C229.042923,5.550904 216.014954,5.459494 204.436020,13.158504 
	C198.321411,17.224188 192.304810,18.532084 185.460159,17.974558 
	C180.194626,17.545656 177.241165,20.368134 175.067932,24.680920 
	C174.481171,25.845314 173.592422,27.128027 172.498032,27.720409 
	C167.078842,30.653732 161.544342,33.373966 155.542068,36.183590 
	C155.370667,36.459587 155.199280,36.735580 154.577911,37.237118 
	C154.399292,37.515202 154.220673,37.793285 153.369904,38.225853 
	C148.176193,42.994888 143.024216,47.810467 137.774811,52.517384 
	C133.971817,55.927368 132.537170,62.340115 125.110069,61.234161 
	C122.129723,60.790363 117.939560,62.105915 115.798340,64.172844 
	C113.633469,66.262596 113.322723,70.273102 112.064758,73.823204 
	C99.505440,74.651405 94.894249,81.023384 96.160164,90.305023 
	C94.469376,91.244919 92.748528,92.201515 90.426193,93.114830 
	C89.970116,93.431778 89.514030,93.748718 89.001717,94.007202 
z"/>
<path fill="#617A68" opacity="1.000000" stroke="none" 
	d="
M399.094971,60.868126 
	C411.816498,66.786644 420.857819,76.531456 425.367157,89.520126 
	C428.314758,98.010345 433.726379,102.154274 441.492889,105.088356 
	C454.644623,110.056923 464.544708,118.293434 466.852661,133.777252 
	C463.466034,136.155792 464.064117,138.647552 465.295258,141.261185 
	C470.591949,152.505478 468.405243,161.873032 459.380463,170.578217 
	C455.813416,174.018967 454.078400,179.498795 451.956329,184.249893 
	C450.483521,187.547455 450.153259,191.362015 448.635559,194.631302 
	C446.340485,199.575073 442.568878,201.304062 437.529297,199.207718 
	C432.841858,197.257828 428.077271,194.794724 424.315369,191.463562 
	C416.408020,184.461533 407.450195,181.473343 397.054016,180.800339 
	C386.963989,180.147125 376.349091,181.440231 367.382538,174.401001 
	C365.732727,173.105804 361.676239,173.396255 359.526489,174.502060 
	C353.643158,177.528351 348.115143,181.274979 342.573730,184.929382 
	C334.517395,190.242340 326.030609,191.724655 316.947205,188.119888 
	C311.488770,185.953690 308.570526,180.593536 309.510864,174.914200 
	C310.543488,168.677521 311.727844,162.463852 312.646393,156.210846 
	C314.101044,146.308655 315.495117,136.336777 311.898712,126.614418 
	C311.291290,124.972443 309.101898,123.915695 307.643402,122.588562 
	C306.751038,124.200905 305.373596,125.726280 305.065735,127.443420 
	C304.393616,131.192642 304.469147,135.071350 303.877777,138.840439 
	C301.800385,152.081223 296.881012,163.388748 283.719727,169.558563 
	C281.109436,170.782242 279.153870,173.808228 277.406311,176.353241 
	C275.631989,178.937225 274.653778,182.052979 273.037476,184.763229 
	C268.317017,192.678543 261.198120,195.846649 253.730331,192.973053 
	C246.593811,190.226944 239.310287,187.537659 232.781128,183.661530 
	C228.924515,181.372009 224.948792,177.303146 223.605957,173.191986 
	C221.181778,165.770157 216.621353,161.894547 209.659607,159.674072 
	C200.217117,156.662384 194.411163,149.920044 191.114822,140.797256 
	C190.492447,139.074783 190.206818,137.165741 189.279968,135.637405 
	C188.446136,134.262421 186.945312,133.291931 185.738678,132.143036 
	C184.672867,133.459671 182.846268,134.690887 182.686981,136.109329 
	C182.246872,140.028381 181.908798,144.132050 182.596420,147.971832 
	C184.598984,159.154419 193.035278,164.852432 202.254776,169.697006 
	C207.571487,172.490814 208.224152,174.354919 205.171234,179.470184 
	C203.930588,181.548965 202.038269,183.238800 200.092667,185.107925 
	C195.494827,183.293228 191.033463,181.848663 187.051208,179.567657 
	C181.727615,176.518295 176.760025,172.843216 171.667404,169.395721 
	C161.878937,162.769409 151.563553,161.215820 140.434464,165.765427 
	C138.729797,166.462296 136.489960,166.724716 134.732559,166.273361 
	C124.691597,163.694580 114.951492,164.272781 105.539062,168.608368 
	C101.334053,170.545273 97.307861,172.870377 92.892677,174.858673 
	C90.371529,171.240051 88.108315,167.812622 85.963570,164.312607 
	C84.671143,162.203506 84.049026,159.406189 82.283707,157.914703 
	C76.244278,152.812088 75.151047,146.753998 77.318092,139.523239 
	C78.807213,134.554504 78.273705,129.767853 75.712585,125.074753 
	C74.575615,122.991341 74.147736,120.364868 73.969238,117.942802 
	C73.355621,109.616997 79.021744,104.683281 84.253838,99.525780 
	C85.975349,97.828796 87.464012,95.895622 89.059143,94.070442 
	C89.059143,94.070442 89.001717,94.007202 89.307678,94.007782 
	C90.084984,93.724960 90.556335,93.441544 91.027679,93.158127 
	C92.748528,92.201515 94.469376,91.244919 96.160164,90.305023 
	C94.894249,81.023384 99.505440,74.651405 112.064758,73.823204 
	C113.322723,70.273102 113.633469,66.262596 115.798340,64.172844 
	C117.939560,62.105915 122.129723,60.790363 125.110069,61.234161 
	C132.537170,62.340115 133.971817,55.927368 137.774811,52.517384 
	C143.024216,47.810467 148.176193,42.994888 153.729858,38.517403 
	C153.247467,40.601559 152.311081,42.356647 151.578476,44.193027 
	C147.590073,54.190437 142.499054,63.925079 139.958221,74.282654 
	C135.827759,91.120255 144.818649,102.873085 162.047287,105.467674 
	C170.711700,106.772530 176.993729,103.348862 180.484756,95.315086 
	C182.341599,91.041962 183.889145,86.623009 185.964767,82.463753 
	C186.545059,81.300903 188.625046,80.070816 189.801346,80.254341 
	C190.939056,80.431847 192.700577,82.441330 192.637680,83.558884 
	C192.145630,92.303596 198.068649,96.480400 204.005386,101.062134 
	C209.733597,105.482933 215.049164,110.466393 220.316116,115.445847 
	C223.220963,118.192131 226.173645,119.777061 230.171707,118.459534 
	C232.227890,117.781937 234.281708,117.097054 236.334534,116.409348 
	C243.762726,113.920845 250.443008,113.816956 256.347382,120.406418 
	C260.588959,125.140091 264.669800,124.900017 269.531677,120.851669 
	C271.184967,119.475006 272.835052,117.957863 274.035309,116.197258 
	C279.346527,108.406342 286.485138,104.205284 295.978302,103.198509 
	C303.772766,102.371872 306.266296,98.901718 307.051941,90.929695 
	C307.208466,89.341316 308.104950,86.974876 309.242310,86.558990 
	C310.536316,86.085815 313.313416,86.896683 313.994415,88.025246 
	C316.268951,91.794601 318.530701,95.786362 319.650696,99.997856 
	C323.156281,113.180214 322.956573,113.335258 336.522369,112.858498 
	C342.242218,112.657486 346.866119,114.164635 349.035645,119.802795 
	C351.225189,125.493095 355.128235,127.710060 361.076599,127.142601 
	C370.701874,126.224350 379.990204,127.323593 388.696350,131.986633 
	C390.710724,133.065521 393.095398,133.866409 395.349762,133.976807 
	C398.037415,134.108429 401.128601,134.057129 403.419983,132.874313 
	C415.406647,126.686768 417.698425,117.639450 410.949982,105.942863 
	C409.169800,102.857422 406.881165,99.218933 407.091064,95.981247 
	C407.908997,83.365204 406.841705,71.426376 399.094971,60.868126 
z"/>
<path fill="#50424C" opacity="1.000000" stroke="none" 
	d="
M200.442474,185.105591 
	C202.038269,183.238800 203.930588,181.548965 205.171234,179.470184 
	C208.224152,174.354919 207.571487,172.490814 202.254776,169.697006 
	C193.035278,164.852432 184.598984,159.154419 182.596420,147.971832 
	C181.908798,144.132050 182.246872,140.028381 182.686981,136.109329 
	C182.846268,134.690887 184.672867,133.459671 185.738678,132.143036 
	C186.945312,133.291931 188.446136,134.262421 189.279968,135.637405 
	C190.206818,137.165741 190.492447,139.074783 191.114822,140.797256 
	C194.411163,149.920044 200.217117,156.662384 209.659607,159.674072 
	C216.621353,161.894547 221.181778,165.770157 223.605957,173.191986 
	C224.948792,177.303146 228.924515,181.372009 232.781128,183.661530 
	C239.310287,187.537659 246.593811,190.226944 253.730331,192.973053 
	C261.198120,195.846649 268.317017,192.678543 273.037476,184.763229 
	C274.653778,182.052979 275.631989,178.937225 277.406311,176.353241 
	C279.153870,173.808228 281.109436,170.782242 283.719727,169.558563 
	C296.881012,163.388748 301.800385,152.081223 303.877777,138.840439 
	C304.469147,135.071350 304.393616,131.192642 305.065735,127.443420 
	C305.373596,125.726280 306.751038,124.200905 307.643402,122.588562 
	C309.101898,123.915695 311.291290,124.972443 311.898712,126.614418 
	C315.495117,136.336777 314.101044,146.308655 312.646393,156.210846 
	C311.727844,162.463852 310.543488,168.677521 309.510864,174.914200 
	C308.570526,180.593536 311.488770,185.953690 316.947205,188.119888 
	C326.030609,191.724655 334.517395,190.242340 342.573730,184.929382 
	C348.115143,181.274979 353.643158,177.528351 359.526489,174.502060 
	C361.676239,173.396255 365.732727,173.105804 367.382538,174.401001 
	C376.349091,181.440231 386.963989,180.147125 397.054016,180.800339 
	C407.450195,181.473343 416.408020,184.461533 424.315369,191.463562 
	C428.077271,194.794724 432.841858,197.257828 437.529297,199.207718 
	C442.568878,201.304062 446.340485,199.575073 448.635559,194.631302 
	C450.153259,191.362015 450.483521,187.547455 451.956329,184.249893 
	C454.078400,179.498795 455.813416,174.018967 459.380463,170.578217 
	C468.405243,161.873032 470.591949,152.505478 465.295258,141.261185 
	C464.064117,138.647552 463.466034,136.155792 466.908875,134.172760 
	C474.764862,140.270660 476.374268,148.381226 475.329254,157.954514 
	C474.366364,166.775497 471.169708,174.579239 467.330170,182.311523 
	C463.873016,189.273758 462.887024,196.603043 465.108795,204.043777 
	C467.871521,213.296082 463.834717,220.287857 457.912354,226.448837 
	C451.836761,232.769226 448.568329,239.720688 448.880585,248.713303 
	C449.310699,261.101135 445.140198,272.744324 442.043976,284.570679 
	C439.834503,293.009949 438.748779,301.738953 436.950256,310.294220 
	C436.614655,311.890625 435.276581,313.276276 434.401123,314.759186 
	C433.605591,313.092896 432.284943,311.479584 432.110474,309.750610 
	C431.528992,303.988495 430.911591,298.168976 431.116547,292.400238 
	C431.677521,276.611053 427.690765,261.572235 424.388580,246.379227 
	C423.740936,243.399429 423.828278,239.987228 424.575043,237.026306 
	C427.190887,226.655106 423.699951,222.300751 412.558258,223.343735 
	C411.493103,227.602615 410.559265,232.087311 409.247528,236.458588 
	C401.104614,263.594879 383.798462,283.611084 360.403717,298.791718 
	C346.272217,307.961487 331.467682,316.208649 318.000000,326.256836 
	C302.249969,338.007874 289.027344,352.385223 279.797028,370.168488 
	C275.790558,377.887421 275.875610,385.327026 278.597168,393.038361 
	C283.249146,406.219574 291.276642,417.377563 300.346436,427.798767 
	C312.602722,441.881165 322.838379,457.053986 324.714691,476.178131 
	C325.580231,485.000305 325.052032,493.974640 324.888916,502.875092 
	C324.818909,506.692841 321.819580,507.017883 318.761200,507.012451 
	C300.605865,506.980225 282.450470,506.998444 264.295074,506.998749 
	C256.633179,506.998871 248.968750,507.098694 241.311417,506.910919 
	C239.745911,506.872528 237.485474,506.143646 236.870010,505.012390 
	C236.316269,503.994568 237.358444,501.876160 238.081223,500.436218 
	C241.255478,494.112335 244.569214,487.858459 248.246185,481.456360 
	C251.452347,485.446625 255.006561,488.334045 260.597595,488.779175 
	C262.608734,479.976166 262.722961,471.448669 259.994781,462.543396 
	C259.733887,460.511841 259.725220,458.766144 259.093323,457.286591 
	C255.262436,448.316833 251.277634,439.412903 247.369888,430.475769 
	C245.939224,427.203796 244.578537,423.901184 242.770355,419.631195 
	C250.643616,421.833679 257.721619,433.791718 265.146240,455.339172 
	C266.442413,466.840637 267.702789,477.952118 268.990570,489.305206 
	C278.938751,490.062225 286.831604,481.406067 283.249359,471.181732 
	C279.253754,459.777618 274.029572,448.803894 269.252197,437.295105 
	C268.114044,434.683533 267.126007,432.388397 266.004120,430.160675 
	C254.402283,407.123260 251.645859,383.510284 261.841187,359.264862 
	C265.774048,349.912140 270.731018,340.986847 274.588898,331.606689 
	C278.430878,322.265137 281.479767,312.597382 285.048462,302.715515 
	C288.039429,291.597656 286.306702,285.025391 279.743652,281.603699 
	C277.897217,290.110138 276.056213,298.617859 274.059998,307.451965 
	C267.345642,320.625824 261.341064,333.797211 254.077698,346.233429 
	C246.180435,359.754944 239.161789,373.301270 238.924011,389.419769 
	C238.907150,390.562836 237.557098,391.686218 236.826981,392.818756 
	C235.931519,391.800415 234.298386,390.804749 234.266281,389.759857 
	C234.114273,384.814545 233.272018,379.481781 234.765030,374.980011 
	C237.827225,365.746796 242.224838,356.956512 246.325745,347.766785 
	C252.211502,337.389709 258.079071,327.351196 263.413391,317.036865 
	C269.187073,305.872955 271.303009,293.606354 272.986206,281.288696 
	C273.306854,278.942230 272.823517,277.095245 269.813538,276.765320 
	C266.894104,276.445312 264.024811,275.667725 261.091644,274.627197 
	C260.353424,266.802124 259.774506,259.425507 258.811829,252.099350 
	C258.691711,251.185272 256.517792,249.848419 255.333817,249.886887 
	C250.248383,250.052063 245.177292,250.657928 240.077072,250.636932 
	C240.320190,243.986832 239.748596,238.080399 236.851517,232.330231 
	C233.585876,225.848541 230.909210,219.046478 228.327499,212.250381 
	C225.638931,205.172974 222.402679,198.575211 215.910873,193.673645 
	C210.596436,190.653046 205.519440,187.879318 200.442474,185.105591 
M337.752289,306.072021 
	C356.885864,296.110718 374.564850,284.277405 388.558350,266.616699 
	C391.768738,261.572998 395.318451,256.709076 398.108459,251.442657 
	C402.101593,243.905304 399.626312,240.149857 391.302979,239.357712 
	C393.041595,234.891983 394.966827,230.485184 396.406250,225.925034 
	C396.844055,224.538177 396.521210,221.982437 395.558441,221.234879 
	C389.842957,216.797089 383.872314,212.682480 377.917511,208.560242 
	C373.428925,205.452988 368.646942,204.771133 364.008331,208.078964 
	C360.149536,210.830704 356.564209,213.965942 352.262268,217.407715 
	C356.158844,222.486633 359.664795,227.226028 363.349457,231.822189 
	C370.113556,240.259613 376.383362,248.925568 377.868011,260.677399 
	C372.237335,266.150574 366.606659,271.623749 361.069550,276.303406 
	C363.870148,269.357513 364.364441,262.117767 360.859253,255.569061 
	C356.033569,246.553345 350.307800,238.013519 344.848938,229.344589 
	C340.740509,222.820297 339.334167,222.514908 332.993134,227.106628 
	C331.065430,228.502518 329.031342,230.513367 328.311493,232.665771 
	C326.490997,238.109406 325.210571,243.756454 324.046875,249.390823 
	C322.744507,255.696564 321.930847,262.103577 320.612030,268.405334 
	C320.343170,269.689941 318.774780,270.702606 317.805420,271.840607 
	C317.197937,270.693939 316.455994,269.597260 316.007965,268.391357 
	C314.630707,264.684113 313.600098,260.829987 311.986176,257.234314 
	C310.601105,254.148514 308.065521,252.537064 303.991882,253.659561 
	C304.092529,273.250519 304.626556,292.781372 297.194580,312.146423 
	C302.466217,309.750885 306.667877,307.841553 310.755310,306.726654 
	C310.949524,309.687836 310.067078,313.785034 311.647827,315.283234 
	C313.158173,316.714691 317.589630,316.272369 320.107361,315.189484 
	C325.953857,312.674835 331.420593,309.277161 337.752289,306.072021 
M286.239410,457.298676 
	C288.023407,462.316437 290.006927,467.274506 291.532623,472.369598 
	C292.921967,477.009613 296.161713,478.977844 300.493622,478.620941 
	C305.193298,478.233765 307.067444,474.377472 306.683167,470.349792 
	C306.248718,465.796631 305.483002,460.833282 303.252075,456.980011 
	C297.599701,447.217163 291.620056,437.532349 284.729156,428.622437 
	C272.360291,412.629486 261.403748,396.368256 263.689514,374.620422 
	C262.796692,376.561615 262.361908,378.441803 262.005463,380.336731 
	C259.298065,394.730194 262.845398,408.179535 268.712921,421.090363 
	C274.154114,433.063141 280.177551,444.771332 286.239410,457.298676 
z"/>
<path fill="#8FAD96" opacity="1.000000" stroke="none" 
	d="
M398.901093,60.564346 
	C406.841705,71.426376 407.908997,83.365204 407.091064,95.981247 
	C406.881165,99.218933 409.169800,102.857422 410.949982,105.942863 
	C417.698425,117.639450 415.406647,126.686768 403.419983,132.874313 
	C401.128601,134.057129 398.037415,134.108429 395.349762,133.976807 
	C393.095398,133.866409 390.710724,133.065521 388.696350,131.986633 
	C379.990204,127.323593 370.701874,126.224350 361.076599,127.142601 
	C355.128235,127.710060 351.225189,125.493095 349.035645,119.802795 
	C346.866119,114.164635 342.242218,112.657486 336.522369,112.858498 
	C322.956573,113.335258 323.156281,113.180214 319.650696,99.997856 
	C318.530701,95.786362 316.268951,91.794601 313.994415,88.025246 
	C313.313416,86.896683 310.536316,86.085815 309.242310,86.558990 
	C308.104950,86.974876 307.208466,89.341316 307.051941,90.929695 
	C306.266296,98.901718 303.772766,102.371872 295.978302,103.198509 
	C286.485138,104.205284 279.346527,108.406342 274.035309,116.197258 
	C272.835052,117.957863 271.184967,119.475006 269.531677,120.851669 
	C264.669800,124.900017 260.588959,125.140091 256.347382,120.406418 
	C250.443008,113.816956 243.762726,113.920845 236.334534,116.409348 
	C234.281708,117.097054 232.227890,117.781937 230.171707,118.459534 
	C226.173645,119.777061 223.220963,118.192131 220.316116,115.445847 
	C215.049164,110.466393 209.733597,105.482933 204.005386,101.062134 
	C198.068649,96.480400 192.145630,92.303596 192.637680,83.558884 
	C192.700577,82.441330 190.939056,80.431847 189.801346,80.254341 
	C188.625046,80.070816 186.545059,81.300903 185.964767,82.463753 
	C183.889145,86.623009 182.341599,91.041962 180.484756,95.315086 
	C176.993729,103.348862 170.711700,106.772530 162.047287,105.467674 
	C144.818649,102.873085 135.827759,91.120255 139.958221,74.282654 
	C142.499054,63.925079 147.590073,54.190437 151.578476,44.193027 
	C152.311081,42.356647 153.247467,40.601559 154.065918,38.440163 
	C154.220673,37.793285 154.399292,37.515202 155.025726,37.060219 
	C155.735947,36.701954 155.928253,36.463951 156.050476,36.169312 
	C161.544342,33.373966 167.078842,30.653732 172.498032,27.720409 
	C173.592422,27.128027 174.481171,25.845314 175.067932,24.680920 
	C177.241165,20.368134 180.194626,17.545656 185.460159,17.974558 
	C192.304810,18.532084 198.321411,17.224188 204.436020,13.158504 
	C216.014954,5.459494 229.042923,5.550904 242.294891,8.843531 
	C245.761139,9.704767 249.713318,9.513347 253.284317,8.894136 
	C269.045319,6.161176 283.405823,9.047102 296.716003,18.081242 
	C303.746979,22.853439 311.338531,25.647602 320.348572,23.231882 
	C324.542542,22.107433 329.348724,22.566635 333.768860,23.141987 
	C341.306000,24.123070 343.634644,27.873915 344.196777,38.999432 
	C348.402435,38.999432 352.660156,38.991020 356.917786,39.001118 
	C367.020142,39.025074 371.738525,44.959072 369.088654,54.970268 
	C379.417633,54.529995 389.471649,55.313358 398.901093,60.564346 
M400.797607,116.057938 
	C402.419250,109.645790 399.790466,101.165176 394.904022,97.805923 
	C393.868713,97.094170 392.275330,97.194229 390.939056,96.920265 
	C391.124847,98.220352 390.864502,99.879005 391.572235,100.759605 
	C394.968262,104.984993 395.529999,109.608650 394.682709,114.787659 
	C394.410431,116.451828 395.446930,118.330109 395.884705,120.110428 
	C397.426819,118.991051 398.968933,117.871674 400.797607,116.057938 
M206.295029,73.679451 
	C205.815903,73.765686 205.172150,73.682442 204.882568,73.963768 
	C201.065475,77.672173 204.003860,89.861580 209.154480,91.033997 
	C209.977722,91.221390 212.415894,88.840874 212.226669,88.232750 
	C210.721313,83.394928 208.761612,78.698479 206.295029,73.679451 
M383.536682,98.975395 
	C382.102539,98.554848 380.668427,98.134300 379.234314,97.713760 
	C379.428955,99.201767 379.517822,100.714767 379.861145,102.167641 
	C380.043121,102.937874 380.506134,103.830185 381.124786,104.269791 
	C382.438812,105.203453 383.937653,105.876984 385.360687,106.657166 
	C385.441162,104.913368 385.674347,103.156479 385.526489,101.432259 
	C385.467743,100.747086 384.564514,100.134331 383.536682,98.975395 
M220.710663,74.102043 
	C219.530716,73.480118 218.319931,72.347664 217.181717,72.416435 
	C216.427704,72.461990 215.003754,74.479248 215.229492,75.177498 
	C215.851471,77.101517 217.125839,80.267441 218.245346,80.311348 
	C221.925003,80.455666 220.961395,77.219185 220.710663,74.102043 
z"/>
<path fill="#617A68" opacity="1.000000" stroke="none" 
	d="
M216.148331,193.920502 
	C222.402679,198.575211 225.638931,205.172974 228.327499,212.250381 
	C230.909210,219.046478 233.585876,225.848541 236.851517,232.330231 
	C239.748596,238.080399 240.320190,243.986832 240.016678,251.003769 
	C238.235077,255.846451 236.489975,259.855957 234.384430,263.903290 
	C228.381744,265.866089 222.833832,268.169159 217.070160,269.607605 
	C211.528427,270.990662 206.488693,268.908966 203.847733,263.890869 
	C202.071396,260.515686 201.223831,256.314911 201.127350,252.454346 
	C200.813507,239.896423 196.968384,228.592468 190.115433,218.237244 
	C188.290222,215.479233 186.190430,212.804977 183.762177,210.590714 
	C182.746811,209.664825 180.276901,209.440811 178.978210,210.027130 
	C178.085037,210.430359 177.659805,212.807297 177.765717,214.247604 
	C177.896164,216.021362 178.969437,217.703018 179.334290,219.486069 
	C181.259613,228.895691 184.353622,238.282135 184.672806,247.756439 
	C185.222488,264.072815 175.302643,275.848938 160.937531,278.484863 
	C156.494461,279.300140 152.354919,278.359497 149.713699,274.736481 
	C146.104874,269.786163 142.848419,264.524750 139.960083,259.119324 
	C137.325577,254.188873 135.211487,253.756653 131.614349,258.003448 
	C128.609802,261.550659 125.587570,265.139465 122.165871,268.263763 
	C116.768501,273.192078 110.152008,273.626129 104.416893,269.153534 
	C99.674339,265.455017 94.674278,263.681335 88.716301,264.008057 
	C86.780396,264.114258 84.799263,263.146240 82.841820,263.158295 
	C77.984467,263.188141 73.126030,263.448792 68.273590,263.717285 
	C65.323311,263.880524 60.921497,265.519470 59.765957,264.208649 
	C57.812031,261.992157 57.788422,257.984406 57.225662,254.683380 
	C57.047169,253.636368 57.690308,252.427094 58.037148,251.316971 
	C58.989883,248.267593 57.962589,246.638016 54.765583,245.992126 
	C44.446583,243.907349 42.254498,241.450470 40.882812,230.900787 
	C43.413761,227.343857 45.944714,223.786942 48.420391,220.307693 
	C43.623425,217.650879 42.593914,211.655899 46.473675,205.987152 
	C50.741947,199.750763 56.482780,195.320923 63.925049,191.957001 
	C69.731850,190.222961 74.794586,188.545090 79.840569,187.238037 
	C78.611168,190.526917 77.136276,193.365982 76.229851,196.376221 
	C71.495277,212.099854 81.159874,223.075378 97.308716,220.464874 
	C107.472633,218.821823 116.804611,219.508118 124.105034,228.309875 
	C127.602562,232.526672 132.405930,233.999863 138.120483,232.141083 
	C140.463669,231.378906 143.405457,231.596954 145.865311,232.210068 
	C154.225220,234.293777 159.326370,231.023163 159.871109,222.434586 
	C160.122253,218.475082 159.528458,214.467026 159.415131,210.478226 
	C159.232941,204.066147 160.223587,197.922134 166.284409,194.374268 
	C172.238159,190.889084 177.515030,193.533585 182.351410,197.318634 
	C183.660645,198.343262 184.702484,199.810837 186.136856,200.555206 
	C190.359772,202.746765 194.530670,205.517853 199.063843,206.528702 
	C207.517792,208.413864 214.947357,202.489517 216.148331,193.920502 
z"/>
<path fill="#4F424C" opacity="1.000000" stroke="none" 
	d="
M40.604095,231.143188 
	C42.254498,241.450470 44.446583,243.907349 54.765583,245.992126 
	C57.962589,246.638016 58.989883,248.267593 58.037148,251.316971 
	C57.690308,252.427094 57.047169,253.636368 57.225662,254.683380 
	C57.788422,257.984406 57.812031,261.992157 59.765957,264.208649 
	C60.921497,265.519470 65.323311,263.880524 68.273590,263.717285 
	C73.126030,263.448792 77.984467,263.188141 82.841820,263.158295 
	C84.799263,263.146240 86.780396,264.114258 88.716301,264.008057 
	C94.674278,263.681335 99.674339,265.455017 104.416893,269.153534 
	C110.152008,273.626129 116.768501,273.192078 122.165871,268.263763 
	C125.587570,265.139465 128.609802,261.550659 131.614349,258.003448 
	C135.211487,253.756653 137.325577,254.188873 139.960083,259.119324 
	C142.848419,264.524750 146.104874,269.786163 149.713699,274.736481 
	C152.354919,278.359497 156.494461,279.300140 160.937531,278.484863 
	C175.302643,275.848938 185.222488,264.072815 184.672806,247.756439 
	C184.353622,238.282135 181.259613,228.895691 179.334290,219.486069 
	C178.969437,217.703018 177.896164,216.021362 177.765717,214.247604 
	C177.659805,212.807297 178.085037,210.430359 178.978210,210.027130 
	C180.276901,209.440811 182.746811,209.664825 183.762177,210.590714 
	C186.190430,212.804977 188.290222,215.479233 190.115433,218.237244 
	C196.968384,228.592468 200.813507,239.896423 201.127350,252.454346 
	C201.223831,256.314911 202.071396,260.515686 203.847733,263.890869 
	C206.488693,268.908966 211.528427,270.990662 217.070160,269.607605 
	C222.833832,268.169159 228.381744,265.866089 234.430145,264.294373 
	C232.303177,277.327820 229.770081,290.008026 227.236984,302.688263 
	C226.842880,302.865570 226.448776,303.042908 226.054672,303.220215 
	C225.179352,301.759857 223.998978,300.397186 223.493347,298.818420 
	C222.493988,295.698181 222.204422,292.326569 221.016968,289.295685 
	C218.610123,283.152527 215.772156,282.533875 211.321442,287.266876 
	C205.778702,293.161224 199.830811,298.147461 191.652069,299.970856 
	C186.600296,301.097137 183.746597,305.504669 185.391357,310.443237 
	C189.133804,321.680328 192.599304,333.121094 197.656815,343.776886 
	C202.566040,354.120300 210.315186,362.696289 220.073563,369.525452 
	C219.054520,374.601440 217.999893,379.269318 217.029037,383.954498 
	C215.104446,393.242523 217.769165,401.984802 220.295074,410.737732 
	C216.132812,405.919403 211.572510,401.385925 207.882874,396.229431 
	C196.777481,380.708893 186.619431,364.608917 180.654495,346.269989 
	C179.082062,341.435608 177.748138,336.523621 175.459625,331.417938 
	C174.012238,337.337677 172.778351,343.322601 171.002686,349.142151 
	C170.373627,351.203888 168.424515,352.862885 167.078033,354.705719 
	C165.752930,352.776154 163.614304,350.993225 163.235840,348.893066 
	C160.924759,336.068176 159.240417,323.127869 156.793442,310.331879 
	C156.247314,307.475983 154.002014,303.807953 151.588577,302.808105 
	C149.678757,302.016907 145.723282,304.140350 143.760605,306.071533 
	C141.813553,307.987305 141.247803,311.292664 140.025604,313.965393 
	C139.424576,315.279785 138.709030,316.541748 138.045319,317.827454 
	C137.357864,316.423859 136.281616,315.082153 136.046768,313.606537 
	C134.649658,304.828003 133.447128,296.018494 132.211395,287.442657 
	C129.293289,289.156219 126.196045,291.947388 122.638931,292.784485 
	C119.225525,293.587708 115.240677,292.769592 111.677231,291.936066 
	C106.537392,290.733765 103.341209,292.075378 102.150078,297.343719 
	C100.841240,303.132599 100.072906,309.041901 98.968597,314.879730 
	C98.536407,317.164459 97.831108,319.397491 97.250191,321.654083 
	C96.773201,321.616669 96.296211,321.579224 95.819229,321.541809 
	C95.231293,319.054474 94.360336,316.595490 94.107414,314.074554 
	C93.282013,305.847534 92.618011,297.602570 92.016953,289.355377 
	C91.585747,283.438904 87.432678,279.574554 81.411148,280.055969 
	C69.705414,280.991852 61.843700,290.798492 64.503929,300.995514 
	C65.529648,304.927185 63.693565,310.268799 61.669147,314.199463 
	C56.968872,323.325775 55.735348,333.020691 54.972202,342.949860 
	C54.696838,346.532593 54.121120,350.092285 53.682472,353.662476 
	C53.135464,353.844116 52.588451,354.025757 52.041443,354.207397 
	C51.360390,352.783630 50.171993,351.393250 50.075768,349.931000 
	C48.955776,332.911804 48.020622,315.880524 46.981369,298.855804 
	C46.810833,296.062195 46.778126,293.164276 45.989742,290.520966 
	C42.748863,279.654785 43.772297,268.940277 46.310661,258.144318 
	C46.686687,256.545013 46.236820,253.992340 45.146603,252.929504 
	C37.505539,245.480164 36.328873,240.812012 40.604095,231.143188 
z"/>
<path fill="#E37D7F" opacity="1.000000" stroke="none" 
	d="
M220.299957,410.751953 
	C217.769165,401.984802 215.104446,393.242523 217.029037,383.954498 
	C217.999893,379.269318 219.054520,374.601440 220.388199,369.338623 
	C225.454849,360.438873 230.204575,352.126251 235.061340,344.172668 
	C237.631516,349.383179 242.168564,347.683899 246.072693,347.983887 
	C242.224838,356.956512 237.827225,365.746796 234.765030,374.980011 
	C233.272018,379.481781 234.114273,384.814545 234.266281,389.759857 
	C234.298386,390.804749 235.931519,391.800415 236.826981,392.818756 
	C237.557098,391.686218 238.907150,390.562836 238.924011,389.419769 
	C239.161789,373.301270 246.180435,359.754944 254.077698,346.233429 
	C261.341064,333.797211 267.345642,320.625824 274.385071,307.334778 
	C278.202362,305.618408 281.539368,304.345520 284.876373,303.072632 
	C281.479767,312.597382 278.430878,322.265137 274.588898,331.606689 
	C270.731018,340.986847 265.774048,349.912140 261.841187,359.264862 
	C251.645859,383.510284 254.402283,407.123260 266.004120,430.160675 
	C267.126007,432.388397 268.114044,434.683533 269.169678,437.768494 
	C267.820282,444.042847 266.465363,449.496002 265.110474,454.949188 
	C257.721619,433.791718 250.643616,421.833679 242.770355,419.631195 
	C244.578537,423.901184 245.939224,427.203796 247.369888,430.475769 
	C251.277634,439.412903 255.262436,448.316833 259.093323,457.286591 
	C259.725220,458.766144 259.733887,460.511841 259.626282,462.611359 
	C255.527130,464.047821 251.832275,465.007477 248.137436,465.967163 
	C246.038101,453.884277 239.331894,443.946533 233.234116,433.699432 
	C229.116684,426.780273 225.294006,419.685669 221.166412,412.086914 
	C220.757782,411.267212 220.522232,411.030121 220.286652,410.793030 
	C220.286652,410.793030 220.304825,410.766205 220.299957,410.751953 
M240.259232,409.791382 
	C240.503784,408.019470 240.748337,406.247528 240.992905,404.475616 
	C239.465042,404.866638 237.937195,405.257629 236.409332,405.648621 
	C237.433197,407.083374 238.457062,408.518158 240.259232,409.791382 
z"/>
<path fill="#4F424C" opacity="1.000000" stroke="none" 
	d="
M79.857330,186.867218 
	C74.794586,188.545090 69.731850,190.222961 64.276588,191.902679 
	C54.167389,181.001175 48.218224,168.330109 49.148010,153.653854 
	C50.838158,126.975540 63.263840,106.694489 87.324524,94.126144 
	C87.593658,93.985565 87.978462,94.066414 88.684204,94.057167 
	C87.464012,95.895622 85.975349,97.828796 84.253838,99.525780 
	C79.021744,104.683281 73.355621,109.616997 73.969238,117.942802 
	C74.147736,120.364868 74.575615,122.991341 75.712585,125.074753 
	C78.273705,129.767853 78.807213,134.554504 77.318092,139.523239 
	C75.151047,146.753998 76.244278,152.812088 82.283707,157.914703 
	C84.049026,159.406189 84.671143,162.203506 85.963570,164.312607 
	C88.108315,167.812622 90.371529,171.240051 92.715012,175.153442 
	C88.515900,179.361633 84.186623,183.114426 79.857330,186.867218 
z"/>
<path fill="#BA5B65" opacity="1.000000" stroke="none" 
	d="
M248.066010,466.383850 
	C251.832275,465.007477 255.527130,464.047821 259.590485,463.020203 
	C262.722961,471.448669 262.608734,479.976166 260.597595,488.779175 
	C255.006561,488.334045 251.452347,485.446625 248.405060,481.116211 
	C248.098297,476.199463 248.046448,471.500000 248.066010,466.383850 
z"/>
<path fill="#4F424C" opacity="1.000000" stroke="none" 
	d="
M90.726936,93.136475 
	C90.556335,93.441544 90.084984,93.724960 89.335785,94.037018 
	C89.514030,93.748718 89.970116,93.431778 90.726936,93.136475 
z"/>
<path fill="#617A68" opacity="1.000000" stroke="none" 
	d="
M155.796265,36.176453 
	C155.928253,36.463951 155.735947,36.701954 155.250732,36.947449 
	C155.199280,36.735580 155.370667,36.459587 155.796265,36.176453 
z"/>
<path fill="#4F424C" opacity="1.000000" stroke="none" 
	d="
M220.264191,411.061890 
	C220.522232,411.030121 220.757782,411.267212 221.003540,411.769928 
	C220.756409,411.800629 220.499069,411.565704 220.264191,411.061890 
z"/>
<path fill="#8FAC96" opacity="1.000000" stroke="none" 
	d="
M79.840576,187.238052 
	C84.186623,183.114426 88.515900,179.361633 93.022850,175.314072 
	C97.307861,172.870377 101.334053,170.545273 105.539062,168.608368 
	C114.951492,164.272781 124.691597,163.694580 134.732559,166.273361 
	C136.489960,166.724716 138.729797,166.462296 140.434464,165.765427 
	C151.563553,161.215820 161.878937,162.769409 171.667404,169.395721 
	C176.760025,172.843216 181.727615,176.518295 187.051208,179.567657 
	C191.033463,181.848663 195.494827,183.293228 200.092651,185.107910 
	C205.519440,187.879318 210.596436,190.653046 215.910873,193.673645 
	C214.947357,202.489517 207.517792,208.413864 199.063843,206.528702 
	C194.530670,205.517853 190.359772,202.746765 186.136856,200.555206 
	C184.702484,199.810837 183.660645,198.343262 182.351410,197.318634 
	C177.515030,193.533585 172.238159,190.889084 166.284409,194.374268 
	C160.223587,197.922134 159.232941,204.066147 159.415131,210.478226 
	C159.528458,214.467026 160.122253,218.475082 159.871109,222.434586 
	C159.326370,231.023163 154.225220,234.293777 145.865311,232.210068 
	C143.405457,231.596954 140.463669,231.378906 138.120483,232.141083 
	C132.405930,233.999863 127.602562,232.526672 124.105034,228.309875 
	C116.804611,219.508118 107.472633,218.821823 97.308716,220.464874 
	C81.159874,223.075378 71.495277,212.099854 76.229851,196.376221 
	C77.136276,193.365982 78.611168,190.526917 79.840576,187.238052 
M92.645607,191.188538 
	C92.802391,186.875931 90.449883,187.911850 88.322472,189.326050 
	C82.182663,193.407501 81.430946,204.742935 87.076149,209.464981 
	C88.493675,210.650711 90.558472,211.265869 92.424812,211.616943 
	C93.229347,211.768280 94.747665,210.772491 95.091286,209.944778 
	C95.403450,209.192825 94.842369,207.708664 94.185318,206.982361 
	C88.817940,201.049133 88.465645,198.576309 92.645607,191.188538 
M101.513863,197.621735 
	C102.870071,198.228241 104.226280,198.834747 105.582497,199.441269 
	C106.210487,196.788467 107.016327,194.158417 107.360573,191.469299 
	C107.467033,190.637695 106.365074,188.927551 105.732323,188.885498 
	C104.632614,188.812469 102.772064,189.462418 102.466049,190.274689 
	C101.688141,192.339508 101.593658,194.661804 101.513863,197.621735 
M119.496017,191.856522 
	C120.325264,190.500824 121.154510,189.145126 121.983757,187.789429 
	C120.825264,187.503601 119.666763,187.217758 118.508270,186.931931 
	C118.603195,188.521133 118.698120,190.110352 119.496017,191.856522 
z"/>
<path fill="#000000" opacity="1.000000" stroke="none" 
	d="
M234.954300,343.813629 
	C230.204575,352.126251 225.454849,360.438873 220.390488,368.938324 
	C210.315186,362.696289 202.566040,354.120300 197.656815,343.776886 
	C192.599304,333.121094 189.133804,321.680328 185.391357,310.443237 
	C183.746597,305.504669 186.600296,301.097137 191.652069,299.970856 
	C199.830811,298.147461 205.778702,293.161224 211.321442,287.266876 
	C215.772156,282.533875 218.610123,283.152527 221.016968,289.295685 
	C222.204422,292.326569 222.493988,295.698181 223.493347,298.818420 
	C223.998978,300.397186 225.179352,301.759857 226.054672,303.220215 
	C226.448776,303.042908 226.842880,302.865570 227.236984,302.688263 
	C229.770081,290.008026 232.303177,277.327820 234.790573,264.256531 
	C236.489975,259.855957 238.235077,255.846451 240.040573,251.470093 
	C245.177292,250.657928 250.248383,250.052063 255.333817,249.886887 
	C256.517792,249.848419 258.691711,251.185272 258.811829,252.099350 
	C259.774506,259.425507 260.353424,266.802124 261.034241,275.059265 
	C260.669708,278.375824 260.117584,280.787048 260.005524,283.218567 
	C259.391541,296.539917 255.287964,308.867737 249.008194,320.444855 
	C244.678436,328.426941 239.663193,336.037201 234.954300,343.813629 
z"/>
<path fill="#000000" opacity="1.000000" stroke="none" 
	d="
M310.869537,305.932251 
	C306.667877,307.841553 302.466217,309.750885 297.194580,312.146423 
	C304.626556,292.781372 304.092529,273.250519 303.991882,253.659561 
	C308.065521,252.537064 310.601105,254.148514 311.986176,257.234314 
	C313.600098,260.829987 314.630707,264.684113 316.007965,268.391357 
	C316.455994,269.597260 317.197937,270.693939 317.805420,271.840637 
	C318.774780,270.702606 320.343170,269.689941 320.612030,268.405334 
	C321.930847,262.103577 322.744507,255.696564 324.046875,249.390823 
	C325.210571,243.756454 326.490997,238.109406 328.311493,232.665771 
	C329.031342,230.513367 331.065430,228.502518 332.993134,227.106628 
	C339.334167,222.514908 340.740509,222.820297 344.848938,229.344589 
	C350.307800,238.013519 356.033569,246.553345 360.859253,255.569061 
	C364.364441,262.117767 363.870148,269.357513 360.744812,276.875549 
	C352.961761,282.351318 345.503448,287.254913 337.696716,292.198486 
	C335.543457,293.342682 333.805267,294.579315 331.921875,295.527496 
	C324.930298,299.047180 317.890961,302.471893 310.869537,305.932251 
z"/>
<path fill="#000000" opacity="1.000000" stroke="none" 
	d="
M378.037598,260.012726 
	C376.383362,248.925568 370.113556,240.259613 363.349457,231.822189 
	C359.664795,227.226028 356.158844,222.486633 352.262268,217.407715 
	C356.564209,213.965942 360.149536,210.830704 364.008331,208.078964 
	C368.646942,204.771133 373.428925,205.452988 377.917511,208.560242 
	C383.872314,212.682480 389.842957,216.797089 395.558441,221.234879 
	C396.521210,221.982437 396.844055,224.538177 396.406250,225.925034 
	C394.966827,230.485184 393.041595,234.891983 391.056427,240.020203 
	C387.818970,245.751984 384.828033,250.821274 381.551880,256.047119 
	C380.190308,257.473358 379.113953,258.743042 378.037598,260.012726 
z"/>
<path fill="#B95A64" opacity="1.000000" stroke="none" 
	d="
M286.091980,456.947327 
	C280.177551,444.771332 274.154114,433.063141 268.712921,421.090363 
	C262.845398,408.179535 259.298065,394.730194 262.005463,380.336731 
	C262.361908,378.441803 262.796692,376.561615 263.689514,374.620422 
	C261.403748,396.368256 272.360291,412.629486 284.729156,428.622437 
	C291.620056,437.532349 297.599701,447.217163 303.252075,456.980011 
	C305.483002,460.833282 306.248718,465.796631 306.683167,470.349792 
	C307.067444,474.377472 305.193298,478.233765 300.493622,478.620941 
	C296.161713,478.977844 292.921967,477.009613 291.532623,472.369598 
	C290.006927,467.274506 288.023407,462.316437 286.091980,456.947327 
z"/>
<path fill="#BD5C66" opacity="1.000000" stroke="none" 
	d="
M235.061340,344.172668 
	C239.663193,336.037201 244.678436,328.426941 249.008194,320.444855 
	C255.287964,308.867737 259.391541,296.539917 260.005524,283.218567 
	C260.117584,280.787048 260.669708,278.375824 261.076111,275.523163 
	C264.024811,275.667725 266.894104,276.445312 269.813538,276.765320 
	C272.823517,277.095245 273.306854,278.942230 272.986206,281.288696 
	C271.303009,293.606354 269.187073,305.872955 263.413391,317.036865 
	C258.079071,327.351196 252.211502,337.389709 246.325729,347.766785 
	C242.168564,347.683899 237.631516,349.383179 235.061340,344.172668 
z"/>
<path fill="#E27D7F" opacity="1.000000" stroke="none" 
	d="
M377.952820,260.345062 
	C379.113953,258.743042 380.190308,257.473358 381.931580,256.060272 
	C388.285248,257.717285 388.029266,262.425079 388.022278,267.011078 
	C374.564850,284.277405 356.885864,296.110718 337.321228,305.746155 
	C337.275177,300.999695 337.660156,296.579102 338.045166,292.158508 
	C345.503448,287.254913 352.961761,282.351318 360.698029,277.272308 
	C366.606659,271.623749 372.237335,266.150574 377.952820,260.345062 
z"/>
<path fill="#BA5B65" opacity="1.000000" stroke="none" 
	d="
M265.146240,455.339172 
	C266.465363,449.496002 267.820282,444.042847 269.257660,438.116272 
	C274.029572,448.803894 279.253754,459.777618 283.249359,471.181732 
	C286.831604,481.406067 278.938751,490.062225 268.990570,489.305206 
	C267.702789,477.952118 266.442413,466.840637 265.146240,455.339172 
z"/>
<path fill="#BA5B65" opacity="1.000000" stroke="none" 
	d="
M337.696747,292.198486 
	C337.660156,296.579102 337.275177,300.999695 336.965729,305.828827 
	C331.420593,309.277161 325.953857,312.674835 320.107361,315.189484 
	C317.589630,316.272369 313.158173,316.714691 311.647827,315.283234 
	C310.067078,313.785034 310.949524,309.687836 310.812439,306.329468 
	C317.890961,302.471893 324.930298,299.047180 331.921875,295.527496 
	C333.805267,294.579315 335.543457,293.342682 337.696747,292.198486 
z"/>
<path fill="#BA5B65" opacity="1.000000" stroke="none" 
	d="
M388.290314,266.813904 
	C388.029266,262.425079 388.285248,257.717285 382.216797,255.903717 
	C384.828033,250.821274 387.818970,245.751984 390.973572,240.365540 
	C399.626312,240.149857 402.101593,243.905304 398.108459,251.442657 
	C395.318451,256.709076 391.768738,261.572998 388.290314,266.813904 
z"/>
<path fill="#B85A64" opacity="1.000000" stroke="none" 
	d="
M285.048462,302.715515 
	C281.539368,304.345520 278.202362,305.618408 274.540283,307.008423 
	C276.056213,298.617859 277.897217,290.110138 279.743652,281.603699 
	C286.306702,285.025391 288.039429,291.597656 285.048462,302.715515 
z"/>
<path fill="#647D6B" opacity="1.000000" stroke="none" 
	d="
M400.654358,116.405121 
	C398.968933,117.871674 397.426819,118.991051 395.884705,120.110435 
	C395.446930,118.330109 394.410431,116.451828 394.682709,114.787659 
	C395.529999,109.608650 394.968262,104.984993 391.572235,100.759605 
	C390.864502,99.879005 391.124847,98.220352 390.939056,96.920265 
	C392.275330,97.194229 393.868713,97.094170 394.904022,97.805923 
	C399.790466,101.165176 402.419250,109.645790 400.654358,116.405121 
z"/>
<path fill="#637C6A" opacity="1.000000" stroke="none" 
	d="
M206.618164,73.819054 
	C208.761612,78.698479 210.721313,83.394928 212.226669,88.232750 
	C212.415894,88.840874 209.977722,91.221390 209.154480,91.033997 
	C204.003860,89.861580 201.065475,77.672173 204.882568,73.963768 
	C205.172150,73.682442 205.815903,73.765686 206.618164,73.819054 
z"/>
<path fill="#647D6B" opacity="1.000000" stroke="none" 
	d="
M383.791199,99.232002 
	C384.564514,100.134331 385.467743,100.747086 385.526489,101.432259 
	C385.674347,103.156479 385.441162,104.913368 385.360718,106.657166 
	C383.937653,105.876984 382.438812,105.203453 381.124786,104.269791 
	C380.506134,103.830185 380.043121,102.937874 379.861145,102.167641 
	C379.517822,100.714767 379.428955,99.201767 379.234314,97.713760 
	C380.668427,98.134300 382.102539,98.554848 383.791199,99.232002 
z"/>
<path fill="#637C6A" opacity="1.000000" stroke="none" 
	d="
M220.819931,74.490402 
	C220.961395,77.219185 221.925003,80.455666 218.245346,80.311348 
	C217.125839,80.267441 215.851471,77.101517 215.229492,75.177498 
	C215.003754,74.479248 216.427704,72.461990 217.181717,72.416435 
	C218.319931,72.347664 219.530716,73.480118 220.819931,74.490402 
z"/>
<path fill="#58464F" opacity="1.000000" stroke="none" 
	d="
M239.870087,409.872131 
	C238.457062,408.518158 237.433197,407.083374 236.409332,405.648621 
	C237.937195,405.257629 239.465042,404.866638 240.992905,404.475616 
	C240.748337,406.247528 240.503784,408.019470 239.870087,409.872131 
z"/>
<path fill="#647D6A" opacity="1.000000" stroke="none" 
	d="
M92.480331,191.528809 
	C88.465645,198.576309 88.817940,201.049133 94.185318,206.982361 
	C94.842369,207.708664 95.403450,209.192825 95.091286,209.944778 
	C94.747665,210.772491 93.229347,211.768280 92.424812,211.616943 
	C90.558472,211.265869 88.493675,210.650711 87.076149,209.464981 
	C81.430946,204.742935 82.182663,193.407501 88.322472,189.326050 
	C90.449883,187.911850 92.802391,186.875931 92.480331,191.528809 
z"/>
<path fill="#637C6A" opacity="1.000000" stroke="none" 
	d="
M101.369720,197.251373 
	C101.593658,194.661804 101.688141,192.339508 102.466049,190.274689 
	C102.772064,189.462418 104.632614,188.812469 105.732323,188.885498 
	C106.365074,188.927551 107.467033,190.637695 107.360573,191.469299 
	C107.016327,194.158417 106.210487,196.788467 105.582497,199.441254 
	C104.226280,198.834747 102.870071,198.228241 101.369720,197.251373 
z"/>
<path fill="#657F6C" opacity="1.000000" stroke="none" 
	d="
M119.144531,191.778046 
	C118.698120,190.110352 118.603195,188.521133 118.508270,186.931931 
	C119.666763,187.217758 120.825264,187.503601 121.983757,187.789429 
	C121.154510,189.145126 120.325264,190.500824 119.144531,191.778046 
z"/>
</svg>