<svg version="1.1" id="Layer_1" xmlns="http://www.w3.org/2000/svg" xmlns:xlink="http://www.w3.org/1999/xlink" x="0px" y="0px"
	 width="100%" viewBox="0 0 1024 1024" enable-background="new 0 0 1024 1024" xml:space="preserve">
<path fill="#000000" opacity="1.000000" stroke="none" 
	d="
M517.348389,171.734253 
	C516.948181,175.788406 517.772156,178.479874 521.413757,180.359070 
	C524.624207,182.015793 525.366516,185.462051 525.349243,189.000854 
	C525.302063,198.665604 525.409790,208.331635 525.295166,217.995239 
	C525.253052,221.544022 525.915710,224.279648 529.192993,226.494583 
	C533.298889,229.269470 533.950073,234.642792 530.209412,238.210846 
	C525.760376,242.454514 525.915710,247.211014 525.628967,252.706299 
	C525.175781,261.390717 527.887756,265.948364 536.692200,268.226074 
	C544.179565,270.162994 551.045532,274.421875 557.359741,279.149323 
	C562.034668,282.649445 564.593262,286.743866 563.533813,293.226288 
	C558.622986,323.274139 555.364014,353.552917 551.747498,383.774170 
	C549.732422,400.613770 548.831787,417.583832 547.223328,434.475525 
	C543.650269,471.996765 542.650940,509.607208 543.385010,547.262695 
	C543.861938,571.727356 545.794922,596.117859 548.032043,620.484375 
	C550.403809,646.316040 553.041077,672.116089 556.261536,697.856934 
	C559.954590,727.374512 563.527100,756.906982 568.053772,786.314209 
	C569.570435,796.167480 571.122681,806.030273 572.105164,815.943604 
	C572.520264,820.132629 574.412476,820.765442 577.893372,820.713135 
	C586.556519,820.582764 595.223389,820.628235 603.888062,820.695557 
	C610.833984,820.749512 613.255798,822.776367 613.898254,829.702515 
	C614.343079,834.498535 614.310059,839.360901 614.159302,844.183228 
	C614.041504,847.952332 615.327332,849.570068 619.281006,849.690063 
	C627.389648,849.936462 629.643494,852.481262 629.942139,860.791809 
	C630.188721,867.653625 630.188660,867.652588 636.917175,867.641357 
	C638.583496,867.638550 640.250610,867.612183 641.916016,867.653015 
	C650.236389,867.857056 654.574768,874.417786 651.161194,882.053955 
	C648.292908,888.470276 643.476196,892.259338 636.014343,892.252502 
	C554.362305,892.177979 472.710266,892.174194 391.058228,892.109741 
	C381.905884,892.102539 375.835480,887.270264 374.524933,879.289062 
	C373.421082,872.566711 377.272491,867.859802 384.031158,867.674927 
	C384.530762,867.661255 385.032196,867.692627 385.530640,867.664734 
	C388.842743,867.479248 392.613892,868.788208 395.358551,867.069336 
	C398.368195,865.184448 396.336700,861.205139 396.912781,858.196777 
	C397.870453,853.195740 400.665680,850.237732 405.875488,849.614136 
	C413.840363,848.660767 421.866577,848.588684 429.809662,849.515808 
	C434.591644,850.073975 436.755005,848.673218 437.611023,843.865356 
	C444.545563,804.916931 451.462830,765.964905 457.482941,726.863647 
	C462.769470,692.527161 467.725250,658.133667 471.464813,623.593506 
	C473.970825,600.447144 475.562561,577.209106 476.957581,553.956726 
	C478.626465,526.140503 478.379669,498.309204 477.471741,470.520569 
	C476.532013,441.759277 474.897491,413.000519 472.069031,384.331268 
	C470.077240,364.142487 468.657471,343.896240 466.573364,323.717896 
	C464.900818,307.524231 462.777893,291.371002 460.514160,275.247681 
	C459.682800,269.326508 462.087494,265.619080 466.836060,262.922821 
	C474.813385,258.393250 483.540070,257.509094 492.470673,258.131317 
	C498.870056,258.577209 499.767975,257.911469 499.904083,251.536423 
	C500.010071,246.571762 500.341736,241.914078 495.584503,238.091125 
	C491.788757,235.040833 492.580231,229.074036 496.658997,226.479156 
	C500.063263,224.313385 500.587891,221.385193 500.573608,217.952942 
	C500.532745,208.142700 500.021271,198.338791 500.539276,188.519241 
	C500.751190,184.502274 501.985291,181.310486 505.630341,179.482208 
	C508.351868,178.117172 508.723297,175.890320 508.712402,173.243759 
	C508.665894,161.912598 508.697815,150.581116 508.679535,139.249802 
	C508.674896,136.361206 509.115479,133.642197 512.705139,133.536346 
	C516.498596,133.424530 517.309937,136.116501 517.312073,139.278107 
	C517.319153,149.942978 517.335266,160.607864 517.348389,171.734253 
M514.499939,867.753479 
	C548.497498,867.758667 582.495178,867.730408 616.492554,867.817932 
	C620.083130,867.827148 622.141541,867.165222 621.989075,862.912537 
	C621.854614,859.160278 621.139160,856.984253 616.682800,857.140259 
	C609.193237,857.402588 601.686829,857.172058 594.187500,857.167664 
	C533.192688,857.131897 472.197906,857.092224 411.203094,857.081116 
	C405.534485,857.080078 404.633209,858.177673 404.391968,863.729004 
	C404.148712,869.325684 408.257233,867.676636 411.007965,867.683777 
	C445.171783,867.772644 479.335846,867.748413 514.499939,867.753479 
M543.500000,883.901245 
	C560.479431,883.669739 577.446167,884.661377 594.437622,884.155640 
	C608.252197,883.744507 622.087769,884.064819 635.913818,884.000427 
	C640.958740,883.976929 644.205627,881.718018 643.774902,878.388000 
	C643.162903,873.657166 639.213257,875.355469 636.616516,875.352417 
	C553.992188,875.254639 471.367859,875.262756 388.743500,875.257629 
	C387.411133,875.257507 386.072021,875.212585 384.747803,875.326111 
	C381.728546,875.584961 381.138336,877.126221 382.382812,879.774048 
	C384.176300,883.590088 387.363708,884.039795 391.115417,884.032898 
	C441.576843,883.939758 492.038452,883.932922 543.500000,883.901245 
M557.374084,766.986938 
	C556.818665,762.868164 556.258057,758.750061 555.708984,754.630493 
	C554.258911,743.751160 552.886475,732.860596 551.310608,721.999573 
	C550.958435,719.572021 550.571899,716.575500 546.074768,717.165649 
	C547.946289,727.683350 548.579041,738.102173 549.789001,748.455750 
	C551.815186,765.793396 554.076660,783.104370 556.349487,800.412109 
	C558.319641,815.414368 560.413757,830.400513 562.530151,845.382996 
	C562.842590,847.595093 563.656006,849.804626 566.560364,849.498901 
	C569.591736,849.179810 569.013855,846.711243 568.793884,844.851074 
	C568.013184,838.247803 567.117493,831.656067 566.139709,825.078613 
	C563.303650,806.002197 560.406677,786.934814 557.374084,766.986938 
M599.317566,849.689514 
	C605.988647,849.596436 606.051392,849.546509 605.989441,843.094788 
	C605.954407,839.446777 605.819763,835.799011 605.826599,832.151428 
	C605.831604,829.464172 604.663635,828.258850 601.917847,828.270630 
	C593.958069,828.304688 585.997620,828.242737 578.037903,828.162292 
	C575.293152,828.134583 574.075745,829.113647 574.589355,832.065857 
	C575.325989,836.299805 575.832642,840.575256 576.378601,844.840515 
	C576.801331,848.143555 578.374756,849.834351 581.943115,849.724792 
	C587.410522,849.556885 592.887085,849.686707 599.317566,849.689514 
M537.644775,818.804810 
	C536.913635,815.808777 537.281189,812.578674 535.850037,809.447205 
	C532.969116,809.594055 530.706543,811.045410 528.278503,811.966248 
	C525.876892,812.877136 525.100830,814.581604 525.346680,817.055847 
	C526.264587,826.293274 526.998779,835.550354 528.024109,844.775269 
	C528.595825,849.918274 530.128296,850.465759 537.463867,849.726929 
	C542.175659,849.252441 540.858276,845.856995 540.610840,843.379211 
	C539.820618,835.466675 538.691467,827.588013 537.644775,818.804810 
M517.247803,849.695007 
	C519.210571,849.607544 521.658630,849.975952 521.737122,847.078796 
	C522.010559,836.987732 521.020935,826.989685 519.583557,816.268616 
	C516.082458,817.889038 513.338623,819.362793 510.447754,820.443298 
	C507.140503,821.679321 505.916473,823.777344 506.159546,827.291138 
	C506.445404,831.422913 506.254761,835.587891 506.263733,839.738464 
	C506.285217,849.694397 506.283569,849.694397 517.247803,849.695007 
M547.599976,848.942688 
	C555.112976,850.808350 556.335083,849.927979 555.686462,842.420288 
	C555.230042,837.137695 554.493774,831.864746 553.587158,826.638794 
	C552.213257,818.719299 552.113159,810.588684 549.997009,802.445984 
	C546.163696,803.892578 541.490845,803.757690 542.162476,809.369690 
	C543.717529,822.362488 545.430542,835.336365 547.599976,848.942688 
M499.275269,825.898926 
	C495.530029,827.698608 491.790283,829.509888 488.036804,831.292114 
	C486.630463,831.959839 485.318115,832.722168 485.305481,834.499512 
	C485.270477,839.414795 485.293365,844.330566 485.293365,849.345886 
	C489.503052,849.814758 493.290955,849.854858 497.081604,849.192261 
	C499.081543,848.842529 500.639893,847.975342 500.591187,845.706848 
	C500.449677,839.119202 501.488342,832.484314 499.275269,825.898926 
M498.622925,819.969299 
	C502.921997,814.600525 499.761200,808.699463 500.644135,802.555664 
	C495.510559,803.679504 491.751434,805.727539 488.010345,807.807983 
	C486.714966,808.528381 486.259399,809.745911 486.258514,811.166687 
	C486.255646,815.784973 486.257446,820.403259 486.257446,825.282288 
	C490.352539,824.252808 494.078217,822.097961 498.622925,819.969299 
M472.053558,815.610291 
	C466.921448,818.453979 464.191132,827.682129 466.276489,835.135986 
	C479.550781,831.460571 482.999542,825.809937 480.050293,812.407776 
	C477.339020,812.685303 475.138550,814.276123 472.053558,815.610291 
M455.283600,841.717896 
	C459.486053,838.879211 461.802338,829.492249 459.890717,823.047302 
	C447.772278,826.535278 443.859558,832.914185 445.748260,846.545288 
	C448.773438,845.011536 451.696960,843.529358 455.283600,841.717896 
M510.910583,814.324585 
	C511.811096,813.896667 512.739563,813.518433 513.606567,813.030945 
	C515.716309,811.844727 519.177307,811.587341 519.320618,808.814087 
	C519.549194,804.391418 518.759460,799.912598 518.320984,795.465454 
	C518.286743,795.117920 517.681885,794.697571 517.257141,794.538818 
	C514.705078,793.584778 506.295868,799.025635 506.196350,801.790039 
	C506.070953,805.275330 506.210327,808.769226 506.164520,812.258545 
	C506.121490,815.536377 507.654358,815.948792 510.910583,814.324585 
M494.924683,782.496582 
	C486.908539,786.438843 485.636414,789.588745 487.377045,801.185486 
	C500.070221,798.135071 503.375427,792.771057 499.778870,781.006470 
	C498.198059,780.737305 496.954926,781.675903 494.924683,782.496582 
M479.141357,791.184082 
	C468.926239,796.302979 467.143738,799.664673 468.592316,811.078979 
	C480.993317,806.964294 483.457947,803.002014 481.525330,790.105225 
	C480.897186,790.377136 480.304688,790.633667 479.141357,791.184082 
M508.505554,776.092407 
	C504.953003,779.191101 504.110870,785.803101 506.489197,791.924072 
	C518.168457,790.021606 520.156738,786.199951 516.083069,773.302673 
	C513.485962,773.257202 511.509460,775.051941 508.505554,776.092407 
M522.380859,744.132263 
	C529.564270,742.524292 529.564209,742.524292 528.690369,730.597412 
	C528.268127,724.835449 526.494873,723.241150 519.591553,722.843445 
	C518.750793,728.623474 520.671387,734.336426 520.315613,740.083557 
	C520.228149,741.496155 519.956604,743.167358 522.380859,744.132263 
M463.015839,805.095642 
	C463.134583,803.500854 464.094452,801.926941 463.171478,800.293030 
	C452.551147,803.852112 450.423981,806.566162 450.258148,820.163879 
	C460.062897,818.328918 462.490570,815.595276 463.015839,805.095642 
M524.444763,801.763184 
	C524.761047,803.338623 524.510437,805.132996 526.432556,806.437134 
	C529.656555,804.845581 534.944397,805.447083 535.473389,800.482544 
	C535.930786,796.188843 535.093323,791.632690 533.730774,787.381836 
	C525.219116,788.968933 524.069885,790.299377 524.317261,797.931519 
	C524.349609,798.928711 524.372192,799.926086 524.444763,801.763184 
M481.446442,783.666626 
	C483.871979,779.352600 482.524597,774.828491 482.811554,770.216187 
	C472.003357,772.716309 468.724823,778.008850 471.017792,788.866760 
	C474.332947,787.270874 477.583252,785.706238 481.446442,783.666626 
M493.178406,763.746338 
	C486.362854,767.138550 489.118713,773.313660 488.246857,778.766785 
	C500.841370,775.552002 500.899750,774.833313 499.019623,762.051331 
	C497.077576,761.659851 495.568909,762.950867 493.178406,763.746338 
M527.932861,783.340454 
	C528.231873,783.201111 528.533630,783.067200 528.829529,782.921631 
	C533.322205,780.710999 535.083801,772.151367 531.846008,768.397461 
	C531.245300,767.700928 530.552429,767.493286 529.682983,767.493713 
	C524.610901,767.496521 522.021912,770.543030 522.688232,775.708862 
	C522.919983,777.505920 523.227295,779.315918 523.210327,781.117310 
	C523.179993,784.347534 524.679688,784.778503 527.932861,783.340454 
M516.042419,760.225525 
	C515.515869,758.403015 516.347046,756.215088 514.654785,754.711426 
	C504.669495,756.833740 504.318085,757.319702 506.005798,770.592102 
	C515.629761,768.834473 517.078247,767.474121 516.042419,760.225525 
M475.648865,837.356750 
	C472.730316,838.905334 469.772522,840.385254 466.904999,842.023132 
	C464.386841,843.461426 463.193573,846.248169 464.756653,848.311829 
	C467.020538,851.300659 470.886200,849.383179 474.044098,849.570801 
	C476.009247,849.687500 478.297882,849.353027 478.657532,846.813599 
	C479.073212,843.878601 479.310394,840.879028 479.204468,837.922546 
	C479.125061,835.705994 477.510742,836.554810 475.648865,837.356750 
M476.116547,766.194214 
	C484.139893,762.454590 485.945282,757.954651 482.890228,749.310791 
	C473.858246,751.915466 473.182678,753.120483 473.122559,766.992065 
	C473.957306,766.812195 474.737518,766.644104 476.116547,766.194214 
M455.191589,788.707458 
	C454.514740,791.752930 453.879517,794.802979 454.029327,798.017944 
	C464.856262,793.613586 465.589752,793.680359 465.498077,778.640381 
	C461.553589,781.357971 456.038086,781.900574 455.191589,788.707458 
M499.687897,745.042358 
	C499.784943,742.272095 499.075989,740.968933 495.884796,742.196472 
	C489.257996,744.745789 487.439301,749.491333 490.154999,758.023865 
	C499.570099,756.018860 499.773956,755.759583 499.687897,745.042358 
M549.655945,793.169312 
	C548.992981,789.364746 549.279602,785.347900 547.511902,781.809082 
	C539.484863,783.204224 537.779175,789.214233 542.406616,799.033569 
	C544.980286,797.550903 548.688782,797.823242 549.655945,793.169312 
M514.817627,745.799622 
	C514.773499,743.302612 514.729980,740.805664 514.685059,738.308655 
	C514.618835,734.631409 512.757935,734.203857 509.752533,735.449219 
	C504.872314,737.471558 503.450195,743.632568 506.496674,750.541687 
	C509.526733,749.924622 512.639648,749.496033 514.817627,745.799622 
M491.609863,738.507874 
	C500.391296,734.802246 501.986084,730.949158 497.754272,722.888794 
	C495.989563,723.623901 494.094086,724.205322 492.409119,725.158752 
	C488.900024,727.144287 488.072327,735.698853 491.609863,738.507874 
M530.801208,753.454956 
	C530.320374,751.609497 531.659058,748.293152 528.255920,748.657288 
	C525.560852,748.945618 521.809204,749.163147 521.376404,753.108337 
	C520.984436,756.681946 521.158630,760.320618 523.225525,763.467041 
	C531.178223,761.925598 531.756836,761.204590 530.801208,753.454956 
M457.870270,773.297363 
	C457.500275,776.201416 459.077209,775.266541 460.535950,774.671143 
	C466.989807,772.036316 468.795319,767.703308 467.480682,757.946533 
	C459.733887,760.750610 459.729004,760.758179 457.870270,773.297363 
M521.918457,441.859650 
	C521.555420,437.598053 522.154663,433.266693 521.026123,429.062561 
	C520.479126,427.024628 519.123047,426.045410 516.994019,426.220886 
	C515.176086,426.370728 514.218140,427.491333 514.412903,429.189148 
	C514.899841,433.434448 515.193909,437.763611 516.313049,441.854614 
	C517.172913,444.997986 519.395020,446.225983 521.918457,441.859650 
M505.703186,731.204895 
	C513.286499,729.927124 514.453491,728.527954 513.673035,722.187439 
	C513.324829,719.358704 511.971954,717.970459 509.130737,718.087219 
	C506.318512,718.202698 504.165649,719.119385 504.367004,722.465454 
	C504.534393,725.247131 503.729553,728.121216 505.703186,731.204895 
M545.301270,775.595703 
	C548.132690,772.281738 546.202942,768.726807 545.862488,765.235352 
	C545.597656,762.518860 544.218079,762.123535 541.778015,762.642334 
	C535.737610,763.926514 538.320007,768.441772 538.354553,771.788025 
	C538.417603,777.888306 538.910706,778.098328 545.301270,775.595703 
M483.402924,730.246277 
	C474.462616,734.001892 473.940094,735.063721 475.598969,746.106018 
	C483.702789,743.493530 483.886230,743.276367 484.059143,735.258972 
	C484.094086,733.639343 483.983582,732.016541 483.402924,730.246277 
M514.418762,671.134521 
	C514.625427,676.717102 517.517273,679.554688 523.086182,679.789062 
	C524.507019,669.408630 521.234253,665.732788 514.985168,665.086975 
	C513.741882,666.692566 514.549438,668.570557 514.418762,671.134521 
M490.030151,716.489319 
	C490.126465,717.426819 489.647278,718.486694 490.614777,719.239014 
	C499.253296,716.976135 500.303558,714.954956 497.920105,705.180542 
	C490.282379,706.400024 490.135681,706.596741 490.030151,716.489319 
M525.477478,694.703857 
	C523.768494,686.063782 522.820923,685.046082 516.710266,685.288025 
	C515.282166,694.645935 516.607178,696.928711 524.894836,699.151367 
	C525.872192,698.092773 525.609619,696.755676 525.477478,694.703857 
M518.807861,703.986694 
	C516.525146,713.368042 518.229004,716.309570 526.949463,718.042725 
	C527.861023,708.182007 526.520264,705.610291 518.807861,703.986694 
M511.624207,453.106476 
	C511.466156,452.298706 511.364899,451.474640 511.139069,450.686279 
	C510.542908,448.605042 509.467865,446.945770 506.970947,447.403442 
	C504.395966,447.875397 504.152222,449.934509 504.385651,452.015289 
	C504.697876,454.798828 505.055359,457.590668 505.640900,460.325989 
	C506.127380,462.598419 507.964050,463.641510 510.111938,463.378296 
	C512.434509,463.093689 511.935486,460.984619 511.938843,459.415009 
	C511.942719,457.599945 511.762634,455.784485 511.624207,453.106476 
M508.762360,711.977905 
	C510.794556,711.735840 513.088318,711.560242 512.586609,708.665466 
	C512.012512,705.353271 512.850220,701.546875 509.751007,699.011414 
	C508.910736,698.323975 507.848175,698.819214 506.900543,699.176392 
	C504.941467,699.914856 503.903412,701.351196 504.107239,703.395569 
	C504.406189,706.393188 502.840576,709.763977 505.613586,712.258484 
	C506.036865,712.639160 507.185638,712.213379 508.762360,711.977905 
M521.389954,659.583435 
	C520.836182,650.316956 521.110718,646.500916 512.739502,646.007874 
	C511.999084,648.328857 513.282288,650.536804 513.252686,652.812683 
	C513.185486,657.981934 515.908997,660.309692 521.389954,659.583435 
M536.190796,749.768188 
	C536.611816,752.302185 535.537842,755.097717 537.377380,757.376099 
	C545.505493,756.382629 546.627625,753.444519 542.541138,743.727539 
	C539.715576,744.613281 535.921997,744.131287 536.190796,749.768188 
M537.513733,694.287476 
	C535.755432,692.220398 533.620483,690.980347 530.801636,690.965332 
	C530.982178,702.118164 531.233459,704.904297 539.609558,705.647217 
	C538.986511,702.028625 538.381836,698.517090 537.513733,694.287476 
M509.449677,681.101196 
	C507.600311,679.641907 505.171936,679.607910 504.200317,681.370178 
	C502.072357,685.229675 503.133301,689.491455 503.608093,693.948425 
	C506.413635,693.184875 508.740967,692.511780 511.516479,692.794128 
	C510.688477,688.866516 511.184631,685.210693 509.449677,681.101196 
M537.828430,723.343384 
	C539.007874,723.568909 540.144897,724.845886 541.392273,723.532166 
	C540.333557,711.818665 540.185547,711.580566 533.040955,710.058838 
	C531.478210,716.325317 532.851379,720.622131 537.828430,723.343384 
M508.679169,429.831909 
	C508.180176,427.418457 507.785339,424.976776 507.141632,422.602539 
	C506.777679,421.260101 505.757141,420.330414 504.196228,420.460815 
	C502.900604,420.568970 502.147217,421.443420 501.687073,422.566223 
	C500.131836,426.361084 503.470825,435.036652 507.545929,437.516632 
	C509.963776,435.599792 508.487061,432.980042 508.679169,429.831909 
M497.000488,686.925476 
	C490.398804,685.223572 488.196075,691.409058 491.294922,700.395996 
	C495.606476,699.817932 498.398987,698.020935 497.765442,693.028076 
	C497.536102,691.220825 497.528046,689.385559 497.000488,686.925476 
M530.768616,635.016235 
	C529.087891,633.728577 527.433411,632.369385 525.102661,632.810120 
	C523.112732,641.326233 525.134888,645.520142 532.145508,647.115417 
	C533.459106,643.143311 531.481873,639.436279 530.768616,635.016235 
M509.416931,613.892273 
	C510.033630,618.474670 512.786255,620.557007 517.219055,620.931763 
	C518.304138,617.783752 516.855225,615.124695 516.732300,612.377991 
	C516.586182,609.114319 514.820862,606.647888 511.695190,606.771057 
	C507.842285,606.922974 509.763123,610.463135 509.334961,612.594910 
	C509.303558,612.751160 509.346863,612.922424 509.416931,613.892273 
M484.691345,713.759399 
	C484.537964,712.056396 483.556976,712.062561 482.230988,712.465149 
	C477.080719,714.028748 475.248718,718.743347 477.049194,725.924744 
	C484.497498,724.453430 484.736603,724.096985 484.691345,713.759399 
M489.369354,678.082397 
	C489.623932,679.436096 488.776215,681.102356 490.448730,682.056580 
	C497.253021,679.735657 498.974823,674.442871 495.074860,667.895752 
	C488.882751,668.394165 489.082031,672.801758 489.369354,678.082397 
M530.062866,622.071289 
	C529.801453,617.478821 529.371216,613.016602 523.134521,612.938171 
	C521.112488,621.454651 523.362366,626.115356 529.907654,627.112976 
	C530.951416,625.761841 530.380859,624.292664 530.062866,622.071289 
M527.585693,652.655945 
	C524.401855,659.062195 526.994629,664.686584 534.041016,666.659363 
	C535.601501,658.899963 533.949280,654.873413 527.585693,652.655945 
M507.166168,661.379395 
	C502.018188,662.037964 500.732269,664.489563 502.133301,671.655579 
	C503.242645,677.329590 506.895172,673.003052 509.720398,673.927856 
	C509.574127,669.385681 509.362701,665.491821 507.166168,661.379395 
M528.509583,675.506897 
	C529.305725,680.242737 528.992798,685.821533 536.211792,685.793030 
	C536.482056,683.713135 535.948486,676.475769 535.369202,675.501404 
	C534.085876,673.342712 531.924805,672.269226 529.631042,672.060913 
	C528.016052,671.914307 528.553833,673.709106 528.509583,675.506897 
M464.031555,752.899414 
	C469.307831,749.843689 470.858215,745.112549 468.826202,738.267944 
	C463.053253,740.252014 459.987030,748.762756 464.031555,752.899414 
M500.919861,649.880981 
	C500.964142,650.374512 500.968140,650.875671 501.059784,651.360229 
	C501.399109,653.154114 500.686005,655.776794 503.865570,655.533447 
	C506.568237,655.326599 508.050781,653.894043 507.769379,650.950745 
	C507.565887,648.822083 507.770813,646.653259 506.947083,644.599670 
	C506.461456,643.389038 506.228699,641.789612 504.527191,641.935913 
	C502.826782,642.082092 501.184723,642.960938 500.748596,644.695129 
	C500.404297,646.064392 500.762695,647.610291 500.919861,649.880981 
M507.834320,596.289612 
	C508.571716,598.115234 509.906433,599.257385 511.801849,599.759338 
	C513.327881,600.163330 515.112122,600.493225 515.366516,598.409119 
	C515.770691,595.097961 515.554932,591.690735 513.118042,589.092896 
	C512.028442,587.931396 510.320343,586.952332 508.605743,587.623413 
	C506.851379,588.310120 507.338043,590.139160 507.324585,591.580200 
	C507.312225,592.904480 507.477112,594.230347 507.834320,596.289612 
M477.958191,697.831299 
	C477.129974,701.046448 477.092773,704.272034 477.503113,707.616211 
	C485.041412,705.122864 486.879486,700.605164 483.418304,693.635437 
	C481.224670,694.086365 479.461182,695.175903 477.958191,697.831299 
M499.308655,629.479980 
	C499.322998,630.307373 499.252167,631.146973 499.368835,631.959717 
	C499.639282,633.843140 499.332062,636.431213 502.158081,636.353210 
	C504.877747,636.278015 506.205963,634.516357 505.894653,631.631653 
	C505.682068,629.661743 505.721405,627.665039 505.636932,625.680786 
	C505.569183,624.089966 505.235199,622.600403 503.277039,622.505859 
	C501.653870,622.427612 500.266876,623.233704 499.730804,624.730286 
	C499.301270,625.929382 499.425568,627.326843 499.308655,629.479980 
M518.429382,631.433472 
	C517.497070,628.218933 515.155273,627.163391 512.134155,626.974792 
	C509.873535,635.335083 512.256775,639.804565 519.233093,640.077576 
	C519.011597,637.430115 518.793213,634.819946 518.429382,631.433472 
M489.218323,657.307251 
	C489.414673,658.876038 488.736603,660.598877 489.989929,661.983582 
	C496.183380,660.630859 497.686188,656.000671 494.386292,648.140442 
	C489.326080,648.856750 489.011230,652.492859 489.218323,657.307251 
M506.483490,560.732727 
	C507.897980,561.525085 509.269073,562.546692 511.141693,561.565979 
	C512.380127,558.320557 511.496826,555.141968 510.442688,552.052124 
	C509.793549,550.149475 508.078735,549.223206 506.132202,549.468506 
	C503.821594,549.759705 504.117157,551.776123 504.218170,553.355103 
	C504.370911,555.742188 503.698730,558.376343 506.483490,560.732727 
M511.457947,570.214355 
	C509.990112,569.155762 508.464294,567.695435 506.583160,568.887329 
	C504.740387,570.054932 505.408569,572.151550 505.486237,573.913940 
	C505.696747,578.688843 508.477142,580.764160 513.216614,581.198120 
	C513.698242,577.420654 513.108154,574.071106 511.457947,570.214355 
M511.990601,472.808594 
	C508.986206,472.010315 507.326782,473.353851 507.417694,476.270203 
	C507.522064,479.618347 506.742493,483.657532 510.712708,485.422516 
	C513.173218,486.516296 514.645691,484.592896 514.484985,482.300385 
	C514.269348,479.222839 514.618896,475.938049 511.990601,472.808594 
M508.481659,379.206177 
	C508.905273,382.474243 509.204376,385.765564 509.807617,389.000122 
	C510.088898,390.508362 511.137177,391.746613 512.988220,391.471741 
	C514.733398,391.212616 514.851013,389.835785 514.793213,388.450104 
	C514.615967,384.196442 514.370972,379.953583 512.402954,376.063629 
	C510.463409,376.177917 509.477112,377.213745 508.481659,379.206177 
M521.643372,603.570801 
	C522.948364,605.480957 524.632629,606.578735 527.217224,606.183655 
	C528.522827,603.067383 527.976685,599.915955 527.158264,596.944031 
	C526.549988,594.734924 524.513245,593.157959 522.185425,593.741455 
	C519.960449,594.299255 520.411987,596.651428 520.580505,598.436584 
	C520.720581,599.920288 521.119751,601.379578 521.643372,603.570801 
M488.380493,640.575073 
	C488.491028,641.989685 488.664856,643.443970 490.662689,642.821655 
	C492.615601,642.213318 494.470520,641.338501 494.604828,638.894592 
	C494.785767,635.603088 494.646240,632.350830 493.107635,629.282532 
	C486.504578,630.722229 488.770020,635.847229 488.380493,640.575073 
M523.744080,575.920227 
	C522.382812,574.978027 520.980835,573.676514 519.281433,574.950623 
	C517.905823,575.981934 518.239502,577.704041 518.446533,579.146790 
	C518.704468,580.944031 519.040649,582.791748 519.746643,584.445374 
	C520.443054,586.076538 522.013611,586.906921 523.848938,586.637390 
	C525.912964,586.334229 525.761841,584.625916 525.739868,583.139832 
	C525.705688,580.823853 525.882568,578.441711 523.744080,575.920227 
M510.685608,504.632538 
	C512.477417,506.731781 514.929626,508.419037 516.398438,505.087250 
	C517.602844,502.355133 517.027771,498.889130 515.407471,496.027496 
	C514.602356,494.605560 513.215088,494.019073 511.600220,494.423920 
	C510.029755,494.817627 509.638000,496.229492 509.684845,497.533173 
	C509.761353,499.661591 510.156616,501.778564 510.685608,504.632538 
M536.835510,728.950989 
	C531.743835,729.343811 534.996948,733.122498 534.417297,735.271301 
	C534.024292,736.728333 534.199219,739.021057 536.339661,739.179810 
	C538.386414,739.331543 540.845703,739.120239 542.175598,737.227661 
	C543.396484,735.490051 543.155151,733.289795 541.650208,731.765930 
	C540.539917,730.641785 538.908264,730.032593 536.835510,728.950989 
M496.325775,381.103394 
	C496.417236,384.710083 498.302277,386.689545 502.002716,387.485626 
	C503.605347,383.541718 502.481445,379.924774 501.778351,376.303589 
	C501.518433,374.964996 501.205566,373.535126 499.472015,373.680603 
	C497.907562,373.811890 496.612579,374.709930 496.348236,376.364410 
	C496.144043,377.642456 496.312683,378.980072 496.325775,381.103394 
M484.593170,680.780640 
	C484.389313,678.826538 484.185486,676.872437 483.975800,674.862427 
	C477.787323,676.890808 476.451660,680.853638 479.115540,688.782410 
	C482.354675,687.405762 485.017975,685.664673 484.593170,680.780640 
M502.098877,603.318054 
	C499.460602,602.798157 497.726013,604.011353 497.714661,606.539490 
	C497.699463,609.924622 498.286865,613.312439 498.622894,616.774963 
	C502.239990,616.827515 503.916534,615.434021 503.743042,612.053833 
	C503.600006,609.267273 503.879395,606.428223 502.098877,603.318054 
M497.983185,489.715149 
	C496.514709,492.891052 498.080994,495.925690 498.526184,498.980865 
	C498.792297,500.807190 500.268890,501.869934 502.187012,501.546875 
	C503.905945,501.257294 503.932281,499.698547 503.845276,498.376068 
	C503.682617,495.904388 503.912506,493.380432 502.958618,490.994659 
	C502.076752,488.789093 500.812286,487.617706 497.983185,489.715149 
M518.183960,463.353149 
	C518.391541,465.510284 518.418030,468.066071 521.552673,467.592590 
	C524.193420,467.193787 523.868713,464.809143 523.823975,462.846680 
	C523.790344,461.370300 523.794434,459.872528 523.540710,458.426544 
	C523.178650,456.362823 522.164795,454.364044 519.831360,454.546448 
	C517.051575,454.763702 517.446533,457.166443 517.619263,459.132904 
	C517.719666,460.275604 517.945435,461.407349 518.183960,463.353149 
M516.497253,559.450745 
	C516.808838,561.067444 517.023315,562.710876 517.458923,564.293457 
	C517.911133,565.936218 519.249695,566.579041 520.852783,566.616882 
	C522.191223,566.648560 523.080200,565.814209 523.354858,564.623413 
	C523.962769,561.987671 523.891907,559.334106 522.345337,557.005066 
	C521.378906,555.549683 519.769958,554.769897 518.059021,555.092712 
	C516.078552,555.466309 516.469849,557.269897 516.497253,559.450745 
M469.928375,719.069092 
	C463.840271,722.118713 466.097839,727.976990 464.413513,733.165344 
	C470.992615,730.530884 472.984070,725.272583 469.928375,719.069092 
M500.474701,511.501953 
	C499.549957,513.933716 500.046173,516.435852 500.460541,518.816589 
	C500.968506,521.734985 503.402893,522.885254 505.525879,521.060242 
	C507.898438,519.020691 506.746826,515.843201 505.895111,513.200806 
	C505.131653,510.832092 503.547668,509.653259 500.474701,511.501953 
M483.631653,639.351562 
	C483.498993,638.419556 483.697906,636.960938 482.379730,637.100525 
	C480.494812,637.299988 478.715485,638.460327 478.524994,640.434326 
	C478.202881,643.771973 477.580200,647.190430 478.493408,650.651855 
	C484.816193,649.038818 483.571320,644.276611 483.631653,639.351562 
M483.841705,663.986816 
	C483.623901,661.315674 484.381744,658.497986 482.930511,655.922119 
	C477.883759,658.301208 477.087708,661.093628 479.122620,668.993286 
	C481.403961,668.338196 483.498260,667.659058 483.841705,663.986816 
M492.667236,613.338440 
	C492.436310,611.916687 492.650635,610.052246 490.428345,610.211426 
	C488.929230,610.318848 488.057129,611.579651 487.855133,612.916321 
	C487.324707,616.425964 486.539490,620.035522 489.049744,623.324707 
	C494.550690,621.693481 492.360474,617.428650 492.667236,613.338440 
M520.800720,541.673889 
	C520.388428,538.778870 520.442261,534.727600 516.264587,535.667603 
	C512.662720,536.478027 514.776489,539.981689 515.084290,542.411560 
	C515.104980,542.574707 515.158264,542.734009 515.173767,542.897278 
	C515.376343,545.039795 515.980164,547.006348 518.631836,546.711548 
	C521.143860,546.432312 520.905518,544.324280 520.800720,541.673889 
M497.840454,584.648865 
	C494.867920,587.796204 496.052460,591.473694 496.987122,594.819092 
	C497.541534,596.803467 499.664307,597.362366 501.283844,595.450806 
	C503.138031,593.262146 501.235992,585.955200 497.840454,584.648865 
M492.340210,549.657715 
	C493.507141,552.378662 491.676453,557.964417 496.258087,557.229431 
	C500.860107,556.491150 497.641083,551.721863 497.688019,548.709839 
	C497.709503,547.333496 497.396271,545.873779 495.585785,545.924805 
	C493.767059,545.976135 492.325073,546.702881 492.340210,549.657715 
M499.834473,573.197571 
	C499.343536,570.573059 500.657410,567.401917 497.631836,565.554749 
	C496.880371,565.095947 495.865051,565.377014 495.369415,566.046326 
	C493.492615,568.580811 494.314362,571.434509 494.780701,574.146484 
	C495.006195,575.457825 494.972687,577.469727 497.059998,577.433533 
	C499.109344,577.398071 499.772461,575.859436 499.834473,573.197571 
M486.534302,592.660950 
	C486.473328,595.274658 486.277557,597.894287 486.390594,600.500427 
	C486.496582,602.943298 487.955658,603.691833 490.077454,602.518677 
	C492.265259,601.308960 491.960388,599.014832 491.435333,597.246704 
	C490.788940,595.070129 491.818695,592.068848 488.906219,590.897827 
	C488.458435,590.717834 487.577545,591.614990 486.534302,592.660950 
M503.239532,530.935120 
	C501.576599,533.605347 501.934509,536.358154 503.315063,538.902710 
	C504.435638,540.968140 506.329742,541.722046 508.073242,539.587708 
	C510.529205,536.581299 507.940338,531.192200 503.239532,530.935120 
M513.996704,515.972839 
	C510.658569,519.141907 512.501892,522.495972 514.111511,525.421387 
	C515.059998,527.145264 517.243286,527.411438 518.428406,525.060852 
	C519.976257,521.990967 518.068054,517.439453 513.996704,515.972839 
M535.591980,569.998108 
	C535.578857,568.853210 535.727600,567.677551 535.516785,566.570312 
	C535.147522,564.630676 534.667297,562.579773 532.199829,562.292542 
	C530.661011,562.113342 529.650696,563.023560 529.490662,564.518677 
	C529.191040,567.317932 529.021851,570.238037 531.608521,572.151123 
	C533.295715,573.398926 534.689392,572.644348 535.591980,569.998108 
M547.457336,686.713501 
	C546.197815,683.797363 547.891846,678.981384 541.668823,678.550842 
	C543.247803,683.100586 540.097717,688.825806 546.409241,691.347229 
	C548.093872,690.123596 547.491760,688.719055 547.457336,686.713501 
M544.793762,705.544128 
	C545.437622,707.852722 545.750366,710.518494 549.259216,709.911560 
	C550.248779,702.271057 549.193176,699.386353 544.920532,698.027100 
	C543.842712,700.233215 544.442749,702.518372 544.793762,705.544128 
M544.243896,662.608643 
	C543.601318,660.447571 542.552185,658.700745 540.021545,658.374939 
	C539.922363,670.554626 539.922363,670.554626 545.337952,671.751160 
	C545.036438,668.856567 544.749695,666.103577 544.243896,662.608643 
M535.672485,619.493652 
	C535.183777,628.967407 536.062805,631.172546 541.018860,631.468201 
	C540.090942,626.984436 542.627014,621.517029 535.672485,619.493652 
M533.292603,550.645325 
	C534.078186,548.202026 533.127136,546.027832 532.035400,543.987732 
	C531.152344,542.337524 529.287659,541.435669 527.843445,542.672668 
	C525.181641,544.952454 527.281189,547.652466 528.195007,549.909058 
	C528.976685,551.839355 530.488220,554.048767 533.292603,550.645325 
M533.635681,603.784302 
	C534.388489,607.441711 532.982849,612.447327 539.243774,612.857361 
	C540.005188,609.691772 539.143311,606.743591 538.370605,603.977356 
	C537.720825,601.650879 535.958923,599.671021 533.635681,603.784302 
M536.032043,582.903442 
	C534.770996,581.755371 533.337097,581.213379 532.262146,582.899414 
	C530.642639,585.439697 532.185425,588.044189 532.592773,590.581848 
	C532.786011,591.785522 533.937134,592.502869 535.203735,592.465637 
	C536.867859,592.416687 537.325562,591.127075 537.553894,589.754150 
	C537.922729,587.536133 537.168457,585.510315 536.032043,582.903442 
M538.125244,646.385742 
	C538.373291,648.143799 537.972351,650.179199 540.078613,651.160706 
	C540.887207,651.537415 541.865540,651.609741 542.293274,650.756958 
	C543.573730,648.204163 542.776855,645.529358 542.325195,642.959412 
	C541.949219,640.820129 540.551697,639.597778 537.812683,639.916809 
	C537.904602,641.966797 537.985535,643.772217 538.125244,646.385742 
M520.237610,483.716248 
	C520.263367,484.547638 520.279724,485.379425 520.316589,486.210297 
	C520.405457,488.214813 521.014526,490.120789 523.345886,489.958099 
	C525.681519,489.795105 526.043640,487.748993 525.838989,485.811768 
	C525.701782,484.513763 525.370300,483.189026 524.857605,481.991058 
	C524.333862,480.767517 523.462402,479.537964 521.889038,479.784607 
	C520.111572,480.063202 520.304871,481.635315 520.237610,483.716248 
M503.149200,399.598907 
	C500.905365,400.988770 498.342285,402.238617 499.480835,405.623383 
	C500.354218,408.219879 502.230591,409.442505 505.365112,409.365814 
	C505.038086,405.843842 505.973572,402.426666 503.149200,399.598907 
M487.899170,582.839478 
	C491.337799,579.259766 489.609070,575.916992 487.934784,572.157837 
	C484.169434,575.414062 484.090668,579.972961 487.899170,582.839478 
M496.184875,473.572449 
	C496.293182,474.547150 496.247894,475.571472 496.543335,476.485718 
	C497.077667,478.139343 498.104706,479.497803 500.073730,479.224457 
	C501.494781,479.027222 501.680511,477.736786 501.623169,476.546326 
	C501.512146,474.242096 501.441925,471.707672 499.062164,470.587585 
	C497.351257,469.782257 496.333588,470.999634 496.184875,473.572449 
M468.170044,708.270325 
	C468.302216,709.865479 467.427307,711.507141 468.663055,713.675964 
	C473.547150,710.029236 471.143829,705.180420 472.217529,700.634399 
	C467.757965,701.938232 468.520447,704.963257 468.170044,708.270325 
M512.705566,410.711914 
	C513.704651,412.827789 515.102417,414.197296 517.985840,413.357330 
	C517.864441,410.406555 519.179626,406.610352 515.146912,405.611633 
	C511.903503,404.808350 512.421204,407.903900 512.705566,410.711914 
M490.696625,529.884521 
	C490.921906,531.655640 491.090973,533.436279 491.387268,535.195435 
	C491.725555,537.204102 493.202728,537.720276 494.584442,536.622864 
	C496.930969,534.759216 495.962738,532.007935 495.241730,529.839050 
	C494.541107,527.731384 492.680084,527.579041 490.696625,529.884521 
M529.569824,530.497437 
	C531.030090,528.332214 531.029480,526.128540 529.565735,524.004883 
	C528.880432,523.010620 527.826660,522.458252 526.544678,522.725586 
	C525.657837,522.910522 524.804565,523.568420 524.953918,524.373840 
	C525.450256,527.050781 524.687134,530.645813 529.569824,530.497437 
M527.788635,507.490540 
	C527.061157,504.980255 526.293213,502.506165 523.139954,501.914734 
	C521.427551,505.165253 523.200073,507.295532 524.955872,509.224792 
	C526.364746,510.772827 527.583069,510.451080 527.788635,507.490540 
M479.392120,626.885193 
	C479.782959,629.146606 481.239899,630.295776 482.258575,627.791565 
	C483.326050,625.167236 483.652222,621.905884 481.299774,618.637146 
	C479.955078,621.386169 479.693939,623.786133 479.392120,626.885193 
M493.511414,357.972504 
	C494.920044,360.338257 496.990204,360.354645 500.173126,359.828888 
	C497.230103,357.496857 496.452942,354.725128 495.630310,351.642883 
	C493.393829,353.354706 493.154083,355.227020 493.511414,357.972504 
M470.550293,688.082520 
	C470.380402,690.042358 470.210480,692.002136 469.946808,695.043579 
	C473.212402,690.965637 473.470886,688.697815 471.973206,682.901123 
	C471.518066,684.545105 471.127533,685.955627 470.550293,688.082520 
M489.891479,514.605530 
	C490.752014,515.872864 491.595398,517.190002 493.432770,515.820679 
	C493.822632,513.669739 493.524292,511.411407 491.303101,510.921722 
	C489.143921,510.445770 489.268005,512.437866 489.891479,514.605530 
M497.751587,447.520813 
	C496.870697,445.264435 495.768494,446.548645 494.905243,447.446594 
	C493.917816,448.473663 493.894897,449.880920 494.354492,451.119965 
	C494.777283,452.259583 496.129120,452.122681 496.893494,451.868805 
	C498.921783,451.195190 497.711853,449.429413 497.751587,447.520813 
z"/>
<path fill="#000000" opacity="1.000000" stroke="none" 
	d="
M962.617065,962.183899 
	C971.665527,965.040100 981.092285,962.296875 989.961548,965.947754 
	C984.467896,966.691406 981.778015,973.066589 975.649902,972.318848 
	C972.790222,971.969910 971.368286,973.252380 971.343567,976.309570 
	C971.300537,981.629395 970.616028,986.951172 970.508118,992.234558 
	C970.422180,996.441040 969.414185,998.524658 965.205322,998.441895 
	C965.349121,1004.308228 959.852295,1008.518066 954.628784,1006.612549 
	C947.361145,1003.961365 940.348083,1005.020447 932.894714,1007.441284 
	C927.569336,1001.928223 921.608826,1006.414429 915.983582,1007.679077 
	C910.368042,1008.941467 908.275452,1004.616882 905.296326,1002.112427 
	C903.258057,1000.398926 902.064087,997.138672 904.777466,994.159973 
	C906.530396,992.235596 905.538757,990.493958 903.201172,990.318665 
	C899.232910,990.021118 898.622070,987.671265 899.005798,984.502136 
	C899.381226,981.401428 897.916931,977.925659 900.960205,974.783264 
	C902.893921,978.097473 902.249817,981.112061 901.571594,984.124268 
	C901.227661,985.651978 900.854492,987.325256 903.062378,987.554565 
	C904.983704,987.754211 905.620789,986.291138 905.702209,984.645569 
	C905.800842,982.651855 905.992065,980.630371 905.783936,978.658875 
	C904.251648,964.143616 914.997925,962.172485 925.365356,962.337463 
	C934.766602,962.486938 944.198608,964.459595 953.460571,961.138489 
	C956.504089,960.047119 959.270569,962.226379 962.617065,962.183899 
M959.953796,994.237854 
	C961.097717,994.436951 962.234802,994.728638 963.387146,994.812683 
	C964.960449,994.927368 966.622192,994.751648 966.549316,992.657593 
	C966.480103,990.668823 964.941528,990.397461 963.295471,990.571594 
	C962.635254,990.641479 961.973206,990.819397 961.318604,990.791931 
	C959.784485,990.727417 958.210144,990.529846 957.895569,988.625610 
	C957.567017,986.637573 958.644104,985.551880 960.484070,985.004028 
	C961.744263,984.628723 963.661194,985.367126 963.943481,983.236145 
	C963.533997,982.146118 962.647217,982.141418 961.843811,982.077026 
	C959.694763,981.904968 957.660095,981.464233 957.998352,978.695312 
	C958.293091,976.282410 960.388123,976.356689 962.217041,976.135193 
	C963.681458,975.957886 965.629272,977.107361 966.507568,974.544067 
	C964.962402,972.364746 962.569519,973.303040 960.640442,973.311401 
	C957.427002,973.325378 958.456604,969.378906 956.303894,968.840210 
	C953.708801,969.054443 954.750671,972.282471 952.614380,972.644836 
	C950.154419,972.551514 951.401733,968.707336 948.567139,968.820435 
	C946.432861,970.001892 946.028381,972.138977 946.533875,974.291260 
	C947.028442,976.397766 949.132874,975.912292 950.720398,976.102478 
	C952.428162,976.307068 954.097717,976.538696 954.249268,978.787109 
	C954.414307,981.238098 952.884338,981.881409 950.840271,982.103027 
	C949.779602,982.218018 948.370789,981.961609 948.268982,983.712952 
	C948.874573,985.135864 950.198364,984.806274 951.281189,984.871155 
	C953.459473,985.001709 954.798462,985.973328 954.685852,988.240784 
	C954.577881,990.414001 952.905579,990.816772 951.137329,990.879883 
	C950.312805,990.909302 949.482300,990.795349 948.655640,990.731140 
	C947.295898,990.625610 945.706909,990.468262 945.568054,992.289246 
	C945.409363,994.370605 947.119385,994.695251 948.667114,994.508911 
	C952.137207,994.091125 955.598328,993.792419 959.953796,994.237854 
M931.110962,991.761719 
	C929.186279,985.771240 927.262817,979.780457 925.336243,973.790588 
	C924.700806,971.815063 923.889404,970.091187 921.364197,970.028198 
	C918.910889,969.966980 917.834045,971.348877 917.165527,973.457703 
	C915.412903,978.986328 913.578064,984.488831 911.800842,990.009766 
	C911.401367,991.250671 910.721741,992.749756 912.432556,993.440369 
	C914.145264,994.131714 914.899170,992.667480 915.204224,991.399841 
	C916.014526,988.032593 918.419800,987.737793 921.280029,987.655273 
	C924.343079,987.566833 926.282898,988.525024 927.238953,991.629333 
	C927.926636,993.862305 929.258423,995.424438 931.110962,991.761719 
M939.668579,978.606018 
	C939.642456,976.292908 939.685730,973.976074 939.562866,971.668152 
	C939.494263,970.378784 938.752319,969.467285 937.319519,969.585449 
	C936.121338,969.684326 935.528015,970.591431 935.674866,971.654358 
	C936.586487,978.257385 935.602661,984.849060 935.659241,991.444153 
	C935.669617,992.653564 935.900818,993.920349 937.359131,994.057007 
	C939.113037,994.221313 939.603638,992.910095 939.623840,991.472290 
	C939.679443,987.506042 939.661865,983.538635 939.668579,978.606018 
z"/>
<path fill="#000000" opacity="1.000000" stroke="none" 
	d="
M980.220337,979.612854 
	C978.430420,979.596252 976.879395,979.908386 975.731934,978.152161 
	C976.806641,974.980957 979.688354,975.360718 981.675903,976.173035 
	C985.385559,977.689209 985.065979,981.163208 984.704712,984.711975 
	C982.100525,983.674744 983.778870,979.692932 980.220337,979.612854 
z"/>
<path fill="#000000" opacity="1.000000" stroke="none" 
	d="
M976.556274,994.100342 
	C974.650513,996.011353 974.057739,994.717163 973.979553,993.242615 
	C973.822388,990.280579 974.382812,987.445496 976.537781,984.285278 
	C980.322571,987.802429 976.319946,990.885681 976.556274,994.100342 
z"/>
<path fill="#000000" opacity="1.000000" stroke="none" 
	d="
M920.531128,984.078064 
	C916.682800,981.359314 919.898438,979.249817 920.510376,976.541443 
	C923.382385,977.827881 923.622864,980.230286 923.789612,982.360352 
	C923.927124,984.116638 922.233643,984.119507 920.531128,984.078064 
z"/>
</svg>