<?xml version="1.0" standalone="no"?>
<!DOCTYPE svg PUBLIC "-//W3C//DTD SVG 20010904//EN"
 "http://www.w3.org/TR/2001/REC-SVG-20010904/DTD/svg10.dtd">
<svg version="1.0" xmlns="http://www.w3.org/2000/svg"
 width="678.000000pt" height="1018.000000pt" viewBox="0 0 678.000000 1018.000000"
 preserveAspectRatio="xMidYMid meet">

<g transform="translate(0.000000,1018.000000) scale(0.100000,-0.100000)"
fill="#000000" stroke="none">
<path d="M3452 9458 c-9 -9 -12 -78 -12 -249 l0 -237 -30 -7 c-16 -4 -39 -18
-50 -32 -19 -24 -20 -40 -20 -244 l0 -218 -30 -16 c-60 -31 -67 -91 -16 -139
39 -36 50 -87 40 -176 l-6 -56 -62 8 c-117 17 -261 -14 -326 -69 -49 -43 -49
-33 -10 -342 69 -552 124 -1203 151 -1766 13 -280 7 -1093 -10 -1265 -5 -58
-15 -168 -21 -245 -29 -367 -86 -813 -199 -1555 -36 -235 -197 -1168 -215
-1245 -5 -19 -12 -20 -163 -17 -235 5 -264 -9 -273 -131 l-5 -71 -90 -1 c-104
-2 -120 -7 -140 -46 -30 -57 -15 -118 45 -174 l31 -30 1426 -3 c1424 -2 1425
-2 1459 18 71 44 100 141 58 197 -26 34 -49 41 -146 42 l-78 1 0 60 c0 70 -20
117 -53 125 -12 3 -44 6 -71 7 l-49 3 -3 134 c-5 191 9 181 -251 181 -161 0
-203 3 -203 13 0 7 -18 137 -40 288 -71 495 -144 1056 -180 1394 -11 105 -24
231 -30 280 -38 348 -66 765 -76 1100 -12 469 32 1227 111 1885 42 347 77 620
95 736 24 157 25 188 4 219 -34 52 -216 155 -344 195 l-55 18 -3 125 -3 126
30 22 c63 46 65 118 6 146 l-35 17 0 213 c0 237 -6 266 -61 285 l-29 10 0 237
c0 243 -3 261 -40 261 -9 0 -21 -5 -28 -12z m76 -570 c9 -9 12 -72 12 -221 0
-187 -2 -208 -16 -203 -9 3 -36 6 -60 6 l-44 0 0 203 c0 145 3 206 12 215 7 7
28 12 48 12 20 0 41 -5 48 -12z m82 -509 c0 -6 -16 -25 -35 -43 l-35 -33 0
-127 c0 -126 0 -126 -22 -121 -13 3 -40 9 -62 13 l-39 7 2 101 c3 128 -2 146
-45 169 -19 10 -34 24 -34 32 0 10 29 13 135 13 89 0 135 -4 135 -11z m-386
-448 c24 -130 27 -121 -56 -134 -30 -4 -28 -10 -48 113 -6 36 -14 75 -17 88
-5 21 -2 22 50 22 l54 0 17 -89z m156 74 c5 -3 10 -40 10 -81 0 -43 4 -74 10
-74 6 0 10 -16 10 -35 0 -39 -2 -40 -65 -24 -39 10 -45 15 -50 43 -3 17 -12
66 -19 110 l-14 79 54 -6 c29 -3 58 -8 64 -12z m-321 -57 c19 -97 32 -180 29
-182 -2 -2 -20 -15 -41 -31 -21 -15 -39 -26 -41 -24 -5 7 -38 250 -35 253 8 7
64 35 71 36 4 0 11 -24 17 -52z m501 -101 c3 -70 1 -127 -3 -127 -4 0 -25 9
-47 20 -38 19 -38 21 -44 87 -4 38 -9 91 -11 119 l-5 52 53 -12 52 -11 5 -128z
m139 77 l34 -14 -6 -68 c-4 -37 -7 -95 -7 -129 l0 -62 -50 22 -50 22 0 128 0
128 23 -7 c12 -3 37 -13 56 -20z m131 -59 c35 -18 33 -6 19 -161 l-12 -121
-34 21 -34 21 5 65 c3 36 6 93 6 128 0 67 4 71 50 47z m127 -124 c-3 -20 -11
-78 -18 -128 -8 -51 -16 -93 -20 -93 -4 0 -12 7 -19 15 -9 11 -9 42 1 144 l13
129 24 -16 c20 -13 23 -22 19 -51z m-713 -8 c2 -10 7 -47 11 -83 4 -36 9 -73
11 -82 5 -15 -2 -18 -44 -18 l-49 0 -7 63 c-4 34 -10 74 -13 88 -4 22 0 28 23
37 43 16 62 14 68 -5z m128 -13 l46 -14 7 -93 c4 -52 6 -96 3 -98 -4 -4 -89
15 -97 22 -11 8 -26 203 -16 200 5 -2 31 -10 57 -17z m-256 -123 l6 -63 -41
-27 c-22 -15 -43 -27 -46 -27 -3 0 -5 19 -5 43 -1 23 -5 61 -9 85 -8 42 -8 43
33 67 40 24 41 24 48 5 4 -11 10 -49 14 -83z m419 69 l35 -15 0 -100 c0 -56
-2 -101 -5 -101 -2 0 -20 7 -39 16 -39 19 -46 40 -46 145 0 41 4 69 10 69 6 0
26 -7 45 -14z m178 -169 c-3 -51 -5 -95 -6 -99 -1 -3 -21 3 -44 14 l-43 20 0
99 0 98 49 -20 48 -21 -4 -91z m120 8 c-1 -5 -4 -47 -8 -93 l-7 -82 -29 17
c-25 15 -29 23 -29 64 0 25 3 67 6 93 l7 46 30 -17 c17 -10 30 -22 30 -28z
m-562 -23 c4 -4 12 -61 19 -127 6 -66 14 -130 17 -142 5 -21 2 -23 -41 -23
-37 0 -46 3 -46 18 0 9 -9 77 -19 150 -10 72 -15 135 -12 138 7 7 73 -5 82
-14z m-122 -158 c10 -76 18 -139 17 -139 0 -1 -20 -13 -43 -28 l-42 -27 -5 33
c-15 105 -27 239 -22 252 5 14 67 57 73 51 2 -1 12 -65 22 -142z m245 131 c30
-6 36 -12 41 -39 4 -27 22 -266 19 -266 0 0 -21 7 -47 16 -44 15 -47 18 -47
52 0 21 -7 80 -15 132 -18 119 -18 123 -1 117 8 -3 31 -9 50 -12z m511 5 c11
-18 -6 -181 -19 -177 -15 5 -19 49 -11 124 6 60 16 76 30 53z m-339 -70 c2 0
4 -65 4 -144 l0 -144 -29 11 c-29 11 -30 12 -35 106 -4 53 -9 120 -12 149 l-6
53 37 -16 c21 -8 39 -15 41 -15z m134 -109 c0 -25 -3 -89 -6 -142 l-7 -96 -28
16 -29 16 0 142 0 143 35 -17 c32 -15 35 -20 35 -62z m95 -9 c19 -16 20 -23
11 -154 l-9 -137 -23 16 c-23 15 -24 21 -24 123 0 107 7 170 19 170 3 -1 15
-8 26 -18z m70 -207 l-14 -110 5 129 c3 72 8 135 12 140 13 20 12 -49 -3 -159z
m-559 57 c10 -7 39 -180 31 -188 -2 -3 -21 -1 -43 4 l-38 8 -12 74 c-18 112
-19 110 19 110 17 0 37 -4 43 -8z m-121 -93 c20 -112 20 -111 -23 -136 l-38
-21 -15 100 -15 100 35 24 c19 13 36 22 38 20 2 -2 10 -41 18 -87z m268 51 c8
-7 30 -180 24 -186 -2 -2 -18 1 -35 7 -20 7 -32 18 -32 29 0 10 -4 20 -10 22
-5 2 -13 38 -16 80 l-7 78 34 -11 c19 -7 37 -15 42 -19z m119 -134 c6 -97 1
-114 -24 -94 -11 10 -17 39 -22 110 l-6 98 24 -11 c22 -10 24 -18 28 -103z
m99 43 c18 -9 20 -20 18 -105 -1 -66 -5 -93 -13 -89 -6 3 -19 8 -28 11 -15 5
-18 20 -18 100 0 97 3 104 41 83z m104 -65 c23 -15 25 -22 25 -105 0 -49 -2
-89 -5 -89 -3 0 -17 7 -30 16 -23 15 -25 22 -25 105 0 49 2 89 5 89 3 0 17 -7
30 -16z m-455 -53 c24 -6 26 -13 40 -123 l16 -115 -36 14 c-19 8 -38 18 -43
22 -4 4 -13 53 -20 109 -15 112 -16 109 43 93z m-97 -126 l6 -61 -34 4 c-36 4
-39 9 -50 79 -6 40 -5 43 27 63 l33 20 6 -23 c3 -12 9 -49 12 -82z m254 71
c11 -11 47 -226 38 -234 -2 -2 -19 4 -37 15 -32 18 -34 23 -45 109 -6 49 -14
101 -17 116 -5 26 -4 27 22 16 15 -7 32 -16 39 -22z m89 -132 c2 -107 3 -111
-19 69 -4 26 -2 37 6 34 8 -2 12 -37 13 -103z m114 -70 l0 -114 -25 12 c-25
11 -25 13 -25 124 l0 114 25 -12 c25 -11 25 -13 25 -124z m101 50 c25 -13 29
-20 25 -42 -3 -15 -8 -62 -12 -104 l-6 -77 -30 15 c-20 10 -28 20 -24 30 3 9
6 56 6 105 0 49 2 89 5 89 4 0 20 -7 36 -16z m-647 -158 c4 -58 3 -71 -4 -46
-5 19 -11 71 -14 115 -4 57 -3 70 3 46 5 -19 12 -71 15 -115z m82 118 c18 -5
23 -18 33 -87 15 -109 16 -104 -22 -99 l-33 4 -12 82 c-17 117 -18 114 34 100z
m161 -55 c7 -6 13 -31 13 -54 0 -24 4 -45 9 -47 4 -1 10 -22 13 -44 l6 -42
-32 10 c-17 5 -38 12 -48 15 -17 5 -22 25 -34 127 l-7 59 33 -7 c18 -3 39 -11
47 -17z m127 -54 l43 -25 11 -83 c6 -45 9 -83 7 -85 -3 -3 -84 36 -86 41 -4
17 -24 177 -21 177 2 0 23 -11 46 -25z m176 -95 c10 -19 14 -160 5 -160 -4 0
-19 7 -35 15 -24 12 -30 22 -30 48 0 17 -3 56 -6 84 l-7 53 32 -11 c17 -6 36
-19 41 -29z m101 -121 c-3 -83 -6 -90 -26 -82 -12 4 -15 25 -15 95 l0 90 22
-14 c21 -14 22 -22 19 -89z m-607 -156 c9 -82 18 -169 21 -195 5 -39 3 -48
-10 -48 -9 0 -18 6 -21 13 -7 21 -31 451 -25 462 7 12 14 -38 35 -232z m72
231 c19 -5 24 -19 38 -111 9 -58 15 -108 12 -110 -3 -3 -17 -1 -33 4 -30 10
-39 39 -57 171 -7 55 -4 58 40 46z m136 -44 l45 -20 12 -106 c7 -58 11 -108 9
-110 -4 -4 -67 17 -84 28 -6 4 -14 40 -18 80 -4 40 -10 90 -13 111 -3 20 -3
37 -1 37 3 0 26 -9 50 -20z m152 -57 c39 -18 36 -9 53 -180 5 -46 8 -83 6 -83
-1 0 -68 37 -81 45 -1 1 -7 42 -12 91 -6 49 -12 101 -15 117 -5 31 2 33 49 10z
m135 -67 c27 -14 28 -18 35 -117 3 -56 9 -113 13 -127 l6 -26 -34 21 c-18 12
-36 33 -40 46 -10 36 -22 217 -14 217 3 0 19 -7 34 -14z m100 -89 c-1 -18 -5
-45 -9 -62 -6 -23 -8 -14 -9 38 -1 43 3 66 9 62 6 -3 9 -21 9 -38z m-496 -21
c32 -13 33 -14 46 -115 7 -56 10 -105 7 -108 -3 -4 -21 1 -40 9 -33 16 -33 18
-40 100 -4 46 -10 93 -13 106 -6 26 -3 26 40 8z m181 -76 c6 -7 37 -210 31
-210 -1 0 -22 7 -48 16 -50 17 -52 21 -62 109 -3 33 -8 74 -11 92 l-6 31 44
-15 c23 -8 47 -18 52 -23z m111 -57 c23 -11 35 -24 35 -37 1 -12 5 -55 10 -96
4 -41 7 -76 5 -78 -2 -2 -21 6 -44 18 -36 18 -41 25 -41 54 0 18 -3 61 -6 95
-4 33 -4 61 -1 61 4 0 22 -8 42 -17z m167 -186 c3 -51 4 -94 2 -95 -1 -2 -16
6 -33 19 -32 23 -36 39 -44 160 l-3 57 37 -25 37 -24 4 -92z m-528 65 c5 -8
26 -165 23 -168 -1 -1 -14 0 -28 3 -25 5 -27 9 -32 76 -2 39 -2 77 0 84 6 15
29 17 37 5z m100 -26 c31 -13 33 -18 44 -84 19 -114 19 -113 -28 -95 -29 12
-40 22 -41 37 0 12 -3 51 -8 89 -4 37 -6 67 -4 67 2 0 18 -6 37 -14z m146 -52
c44 -18 46 -22 54 -127 5 -62 4 -68 -12 -62 -9 4 -29 11 -43 17 -22 7 -28 17
-33 55 -3 25 -6 59 -6 74 0 16 -4 29 -10 29 -5 0 -10 7 -10 15 0 19 10 19 60
-1z m137 -64 c34 -15 36 -20 49 -132 3 -32 4 -58 0 -58 -3 0 -21 8 -40 17 -38
17 -35 11 -50 146 -3 27 -2 47 2 45 4 -3 21 -11 39 -18z m117 -60 c25 -9 26
-12 26 -102 0 -91 0 -92 -19 -73 -14 14 -22 44 -28 103 -5 45 -8 82 -7 82 2 0
14 -4 28 -10z m-470 -42 c3 -13 8 -53 11 -89 l6 -65 -35 4 c-34 4 -36 6 -36
42 0 20 -3 58 -6 84 l-7 46 31 0 c25 0 33 -5 36 -22z m124 -31 c9 -11 33 -168
27 -175 -5 -6 -74 32 -79 44 -3 7 -8 47 -12 89 l-7 75 31 -11 c17 -6 35 -16
40 -22z m133 -49 c25 -8 27 -15 36 -96 6 -48 9 -88 7 -90 -5 -7 -85 39 -89 51
-2 7 -6 45 -10 86 -6 69 -5 73 12 66 10 -4 30 -11 44 -17z m129 -63 c22 -12
26 -23 35 -99 6 -47 10 -86 8 -86 -1 0 -18 7 -37 16 -36 18 -38 23 -52 132 -7
57 0 63 46 37z m107 -141 c3 -103 -11 -87 -20 24 -4 55 -3 72 6 69 8 -2 13
-34 14 -93z m-461 -4 c6 -41 11 -76 10 -76 0 -1 -17 -4 -37 -8 l-36 -6 -6 52
c-4 29 -7 68 -7 86 0 31 2 33 32 30 32 -3 33 -4 44 -78z m129 16 c7 -7 17 -45
22 -84 l9 -71 -25 6 c-59 14 -81 32 -81 67 0 18 -3 54 -6 80 l-7 46 38 -16
c21 -8 44 -21 50 -28z m150 -106 c4 -25 9 -57 11 -72 6 -32 -4 -35 -45 -13
-34 17 -37 24 -46 108 l-7 67 41 -23 c36 -19 41 -27 46 -67z m90 3 c38 -18 38
-19 52 -125 9 -65 8 -66 -12 -56 -50 26 -66 54 -74 127 -4 39 -6 71 -4 71 1 0
18 -8 38 -17z m92 -80 c-3 -10 -5 -4 -5 12 0 17 2 24 5 18 2 -7 2 -21 0 -30z
m-441 -43 c3 -38 5 -73 4 -77 -2 -5 -15 -13 -30 -20 -27 -11 -28 -10 -34 25
-10 63 -7 130 7 135 39 16 46 8 53 -63z m137 8 c10 -12 17 -37 17 -63 0 -23 3
-57 6 -74 l6 -31 -49 21 c-50 20 -51 21 -57 72 -3 29 -6 65 -6 80 0 27 2 28
33 22 17 -4 40 -16 50 -27z m-253 -162 c-7 -7 -10 13 -10 65 0 98 14 112 18
18 2 -41 -2 -77 -8 -83z m370 107 c20 -18 27 -39 36 -98 5 -41 9 -75 7 -75 -2
0 -21 9 -42 20 -37 19 -39 21 -50 95 -6 42 -11 80 -11 85 0 14 31 0 60 -27z
m124 -59 c36 -18 38 -23 52 -133 l7 -54 -44 26 c-46 28 -56 53 -58 145 -1 37
-2 37 43 16z m-360 -61 c3 -16 8 -53 11 -83 7 -54 6 -55 -24 -67 -17 -6 -33
-8 -36 -3 -3 5 -8 41 -11 82 -6 71 -6 74 17 85 35 17 37 16 43 -14z m128 -39
c22 -11 28 -23 33 -61 3 -27 8 -63 11 -80 l5 -32 -53 24 c-49 23 -53 27 -60
67 -3 24 -7 58 -7 76 -1 30 1 33 22 26 12 -3 34 -13 49 -20z m-237 -56 c3 -24
9 -57 11 -73 5 -25 0 -34 -27 -54 l-32 -24 6 87 c3 47 9 91 12 96 13 21 23 9
30 -32z m398 -26 c3 -4 9 -40 13 -81 l7 -73 -41 21 c-22 11 -43 25 -46 30 -3
4 -9 41 -12 81 l-7 72 41 -21 c22 -11 43 -24 45 -29z m96 -41 c38 -20 38 -21
47 -100 l10 -79 -39 19 c-21 11 -40 25 -43 32 -6 17 -21 147 -17 147 2 0 21
-9 42 -19z m-356 -122 l6 -65 -31 -12 c-18 -6 -33 -10 -36 -8 -2 2 -6 38 -9
79 l-6 74 29 10 c36 13 40 7 47 -78z m97 40 c46 -20 49 -24 54 -63 12 -99 13
-107 2 -103 -99 40 -95 37 -100 80 -11 88 -12 107 -9 107 3 0 26 -9 53 -21z
m-216 -66 c12 -75 8 -98 -23 -120 l-28 -22 -6 72 c-6 65 -5 74 14 90 30 24 36
22 43 -20z m366 -3 c22 -11 40 -28 41 -38 0 -9 4 -43 8 -74 4 -32 6 -58 4 -58
-9 0 -82 40 -86 47 -8 14 -20 143 -13 143 4 0 25 -9 46 -20z m136 -69 c27 -16
32 -27 37 -72 4 -30 7 -64 7 -77 0 -22 -1 -22 -30 -7 -16 8 -33 23 -38 33 -13
23 -25 142 -15 142 4 0 22 -9 39 -19z m-362 -112 l6 -67 -31 -11 c-18 -6 -35
-9 -38 -6 -7 8 -19 127 -14 142 7 18 57 33 64 19 4 -6 9 -41 13 -77z m100 39
c48 -23 50 -28 62 -121 l7 -59 -50 26 c-55 27 -63 42 -63 118 0 28 -5 48 -12
51 -10 4 -10 6 -1 6 7 1 33 -9 57 -21z m-219 -94 c4 -41 5 -76 3 -77 -1 -1
-18 -12 -35 -25 l-33 -23 0 85 c0 76 2 86 22 100 12 9 25 16 29 16 4 0 10 -34
14 -76z m365 26 c42 -22 45 -28 54 -123 l6 -58 -38 20 c-21 11 -43 25 -49 33
-10 12 -25 148 -16 148 2 0 22 -9 43 -20z m174 -164 c5 -37 6 -69 4 -71 -3 -3
-19 2 -36 10 -24 12 -32 24 -36 55 -3 22 -9 58 -12 81 l-6 41 38 -25 c37 -23
39 -28 48 -91z m-648 -21 c-10 -19 -11 -19 -14 4 -2 13 0 45 4 70 l8 46 6 -50
c3 -27 1 -59 -4 -70z m237 78 c3 -5 8 -40 12 -79 7 -70 6 -71 -18 -78 -14 -3
-32 -8 -40 -12 -23 -8 -31 146 -8 163 18 14 48 17 54 6z m111 -35 c48 -23 49
-25 61 -125 5 -37 3 -53 -4 -53 -21 0 -91 40 -92 53 0 6 -3 42 -8 80 -4 37 -6
67 -4 67 1 0 23 -10 47 -22z m-224 -60 c0 -24 3 -59 6 -78 5 -32 2 -37 -30
-58 l-36 -22 0 52 c0 29 -3 63 -6 74 -4 15 2 29 23 48 15 14 31 26 35 26 5 0
8 -19 8 -42z m409 -34 c5 -5 29 -164 25 -164 -2 0 -23 10 -48 22 -43 20 -44
23 -50 77 -4 31 -9 69 -12 84 l-6 28 44 -22 c23 -12 45 -23 47 -25z m-512 -76
c3 -73 -3 -90 -39 -109 -18 -10 -19 -6 -12 68 6 69 23 113 43 113 3 0 7 -32 8
-72z m632 7 c5 -5 12 -43 15 -83 7 -69 6 -73 -11 -63 -47 26 -53 36 -61 113
l-8 77 29 -17 c16 -9 32 -21 36 -27z m-389 -29 c0 -13 4 -26 9 -28 4 -1 10
-28 13 -59 l4 -57 -45 -5 c-25 -3 -47 -4 -48 -3 -1 1 -5 36 -9 77 l-7 76 29
11 c45 16 54 14 54 -12z m154 -83 c12 -68 17 -123 9 -123 -4 0 -26 11 -48 23
-36 20 -41 28 -47 72 -4 28 -9 62 -12 78 l-6 27 49 -25 c37 -18 51 -31 55 -52z
m-274 -44 c0 -67 -1 -70 -32 -89 -18 -11 -35 -20 -38 -20 -3 0 -3 36 0 81 5
73 7 82 30 94 14 7 28 11 32 9 5 -3 8 -36 8 -75z m373 26 l45 -25 9 -78 c6
-42 9 -78 8 -80 -5 -6 -95 51 -96 61 0 7 -3 42 -8 80 -4 37 -6 67 -5 67 1 0
22 -11 47 -25z m-493 -99 c0 -73 0 -74 -36 -101 -19 -15 -37 -25 -38 -24 -2 2
-1 38 1 79 5 71 7 77 37 98 17 12 32 22 33 22 2 0 3 -33 3 -74z m630 30 c22
-12 26 -25 36 -95 6 -45 8 -81 5 -81 -3 0 -20 13 -38 28 -27 24 -32 35 -38 95
-4 37 -3 67 2 67 4 -1 19 -7 33 -14z m-365 -43 c3 -10 9 -46 12 -80 5 -58 4
-63 -14 -63 -11 0 -35 -3 -52 -6 l-31 -6 0 75 c0 62 3 78 18 86 27 16 59 13
67 -6z m102 -35 c50 -26 50 -28 59 -113 l7 -65 -39 16 c-22 9 -43 20 -49 25
-11 11 -35 159 -26 159 3 0 25 -10 48 -22z m-233 -60 c10 -87 9 -91 -34 -115
-21 -13 -41 -23 -44 -23 -4 0 -6 33 -6 74 0 73 1 74 33 95 17 11 35 21 38 21
3 0 9 -24 13 -52z m426 -42 c0 -6 5 -40 10 -76 5 -35 7 -66 5 -68 -8 -9 -95
51 -96 66 0 10 -4 42 -8 73 l-7 56 48 -20 c26 -11 48 -25 48 -31z m-554 -57
c-1 -71 -1 -72 -38 -96 l-38 -23 0 69 c0 67 1 71 33 95 17 14 35 26 38 26 4 0
6 -32 5 -71z m646 21 c21 -16 28 -34 36 -92 6 -40 10 -74 8 -75 -2 -2 -17 4
-35 14 -32 18 -34 24 -45 126 -6 52 -1 56 36 27z m-359 -99 c4 -40 7 -74 5
-76 -2 -1 -27 -5 -55 -7 l-53 -5 0 74 c0 67 2 74 23 83 12 5 33 8 47 7 23 -2
26 -7 33 -76z m97 22 c44 -25 49 -31 55 -73 3 -25 9 -60 12 -78 l5 -33 -56 28
c-31 15 -56 32 -57 38 0 5 -3 40 -8 78 -4 37 -5 67 -3 67 2 0 26 -12 52 -27z
m-511 -97 c-9 -8 -10 -2 -5 29 3 22 7 47 8 55 1 8 3 -5 5 -29 3 -26 -1 -48 -8
-55z m270 -28 c1 -22 -7 -31 -39 -48 -21 -11 -42 -20 -45 -20 -3 0 -5 33 -5
73 l0 72 38 22 37 21 7 -46 c3 -26 7 -59 7 -74z m391 52 c21 -11 41 -28 44
-37 9 -33 18 -133 12 -133 -16 0 -87 42 -91 53 -7 23 -15 137 -9 137 2 0 22
-9 44 -20z m-562 -172 c-18 -16 -36 -28 -40 -28 -4 0 -8 31 -8 70 0 69 0 69
38 95 l37 25 3 -67 c3 -66 2 -69 -30 -95z m692 107 c32 -16 36 -25 45 -107 7
-64 0 -71 -39 -35 -19 17 -26 38 -33 90 -5 37 -8 67 -6 67 2 0 17 -7 33 -15z
m-366 -37 c3 -13 8 -48 11 -79 l6 -56 -33 1 c-18 0 -45 -4 -60 -8 l-28 -8 0
75 c0 85 8 96 67 97 26 0 34 -5 37 -22z m-421 -66 c-4 -61 -19 -92 -43 -92 -7
0 16 146 25 161 15 23 23 -7 18 -69z m527 27 c47 -20 49 -23 55 -68 3 -25 7
-61 10 -78 l4 -33 -52 26 c-29 15 -53 28 -55 29 -5 4 -19 145 -14 145 2 0 25
-9 52 -21z m-252 -72 l3 -74 -50 -21 -51 -21 0 75 0 75 43 19 c23 11 44 20 47
20 3 0 6 -33 8 -73z m439 -20 c13 -13 36 -137 28 -146 -3 -3 -25 5 -49 16 -42
21 -44 24 -51 75 -3 29 -8 66 -11 81 l-6 28 39 -22 c21 -11 43 -26 50 -32z
m-587 -56 l0 -70 -42 -25 -43 -26 -3 32 c-2 18 -1 52 3 75 5 37 12 46 43 63
20 10 38 19 40 20 1 0 2 -31 2 -69z m685 17 c16 -7 28 -23 34 -47 11 -46 20
-121 15 -121 -3 0 -18 7 -34 15 -24 12 -30 23 -35 62 -3 27 -8 60 -10 76 -5
31 -5 31 30 15z m-376 -55 c6 -21 11 -57 11 -80 0 -35 -3 -40 -19 -36 -10 2
-34 0 -54 -5 -35 -10 -35 -10 -41 27 -17 102 -4 130 61 131 29 0 33 -4 42 -37z
m-444 -40 c-5 -53 -12 -72 -28 -85 -34 -27 -39 -22 -32 30 11 85 16 102 33
112 31 18 34 10 27 -57z m560 15 c25 -12 45 -29 46 -37 0 -9 4 -42 8 -73 4
-32 4 -58 1 -58 -6 0 -92 39 -98 45 -7 7 -17 145 -10 145 4 0 28 -10 53 -22z
m-270 -65 l0 -68 -45 -22 c-25 -12 -48 -22 -52 -23 -5 0 -8 31 -8 70 l0 69 43
20 c23 11 47 20 52 20 6 1 10 -27 10 -66z m478 -88 c10 -84 9 -86 -42 -61 -48
23 -53 33 -64 123 l-6 52 52 -27 c52 -27 52 -27 60 -87z m-631 11 l-4 -74 -50
-21 -51 -21 7 52 c3 29 6 61 6 70 0 11 19 27 48 42 26 14 47 25 47 26 0 0 -1
-33 -3 -74z m738 -11 c0 -2 7 -51 15 -107 8 -57 26 -193 40 -303 14 -110 28
-207 30 -215 3 -8 16 -94 30 -190 44 -311 85 -584 91 -612 5 -27 4 -28 -35
-28 -34 0 -41 4 -45 23 -27 143 -156 1159 -156 1229 0 23 -7 75 -15 113 -8 39
-15 82 -15 98 0 27 0 27 30 12 17 -9 30 -18 30 -20z m-880 -12 c0 -10 -3 -42
-7 -71 -5 -48 -10 -56 -44 -78 -21 -13 -40 -24 -42 -24 -1 0 4 35 12 79 12 65
19 81 40 94 33 21 41 21 41 0z m464 0 c3 -10 6 -38 8 -63 3 -44 2 -45 -42 -62
-78 -29 -80 -28 -80 52 0 64 2 72 23 80 39 15 85 12 91 -7z m119 -43 l45 -20
7 -68 c3 -37 8 -79 10 -94 4 -24 0 -28 -42 -42 -26 -9 -50 -16 -54 -16 -3 0
-10 44 -13 98 -4 53 -10 112 -13 130 -6 38 -1 39 60 12z m-283 -64 l0 -74 -42
-17 c-24 -9 -49 -19 -55 -22 -10 -4 -13 14 -13 70 l0 74 48 21 c26 12 50 21
55 22 4 0 7 -33 7 -74z m459 -10 c22 -12 30 -24 33 -52 4 -38 0 -42 -64 -58
-31 -7 -34 -1 -41 91 -4 50 -3 51 20 42 13 -5 36 -15 52 -23z m-619 -33 c0
-92 -9 -112 -62 -139 -28 -14 -51 -24 -52 -22 -1 2 1 36 4 77 l5 73 45 24 c25
13 48 23 53 24 4 0 7 -17 7 -37z m343 -85 c4 -40 3 -76 -1 -80 -4 -4 -33 -16
-65 -27 l-58 -20 3 81 3 80 45 19 c25 10 50 18 56 18 7 1 14 -28 17 -71z
m-508 -37 c-7 -70 -8 -71 -49 -96 -22 -13 -43 -20 -44 -15 -2 6 2 42 8 80 11
66 14 72 48 89 21 11 39 18 41 16 2 -2 0 -36 -4 -74z m332 -42 l-2 -81 -59
-24 c-33 -13 -60 -23 -62 -21 -1 1 1 37 3 79 l6 77 51 25 c28 14 54 25 58 25
3 1 5 -35 5 -80z m499 -18 l10 -68 -45 -17 c-24 -9 -47 -14 -50 -11 -3 4 -7
37 -9 74 l-4 68 33 10 c55 18 56 17 65 -56z m-674 -67 l-3 -80 -66 -33 -65
-32 6 28 c3 15 8 54 12 86 l6 58 57 28 c31 16 56 28 56 28 0 -1 -1 -38 -3 -83z
m522 54 c3 -18 7 -52 10 -74 l6 -41 -54 -20 -54 -20 -6 36 c-3 20 -6 55 -6 78
0 40 2 42 43 56 57 21 55 21 61 -15z m-155 -144 c1 -41 1 -41 -55 -63 -67 -25
-88 -27 -80 -5 3 9 6 45 6 80 0 54 3 64 18 64 9 0 35 9 57 19 l40 18 7 -36 c4
-20 7 -55 7 -77z m-544 -2 c-4 -38 -10 -73 -13 -78 -8 -12 -102 -67 -106 -62
-2 1 4 40 13 85 16 82 16 83 61 107 24 14 46 23 48 21 2 -2 1 -35 -3 -73z
m355 -41 l0 -78 -61 -27 c-33 -14 -62 -26 -65 -26 -7 0 -4 134 4 147 5 8 90
53 120 62 1 1 2 -34 2 -78z m514 29 c3 -22 9 -57 12 -78 l5 -39 -48 -15 -48
-16 -8 57 c-12 87 -7 102 33 117 49 18 48 18 54 -26z m-151 -27 c2 -5 7 -40
11 -79 l7 -71 -56 -23 c-31 -12 -57 -21 -59 -19 -2 2 -6 40 -10 84 l-7 81 43
16 c49 19 65 21 71 11z m-551 -85 c-2 -40 -5 -78 -7 -85 -3 -9 -125 -73 -139
-73 -1 0 3 36 9 81 l10 80 60 33 c33 19 62 34 65 35 3 0 4 -32 2 -71z m388
-20 c0 -29 3 -69 6 -88 6 -38 13 -33 -128 -86 -16 -6 -18 2 -18 82 l0 89 63
26 c34 15 65 27 70 28 4 1 7 -23 7 -51z m-581 -93 c-6 -44 -16 -83 -22 -87
-98 -61 -119 -70 -114 -52 3 10 11 49 17 86 12 68 12 68 68 102 31 19 58 34
59 33 1 -1 -3 -38 -8 -82z m383 -20 c2 -42 1 -80 0 -86 -4 -11 -142 -82 -148
-76 -2 2 -1 43 2 90 l7 85 60 31 c33 17 63 31 68 31 4 0 9 -34 11 -75z m542
18 c4 -27 9 -62 12 -80 6 -30 3 -33 -44 -57 l-51 -26 -6 58 c-3 31 -8 72 -11
89 -4 29 -1 34 28 47 57 25 65 21 72 -31z m-149 -102 c12 -92 16 -85 -60 -118
l-50 -21 -7 41 c-3 23 -7 65 -7 93 l-1 51 48 21 c26 12 51 20 57 18 5 -1 15
-40 20 -85z m-595 -19 c-4 -43 -10 -83 -14 -90 -4 -7 -39 -28 -77 -48 l-70
-35 6 48 c3 26 8 67 11 91 5 41 8 44 72 77 37 19 69 34 72 35 3 0 3 -35 0 -78z
m419 -85 l1 -68 -76 -34 c-42 -19 -78 -35 -80 -35 -2 0 -4 44 -4 98 l0 97 73
31 72 30 6 -25 c4 -15 7 -56 8 -94z m-626 -14 c-9 -98 -15 -109 -84 -143 -33
-17 -63 -29 -66 -27 -5 6 15 120 27 152 7 19 99 83 122 84 4 1 5 -29 1 -66z
m412 20 c-2 -16 -4 -61 -4 -101 l-1 -73 -76 -35 c-41 -19 -77 -34 -80 -34 -2
0 -4 43 -4 96 l0 95 83 39 c45 21 83 39 84 39 1 1 0 -11 -2 -26z m568 -40 c4
-38 19 -157 33 -266 15 -109 25 -200 22 -202 -2 -3 -27 -2 -56 2 l-51 6 -5 41
c-3 22 -17 130 -31 240 -14 109 -24 199 -23 200 54 26 94 45 99 45 3 1 9 -29
12 -66z m-163 -22 c0 -5 11 -97 25 -205 34 -269 40 -242 -50 -238 l-75 4 0 51
c0 50 -15 248 -24 314 -4 30 -2 32 52 56 64 29 72 31 72 18z m-626 -123 l-7
-95 -82 -41 -83 -41 5 37 c2 20 7 66 11 102 l7 65 75 37 c40 21 76 36 78 34 2
-2 0 -46 -4 -98z m449 -10 c4 -35 9 -118 13 -185 l7 -123 -99 1 c-54 0 -93 3
-86 6 15 6 17 173 2 173 -6 0 -10 26 -10 58 l1 57 77 37 c42 20 80 37 83 37 3
1 9 -27 12 -61z m-675 -113 l-13 -90 -80 -42 c-43 -24 -79 -43 -80 -43 -4 0
36 204 41 209 17 18 139 74 142 66 1 -5 -3 -50 -10 -100z m447 -60 l1 -135
-88 0 -88 0 0 93 0 92 83 42 c45 23 84 42 87 42 3 1 5 -60 5 -134z m1173 -22
l3 -123 -166 0 c-91 0 -165 3 -165 8 0 4 -7 52 -15 107 -8 55 -15 108 -15 118
0 16 13 17 178 15 l177 -3 3 -122z m-1408 -33 l0 -80 -85 0 c-82 0 -85 1 -85
23 0 34 18 52 95 96 39 21 71 39 73 40 1 1 2 -35 2 -79z m-227 -60 c-3 -11
-13 -20 -22 -21 -9 0 -24 -2 -33 -4 -28 -5 -20 8 15 27 42 22 46 22 40 -2z
m1807 -166 l0 -67 -1200 5 c-660 3 -1203 8 -1206 11 -4 3 -3 31 1 62 l6 55
1200 0 1199 0 0 -66z m248 -162 c2 -14 -7 -33 -26 -52 l-30 -30 -1387 1 c-808
0 -1396 4 -1410 9 -27 10 -59 64 -51 86 5 12 213 14 1453 12 l1448 -3 3 -23z"/>
</g>
</svg>
