<svg version="1.1" id="Layer_1" xmlns="http://www.w3.org/2000/svg" xmlns:xlink="http://www.w3.org/1999/xlink" x="0px" y="0px"
	 width="100%" viewBox="0 0 512 512" enable-background="new 0 0 512 512" xml:space="preserve">
<path fill="#000000" opacity="1.000000" stroke="none" 
	d="
M219.000000,513.000000 
	C146.364120,513.000000 73.728249,513.000000 1.046186,513.000000 
	C1.046186,342.436462 1.046186,171.872894 1.046186,1.000000 
	C99.021797,1.000000 197.043915,1.000000 295.545685,1.371333 
	C298.423462,5.638282 300.633606,9.665436 303.251312,13.407443 
	C316.776001,32.740894 326.329834,53.945457 332.642975,76.578827 
	C337.324768,93.363586 339.453674,110.593987 339.500061,128.003769 
	C333.937256,126.280594 328.762512,124.535088 323.559631,122.877693 
	C307.767517,117.846992 291.472290,115.741570 275.003143,115.052368 
	C256.703339,114.286545 238.435730,115.709000 220.744003,120.230110 
	C206.576172,123.850693 192.914795,129.453110 178.757370,134.128662 
	C178.291473,134.377335 178.096832,134.673309 177.934082,134.974777 
	C177.965973,134.980270 177.947845,134.917969 177.564941,134.951111 
	C171.401413,137.858932 165.485641,140.493042 159.864365,143.651276 
	C139.191879,155.265808 120.618813,169.430969 104.878517,187.406616 
	C91.347588,202.859161 80.254509,219.605362 71.775818,238.346054 
	C61.809708,260.374420 57.129051,283.465057 56.077900,307.373260 
	C55.403870,322.703766 56.340332,337.973480 58.869217,353.205536 
	C61.834671,371.067108 66.768272,388.287781 74.362045,404.625641 
	C85.408836,428.392639 100.252007,449.474579 120.202789,466.813599 
	C130.954895,476.158142 142.351364,484.408905 154.978485,491.037872 
	C174.699600,501.391083 195.391739,508.557434 217.600082,511.109100 
	C218.132111,511.170227 218.536224,512.344788 219.000000,513.000000 
z"/>
<path fill="#000000" opacity="1.000000" stroke="none" 
	d="
M300.000000,0.999999 
	C370.967834,1.000000 441.935669,1.000000 512.951782,1.000000 
	C512.951782,171.557159 512.951782,342.114319 512.951782,513.000000 
	C434.312195,513.000000 355.623962,513.000000 276.135925,512.663086 
	C276.175934,511.888550 276.971558,511.219635 277.862457,511.049347 
	C285.832489,509.525787 293.936676,508.547699 301.777588,506.536560 
	C320.048279,501.850281 337.382385,494.624420 353.884247,485.519226 
	C359.508270,482.416107 364.715271,478.557251 370.338257,475.008667 
	C370.563721,474.973572 370.997955,474.833160 371.260345,474.878723 
	C371.715607,474.641052 371.908508,474.357788 372.414062,473.934509 
	C384.417084,463.430145 396.487213,453.457397 407.691193,442.591553 
	C418.963257,431.659729 427.369659,418.406708 435.044769,404.736450 
	C448.972900,379.928772 456.086487,353.074463 457.803986,324.902924 
	C458.597290,311.890137 458.192810,298.656525 456.774963,285.693268 
	C454.911102,268.652313 451.171631,251.861664 444.945984,235.757614 
	C435.768463,212.017776 422.813049,190.577530 405.404358,171.985809 
	C394.391357,160.224396 381.980042,150.006317 367.914642,142.086548 
	C359.913361,137.581284 351.392029,133.999588 343.072388,129.534515 
	C341.740692,115.040062 340.441498,101.013092 339.445251,87.115593 
	C346.422729,94.178680 354.785278,98.220062 364.026428,99.868164 
	C374.757660,101.782013 385.621704,101.276405 396.326385,98.979263 
	C410.861298,95.860176 423.826080,89.518593 433.842072,78.449287 
	C442.416260,68.973465 448.540924,57.825970 451.957550,45.418751 
	C454.108185,37.608829 455.779144,29.666817 457.897400,20.813963 
	C450.412415,24.300859 444.499817,27.443136 438.307251,29.871302 
	C414.580566,39.174732 390.279358,41.890343 365.268066,35.688274 
	C356.353394,33.477692 348.477356,35.605560 341.635864,41.823528 
	C336.186249,46.776470 333.819275,53.294609 331.586487,59.818436 
	C324.861267,42.560051 316.889496,26.318708 306.595459,11.258370 
	C304.302368,7.903562 302.193634,4.422777 300.000000,0.999999 
z"/>
<path fill="#FFA733" opacity="1.000000" stroke="none" 
	d="
M370.112793,475.043701 
	C364.715271,478.557251 359.508270,482.416107 353.884247,485.519226 
	C337.382385,494.624420 320.048279,501.850281 301.777588,506.536560 
	C293.936676,508.547699 285.832489,509.525787 277.862457,511.049347 
	C276.971558,511.219635 276.175934,511.888550 275.668060,512.663086 
	C257.312439,513.000000 238.624878,513.000000 219.468658,513.000000 
	C218.536224,512.344788 218.132111,511.170227 217.600082,511.109100 
	C195.391739,508.557434 174.699600,501.391083 154.978485,491.037872 
	C142.351364,484.408905 130.954895,476.158142 120.202789,466.813599 
	C100.252007,449.474579 85.408836,428.392639 74.362045,404.625641 
	C66.768272,388.287781 61.834671,371.067108 58.869217,353.205536 
	C56.340332,337.973480 55.403870,322.703766 56.077900,307.373260 
	C57.129051,283.465057 61.809708,260.374420 71.775818,238.346054 
	C80.254509,219.605362 91.347588,202.859161 104.878517,187.406616 
	C120.618813,169.430969 139.191879,155.265808 159.864365,143.651276 
	C165.485641,140.493042 171.401413,137.858932 177.485092,135.279404 
	C177.139252,136.311508 176.585022,137.168060 175.827438,137.767685 
	C162.369568,148.419495 149.770691,159.916687 139.024963,173.405823 
	C123.602386,192.765839 111.897064,214.045242 104.832199,237.804794 
	C97.438469,262.670349 95.666328,288.010925 97.858498,313.813629 
	C99.319214,331.007050 102.504128,347.808319 108.275635,363.985870 
	C119.534935,395.545776 136.824875,423.137390 162.558380,445.196503 
	C181.935196,461.806519 203.553680,474.238922 227.890869,481.648590 
	C250.444519,488.515259 273.519562,491.436462 297.237244,490.193817 
	C314.646759,489.281677 331.594543,486.540894 348.270874,481.742249 
	C355.588135,479.636688 362.834320,477.284119 370.112793,475.043701 
z"/>
<path fill="#520346" opacity="1.000000" stroke="none" 
	d="
M339.142334,86.986122 
	C340.441498,101.013092 341.740692,115.040062 343.003723,129.975647 
	C342.764221,133.065720 342.560883,135.247192 342.357574,137.428665 
	C341.748322,137.403183 341.139099,137.377686 340.529846,137.352203 
	C340.311646,134.242050 340.093445,131.131882 339.875244,128.021729 
	C339.453674,110.593987 337.324768,93.363586 332.642975,76.578827 
	C326.329834,53.945457 316.776001,32.740894 303.251312,13.407443 
	C300.633606,9.665436 298.423462,5.638282 296.012665,1.371333 
	C297.066681,1.000000 298.133331,1.000000 299.600006,0.999999 
	C302.193634,4.422777 304.302368,7.903562 306.595459,11.258370 
	C316.889496,26.318708 324.861267,42.560051 331.655029,60.220940 
	C334.365204,69.574577 336.753784,78.280350 339.142334,86.986122 
z"/>
<path fill="#FFC341" opacity="1.000000" stroke="none" 
	d="
M339.500061,128.003769 
	C340.093445,131.131882 340.311646,134.242050 340.529846,137.352203 
	C341.139099,137.377686 341.748322,137.403183 342.357574,137.428665 
	C342.560883,135.247192 342.764221,133.065720 343.036224,130.443115 
	C351.392029,133.999588 359.913361,137.581284 367.914642,142.086548 
	C381.980042,150.006317 394.391357,160.224396 405.404358,171.985809 
	C422.813049,190.577530 435.768463,212.017776 444.945984,235.757614 
	C451.171631,251.861664 454.911102,268.652313 456.774963,285.693268 
	C458.192810,298.656525 458.597290,311.890137 457.803986,324.902924 
	C456.086487,353.074463 448.972900,379.928772 435.044769,404.736450 
	C427.369659,418.406708 418.963257,431.659729 407.691193,442.591553 
	C396.487213,453.457397 384.417084,463.430145 372.208130,474.024902 
	C371.434082,474.418121 371.203552,474.610748 370.997955,474.833160 
	C370.997955,474.833160 370.563721,474.973572 370.338257,475.008636 
	C362.834320,477.284119 355.588135,479.636688 348.270874,481.742249 
	C331.594543,486.540894 314.646759,489.281677 297.237244,490.193817 
	C273.519562,491.436462 250.444519,488.515259 227.890869,481.648590 
	C203.553680,474.238922 181.935196,461.806519 162.558380,445.196503 
	C136.824875,423.137390 119.534935,395.545776 108.275635,363.985870 
	C102.504128,347.808319 99.319214,331.007050 97.858498,313.813629 
	C95.666328,288.010925 97.438469,262.670349 104.832199,237.804794 
	C111.897064,214.045242 123.602386,192.765839 139.024963,173.405823 
	C149.770691,159.916687 162.369568,148.419495 175.827438,137.767685 
	C176.585022,137.168060 177.139252,136.311508 177.867996,135.246246 
	C177.947845,134.917969 177.965973,134.980270 178.145660,134.879089 
	C178.586090,134.607986 178.820526,134.407349 179.028641,134.175980 
	C192.914795,129.453110 206.576172,123.850693 220.744003,120.230110 
	C238.435730,115.709000 256.703339,114.286545 275.003143,115.052368 
	C291.472290,115.741570 307.767517,117.846992 323.559631,122.877693 
	C328.762512,124.535088 333.937256,126.280594 339.500061,128.003769 
M430.997131,308.408508 
	C438.302399,297.446533 440.010193,285.377167 438.000336,272.605286 
	C435.066742,253.963257 427.370392,237.911255 411.572937,226.831024 
	C394.127533,214.594971 374.154236,221.893127 369.179810,242.604813 
	C362.864990,268.897369 370.669861,291.427429 390.295990,309.475525 
	C402.914368,321.079315 420.426575,321.910187 430.997131,308.408508 
M389.651001,359.807312 
	C391.562256,361.125153 393.349304,362.694153 395.408569,363.712708 
	C401.112579,366.534058 409.080170,365.182983 413.579895,360.866211 
	C418.611908,356.038788 420.366638,348.684448 417.956299,342.524109 
	C415.393982,335.975342 409.877808,332.154510 403.036835,331.910095 
	C396.035095,331.659943 390.692780,334.336578 387.373322,340.540649 
	C383.856110,347.114471 384.792389,353.371307 389.651001,359.807312 
M209.387650,258.088135 
	C208.984055,263.305878 207.702225,268.644012 208.396835,273.711212 
	C209.286102,280.198456 214.993439,281.967438 220.368500,278.264679 
	C228.075943,272.955200 232.881027,258.385834 229.801071,249.664490 
	C227.775040,243.927475 222.683716,241.944412 218.136963,245.997849 
	C214.690781,249.070160 212.488937,253.538254 209.387650,258.088135 
M318.904602,284.946747 
	C318.100922,280.991364 317.471710,276.748718 312.626465,275.747803 
	C308.061859,274.804810 305.026031,277.762878 302.519287,280.922089 
	C297.449066,287.312042 294.856171,294.739258 296.205109,302.819550 
	C296.711060,305.850189 298.967377,309.987488 301.429626,310.894287 
	C303.831177,311.778778 308.272400,310.004211 310.491394,307.958099 
	C316.804901,302.136444 319.127869,294.343475 318.904602,284.946747 
M190.289902,283.570984 
	C189.444824,284.358276 188.453461,285.037720 187.779755,285.951385 
	C184.707047,290.118469 185.459396,296.691467 189.241013,299.447968 
	C193.388107,302.470886 200.408600,301.248108 203.341568,296.928253 
	C205.657043,293.517883 205.563263,290.078735 203.126190,286.756348 
	C199.854492,282.296173 196.723724,281.406281 190.289902,283.570984 
M309.515656,325.510071 
	C308.379150,325.340332 307.243835,325.034088 306.105896,325.023834 
	C300.292542,324.971558 295.891113,329.061737 296.047424,334.287720 
	C296.204376,339.535248 300.845276,344.011230 306.068878,343.953064 
	C311.290009,343.894928 315.695526,339.224182 314.795166,333.571259 
	C314.360504,330.842133 311.798248,328.451874 309.515656,325.510071 
M243.106949,288.940277 
	C243.106949,285.461609 243.106949,281.982910 243.106949,277.879303 
	C238.718460,282.993134 239.286057,291.176178 243.869049,297.634583 
	C249.247955,305.214630 259.193359,308.264618 267.849518,304.988831 
	C274.877380,302.329193 279.946594,296.073883 279.112274,289.331207 
	C274.854370,297.636047 269.715118,303.417725 260.725281,303.493744 
	C252.540573,303.562988 246.424454,298.725525 243.106949,288.940277 
M317.157684,312.540588 
	C313.124176,314.517273 311.700989,317.939972 314.114044,321.492523 
	C315.292877,323.228088 318.865540,324.472778 321.068176,324.125031 
	C324.845001,323.528717 325.614716,320.005371 324.770569,316.628143 
	C323.918518,313.219177 321.273804,312.014984 317.157684,312.540588 
M199.778839,267.790558 
	C197.460236,265.116272 194.414505,263.686584 191.670563,266.256256 
	C189.974442,267.844666 188.666962,271.069336 188.984039,273.304199 
	C189.478134,276.786469 192.856522,277.405823 196.048401,276.875214 
	C199.698730,276.268402 201.153656,273.157959 199.778839,267.790558 
M320.674286,334.821991 
	C322.480408,335.130920 324.304657,335.702240 326.080963,335.579529 
	C326.575745,335.545319 327.594452,333.069824 327.202118,332.397247 
	C326.482330,331.163422 324.892090,330.437408 323.664764,329.499695 
	C322.575317,331.058746 321.485870,332.617767 320.674286,334.821991 
M184.666885,278.014984 
	C183.025818,277.664276 181.363983,277.020630 179.755890,277.134766 
	C179.249420,277.170685 178.206848,279.728210 178.600143,280.274414 
	C179.423935,281.418396 181.038635,281.992859 182.328522,282.801208 
	C183.169983,281.451874 184.011459,280.102570 184.666885,278.014984 
z"/>
<path fill="#FFA733" opacity="1.000000" stroke="none" 
	d="
M178.757370,134.128662 
	C178.820526,134.407349 178.586090,134.607986 178.113770,134.873596 
	C178.096832,134.673309 178.291473,134.377335 178.757370,134.128662 
z"/>
<path fill="#6CE081" opacity="1.000000" stroke="none" 
	d="
M339.445251,87.115593 
	C336.753784,78.280350 334.365204,69.574577 331.908112,60.466293 
	C333.819275,53.294609 336.186249,46.776470 341.635864,41.823528 
	C348.477356,35.605560 356.353394,33.477692 365.268066,35.688274 
	C390.279358,41.890343 414.580566,39.174732 438.307251,29.871302 
	C444.499817,27.443136 450.412415,24.300859 457.897400,20.813963 
	C455.779144,29.666817 454.108185,37.608829 451.957550,45.418751 
	C448.540924,57.825970 442.416260,68.973465 433.842072,78.449287 
	C423.826080,89.518593 410.861298,95.860176 396.326385,98.979263 
	C385.621704,101.276405 374.757660,101.782013 364.026428,99.868164 
	C354.785278,98.220062 346.422729,94.178680 339.445251,87.115593 
M378.618439,52.993034 
	C373.549774,52.112923 368.508881,50.885513 363.402496,50.476776 
	C360.088074,50.211479 356.053192,50.116577 353.424835,51.720829 
	C344.540314,57.143597 343.751526,71.769218 351.943054,78.064873 
	C355.676849,80.934517 360.186798,83.675735 364.704224,84.496475 
	C388.129120,88.752449 409.023834,83.968758 425.206177,65.229034 
	C429.565887,60.180313 432.984192,54.466553 435.306305,47.061180 
	C416.201111,52.291958 398.150482,55.612167 378.618439,52.993034 
z"/>
<path fill="#FFA733" opacity="1.000000" stroke="none" 
	d="
M371.260345,474.878723 
	C371.203552,474.610748 371.434082,474.418121 371.895447,474.164917 
	C371.908508,474.357788 371.715607,474.641052 371.260345,474.878723 
z"/>
<path fill="#FFD788" opacity="1.000000" stroke="none" 
	d="
M430.769684,308.688110 
	C420.426575,321.910187 402.914368,321.079315 390.295990,309.475525 
	C370.669861,291.427429 362.864990,268.897369 369.179810,242.604813 
	C374.154236,221.893127 394.127533,214.594971 411.572937,226.831024 
	C427.370392,237.911255 435.066742,253.963257 438.000336,272.605286 
	C440.010193,285.377167 438.302399,297.446533 430.769684,308.688110 
z"/>
<path fill="#FFD787" opacity="1.000000" stroke="none" 
	d="
M389.421539,359.520508 
	C384.792389,353.371307 383.856110,347.114471 387.373322,340.540649 
	C390.692780,334.336578 396.035095,331.659943 403.036835,331.910095 
	C409.877808,332.154510 415.393982,335.975342 417.956299,342.524109 
	C420.366638,348.684448 418.611908,356.038788 413.579895,360.866211 
	C409.080170,365.182983 401.112579,366.534058 395.408569,363.712708 
	C393.349304,362.694153 391.562256,361.125153 389.421539,359.520508 
z"/>
<path fill="#540446" opacity="1.000000" stroke="none" 
	d="
M209.560516,257.736694 
	C212.488937,253.538254 214.690781,249.070160 218.136963,245.997849 
	C222.683716,241.944412 227.775040,243.927475 229.801071,249.664490 
	C232.881027,258.385834 228.075943,272.955200 220.368500,278.264679 
	C214.993439,281.967438 209.286102,280.198456 208.396835,273.711212 
	C207.702225,268.644012 208.984055,263.305878 209.560516,257.736694 
z"/>
<path fill="#540446" opacity="1.000000" stroke="none" 
	d="
M318.934174,285.378967 
	C319.127869,294.343475 316.804901,302.136444 310.491394,307.958099 
	C308.272400,310.004211 303.831177,311.778778 301.429626,310.894287 
	C298.967377,309.987488 296.711060,305.850189 296.205109,302.819550 
	C294.856171,294.739258 297.449066,287.312042 302.519287,280.922089 
	C305.026031,277.762878 308.061859,274.804810 312.626465,275.747803 
	C317.471710,276.748718 318.100922,280.991364 318.934174,285.378967 
z"/>
<path fill="#FFA833" opacity="1.000000" stroke="none" 
	d="
M190.634125,283.399292 
	C196.723724,281.406281 199.854492,282.296173 203.126190,286.756348 
	C205.563263,290.078735 205.657043,293.517883 203.341568,296.928253 
	C200.408600,301.248108 193.388107,302.470886 189.241013,299.447968 
	C185.459396,296.691467 184.707047,290.118469 187.779755,285.951385 
	C188.453461,285.037720 189.444824,284.358276 190.634125,283.399292 
z"/>
<path fill="#FFA733" opacity="1.000000" stroke="none" 
	d="
M309.857513,325.709106 
	C311.798248,328.451874 314.360504,330.842133 314.795166,333.571259 
	C315.695526,339.224182 311.290009,343.894928 306.068878,343.953064 
	C300.845276,344.011230 296.204376,339.535248 296.047424,334.287720 
	C295.891113,329.061737 300.292542,324.971558 306.105896,325.023834 
	C307.243835,325.034088 308.379150,325.340332 309.857513,325.709106 
z"/>
<path fill="#621446" opacity="1.000000" stroke="none" 
	d="
M243.182312,289.345123 
	C246.424454,298.725525 252.540573,303.562988 260.725281,303.493744 
	C269.715118,303.417725 274.854370,297.636047 279.112274,289.331207 
	C279.946594,296.073883 274.877380,302.329193 267.849518,304.988831 
	C259.193359,308.264618 249.247955,305.214630 243.869049,297.634583 
	C239.286057,291.176178 238.718460,282.993134 243.106949,277.879303 
	C243.106949,281.982910 243.106949,285.461609 243.182312,289.345123 
z"/>
<path fill="#FFA834" opacity="1.000000" stroke="none" 
	d="
M317.523071,312.422729 
	C321.273804,312.014984 323.918518,313.219177 324.770569,316.628143 
	C325.614716,320.005371 324.845001,323.528717 321.068176,324.125031 
	C318.865540,324.472778 315.292877,323.228088 314.114044,321.492523 
	C311.700989,317.939972 313.124176,314.517273 317.523071,312.422729 
z"/>
<path fill="#FFA834" opacity="1.000000" stroke="none" 
	d="
M199.965485,268.125122 
	C201.153656,273.157959 199.698730,276.268402 196.048401,276.875214 
	C192.856522,277.405823 189.478134,276.786469 188.984039,273.304199 
	C188.666962,271.069336 189.974442,267.844666 191.670563,266.256256 
	C194.414505,263.686584 197.460236,265.116272 199.965485,268.125122 
z"/>
<path fill="#FFAA34" opacity="1.000000" stroke="none" 
	d="
M320.535370,334.499390 
	C321.485870,332.617767 322.575317,331.058746 323.664764,329.499695 
	C324.892090,330.437408 326.482330,331.163422 327.202118,332.397247 
	C327.594452,333.069824 326.575745,335.545319 326.080963,335.579529 
	C324.304657,335.702240 322.480408,335.130920 320.535370,334.499390 
z"/>
<path fill="#FFA833" opacity="1.000000" stroke="none" 
	d="
M184.759903,278.384125 
	C184.011459,280.102570 183.169983,281.451874 182.328522,282.801208 
	C181.038635,281.992859 179.423935,281.418396 178.600143,280.274414 
	C178.206848,279.728210 179.249420,277.170685 179.755890,277.134766 
	C181.363983,277.020630 183.025818,277.664276 184.759903,278.384125 
z"/>
<path fill="#36B081" opacity="1.000000" stroke="none" 
	d="
M379.070618,53.004520 
	C398.150482,55.612167 416.201111,52.291958 435.306305,47.061180 
	C432.984192,54.466553 429.565887,60.180313 425.206177,65.229034 
	C409.023834,83.968758 388.129120,88.752449 364.704224,84.496475 
	C360.186798,83.675735 355.676849,80.934517 351.943054,78.064873 
	C343.751526,71.769218 344.540314,57.143597 353.424835,51.720829 
	C356.053192,50.116577 360.088074,50.211479 363.402496,50.476776 
	C368.508881,50.885513 373.549774,52.112923 379.070618,53.004520 
z"/>
</svg>