<svg version="1.1" id="Layer_1" xmlns="http://www.w3.org/2000/svg" xmlns:xlink="http://www.w3.org/1999/xlink" x="0px" y="0px"
	 width="100%" viewBox="0 0 512 512" enable-background="new 0 0 512 512" xml:space="preserve">
<path fill="#E57801" opacity="1.000000" stroke="none" 
	d="
M74.168732,331.996307 
	C67.757156,316.432251 62.791275,300.282562 61.336861,283.620392 
	C59.934498,267.554596 60.470276,251.251266 61.129917,235.092102 
	C61.860851,217.186462 67.198730,200.233246 73.665680,183.568817 
	C80.519386,165.907776 89.963295,149.835709 101.554794,134.950974 
	C120.447029,110.691284 143.931015,92.100029 171.598129,78.837303 
	C189.153976,70.421600 207.484390,63.998970 226.938248,62.146370 
	C242.052994,60.706982 257.353180,59.553127 272.476868,60.266685 
	C294.061218,61.285076 314.962524,66.672043 334.790894,75.462257 
	C342.641235,78.942429 350.101807,83.301727 357.919128,87.943207 
	C361.590088,95.031143 365.105804,101.423698 368.569672,107.844215 
	C390.116913,147.783783 404.687103,189.552170 404.156311,235.759796 
	C403.886444,259.255981 398.656769,281.267609 388.363861,302.163788 
	C378.177673,322.843445 363.137634,339.718933 345.340240,354.036255 
	C307.976196,384.094147 265.727234,398.647949 217.313309,394.199005 
	C186.935852,391.407532 158.484100,382.313660 131.949570,368.077667 
	C113.270744,358.056335 96.073677,345.275482 78.186478,333.771149 
	C76.969948,332.988739 75.513557,332.579254 74.168732,331.996307 
M127.612762,191.061615 
	C124.060043,195.227646 120.091400,199.110229 117.025887,203.608307 
	C103.004585,224.181915 95.701523,247.168091 94.168648,271.880157 
	C93.183304,287.765198 96.086227,303.108521 104.116684,317.082214 
	C111.730476,330.330872 121.686836,332.287659 133.968597,323.333618 
	C134.237488,323.137573 134.498123,322.930145 134.762680,322.728149 
	C145.778824,314.315735 153.389557,303.130127 158.767120,290.704834 
	C170.476440,263.649506 169.972229,235.925766 160.723907,208.337479 
	C158.605865,202.019257 154.915359,195.953323 150.820206,190.641113 
	C145.500809,183.740845 139.195221,183.355164 131.863510,188.051590 
	C130.603226,188.858871 129.400314,189.755768 127.612762,191.061615 
M168.297760,143.763718 
	C170.178345,137.926178 172.679169,132.202484 173.776917,126.221283 
	C175.047424,119.298813 170.893417,115.602234 163.828354,116.195457 
	C140.522919,118.152321 124.904312,143.416229 133.594559,165.100174 
	C137.673660,175.278351 143.835831,177.113708 151.052689,168.935394 
	C157.575119,161.544006 162.428055,152.679382 168.297760,143.763718 
M247.324326,83.377419 
	C258.265076,88.120186 269.335236,88.259323 280.219513,83.554337 
	C282.442291,82.593483 284.970032,79.757027 285.190002,77.567436 
	C285.363373,75.841759 282.574738,72.927475 280.464020,72.012962 
	C269.594696,67.303627 258.430023,67.240150 247.565857,71.985901 
	C241.282761,74.730515 241.160034,78.793121 247.324326,83.377419 
z"/>
<path fill="#E26C03" opacity="1.000000" stroke="none" 
	d="
M74.215439,332.350098 
	C75.513557,332.579254 76.969948,332.988739 78.186478,333.771149 
	C96.073677,345.275482 113.270744,358.056335 131.949570,368.077667 
	C158.484100,382.313660 186.935852,391.407532 217.313309,394.199005 
	C265.727234,398.647949 307.976196,384.094147 345.340240,354.036255 
	C363.137634,339.718933 378.177673,322.843445 388.363861,302.163788 
	C398.656769,281.267609 403.886444,259.255981 404.156311,235.759796 
	C404.687103,189.552170 390.116913,147.783783 368.569672,107.844215 
	C365.105804,101.423698 361.590088,95.031143 358.067932,88.257362 
	C365.109528,92.515991 372.495392,96.736031 379.166779,101.882271 
	C386.078461,107.213875 392.735931,113.027626 398.738525,119.357040 
	C417.855713,139.515198 432.649994,162.443802 442.078888,188.745529 
	C447.834381,204.800354 451.793427,221.131409 453.136597,238.206070 
	C454.347534,253.599258 454.114319,268.803864 452.191833,284.146301 
	C449.163239,308.315582 441.394806,330.817566 429.910522,352.094147 
	C422.658173,365.530426 413.660492,377.782349 403.429138,389.186798 
	C392.931122,400.888550 381.236664,411.217407 368.316406,420.004822 
	C350.388306,432.198181 330.860962,441.113525 309.918671,447.090912 
	C287.765320,453.413940 265.160950,455.184814 242.415649,453.812378 
	C222.005753,452.580872 202.203232,447.802673 183.089508,440.116302 
	C164.138062,432.495148 146.830658,422.143585 131.083771,409.377625 
	C112.558228,394.358948 97.416679,376.230865 85.781677,355.341888 
	C81.664604,347.950287 78.086380,340.258575 74.215439,332.350098 
z"/>
<path fill="#EA9334" opacity="1.000000" stroke="none" 
	d="
M127.891838,190.836441 
	C129.400314,189.755768 130.603226,188.858871 131.863510,188.051590 
	C139.195221,183.355164 145.500809,183.740845 150.820206,190.641113 
	C154.915359,195.953323 158.605865,202.019257 160.723907,208.337479 
	C169.972229,235.925766 170.476440,263.649506 158.767120,290.704834 
	C153.389557,303.130127 145.778824,314.315735 134.762680,322.728149 
	C134.498123,322.930145 134.237488,323.137573 133.968597,323.333618 
	C121.686836,332.287659 111.730476,330.330872 104.116684,317.082214 
	C96.086227,303.108521 93.183304,287.765198 94.168648,271.880157 
	C95.701523,247.168091 103.004585,224.181915 117.025887,203.608307 
	C120.091400,199.110229 124.060043,195.227646 127.891838,190.836441 
z"/>
<path fill="#EA9333" opacity="1.000000" stroke="none" 
	d="
M168.157471,144.114075 
	C162.428055,152.679382 157.575119,161.544006 151.052689,168.935394 
	C143.835831,177.113708 137.673660,175.278351 133.594559,165.100174 
	C124.904312,143.416229 140.522919,118.152321 163.828354,116.195457 
	C170.893417,115.602234 175.047424,119.298813 173.776917,126.221283 
	C172.679169,132.202484 170.178345,137.926178 168.157471,144.114075 
z"/>
<path fill="#6C8A1B" opacity="1.000000" stroke="none" 
	d="
M246.997009,83.202164 
	C241.160034,78.793121 241.282761,74.730515 247.565857,71.985901 
	C258.430023,67.240150 269.594696,67.303627 280.464020,72.012962 
	C282.574738,72.927475 285.363373,75.841759 285.190002,77.567436 
	C284.970032,79.757027 282.442291,82.593483 280.219513,83.554337 
	C269.335236,88.259323 258.265076,88.120186 246.997009,83.202164 
M269.378784,82.130943 
	C270.020111,81.967583 270.819122,81.990967 271.274109,81.606873 
	C272.817230,80.304207 274.238708,78.857399 275.706635,77.465660 
	C274.140289,76.152344 272.630341,73.805984 270.997162,73.716827 
	C265.820953,73.434250 260.581329,73.827560 255.408707,74.367149 
	C254.346664,74.477943 252.607651,76.452477 252.714539,77.393745 
	C252.862747,78.698662 254.306000,80.684570 255.467453,80.898514 
	C259.776794,81.692299 264.197937,81.879211 269.378784,82.130943 
z"/>
<path fill="#B2BE79" opacity="1.000000" stroke="none" 
	d="
M268.977936,82.212509 
	C264.197937,81.879211 259.776794,81.692299 255.467453,80.898514 
	C254.306000,80.684570 252.862747,78.698662 252.714539,77.393745 
	C252.607651,76.452477 254.346664,74.477943 255.408707,74.367149 
	C260.581329,73.827560 265.820953,73.434250 270.997162,73.716827 
	C272.630341,73.805984 274.140289,76.152344 275.706635,77.465668 
	C274.238708,78.857399 272.817230,80.304207 271.274109,81.606873 
	C270.819122,81.990967 270.020111,81.967583 268.977936,82.212509 
z"/>
</svg>