<svg version="1.1" id="Layer_1" xmlns="http://www.w3.org/2000/svg" xmlns:xlink="http://www.w3.org/1999/xlink" x="0px" y="0px"
	 width="100%" viewBox="0 0 512 512" enable-background="new 0 0 512 512" xml:space="preserve">
<path fill="#B3B3B3" opacity="1.000000" stroke="none" 
	d="
M264.404907,359.125000 
	C259.325989,359.053833 254.673325,359.031128 249.561783,359.035645 
	C246.149033,359.673431 243.337372,360.895294 239.880295,361.056458 
	C234.482712,360.780487 229.525635,361.492096 224.540985,361.451691 
	C222.265900,361.433228 220.562057,362.678650 220.538681,365.046173 
	C220.491302,369.843292 219.514221,374.626343 220.363068,379.872131 
	C220.392410,383.119415 219.766907,385.786255 218.270050,388.705750 
	C218.046371,416.765564 218.029144,444.409180 218.048538,472.519318 
	C216.948990,475.121246 214.857254,475.175476 212.884903,475.194397 
	C190.640152,475.407806 168.394913,475.447510 146.150238,475.177338 
	C144.829819,475.161316 143.489548,475.039459 141.896820,474.030518 
	C139.140869,470.474609 139.701981,466.701691 139.697342,463.088898 
	C139.643356,421.109253 139.668182,379.129517 139.665909,337.149811 
	C139.664154,304.665497 139.145798,272.170380 139.822510,239.700165 
	C140.412430,211.395142 140.370834,183.098694 140.486313,154.797409 
	C140.499191,151.641541 140.646698,148.485657 140.077454,145.330917 
	C139.649506,142.959396 139.959579,140.643997 142.552155,138.731171 
	C144.770386,136.625900 147.207275,136.807114 149.966797,136.350769 
	C165.882996,135.065689 181.326782,135.771790 196.764771,135.879517 
	C198.114990,135.888931 199.396622,136.266235 200.739960,137.644058 
	C207.631195,138.094543 207.996948,138.441315 207.998215,144.743195 
	C208.003555,171.234161 208.044891,197.725296 207.943329,224.215881 
	C207.930786,227.485733 208.067871,229.697357 212.306458,229.052185 
	C216.657150,228.389938 218.060471,230.781326 218.047684,234.923279 
	C217.959152,263.579895 218.089401,292.237488 217.901321,320.893158 
	C217.874603,324.963013 218.740601,326.153351 223.000061,326.110901 
	C246.656342,325.875092 270.316132,325.994507 294.436401,325.967529 
	C299.347961,327.566132 298.301270,330.372162 296.091492,333.642944 
	C293.942719,334.692230 292.090118,334.491272 290.269104,334.492126 
	C267.457733,334.502838 244.646378,334.502960 226.569946,334.498657 
	C246.123627,334.691071 270.414276,334.208405 295.174622,334.848206 
	C296.546997,335.476501 297.484375,336.168182 297.575317,337.119476 
	C298.286591,344.557861 299.673950,352.041870 296.284363,359.646973 
	C289.011322,362.357086 281.982910,361.152557 274.540527,360.875854 
	C270.766327,361.601227 267.897827,359.869019 264.404907,359.125000 
z"/>
<path fill="#B3B3B3" opacity="1.000000" stroke="none" 
	d="
M313.126221,138.389069 
	C313.609955,133.718674 311.454987,128.949387 315.530304,125.087723 
	C320.355713,121.399246 325.309723,122.705635 330.611237,123.797928 
	C332.513153,125.579208 332.119720,127.329964 331.863922,129.195343 
	C331.191620,134.098419 332.385651,135.540634 337.465485,135.623688 
	C349.104279,135.813965 360.746338,135.613892 372.386200,135.734436 
	C374.827820,135.759735 377.444885,135.343918 379.780273,137.675385 
	C386.996765,138.100555 386.999725,138.100555 387.000092,145.001526 
	C387.001434,171.648163 387.022980,198.294861 386.965546,224.941376 
	C386.959930,227.543427 386.960266,229.218445 390.520660,229.106216 
	C396.532684,228.916718 397.998993,230.689407 397.999542,236.731415 
	C398.006775,315.172455 398.008636,393.613495 398.044434,472.521454 
	C397.068085,474.915314 395.214081,475.142303 393.376587,475.161865 
	C370.654297,475.403656 347.931671,475.519409 325.209991,475.099854 
	C324.220032,475.081604 323.227051,474.897705 321.941467,474.072449 
	C319.124878,470.544739 319.704620,466.764221 319.699493,463.153107 
	C319.643005,423.495270 319.669159,383.837311 319.667084,344.179413 
	C319.665222,308.354004 319.431671,272.526550 319.740997,236.703812 
	C319.988495,208.045990 319.823334,179.389404 320.060364,150.733856 
	C320.105530,145.269180 319.073120,140.849792 313.126221,138.389069 
z"/>
<path fill="#A1A1A1" opacity="1.000000" stroke="none" 
	d="
M312.466431,137.977188 
	C322.402344,138.341125 321.981140,136.417603 321.980652,147.198639 
	C321.975800,255.487991 321.981262,363.777344 321.990540,472.535583 
	C321.303101,474.252136 320.210297,474.918396 318.818237,475.003662 
	C311.623596,475.444153 304.427460,475.660400 297.244781,474.823486 
	C296.600433,474.748383 296.064453,474.280426 295.281433,473.420898 
	C295.003906,446.665924 294.973969,420.332733 295.087006,394.000214 
	C295.098022,391.435303 294.317932,389.680847 292.541718,387.929901 
	C283.049530,378.572968 273.656982,369.114990 264.104309,359.384247 
	C266.717560,357.162506 269.524597,358.188324 272.717834,358.965881 
	C280.943420,362.452484 285.431824,369.895081 292.400269,375.215668 
	C293.139679,371.760376 292.632721,368.650635 292.814026,365.596863 
	C292.939850,363.477051 292.530670,361.214264 294.653564,359.306641 
	C296.951996,351.617645 296.121948,344.119598 295.140686,336.286804 
	C294.363861,335.280670 294.222931,334.536835 294.674530,333.385559 
	C296.445038,330.984711 296.250122,328.788879 295.134125,326.242554 
	C294.940094,296.623749 294.983856,267.304810 295.022919,237.985855 
	C295.032593,230.712006 296.016785,229.405609 303.334717,229.082687 
	C307.230072,228.910812 305.947571,226.348404 305.952087,224.548401 
	C306.019165,197.726486 306.061249,170.904083 305.936737,144.082581 
	C305.915863,139.585815 307.536102,137.533356 312.466431,137.977188 
z"/>
<path fill="#A1A1A1" opacity="1.000000" stroke="none" 
	d="
M143.961212,138.484619 
	C142.149094,141.201950 141.988846,143.797791 141.989700,146.529083 
	C142.023636,255.016846 142.025330,363.504608 142.037323,472.455933 
	C141.316925,474.203278 140.131790,474.677185 138.248672,474.774292 
	C132.541855,475.369141 127.308815,475.457245 122.072624,475.241455 
	C120.140015,475.161804 118.093201,475.345673 116.240982,473.407104 
	C115.980721,394.501526 115.989510,316.008270 115.999252,237.515015 
	C116.000175,230.117767 116.583702,229.260239 124.059578,229.096649 
	C127.722130,229.016525 126.987617,226.849075 126.988747,224.820618 
	C127.003639,197.989563 127.106140,171.157669 126.898491,144.328217 
	C126.861702,139.575745 128.280380,137.477173 133.461960,137.978210 
	C137.230804,135.259201 140.584808,134.715622 143.961212,138.484619 
z"/>
<path fill="#A3A3A3" opacity="1.000000" stroke="none" 
	d="
M172.791992,55.628212 
	C176.146591,55.939545 179.133453,55.963169 182.120163,55.950069 
	C186.153870,55.932381 188.063522,57.949989 188.052872,61.952774 
	C188.029907,70.581406 188.149368,79.212044 187.990494,87.837814 
	C187.935577,90.819435 188.376572,92.556137 191.935059,92.069092 
	C196.420319,91.455177 198.135574,93.616913 198.030563,98.104507 
	C197.828751,106.728111 197.989594,115.360207 198.084595,124.444275 
	C197.333984,126.678566 195.704712,127.094170 194.000854,127.113258 
	C180.682480,127.262482 167.358322,127.900429 153.630402,126.535126 
	C150.822113,124.430397 150.809189,121.710800 150.752396,119.049004 
	C150.624573,113.057953 150.591476,107.061745 150.743958,101.074303 
	C150.830765,97.666168 150.005676,94.865952 147.061890,92.379715 
	C146.936218,82.348763 146.974594,72.722893 147.002274,63.096981 
	C147.021637,56.365723 147.363129,56.013077 154.010193,56.003021 
	C156.334000,55.999508 158.657822,55.997501 161.437363,55.971069 
	C163.070541,54.819565 164.326553,53.871632 166.576874,54.105816 
	C168.958328,54.005363 170.905685,53.721870 172.791992,55.628212 
z"/>
<path fill="#7E7E7E" opacity="1.000000" stroke="none" 
	d="
M294.604706,473.019836 
	C303.682922,473.011658 312.371918,473.024414 321.529053,473.020813 
	C347.041656,473.012878 372.086090,473.021271 397.603760,473.009033 
	C404.289154,473.625336 402.942780,476.416809 402.958008,483.707550 
	C402.965820,487.453247 400.401245,488.056488 397.189331,488.048615 
	C370.746094,487.983765 344.302643,488.015320 317.392883,487.931335 
	C311.256927,487.112396 305.564850,487.645264 299.478760,487.677429 
	C295.299713,488.054047 290.777771,488.804382 290.254700,483.570648 
	C289.880066,479.821625 288.125336,474.707825 294.604706,473.019836 
z"/>
<path fill="#999999" opacity="1.000000" stroke="none" 
	d="
M366.730469,91.646683 
	C368.093842,91.983002 369.087219,91.996506 370.080627,92.000816 
	C376.694916,92.029503 376.990295,92.332054 376.997620,99.176712 
	C377.006470,107.455780 377.009460,115.734840 377.056824,124.477158 
	C376.231506,126.687523 374.610535,127.074783 372.903229,127.119827 
	C360.415741,127.449295 347.927338,127.497902 335.440308,127.090317 
	C334.436493,127.057556 333.462799,126.801544 332.270691,125.828049 
	C330.623596,123.885330 329.827667,122.139610 329.786530,120.036522 
	C329.637451,112.412025 329.593903,104.789444 329.823151,97.165375 
	C329.880463,95.259842 330.505341,93.614395 331.951660,91.718323 
	C334.919525,89.143112 338.045563,89.975166 341.543304,89.968727 
	C348.131683,89.524475 354.229279,89.638306 360.323395,89.747322 
	C362.430542,89.785011 364.666290,89.584518 366.730469,91.646683 
z"/>
<path fill="#818181" opacity="1.000000" stroke="none" 
	d="
M137.648529,473.366882 
	C139.066330,473.048615 140.148849,473.014984 141.637421,472.950439 
	C167.074905,472.956268 192.106339,472.993011 217.611465,473.007782 
	C223.781570,473.384216 224.253265,474.076935 223.998550,481.669708 
	C223.823730,486.880219 222.386490,487.981689 215.362152,487.895874 
	C214.785309,487.748199 214.631958,487.668610 214.260101,487.728455 
	C189.326050,487.917633 164.610489,487.967468 139.431641,487.928528 
	C138.740479,487.662018 138.512604,487.484222 137.926422,487.059692 
	C133.829956,482.946167 133.727097,477.634796 137.648529,473.366882 
z"/>
<path fill="#B3B3B3" opacity="1.000000" stroke="none" 
	d="
M367.057312,91.508507 
	C359.046143,91.988594 350.991852,92.003433 342.468964,92.008987 
	C340.054962,90.525894 339.802490,88.396599 339.764862,86.191856 
	C339.634369,78.548180 339.704559,70.904984 339.747009,63.260807 
	C339.768188,59.449230 341.301270,56.923805 345.375549,55.577206 
	C347.677795,55.216427 349.490570,54.033810 351.729797,55.664261 
	C354.932220,55.963501 357.753845,55.984112 360.575470,55.997868 
	C366.492950,56.026714 366.990234,56.529613 366.998993,62.657185 
	C367.012512,72.119202 367.009888,81.581238 367.057312,91.508507 
z"/>
<path fill="#CCCCCC" opacity="1.000000" stroke="none" 
	d="
M331.683838,124.778046 
	C346.692200,124.928528 361.421906,124.973618 376.625122,124.979568 
	C381.642029,128.127655 379.482819,132.924103 380.062256,137.521774 
	C365.467773,137.991699 350.823029,138.022522 336.178284,138.034912 
	C328.943298,138.041031 326.966339,135.015503 329.675690,128.087662 
	C329.975891,127.320107 330.457581,126.623520 330.972809,125.536362 
	C331.195404,125.010033 331.300262,124.841347 331.683838,124.778046 
z"/>
<path fill="#CCCCCC" opacity="1.000000" stroke="none" 
	d="
M152.491699,124.789795 
	C167.699356,124.939079 182.458618,124.984650 197.693527,124.965004 
	C202.578857,128.150116 200.507217,132.913330 201.061310,137.522125 
	C184.363327,138.005020 167.615250,138.041122 150.393692,138.088715 
	C146.797318,134.045609 147.018768,129.616302 150.871048,125.380501 
	C151.482452,124.935150 151.762878,124.810616 152.491699,124.789795 
z"/>
<path fill="#A1A1A1" opacity="1.000000" stroke="none" 
	d="
M347.125793,56.448799 
	C342.917633,57.136757 341.948029,59.731049 341.977997,63.338142 
	C342.054749,72.579002 342.001526,81.820946 342.000336,91.531075 
	C339.288177,92.004875 336.575989,92.010056 333.411194,92.022682 
	C330.986084,93.750725 328.905273,94.548347 326.213379,92.379532 
	C325.934448,82.554771 325.966888,73.135368 325.997772,63.715965 
	C326.020721,56.721867 326.716980,56.007347 333.529358,55.997982 
	C335.677917,55.995029 337.826447,55.992729 340.430115,55.967148 
	C342.322144,54.554863 343.919189,53.830605 346.291870,54.991196 
	C346.854858,55.497177 347.034241,55.746712 347.125793,56.448799 
z"/>
<path fill="#8B8B8B" opacity="1.000000" stroke="none" 
	d="
M152.959808,124.434151 
	C152.940109,124.893501 152.505569,125.016823 152.286530,125.071793 
	C147.297516,128.013962 142.404373,128.129456 137.123825,125.342453 
	C136.897980,116.957649 136.972595,109.009071 136.995819,101.060349 
	C137.022247,92.013428 137.002319,92.013367 146.469238,91.985596 
	C151.674377,91.384102 153.800415,92.430984 153.232941,98.246872 
	C152.403244,106.750137 152.994095,115.392006 152.959808,124.434151 
z"/>
<path fill="#8B8B8B" opacity="1.000000" stroke="none" 
	d="
M325.469360,91.985184 
	C327.962463,91.992073 330.022278,92.009972 332.520355,92.028999 
	C330.911011,102.622856 332.515472,113.327477 331.971313,124.424988 
	C331.962524,124.883430 331.531494,125.045944 331.311005,125.112328 
	C326.333588,125.113503 321.576691,125.048294 316.346100,124.953545 
	C315.915558,116.971321 315.977631,109.018677 315.996765,101.065933 
	C316.018585,92.013222 316.001892,92.013184 325.469360,91.985184 
z"/>
<path fill="#7E7E7E" opacity="1.000000" stroke="none" 
	d="
M137.517471,473.056152 
	C137.002533,477.577545 135.833984,482.081696 138.792053,486.737122 
	C132.982681,488.027466 126.943260,487.208160 120.502510,487.680176 
	C111.499817,488.195984 108.501015,484.275360 111.169357,476.036774 
	C111.757950,474.219482 113.065041,472.984100 115.581306,473.017609 
	C122.998146,473.006531 130.024628,473.018311 137.517471,473.056152 
z"/>
<path fill="#999999" opacity="1.000000" stroke="none" 
	d="
M239.586029,359.255371 
	C242.689499,358.355316 245.495056,357.433594 248.742950,358.905334 
	C239.610336,369.651093 228.894119,378.988159 218.366486,388.974823 
	C218.060989,386.340698 218.058350,383.559479 218.063980,380.314392 
	C222.755920,370.562866 230.553757,364.514923 239.586029,359.255371 
z"/>
<path fill="#B3B3B3" opacity="1.000000" stroke="none" 
	d="
M136.504532,125.069008 
	C141.606049,124.947464 146.366043,124.988647 151.596756,125.078293 
	C149.488342,128.814499 149.918198,133.034378 149.927856,137.640747 
	C148.360703,139.287003 146.530060,138.924500 144.380768,139.001038 
	C141.073181,137.228043 137.842148,138.389450 134.327606,137.982330 
	C134.880081,133.762665 131.992828,128.863266 136.504532,125.069008 
z"/>
<path fill="#8B8B8B" opacity="1.000000" stroke="none" 
	d="
M347.387878,55.673645 
	C345.240570,55.942059 343.498383,55.964851 341.320709,55.965904 
	C340.923676,46.685902 340.950989,37.427567 341.004547,28.169382 
	C341.040009,22.041325 342.328522,20.882996 348.834564,21.554874 
	C349.667999,32.179810 349.369263,42.473301 349.009766,52.765965 
	C348.973846,53.793499 348.534821,54.694191 347.387878,55.673645 
z"/>
<path fill="#999999" opacity="1.000000" stroke="none" 
	d="
M173.092087,55.472279 
	C171.400024,55.954987 169.640244,55.977692 167.441040,56.000793 
	C165.269241,54.669571 164.832932,52.795860 164.789871,50.749344 
	C164.634033,43.344524 164.571960,35.939716 164.850861,28.536600 
	C164.948074,25.955835 165.652939,23.663300 168.569733,22.110336 
	C172.917740,21.713972 172.961929,24.515631 172.978668,27.162788 
	C173.037323,36.445675 173.015594,45.729073 173.092087,55.472279 
z"/>
<path fill="#8B8B8B" opacity="1.000000" stroke="none" 
	d="
M168.827591,21.582523 
	C165.347580,30.911068 167.638641,40.345142 167.031601,49.568607 
	C166.911530,51.392864 167.011230,53.231586 167.005615,55.532410 
	C165.582260,55.999733 164.162903,55.998280 162.318329,55.972076 
	C161.929276,46.489929 161.963821,37.032524 162.002289,27.575132 
	C162.024704,22.065800 162.928040,21.207771 168.827591,21.582523 
z"/>
<path fill="#999999" opacity="1.000000" stroke="none" 
	d="
M346.996460,56.164795 
	C346.985718,46.988491 347.007935,38.057652 346.978699,29.126976 
	C346.971008,26.775900 347.032562,24.483130 348.848389,22.225975 
	C352.198395,22.729799 351.994171,25.279261 351.996735,27.715612 
	C352.006195,36.816994 352.010315,45.918385 352.063538,55.482880 
	C350.661499,56.231213 349.212402,56.516434 347.400635,56.851505 
	C347.037964,56.901352 347.010162,56.410320 346.996460,56.164795 
z"/>
<path fill="#999999" opacity="1.000000" stroke="none" 
	d="
M120.531754,487.877167 
	C126.008377,486.257202 132.059845,487.472382 138.510590,487.076111 
	C138.976105,487.073212 138.976273,487.456512 138.972321,487.648132 
	C132.976303,487.871521 126.984245,487.903259 120.531754,487.877167 
z"/>
<path fill="#999999" opacity="1.000000" stroke="none" 
	d="
M299.533173,487.872742 
	C304.761505,486.479248 310.486908,487.022034 316.568481,487.658752 
	C311.281982,487.874084 305.637451,487.903168 299.533173,487.872742 
z"/>
<path fill="#999999" opacity="1.000000" stroke="none" 
	d="
M214.267944,487.903961 
	C214.244751,487.650940 214.470016,487.593384 214.828033,487.761444 
	C214.938675,487.827789 214.494263,487.940094 214.267944,487.903961 
z"/>
<path fill="#999999" opacity="1.000000" stroke="none" 
	d="
M182.980499,412.000000 
	C182.980560,355.849579 182.961182,300.199127 183.048172,244.548843 
	C183.051865,242.188919 181.571899,238.001282 185.140427,237.937164 
	C188.934830,237.868973 187.957184,242.129852 187.958954,244.767639 
	C188.006210,314.913788 187.996689,385.059998 187.995056,455.206177 
	C187.995041,456.205688 188.008224,457.207184 187.953247,458.204315 
	C187.847183,460.128204 187.411407,462.286987 185.169724,462.251282 
	C182.541519,462.209381 183.023621,459.694641 183.017548,457.986633 
	C182.963669,442.824585 182.982880,427.662231 182.980499,412.000000 
z"/>
<path fill="#999999" opacity="1.000000" stroke="none" 
	d="
M200.966675,258.000488 
	C200.976685,252.002380 200.953995,246.503708 201.018585,241.006058 
	C201.036041,239.520859 201.096771,237.685852 203.166183,237.709335 
	C204.926193,237.729294 205.652771,239.240128 205.829758,240.821884 
	C205.995789,242.305740 205.981308,243.814041 205.981430,245.311584 
	C205.987701,315.124664 206.000473,384.937775 205.936447,454.750793 
	C205.933914,457.499176 207.169998,462.115997 203.116531,462.033478 
	C199.359192,461.957001 201.052872,457.435303 201.048920,454.943268 
	C200.945511,389.462402 200.966812,323.981323 200.966675,258.000488 
z"/>
<path fill="#999999" opacity="1.000000" stroke="none" 
	d="
M169.999207,360.000000 
	C169.999008,392.157379 170.013580,423.814758 169.970627,455.472076 
	C169.967178,458.011414 170.769379,462.020966 167.396301,462.085785 
	C163.462265,462.161316 165.072540,458.000610 165.069534,455.712494 
	C164.977005,385.399963 164.975555,315.087219 165.077545,244.774704 
	C165.080780,242.537369 163.318848,238.370590 167.482758,238.489197 
	C171.202789,238.595154 169.940765,242.618225 169.945572,245.033630 
	C170.021545,283.188995 169.999100,321.344513 169.999207,360.000000 
z"/>
<path fill="#999999" opacity="1.000000" stroke="none" 
	d="
M146.997559,340.000000 
	C146.997635,307.842712 146.966080,276.185303 147.067108,244.528320 
	C147.074036,242.356506 145.627014,238.510681 149.253052,238.464859 
	C153.172241,238.415344 151.947357,242.391830 151.949524,244.786331 
	C152.013000,314.932220 152.000931,385.078125 152.000900,455.224060 
	C152.000900,455.390686 152.019836,455.559967 151.997284,455.723511 
	C151.682022,458.009186 152.916595,461.627869 149.245529,461.578125 
	C145.782135,461.531158 147.060562,458.010376 147.056351,455.965668 
	C146.976959,417.477234 146.997726,378.988586 146.997559,340.000000 
z"/>
<path fill="#999999" opacity="1.000000" stroke="none" 
	d="
M154.959198,175.000000 
	C154.959076,189.793289 154.966873,204.086578 154.947372,218.379837 
	C154.945343,219.868530 154.928253,221.385162 154.649780,222.837357 
	C154.390762,224.188004 153.576721,225.380463 152.006439,225.384003 
	C150.431961,225.387558 149.644974,224.186630 149.357056,222.841309 
	C149.082520,221.558578 149.058121,220.205643 149.057144,218.883469 
	C149.040955,196.944962 149.045578,175.006424 149.047134,153.067902 
	C149.047180,152.403198 149.040482,151.737106 149.078278,151.074036 
	C149.188614,149.139099 149.539566,147.244049 151.999908,147.240875 
	C154.461029,147.237701 154.902267,149.128067 154.914307,151.066040 
	C154.962860,158.877151 154.949677,166.688644 154.959198,175.000000 
z"/>
<path fill="#999999" opacity="1.000000" stroke="none" 
	d="
M169.999207,213.958191 
	C169.962570,217.281281 169.996567,220.115417 169.859756,222.941299 
	C169.790222,224.377640 169.056122,225.606049 167.425476,225.572266 
	C165.780563,225.538162 165.228500,224.247116 165.095871,222.822784 
	C164.988037,221.664719 164.998138,220.493378 164.997879,219.327927 
	C164.992981,197.170074 164.992523,175.012238 164.999512,152.854385 
	C164.999878,151.689819 165.020065,150.520081 165.130615,149.362259 
	C165.233261,148.287125 165.773682,147.454849 166.939606,147.310791 
	C168.278061,147.145432 169.345413,147.778641 169.596130,149.038773 
	C169.917099,150.651871 169.981537,152.335861 169.983521,153.989517 
	C170.007339,173.814941 169.999084,193.640396 169.999207,213.958191 
z"/>
<path fill="#999999" opacity="1.000000" stroke="none" 
	d="
M195.958771,160.016083 
	C195.974426,156.355347 195.952271,153.190643 196.023209,150.028030 
	C196.054840,148.617508 196.456711,147.278748 198.224243,147.281464 
	C199.822189,147.283920 200.610794,148.367554 200.787308,149.825775 
	C200.946640,151.142151 200.959549,152.481674 200.960144,153.811020 
	C200.969681,175.293549 200.967010,196.776077 200.966583,218.258606 
	C200.966568,218.924713 200.985168,219.591995 200.953506,220.256729 
	C200.850021,222.428925 200.923431,225.253082 198.108841,225.225906 
	C195.276794,225.198563 196.004272,222.292511 195.998825,220.464081 
	C195.939331,200.480515 195.959976,180.496704 195.958771,160.016083 
z"/>
<path fill="#999999" opacity="1.000000" stroke="none" 
	d="
M185.033340,157.055023 
	C185.033264,177.864380 185.034256,198.184402 185.030396,218.504410 
	C185.030151,219.836441 185.051559,221.172668 184.956589,222.499344 
	C184.859146,223.860962 184.615509,225.353745 182.850952,225.340012 
	C181.304962,225.328018 180.528244,224.073395 180.271393,222.710846 
	C180.027206,221.415375 180.024078,220.062592 180.023270,218.734924 
	C180.010040,196.915894 180.009430,175.096863 180.025253,153.277847 
	C180.026215,151.951736 180.055756,150.599380 180.313354,149.307343 
	C180.558945,148.075500 181.439377,147.255707 182.797531,147.279953 
	C184.253326,147.305923 184.853363,148.298645 184.910248,149.575073 
	C185.013947,151.902481 184.998825,154.235199 185.033340,157.055023 
z"/>
<path fill="#000000" opacity="1.000000" stroke="none" 
	d="
M294.428284,359.028809 
	C294.889404,366.145142 294.889404,373.239258 294.889404,381.511536 
	C287.203766,373.780365 280.212524,366.747681 273.166504,359.381836 
	C280.063538,359.034607 287.015350,359.020599 294.428284,359.028809 
z"/>
<path fill="#000000" opacity="1.000000" stroke="none" 
	d="
M239.415894,359.034668 
	C233.803650,366.953217 225.060211,372.110229 218.394775,379.787903 
	C218.048706,374.059998 218.172531,368.263458 217.939499,362.481354 
	C217.823044,359.591766 218.844208,358.854156 221.583847,358.943817 
	C227.369003,359.133209 233.164536,359.005646 239.415894,359.034668 
z"/>
<path fill="#000000" opacity="1.000000" stroke="none" 
	d="
M294.427948,333.029053 
	C294.927002,333.777191 294.964844,334.503265 294.946899,335.589539 
	C270.599335,335.966644 246.307495,336.005798 222.015930,335.940704 
	C220.671341,335.937103 218.109421,337.170319 218.154861,334.466431 
	C218.199280,331.825623 220.729630,333.065491 222.088852,333.060913 
	C246.047943,332.980408 270.007385,333.005066 294.427948,333.029053 
z"/>
<path fill="#999999" opacity="1.000000" stroke="none" 
	d="
M361.997803,414.000000 
	C361.997864,357.347015 361.973633,301.193970 362.081970,245.041199 
	C362.086578,242.654587 360.276764,238.276810 364.714539,238.415131 
	C368.528900,238.534058 366.928192,242.652786 366.931122,244.986618 
	C367.019440,315.136078 367.017242,385.285706 366.941895,455.435211 
	C366.939331,457.826874 368.358917,461.955688 364.857025,462.131897 
	C360.622620,462.344971 362.089752,457.991974 362.064270,455.489349 
	C361.925201,441.827423 361.997925,428.163330 361.997803,414.000000 
z"/>
<path fill="#999999" opacity="1.000000" stroke="none" 
	d="
M379.995605,424.000000 
	C379.995636,364.017456 379.975037,304.534882 380.073120,245.052490 
	C380.076935,242.741104 378.409271,238.575699 382.223083,238.502350 
	C386.399689,238.421982 384.934174,242.750198 384.937012,245.253830 
	C385.016479,315.233185 385.010925,385.212677 384.961395,455.192108 
	C384.959534,457.827454 385.983307,462.100098 382.190826,462.070251 
	C378.585846,462.041870 380.106812,457.851410 380.068268,455.489716 
	C379.899689,445.162170 379.995667,434.830292 379.995605,424.000000 
z"/>
<path fill="#999999" opacity="1.000000" stroke="none" 
	d="
M349.006958,384.000000 
	C349.006958,407.993378 349.007996,431.486755 349.004425,454.980133 
	C349.004211,456.479309 349.028046,457.982300 348.932159,459.476532 
	C348.844757,460.838562 348.596344,462.332581 346.827667,462.315216 
	C345.284943,462.300079 344.476807,461.059082 344.248199,459.688110 
	C344.003693,458.221985 344.009247,456.704071 344.009033,455.208771 
	C343.999054,385.061890 344.000427,314.915009 344.000488,244.768112 
	C344.000488,244.601486 343.981506,244.432190 344.004150,244.268646 
	C344.320190,241.984192 343.084442,238.366653 346.766235,238.424942 
	C350.236023,238.479843 348.943970,241.999481 348.947327,244.039429 
	C349.024231,290.526184 349.006775,337.013123 349.006958,384.000000 
z"/>
<path fill="#999999" opacity="1.000000" stroke="none" 
	d="
M326.002441,279.000000 
	C326.002655,267.169556 325.990295,255.839096 326.018372,244.508713 
	C326.022064,243.020660 326.083405,241.501266 326.392426,240.054993 
	C326.661194,238.796967 327.690796,238.145355 329.031769,238.284363 
	C330.203766,238.405853 330.774078,239.221924 330.871704,240.300934 
	C330.991547,241.625168 331.014252,242.961624 331.014374,244.292786 
	C331.020447,314.941406 331.019714,385.590027 331.019470,456.238647 
	C331.019470,456.738525 331.064178,457.244019 331.005981,457.737213 
	C330.803986,459.449799 331.542816,462.070404 329.071533,462.203766 
	C326.133240,462.362335 326.043427,459.633881 326.034332,457.454346 
	C325.988373,446.457367 326.003296,435.460114 326.002991,424.462952 
	C326.001648,376.141968 326.002441,327.820984 326.002441,279.000000 
z"/>
<path fill="#999999" opacity="1.000000" stroke="none" 
	d="
M359.040375,169.000244 
	C359.046051,162.849289 359.025269,157.198059 359.071198,151.547363 
	C359.087860,149.496918 359.230347,147.238266 362.017548,147.257767 
	C364.799316,147.277222 364.924286,149.548798 364.926300,151.589890 
	C364.948975,174.526459 364.952209,197.463104 364.927185,220.399673 
	C364.924774,222.585297 364.804993,225.305618 361.974792,225.286743 
	C359.151947,225.267944 359.070618,222.542084 359.066559,220.359650 
	C359.035156,203.406540 359.043945,186.453339 359.040375,169.000244 
z"/>
<path fill="#999999" opacity="1.000000" stroke="none" 
	d="
M349.006958,190.000000 
	C349.006744,200.146423 349.013947,209.792862 348.997528,219.439255 
	C348.995239,220.765808 348.966064,222.104691 348.784302,223.414993 
	C348.608978,224.679276 347.834717,225.613922 346.473145,225.586716 
	C345.118439,225.559692 344.374817,224.598679 344.209900,223.339218 
	C344.038086,222.026962 344.009125,220.689087 344.008453,219.362366 
	C343.997375,197.408432 344.000366,175.454514 344.001770,153.500580 
	C344.001831,152.669067 343.985657,151.835724 344.032990,151.006424 
	C344.130981,149.288712 344.324341,147.371735 346.542297,147.402466 
	C348.759949,147.433197 348.952423,149.379135 348.965942,151.080963 
	C349.014679,157.234329 349.002075,163.388199 349.005981,169.541885 
	C349.010223,176.194595 349.006958,182.847290 349.006958,190.000000 
z"/>
<path fill="#999999" opacity="1.000000" stroke="none" 
	d="
M379.997559,203.999481 
	C379.993164,209.828888 380.029785,215.158951 379.964386,220.487778 
	C379.937653,222.667542 379.848053,225.393661 376.917267,225.227798 
	C374.455109,225.088455 375.016846,222.467072 375.013611,220.756012 
	C374.970306,197.772217 374.966766,174.788269 375.016113,151.804489 
	C375.020050,149.976212 374.366150,147.203568 377.466400,147.367981 
	C380.188660,147.512344 379.971436,150.067261 379.974854,152.035797 
	C380.004608,169.190384 379.995270,186.345032 379.997559,203.999481 
z"/>
<path fill="#999999" opacity="1.000000" stroke="none" 
	d="
M328.965759,211.981064 
	C328.965851,192.330643 328.963562,173.177032 328.970764,154.023422 
	C328.971313,152.525833 328.982941,151.024292 329.090729,149.531906 
	C329.183624,148.245728 329.789490,147.271027 331.240479,147.274750 
	C332.586639,147.278214 333.482941,148.097549 333.694183,149.341019 
	C333.943054,150.805954 333.975250,152.320007 333.976379,153.812881 
	C333.992401,175.298218 333.987549,196.783585 333.986542,218.268936 
	C333.986511,219.101654 334.004395,219.935867 333.962463,220.766800 
	C333.858948,222.818329 333.662354,225.268234 331.117706,225.261063 
	C328.528931,225.253784 329.068024,222.686035 329.001678,220.970917 
	C328.892242,218.143677 328.968079,215.309265 328.965759,211.981064 
z"/>
<path fill="#8B8B8B" opacity="1.000000" stroke="none" 
	d="
M308.011719,285.000000 
	C308.011902,271.171173 308.002533,257.842316 308.025604,244.513535 
	C308.028168,243.023026 308.050629,241.497177 308.364380,240.052979 
	C308.655487,238.712723 309.505402,237.528549 311.127655,237.701218 
	C312.590637,237.856934 312.847198,239.134689 312.931732,240.314438 
	C313.038696,241.807465 313.022552,243.310837 313.022614,244.809753 
	C313.026184,314.952728 313.025757,385.095703 313.025513,455.238678 
	C313.025513,456.071716 313.091949,456.912079 313.005890,457.736298 
	C312.826965,459.449829 313.549805,462.075073 311.079407,462.201935 
	C308.153564,462.352173 308.054047,459.618988 308.044922,457.441803 
	C307.997437,446.112518 308.012604,434.782928 308.012268,423.453461 
	C308.010803,377.468964 308.011688,331.484497 308.011719,285.000000 
z"/>
<path fill="#8B8B8B" opacity="1.000000" stroke="none" 
	d="
M318.029602,167.000397 
	C318.029541,184.648636 318.031708,201.797012 318.024719,218.945389 
	C318.024200,220.275879 318.028931,221.612976 317.903442,222.934875 
	C317.789124,224.138901 317.396942,225.332581 315.904480,225.346283 
	C314.558167,225.358643 313.727570,224.363632 313.464355,223.210770 
	C313.135712,221.771393 313.044922,220.252335 313.043274,218.767471 
	C313.019012,196.957428 313.025635,175.147354 313.030273,153.337280 
	C313.030487,152.339111 313.028320,151.336060 313.120300,150.343903 
	C313.270538,148.723007 313.884583,147.305862 315.754486,147.302734 
	C317.847412,147.299225 317.975098,148.987854 317.988129,150.518097 
	C318.033569,155.845322 318.020416,161.173019 318.029602,167.000397 
z"/>
<path fill="#8B8B8B" opacity="1.000000" stroke="none" 
	d="
M134.003448,450.954651 
	C133.985199,454.111816 134.019882,456.779114 133.926559,459.441895 
	C133.879211,460.793091 133.629028,462.303345 131.857605,462.312683 
	C130.303940,462.320923 129.517929,461.074158 129.257492,459.710968 
	C129.010147,458.416168 129.008820,457.062073 129.008621,455.734070 
	C128.998291,385.257233 128.998199,314.780426 129.010071,244.303604 
	C129.010284,242.976685 129.045609,241.627579 129.284332,240.329239 
	C129.514664,239.076584 130.406433,238.273651 131.746841,238.271912 
	C133.197784,238.270020 133.806717,239.247910 133.886887,240.536758 
	C133.990189,242.197250 133.999115,243.865417 133.999222,245.530273 
	C134.004105,313.841156 134.003418,382.152008 134.003448,450.954651 
z"/>
<path fill="#8B8B8B" opacity="1.000000" stroke="none" 
	d="
M139.013428,161.010315 
	C139.013351,180.490952 139.014404,199.474167 139.010681,218.457397 
	C139.010422,219.789154 139.034103,221.125183 138.938950,222.451492 
	C138.842285,223.798965 138.661209,225.317551 136.886932,225.338425 
	C135.332260,225.356720 134.544067,224.108124 134.275452,222.751114 
	C134.019821,221.459641 134.013458,220.105560 134.012604,218.778931 
	C133.998520,196.964874 134.000351,175.150818 134.009064,153.336761 
	C134.009537,152.173813 134.027573,151.001617 134.170776,149.850311 
	C134.353500,148.381302 135.150696,147.313034 136.731476,147.294495 
	C138.494415,147.273819 138.920364,148.605728 138.948074,150.023254 
	C139.016357,153.518906 138.997330,157.016251 139.013428,161.010315 
z"/>
</svg>