<svg version="1.1" id="Layer_1" xmlns="http://www.w3.org/2000/svg" xmlns:xlink="http://www.w3.org/1999/xlink" x="0px" y="0px"
	 width="100%" viewBox="0 0 512 512" enable-background="new 0 0 512 512" xml:space="preserve">
<path fill="#FFAB15" opacity="1.000000" stroke="none" 
	d="
M171.186218,247.040543 
	C169.373154,239.493118 167.405823,231.978775 165.779037,224.391388 
	C162.365768,208.471664 164.027878,192.905457 169.700043,177.746628 
	C174.775345,164.182922 183.143127,152.702148 193.656052,142.988159 
	C208.479630,129.291077 225.656967,119.165115 244.547852,112.050964 
	C248.225433,110.666023 250.571579,109.199379 250.125870,104.535141 
	C249.589813,98.925507 249.861496,93.220985 250.041245,87.565742 
	C250.212265,82.185326 252.333252,80.062538 256.920868,79.991554 
	C260.932404,79.929482 263.018890,81.750511 263.006378,85.859177 
	C262.982605,93.676216 262.999481,101.493393 262.999481,109.485977 
	C281.034485,115.920174 297.823608,124.593666 312.726837,136.453552 
	C331.840210,151.663849 344.945068,170.948334 348.861816,195.417877 
	C351.649902,212.836105 348.602173,229.788467 341.723206,246.632919 
	C284.486603,247.069885 227.836411,247.055206 171.186218,247.040543 
z"/>
<path fill="#F7F1E7" opacity="1.000000" stroke="none" 
	d="
M488.123138,496.940125 
	C492.953308,496.959595 497.786530,497.093201 502.612732,496.963898 
	C506.793365,496.851898 509.796021,497.992645 509.988556,502.758301 
	C510.136810,506.428131 506.955200,509.642456 502.901215,509.988922 
	C501.908997,510.073669 500.903351,510.001526 499.903900,510.001526 
	C337.993286,510.001526 176.082672,510.001648 14.172068,510.000916 
	C7.154449,510.000885 4.074543,507.942322 4.000986,503.196320 
	C3.938534,499.166779 5.997437,497.082855 9.966100,497.017731 
	C14.962003,496.935730 19.960236,496.995667 25.893511,496.984802 
	C34.608685,496.931915 42.387810,496.888580 50.609894,496.904877 
	C54.706291,496.979492 58.359730,496.994476 62.480629,497.015259 
	C71.305527,497.004364 79.662979,496.987732 88.486893,496.987793 
	C108.941994,496.975403 128.930634,496.946289 149.392365,496.942139 
	C156.026978,496.978088 162.210846,496.670929 168.342850,497.101776 
	C173.155762,497.439941 174.110092,495.574615 174.089554,491.149872 
	C173.928009,456.345825 173.999954,421.540710 174.000015,386.735901 
	C174.000046,368.917175 173.978394,351.098419 174.013550,333.279755 
	C174.024124,327.920105 175.883453,326.093384 181.160034,325.990082 
	C184.155945,325.931458 187.152344,325.899414 190.593613,325.878998 
	C194.633133,325.874878 198.227554,325.847137 202.299210,325.866882 
	C208.589417,325.866058 214.402405,325.817810 220.652496,325.819977 
	C224.679092,325.867828 228.268570,325.865234 232.333893,325.900879 
	C238.928955,325.903412 245.048172,325.867767 251.610474,325.863464 
	C255.647949,325.875671 259.242340,325.856537 263.313538,325.880188 
	C269.908936,325.901306 276.027527,325.879608 282.591370,325.880432 
	C286.623901,325.864929 290.211212,325.826874 294.276306,325.844849 
	C300.558228,325.878296 306.362427,325.855774 312.609741,325.864471 
	C316.647522,325.876282 320.242157,325.856873 324.307861,325.879944 
	C325.776978,325.943604 326.774994,325.979187 327.773102,325.983734 
	C339.789703,326.038269 339.992676,326.242340 339.992676,338.346039 
	C339.992737,389.433594 340.030548,440.521240 339.918701,491.608551 
	C339.910034,495.559906 340.728455,497.327820 345.102997,497.088928 
	C351.740417,496.726440 358.410156,496.956177 365.527344,496.961121 
	C385.983765,496.980286 405.978973,496.972626 426.444275,496.978760 
	C434.994202,496.951691 443.074036,496.910889 451.602478,496.919434 
	C455.699890,496.978394 459.348663,496.988037 463.466187,497.006042 
	C471.997681,496.989655 480.060425,496.964905 488.123138,496.940125 
M186.133652,418.115082 
	C186.133652,444.309357 186.133652,470.503601 186.133652,496.894958 
	C196.482498,496.894958 206.255722,496.894958 216.951462,497.048920 
	C243.956680,496.996399 270.961884,496.943878 298.898346,497.041992 
	C308.442474,497.041992 317.986603,497.041992 327.613190,497.041992 
	C327.613190,469.937134 327.613190,443.578308 327.790466,416.270660 
	C327.790466,390.333252 327.790466,364.395844 327.790466,338.145264 
	C280.402039,338.145264 233.533936,338.145264 186.260986,338.145264 
	C186.260986,364.685272 186.260986,390.950104 186.133652,418.115082 
z"/>
<path fill="#DFD5C6" opacity="1.000000" stroke="none" 
	d="
M488.068237,496.478180 
	C480.060425,496.964905 471.997681,496.989655 463.494324,496.538269 
	C463.060608,468.451202 463.070557,440.840332 463.073700,413.229431 
	C463.077179,382.291870 463.169098,351.353729 462.969849,320.417450 
	C462.940826,315.914795 464.291138,314.673004 468.622192,314.908844 
	C475.090240,315.261017 481.591064,315.010986 488.077942,315.017181 
	C488.056427,375.350189 488.034882,435.683228 488.068237,496.478180 
z"/>
<path fill="#E0D6C7" opacity="1.000000" stroke="none" 
	d="
M50.166935,496.845245 
	C42.387810,496.888580 34.608685,496.931915 26.353443,496.958191 
	C25.918144,457.110443 25.966560,417.279724 25.996634,377.449036 
	C26.012112,356.949249 25.994913,336.449493 26.431622,315.478821 
	C32.192799,315.005798 37.514832,315.001678 42.836864,315.001923 
	C50.078167,315.002258 50.076828,315.003693 50.080368,322.218353 
	C50.108917,380.427307 50.138004,438.636292 50.166935,496.845245 
z"/>
<path fill="#F3EDE1" opacity="1.000000" stroke="none" 
	d="
M171.013733,247.364594 
	C227.836411,247.055206 284.486603,247.069885 341.599121,246.981842 
	C343.367462,249.304108 345.694000,251.742737 345.661835,254.149841 
	C345.635315,256.133575 342.814484,258.079956 341.231995,260.042908 
	C340.703033,259.840668 340.174072,259.638458 339.645111,259.436218 
	C340.429871,264.993683 341.214600,270.551147 341.579437,276.545868 
	C284.736298,276.974487 228.313049,276.965820 171.889801,276.957153 
	C172.581360,272.362366 173.403473,267.781097 173.882278,263.164246 
	C174.020050,261.835815 173.610123,259.725098 172.697739,259.131714 
	C167.037582,255.450348 166.530441,252.998764 171.013733,247.364594 
M271.665344,259.010925 
	C270.193451,259.456757 268.721527,259.902618 267.249634,260.348480 
	C268.035004,262.916565 268.187714,266.059937 269.821442,267.856537 
	C270.967712,269.117065 275.067139,269.572540 276.188873,268.556335 
	C278.112579,266.813629 278.739044,263.638977 279.910156,261.065521 
	C277.966736,260.380524 276.032593,259.666809 274.072876,259.032074 
	C273.621582,258.885925 273.082581,259.010529 271.665344,259.010925 
M300.730499,263.643158 
	C300.795410,263.968994 300.874054,264.292755 300.923035,264.620972 
	C301.459442,268.215088 303.868805,269.843597 307.167145,269.699921 
	C310.503693,269.554535 313.525879,265.007965 312.947235,261.521576 
	C312.229156,257.194885 308.762268,259.606812 306.534363,259.057831 
	C305.438263,258.787720 304.218658,259.041473 303.055969,259.014587 
	C300.151184,258.947418 299.661499,260.478027 300.730499,263.643158 
M254.421097,269.177216 
	C256.795837,268.678833 259.913574,268.913910 261.334808,267.474243 
	C262.735382,266.055511 263.152832,262.723846 262.545135,260.660431 
	C262.238831,259.620300 258.719238,259.151917 256.630859,259.082886 
	C250.835876,258.891357 249.258118,261.752411 252.065430,267.028931 
	C252.435104,267.723755 253.157166,268.231110 254.421097,269.177216 
M285.086945,259.291962 
	C285.087616,261.900665 284.208954,265.038666 285.361725,266.953918 
	C286.318054,268.542786 289.873383,269.687195 291.912048,269.264954 
	C295.815704,268.456482 296.606781,264.699585 295.741669,261.358551 
	C295.450165,260.232758 292.644806,259.505188 290.872589,259.091522 
	C289.313965,258.727722 287.593689,259.056519 285.086945,259.291962 
M201.006989,262.323242 
	C201.625946,267.439423 205.247330,270.759796 208.910767,269.485107 
	C211.975296,268.418823 213.555252,266.196136 212.951050,262.954285 
	C212.696259,261.587311 211.416443,259.183105 211.015274,259.265259 
	C207.682922,259.947784 203.321335,256.438019 201.006989,262.323242 
M218.121613,265.781128 
	C219.250946,266.929077 220.192215,268.424988 221.546387,269.156921 
	C225.009552,271.028809 227.535690,268.683563 228.971695,266.167725 
	C229.937866,264.474976 229.659348,260.014343 229.278961,259.934601 
	C226.115570,259.271515 222.739670,258.960785 219.570419,259.455719 
	C218.785141,259.578339 218.519608,263.029236 218.121613,265.781128 
M322.677765,269.928040 
	C327.610260,268.642090 329.663086,266.053528 328.972595,261.714020 
	C328.190247,256.797363 324.290955,259.549438 321.829987,259.148438 
	C320.383209,258.912689 317.547058,259.803680 317.378387,260.613403 
	C316.987335,262.490692 317.465240,264.800232 318.306305,266.600189 
	C318.931946,267.939148 320.679779,268.753693 322.677765,269.928040 
M195.029999,259.071442 
	C193.374908,259.051178 191.673035,258.780548 190.077393,259.078613 
	C188.357803,259.399811 185.254440,260.487427 185.309692,260.837891 
	C185.736694,263.546539 186.194183,266.679474 187.881104,268.582977 
	C188.750443,269.563934 192.701691,269.053986 194.282166,267.889801 
	C197.035172,265.861877 198.178818,262.663788 195.029999,259.071442 
M246.005554,261.552612 
	C245.044067,257.126892 241.504578,259.241364 239.138519,259.111481 
	C233.984436,258.828461 232.187057,261.814880 235.180466,265.978760 
	C236.482208,267.789520 239.443451,269.572083 241.502808,269.415741 
	C245.101593,269.142517 246.488327,266.055389 246.005554,261.552612 
z"/>
<path fill="#B3A794" opacity="1.000000" stroke="none" 
	d="
M50.609894,496.904877 
	C50.138004,438.636292 50.108917,380.427307 50.080368,322.218353 
	C50.076828,315.003693 50.078167,315.002258 42.836864,315.001923 
	C37.514832,315.001678 32.192799,315.005798 26.397240,315.012329 
	C22.194344,314.886353 20.168743,312.998260 20.009140,309.232941 
	C19.856472,305.631287 21.225601,303.256317 26.011299,302.995544 
	C47.248276,303.002258 67.622749,303.016663 87.987411,303.480957 
	C87.958107,307.467621 87.938614,311.004425 87.521774,314.642395 
	C85.788094,314.915192 84.451759,315.086792 82.646187,315.176147 
	C77.686310,315.062012 73.195709,315.011292 68.705032,315.002838 
	C62.089134,314.990387 62.088421,315.003204 62.085575,321.839600 
	C62.061287,380.229553 62.037270,438.619537 62.013172,497.009491 
	C58.359730,496.994476 54.706291,496.979492 50.609894,496.904877 
z"/>
<path fill="#B3A794" opacity="1.000000" stroke="none" 
	d="
M488.456665,315.007446 
	C481.591064,315.010986 475.090240,315.261017 468.622192,314.908844 
	C464.291138,314.673004 462.940826,315.914795 462.969849,320.417450 
	C463.169098,351.353729 463.077179,382.291870 463.073700,413.229431 
	C463.070557,440.840332 463.060608,468.451202 463.025574,496.529907 
	C459.348663,496.988037 455.699890,496.978394 451.573273,496.463867 
	C451.086700,438.053497 451.078033,380.148010 451.068817,322.242554 
	C451.068634,320.911407 451.473297,319.382660 450.952759,318.300110 
	C450.329956,317.004730 448.951630,315.207458 447.835541,315.160156 
	C442.197754,314.921082 436.538788,315.180450 430.490814,315.196960 
	C428.758362,314.937775 427.422394,314.746674 426.072052,314.123230 
	C426.039276,310.136414 426.020844,306.581970 426.470825,303.018555 
	C447.317047,303.001160 467.694794,302.992645 488.072540,302.984192 
	C491.550537,302.973938 493.537811,304.844696 493.948273,308.143738 
	C494.416809,311.909637 492.639526,314.278809 488.456665,315.007446 
z"/>
<path fill="#EFE9DA" opacity="1.000000" stroke="none" 
	d="
M76.108231,213.960083 
	C78.073616,215.397263 80.989227,216.442337 81.781960,218.363403 
	C82.974731,221.253937 81.895370,224.375351 79.060951,226.615402 
	C78.040558,227.421814 77.080444,229.062378 77.098488,230.307709 
	C77.279915,242.832748 77.624413,255.356293 78.038719,267.876434 
	C78.129295,270.613708 78.678909,273.335815 78.593201,276.520813 
	C63.739620,276.967987 49.309963,276.959290 34.880302,276.950623 
	C35.252892,267.243011 35.575180,257.533112 36.021332,247.828888 
	C36.216373,243.586685 36.817848,239.361053 36.953465,235.118881 
	C37.079227,231.184921 37.545368,227.467712 33.285110,224.420441 
	C29.660530,221.827896 31.891409,216.618362 37.909927,214.148895 
	C49.061375,214.527481 59.448772,214.825653 69.838211,214.943588 
	C71.924232,214.967285 74.018028,214.305710 76.108231,213.960083 
z"/>
<path fill="#EFE9DA" opacity="1.000000" stroke="none" 
	d="
M476.110138,213.959702 
	C478.070007,215.405045 480.994324,216.460495 481.771881,218.383850 
	C483.052521,221.551682 481.712128,224.743103 478.613068,226.889816 
	C477.869629,227.404831 477.044189,228.523483 477.077606,229.330521 
	C477.640381,242.920914 478.344360,256.505432 478.985382,270.092743 
	C479.078979,272.077209 479.010071,274.069305 478.592834,276.517395 
	C463.739624,276.968109 449.309906,276.959351 434.880219,276.950562 
	C435.251923,267.575714 435.575562,258.198578 436.015961,248.826935 
	C436.230865,244.253769 436.809265,239.695435 436.953217,235.121887 
	C437.076904,231.191666 437.563324,227.471237 433.289734,224.422958 
	C429.656769,221.831619 431.886841,216.620361 437.910156,214.149078 
	C449.061951,214.527542 459.449829,214.825714 469.839783,214.943588 
	C471.925903,214.967270 474.019806,214.305450 476.110138,213.959702 
z"/>
<path fill="#F7F2E8" opacity="1.000000" stroke="none" 
	d="
M171.428741,276.976990 
	C228.313049,276.965820 284.736298,276.974487 341.635101,276.970154 
	C348.429291,276.975830 354.747955,276.994446 361.480469,277.430939 
	C358.267578,281.596252 358.642517,285.307953 361.525940,288.996094 
	C291.373688,288.997528 221.689392,288.995880 152.162399,288.684937 
	C156.198074,284.524628 153.916641,280.845093 152.007278,277.155182 
	C158.327408,277.102386 164.647537,277.049622 171.428741,276.976990 
z"/>
<path fill="#FFBB43" opacity="1.000000" stroke="none" 
	d="
M428.915283,151.914291 
	C425.242035,136.230392 430.934357,123.980148 442.707703,114.182861 
	C447.081726,110.542976 450.621613,107.458237 450.152161,100.997459 
	C449.701202,94.790176 452.168152,92.937775 457.830017,92.956856 
	C461.688446,92.969856 463.713196,94.848686 462.907990,98.422478 
	C461.067474,106.590958 466.410187,110.781425 471.636414,114.885002 
	C483.087189,123.876045 488.595520,138.320724 484.576660,151.519196 
	C465.732574,151.951660 447.323914,151.932983 428.915283,151.914291 
z"/>
<path fill="#FFBB43" opacity="1.000000" stroke="none" 
	d="
M28.915621,151.914124 
	C25.224972,136.206100 31.012781,123.887871 42.671803,114.209938 
	C47.033546,110.589355 50.684097,107.548409 50.154411,101.050827 
	C49.663185,95.025017 52.073124,93.173447 57.255608,92.928703 
	C61.473064,92.729546 63.567440,95.123131 62.837811,98.469452 
	C60.917038,107.278778 67.248871,111.235580 72.363907,115.640442 
	C83.242523,125.008690 88.472366,137.688263 84.576645,151.518845 
	C65.732536,151.951569 47.324078,151.932846 28.915621,151.914124 
z"/>
<path fill="#FFBB43" opacity="1.000000" stroke="none" 
	d="
M367.870850,207.982056 
	C365.323822,196.628403 367.179199,186.214737 375.145386,177.483978 
	C379.019958,173.237549 383.671631,169.708267 387.715637,165.602310 
	C388.672485,164.630829 388.672485,162.659683 388.984589,161.122360 
	C389.623901,157.973618 389.512573,154.431351 391.009857,151.786911 
	C391.930664,150.160660 395.440033,148.927841 397.445496,149.310211 
	C399.209595,149.646545 401.963470,152.682419 401.752411,154.166687 
	C400.640900,161.984009 404.455292,166.381958 410.177551,170.982254 
	C419.531769,178.502396 425.476685,188.349228 424.963989,201.006805 
	C424.879639,203.089020 424.320221,205.151993 423.444092,207.640656 
	C404.562164,208.032318 386.216492,208.007187 367.870850,207.982056 
z"/>
<path fill="#FFBB43" opacity="1.000000" stroke="none" 
	d="
M90.178986,208.086212 
	C86.732742,196.045364 90.090912,185.616608 98.093124,176.537994 
	C101.115952,173.108536 104.613960,169.972961 108.331345,167.312653 
	C112.865303,164.067963 112.112892,159.626190 111.956528,155.263840 
	C111.835732,151.894150 113.537354,149.865250 116.436111,149.097717 
	C119.926224,148.173645 122.493423,149.854568 123.953056,153.105057 
	C124.409592,154.121689 125.119621,155.348969 124.901787,156.292404 
	C123.226631,163.547379 127.985725,167.201599 132.630692,171.229218 
	C139.364380,177.067947 145.253510,183.753693 146.396393,193.013290 
	C146.964462,197.615555 146.201233,202.382172 145.599182,207.538483 
	C126.831749,208.030426 108.505363,208.058319 90.178986,208.086212 
z"/>
<path fill="#E0D6C7" opacity="1.000000" stroke="none" 
	d="
M375.880768,276.947235 
	C377.252533,262.651978 378.636139,248.357880 379.988464,234.060791 
	C380.370392,230.022903 380.660858,225.976349 381.343353,221.311188 
	C387.423523,220.475906 393.154785,220.077759 398.883301,220.113510 
	C402.934021,220.138779 406.981018,220.751526 411.029694,221.102036 
	C412.009979,231.814941 413.056000,242.522400 413.944519,253.242905 
	C414.433197,259.139679 414.624298,265.060638 415.020081,270.965973 
	C415.137268,272.714630 415.494629,274.447205 415.456879,276.580566 
	C402.074799,276.965088 388.977783,276.956177 375.880768,276.947235 
z"/>
<path fill="#E0D6C7" opacity="1.000000" stroke="none" 
	d="
M97.881119,276.947388 
	C98.586861,271.486816 99.509285,266.043701 99.951637,260.561859 
	C100.781380,250.279572 101.301247,239.972595 102.023392,229.681046 
	C102.204536,227.099396 102.664253,224.537323 103.353172,221.337921 
	C109.438141,220.489914 115.166817,220.084930 120.893326,220.113434 
	C124.945953,220.133606 128.995651,220.740326 133.046661,221.085205 
	C134.021164,231.139160 135.019897,241.190857 135.958954,251.248123 
	C136.368958,255.639450 136.643723,260.043274 137.004028,264.439423 
	C137.322311,268.322723 137.674088,272.203217 137.589172,276.531494 
	C124.071884,276.967834 110.976501,276.957611 97.881119,276.947388 
z"/>
<path fill="#F7F2E8" opacity="1.000000" stroke="none" 
	d="
M76.058304,213.513672 
	C74.018028,214.305710 71.924232,214.967285 69.838211,214.943588 
	C59.448772,214.825653 49.061375,214.527481 38.282684,214.124405 
	C38.593895,197.647537 39.295677,181.339005 40.450230,164.524078 
	C51.943806,164.049652 62.984612,164.081650 74.025421,164.113632 
	C74.350494,177.185181 74.626022,190.258286 75.035591,203.327179 
	C75.137558,206.580841 75.672470,209.820923 76.058304,213.513672 
M59.716270,170.498367 
	C56.301769,169.253311 52.685879,169.875427 51.840805,173.242188 
	C51.005703,176.569183 51.222149,180.945923 52.791805,183.897079 
	C54.877907,187.819244 60.518150,186.763931 62.178944,182.439194 
	C63.716457,178.435516 63.805984,174.341675 59.716270,170.498367 
z"/>
<path fill="#F7F2E8" opacity="1.000000" stroke="none" 
	d="
M476.059448,213.509521 
	C474.019806,214.305450 471.925903,214.967270 469.839783,214.943588 
	C459.449829,214.825714 449.061951,214.527542 438.282776,214.124451 
	C438.594025,197.648056 439.295837,181.340057 440.450684,164.525177 
	C451.945618,164.049210 462.987457,164.080124 474.029297,164.111023 
	C474.353119,176.847504 474.624268,189.585678 475.034363,202.319382 
	C475.149872,205.906097 475.672729,209.479706 476.059448,213.509521 
M453.009460,171.510513 
	C452.444519,175.098389 451.145721,178.765793 451.523468,182.251495 
	C451.892426,185.655533 457.053040,187.087936 460.048676,185.272949 
	C463.066620,183.444458 464.179504,177.608719 462.252991,173.547363 
	C460.335541,169.505020 457.283844,169.170883 453.009460,171.510513 
z"/>
<path fill="#E0D6C7" opacity="1.000000" stroke="none" 
	d="
M488.038513,302.524292 
	C467.694794,302.992645 447.317047,303.001160 426.473938,302.551056 
	C425.989380,297.746338 425.970154,293.400238 426.355774,289.039673 
	C427.840790,289.015991 428.921021,289.006775 430.469757,289.001312 
	C448.087921,289.006348 465.237732,288.973846 482.386963,289.056976 
	C484.270721,289.066101 486.151245,289.738739 488.033264,290.103607 
	C488.023651,294.090546 488.014069,298.077454 488.038513,302.524292 
z"/>
<path fill="#E0D6C7" opacity="1.000000" stroke="none" 
	d="
M87.997223,303.031067 
	C67.622749,303.016663 47.248276,303.002258 26.400476,302.985962 
	C25.950058,298.993713 25.972965,295.003296 26.269775,290.249939 
	C28.334921,289.327606 30.125862,289.033844 31.917456,289.029785 
	C49.276642,288.990509 66.635941,288.999847 84.400009,289.000244 
	C85.884232,289.019318 86.963638,289.033417 88.024574,289.506836 
	C88.003143,294.321075 88.000183,298.676086 87.997223,303.031067 
z"/>
<path fill="#EFE9DA" opacity="1.000000" stroke="none" 
	d="
M430.001221,288.997559 
	C428.921021,289.006775 427.840790,289.015991 425.892578,289.024292 
	C405.048157,289.040710 385.071777,289.058044 364.708130,289.054749 
	C363.545197,289.020447 362.769562,289.006744 361.993896,288.993042 
	C358.642517,285.307953 358.267578,281.596252 361.943542,277.502380 
	C366.317657,277.102600 370.642578,277.049194 375.424133,276.971497 
	C388.977783,276.956177 402.074799,276.965088 415.648254,276.959351 
	C420.446289,276.963043 424.767914,276.981384 429.603149,277.439636 
	C433.216125,281.618134 431.943268,285.311340 430.001221,288.997559 
z"/>
<path fill="#EFE9DA" opacity="1.000000" stroke="none" 
	d="
M88.043045,289.047546 
	C86.963638,289.033417 85.884232,289.019318 84.227798,288.669708 
	C80.350784,284.502930 82.367790,280.834595 83.993446,277.154297 
	C88.318222,277.101440 92.643005,277.048615 97.424454,276.971558 
	C110.976501,276.957611 124.071884,276.967834 137.643341,276.962830 
	C142.442932,276.965851 146.766464,276.984131 151.548645,277.078796 
	C153.916641,280.845093 156.198074,284.524628 151.773651,288.689514 
	C150.450989,289.029968 149.674362,289.056580 148.439514,289.066467 
	C128.001862,289.049042 108.022453,289.048309 88.043045,289.047546 
z"/>
<path fill="#F7F2E8" opacity="1.000000" stroke="none" 
	d="
M430.469757,289.001312 
	C431.943268,285.311340 433.216125,281.618134 430.061707,277.516418 
	C431.360077,277.100830 432.713623,277.048309 434.473694,276.973206 
	C449.309906,276.959351 463.739624,276.968109 478.645569,276.963409 
	C482.769928,276.966431 486.418030,276.989807 490.066162,276.997711 
	C495.134155,277.008698 497.843414,278.966339 497.998627,282.745728 
	C498.149902,286.430237 494.897430,289.514343 490.335754,289.992798 
	C489.843384,290.044434 489.341431,290.005035 488.438599,290.055725 
	C486.151245,289.738739 484.270721,289.066101 482.386963,289.056976 
	C465.237732,288.973846 448.087921,289.006348 430.469757,289.001312 
z"/>
<path fill="#F7F2E8" opacity="1.000000" stroke="none" 
	d="
M83.592407,277.083618 
	C82.367790,280.834595 80.350784,284.502930 83.822990,288.664734 
	C66.635941,288.999847 49.276642,288.990509 31.917456,289.029785 
	C30.125862,289.033844 28.334921,289.327606 26.253185,289.793396 
	C23.158323,289.090729 20.029375,288.540192 17.685154,286.880951 
	C16.495281,286.038757 15.857625,282.800568 16.521515,281.360809 
	C17.366564,279.528229 19.637699,277.491425 21.551926,277.192139 
	C25.600147,276.559235 29.815771,276.997040 34.421516,276.973145 
	C49.309963,276.959290 63.739620,276.967987 78.645477,276.963104 
	C80.478241,276.970673 81.834801,276.991821 83.592407,277.083618 
z"/>
<path fill="#FFD97B" opacity="1.000000" stroke="none" 
	d="
M133.506073,221.037506 
	C128.995651,220.740326 124.945953,220.133606 120.893326,220.113434 
	C115.166817,220.084930 109.438141,220.489914 103.335022,220.901459 
	C99.495697,221.062759 95.886154,221.618866 92.616035,220.807281 
	C90.203529,220.208542 87.255478,218.260071 86.308342,216.129547 
	C85.052246,213.304001 86.104324,210.008469 89.987961,208.401352 
	C108.505363,208.058319 126.831749,208.030426 145.630035,207.958130 
	C149.211426,210.047958 150.881760,212.906372 149.674149,216.659653 
	C148.396530,220.630524 145.066650,221.198639 141.405350,221.023666 
	C138.930511,220.905396 136.445770,220.993835 133.506073,221.037506 
z"/>
<path fill="#FFD97B" opacity="1.000000" stroke="none" 
	d="
M411.487366,221.046844 
	C406.981018,220.751526 402.934021,220.138779 398.883301,220.113510 
	C393.154785,220.077759 387.423523,220.475906 381.318909,220.883881 
	C378.155640,221.053406 375.366058,220.972519 372.578430,221.016083 
	C369.240265,221.068222 366.126495,220.915527 364.577118,217.147675 
	C363.033630,213.394119 364.166870,210.579132 367.549744,208.126801 
	C386.216492,208.007187 404.562164,208.032318 423.365112,208.068848 
	C426.545135,209.817322 428.938995,211.952164 427.724274,215.504486 
	C426.525787,219.009384 423.932251,221.116638 419.936707,221.014191 
	C417.274353,220.945923 414.609009,220.995056 411.487366,221.046844 
z"/>
<path fill="#FFDA7D" opacity="1.000000" stroke="none" 
	d="
M74.482773,164.061050 
	C62.984612,164.081650 51.943806,164.049652 40.436218,164.063751 
	C37.338459,164.073105 34.683216,163.796158 32.082466,164.058777 
	C28.620253,164.408386 26.021978,162.950562 25.176586,159.963196 
	C24.359047,157.074280 24.664314,153.789688 28.575840,152.072525 
	C47.324078,151.932846 65.732536,151.951569 84.612595,151.942169 
	C86.286682,154.516083 88.625931,157.208496 88.427834,159.699127 
	C88.123329,163.527588 84.619308,164.455994 80.923508,164.039505 
	C78.952911,163.817444 76.936089,164.005508 74.482773,164.061050 
z"/>
<path fill="#FFDA7D" opacity="1.000000" stroke="none" 
	d="
M474.486450,164.059875 
	C462.987457,164.080124 451.945618,164.049210 440.437073,164.064362 
	C437.661133,164.073486 435.343628,163.896500 433.044708,164.032959 
	C429.731415,164.229645 427.088623,163.839600 425.535431,160.196213 
	C423.931610,156.434067 425.863007,154.354950 428.588684,152.061661 
	C447.323914,151.932983 465.732574,151.951660 484.612854,151.942322 
	C487.761078,154.016953 489.903839,156.226242 488.455536,160.142807 
	C487.073212,163.881012 484.272095,164.267624 480.926971,164.026367 
	C478.942383,163.883255 476.938690,164.005692 474.486450,164.059875 
z"/>
<path fill="#E8DDCD" opacity="1.000000" stroke="none" 
	d="
M148.897736,289.083160 
	C149.674362,289.056580 150.450989,289.029968 151.616364,288.998810 
	C221.689392,288.995880 291.373688,288.997528 361.525940,288.996094 
	C362.769562,289.006744 363.545197,289.020447 364.681580,289.514587 
	C365.073029,298.268402 365.103790,306.541809 364.752319,314.879303 
	C362.633789,316.859192 359.560486,318.703613 359.453613,320.706299 
	C359.261108,324.313416 362.356812,326.376160 366.001404,327.466492 
	C365.997864,355.621094 365.995392,383.306793 365.637299,411.037994 
	C361.831024,412.149078 358.710785,414.251190 359.481873,417.966583 
	C359.900818,419.985291 363.135712,421.419556 365.077148,423.578125 
	C365.057983,448.337341 365.062073,472.635803 365.066162,496.934326 
	C358.410156,496.956177 351.740417,496.726440 345.102997,497.088928 
	C340.728455,497.327820 339.910034,495.559906 339.918701,491.608551 
	C340.030548,440.521240 339.992737,389.433594 339.992676,338.346039 
	C339.992676,326.242340 339.789703,326.038269 327.773102,325.983734 
	C326.774994,325.979187 325.776978,325.943604 324.358459,325.446594 
	C323.950531,322.653870 324.148407,320.319550 323.933014,318.024017 
	C323.594788,314.419189 321.501160,312.070679 317.822418,312.153778 
	C314.407318,312.230927 312.379425,314.527863 312.093384,317.900238 
	C311.870880,320.523651 312.124542,323.187408 312.166595,325.833252 
	C306.362427,325.855774 300.558228,325.878296 294.328888,325.420898 
	C293.708221,322.141479 293.703308,319.312012 293.268738,316.550140 
	C292.732910,313.144592 289.947266,311.339539 287.141754,312.290131 
	C285.030884,313.005341 282.957794,315.683929 282.170227,317.942627 
	C281.349060,320.297516 282.088837,323.196686 282.146149,325.857910 
	C276.027527,325.879608 269.908936,325.901306 263.364288,325.446838 
	C262.950958,322.653778 263.147095,320.319855 262.934113,318.023865 
	C262.599365,314.414764 260.500183,312.073273 256.824371,312.153931 
	C253.408295,312.228821 251.381577,314.528015 251.094437,317.899200 
	C250.870987,320.522400 251.125366,323.186310 251.167404,325.832123 
	C245.048172,325.867767 238.928955,325.903412 232.390625,325.461731 
	C231.997437,323.005127 231.952042,321.021759 232.064682,319.047424 
	C232.271515,315.421967 230.833496,312.694519 227.205826,312.150848 
	C223.151657,311.543365 221.145477,314.556732 220.362595,317.901062 
	C219.777985,320.398529 220.226791,323.137878 220.215393,325.769531 
	C214.402405,325.817810 208.589417,325.866058 202.348602,325.435577 
	C201.878342,322.301514 202.612930,319.275055 201.572296,317.096558 
	C200.556549,314.970154 197.858795,312.599243 195.662598,312.339691 
	C192.654709,311.984192 190.000839,314.118774 189.998825,317.880554 
	C189.997406,320.538788 190.095093,323.197113 190.148529,325.855377 
	C187.152344,325.899414 184.155945,325.931458 181.160034,325.990082 
	C175.883453,326.093384 174.024124,327.920105 174.013550,333.279755 
	C173.978394,351.098419 174.000046,368.917175 174.000015,386.735901 
	C173.999954,421.540710 173.928009,456.345825 174.089554,491.149872 
	C174.110092,495.574615 173.155762,497.439941 168.342850,497.101776 
	C162.210846,496.670929 156.026978,496.978088 149.412994,496.482635 
	C148.936035,471.711517 148.911560,447.424835 149.282333,423.084106 
	C153.336700,422.625397 154.087601,420.204651 154.039230,417.022644 
	C153.977539,412.966095 151.272079,411.743530 148.002838,410.527527 
	C147.999893,382.371552 147.998108,354.683929 148.246643,326.734802 
	C151.786942,325.811066 154.209259,324.571777 154.084091,320.477631 
	C153.972900,316.839813 152.396362,315.054993 148.896118,314.357849 
	C148.916016,305.628937 148.906876,297.356049 148.897736,289.083160 
z"/>
<path fill="#2A3F4F" opacity="1.000000" stroke="none" 
	d="
M297.967102,496.891327 
	C270.961884,496.943878 243.956680,496.996399 216.477478,496.510406 
	C215.979202,469.660797 215.954895,443.349731 215.960602,416.596649 
	C217.304001,389.238678 229.410461,368.989838 253.051025,355.714569 
	C255.868439,354.132446 257.918549,354.041077 260.779419,355.640808 
	C284.853424,369.102417 296.694397,389.881592 298.015869,417.538513 
	C297.986938,444.296753 297.977020,470.594055 297.967102,496.891327 
z"/>
<path fill="#FEBB44" opacity="1.000000" stroke="none" 
	d="
M298.034912,417.077545 
	C296.694397,389.881592 284.853424,369.102417 260.779419,355.640808 
	C257.918549,354.041077 255.868439,354.132446 253.051025,355.714569 
	C229.410461,368.989838 217.304001,389.238678 215.501389,416.650269 
	C205.428452,417.168884 195.844711,417.191895 186.260986,417.214935 
	C186.260986,390.950104 186.260986,364.685272 186.260986,338.145264 
	C233.533936,338.145264 280.402039,338.145264 327.790466,338.145264 
	C327.790466,364.395844 327.790466,390.333252 327.261902,416.739197 
	C317.167206,417.164307 307.601044,417.120911 298.034912,417.077545 
z"/>
<path fill="#DFD5C6" opacity="1.000000" stroke="none" 
	d="
M62.480629,497.015259 
	C62.037270,438.619537 62.061287,380.229553 62.085575,321.839600 
	C62.088421,315.003204 62.089134,314.990387 68.705032,315.002838 
	C73.195709,315.011292 77.686310,315.062012 82.550797,315.543518 
	C80.782997,322.838837 81.468666,324.331268 87.987808,327.477966 
	C87.984497,355.623596 87.979645,383.301666 87.613647,411.031921 
	C83.365608,412.131714 81.445808,414.484375 81.979111,418.668884 
	C82.453079,422.387726 85.254318,422.719391 88.048615,423.588257 
	C88.024559,448.355957 88.022491,472.663544 88.020424,496.971100 
	C79.662979,496.987732 71.305527,497.004364 62.480629,497.015259 
z"/>
<path fill="#E0D6C7" opacity="1.000000" stroke="none" 
	d="
M430.887268,315.264984 
	C436.538788,315.180450 442.197754,314.921082 447.835541,315.160156 
	C448.951630,315.207458 450.329956,317.004730 450.952759,318.300110 
	C451.473297,319.382660 451.068634,320.911407 451.068817,322.242554 
	C451.078033,380.148010 451.086700,438.053497 451.124634,496.414520 
	C443.074036,496.910889 434.994202,496.951691 426.456970,496.513916 
	C425.974426,471.734009 425.949280,447.432678 426.312195,423.081482 
	C430.307831,422.682129 431.978668,420.635590 432.017365,417.071777 
	C432.061707,412.991333 429.293518,411.751221 426.006897,410.525146 
	C426.003815,382.371674 426.002533,354.686432 426.363647,326.950348 
	C432.610443,324.246460 433.231140,322.510986 430.887268,315.264984 
z"/>
<path fill="#CDC3AF" opacity="1.000000" stroke="none" 
	d="
M88.486893,496.987793 
	C88.022491,472.663544 88.024559,448.355957 88.509491,423.559265 
	C108.957260,423.092834 128.922165,423.115509 148.887085,423.138184 
	C148.911560,447.424835 148.936035,471.711517 148.939880,496.457672 
	C128.930634,496.946289 108.941994,496.975403 88.486893,496.987793 
M131.014877,464.110992 
	C131.013626,455.623260 131.005219,447.135559 131.014038,438.647827 
	C131.018677,434.186066 128.891403,431.812073 124.352104,431.797180 
	C119.692261,431.781921 115.032234,431.775604 110.372482,431.801361 
	C106.080978,431.825104 103.943298,434.039856 103.937706,438.308960 
	C103.926140,447.129517 103.939735,455.950073 103.927231,464.770630 
	C103.920898,469.238861 106.206406,471.633545 110.587425,471.785950 
	C115.075272,471.942017 119.577888,471.946228 124.064842,471.775330 
	C128.277512,471.614899 130.985657,469.615753 131.014877,464.110992 
z"/>
<path fill="#CDC3AF" opacity="1.000000" stroke="none" 
	d="
M425.924133,423.131409 
	C425.949280,447.432678 425.974426,471.734009 425.986908,496.500153 
	C405.978973,496.972626 385.983765,496.980286 365.527344,496.961121 
	C365.062073,472.635803 365.057983,448.337341 365.535095,423.555054 
	C385.985596,423.091309 405.954834,423.111359 425.924133,423.131409 
M382.972290,437.061584 
	C382.954132,446.215759 382.968689,455.370178 382.903687,464.524017 
	C382.872375,468.933289 384.906738,471.564453 389.330383,471.766724 
	C393.980621,471.979309 398.655914,471.964752 403.306610,471.751740 
	C407.582825,471.555878 410.032288,469.292023 410.013885,464.749939 
	C409.978149,455.928406 410.037292,447.106415 409.985870,438.285065 
	C409.961151,434.046844 407.732941,431.835236 403.473328,431.804077 
	C398.813110,431.769989 394.083954,431.325287 389.520660,431.990875 
	C387.219910,432.326447 385.219513,434.721344 382.972290,437.061584 
z"/>
<path fill="#426E82" opacity="1.000000" stroke="none" 
	d="
M186.197327,417.665009 
	C195.844711,417.191895 205.428452,417.168884 215.471390,417.092224 
	C215.954895,443.349731 215.979202,469.660797 216.016205,496.433411 
	C206.255722,496.894958 196.482498,496.894958 186.133652,496.894958 
	C186.133652,470.503601 186.133652,444.309357 186.197327,417.665009 
z"/>
<path fill="#436E83" opacity="1.000000" stroke="none" 
	d="
M298.015869,417.538513 
	C307.601044,417.120911 317.167206,417.164307 327.173279,417.213593 
	C327.613190,443.578308 327.613190,469.937134 327.613190,497.041992 
	C317.986603,497.041992 308.442474,497.041992 298.432739,496.966675 
	C297.977020,470.594055 297.986938,444.296753 298.015869,417.538513 
z"/>
<path fill="#C5BAA6" opacity="1.000000" stroke="none" 
	d="
M282.591370,325.880432 
	C282.088837,323.196686 281.349060,320.297516 282.170227,317.942627 
	C282.957794,315.683929 285.030884,313.005341 287.141754,312.290131 
	C289.947266,311.339539 292.732910,313.144592 293.268738,316.550140 
	C293.703308,319.312012 293.708221,322.141479 293.851135,325.364899 
	C290.211212,325.826874 286.623901,325.864929 282.591370,325.880432 
z"/>
<path fill="#C5BAA6" opacity="1.000000" stroke="none" 
	d="
M190.593613,325.878998 
	C190.095093,323.197113 189.997406,320.538788 189.998825,317.880554 
	C190.000839,314.118774 192.654709,311.984192 195.662598,312.339691 
	C197.858795,312.599243 200.556549,314.970154 201.572296,317.096558 
	C202.612930,319.275055 201.878342,322.301514 201.871368,325.388123 
	C198.227554,325.847137 194.633133,325.874878 190.593613,325.878998 
z"/>
<path fill="#C5BAA6" opacity="1.000000" stroke="none" 
	d="
M312.609741,325.864471 
	C312.124542,323.187408 311.870880,320.523651 312.093384,317.900238 
	C312.379425,314.527863 314.407318,312.230927 317.822418,312.153778 
	C321.501160,312.070679 323.594788,314.419189 323.933014,318.024017 
	C324.148407,320.319550 323.950531,322.653870 323.887360,325.404114 
	C320.242157,325.856873 316.647522,325.876282 312.609741,325.864471 
z"/>
<path fill="#C5BAA6" opacity="1.000000" stroke="none" 
	d="
M251.610474,325.863464 
	C251.125366,323.186310 250.870987,320.522400 251.094437,317.899200 
	C251.381577,314.528015 253.408295,312.228821 256.824371,312.153931 
	C260.500183,312.073273 262.599365,314.414764 262.934113,318.023865 
	C263.147095,320.319855 262.950958,322.653778 262.887512,325.404053 
	C259.242340,325.856537 255.647949,325.875671 251.610474,325.863464 
z"/>
<path fill="#C5BAA6" opacity="1.000000" stroke="none" 
	d="
M220.652496,325.819977 
	C220.226791,323.137878 219.777985,320.398529 220.362595,317.901062 
	C221.145477,314.556732 223.151657,311.543365 227.205826,312.150848 
	C230.833496,312.694519 232.271515,315.421967 232.064682,319.047424 
	C231.952042,321.021759 231.997437,323.005127 231.914795,325.423523 
	C228.268570,325.865234 224.679092,325.867828 220.652496,325.819977 
z"/>
<path fill="#DED4C0" opacity="1.000000" stroke="none" 
	d="
M272.124634,259.010712 
	C273.082581,259.010529 273.621582,258.885925 274.072876,259.032074 
	C276.032593,259.666809 277.966736,260.380524 279.910156,261.065521 
	C278.739044,263.638977 278.112579,266.813629 276.188873,268.556335 
	C275.067139,269.572540 270.967712,269.117065 269.821442,267.856537 
	C268.187714,266.059937 268.035004,262.916565 267.249634,260.348480 
	C268.721527,259.902618 270.193451,259.456757 272.124634,259.010712 
z"/>
<path fill="#DED4C0" opacity="1.000000" stroke="none" 
	d="
M300.594604,263.263458 
	C299.661499,260.478027 300.151184,258.947418 303.055969,259.014587 
	C304.218658,259.041473 305.438263,258.787720 306.534363,259.057831 
	C308.762268,259.606812 312.229156,257.194885 312.947235,261.521576 
	C313.525879,265.007965 310.503693,269.554535 307.167145,269.699921 
	C303.868805,269.843597 301.459442,268.215088 300.923035,264.620972 
	C300.874054,264.292755 300.795410,263.968994 300.594604,263.263458 
z"/>
<path fill="#DED4C0" opacity="1.000000" stroke="none" 
	d="
M254.068558,269.001251 
	C253.157166,268.231110 252.435104,267.723755 252.065430,267.028931 
	C249.258118,261.752411 250.835876,258.891357 256.630859,259.082886 
	C258.719238,259.151917 262.238831,259.620300 262.545135,260.660431 
	C263.152832,262.723846 262.735382,266.055511 261.334808,267.474243 
	C259.913574,268.913910 256.795837,268.678833 254.068558,269.001251 
z"/>
<path fill="#DED4C0" opacity="1.000000" stroke="none" 
	d="
M285.515869,259.185699 
	C287.593689,259.056519 289.313965,258.727722 290.872589,259.091522 
	C292.644806,259.505188 295.450165,260.232758 295.741669,261.358551 
	C296.606781,264.699585 295.815704,268.456482 291.912048,269.264954 
	C289.873383,269.687195 286.318054,268.542786 285.361725,266.953918 
	C284.208954,265.038666 285.087616,261.900665 285.515869,259.185699 
z"/>
<path fill="#DED4C0" opacity="1.000000" stroke="none" 
	d="
M201.018173,261.901703 
	C203.321335,256.438019 207.682922,259.947784 211.015274,259.265259 
	C211.416443,259.183105 212.696259,261.587311 212.951050,262.954285 
	C213.555252,266.196136 211.975296,268.418823 208.910767,269.485107 
	C205.247330,270.759796 201.625946,267.439423 201.018173,261.901703 
z"/>
<path fill="#DED4C0" opacity="1.000000" stroke="none" 
	d="
M218.068390,265.365662 
	C218.519608,263.029236 218.785141,259.578339 219.570419,259.455719 
	C222.739670,258.960785 226.115570,259.271515 229.278961,259.934601 
	C229.659348,260.014343 229.937866,264.474976 228.971695,266.167725 
	C227.535690,268.683563 225.009552,271.028809 221.546387,269.156921 
	C220.192215,268.424988 219.250946,266.929077 218.068390,265.365662 
z"/>
<path fill="#DED4C0" opacity="1.000000" stroke="none" 
	d="
M322.302795,269.864929 
	C320.679779,268.753693 318.931946,267.939148 318.306305,266.600189 
	C317.465240,264.800232 316.987335,262.490692 317.378387,260.613403 
	C317.547058,259.803680 320.383209,258.912689 321.829987,259.148438 
	C324.290955,259.549438 328.190247,256.797363 328.972595,261.714020 
	C329.663086,266.053528 327.610260,268.642090 322.302795,269.864929 
z"/>
<path fill="#DED4C0" opacity="1.000000" stroke="none" 
	d="
M195.451141,259.169403 
	C198.178818,262.663788 197.035172,265.861877 194.282166,267.889801 
	C192.701691,269.053986 188.750443,269.563934 187.881104,268.582977 
	C186.194183,266.679474 185.736694,263.546539 185.309692,260.837891 
	C185.254440,260.487427 188.357803,259.399811 190.077393,259.078613 
	C191.673035,258.780548 193.374908,259.051178 195.451141,259.169403 
z"/>
<path fill="#DED4C0" opacity="1.000000" stroke="none" 
	d="
M246.016403,261.986511 
	C246.488327,266.055389 245.101593,269.142517 241.502808,269.415741 
	C239.443451,269.572083 236.482208,267.789520 235.180466,265.978760 
	C232.187057,261.814880 233.984436,258.828461 239.138519,259.111481 
	C241.504578,259.241364 245.044067,257.126892 246.016403,261.986511 
z"/>
<path fill="#CFC4B0" opacity="1.000000" stroke="none" 
	d="
M148.439514,289.066467 
	C148.906876,297.356049 148.916016,305.628937 148.443787,314.393066 
	C143.584030,314.776581 139.205658,314.668915 134.883057,314.148499 
	C134.962509,311.597229 135.010406,309.458710 135.004501,307.320282 
	C134.994354,303.641174 133.183853,301.252808 129.499435,301.092651 
	C125.886971,300.935577 123.560043,303.083221 123.145256,306.663849 
	C122.845139,309.254608 123.145874,311.914978 122.715240,314.649750 
	C118.772621,314.676239 115.293396,314.597260 111.864563,314.113190 
	C111.899139,311.242035 112.194824,308.723999 111.794113,306.322144 
	C111.201668,302.771057 108.740723,300.769318 105.142143,301.106018 
	C101.738914,301.424469 99.978249,303.710846 99.992165,307.177490 
	C100.002060,309.642700 100.106728,312.107513 99.707001,314.672852 
	C95.469643,314.695862 91.694382,314.618530 87.919128,314.541229 
	C87.938614,311.004425 87.958107,307.467621 87.987411,303.480957 
	C88.000183,298.676086 88.003143,294.321075 88.024574,289.506836 
	C108.022453,289.048309 128.001862,289.049042 148.439514,289.066467 
z"/>
<path fill="#F7F2E8" opacity="1.000000" stroke="none" 
	d="
M111.814178,314.518280 
	C115.293396,314.597260 118.772621,314.676239 123.150452,314.747681 
	C127.641808,314.680542 131.234543,314.620880 134.827271,314.561249 
	C139.205658,314.668915 143.584030,314.776581 148.414764,314.849060 
	C152.396362,315.054993 153.972900,316.839813 154.084091,320.477631 
	C154.209259,324.571777 151.786942,325.811066 147.779724,326.735352 
	C127.370445,327.001709 107.678360,327.006012 87.986275,327.010345 
	C81.468666,324.331268 80.782997,322.838837 83.020050,315.625793 
	C84.451759,315.086792 85.788094,314.915192 87.521774,314.642395 
	C91.694382,314.618530 95.469643,314.695862 100.144394,314.762268 
	C104.633987,314.673676 108.224083,314.595978 111.814178,314.518280 
z"/>
<path fill="#CEC3AF" opacity="1.000000" stroke="none" 
	d="
M365.134521,314.815186 
	C365.103790,306.541809 365.073029,298.268402 365.068848,289.535217 
	C385.071777,289.058044 405.048157,289.040710 425.487732,289.038757 
	C425.970154,293.400238 425.989380,297.746338 426.005493,302.559998 
	C426.020844,306.581970 426.039276,310.136414 425.615387,314.244965 
	C421.391846,314.718109 417.610626,314.637177 413.883911,314.143860 
	C413.961609,311.593689 414.008759,309.455933 414.002594,307.318298 
	C413.991974,303.640106 412.180908,301.253448 408.498169,301.093903 
	C404.888733,300.937561 402.559570,303.080170 402.145294,306.661377 
	C401.845673,309.251434 402.144287,311.910675 401.712952,314.645081 
	C397.771667,314.669312 394.293518,314.587463 390.865143,314.101746 
	C390.917999,311.396179 391.159088,309.064178 390.870789,306.799591 
	C390.385254,302.985901 387.979767,300.790009 384.136841,301.113434 
	C380.740082,301.399261 378.975159,303.711517 378.991882,307.179565 
	C379.003754,309.643829 379.104736,312.107697 378.701782,314.672119 
	C373.869904,314.786743 369.502197,314.800964 365.134521,314.815186 
z"/>
<path fill="#F7F2E7" opacity="1.000000" stroke="none" 
	d="
M364.752319,314.879303 
	C369.502197,314.800964 373.869904,314.786743 379.139496,314.761658 
	C383.632721,314.669037 387.224060,314.587311 390.815369,314.505615 
	C394.293518,314.587463 397.771667,314.669312 402.148193,314.744720 
	C406.640839,314.677643 410.235138,314.616943 413.829407,314.556274 
	C417.610626,314.637177 421.391846,314.718109 425.629730,314.677307 
	C427.422394,314.746674 428.758362,314.937775 430.490814,315.196960 
	C433.231140,322.510986 432.610443,324.246460 425.896790,326.949097 
	C405.379181,326.998352 385.690796,326.997955 366.002441,326.997559 
	C362.356812,326.376160 359.261108,324.313416 359.453613,320.706299 
	C359.560486,318.703613 362.633789,316.859192 364.752319,314.879303 
z"/>
<path fill="#E1D7C8" opacity="1.000000" stroke="none" 
	d="
M60.044003,170.732834 
	C63.805984,174.341675 63.716457,178.435516 62.178944,182.439194 
	C60.518150,186.763931 54.877907,187.819244 52.791805,183.897079 
	C51.222149,180.945923 51.005703,176.569183 51.840805,173.242188 
	C52.685879,169.875427 56.301769,169.253311 60.044003,170.732834 
z"/>
<path fill="#E1D7C8" opacity="1.000000" stroke="none" 
	d="
M453.309692,171.240326 
	C457.283844,169.170883 460.335541,169.505020 462.252991,173.547363 
	C464.179504,177.608719 463.066620,183.444458 460.048676,185.272949 
	C457.053040,187.087936 451.892426,185.655533 451.523468,182.251495 
	C451.145721,178.765793 452.444519,175.098389 453.309692,171.240326 
z"/>
<path fill="#EEE8DA" opacity="1.000000" stroke="none" 
	d="
M87.987808,327.477966 
	C107.678360,327.006012 127.370445,327.001709 147.529434,326.996857 
	C147.998108,354.683929 147.999893,382.371552 147.533737,410.529053 
	C127.368805,410.992554 107.671799,410.986115 87.974792,410.979706 
	C87.979645,383.301666 87.984497,355.623596 87.987808,327.477966 
M103.983261,393.879761 
	C104.718758,397.601501 107.112274,399.114441 110.763481,399.078461 
	C115.422363,399.032532 120.083389,399.131653 124.740868,399.037933 
	C128.742844,398.957397 130.958984,396.751740 130.978638,392.784790 
	C131.052032,377.975159 131.051971,363.164764 130.982376,348.355103 
	C130.962433,344.111237 128.561935,341.998047 124.342216,341.975403 
	C120.182213,341.953094 116.021774,341.936127 111.861969,341.970337 
	C105.690971,342.021118 103.935837,343.775757 103.923927,350.056519 
	C103.896790,364.367249 103.925415,378.678070 103.983261,393.879761 
z"/>
<path fill="#EEE8DA" opacity="1.000000" stroke="none" 
	d="
M366.001404,327.466492 
	C385.690796,326.997955 405.379181,326.998352 425.534363,327.000000 
	C426.002533,354.686432 426.003815,382.371674 425.537292,410.527527 
	C405.377289,410.996246 385.685089,410.994385 365.992920,410.992493 
	C365.995392,383.306793 365.997864,355.621094 366.001404,327.466492 
M382.897675,384.465088 
	C382.899078,386.959747 382.848816,389.455688 382.912720,391.948761 
	C383.041290,396.964417 384.911102,398.939911 389.802551,399.047485 
	C394.290710,399.146179 398.782806,399.075897 403.273102,399.064087 
	C407.476196,399.053040 409.942505,396.991028 409.965881,392.741516 
	C410.047241,377.940460 410.045929,363.138428 409.966949,348.337311 
	C409.944397,344.108612 407.535736,341.988434 403.313232,341.973572 
	C398.989227,341.958405 394.664520,341.917999 390.341309,341.976807 
	C384.817444,342.051941 382.942017,343.925446 382.915344,349.549530 
	C382.861725,360.858307 382.898254,372.167542 382.897675,384.465088 
z"/>
<path fill="#F7F2E8" opacity="1.000000" stroke="none" 
	d="
M365.637299,411.037994 
	C385.685089,410.994385 405.377289,410.996246 425.539062,410.995758 
	C429.293518,411.751221 432.061707,412.991333 432.017365,417.071777 
	C431.978668,420.635590 430.307831,422.682129 426.312195,423.081482 
	C405.954834,423.111359 385.985596,423.091309 365.558411,423.094360 
	C363.135712,421.419556 359.900818,419.985291 359.481873,417.966583 
	C358.710785,414.251190 361.831024,412.149078 365.637299,411.037994 
z"/>
<path fill="#F7F2E8" opacity="1.000000" stroke="none" 
	d="
M87.613647,411.031921 
	C107.671799,410.986115 127.368805,410.992554 147.534912,410.997467 
	C151.272079,411.743530 153.977539,412.966095 154.039230,417.022644 
	C154.087601,420.204651 153.336700,422.625397 149.282333,423.084106 
	C128.922165,423.115509 108.957260,423.092834 88.531479,423.099121 
	C85.254318,422.719391 82.453079,422.387726 81.979111,418.668884 
	C81.445808,414.484375 83.365608,412.131714 87.613647,411.031921 
z"/>
<path fill="#436E83" opacity="1.000000" stroke="none" 
	d="
M131.011841,464.560547 
	C130.985657,469.615753 128.277512,471.614899 124.064842,471.775330 
	C119.577888,471.946228 115.075272,471.942017 110.587425,471.785950 
	C106.206406,471.633545 103.920898,469.238861 103.927231,464.770630 
	C103.939735,455.950073 103.926140,447.129517 103.937706,438.308960 
	C103.943298,434.039856 106.080978,431.825104 110.372482,431.801361 
	C115.032234,431.775604 119.692261,431.781921 124.352104,431.797180 
	C128.891403,431.812073 131.018677,434.186066 131.014038,438.647827 
	C131.005219,447.135559 131.013626,455.623260 131.011841,464.560547 
M116.082680,458.830322 
	C118.199295,460.751190 118.942375,459.555756 118.992195,457.430359 
	C119.081062,453.639099 119.087410,449.841858 118.958084,446.052917 
	C118.932335,445.298615 118.143372,444.570343 117.706345,443.830078 
	C117.110855,444.579773 116.034241,445.308655 116.000786,446.082642 
	C115.830002,450.033264 115.928673,453.995544 116.082680,458.830322 
z"/>
<path fill="#436E83" opacity="1.000000" stroke="none" 
	d="
M383.027771,436.623322 
	C385.219513,434.721344 387.219910,432.326447 389.520660,431.990875 
	C394.083954,431.325287 398.813110,431.769989 403.473328,431.804077 
	C407.732941,431.835236 409.961151,434.046844 409.985870,438.285065 
	C410.037292,447.106415 409.978149,455.928406 410.013885,464.749939 
	C410.032288,469.292023 407.582825,471.555878 403.306610,471.751740 
	C398.655914,471.964752 393.980621,471.979309 389.330383,471.766724 
	C384.906738,471.564453 382.872375,468.933289 382.903687,464.524017 
	C382.968689,455.370178 382.954132,446.215759 383.027771,436.623322 
M397.334900,459.550903 
	C397.559265,455.485565 397.907959,451.420898 397.930389,447.354462 
	C397.936920,446.171448 397.011139,444.983337 396.512726,443.797546 
	C395.971863,444.949615 395.093506,446.064758 394.962494,447.261688 
	C394.712646,449.544342 394.686584,451.897217 394.951721,454.176239 
	C395.169525,456.048065 395.943665,457.855164 397.334900,459.550903 
z"/>
<path fill="#B3A794" opacity="1.000000" stroke="none" 
	d="
M134.883057,314.148499 
	C131.234543,314.620880 127.641808,314.680542 123.613861,314.642212 
	C123.145874,311.914978 122.845139,309.254608 123.145256,306.663849 
	C123.560043,303.083221 125.886971,300.935577 129.499435,301.092651 
	C133.183853,301.252808 134.994354,303.641174 135.004501,307.320282 
	C135.010406,309.458710 134.962509,311.597229 134.883057,314.148499 
z"/>
<path fill="#B3A794" opacity="1.000000" stroke="none" 
	d="
M111.864563,314.113190 
	C108.224083,314.595978 104.633987,314.673676 100.606491,314.661926 
	C100.106728,312.107513 100.002060,309.642700 99.992165,307.177490 
	C99.978249,303.710846 101.738914,301.424469 105.142143,301.106018 
	C108.740723,300.769318 111.201668,302.771057 111.794113,306.322144 
	C112.194824,308.723999 111.899139,311.242035 111.864563,314.113190 
z"/>
<path fill="#B3A794" opacity="1.000000" stroke="none" 
	d="
M413.883911,314.143860 
	C410.235138,314.616943 406.640839,314.677643 402.611328,314.638672 
	C402.144287,311.910675 401.845673,309.251434 402.145294,306.661377 
	C402.559570,303.080170 404.888733,300.937561 408.498169,301.093903 
	C412.180908,301.253448 413.991974,303.640106 414.002594,307.318298 
	C414.008759,309.455933 413.961609,311.593689 413.883911,314.143860 
z"/>
<path fill="#B3A794" opacity="1.000000" stroke="none" 
	d="
M390.865143,314.101746 
	C387.224060,314.587311 383.632721,314.669037 379.603699,314.661224 
	C379.104736,312.107697 379.003754,309.643829 378.991882,307.179565 
	C378.975159,303.711517 380.740082,301.399261 384.136841,301.113434 
	C387.979767,300.790009 390.385254,302.985901 390.870789,306.799591 
	C391.159088,309.064178 390.917999,311.396179 390.865143,314.101746 
z"/>
<path fill="#436E83" opacity="1.000000" stroke="none" 
	d="
M103.957321,393.434326 
	C103.925415,378.678070 103.896790,364.367249 103.923927,350.056519 
	C103.935837,343.775757 105.690971,342.021118 111.861969,341.970337 
	C116.021774,341.936127 120.182213,341.953094 124.342216,341.975403 
	C128.561935,341.998047 130.962433,344.111237 130.982376,348.355103 
	C131.051971,363.164764 131.052032,377.975159 130.978638,392.784790 
	C130.958984,396.751740 128.742844,398.957397 124.740868,399.037933 
	C120.083389,399.131653 115.422363,399.032532 110.763481,399.078461 
	C107.112274,399.114441 104.718758,397.601501 103.957321,393.434326 
M119.019859,360.611877 
	C118.252541,358.437988 120.835793,354.988922 115.960152,353.537170 
	C115.960152,364.564240 115.945686,374.990814 115.980751,385.417114 
	C115.984604,386.562439 116.272408,387.706787 116.428513,388.851593 
	C117.292297,388.198700 118.156082,387.545807 119.019867,386.892883 
	C119.019867,378.457428 119.019867,370.021942 119.019859,360.611877 
z"/>
<path fill="#436E83" opacity="1.000000" stroke="none" 
	d="
M382.897644,383.970825 
	C382.898254,372.167542 382.861725,360.858307 382.915344,349.549530 
	C382.942017,343.925446 384.817444,342.051941 390.341309,341.976807 
	C394.664520,341.917999 398.989227,341.958405 403.313232,341.973572 
	C407.535736,341.988434 409.944397,344.108612 409.966949,348.337311 
	C410.045929,363.138428 410.047241,377.940460 409.965881,392.741516 
	C409.942505,396.991028 407.476196,399.053040 403.273102,399.064087 
	C398.782806,399.075897 394.290710,399.146179 389.802551,399.047485 
	C384.911102,398.939911 383.041290,396.964417 382.912720,391.948761 
	C382.848816,389.455688 382.899078,386.959747 382.897644,383.970825 
M394.899292,364.529877 
	C394.899567,370.849945 394.831268,377.171417 394.957855,383.488953 
	C394.983246,384.754608 395.751007,386.005402 396.176453,387.263031 
	C396.687103,387.116577 397.197784,386.970123 397.708435,386.823700 
	C397.708435,375.945435 397.708435,365.067200 397.708435,354.188934 
	C397.195862,354.077209 396.683319,353.965454 396.170746,353.853699 
	C393.470764,356.470947 395.542694,360.372589 394.899292,364.529877 
z"/>
<path fill="#FBFCFC" opacity="1.000000" stroke="none" 
	d="
M116.007874,458.392029 
	C115.928673,453.995544 115.830002,450.033264 116.000786,446.082642 
	C116.034241,445.308655 117.110855,444.579773 117.706345,443.830078 
	C118.143372,444.570343 118.932335,445.298615 118.958084,446.052917 
	C119.087410,449.841858 119.081062,453.639099 118.992195,457.430359 
	C118.942375,459.555756 118.199295,460.751190 116.007874,458.392029 
z"/>
<path fill="#FBFCFC" opacity="1.000000" stroke="none" 
	d="
M396.903046,459.620911 
	C395.943665,457.855164 395.169525,456.048065 394.951721,454.176239 
	C394.686584,451.897217 394.712646,449.544342 394.962494,447.261688 
	C395.093506,446.064758 395.971863,444.949615 396.512726,443.797546 
	C397.011139,444.983337 397.936920,446.171448 397.930389,447.354462 
	C397.907959,451.420898 397.559265,455.485565 396.903046,459.620911 
z"/>
<path fill="#FFFFFF" opacity="1.000000" stroke="none" 
	d="
M119.019867,361.099182 
	C119.019867,370.021942 119.019867,378.457428 119.019867,386.892883 
	C118.156082,387.545807 117.292297,388.198700 116.428513,388.851593 
	C116.272408,387.706787 115.984604,386.562439 115.980751,385.417114 
	C115.945686,374.990814 115.960152,364.564240 115.960152,353.537170 
	C120.835793,354.988922 118.252541,358.437988 119.019867,361.099182 
z"/>
<path fill="#FFFFFF" opacity="1.000000" stroke="none" 
	d="
M394.899292,364.036621 
	C395.542694,360.372589 393.470764,356.470947 396.170746,353.853699 
	C396.683319,353.965454 397.195862,354.077209 397.708435,354.188934 
	C397.708435,365.067200 397.708435,375.945435 397.708435,386.823700 
	C397.197784,386.970123 396.687103,387.116577 396.176453,387.263031 
	C395.751007,386.005402 394.983246,384.754608 394.957855,383.488953 
	C394.831268,377.171417 394.899567,370.849945 394.899292,364.036621 
z"/>
</svg>