<svg version="1.1" id="Layer_1" xmlns="http://www.w3.org/2000/svg" xmlns:xlink="http://www.w3.org/1999/xlink" x="0px" y="0px"
	 width="100%" viewBox="0 0 512 512" xml:space="preserve">
<path fill="#010101" opacity="1.000000" stroke="none" 
	d="
M388.403168,399.121918 
	C388.612518,400.063263 388.821869,401.004578 389.188721,402.493835 
	C389.715668,403.019196 390.242584,403.544556 390.953949,404.761505 
	C395.665131,411.579651 397.695892,419.103119 397.086456,427.384735 
	C396.864868,430.395935 396.480591,433.534027 392.770477,433.473633 
	C388.908905,433.410767 388.820526,430.271149 389.021973,427.226837 
	C389.164154,425.077698 389.174011,422.890472 388.946381,420.751801 
	C388.311188,414.784821 385.257294,409.410858 381.554962,407.402283 
	C385.030701,419.640625 382.947632,432.320526 375.684052,440.181671 
	C374.504395,441.458344 371.773651,441.301849 369.759888,441.807800 
	C369.580078,439.772522 369.159515,437.717712 369.322205,435.710205 
	C369.403351,434.709045 370.597229,433.822662 371.210175,432.836121 
	C376.962036,423.578888 376.571320,411.322723 370.152100,402.824249 
	C369.184967,401.543884 367.741608,400.623291 365.898438,398.985107 
	C362.744049,420.390198 351.770721,434.777649 332.609894,443.304413 
	C333.070038,446.097443 333.337402,448.896759 334.006561,451.596497 
	C339.408997,473.392487 362.590912,488.788452 383.899353,484.332825 
	C403.115509,481.373230 418.617828,465.852631 421.000092,447.188324 
	C423.649963,426.427429 413.069916,407.355988 394.419067,399.575470 
	C392.822815,398.909576 390.805206,399.253845 388.403168,399.121918 
M101.090630,157.866013 
	C101.090630,157.866013 101.222549,157.845413 100.929207,157.226074 
	C92.915955,150.059128 83.745491,147.931137 73.643669,151.667114 
	C63.541321,155.403290 57.975010,162.996323 56.488247,173.636459 
	C55.515682,180.596680 55.097755,180.870026 48.287678,179.416763 
	C36.785431,176.962189 24.760561,182.733536 19.396547,193.283096 
	C14.046574,203.805023 16.290333,216.377151 25.183136,224.855026 
	C27.525780,226.373672 29.745281,228.144318 32.235401,229.361160 
	C38.375576,232.361664 38.630714,232.900101 35.259430,238.927765 
	C29.456993,249.302155 30.958033,261.494781 39.319565,270.597626 
	C44.909657,276.133545 51.644661,278.693329 59.495468,278.408936 
	C68.862083,278.069641 75.493675,272.944489 81.885345,266.089233 
	C83.991005,267.373444 86.096657,268.657654 88.465294,270.546753 
	C99.073753,280.197510 112.972420,281.193451 123.462425,273.054535 
	C133.833267,265.008087 136.798004,250.959671 130.552841,239.456512 
	C126.831429,232.601929 126.831444,232.601944 134.124969,229.047729 
	C150.564606,221.036560 154.172974,199.047745 140.783173,186.224152 
	C133.816376,179.802917 125.716255,177.604935 116.456299,179.661041 
	C110.771011,180.923431 109.629257,179.956772 109.007500,173.883820 
	C108.421852,168.163574 106.560501,162.963928 102.030655,158.372437 
	C101.717003,158.159119 101.403343,157.945816 101.090630,157.866013 
M222.235992,124.018921 
	C221.258011,119.205177 218.888260,116.343590 213.442368,115.966789 
	C210.499924,115.763214 207.692215,113.762718 204.799316,112.635498 
	C203.130676,111.985313 201.413422,111.459869 199.718048,110.878281 
	C199.275162,112.942520 198.832275,115.006760 198.376770,117.839333 
	C201.192337,137.156097 209.403076,153.939072 222.322495,168.458481 
	C223.550735,169.838821 225.573257,171.765930 226.947403,171.561325 
	C236.493973,170.139801 245.966568,168.221588 254.435059,166.653076 
	C248.665039,160.391876 242.202408,154.319229 236.899292,147.362625 
	C231.494659,140.272888 227.230484,132.313766 222.235992,124.018921 
M454.179749,32.890438 
	C452.464294,32.249588 450.748871,31.608742 448.809235,30.322756 
	C441.064575,22.834721 431.406891,21.832298 423.671051,27.713512 
	C416.055389,33.503372 414.120636,43.100937 419.112610,52.155544 
	C421.413971,56.329762 420.195496,58.269306 416.162048,60.146782 
	C403.176422,66.191269 401.081238,81.866417 412.164337,91.734505 
	C416.559509,94.861137 421.340515,96.187836 426.761566,95.241531 
	C433.302277,94.099792 433.691498,94.463730 434.752808,101.132210 
	C436.238098,110.464798 443.782013,117.015633 453.029236,117.002762 
	C462.265594,116.989906 469.764740,110.430870 471.249451,101.066635 
	C472.299774,94.442078 472.632263,94.199806 479.277344,95.216614 
	C488.682922,96.655823 497.186523,91.562683 500.042175,82.779724 
	C502.968994,73.777718 498.924561,64.508835 490.187561,60.195511 
	C484.750031,57.511082 484.564911,56.874454 487.261993,51.568798 
	C490.690735,44.824020 490.894012,38.237133 485.919159,31.308050 
	C483.006042,29.197538 480.376129,26.313353 477.125977,25.123600 
	C467.884003,21.740505 460.711426,25.624432 454.179749,32.890438 
M352.263611,395.965515 
	C347.160706,402.947449 340.457336,407.528473 332.002777,409.496094 
	C329.156921,410.158417 326.030334,410.950531 325.070068,407.084564 
	C324.132294,403.309265 326.884705,402.474091 329.962097,401.764771 
	C337.270660,400.080200 343.005798,396.114410 346.902893,389.383331 
	C346.294464,389.189178 346.097046,389.052521 345.993347,389.104126 
	C344.527283,389.833954 343.074677,390.590637 341.617493,391.338287 
	C332.379120,396.078094 322.817810,396.688660 313.217255,392.880341 
	C311.753998,392.299896 311.202209,389.421692 310.228821,387.606293 
	C312.036133,386.904266 313.808289,386.072449 315.669220,385.568420 
	C316.349213,385.384277 317.236755,385.990845 318.035339,386.216339 
	C328.863190,389.274109 340.270752,385.528931 346.914948,376.600800 
	C347.999390,375.143555 348.602905,373.328400 349.810242,370.916412 
	C328.120697,374.938568 310.785461,368.954865 297.135376,353.176758 
	C272.655151,363.153778 261.714935,392.161713 273.985901,414.728638 
	C274.717194,416.028656 275.383118,417.370850 276.189697,418.622345 
	C286.346649,434.381775 305.746063,442.137604 323.975433,437.750793 
	C342.160797,433.374512 356.141235,417.490387 357.799469,398.994080 
	C358.012421,396.618622 357.005249,394.133820 356.563293,391.699707 
	C356.000153,391.731995 355.437012,391.764313 354.873840,391.796631 
	C354.205109,393.074554 353.536346,394.352478 352.263611,395.965515 
M436.896820,280.311310 
	C413.632843,269.267487 387.937256,277.263428 376.713409,299.396729 
	C369.136993,314.337280 369.959930,329.218842 378.665802,343.554352 
	C379.801727,345.424835 381.112366,348.461761 384.062653,344.105652 
	C383.348145,334.355591 386.031158,325.703979 392.475128,318.296295 
	C394.356415,316.133636 396.396057,313.565460 399.497711,316.227051 
	C402.517670,318.818542 400.632874,321.165924 398.620361,323.442108 
	C393.433807,329.308105 391.260162,336.130676 392.325195,345.064514 
	C393.421234,342.673889 394.070496,341.239288 394.734833,339.811768 
	C399.111877,330.406433 406.256622,324.161621 416.108704,320.917877 
	C418.922913,319.991302 421.591736,319.649994 422.722137,322.980438 
	C423.877594,326.384705 421.430084,327.638916 418.642639,328.541199 
	C409.223511,331.590088 403.015228,337.937103 400.564026,347.478546 
	C399.631104,351.109924 399.984100,355.071686 399.704803,359.639404 
	C401.434540,358.852783 401.951691,358.762329 402.255646,358.458588 
	C415.826813,344.895905 431.995850,339.656891 450.974976,342.925262 
	C452.216736,343.139099 454.373047,341.950836 455.078186,340.791107 
	C467.344116,320.617767 458.565186,291.190063 436.896820,280.311310 
M160.325821,70.632210 
	C161.329544,71.219170 162.305176,71.861855 163.341599,72.383904 
	C169.429825,75.450615 169.206253,75.612213 166.615021,81.734924 
	C165.181671,85.121704 164.228134,89.157532 164.570084,92.757172 
	C165.289932,100.334534 169.773056,105.604439 177.096817,108.014091 
	C184.458542,110.436249 190.871048,108.458107 196.300217,103.106201 
	C200.758621,98.711243 201.224365,98.695877 205.818146,103.228966 
	C206.762405,104.160744 207.767365,105.063614 208.863251,105.803795 
	C215.763565,110.464424 224.828995,109.938896 231.127548,104.568176 
	C237.625275,99.027641 239.533478,90.058746 235.853149,82.357010 
	C232.602600,75.554665 232.713776,75.745575 238.818497,72.190697 
	C241.466888,70.648499 244.080460,68.498840 245.788635,65.996292 
	C250.233795,59.483944 250.190994,52.543964 246.020142,45.824642 
	C242.027420,39.392300 234.660675,36.328266 227.062958,37.691929 
	C220.897659,38.798492 220.549362,38.275879 219.173050,32.137749 
	C218.444397,28.887997 216.505554,25.909590 214.879333,22.175098 
	C209.469482,16.470331 202.954590,14.426426 195.423630,16.845875 
	C187.696609,19.328318 183.578323,24.886259 182.554459,32.924679 
	C181.886337,38.170116 180.821075,38.756268 175.131897,37.738953 
	C166.493500,36.194279 158.560699,40.118526 154.880875,47.756851 
	C151.037476,55.734711 152.968781,64.134247 160.325821,70.632210 
M306.375702,288.231201 
	C291.937805,303.542969 289.152649,324.569519 299.243011,342.079590 
	C309.029999,359.063202 328.986938,367.711151 347.985077,362.933685 
	C349.808350,362.475189 351.213593,360.354370 352.675812,358.283081 
	C341.785614,356.052246 333.376343,350.297882 328.331879,340.319580 
	C327.633759,338.938538 329.153870,336.436035 329.647064,334.452728 
	C331.456360,335.106567 333.388245,335.549042 335.025787,336.498932 
	C335.911469,337.012756 336.235992,338.435150 336.914124,339.375183 
	C341.056152,345.116791 346.431244,348.892731 354.466919,350.162842 
	C352.550598,348.490631 351.283081,347.469147 350.110840,346.348022 
	C342.356140,338.931519 338.328278,329.893982 339.113373,319.132660 
	C339.230194,317.531250 341.742249,316.104553 343.146210,314.597046 
	C344.403564,316.080566 345.776733,317.486115 346.856445,319.089294 
	C347.241516,319.661041 346.893127,320.712341 346.917480,321.543640 
	C347.253784,333.028656 354.908386,343.062714 365.922791,346.327881 
	C367.366333,346.755798 368.942047,346.737762 371.259338,347.026215 
	C361.107239,327.822571 361.415344,309.595215 371.851440,291.704498 
	C355.428009,271.441620 324.329071,269.704529 306.375702,288.231201 
M408.754028,370.805084 
	C418.138214,367.340057 427.405273,367.689880 436.266113,372.279999 
	C437.642212,372.992828 437.999268,375.672699 438.827576,377.442993 
	C436.886505,378.082245 434.979584,379.018738 432.991272,379.247314 
	C431.829407,379.380920 430.555298,378.331390 429.301117,377.903931 
	C422.646057,375.635773 415.546326,376.160980 410.615082,379.530670 
	C412.074921,379.730499 413.131927,379.893250 414.193420,380.017670 
	C424.469330,381.222076 432.776672,385.864227 438.986786,394.184875 
	C440.774261,396.579803 442.493713,399.166321 439.163086,401.443268 
	C436.226807,403.450531 434.345581,401.446930 432.644318,399.068390 
	C428.488556,393.258209 422.787567,389.546356 415.802551,388.388428 
	C409.607025,387.361359 403.353821,387.373444 397.681213,392.131622 
	C415.997589,401.278961 426.690399,415.260040 429.150238,435.228729 
	C429.274841,436.240448 430.793762,437.619568 431.895172,437.892395 
	C454.767303,443.558258 479.863129,426.647491 484.137238,402.186249 
	C488.084473,383.004852 477.627228,362.677155 459.388855,354.078186 
	C441.479309,345.634247 418.685852,350.587524 406.507996,365.752136 
	C405.276947,367.285126 405.033173,369.610931 404.331238,371.568817 
	C404.707825,371.760437 405.084412,371.952057 405.460999,372.143646 
	C406.298035,371.706909 407.135101,371.270172 408.754028,370.805084 
M426.399506,121.544365 
	C426.555939,121.025040 426.712372,120.505714 427.215881,119.386574 
	C434.136963,113.763367 427.712616,108.862488 426.805725,104.205826 
	C418.838776,101.058884 414.034088,104.902031 409.285828,110.179573 
	C403.281830,116.852859 396.666321,122.977066 390.296539,129.320007 
	C361.286377,158.207993 326.297089,172.759537 285.367584,172.992126 
	C257.705811,173.149323 230.561935,177.048706 204.499054,186.253891 
	C189.850464,191.427643 175.899429,198.576355 160.927002,204.951324 
	C159.581879,206.217163 157.274277,207.328857 157.042984,208.773056 
	C155.085526,220.995026 148.787918,230.119232 137.969360,236.330795 
	C138.720871,237.754379 139.325790,238.900284 139.976456,240.851578 
	C145.724854,259.033051 136.599976,273.995453 126.342514,280.840851 
	C118.203430,286.272583 109.229919,286.684845 99.327873,285.771759 
	C93.706100,283.028381 88.084328,280.285034 81.946350,277.289764 
	C75.833206,281.581207 67.889313,285.174774 64.263214,294.293518 
	C44.659096,324.732147 31.613914,357.779480 26.072071,393.543121 
	C22.486860,416.679901 20.016230,439.990204 17.102184,463.229767 
	C15.886773,472.922699 14.816927,482.633850 13.624818,492.815613 
	C18.742504,492.815613 23.348206,492.815613 28.887951,492.953430 
	C74.137520,492.953430 119.387093,492.953430 164.998672,492.953430 
	C164.998672,484.449890 164.993027,476.641235 165.000320,468.832611 
	C165.007202,461.463501 165.480682,461.005859 173.049423,460.999603 
	C179.381699,460.994385 185.714386,461.043976 192.046158,460.987335 
	C219.034744,460.745850 243.452728,452.680695 265.240326,436.751648 
	C268.384216,434.453125 271.308380,431.854065 274.087769,429.594452 
	C270.638763,424.096191 267.665985,419.357117 265.408600,415.758514 
	C254.203995,421.300568 243.694427,427.474670 232.479340,431.833496 
	C212.026825,439.782562 190.359497,436.542053 169.129044,436.737213 
	C167.769363,436.749725 165.366119,433.585449 165.193283,431.735931 
	C164.668381,426.119110 164.819885,420.415436 165.031921,414.757751 
	C165.711029,396.637054 164.322098,378.098907 167.688187,360.477722 
	C182.264618,284.171387 227.675690,235.228836 302.235321,213.055786 
	C316.373596,208.851257 330.076691,203.101547 343.795624,197.603348 
	C350.605865,194.873978 350.587341,194.257095 355.442322,200.063293 
	C370.086517,217.576614 387.825897,230.620911 409.458923,238.205399 
	C420.797821,242.180771 432.430481,244.429626 444.614105,244.807693 
	C444.614105,239.295883 444.614105,234.248184 444.614105,229.171509 
	C443.252197,229.003448 442.265961,228.867325 441.276428,228.761719 
	C412.136475,225.651810 388.911041,212.396591 371.838043,188.456009 
	C369.284210,184.874893 369.581146,182.422302 373.188416,179.672974 
	C379.408142,174.932571 385.538971,170.014114 391.251892,164.682602 
	C404.445251,152.370056 416.247223,138.856735 425.586884,122.763466 
	C425.795837,122.490303 425.903137,122.181763 426.399506,121.544365 
M390.985657,359.499268 
	C383.109497,352.954834 374.414825,351.968018 366.596405,356.731262 
	C359.431549,361.096313 355.612946,369.816650 357.386047,377.764557 
	C359.282715,386.266357 365.852020,392.312988 374.607849,393.616180 
	C382.203491,394.746704 390.318024,390.618530 394.331787,383.581818 
	C398.716003,375.895630 397.751404,367.871338 390.985657,359.499268 
M254.534042,452.992401 
	C249.511444,455.451721 244.488831,457.911011 238.790710,460.701111 
	C257.864288,471.096191 276.355438,481.173859 294.787567,491.219360 
	C300.723511,482.798523 300.708038,482.820251 293.016388,477.342957 
	C282.160919,469.612762 271.370514,461.790161 260.442383,454.164581 
	C259.022339,453.173676 256.949036,453.118927 254.534042,452.992401 
z"/>
<path fill="#A55A00" opacity="1.000000" stroke="none" 
	d="
M139.930710,240.046173 
	C139.325790,238.900284 138.720871,237.754379 137.969360,236.330795 
	C148.787918,230.119232 155.085526,220.995026 157.042984,208.773056 
	C157.274277,207.328857 159.581879,206.217163 161.604050,205.118927 
	C163.576782,210.619522 164.872467,215.952515 166.275223,221.726196 
	C167.711624,221.046387 169.382050,220.399323 170.911560,219.509918 
	C188.106400,209.511261 206.248871,201.471939 225.446167,196.551987 
	C242.743454,192.118973 260.398621,188.784149 278.079987,186.248169 
	C290.830231,184.419449 303.900208,184.936310 316.796021,183.980759 
	C338.775085,182.352142 358.842041,174.922714 377.502686,163.339828 
	C393.490814,153.415817 406.390808,139.985352 419.630981,126.909012 
	C421.211578,125.347984 423.312714,124.314056 425.172577,123.035812 
	C416.247223,138.856735 404.445251,152.370056 391.251892,164.682602 
	C385.538971,170.014114 379.408142,174.932571 373.188416,179.672974 
	C369.581146,182.422302 369.284210,184.874893 371.838043,188.456009 
	C388.911041,212.396591 412.136475,225.651810 441.276428,228.761719 
	C442.265961,228.867325 443.252197,229.003448 444.614105,229.171509 
	C444.614105,234.248184 444.614105,239.295883 444.614105,244.807693 
	C432.430481,244.429626 420.797821,242.180771 409.458923,238.205399 
	C387.825897,230.620911 370.086517,217.576614 355.442322,200.063293 
	C350.587341,194.257095 350.605865,194.873978 343.795624,197.603348 
	C330.076691,203.101547 316.373596,208.851257 302.235321,213.055786 
	C227.675690,235.228836 182.264618,284.171387 167.688187,360.477722 
	C164.322098,378.098907 165.711029,396.637054 165.031921,414.757751 
	C164.819885,420.415436 164.668381,426.119110 165.193283,431.735931 
	C165.366119,433.585449 167.769363,436.749725 169.129044,436.737213 
	C190.359497,436.542053 212.026825,439.782562 232.479340,431.833496 
	C243.694427,427.474670 254.203995,421.300568 265.408600,415.758514 
	C267.665985,419.357117 270.638763,424.096191 274.087769,429.594452 
	C271.308380,431.854065 268.384216,434.453125 265.240326,436.751648 
	C243.452728,452.680695 219.034744,460.745850 192.046158,460.987335 
	C185.714386,461.043976 179.381699,460.994385 173.049423,460.999603 
	C165.480682,461.005859 165.007202,461.463501 165.000320,468.832611 
	C164.993027,476.641235 164.998672,484.449890 164.998672,492.953430 
	C119.387093,492.953430 74.137520,492.953430 28.428814,492.448639 
	C28.056673,489.948944 28.004591,487.936554 28.252422,485.961823 
	C30.461725,468.358063 33.087948,450.797791 34.877262,433.152344 
	C37.047447,411.750854 40.804436,390.725677 47.416214,370.245209 
	C56.391762,342.442841 69.658470,316.844604 87.028893,293.358490 
	C87.797012,292.319916 88.187477,291.002045 89.363632,288.535492 
	C80.779190,293.467743 73.276436,296.254150 64.802917,293.899933 
	C67.889313,285.174774 75.833206,281.581207 81.946350,277.289764 
	C88.084328,280.285034 93.706100,283.028381 99.715179,286.271942 
	C100.730179,287.511200 101.242531,288.407074 102.002586,288.966248 
	C117.800758,300.589172 141.420242,293.029022 148.064316,274.453217 
	C151.606140,264.550781 149.657135,255.537537 144.429428,246.625626 
	C153.585739,241.618301 161.691528,235.902420 163.907043,225.200577 
	C163.535080,224.758789 163.163101,224.317017 162.791138,223.875244 
	C155.170990,229.265549 147.550858,234.655869 139.930710,240.046173 
M90.557274,287.518982 
	C90.557274,287.518982 90.485519,287.556610 90.557274,287.518982 
z"/>
<path fill="#FDA4CE" opacity="1.000000" stroke="none" 
	d="
M88.202316,269.941864 
	C86.096657,268.657654 83.991005,267.373444 81.165573,266.016418 
	C78.061470,264.234100 75.779999,262.344238 73.245331,260.898254 
	C72.135643,260.265198 69.820229,259.877045 69.220207,260.500885 
	C60.856194,269.197205 50.440399,271.010284 39.080704,269.967224 
	C30.958033,261.494781 29.456993,249.302155 35.259430,238.927765 
	C38.630714,232.900101 38.375576,232.361664 32.235401,229.361160 
	C29.745281,228.144318 27.525780,226.373672 25.071419,224.067627 
	C24.972651,221.781662 25.132692,220.267563 24.976295,218.786865 
	C22.921307,199.331131 42.205585,183.669678 60.684612,187.461212 
	C64.263161,188.195465 64.648331,186.066925 64.956863,183.637985 
	C66.261742,173.364914 72.174614,166.541199 80.871742,161.490463 
	C87.300354,157.757126 94.262947,158.053955 101.222549,157.845413 
	C101.222549,157.845413 101.090630,157.866013 101.224663,158.044876 
	C101.642281,158.457916 101.925858,158.692108 102.209435,158.926300 
	C106.560501,162.963928 108.421852,168.163574 109.007500,173.883820 
	C109.629257,179.956772 110.771011,180.923431 116.456299,179.661041 
	C125.716255,177.604935 133.816376,179.802917 140.899597,187.002747 
	C141.864960,199.173080 139.183319,209.243607 129.828964,216.624802 
	C127.009354,218.849640 123.838402,220.629227 120.831291,222.610886 
	C128.827454,238.971207 127.194595,252.282410 115.515556,262.915253 
	C107.744949,269.989777 98.321793,271.539276 88.202316,269.941864 
M94.370705,202.011261 
	C91.914383,200.732147 89.458069,199.453049 86.856277,198.098190 
	C86.856277,194.767197 87.207764,191.393982 86.762436,188.129456 
	C86.266785,184.496017 89.363213,178.298706 82.918922,178.128387 
	C76.127426,177.948853 79.466248,184.289139 78.944519,187.814926 
	C78.421829,191.347214 78.829704,195.017212 78.829704,197.016846 
	C73.371872,201.083130 69.063736,204.292862 64.183304,207.928955 
	C60.334919,206.712540 55.545189,205.346191 50.868126,203.666199 
	C47.948696,202.617554 45.373131,202.528427 44.293541,205.785217 
	C43.169224,209.176926 45.635147,210.421173 48.453094,211.300735 
	C53.312408,212.817429 58.115078,214.515625 61.395473,215.618073 
	C63.562485,221.972107 65.284637,227.021744 67.233345,232.735703 
	C64.588181,236.404510 61.142689,240.709595 58.327534,245.393524 
	C57.542698,246.699387 58.621117,249.125107 58.844757,251.037064 
	C60.743088,250.718124 63.285763,251.053955 64.409607,249.948029 
	C66.986610,247.412033 69.091225,244.305511 70.977951,241.183060 
	C73.023712,237.797424 75.058739,236.260498 79.371391,237.746399 
	C81.972130,238.642441 85.254639,237.359268 88.206329,237.515961 
	C89.846939,237.603058 91.950195,238.186249 92.951820,239.328796 
	C95.684151,242.445602 97.671356,246.235703 100.514519,249.225830 
	C101.732971,250.507263 104.779152,251.458572 106.225090,250.819122 
	C109.121674,249.538193 108.499969,246.829544 106.816833,244.517700 
	C104.269157,241.018402 101.608078,237.592972 99.248528,233.971130 
	C98.614655,232.998138 98.459503,231.279846 98.837318,230.156952 
	C100.392288,225.535522 102.237129,221.011612 104.339737,215.496063 
	C108.147270,214.252243 113.322144,212.905991 118.152382,210.777603 
	C119.633873,210.124817 120.171280,207.329468 121.140999,205.515244 
	C119.348717,204.762985 117.538979,203.371506 115.768539,203.419846 
	C113.541214,203.480637 111.209442,204.452316 109.163132,205.500336 
	C103.510300,208.395416 98.625885,208.480148 94.370705,202.011261 
z"/>
<path fill="#BC6D19" opacity="1.000000" stroke="none" 
	d="
M425.379730,122.899643 
	C423.312714,124.314056 421.211578,125.347984 419.630981,126.909012 
	C406.390808,139.985352 393.490814,153.415817 377.502686,163.339828 
	C358.842041,174.922714 338.775085,182.352142 316.796021,183.980759 
	C303.900208,184.936310 290.830231,184.419449 278.079987,186.248169 
	C260.398621,188.784149 242.743454,192.118973 225.446167,196.551987 
	C206.248871,201.471939 188.106400,209.511261 170.911560,219.509918 
	C169.382050,220.399323 167.711624,221.046387 166.275223,221.726196 
	C164.872467,215.952515 163.576782,210.619522 161.957611,205.060913 
	C175.899429,198.576355 189.850464,191.427643 204.499054,186.253891 
	C230.561935,177.048706 257.705811,173.149323 285.367584,172.992126 
	C326.297089,172.759537 361.286377,158.207993 390.296539,129.320007 
	C396.666321,122.977066 403.281830,116.852859 409.285828,110.179573 
	C414.034088,104.902031 418.838776,101.058884 426.805725,104.205826 
	C427.712616,108.862488 434.136963,113.763367 426.839355,119.866165 
	C426.278168,120.843124 426.093445,121.340485 425.908722,121.837845 
	C425.903137,122.181763 425.795837,122.490303 425.379730,122.899643 
z"/>
<path fill="#FDA4CE" opacity="1.000000" stroke="none" 
	d="
M483.877075,402.979065 
	C479.863129,426.647491 454.767303,443.558258 431.895172,437.892395 
	C430.793762,437.619568 429.274841,436.240448 429.150238,435.228729 
	C426.690399,415.260040 415.997589,401.278961 397.681213,392.131622 
	C403.353821,387.373444 409.607025,387.361359 415.802551,388.388428 
	C422.787567,389.546356 428.488556,393.258209 432.644318,399.068390 
	C434.345581,401.446930 436.226807,403.450531 439.163086,401.443268 
	C442.493713,399.166321 440.774261,396.579803 438.986786,394.184875 
	C432.776672,385.864227 424.469330,381.222076 414.193420,380.017670 
	C413.131927,379.893250 412.074921,379.730499 410.615082,379.530670 
	C415.546326,376.160980 422.646057,375.635773 429.301117,377.903931 
	C430.555298,378.331390 431.829407,379.380920 432.991272,379.247314 
	C434.979584,379.018738 436.886505,378.082245 438.827576,377.442993 
	C437.999268,375.672699 437.642212,372.992828 436.266113,372.279999 
	C427.405273,367.689880 418.138214,367.340057 408.452515,370.496094 
	C424.320465,356.821808 452.386047,358.532959 468.166412,373.606781 
	C476.674805,381.734161 481.185669,391.827972 483.877075,402.979065 
z"/>
<path fill="#FDA4CE" opacity="1.000000" stroke="none" 
	d="
M307.000977,287.977142 
	C324.329071,269.704529 355.428009,271.441620 371.851440,291.704498 
	C361.415344,309.595215 361.107239,327.822571 371.259338,347.026215 
	C368.942047,346.737762 367.366333,346.755798 365.922791,346.327881 
	C354.908386,343.062714 347.253784,333.028656 346.917480,321.543640 
	C346.893127,320.712341 347.241516,319.661041 346.856445,319.089294 
	C345.776733,317.486115 344.403564,316.080566 343.146210,314.597046 
	C341.742249,316.104553 339.230194,317.531250 339.113373,319.132660 
	C338.328278,329.893982 342.356140,338.931519 350.110840,346.348022 
	C351.283081,347.469147 352.550598,348.490631 354.466919,350.162842 
	C346.431244,348.892731 341.056152,345.116791 336.914124,339.375183 
	C336.235992,338.435150 335.911469,337.012756 335.025787,336.498932 
	C333.388245,335.549042 331.456360,335.106567 329.647064,334.452728 
	C329.153870,336.436035 327.633759,338.938538 328.331879,340.319580 
	C333.376343,350.297882 341.785614,356.052246 352.310486,358.646179 
	C335.644714,358.487701 321.821442,352.674438 311.994171,339.306366 
	C304.373596,328.940094 300.508057,317.291351 302.965729,304.262665 
	C304.000763,298.775665 305.637665,293.402222 307.000977,287.977142 
z"/>
<path fill="#FBA3CD" opacity="1.000000" stroke="none" 
	d="
M215.113052,22.808685 
	C216.505554,25.909590 218.444397,28.887997 219.173050,32.137749 
	C220.549362,38.275879 220.897659,38.798492 227.062958,37.691929 
	C234.660675,36.328266 242.027420,39.392300 246.020142,45.824642 
	C250.190994,52.543964 250.233795,59.483944 245.788635,65.996292 
	C244.080460,68.498840 241.466888,70.648499 238.818497,72.190697 
	C232.713776,75.745575 232.602600,75.554665 235.853149,82.357010 
	C239.533478,90.058746 237.625275,99.027641 231.127548,104.568176 
	C224.828995,109.938896 215.763565,110.464424 208.863251,105.803795 
	C207.767365,105.063614 206.762405,104.160744 205.818146,103.228966 
	C201.224365,98.695877 200.758621,98.711243 196.300217,103.106201 
	C190.871048,108.458107 184.458542,110.436249 177.096817,108.014091 
	C169.773056,105.604439 165.289932,100.334534 164.570084,92.757172 
	C164.228134,89.157532 165.181671,85.121704 166.615021,81.734924 
	C169.206253,75.612213 169.429825,75.450615 163.341599,72.383904 
	C162.305176,71.861855 161.329544,71.219170 160.414429,70.028160 
	C160.652069,68.952065 160.928940,68.480713 160.931519,68.007866 
	C161.003891,54.686337 173.127487,43.024101 187.284988,45.832890 
	C189.825821,46.336975 190.738251,45.219593 191.077484,42.660561 
	C192.306824,33.387230 198.171249,27.961266 206.624298,25.010065 
	C209.374817,24.049786 212.279099,23.529961 215.113052,22.808685 
M193.264175,51.574150 
	C188.870911,56.957878 183.650269,56.654964 178.054703,53.789814 
	C177.907852,53.714622 177.741196,53.679241 177.588470,53.614243 
	C174.830154,52.440102 172.555847,52.897850 171.587418,55.937878 
	C170.577484,59.108131 172.601532,60.432713 175.300751,61.229504 
	C177.689774,61.934715 180.066772,62.710312 182.379532,63.629768 
	C183.334213,64.009315 184.561691,64.665527 184.893250,65.501892 
	C188.535599,74.689972 188.437149,75.148277 182.583817,83.935852 
	C182.307022,84.351387 181.764374,84.800179 181.806900,85.182144 
	C182.005554,86.966827 181.789307,89.554474 182.826096,90.283012 
	C183.933289,91.061050 186.845062,90.717834 187.962204,89.727852 
	C190.155640,87.784111 191.556229,84.972725 193.483536,82.687927 
	C194.223541,81.810669 195.472137,80.916878 196.546906,80.839943 
	C203.457474,80.345284 209.999878,80.859001 212.994553,88.690979 
	C213.164276,89.134872 213.553329,89.752586 213.923813,89.818260 
	C215.708755,90.134598 218.066116,91.057846 219.167984,90.278282 
	C220.204559,89.544907 220.678314,86.619621 220.068604,85.252228 
	C218.872894,82.570686 216.604935,80.388733 215.084259,77.820312 
	C214.455521,76.758392 214.182144,75.129402 214.475311,73.937370 
	C216.138275,67.175293 219.117188,61.747612 227.170334,60.852024 
	C228.426895,60.712284 229.355072,57.619816 230.435104,55.892727 
	C228.567047,55.070400 226.646469,53.481262 224.843170,53.604736 
	C222.110596,53.791843 219.495544,55.323879 216.755676,55.964054 
	C215.705688,56.209389 214.235474,55.891571 213.327957,55.279762 
	C210.605270,53.444256 208.065643,51.337189 205.005676,48.992058 
	C205.005676,47.675167 205.212204,45.657188 204.959961,43.698288 
	C204.520523,40.285671 207.019669,34.752663 201.120010,34.609024 
	C195.089111,34.462196 197.498169,40.037079 197.019699,43.444866 
	C196.859116,44.588612 197.354309,45.939259 196.911972,46.902416 
	C196.202560,48.447052 194.961899,49.747700 193.264175,51.574150 
z"/>
<path fill="#FDA4CE" opacity="1.000000" stroke="none" 
	d="
M383.066223,484.250244 
	C362.590912,488.788452 339.408997,473.392487 334.006561,451.596497 
	C333.337402,448.896759 333.070038,446.097443 332.609894,443.304413 
	C351.770721,434.777649 362.744049,420.390198 365.898438,398.985107 
	C367.741608,400.623291 369.184967,401.543884 370.152100,402.824249 
	C376.571320,411.322723 376.962036,423.578888 371.210175,432.836121 
	C370.597229,433.822662 369.403351,434.709045 369.322205,435.710205 
	C369.159515,437.717712 369.580078,439.772522 369.759888,441.807800 
	C371.773651,441.301849 374.504395,441.458344 375.684052,440.181671 
	C382.947632,432.320526 385.030701,419.640625 381.554962,407.402283 
	C385.257294,409.410858 388.311188,414.784821 388.946381,420.751801 
	C389.174011,422.890472 389.164154,425.077698 389.021973,427.226837 
	C388.820526,430.271149 388.908905,433.410767 392.770477,433.473633 
	C396.480591,433.534027 396.864868,430.395935 397.086456,427.384735 
	C397.695892,419.103119 395.665131,411.579651 391.230774,404.438904 
	C393.613739,405.849121 395.968414,407.355408 397.787231,409.350250 
	C413.803345,426.916382 413.161346,456.434906 396.291779,473.112183 
	C392.206024,477.151337 387.491577,480.554596 383.066223,484.250244 
z"/>
<path fill="#FDA4CE" opacity="1.000000" stroke="none" 
	d="
M437.342102,280.893585 
	C458.565186,291.190063 467.344116,320.617767 455.078186,340.791107 
	C454.373047,341.950836 452.216736,343.139099 450.974976,342.925262 
	C431.995850,339.656891 415.826813,344.895905 402.255646,358.458588 
	C401.951691,358.762329 401.434540,358.852783 399.704803,359.639404 
	C399.984100,355.071686 399.631104,351.109924 400.564026,347.478546 
	C403.015228,337.937103 409.223511,331.590088 418.642639,328.541199 
	C421.430084,327.638916 423.877594,326.384705 422.722137,322.980438 
	C421.591736,319.649994 418.922913,319.991302 416.108704,320.917877 
	C406.256622,324.161621 399.111877,330.406433 394.734833,339.811768 
	C394.070496,341.239288 393.421234,342.673889 392.325195,345.064514 
	C391.260162,336.130676 393.433807,329.308105 398.620361,323.442108 
	C400.632874,321.165924 402.517670,318.818542 399.497711,316.227051 
	C396.396057,313.565460 394.356415,316.133636 392.475128,318.296295 
	C386.031158,325.703979 383.348145,334.355591 383.760315,344.279907 
	C374.607300,320.333191 387.886658,291.719849 412.391754,283.998260 
	C420.253998,281.520844 429.000275,281.848999 437.342102,280.893585 
z"/>
<path fill="#FDA4CE" opacity="1.000000" stroke="none" 
	d="
M273.909332,414.019867 
	C261.714935,392.161713 272.655151,363.153778 297.135376,353.176758 
	C310.785461,368.954865 328.120697,374.938568 349.810242,370.916412 
	C348.602905,373.328400 347.999390,375.143555 346.914948,376.600800 
	C340.270752,385.528931 328.863190,389.274109 318.035339,386.216339 
	C317.236755,385.990845 316.349213,385.384277 315.669220,385.568420 
	C313.808289,386.072449 312.036133,386.904266 310.228821,387.606293 
	C311.202209,389.421692 311.753998,392.299896 313.217255,392.880341 
	C322.817810,396.688660 332.379120,396.078094 341.617493,391.338287 
	C343.074677,390.590637 344.527283,389.833954 345.993347,389.104126 
	C346.097046,389.052521 346.294464,389.189178 346.902893,389.383331 
	C343.005798,396.114410 337.270660,400.080200 329.962097,401.764771 
	C326.884705,402.474091 324.132294,403.309265 325.070068,407.084564 
	C326.030334,410.950531 329.156921,410.158417 332.002777,409.496094 
	C340.457336,407.528473 347.160706,402.947449 352.599335,396.211365 
	C352.006073,399.064789 351.441071,401.881500 350.084259,404.243347 
	C344.581024,413.822968 336.433105,420.628937 326.127594,424.287109 
	C308.632080,430.497528 292.266205,428.316467 277.668030,416.213654 
	C276.566193,415.300171 275.169159,414.742767 273.909332,414.019867 
z"/>
<path fill="#FBA3CD" opacity="1.000000" stroke="none" 
	d="
M486.081512,31.970974 
	C490.894012,38.237133 490.690735,44.824020 487.261993,51.568798 
	C484.564911,56.874454 484.750031,57.511082 490.187561,60.195511 
	C498.924561,64.508835 502.968994,73.777718 500.042175,82.779724 
	C497.186523,91.562683 488.682922,96.655823 479.277344,95.216614 
	C472.632263,94.199806 472.299774,94.442078 471.249451,101.066635 
	C469.764740,110.430870 462.265594,116.989906 453.029236,117.002762 
	C443.782013,117.015633 436.238098,110.464798 434.752808,101.132210 
	C433.691498,94.463730 433.302277,94.099792 426.761566,95.241531 
	C421.340515,96.187836 416.559509,94.861137 412.275146,91.137436 
	C413.630585,80.243065 417.717163,71.769470 427.954346,67.391968 
	C427.354248,65.968338 426.995270,65.056038 426.590149,64.164719 
	C421.163788,52.226475 425.723785,39.599876 437.723389,34.236713 
	C441.271576,32.650856 445.251404,32.030624 449.033417,30.967892 
	C450.748871,31.608742 452.464294,32.249588 454.760590,33.138943 
	C457.561005,34.813320 460.059601,35.947792 461.929688,37.738636 
	C464.283813,39.993008 465.801514,39.616306 468.151093,37.662102 
	C473.280640,33.395771 479.290527,31.301262 486.081512,31.970974 
M471.532196,48.849205 
	C473.192719,46.579369 473.889709,44.128941 471.176361,42.357277 
	C468.283020,40.468079 466.248596,42.214344 464.603302,44.689911 
	C463.317169,46.625072 461.944275,48.516113 460.453094,50.295357 
	C459.780396,51.098095 458.693268,52.163776 457.850250,52.116241 
	C451.566742,51.761921 444.402740,53.176968 441.540375,44.954430 
	C441.382904,44.502033 441.048615,43.871811 440.677368,43.773148 
	C438.678833,43.241997 436.642548,42.852833 434.619263,42.414673 
	C434.516571,44.472496 433.673248,46.894249 434.467804,48.511173 
	C436.043884,51.718536 438.523346,54.481998 439.842621,56.327980 
	C438.447083,65.424171 434.953796,71.424019 425.894196,72.305939 
	C424.911469,72.401619 423.119843,75.969147 423.609955,76.795532 
	C424.455170,78.220657 426.946808,79.713928 428.484131,79.476028 
	C432.186859,78.903023 435.737213,77.345085 438.266418,76.532303 
	C447.085938,80.243645 450.725403,86.095016 449.238708,94.938065 
	C449.083771,95.859467 451.768890,98.196899 453.094330,98.164391 
	C454.416931,98.131958 456.607239,96.073700 456.801880,94.678291 
	C457.323273,90.940117 456.979645,87.081284 456.979645,83.820572 
	C460.582947,81.185211 463.759979,78.861595 467.175995,76.363213 
	C468.998566,76.924545 471.192780,77.688240 473.434357,78.269447 
	C476.544861,79.075958 480.492584,82.222015 482.209717,77.003181 
	C483.921906,71.799309 478.881927,72.018265 475.919678,70.771484 
	C473.672729,69.825775 469.687073,69.207390 469.461151,67.919548 
	C468.461914,62.222939 462.872803,56.012177 470.160950,50.617302 
	C470.544128,50.333660 470.764648,49.830318 471.532196,48.849205 
z"/>
<path fill="#BC6D19" opacity="1.000000" stroke="none" 
	d="
M64.533066,294.096741 
	C73.276436,296.254150 80.779190,293.467743 89.363632,288.535492 
	C88.187477,291.002045 87.797012,292.319916 87.028893,293.358490 
	C69.658470,316.844604 56.391762,342.442841 47.416214,370.245209 
	C40.804436,390.725677 37.047447,411.750854 34.877262,433.152344 
	C33.087948,450.797791 30.461725,468.358063 28.252422,485.961823 
	C28.004591,487.936554 28.056673,489.948944 27.961792,492.379730 
	C23.348206,492.815613 18.742504,492.815613 13.624818,492.815613 
	C14.816927,482.633850 15.886773,472.922699 17.102184,463.229767 
	C20.016230,439.990204 22.486860,416.679901 26.072071,393.543121 
	C31.613914,357.779480 44.659096,324.732147 64.533066,294.096741 
z"/>
<path fill="#A35900" opacity="1.000000" stroke="none" 
	d="
M222.466965,124.735306 
	C227.230484,132.313766 231.494659,140.272888 236.899292,147.362625 
	C242.202408,154.319229 248.665039,160.391876 254.435059,166.653076 
	C245.966568,168.221588 236.493973,170.139801 226.947403,171.561325 
	C225.573257,171.765930 223.550735,169.838821 222.322495,168.458481 
	C209.403076,153.939072 201.192337,137.156097 198.690826,117.383698 
	C200.565674,117.352135 202.617310,117.288124 203.605301,118.281731 
	C208.888062,123.594597 215.192078,125.473679 222.466965,124.735306 
z"/>
<path fill="#FBB6E0" opacity="1.000000" stroke="none" 
	d="
M101.075882,157.535736 
	C94.262947,158.053955 87.300354,157.757126 80.871742,161.490463 
	C72.174614,166.541199 66.261742,173.364914 64.956863,183.637985 
	C64.648331,186.066925 64.263161,188.195465 60.684612,187.461212 
	C42.205585,183.669678 22.921307,199.331131 24.976295,218.786865 
	C25.132692,220.267563 24.972651,221.781662 24.940651,223.760590 
	C16.290333,216.377151 14.046574,203.805023 19.396547,193.283096 
	C24.760561,182.733536 36.785431,176.962189 48.287678,179.416763 
	C55.097755,180.870026 55.515682,180.596680 56.488247,173.636459 
	C57.975010,162.996323 63.541321,155.403290 73.643669,151.667114 
	C83.745491,147.931137 92.915955,150.059128 101.075882,157.535736 
z"/>
<path fill="#FB8CB5" opacity="1.000000" stroke="none" 
	d="
M88.333801,270.244324 
	C98.321793,271.539276 107.744949,269.989777 115.515556,262.915253 
	C127.194595,252.282410 128.827454,238.971207 120.831291,222.610886 
	C123.838402,220.629227 127.009354,218.849640 129.828964,216.624802 
	C139.183319,209.243607 141.864960,199.173080 141.033951,187.308823 
	C154.172974,199.047745 150.564606,221.036560 134.124969,229.047729 
	C126.831444,232.601944 126.831429,232.601929 130.552841,239.456512 
	C136.798004,250.959671 133.833267,265.008087 123.462425,273.054535 
	C112.972420,281.193451 99.073753,280.197510 88.333801,270.244324 
z"/>
<path fill="#F7CF31" opacity="1.000000" stroke="none" 
	d="
M391.242310,359.757629 
	C397.751404,367.871338 398.716003,375.895630 394.331787,383.581818 
	C390.318024,390.618530 382.203491,394.746704 374.607849,393.616180 
	C365.852020,392.312988 359.282715,386.266357 357.386047,377.764557 
	C355.612946,369.816650 359.431549,361.096313 366.596405,356.731262 
	C374.414825,351.968018 383.109497,352.954834 391.242310,359.757629 
M369.074677,372.729523 
	C369.761536,374.700684 370.035400,376.976074 371.218231,378.581879 
	C373.974487,382.323517 377.741699,382.774231 381.153046,380.265137 
	C384.876251,377.526672 385.961639,373.371002 383.877167,369.835144 
	C381.788849,366.292725 377.110474,364.700378 373.549957,366.881866 
	C371.742737,367.989044 370.632629,370.234039 369.074677,372.729523 
z"/>
<path fill="#FBB6DF" opacity="1.000000" stroke="none" 
	d="
M383.482788,484.291534 
	C387.491577,480.554596 392.206024,477.151337 396.291779,473.112183 
	C413.161346,456.434906 413.803345,426.916382 397.787231,409.350250 
	C395.968414,407.355408 393.613739,405.849121 391.138550,404.093109 
	C390.242584,403.544556 389.715668,403.019196 389.111694,401.867371 
	C389.017548,400.536896 389.000458,399.832855 388.983337,399.128845 
	C390.805206,399.253845 392.822815,398.909576 394.419067,399.575470 
	C413.069916,407.355988 423.649963,426.427429 421.000092,447.188324 
	C418.617828,465.852631 403.115509,481.373230 383.482788,484.291534 
z"/>
<path fill="#FBB6DF" opacity="1.000000" stroke="none" 
	d="
M273.947632,414.374268 
	C275.169159,414.742767 276.566193,415.300171 277.668030,416.213654 
	C292.266205,428.316467 308.632080,430.497528 326.127594,424.287109 
	C336.433105,420.628937 344.581024,413.822968 350.084259,404.243347 
	C351.441071,401.881500 352.006073,399.064789 352.901306,396.043823 
	C353.536346,394.352478 354.205109,393.074554 354.873840,391.796631 
	C355.437012,391.764313 356.000153,391.731995 356.563293,391.699707 
	C357.005249,394.133820 358.012421,396.618622 357.799469,398.994080 
	C356.141235,417.490387 342.160797,433.374512 323.975433,437.750793 
	C305.746063,442.137604 286.346649,434.381775 276.189697,418.622345 
	C275.383118,417.370850 274.717194,416.028656 273.947632,414.374268 
z"/>
<path fill="#FBB6E0" opacity="1.000000" stroke="none" 
	d="
M437.119446,280.602448 
	C429.000275,281.848999 420.253998,281.520844 412.391754,283.998260 
	C387.886658,291.719849 374.607300,320.333191 383.698456,344.730469 
	C381.112366,348.461761 379.801727,345.424835 378.665802,343.554352 
	C369.959930,329.218842 369.136993,314.337280 376.713409,299.396729 
	C387.937256,277.263428 413.632843,269.267487 437.119446,280.602448 
z"/>
<path fill="#FBB6DF" opacity="1.000000" stroke="none" 
	d="
M306.688354,288.104187 
	C305.637665,293.402222 304.000763,298.775665 302.965729,304.262665 
	C300.508057,317.291351 304.373596,328.940094 311.994171,339.306366 
	C321.821442,352.674438 335.644714,358.487701 352.379028,359.007263 
	C351.213593,360.354370 349.808350,362.475189 347.985077,362.933685 
	C328.986938,367.711151 309.029999,359.063202 299.243011,342.079590 
	C289.152649,324.569519 291.937805,303.542969 306.688354,288.104187 
z"/>
<path fill="#FBB6DF" opacity="1.000000" stroke="none" 
	d="
M484.007141,402.582642 
	C481.185669,391.827972 476.674805,381.734161 468.166412,373.606781 
	C452.386047,358.532959 424.320465,356.821808 408.061584,370.510284 
	C407.135101,371.270172 406.298035,371.706909 405.460999,372.143646 
	C405.084412,371.952057 404.707825,371.760437 404.331238,371.568817 
	C405.033173,369.610931 405.276947,367.285126 406.507996,365.752136 
	C418.685852,350.587524 441.479309,345.634247 459.388855,354.078186 
	C477.627228,362.677155 488.084473,383.004852 484.007141,402.582642 
z"/>
<path fill="#884A00" opacity="1.000000" stroke="none" 
	d="
M139.953583,240.448883 
	C147.550858,234.655869 155.170990,229.265549 162.791138,223.875244 
	C163.163101,224.317017 163.535080,224.758789 163.907043,225.200577 
	C161.691528,235.902420 153.585739,241.618301 144.429428,246.625626 
	C149.657135,255.537537 151.606140,264.550781 148.064316,274.453217 
	C141.420242,293.029022 117.800758,300.589172 102.002586,288.966248 
	C101.242531,288.407074 100.730179,287.511200 100.040047,286.436401 
	C109.229919,286.684845 118.203430,286.272583 126.342514,280.840851 
	C136.599976,273.995453 145.724854,259.033051 139.953583,240.448883 
z"/>
<path fill="#FCB6E0" opacity="1.000000" stroke="none" 
	d="
M214.996185,22.491894 
	C212.279099,23.529961 209.374817,24.049786 206.624298,25.010065 
	C198.171249,27.961266 192.306824,33.387230 191.077484,42.660561 
	C190.738251,45.219593 189.825821,46.336975 187.284988,45.832890 
	C173.127487,43.024101 161.003891,54.686337 160.931519,68.007866 
	C160.928940,68.480713 160.652069,68.952065 160.251495,69.722351 
	C152.968781,64.134247 151.037476,55.734711 154.880875,47.756851 
	C158.560699,40.118526 166.493500,36.194279 175.131897,37.738953 
	C180.821075,38.756268 181.886337,38.170116 182.554459,32.924679 
	C183.578323,24.886259 187.696609,19.328318 195.423630,16.845875 
	C202.954590,14.426426 209.469482,16.470331 214.996185,22.491894 
z"/>
<path fill="#FBB6E0" opacity="1.000000" stroke="none" 
	d="
M448.921326,30.645321 
	C445.251404,32.030624 441.271576,32.650856 437.723389,34.236713 
	C425.723785,39.599876 421.163788,52.226475 426.590149,64.164719 
	C426.995270,65.056038 427.354248,65.968338 427.954346,67.391968 
	C417.717163,71.769470 413.630585,80.243065 412.110718,90.824089 
	C401.081238,81.866417 403.176422,66.191269 416.162048,60.146782 
	C420.195496,58.269306 421.413971,56.329762 419.112610,52.155544 
	C414.120636,43.100937 416.055389,33.503372 423.671051,27.713512 
	C431.406891,21.832298 441.064575,22.834721 448.921326,30.645321 
z"/>
<path fill="#864900" opacity="1.000000" stroke="none" 
	d="
M254.856201,452.811462 
	C256.949036,453.118927 259.022339,453.173676 260.442383,454.164581 
	C271.370514,461.790161 282.160919,469.612762 293.016388,477.342957 
	C300.708038,482.820251 300.723511,482.798523 294.787567,491.219360 
	C276.355438,481.173859 257.864288,471.096191 238.790710,460.701111 
	C244.488831,457.911011 249.511444,455.451721 254.856201,452.811462 
z"/>
<path fill="#FC8CB6" opacity="1.000000" stroke="none" 
	d="
M39.200134,270.282410 
	C50.440399,271.010284 60.856194,269.197205 69.220207,260.500885 
	C69.820229,259.877045 72.135643,260.265198 73.245331,260.898254 
	C75.779999,262.344238 78.061470,264.234100 80.800858,266.022034 
	C75.493675,272.944489 68.862083,278.069641 59.495468,278.408936 
	C51.644661,278.693329 44.909657,276.133545 39.200134,270.282410 
z"/>
<path fill="#FBB6DF" opacity="1.000000" stroke="none" 
	d="
M486.000336,31.639511 
	C479.290527,31.301262 473.280640,33.395771 468.151093,37.662102 
	C465.801514,39.616306 464.283813,39.993008 461.929688,37.738636 
	C460.059601,35.947792 457.561005,34.813320 455.126526,33.114304 
	C460.711426,25.624432 467.884003,21.740505 477.125977,25.123600 
	C480.376129,26.313353 483.006042,29.197538 486.000336,31.639511 
z"/>
<path fill="#854900" opacity="1.000000" stroke="none" 
	d="
M222.351471,124.377113 
	C215.192078,125.473679 208.888062,123.594597 203.605301,118.281731 
	C202.617310,117.288124 200.565674,117.352135 198.697144,116.999535 
	C198.832275,115.006760 199.275162,112.942520 199.718048,110.878281 
	C201.413422,111.459869 203.130676,111.985313 204.799316,112.635498 
	C207.692215,113.762718 210.499924,115.763214 213.442368,115.966789 
	C218.888260,116.343590 221.258011,119.205177 222.351471,124.377113 
z"/>
<path fill="#FDA4CE" opacity="1.000000" stroke="none" 
	d="
M388.693237,399.125366 
	C389.000458,399.832855 389.017548,400.536896 389.032928,401.593414 
	C388.821869,401.004578 388.612518,400.063263 388.693237,399.125366 
z"/>
<path fill="#A55A00" opacity="1.000000" stroke="none" 
	d="
M426.154114,121.691101 
	C426.093445,121.340485 426.278168,120.843124 426.665833,120.166077 
	C426.712372,120.505714 426.555939,121.025040 426.154114,121.691101 
z"/>
<path fill="#FBB6E0" opacity="1.000000" stroke="none" 
	d="
M102.120041,158.649368 
	C101.925858,158.692108 101.642281,158.457916 101.224190,157.978119 
	C101.403343,157.945816 101.717003,158.159119 102.120041,158.649368 
z"/>
<path fill="#BC6D19" opacity="1.000000" stroke="none" 
	d="
M90.521393,287.537781 
	C90.485519,287.556610 90.557274,287.518982 90.521393,287.537781 
z"/>
<path fill="#070505" opacity="1.000000" stroke="none" 
	d="
M94.663864,202.236908 
	C98.625885,208.480148 103.510300,208.395416 109.163132,205.500336 
	C111.209442,204.452316 113.541214,203.480637 115.768539,203.419846 
	C117.538979,203.371506 119.348717,204.762985 121.141006,205.515244 
	C120.171280,207.329468 119.633873,210.124817 118.152382,210.777603 
	C113.322144,212.905991 108.147270,214.252243 104.339737,215.496063 
	C102.237129,221.011612 100.392288,225.535522 98.837318,230.156952 
	C98.459503,231.279846 98.614655,232.998138 99.248528,233.971130 
	C101.608078,237.592972 104.269157,241.018402 106.816833,244.517700 
	C108.499969,246.829544 109.121674,249.538193 106.225090,250.819122 
	C104.779152,251.458572 101.732971,250.507263 100.514519,249.225830 
	C97.671356,246.235703 95.684151,242.445602 92.951820,239.328796 
	C91.950195,238.186249 89.846939,237.603058 88.206329,237.515961 
	C85.254639,237.359268 81.972130,238.642441 79.371391,237.746399 
	C75.058739,236.260498 73.023712,237.797424 70.977951,241.183060 
	C69.091225,244.305511 66.986610,247.412033 64.409607,249.948029 
	C63.285763,251.053955 60.743088,250.718124 58.844761,251.037079 
	C58.621117,249.125107 57.542698,246.699387 58.327534,245.393524 
	C61.142689,240.709595 64.588181,236.404510 67.233345,232.735703 
	C65.284637,227.021744 63.562485,221.972107 61.395473,215.618073 
	C58.115078,214.515625 53.312408,212.817429 48.453094,211.300735 
	C45.635147,210.421173 43.169224,209.176926 44.293541,205.785217 
	C45.373131,202.528427 47.948696,202.617554 50.868126,203.666199 
	C55.545189,205.346191 60.334919,206.712540 64.183304,207.928955 
	C69.063736,204.292862 73.371872,201.083130 78.829704,197.016846 
	C78.829704,195.017212 78.421829,191.347214 78.944519,187.814926 
	C79.466248,184.289139 76.127426,177.948853 82.918922,178.128387 
	C89.363213,178.298706 86.266785,184.496017 86.762436,188.129456 
	C87.207764,191.393982 86.856277,194.767197 86.856277,198.098190 
	C89.458069,199.453049 91.914383,200.732147 94.663864,202.236908 
M73.531052,225.823059 
	C78.521042,230.403320 83.610062,231.404984 88.453850,228.760254 
	C92.957687,226.301132 95.573853,220.962997 94.531609,216.148026 
	C93.400108,210.920685 90.207924,207.578812 84.952599,206.511688 
	C80.070518,205.520325 76.018227,207.298462 73.157692,211.233765 
	C69.870430,215.756134 70.067566,220.525406 73.531052,225.823059 
z"/>
<path fill="#070505" opacity="1.000000" stroke="none" 
	d="
M193.604965,51.362808 
	C194.961899,49.747700 196.202560,48.447052 196.911972,46.902416 
	C197.354309,45.939259 196.859116,44.588612 197.019699,43.444866 
	C197.498169,40.037079 195.089111,34.462196 201.120010,34.609024 
	C207.019669,34.752663 204.520523,40.285671 204.959961,43.698288 
	C205.212204,45.657188 205.005676,47.675167 205.005676,48.992058 
	C208.065643,51.337189 210.605270,53.444256 213.327957,55.279762 
	C214.235474,55.891571 215.705688,56.209389 216.755676,55.964054 
	C219.495544,55.323879 222.110596,53.791843 224.843170,53.604736 
	C226.646469,53.481262 228.567047,55.070400 230.435104,55.892727 
	C229.355072,57.619816 228.426895,60.712284 227.170334,60.852024 
	C219.117188,61.747612 216.138275,67.175293 214.475311,73.937370 
	C214.182144,75.129402 214.455521,76.758392 215.084259,77.820312 
	C216.604935,80.388733 218.872894,82.570686 220.068604,85.252228 
	C220.678314,86.619621 220.204559,89.544907 219.167984,90.278282 
	C218.066116,91.057846 215.708755,90.134598 213.923813,89.818260 
	C213.553329,89.752586 213.164276,89.134872 212.994553,88.690979 
	C209.999878,80.859001 203.457474,80.345284 196.546906,80.839943 
	C195.472137,80.916878 194.223541,81.810669 193.483536,82.687927 
	C191.556229,84.972725 190.155640,87.784111 187.962204,89.727852 
	C186.845062,90.717834 183.933289,91.061050 182.826096,90.283012 
	C181.789307,89.554474 182.005554,86.966827 181.806900,85.182144 
	C181.764374,84.800179 182.307022,84.351387 182.583817,83.935852 
	C188.437149,75.148277 188.535599,74.689972 184.893250,65.501892 
	C184.561691,64.665527 183.334213,64.009315 182.379532,63.629768 
	C180.066772,62.710312 177.689774,61.934715 175.300751,61.229504 
	C172.601532,60.432713 170.577484,59.108131 171.587418,55.937878 
	C172.555847,52.897850 174.830154,52.440102 177.588470,53.614243 
	C177.741196,53.679241 177.907852,53.714622 178.054703,53.789814 
	C183.650269,56.654964 188.870911,56.957878 193.604965,51.362808 
M198.448837,57.914818 
	C193.966431,59.824547 192.113190,63.171284 193.469772,67.874565 
	C194.628571,71.892097 198.814911,74.018875 202.976929,73.054672 
	C206.761627,72.177872 209.410263,68.351997 208.925659,64.461929 
	C208.350464,59.844532 204.839157,57.422493 198.448837,57.914818 
z"/>
<path fill="#070504" opacity="1.000000" stroke="none" 
	d="
M471.296539,49.139236 
	C470.764648,49.830318 470.544128,50.333660 470.160950,50.617302 
	C462.872803,56.012177 468.461914,62.222939 469.461151,67.919548 
	C469.687073,69.207390 473.672729,69.825775 475.919678,70.771484 
	C478.881927,72.018265 483.921906,71.799309 482.209717,77.003181 
	C480.492584,82.222015 476.544861,79.075958 473.434357,78.269447 
	C471.192780,77.688240 468.998566,76.924545 467.175995,76.363213 
	C463.759979,78.861595 460.582947,81.185211 456.979645,83.820572 
	C456.979645,87.081284 457.323273,90.940117 456.801880,94.678291 
	C456.607239,96.073700 454.416931,98.131958 453.094330,98.164391 
	C451.768890,98.196899 449.083771,95.859467 449.238708,94.938065 
	C450.725403,86.095016 447.085938,80.243645 438.266418,76.532303 
	C435.737213,77.345085 432.186859,78.903023 428.484131,79.476028 
	C426.946808,79.713928 424.455170,78.220657 423.609955,76.795532 
	C423.119843,75.969147 424.911469,72.401619 425.894196,72.305939 
	C434.953796,71.424019 438.447083,65.424171 439.842621,56.327980 
	C438.523346,54.481998 436.043884,51.718536 434.467804,48.511173 
	C433.673248,46.894249 434.516571,44.472496 434.619263,42.414673 
	C436.642548,42.852833 438.678833,43.241997 440.677368,43.773148 
	C441.048615,43.871811 441.382904,44.502033 441.540375,44.954430 
	C444.402740,53.176968 451.566742,51.761921 457.850250,52.116241 
	C458.693268,52.163776 459.780396,51.098095 460.453094,50.295357 
	C461.944275,48.516113 463.317169,46.625072 464.603302,44.689911 
	C466.248596,42.214344 468.283020,40.468079 471.176361,42.357277 
	C473.889709,44.128941 473.192719,46.579369 471.296539,49.139236 
M446.402496,71.957207 
	C450.528320,75.925964 454.761444,76.468338 458.190674,73.467598 
	C461.257599,70.783890 461.867279,66.487938 459.656494,63.138412 
	C457.541077,59.933270 453.013580,58.642223 449.547150,60.300705 
	C446.278748,61.864452 443.288422,66.840263 446.402496,71.957207 
z"/>
<path fill="#FCB801" opacity="1.000000" stroke="none" 
	d="
M369.141052,372.347107 
	C370.632629,370.234039 371.742737,367.989044 373.549957,366.881866 
	C377.110474,364.700378 381.788849,366.292725 383.877167,369.835144 
	C385.961639,373.371002 384.876251,377.526672 381.153046,380.265137 
	C377.741699,382.774231 373.974487,382.323517 371.218231,378.581879 
	C370.035400,376.976074 369.761536,374.700684 369.141052,372.347107 
z"/>
<path fill="#F5CE31" opacity="1.000000" stroke="none" 
	d="
M73.301346,225.511917 
	C70.067566,220.525406 69.870430,215.756134 73.157692,211.233765 
	C76.018227,207.298462 80.070518,205.520325 84.952599,206.511688 
	C90.207924,207.578812 93.400108,210.920685 94.531609,216.148026 
	C95.573853,220.962997 92.957687,226.301132 88.453850,228.760254 
	C83.610062,231.404984 78.521042,230.403320 73.301346,225.511917 
z"/>
<path fill="#F4CD31" opacity="1.000000" stroke="none" 
	d="
M198.808167,57.822845 
	C204.839157,57.422493 208.350464,59.844532 208.925659,64.461929 
	C209.410263,68.351997 206.761627,72.177872 202.976929,73.054672 
	C198.814911,74.018875 194.628571,71.892097 193.469772,67.874565 
	C192.113190,63.171284 193.966431,59.824547 198.808167,57.822845 
z"/>
<path fill="#F5CE31" opacity="1.000000" stroke="none" 
	d="
M446.210327,71.610855 
	C443.288422,66.840263 446.278748,61.864452 449.547150,60.300705 
	C453.013580,58.642223 457.541077,59.933270 459.656494,63.138412 
	C461.867279,66.487938 461.257599,70.783890 458.190674,73.467598 
	C454.761444,76.468338 450.528320,75.925964 446.210327,71.610855 
z"/>
</svg>