<svg version="1.1" id="Layer_1" xmlns="http://www.w3.org/2000/svg" xmlns:xlink="http://www.w3.org/1999/xlink" x="0px" y="0px"
	 width="100%" viewBox="0 0 512 512" enable-background="new 0 0 512 512" xml:space="preserve">
<path fill="#000000" opacity="1.000000" stroke="none" 
	d="
M375.013672,227.989380 
	C375.013672,227.989380 375.075256,227.940674 374.849548,227.341125 
	C374.237213,227.196899 373.624908,227.052673 373.014618,226.979935 
	C373.014618,226.979935 373.078552,226.947891 372.821594,226.286972 
	C371.289551,225.415192 369.760986,224.537170 368.224915,223.672562 
	C340.443207,208.034943 312.640167,192.281616 280.059174,189.118790 
	C271.726837,188.309906 263.010284,188.343201 254.819000,189.865768 
	C239.250427,192.759644 226.263474,200.639832 216.320816,214.159409 
	C215.231674,216.145920 214.142532,218.132446 212.367355,219.879593 
	C205.529922,213.834106 197.248566,211.326889 188.419876,211.090195 
	C175.534882,210.744766 164.094025,214.711044 154.100220,223.248917 
	C145.437653,230.649475 139.266937,238.923553 140.003769,251.813446 
	C141.031174,256.443909 142.058563,261.074341 143.113388,265.828339 
	C142.523453,265.880524 141.227905,265.995087 139.267426,266.202972 
	C135.358307,269.900940 131.643250,273.699005 131.748077,279.651001 
	C131.832031,284.417999 131.875092,289.185699 131.257828,294.323761 
	C131.173233,297.476318 130.434479,300.777588 131.111832,303.756927 
	C135.066101,321.150116 145.515015,333.412140 162.021011,339.946991 
	C174.471024,344.876007 187.627686,343.926208 200.437241,341.614319 
	C206.322784,340.552094 213.024017,338.523499 217.214035,334.629181 
	C227.801941,324.788513 235.451187,312.569092 237.893997,297.970978 
	C239.181015,290.279755 239.260590,282.386475 239.751038,276.261597 
	C249.333160,289.166046 259.863373,303.215149 270.223511,317.388519 
	C272.961823,321.134674 275.421417,325.135345 277.575378,329.246338 
	C281.180878,336.127747 283.193390,343.467712 282.390686,351.350830 
	C280.574707,369.184540 270.487518,381.508759 255.372314,389.677826 
	C235.176773,400.592682 213.281326,402.244171 190.857529,399.525635 
	C189.545807,399.366577 188.232819,399.007996 186.928329,399.042419 
	C184.127258,399.116241 183.452713,400.483521 184.163223,402.987976 
	C181.752380,403.965088 179.341537,404.942200 178.044556,405.467865 
	C181.065933,411.032715 185.066483,415.779633 186.183609,421.128784 
	C187.549103,427.667175 191.398102,431.541931 195.859940,435.455902 
	C197.443085,436.844696 199.140167,438.103607 200.279968,439.016907 
	C193.490692,439.338806 186.331558,438.994995 179.416885,440.134521 
	C158.905457,443.514740 140.152985,439.104034 122.339928,428.977844 
	C117.742142,426.364136 112.865562,424.048035 107.853256,422.395294 
	C96.486221,418.647186 84.301819,419.698395 77.498863,433.291107 
	C81.341263,435.045807 85.548271,436.292908 88.938988,438.693146 
	C92.818192,441.439178 92.066650,444.875641 87.534317,445.909943 
	C80.292015,447.562683 72.901321,448.553070 65.616295,450.034576 
	C60.018158,451.173065 54.486122,452.636597 48.068497,453.996368 
	C46.457386,453.996368 44.846275,453.996368 43.235165,453.996368 
	C42.969551,454.560516 42.703934,455.124634 42.438320,455.688782 
	C43.911983,456.768982 45.296658,458.614227 46.874619,458.797760 
	C53.913109,459.616455 61.006821,459.960419 67.699829,460.448151 
	C68.366486,461.387390 68.851372,462.681000 69.781837,463.266510 
	C72.524063,464.992157 75.326859,466.719696 78.311714,467.945374 
	C95.239990,474.896759 113.245781,476.003418 131.171997,476.849640 
	C141.391846,477.332123 151.687363,476.449036 161.938614,475.964661 
	C172.972382,475.443359 184.000946,474.764252 195.019730,473.983948 
	C212.746429,472.728577 230.448486,471.067963 248.188965,470.083282 
	C261.922302,469.320953 275.699585,469.366547 289.454590,468.961243 
	C291.713806,468.894653 294.013794,468.560791 296.197357,467.982239 
	C299.177582,467.192627 302.070099,465.215240 304.989685,465.235931 
	C310.682922,465.276337 316.360321,466.441010 322.059784,466.974548 
	C330.239349,467.740295 338.434387,468.339874 346.620026,469.042694 
	C361.827972,470.348419 377.013275,472.231720 392.248077,472.799988 
	C402.226410,473.172211 412.328003,472.077576 422.273926,470.835541 
	C428.896210,470.008545 436.015503,468.106415 439.832733,462.260468 
	C443.158600,457.166992 446.697205,458.127136 451.345001,458.491669 
	C457.005219,458.935577 462.777924,458.175598 468.476776,457.658417 
	C469.377991,457.576599 470.146332,456.031036 470.976105,455.162231 
	C470.045197,454.319061 469.127228,452.765503 468.181274,452.748230 
	C462.156464,452.638489 456.125427,452.867310 449.936859,452.200012 
	C448.442505,451.386963 446.934753,449.853180 445.456024,449.880646 
	C437.345093,450.031311 429.243195,450.613129 421.133789,450.935547 
	C418.822235,451.027466 416.495941,450.747467 414.176392,450.638062 
	C450.559631,441.214233 465.855469,410.362091 467.871948,381.769135 
	C469.285980,361.718201 465.457733,342.317566 458.057007,323.564178 
	C449.764526,302.550934 437.838593,283.851685 422.636841,267.291016 
	C415.940125,259.995697 408.608765,253.220673 401.092712,246.759460 
	C395.092224,241.601105 388.375366,237.276047 381.980408,232.252075 
	C381.857391,232.018234 381.670135,231.941818 380.969910,231.472382 
	C380.313385,231.284714 379.656860,231.097046 379.010651,230.985001 
	C379.010651,230.985001 379.085663,230.971100 378.943024,230.444901 
	C378.639618,230.267654 378.336212,230.090408 378.014008,229.988464 
	C378.014008,229.988464 378.076294,229.942139 377.851868,229.339432 
	C377.236816,229.196609 376.621735,229.053787 376.013855,228.984177 
	C376.013855,228.984177 376.086517,228.972855 375.943146,228.446075 
	C375.639862,228.268509 375.336578,228.090927 375.013672,227.989380 
M122.015350,335.348297 
	C120.555489,333.556274 119.379105,330.600250 117.588982,330.164246 
	C107.246002,327.645264 96.669762,331.994324 90.983490,340.870544 
	C78.405624,360.504486 90.454956,387.058594 112.350464,392.886597 
	C119.599434,394.816132 126.959610,395.524933 134.670410,394.146301 
	C150.172089,391.374817 162.830368,384.434570 171.847382,371.421814 
	C172.847031,369.979187 172.617676,367.684967 172.958313,365.785675 
	C170.777344,365.579926 168.497055,364.866760 166.435318,365.270264 
	C161.600754,366.216431 156.870804,367.697144 151.730789,368.236206 
	C136.560394,367.153809 122.149574,354.836426 122.015350,335.348297 
M235.998123,115.504814 
	C235.994766,115.333237 235.991394,115.161652 236.496292,114.543198 
	C238.164612,111.681198 240.321991,108.992683 241.410248,105.924911 
	C244.778793,96.429230 239.541443,89.100143 229.543427,89.067146 
	C227.286865,89.059700 224.820923,89.310966 222.808334,90.227203 
	C216.378677,93.154327 210.126617,96.469986 203.781342,99.585449 
	C202.612961,100.159119 201.329453,100.498322 199.473328,101.173294 
	C200.651077,97.541382 201.600769,94.909286 202.358994,92.223145 
	C205.580673,80.809906 204.947601,69.548576 199.373184,59.099087 
	C190.726059,42.889683 169.897797,34.587940 152.059097,37.846222 
	C121.287811,43.466679 105.544838,71.656761 110.721542,101.169235 
	C111.885574,107.805435 114.523170,114.183174 116.580826,121.006256 
	C114.948624,120.226234 113.529427,119.548004 111.852074,118.432198 
	C111.540657,118.348846 111.229248,118.265488 110.325592,117.944725 
	C109.554886,117.629677 108.784187,117.314636 107.598579,116.330322 
	C101.694542,115.885727 95.716415,114.681313 89.910927,115.247391 
	C85.603798,115.667366 80.954666,117.626045 77.451767,120.234177 
	C69.272972,126.323822 67.066170,134.798599 70.458092,144.716858 
	C64.064034,145.517227 57.658215,145.028381 52.038799,148.867096 
	C57.646801,150.599625 63.224758,151.874496 68.803719,151.878906 
	C80.900955,151.888474 92.998718,151.248367 106.013023,150.966537 
	C149.646713,150.942093 193.280411,150.917664 237.858154,150.985825 
	C250.005661,150.989410 262.156860,151.164261 274.298676,150.902954 
	C278.500732,150.812531 282.679504,149.638809 286.868896,148.959915 
	C286.846771,148.132614 286.824615,147.305313 286.802490,146.478012 
	C280.760529,145.619705 274.718567,144.761398 268.676605,143.903076 
	C268.480225,143.411224 268.283844,142.919373 268.087433,142.427536 
	C269.545258,141.324341 271.214478,140.414307 272.427094,139.087082 
	C281.302979,129.372437 279.274628,117.230148 267.829681,111.869347 
	C260.429596,108.403168 252.954819,109.462852 245.591293,112.199379 
	C242.360657,113.399979 239.182510,114.741806 235.998123,115.504814 
z"/>
<path fill="#6E9CC7" opacity="1.000000" stroke="none" 
	d="
M213.053375,220.118958 
	C214.142532,218.132446 215.231674,216.145920 216.931137,214.247009 
	C220.115479,220.093155 222.288574,226.074005 225.336441,231.569733 
	C235.705429,250.266510 250.730927,261.241058 273.168701,258.991180 
	C285.025238,257.802307 295.614502,252.955322 305.583496,246.816360 
	C312.369812,242.637314 318.764648,237.818970 325.302551,233.240845 
	C339.338104,223.412552 354.084625,218.741043 370.677155,226.759476 
	C371.350677,227.084946 372.272461,226.896744 373.078552,226.947891 
	C373.078552,226.947891 373.014618,226.979935 373.087830,227.289276 
	C373.799103,227.712646 374.437195,227.826660 375.075256,227.940674 
	C375.075256,227.940674 375.013672,227.989380 375.013672,228.262207 
	C375.371307,228.680969 375.728912,228.826920 376.086517,228.972855 
	C376.086517,228.972855 376.013855,228.984177 376.100403,229.283539 
	C376.816711,229.702667 377.446503,229.822403 378.076294,229.942139 
	C378.076294,229.942139 378.014008,229.988464 378.015594,230.261993 
	C378.373352,230.680710 378.729492,230.825912 379.085663,230.971100 
	C379.085663,230.971100 379.010651,230.985001 379.136566,231.312561 
	C379.981201,231.767700 380.699951,231.895248 381.418671,232.022797 
	C381.670135,231.941818 381.857391,232.018234 381.886597,232.794891 
	C385.392059,237.356750 388.991394,241.375778 392.853790,245.688553 
	C366.551758,242.436096 341.244995,250.990585 333.559082,265.525970 
	C342.145050,265.997955 350.767975,265.996887 359.265686,267.027985 
	C385.027679,270.153900 407.251617,280.368866 423.624084,301.186829 
	C437.150757,318.386292 442.951477,337.830017 439.002136,359.646820 
	C435.700806,377.883820 426.839752,393.696899 416.549500,408.754059 
	C414.656311,411.524231 411.575165,413.482574 409.042328,415.815613 
	C408.716461,415.516724 408.390625,415.217804 408.064758,414.918915 
	C416.627899,390.623138 417.315247,366.163147 410.560608,341.061584 
	C409.715027,341.618530 409.517181,341.674866 409.466339,341.793976 
	C409.011993,342.857483 408.547119,343.918793 408.152740,345.005219 
	C396.809296,376.255341 376.056458,399.127075 346.301117,413.701752 
	C336.466217,418.519104 326.229218,422.607574 314.994446,422.993774 
	C314.999237,422.999176 315.008026,423.006439 315.115051,422.687775 
	C326.771149,410.722473 331.351044,396.599854 330.811859,380.658508 
	C330.028168,380.015411 329.244476,379.372314 328.460815,378.729218 
	C327.644348,380.346344 327.158936,382.283539 325.956360,383.527344 
	C319.371643,390.337646 312.911499,397.314819 305.851440,403.609924 
	C288.282104,419.275726 267.517487,424.274292 244.592712,420.293884 
	C224.076614,416.731689 204.006882,411.446411 184.923294,402.881226 
	C183.452713,400.483521 184.127258,399.116241 186.928329,399.042419 
	C188.232819,399.007996 189.545807,399.366577 190.857529,399.525635 
	C213.281326,402.244171 235.176773,400.592682 255.372314,389.677826 
	C270.487518,381.508759 280.574707,369.184540 282.390686,351.350830 
	C283.193390,343.467712 281.180878,336.127747 277.575378,329.246338 
	C275.421417,325.135345 272.961823,321.134674 270.223511,317.388519 
	C259.863373,303.215149 249.333160,289.166046 239.751038,276.261597 
	C239.260590,282.386475 239.181015,290.279755 237.893997,297.970978 
	C235.451187,312.569092 227.801941,324.788513 217.214035,334.629181 
	C213.024017,338.523499 206.322784,340.552094 200.437241,341.614319 
	C187.627686,343.926208 174.471024,344.876007 162.021011,339.946991 
	C145.515015,333.412140 135.066101,321.150116 131.111832,303.756927 
	C130.434479,300.777588 131.173233,297.476318 131.985428,294.184570 
	C135.202637,295.178680 138.085907,295.846527 140.096146,297.546661 
	C143.764694,300.649292 146.902756,304.376465 150.286591,307.819061 
	C154.606979,312.214478 159.810577,314.272919 166.021484,314.013489 
	C176.081818,313.593201 184.606766,309.362091 191.105179,302.165192 
	C212.327896,278.661346 220.589661,251.439667 213.053375,220.118958 
z"/>
<path fill="#DCE6F0" opacity="1.000000" stroke="none" 
	d="
M184.543259,402.934601 
	C204.006882,411.446411 224.076614,416.731689 244.592712,420.293884 
	C267.517487,424.274292 288.282104,419.275726 305.851440,403.609924 
	C312.911499,397.314819 319.371643,390.337646 325.956360,383.527344 
	C327.158936,382.283539 327.644348,380.346344 328.460815,378.729218 
	C329.244476,379.372314 330.028168,380.015411 330.811859,380.658508 
	C331.351044,396.599854 326.771149,410.722473 314.952820,422.732727 
	C314.785614,423.060333 314.887665,423.024353 314.989685,422.988373 
	C326.229218,422.607574 336.466217,418.519104 346.301117,413.701752 
	C376.056458,399.127075 396.809296,376.255341 408.152740,345.005219 
	C408.547119,343.918793 409.011993,342.857483 409.466339,341.793976 
	C409.517181,341.674866 409.715027,341.618530 410.560608,341.061584 
	C417.315247,366.163147 416.627899,390.623138 408.064758,414.918915 
	C408.390625,415.217804 408.716461,415.516724 409.042328,415.815613 
	C411.575165,413.482574 414.656311,411.524231 416.549500,408.754059 
	C426.839752,393.696899 435.700806,377.883820 439.002136,359.646820 
	C442.951477,337.830017 437.150757,318.386292 423.624084,301.186829 
	C407.251617,280.368866 385.027679,270.153900 359.265686,267.027985 
	C350.767975,265.996887 342.145050,265.997955 333.559082,265.525970 
	C341.244995,250.990585 366.551758,242.436096 392.853790,245.688553 
	C388.991394,241.375778 385.392059,237.356750 381.884613,232.959412 
	C388.375366,237.276047 395.092224,241.601105 401.092712,246.759460 
	C408.608765,253.220673 415.940125,259.995697 422.636841,267.291016 
	C437.838593,283.851685 449.764526,302.550934 458.057007,323.564178 
	C465.457733,342.317566 469.285980,361.718201 467.871948,381.769135 
	C465.855469,410.362091 450.559631,441.214233 414.176392,450.638062 
	C416.495941,450.747467 418.822235,451.027466 421.133789,450.935547 
	C429.243195,450.613129 437.345093,450.031311 445.456024,449.880646 
	C446.934753,449.853180 448.442505,451.386963 449.633606,452.762207 
	C441.236145,454.005707 433.141968,454.687073 425.007416,455.371826 
	C425.215942,459.706696 421.478302,459.432953 418.833466,459.940155 
	C399.713165,463.606934 380.417114,463.198151 361.133148,461.853760 
	C347.368134,460.894135 333.643250,459.369904 319.883789,458.315643 
	C310.683350,457.610718 301.453613,457.288361 290.911316,456.723785 
	C295.007904,459.714264 294.120941,461.467529 291.167084,462.302032 
	C288.155090,463.152924 285.004303,463.937775 281.903961,463.979095 
	C265.933899,464.192139 249.958893,464.325104 233.988586,464.173401 
	C200.171371,463.852234 166.355347,463.380768 132.540237,462.876373 
	C121.886940,462.717468 111.233429,462.360016 100.590195,461.871582 
	C97.468094,461.728333 94.357071,460.928314 91.284523,460.236023 
	C88.111046,459.520996 86.231323,457.882660 88.541290,454.059723 
	C87.312691,454.283936 86.674339,454.407684 86.033424,454.516266 
	C73.629395,456.617676 61.250965,457.007050 48.924690,453.955566 
	C54.486122,452.636597 60.018158,451.173065 65.616295,450.034576 
	C72.901321,448.553070 80.292015,447.562683 87.534317,445.909943 
	C92.066650,444.875641 92.818192,441.439178 88.938988,438.693146 
	C85.548271,436.292908 81.341263,435.045807 77.498863,433.291107 
	C84.301819,419.698395 96.486221,418.647186 107.853256,422.395294 
	C112.865562,424.048035 117.742142,426.364136 122.339928,428.977844 
	C140.152985,439.104034 158.905457,443.514740 179.416885,440.134521 
	C186.331558,438.994995 193.490692,439.338806 200.279968,439.016907 
	C199.140167,438.103607 197.443085,436.844696 195.859940,435.455902 
	C191.398102,431.541931 187.549103,427.667175 186.183609,421.128784 
	C185.066483,415.779633 181.065933,411.032715 178.044556,405.467865 
	C179.341537,404.942200 181.752380,403.965088 184.543259,402.934601 
z"/>
<path fill="#085CA6" opacity="1.000000" stroke="none" 
	d="
M108.013481,116.999588 
	C108.784187,117.314636 109.554886,117.629677 110.786118,118.232834 
	C111.494720,118.735687 111.782578,118.851967 112.110229,118.869766 
	C113.529427,119.548004 114.948624,120.226234 116.580826,121.006256 
	C114.523170,114.183174 111.885574,107.805435 110.721542,101.169235 
	C105.544838,71.656761 121.287811,43.466679 152.059097,37.846222 
	C169.897797,34.587940 190.726059,42.889683 199.373184,59.099087 
	C204.947601,69.548576 205.580673,80.809906 202.358994,92.223145 
	C201.600769,94.909286 200.651077,97.541382 199.473328,101.173294 
	C201.329453,100.498322 202.612961,100.159119 203.781342,99.585449 
	C210.126617,96.469986 216.378677,93.154327 222.808334,90.227203 
	C224.820923,89.310966 227.286865,89.059700 229.543427,89.067146 
	C239.541443,89.100143 244.778793,96.429230 241.410248,105.924911 
	C240.321991,108.992683 238.164612,111.681198 236.010483,114.845764 
	C235.236832,115.315918 235.001404,115.538841 234.482315,115.905121 
	C233.027039,116.706329 231.568207,117.183266 230.868805,118.188538 
	C229.841156,119.665695 228.456757,121.817451 228.890900,123.130966 
	C229.330658,124.461449 231.701004,125.596306 233.403183,125.941322 
	C235.070847,126.279343 237.006897,125.676949 238.745010,125.197052 
	C241.630127,124.400482 244.413879,123.229774 247.307007,122.470863 
	C252.828537,121.022514 258.928162,123.471405 260.672089,127.663361 
	C262.416229,131.855820 259.963745,136.992371 254.730087,140.095810 
	C254.300552,140.350525 253.853165,140.575760 253.409698,140.806305 
	C240.180267,147.683884 223.723618,145.130783 211.817764,134.354752 
	C196.508133,120.497978 188.464508,119.367561 170.828598,130.163910 
	C154.478455,140.173141 137.337585,146.255997 117.927605,143.988647 
	C108.740631,142.915466 99.790245,141.047623 93.168274,133.742569 
	C90.001526,130.249146 88.437447,125.702637 91.006096,121.886353 
	C92.530495,119.621536 96.718559,118.924980 99.854675,118.039108 
	C102.463959,117.302048 105.285797,117.317482 108.013481,116.999588 
M140.877930,79.173431 
	C141.894699,74.400055 143.352341,69.663948 143.760208,64.839096 
	C143.998627,62.018436 142.448410,59.153172 138.441544,60.313152 
	C130.902008,62.495834 124.235535,73.959541 126.124603,81.442253 
	C127.085556,85.248619 130.708130,87.208298 134.180725,85.260971 
	C136.554428,83.929863 138.400024,81.657005 140.877930,79.173431 
M157.481369,59.931671 
	C158.793549,57.519432 160.398819,54.388996 155.982346,54.358482 
	C153.773026,54.343224 151.420944,57.045204 149.476944,58.881794 
	C149.229050,59.116001 151.017075,62.685863 151.944962,62.724667 
	C153.597076,62.793758 155.312698,61.344593 157.481369,59.931671 
M198.193558,102.186485 
	C198.495895,102.137924 198.798218,102.089355 199.100555,102.040787 
	C199.052460,101.821884 199.004349,101.602974 198.956253,101.384064 
	C198.715851,101.453323 198.475433,101.522583 198.193558,102.186485 
z"/>
<path fill="#DCE7F1" opacity="1.000000" stroke="none" 
	d="
M212.710358,219.999268 
	C220.589661,251.439667 212.327896,278.661346 191.105179,302.165192 
	C184.606766,309.362091 176.081818,313.593201 166.021484,314.013489 
	C159.810577,314.272919 154.606979,312.214478 150.286591,307.819061 
	C146.902756,304.376465 143.764694,300.649292 140.096146,297.546661 
	C138.085907,295.846527 135.202637,295.178680 132.324646,293.999207 
	C131.875092,289.185699 131.832031,284.417999 131.748077,279.651001 
	C131.643250,273.699005 135.358307,269.900940 139.712708,266.479034 
	C143.559952,272.955719 148.201904,277.120972 155.820480,277.110657 
	C170.198639,277.091156 184.268860,258.578278 180.990646,243.310410 
	C179.287613,246.186188 177.806580,248.872528 176.151413,251.446899 
	C171.382721,258.863861 164.650589,262.291534 155.824478,260.910858 
	C149.212494,259.876526 144.613953,255.486282 140.163391,250.952850 
	C139.266937,238.923553 145.437653,230.649475 154.100220,223.248917 
	C164.094025,214.711044 175.534882,210.744766 188.419876,211.090195 
	C197.248566,211.326889 205.529922,213.834106 212.710358,219.999268 
z"/>
<path fill="#19355E" opacity="1.000000" stroke="none" 
	d="
M107.806030,116.664955 
	C105.285797,117.317482 102.463959,117.302048 99.854675,118.039108 
	C96.718559,118.924980 92.530495,119.621536 91.006096,121.886353 
	C88.437447,125.702637 90.001526,130.249146 93.168274,133.742569 
	C99.790245,141.047623 108.740631,142.915466 117.927605,143.988647 
	C137.337585,146.255997 154.478455,140.173141 170.828598,130.163910 
	C188.464508,119.367561 196.508133,120.497978 211.817764,134.354752 
	C223.723618,145.130783 240.180267,147.683884 253.409698,140.806305 
	C253.853165,140.575760 254.300552,140.350525 254.730087,140.095810 
	C259.963745,136.992371 262.416229,131.855820 260.672089,127.663361 
	C258.928162,123.471405 252.828537,121.022514 247.307007,122.470863 
	C244.413879,123.229774 241.630127,124.400482 238.745010,125.197052 
	C237.006897,125.676949 235.070847,126.279343 233.403183,125.941322 
	C231.701004,125.596306 229.330658,124.461449 228.890900,123.130966 
	C228.456757,121.817451 229.841156,119.665695 230.868805,118.188538 
	C231.568207,117.183266 233.027039,116.706329 234.575043,115.990814 
	C235.003815,115.988503 235.194794,116.153709 235.274353,116.310303 
	C235.577728,116.302803 235.801529,116.138695 236.014191,115.985764 
	C236.003036,115.996941 235.980530,116.019493 235.980530,116.019501 
	C239.182510,114.741806 242.360657,113.399979 245.591293,112.199379 
	C252.954819,109.462852 260.429596,108.403168 267.829681,111.869347 
	C279.274628,117.230148 281.302979,129.372437 272.427094,139.087082 
	C271.214478,140.414307 269.545258,141.324341 268.087433,142.427536 
	C268.283844,142.919373 268.480225,143.411224 268.676605,143.903076 
	C274.718567,144.761398 280.760529,145.619705 286.802490,146.478012 
	C286.824615,147.305313 286.846771,148.132614 286.868896,148.959915 
	C282.679504,149.638809 278.500732,150.812531 274.298676,150.902954 
	C262.156860,151.164261 250.005661,150.989410 237.077408,150.677017 
	C235.480698,150.246338 234.664764,150.018158 233.848755,150.017822 
	C192.185715,150.000107 150.522675,149.994186 108.859688,150.038055 
	C107.604919,150.039368 106.350723,150.583069 105.096260,150.873901 
	C92.998718,151.248367 80.900955,151.888474 68.803719,151.878906 
	C63.224758,151.874496 57.646801,150.599625 52.038799,148.867096 
	C57.658215,145.028381 64.064034,145.517227 70.458092,144.716858 
	C67.066170,134.798599 69.272972,126.323822 77.451767,120.234177 
	C80.954666,117.626045 85.603798,115.667366 89.910927,115.247391 
	C95.716415,114.681313 101.694542,115.885727 107.806030,116.664955 
z"/>
<path fill="#709DC8" opacity="1.000000" stroke="none" 
	d="
M48.496593,453.975952 
	C61.250965,457.007050 73.629395,456.617676 86.033424,454.516266 
	C86.674339,454.407684 87.312691,454.283936 88.541290,454.059723 
	C86.231323,457.882660 88.111046,459.520996 91.284523,460.236023 
	C94.357071,460.928314 97.468094,461.728333 100.590195,461.871582 
	C111.233429,462.360016 121.886940,462.717468 132.540237,462.876373 
	C166.355347,463.380768 200.171371,463.852234 233.988586,464.173401 
	C249.958893,464.325104 265.933899,464.192139 281.903961,463.979095 
	C285.004303,463.937775 288.155090,463.152924 291.167084,462.302032 
	C294.120941,461.467529 295.007904,459.714264 290.911316,456.723785 
	C301.453613,457.288361 310.683350,457.610718 319.883789,458.315643 
	C333.643250,459.369904 347.368134,460.894135 361.133148,461.853760 
	C380.417114,463.198151 399.713165,463.606934 418.833466,459.940155 
	C421.478302,459.432953 425.215942,459.706696 425.007416,455.371826 
	C433.141968,454.687073 441.236145,454.005707 449.713379,453.154480 
	C456.125427,452.867310 462.156464,452.638489 468.181274,452.748230 
	C469.127228,452.765503 470.045197,454.319061 470.976105,455.162231 
	C470.146332,456.031036 469.377991,457.576599 468.476776,457.658417 
	C462.777924,458.175598 457.005219,458.935577 451.345001,458.491669 
	C446.697205,458.127136 443.158600,457.166992 439.832733,462.260468 
	C436.015503,468.106415 428.896210,470.008545 422.273926,470.835541 
	C412.328003,472.077576 402.226410,473.172211 392.248077,472.799988 
	C377.013275,472.231720 361.827972,470.348419 346.620026,469.042694 
	C338.434387,468.339874 330.239349,467.740295 322.059784,466.974548 
	C316.360321,466.441010 310.682922,465.276337 304.989685,465.235931 
	C302.070099,465.215240 299.177582,467.192627 296.197357,467.982239 
	C294.013794,468.560791 291.713806,468.894653 289.454590,468.961243 
	C275.699585,469.366547 261.922302,469.320953 248.188965,470.083282 
	C230.448486,471.067963 212.746429,472.728577 195.019730,473.983948 
	C184.000946,474.764252 172.972382,475.443359 161.938614,475.964661 
	C151.687363,476.449036 141.391846,477.332123 131.171997,476.849640 
	C113.245781,476.003418 95.239990,474.896759 78.311714,467.945374 
	C75.326859,466.719696 72.524063,464.992157 69.781837,463.266510 
	C68.851372,462.681000 68.366486,461.387390 67.699829,460.448151 
	C61.006821,459.960419 53.913109,459.616455 46.874619,458.797760 
	C45.296658,458.614227 43.911983,456.768982 42.438320,455.688782 
	C42.703934,455.124634 42.969551,454.560516 43.235165,453.996368 
	C44.846275,453.996368 46.457386,453.996368 48.496593,453.975952 
z"/>
<path fill="#DCE6F0" opacity="1.000000" stroke="none" 
	d="
M372.950073,226.617432 
	C372.272461,226.896744 371.350677,227.084946 370.677155,226.759476 
	C354.084625,218.741043 339.338104,223.412552 325.302551,233.240845 
	C318.764648,237.818970 312.369812,242.637314 305.583496,246.816360 
	C295.614502,252.955322 285.025238,257.802307 273.168701,258.991180 
	C250.730927,261.241058 235.705429,250.266510 225.336441,231.569733 
	C222.288574,226.074005 220.115479,220.093155 217.257996,214.110016 
	C226.263474,200.639832 239.250427,192.759644 254.819000,189.865768 
	C263.010284,188.343201 271.726837,188.309906 280.059174,189.118790 
	C312.640167,192.281616 340.443207,208.034943 368.224915,223.672562 
	C369.760986,224.537170 371.289551,225.415192 372.950073,226.617432 
M273.428741,198.945984 
	C263.379547,199.984589 253.140732,200.159164 243.335953,202.311264 
	C234.026245,204.354721 230.827133,211.469269 232.606537,220.713165 
	C234.322266,229.626312 239.607391,235.566299 247.320953,239.751282 
	C258.555756,245.846725 270.734558,246.301498 282.861359,244.616531 
	C294.150543,243.047928 304.887329,239.219223 313.509247,231.196915 
	C323.153870,222.223068 321.863586,213.276093 310.006348,207.682983 
	C298.761841,202.378891 286.910370,199.250854 273.428741,198.945984 
z"/>
<path fill="#DCE6F1" opacity="1.000000" stroke="none" 
	d="
M121.815567,336.103760 
	C122.149574,354.836426 136.560394,367.153809 151.643906,368.799530 
	C148.544388,372.226013 145.581177,375.143463 142.509232,377.941528 
	C135.275864,384.529999 127.143074,388.122803 117.045250,386.054504 
	C104.573906,383.500000 95.759697,371.475128 97.076759,358.386780 
	C98.299629,346.234497 109.539047,336.110809 121.815567,336.103760 
z"/>
<path fill="#729FC9" opacity="1.000000" stroke="none" 
	d="
M121.915459,335.726013 
	C109.539047,336.110809 98.299629,346.234497 97.076759,358.386780 
	C95.759697,371.475128 104.573906,383.500000 117.045250,386.054504 
	C127.143074,388.122803 135.275864,384.529999 142.509232,377.941528 
	C145.581177,375.143463 148.544388,372.226013 151.827759,369.162170 
	C156.870804,367.697144 161.600754,366.216431 166.435318,365.270264 
	C168.497055,364.866760 170.777344,365.579926 172.958313,365.785675 
	C172.617676,367.684967 172.847031,369.979187 171.847382,371.421814 
	C162.830368,384.434570 150.172089,391.374817 134.670410,394.146301 
	C126.959610,395.524933 119.599434,394.816132 112.350464,392.886597 
	C90.454956,387.058594 78.405624,360.504486 90.983490,340.870544 
	C96.669762,331.994324 107.246002,327.645264 117.588982,330.164246 
	C119.379105,330.600250 120.555489,333.556274 121.915459,335.726013 
z"/>
<path fill="#729EC8" opacity="1.000000" stroke="none" 
	d="
M140.083588,251.383148 
	C144.613953,255.486282 149.212494,259.876526 155.824478,260.910858 
	C164.650589,262.291534 171.382721,258.863861 176.151413,251.446899 
	C177.806580,248.872528 179.287613,246.186188 180.990646,243.310410 
	C184.268860,258.578278 170.198639,277.091156 155.820480,277.110657 
	C148.201904,277.120972 143.559952,272.955719 140.045181,266.432373 
	C141.227905,265.995087 142.523453,265.880524 143.113388,265.828339 
	C142.058563,261.074341 141.031174,256.443909 140.083588,251.383148 
z"/>
<path fill="#17467C" opacity="1.000000" stroke="none" 
	d="
M105.554642,150.920227 
	C106.350723,150.583069 107.604919,150.039368 108.859688,150.038055 
	C150.522675,149.994186 192.185715,150.000107 233.848755,150.017822 
	C234.664764,150.018158 235.480698,150.246338 236.605377,150.630722 
	C193.280411,150.917664 149.646713,150.942093 105.554642,150.920227 
z"/>
<path fill="#DCE6F0" opacity="1.000000" stroke="none" 
	d="
M377.964081,229.640778 
	C377.446503,229.822403 376.816711,229.702667 376.096802,229.246948 
	C376.621735,229.053787 377.236816,229.196609 377.964081,229.640778 
z"/>
<path fill="#DCE6F0" opacity="1.000000" stroke="none" 
	d="
M381.194275,231.747589 
	C380.699951,231.895248 379.981201,231.767700 379.131409,231.274765 
	C379.656860,231.097046 380.313385,231.284714 381.194275,231.747589 
z"/>
<path fill="#DCE6F0" opacity="1.000000" stroke="none" 
	d="
M374.962402,227.640900 
	C374.437195,227.826660 373.799103,227.712646 373.086792,227.253540 
	C373.624908,227.052673 374.237213,227.196899 374.962402,227.640900 
z"/>
<path fill="#DCE6F0" opacity="1.000000" stroke="none" 
	d="
M379.014343,230.708008 
	C378.729492,230.825912 378.373352,230.680710 378.024994,230.224335 
	C378.336212,230.090408 378.639618,230.267654 379.014343,230.708008 
z"/>
<path fill="#DCE6F0" opacity="1.000000" stroke="none" 
	d="
M376.014832,228.709473 
	C375.728912,228.826920 375.371307,228.680969 375.023499,228.224197 
	C375.336578,228.090927 375.639862,228.268509 376.014832,228.709473 
z"/>
<path fill="#19355E" opacity="1.000000" stroke="none" 
	d="
M234.911087,115.902802 
	C235.001404,115.538841 235.236832,115.315918 235.756348,115.069199 
	C235.991394,115.161652 235.994766,115.333237 235.989319,115.762154 
	C235.980530,116.019493 236.003036,115.996941 235.805786,116.027039 
	C235.608536,116.057137 235.194794,116.153709 235.194794,116.153709 
	C235.194794,116.153709 235.003815,115.988503 234.911087,115.902802 
z"/>
<path fill="#19355E" opacity="1.000000" stroke="none" 
	d="
M111.981155,118.650986 
	C111.782578,118.851967 111.494720,118.735687 111.082245,118.351540 
	C111.229248,118.265488 111.540657,118.348846 111.981155,118.650986 
z"/>
<path fill="#6E9CC7" opacity="1.000000" stroke="none" 
	d="
M314.994446,422.993774 
	C314.887665,423.024353 314.785614,423.060333 314.845825,423.051392 
	C315.008026,423.006439 314.999237,422.999176 314.994446,422.993774 
z"/>
<path fill="#19355E" opacity="1.000000" stroke="none" 
	d="
M140.679825,79.489304 
	C138.400024,81.657005 136.554428,83.929863 134.180725,85.260971 
	C130.708130,87.208298 127.085556,85.248619 126.124603,81.442253 
	C124.235535,73.959541 130.902008,62.495834 138.441544,60.313152 
	C142.448410,59.153172 143.998627,62.018436 143.760208,64.839096 
	C143.352341,69.663948 141.894699,74.400055 140.679825,79.489304 
z"/>
<path fill="#183661" opacity="1.000000" stroke="none" 
	d="
M157.241577,60.231041 
	C155.312698,61.344593 153.597076,62.793758 151.944962,62.724667 
	C151.017075,62.685863 149.229050,59.116001 149.476944,58.881794 
	C151.420944,57.045204 153.773026,54.343224 155.982346,54.358482 
	C160.398819,54.388996 158.793549,57.519432 157.241577,60.231041 
z"/>
<path fill="#000000" opacity="1.000000" stroke="none" 
	d="
M198.214294,101.889160 
	C198.475433,101.522583 198.715851,101.453323 198.956253,101.384064 
	C199.004349,101.602974 199.052460,101.821884 199.100555,102.040787 
	C198.798218,102.089355 198.495895,102.137924 198.214294,101.889160 
z"/>
<path fill="#000000" opacity="1.000000" stroke="none" 
	d="
M235.274353,116.310303 
	C235.194794,116.153709 235.608536,116.057137 235.816925,116.015869 
	C235.801529,116.138695 235.577728,116.302803 235.274353,116.310303 
z"/>
<path fill="#6F9DC7" opacity="1.000000" stroke="none" 
	d="
M273.915253,198.950378 
	C286.910370,199.250854 298.761841,202.378891 310.006348,207.682983 
	C321.863586,213.276093 323.153870,222.223068 313.509247,231.196915 
	C304.887329,239.219223 294.150543,243.047928 282.861359,244.616531 
	C270.734558,246.301498 258.555756,245.846725 247.320953,239.751282 
	C239.607391,235.566299 234.322266,229.626312 232.606537,220.713165 
	C230.827133,211.469269 234.026245,204.354721 243.335953,202.311264 
	C253.140732,200.159164 263.379547,199.984589 273.915253,198.950378 
z"/>
</svg>