<svg version="1.1" id="Layer_1" xmlns="http://www.w3.org/2000/svg" xmlns:xlink="http://www.w3.org/1999/xlink" x="0px" y="0px"
	 width="100%" viewBox="0 0 100 100" enable-background="new 0 0 100 100" xml:space="preserve">
<path fill="#010101" opacity="1.000000" stroke="none" 
	d="
M40.306419,15.065050 
	C39.893955,15.743151 39.481495,16.421253 39.009659,17.013075 
	C39.009659,17.013075 39.096359,17.071825 38.206371,16.982216 
	C36.717819,17.028009 35.229267,17.073805 32.951191,17.052660 
	C31.370733,17.067104 29.790274,17.081547 27.411867,16.988201 
	C24.539927,17.026245 23.722071,18.662165 24.053015,22.016975 
	C24.081068,23.578959 24.109121,25.140940 24.017321,27.581707 
	C24.340132,31.026024 24.907434,34.467937 24.941324,37.915096 
	C25.057255,49.706516 24.980968,61.499786 24.987513,73.292343 
	C24.991955,81.294296 26.658628,83.003563 34.473015,83.011879 
	C43.608086,83.021599 52.743179,83.014275 61.878262,83.014236 
	C74.587334,83.014191 75.013420,82.591309 75.664536,70.062683 
	C76.099243,70.014328 76.533943,69.965965 77.315201,70.469872 
	C78.859344,69.272110 80.403488,68.074341 82.269875,66.256805 
	C83.544273,63.848923 84.818680,61.441040 86.666862,58.872803 
	C86.676094,58.230087 86.685318,57.587368 86.947556,56.345078 
	C87.041245,55.921654 87.134926,55.498230 87.837570,54.939217 
	C87.877831,53.955120 87.918091,52.971027 87.951965,51.099590 
	C87.981667,48.732342 88.011368,46.365093 88.490105,43.697548 
	C88.066635,43.106846 87.643173,42.516148 87.020805,41.545902 
	C87.020805,41.545902 86.922554,41.128815 87.001984,40.379749 
	C86.000542,39.585770 84.999100,38.791786 83.514587,37.913498 
	C83.178619,37.849552 82.901703,37.685776 82.836998,37.024948 
	C82.555405,37.013344 82.273811,37.001740 81.133759,36.951714 
	C79.416351,36.910793 77.698952,36.869869 75.654472,36.128082 
	C75.445755,33.767651 75.237030,31.407223 74.985451,29.034567 
	C74.985451,29.034567 74.986511,28.990011 75.568947,29.029774 
	C75.745667,28.356203 75.922379,27.682631 76.063492,26.205173 
	C76.076889,25.132692 76.090286,24.060213 76.572174,22.586073 
	C75.671677,21.428293 74.771179,20.270514 73.992264,19.007006 
	C73.992264,19.007006 73.886711,19.128723 73.906082,18.474346 
	C72.607346,17.946249 71.308617,17.418152 69.205849,16.931004 
	C68.132812,16.919319 67.059776,16.907633 65.556892,16.418829 
	C62.621773,16.635391 59.656944,17.209568 56.759800,16.968931 
	C53.804298,16.723444 50.915298,15.677265 47.162895,14.968453 
	C45.773018,14.959945 44.383137,14.951436 42.739197,14.486075 
	C42.147335,14.646311 41.555473,14.806546 40.306419,15.065050 
z"/>
<path fill="#F8F7EA" opacity="1.000000" stroke="none" 
	d="
M28.209816,17.095991 
	C29.790274,17.081547 31.370733,17.067104 33.492542,17.388302 
	C35.077442,18.445002 36.120991,19.166058 37.360954,20.022833 
	C37.990993,18.951471 38.543674,18.011648 39.096359,17.071825 
	C39.096359,17.071825 39.009659,17.013075 39.326145,17.021542 
	C40.087509,16.668169 40.532391,16.306330 41.280380,15.959525 
	C42.053413,15.630684 42.523338,15.286806 42.993259,14.942928 
	C44.383137,14.951436 45.773018,14.959945 47.761597,15.269276 
	C54.044598,18.553650 59.714359,21.730547 65.986740,16.895948 
	C67.059776,16.907633 68.132812,16.919319 69.818466,17.158705 
	C71.582962,17.967178 72.734840,18.547951 73.886711,19.128723 
	C73.886711,19.128723 73.992264,19.007006 73.988266,19.382322 
	C74.690742,20.834335 75.397217,21.911034 76.103683,22.987732 
	C76.090286,24.060213 76.076889,25.132692 75.846107,26.786749 
	C75.414650,27.908886 75.200577,28.449448 74.986511,28.990009 
	C74.986511,28.990011 74.985451,29.034567 74.696510,29.091316 
	C73.948914,29.820379 73.490257,30.492691 72.720520,31.184536 
	C71.913269,31.804670 71.417114,32.405273 70.970016,33.018906 
	C71.019066,33.031933 71.054008,32.936638 70.622910,32.877426 
	C68.446480,32.921040 66.701134,33.023865 64.648590,32.950523 
	C63.463558,32.157898 62.585739,31.541437 61.707920,30.924976 
	C61.281700,31.082573 60.855480,31.240170 60.429264,31.397768 
	C61.064171,35.579586 61.984093,39.745621 62.216866,43.949703 
	C62.337975,46.137001 61.849545,48.906406 60.521999,50.461445 
	C59.345181,51.839931 56.018593,52.995110 54.736454,52.281288 
	C52.961372,51.293022 51.856422,48.575760 51.152348,46.378460 
	C50.701778,44.972321 51.511520,43.171089 51.722031,41.542557 
	C52.165257,38.113731 52.585968,34.681995 53.059959,30.900045 
	C44.114395,33.258499 44.114395,33.258499 37.375046,28.295267 
	C34.560883,31.205833 31.308298,32.773750 27.104187,30.683964 
	C26.048264,29.139381 25.092718,27.921152 24.137175,26.702923 
	C24.109121,25.140940 24.081068,23.578959 24.382206,21.483631 
	C25.877537,19.665520 27.043676,18.380756 28.209816,17.095991 
z"/>
<path fill="#191A21" opacity="1.000000" stroke="none" 
	d="
M73.031601,31.165005 
	C73.490257,30.492691 73.948914,29.820379 74.717941,29.097429 
	C75.237030,31.407223 75.445755,33.767651 75.621841,36.805130 
	C75.364662,38.835400 75.140099,40.188618 74.860413,41.874035 
	C79.462166,40.113037 82.297386,41.340496 83.661667,45.285007 
	C85.373177,50.233459 81.538200,61.277893 77.507904,64.865448 
	C76.197418,66.031975 75.818375,68.244888 75.013306,69.979202 
	C75.013420,82.591309 74.587334,83.014191 61.878262,83.014236 
	C52.743179,83.014275 43.608086,83.021599 34.473015,83.011879 
	C26.658628,83.003563 24.991955,81.294296 24.987513,73.292343 
	C24.980968,61.499786 25.057255,49.706516 24.941324,37.915096 
	C24.907434,34.467937 24.340132,31.026024 24.077248,27.142315 
	C25.092718,27.921152 26.048264,29.139381 27.013445,31.142557 
	C27.023083,45.838902 27.023083,59.750298 27.023083,74.176559 
	C36.669025,74.176559 45.845005,74.176559 55.020985,74.176559 
	C55.015179,74.476364 55.009373,74.776176 55.003567,75.075981 
	C45.770638,75.075981 36.537712,75.075981 26.897373,75.075981 
	C27.913183,79.643433 30.535208,81.080589 34.519028,81.050797 
	C44.828686,80.973686 55.139568,81.069443 65.449425,81.006874 
	C70.900642,80.973793 72.986877,78.911705 73.004433,73.470520 
	C73.047897,60.001350 72.987808,46.531841 72.994827,32.746853 
	C73.024094,32.009159 73.027847,31.587082 73.031601,31.165005 
z"/>
<path fill="#F2F1E4" opacity="1.000000" stroke="none" 
	d="
M75.338921,70.020943 
	C75.818375,68.244888 76.197418,66.031975 77.507904,64.865448 
	C81.538200,61.277893 85.373177,50.233459 83.661667,45.285007 
	C82.297386,41.340496 79.462166,40.113037 74.860413,41.874035 
	C75.140099,40.188618 75.364662,38.835400 75.785385,37.155563 
	C77.698952,36.869869 79.416351,36.910793 81.670792,37.183197 
	C82.207832,37.414684 82.683830,37.422169 82.683830,37.422169 
	C82.901703,37.685776 83.178619,37.849552 83.857574,38.254745 
	C85.107887,39.440266 86.015221,40.284538 86.922554,41.128815 
	C86.922554,41.128815 87.020805,41.545902 87.056824,42.034691 
	C87.408920,43.014931 87.724998,43.506386 88.041069,43.997845 
	C88.011368,46.365093 87.981667,48.732342 87.695953,51.761833 
	C87.369499,53.307652 87.299057,54.191227 87.228607,55.074806 
	C87.134926,55.498230 87.041245,55.921654 86.552277,56.789230 
	C86.135696,57.833305 86.114388,58.433228 86.093086,59.033157 
	C84.818680,61.441040 83.544273,63.848923 81.765030,66.603783 
	C79.829674,67.939713 78.399162,68.928665 76.968651,69.917610 
	C76.533943,69.965965 76.099243,70.014328 75.338921,70.020943 
z"/>
<path fill="#37393E" opacity="1.000000" stroke="none" 
	d="
M65.771820,16.657389 
	C59.714359,21.730547 54.044598,18.553650 48.178741,15.275868 
	C50.915298,15.677265 53.804298,16.723444 56.759800,16.968931 
	C59.656944,17.209568 62.621773,16.635391 65.771820,16.657389 
z"/>
<path fill="#191A21" opacity="1.000000" stroke="none" 
	d="
M77.141922,70.193741 
	C78.399162,68.928665 79.829674,67.939713 81.603912,66.913666 
	C80.403488,68.074341 78.859344,69.272110 77.141922,70.193741 
z"/>
<path fill="#191A21" opacity="1.000000" stroke="none" 
	d="
M38.651367,17.027020 
	C38.543674,18.011648 37.990993,18.951471 37.360954,20.022833 
	C36.120991,19.166058 35.077442,18.445002 33.887306,17.421772 
	C35.229267,17.073805 36.717819,17.028009 38.651367,17.027020 
z"/>
<path fill="#191A21" opacity="1.000000" stroke="none" 
	d="
M27.810841,17.042095 
	C27.043676,18.380756 25.877537,19.665520 24.409903,21.092556 
	C23.722071,18.662165 24.539927,17.026245 27.810841,17.042095 
z"/>
<path fill="#37393E" opacity="1.000000" stroke="none" 
	d="
M73.896393,18.801533 
	C72.734840,18.547951 71.582962,17.967178 70.220490,17.138231 
	C71.308617,17.418152 72.607346,17.946249 73.896393,18.801533 
z"/>
<path fill="#37393E" opacity="1.000000" stroke="none" 
	d="
M76.337929,22.786903 
	C75.397217,21.911034 74.690742,20.834335 73.927475,19.435184 
	C74.771179,20.270514 75.671677,21.428293 76.337929,22.786903 
z"/>
<path fill="#37393E" opacity="1.000000" stroke="none" 
	d="
M87.533089,55.007011 
	C87.299057,54.191227 87.369499,53.307652 87.699150,52.205502 
	C87.918091,52.971027 87.877831,53.955120 87.533089,55.007011 
z"/>
<path fill="#37393E" opacity="1.000000" stroke="none" 
	d="
M86.962265,40.754280 
	C86.015221,40.284538 85.107887,39.440266 84.099106,38.296898 
	C84.999100,38.791786 86.000542,39.585770 86.962265,40.754280 
z"/>
<path fill="#37393E" opacity="1.000000" stroke="none" 
	d="
M75.277725,29.009892 
	C75.200577,28.449448 75.414650,27.908886 75.863907,27.188692 
	C75.922379,27.682631 75.745667,28.356203 75.277725,29.009892 
z"/>
<path fill="#37393E" opacity="1.000000" stroke="none" 
	d="
M88.265587,43.847694 
	C87.724998,43.506386 87.408920,43.014931 87.156273,42.224461 
	C87.643173,42.516148 88.066635,43.106846 88.265587,43.847694 
z"/>
<path fill="#191A21" opacity="1.000000" stroke="none" 
	d="
M40.977268,15.944489 
	C40.532391,16.306330 40.087509,16.668169 39.355831,17.064682 
	C39.481495,16.421253 39.893955,15.743151 40.639229,15.260474 
	C40.972042,15.455898 40.977268,15.944489 40.977268,15.944489 
z"/>
<path fill="#37393E" opacity="1.000000" stroke="none" 
	d="
M86.379974,58.952980 
	C86.114388,58.433228 86.135696,57.833305 86.425774,57.089016 
	C86.685318,57.587368 86.676094,58.230087 86.379974,58.952980 
z"/>
<path fill="#37393E" opacity="1.000000" stroke="none" 
	d="
M41.280380,15.959525 
	C40.977268,15.944489 40.972042,15.455898 40.967827,15.211340 
	C41.555473,14.806546 42.147335,14.646311 42.866226,14.714502 
	C42.523338,15.286806 42.053413,15.630684 41.280380,15.959525 
z"/>
<path fill="#37393E" opacity="1.000000" stroke="none" 
	d="
M82.760414,37.223557 
	C82.683830,37.422169 82.207832,37.414684 82.100021,37.202408 
	C82.273811,37.001740 82.555405,37.013344 82.760414,37.223557 
z"/>
<path fill="#F6E35B" opacity="1.000000" stroke="none" 
	d="
M72.969330,33.062469 
	C72.987808,46.531841 73.047897,60.001350 73.004433,73.470520 
	C72.986877,78.911705 70.900642,80.973793 65.449425,81.006874 
	C55.139568,81.069443 44.828686,80.973686 34.519028,81.050797 
	C30.535208,81.080589 27.913183,79.643433 26.897373,75.075981 
	C36.537712,75.075981 45.770638,75.075981 55.003567,75.075981 
	C55.009373,74.776176 55.015179,74.476364 55.020985,74.176559 
	C45.845005,74.176559 36.669025,74.176559 27.023083,74.176559 
	C27.023083,59.750298 27.023083,45.838902 27.113827,31.468910 
	C31.308298,32.773750 34.560883,31.205833 37.375046,28.295267 
	C44.114395,33.258499 44.114395,33.258499 53.059959,30.900045 
	C52.585968,34.681995 52.165257,38.113731 51.722031,41.542557 
	C51.511520,43.171089 50.701778,44.972321 51.152348,46.378460 
	C51.856422,48.575760 52.961372,51.293022 54.736454,52.281288 
	C56.018593,52.995110 59.345181,51.839931 60.521999,50.461445 
	C61.849545,48.906406 62.337975,46.137001 62.216866,43.949703 
	C61.984093,39.745621 61.064171,35.579586 60.429264,31.397768 
	C60.855480,31.240170 61.281700,31.082573 61.707920,30.924976 
	C62.585739,31.541437 63.463558,32.157898 64.864708,33.265526 
	C67.276695,33.483345 69.165352,33.209995 71.054008,32.936638 
	C71.054008,32.936638 71.019066,33.031933 71.311928,33.049866 
	C72.059639,33.066021 72.514481,33.064243 72.969330,33.062469 
M38.994930,42.880558 
	C38.994930,50.926716 38.994930,58.972878 38.994930,67.019035 
	C39.246666,67.012512 39.498402,67.005981 39.750137,66.999451 
	C39.750137,57.599895 39.750137,48.200340 39.750137,38.800785 
	C39.580067,38.794552 39.409996,38.788319 39.239925,38.782089 
	C39.158234,39.851032 39.076542,40.919979 38.994930,42.880558 
M67.007835,43.896027 
	C67.007835,51.011826 67.007835,58.127621 67.007835,65.243416 
	C67.242577,65.236176 67.477310,65.228935 67.712051,65.221703 
	C67.712051,57.014591 67.712051,48.807484 67.712051,40.600376 
	C67.548714,40.596714 67.385368,40.593052 67.222031,40.589390 
	C67.150772,41.394089 67.079514,42.198784 67.007835,43.896027 
M37.574863,69.049355 
	C37.574863,69.049355 37.561882,68.851677 37.561882,68.851677 
	C37.561882,68.851677 37.499386,69.153809 37.574863,69.049355 
z"/>
<path fill="#37393E" opacity="1.000000" stroke="none" 
	d="
M70.622910,32.877426 
	C69.165352,33.209995 67.276695,33.483345 65.171921,33.441696 
	C66.701134,33.023865 68.446480,32.921040 70.622910,32.877426 
z"/>
<path fill="#37393E" opacity="1.000000" stroke="none" 
	d="
M72.994827,32.746853 
	C72.514481,33.064243 72.059639,33.066021 71.262878,33.036835 
	C71.417114,32.405273 71.913269,31.804670 72.720520,31.184536 
	C73.027847,31.587082 73.024094,32.009159 72.994827,32.746853 
z"/>
<path fill="#25262C" opacity="1.000000" stroke="none" 
	d="
M38.994888,42.434742 
	C39.076542,40.919979 39.158234,39.851032 39.239925,38.782089 
	C39.409996,38.788319 39.580067,38.794552 39.750137,38.800785 
	C39.750137,48.200340 39.750137,57.599895 39.750137,66.999451 
	C39.498402,67.005981 39.246666,67.012512 38.994930,67.019035 
	C38.994930,58.972878 38.994930,50.926716 38.994888,42.434742 
z"/>
<path fill="#1F212B" opacity="1.000000" stroke="none" 
	d="
M67.008041,43.449753 
	C67.079514,42.198784 67.150772,41.394089 67.222031,40.589390 
	C67.385368,40.593052 67.548714,40.596714 67.712051,40.600376 
	C67.712051,48.807484 67.712051,57.014591 67.712051,65.221703 
	C67.477310,65.228935 67.242577,65.236176 67.007835,65.243416 
	C67.007835,58.127621 67.007835,51.011826 67.008041,43.449753 
z"/>
<path fill="#25262C" opacity="1.000000" stroke="none" 
	d="
M37.537125,69.101578 
	C37.499386,69.153809 37.561882,68.851677 37.561882,68.851677 
	C37.561882,68.851677 37.574863,69.049355 37.537125,69.101578 
z"/>
</svg>