<svg version="1.1" id="Layer_1" xmlns="http://www.w3.org/2000/svg" xmlns:xlink="http://www.w3.org/1999/xlink" x="0px" y="0px"
	 width="100%" viewBox="0 0 512 512" enable-background="new 0 0 512 512" xml:space="preserve">
<path fill="#000000" opacity="1.000000" stroke="none" 
	d="
M372.458466,302.089050 
	C372.360046,302.397461 372.261627,302.705841 371.863953,303.647949 
	C365.334106,312.879181 358.570648,321.847412 348.656555,327.881470 
	C337.511841,334.664490 326.052032,334.919922 315.832672,325.290558 
	C312.563141,319.330109 308.216644,313.701874 306.253632,307.338409 
	C302.450043,295.008270 299.366791,282.373230 297.138153,269.662384 
	C294.749054,256.036316 293.703064,242.175644 292.022797,228.423233 
	C291.838501,226.914993 291.337708,225.445404 290.872803,223.047745 
	C290.843323,219.371033 290.813873,215.694336 290.959595,211.412552 
	C290.680298,210.923401 290.401001,210.434250 290.034393,209.171906 
	C290.064789,208.136292 290.095184,207.100693 291.045563,206.007431 
	C299.679230,206.005386 308.312988,206.022186 316.946564,205.991562 
	C320.191376,205.980057 323.442719,205.386688 325.226837,209.454880 
	C325.648529,210.416443 328.332367,210.385956 330.865631,210.976990 
	C335.392212,210.511307 341.135437,213.099777 343.754852,205.727692 
	C344.448608,201.481201 345.142334,197.234711 345.979797,192.083420 
	C345.931915,188.726257 345.884033,185.369080 345.981354,181.134216 
	C345.360138,177.410324 344.738922,173.686417 344.012878,169.198334 
	C341.749146,161.162827 340.601196,160.508911 329.231537,161.062958 
	C327.142944,162.678802 325.054352,164.294647 322.037903,166.010513 
	C307.034149,165.986816 292.030426,165.963120 277.002625,165.065414 
	C277.039856,162.738464 277.077087,160.411530 277.843506,158.000534 
	C300.826019,146.836563 310.958588,128.202469 309.963440,102.502129 
	C309.909546,102.333504 309.855682,102.164886 309.936432,101.344978 
	C309.891693,100.906174 309.846924,100.467369 309.981720,99.125572 
	C310.413452,80.092285 303.153809,64.734398 287.359863,52.852585 
	C282.899811,50.623013 278.439728,48.393436 273.273132,45.815018 
	C264.696289,42.455090 255.902649,42.059639 246.127548,43.972103 
	C241.744980,45.368568 237.362396,46.765034 232.280396,48.224609 
	C226.733047,52.770145 220.657623,56.813068 215.750992,61.968399 
	C206.251755,71.949112 202.520584,84.313538 203.064331,98.762474 
	C203.109848,99.504150 203.155365,100.245834 203.038513,101.492996 
	C203.088547,101.662750 203.138565,101.832504 203.043594,102.923340 
	C203.361618,107.994873 203.236862,113.140976 204.076157,118.124718 
	C207.294250,137.233932 217.769516,150.745010 235.984726,158.950745 
	C235.980820,161.282898 235.976913,163.615036 235.041168,166.013580 
	C220.039658,165.973099 205.038147,165.932617 189.777954,165.221924 
	C188.318237,161.715225 185.837296,160.177643 181.136642,161.023392 
	C170.387924,160.942093 170.202515,161.070282 168.002365,170.788162 
	C167.389053,174.196243 166.775742,177.604324 166.020203,181.915314 
	C166.066589,185.273331 166.112991,188.631348 166.287994,192.783508 
	C167.247696,196.526596 168.207397,200.269684 169.029495,204.743668 
	C170.439529,208.449966 172.290512,211.513199 177.054688,211.030502 
	C179.353302,210.797623 181.683823,210.879593 184.710999,210.757233 
	C188.047119,210.195908 188.532043,205.602036 192.953751,205.834732 
	C203.236053,206.375824 213.564590,206.037964 223.976807,206.883484 
	C224.038727,208.267807 224.100647,209.652115 224.034500,211.925415 
	C223.707184,215.162582 223.255966,218.392807 223.074234,221.638123 
	C222.322906,235.054810 221.653168,248.476059 220.247055,262.333893 
	C217.171585,275.179138 214.720856,288.216400 210.848053,300.816589 
	C206.834946,313.873169 199.671631,324.991821 185.125351,330.047150 
	C178.495087,332.285187 172.247589,330.719147 166.370071,327.688141 
	C155.006729,321.828033 147.268051,312.152313 139.853760,301.347412 
	C139.905319,300.519287 139.956879,299.691193 140.759659,298.992584 
	C144.747223,300.665802 148.848892,302.116364 152.686401,304.082489 
	C155.776093,305.665436 157.605240,304.863892 159.639206,301.661682 
	C163.496384,296.321747 163.406418,291.121857 159.924423,285.449188 
	C156.865799,280.466187 154.606445,274.995361 151.948456,269.763153 
	C142.668045,251.494629 133.367874,233.236130 123.979576,214.240952 
	C120.102272,208.877213 115.431488,208.387405 111.416023,213.262131 
	C109.854141,215.158218 109.099724,217.719437 107.349106,220.317474 
	C101.362152,232.283661 95.377716,244.251099 89.387581,256.215698 
	C82.659126,269.655029 75.818352,283.040222 69.308327,296.584473 
	C68.318169,298.644562 68.851456,301.436920 68.680092,303.890564 
	C71.120399,303.802063 73.749466,304.268433 75.963676,303.515198 
	C81.404945,301.664307 86.655258,299.252014 91.988914,297.811218 
	C92.046844,298.551849 92.104774,299.292511 92.022675,300.956940 
	C91.443108,317.272583 92.594360,333.377258 96.964714,349.221100 
	C103.235481,371.954498 114.176651,392.006714 133.114548,406.259369 
	C151.000488,419.720245 171.731033,427.611908 193.753952,432.097900 
	C201.302673,433.635559 209.058090,435.423950 215.932983,438.731659 
	C228.881287,444.961426 239.509415,454.301971 247.946182,466.156128 
	C249.583954,468.457275 253.254471,469.311676 256.766418,470.980804 
	C260.696564,471.170380 262.868591,468.795990 265.074249,465.895447 
	C276.926178,450.309570 291.170166,438.017853 311.035187,433.959961 
	C329.497711,430.188568 347.428497,424.959412 364.154022,416.006348 
	C381.469727,406.737366 395.368073,393.887939 404.672577,376.599121 
	C417.688507,352.414093 422.142792,326.286102 420.947968,298.301361 
	C420.994293,297.555023 421.040619,296.808716 421.784058,296.245361 
	C427.329773,298.783569 432.788513,301.547272 438.468170,303.738312 
	C440.467438,304.509552 443.007843,303.878143 445.301147,303.887177 
	C445.145599,301.438629 445.676575,298.671967 444.714874,296.597015 
	C440.704285,287.943542 436.264618,279.488037 431.945831,270.978424 
	C423.318268,253.978928 414.666656,236.991638 405.968597,219.267456 
	C404.457794,216.845840 403.349579,214.003952 401.351959,212.090591 
	C397.260193,208.171402 392.361725,209.589813 389.287842,215.279526 
	C377.445129,239.064804 365.836182,262.971405 353.598724,286.551819 
	C350.457031,292.605621 350.900696,297.193146 355.233521,302.707245 
	C356.783569,304.725922 358.314026,305.476562 361.025665,304.133698 
	C365.137726,302.097321 369.580505,300.728699 373.966888,299.711792 
	C373.632751,300.465820 373.298645,301.219818 373.001221,301.999390 
	C373.001221,301.999390 372.976227,301.962036 372.458466,302.089050 
z"/>
<path fill="#E3E7F0" opacity="1.000000" stroke="none" 
	d="
M220.953461,261.895630 
	C221.653168,248.476059 222.322906,235.054810 223.074234,221.638123 
	C223.255966,218.392807 223.707184,215.162582 224.556412,211.459595 
	C235.416931,210.936325 245.755539,210.878876 256.094482,210.848236 
	C256.094788,210.875031 256.077667,210.925812 256.059814,211.398773 
	C256.032410,266.148712 256.011383,320.425659 256.020172,374.702606 
	C256.022949,391.850098 256.105530,408.997559 256.145996,426.194641 
	C256.140381,426.244263 256.119263,426.344208 255.732010,426.255249 
	C252.858246,424.227417 249.762451,422.730438 247.984009,420.278107 
	C236.353561,404.240723 221.623459,392.878601 202.078354,388.180481 
	C193.546402,386.129669 184.929016,384.185394 176.674362,381.274231 
	C146.761688,370.724915 123.840393,352.233093 112.097267,321.926178 
	C108.827034,313.486267 106.635216,304.628448 103.991318,295.750061 
	C104.033974,295.537750 104.121765,295.113251 104.480827,295.032593 
	C110.643646,291.379700 116.298187,291.631165 122.232338,294.973389 
	C125.514198,296.821808 129.303009,297.770142 132.987366,299.368530 
	C133.420105,300.065369 133.728760,300.517822 134.009491,301.374512 
	C136.811218,321.321503 153.099289,339.469299 172.211990,344.002136 
	C181.271942,346.150818 190.471466,348.122253 199.362885,342.037109 
	C209.249237,335.607025 213.135208,325.691254 215.924164,315.326294 
	C220.630493,297.835571 220.360077,279.810272 220.953461,261.895630 
z"/>
<path fill="#C9CEE2" opacity="1.000000" stroke="none" 
	d="
M256.151611,426.145050 
	C256.105530,408.997559 256.022949,391.850098 256.020172,374.702606 
	C256.011383,320.425659 256.032410,266.148712 256.520355,211.407532 
	C267.666260,210.943253 278.333771,210.943176 289.147278,211.177704 
	C289.790344,211.614075 290.287384,211.815842 290.784393,212.017624 
	C290.813873,215.694336 290.843323,219.371033 290.633148,223.801819 
	C290.275909,226.202454 289.994812,227.856003 290.065247,229.494476 
	C291.033478,252.022354 291.412415,274.602936 293.341309,297.049835 
	C294.220490,307.280823 297.704803,317.406097 300.979095,327.256348 
	C302.335114,331.335602 306.236694,334.568634 309.055695,338.510559 
	C313.751648,343.985657 319.714752,345.850403 326.426453,346.010345 
	C336.316315,346.246002 345.525604,343.688690 353.817505,338.512756 
	C367.739746,329.822266 376.006042,317.121735 379.116699,300.749207 
	C379.557129,300.076538 379.867340,299.638550 380.555145,299.152313 
	C385.856567,297.261292 390.943024,295.755676 395.658386,293.480774 
	C400.349457,291.217651 404.211548,292.142273 408.040955,295.412231 
	C403.944733,319.357178 394.391632,340.268799 377.212402,357.072876 
	C366.527466,367.524567 353.595917,374.949249 339.513214,379.854736 
	C329.860413,383.217163 319.772980,385.331635 309.542938,387.967773 
	C304.915802,384.976685 300.625549,382.021851 295.740906,378.657593 
	C302.276154,376.695374 307.797974,375.037445 313.319794,373.379517 
	C313.202209,372.945221 313.084625,372.510895 312.967041,372.076599 
	C307.180756,372.993744 301.394470,373.910889 294.964569,374.930054 
	C299.301147,366.856506 303.295868,359.419403 307.290588,351.982330 
	C306.674316,351.593262 306.058044,351.204224 305.441803,350.815186 
	C300.427307,357.518066 295.412781,364.220947 289.947449,371.526459 
	C288.045746,365.379272 286.446991,360.211456 284.848267,355.043610 
	C284.460144,355.141937 284.072052,355.240234 283.683929,355.338531 
	C284.417206,360.674103 285.150482,366.009674 285.987030,372.096710 
	C277.864899,367.791870 270.407806,363.839539 262.950745,359.887207 
	C262.539337,360.505280 262.127960,361.123383 261.716553,361.741486 
	C268.554932,366.935791 275.393311,372.130066 282.566711,377.578827 
	C276.732361,379.346863 271.195923,381.024597 265.659485,382.702362 
	C265.773193,383.166656 265.886902,383.630951 266.000580,384.095245 
	C271.740448,383.145599 277.480316,382.195984 283.767426,381.155792 
	C279.510468,389.082245 275.516693,396.518646 271.237640,404.486176 
	C272.931946,404.486176 273.427124,404.621948 273.547852,404.466644 
	C278.606537,397.959686 283.631714,391.426697 289.312286,384.051483 
	C289.951172,388.135712 290.479126,391.510864 290.873230,395.202087 
	C280.162140,402.762817 270.988861,411.401733 263.426086,421.838623 
	C261.909180,423.932007 258.622345,424.742828 256.151611,426.145050 
z"/>
<path fill="#9EA9C9" opacity="1.000000" stroke="none" 
	d="
M309.879822,388.003998 
	C319.772980,385.331635 329.860413,383.217163 339.513214,379.854736 
	C353.595917,374.949249 366.527466,367.524567 377.212402,357.072876 
	C394.391632,340.268799 403.944733,319.357178 408.276337,295.412415 
	C408.524414,294.998688 408.996338,294.997559 409.324768,295.144257 
	C413.363312,296.537781 417.073395,297.784576 420.783508,299.031372 
	C422.142792,326.286102 417.688507,352.414093 404.672577,376.599121 
	C395.368073,393.887939 381.469727,406.737366 364.154022,416.006348 
	C347.428497,424.959412 329.497711,430.188568 311.035187,433.959961 
	C291.170166,438.017853 276.926178,450.309570 265.074249,465.895447 
	C262.868591,468.795990 260.696564,471.170380 256.381042,470.449219 
	C256.036865,455.393127 256.078064,440.868683 256.119263,426.344208 
	C256.119263,426.344208 256.140381,426.244263 256.145996,426.194641 
	C258.622345,424.742828 261.909180,423.932007 263.426086,421.838623 
	C270.988861,411.401733 280.162140,402.762817 291.150665,395.426208 
	C292.501923,397.571411 293.441925,399.808563 294.948669,403.394592 
	C294.677155,399.005371 294.497498,396.101654 294.666321,393.140228 
	C297.345551,392.018311 299.676361,390.954102 302.369385,389.943573 
	C307.211639,391.998627 311.691681,393.999969 316.171722,396.001312 
	C316.490265,395.505920 316.808807,395.010498 317.127350,394.515076 
	C314.711517,392.344727 312.295654,390.174377 309.879822,388.003998 
z"/>
<path fill="#B0B8CF" opacity="1.000000" stroke="none" 
	d="
M255.732010,426.255249 
	C256.078064,440.868683 256.036865,455.393127 255.991516,470.375519 
	C253.254471,469.311676 249.583954,468.457275 247.946182,466.156128 
	C239.509415,454.301971 228.881287,444.961426 215.932983,438.731659 
	C209.058090,435.423950 201.302673,433.635559 193.753952,432.097900 
	C171.731033,427.611908 151.000488,419.720245 133.114548,406.259369 
	C114.176651,392.006714 103.235481,371.954498 96.964714,349.221100 
	C92.594360,333.377258 91.443108,317.272583 92.448715,300.433228 
	C96.566063,298.593811 100.257355,297.278076 103.948654,295.962372 
	C106.635216,304.628448 108.827034,313.486267 112.097267,321.926178 
	C123.840393,352.233093 146.761688,370.724915 176.674362,381.274231 
	C184.929016,384.185394 193.546402,386.129669 202.078354,388.180481 
	C221.623459,392.878601 236.353561,404.240723 247.984009,420.278107 
	C249.762451,422.730438 252.858246,424.227417 255.732010,426.255249 
z"/>
<path fill="#E3E7F0" opacity="1.000000" stroke="none" 
	d="
M235.885025,158.084549 
	C217.769516,150.745010 207.294250,137.233932 204.076157,118.124718 
	C203.236862,113.140976 203.361618,107.994873 203.253326,102.364838 
	C203.507736,101.703819 203.617386,101.567291 203.584885,101.505157 
	C203.486465,101.317131 203.332947,101.157936 203.200897,100.987511 
	C203.155365,100.245834 203.109848,99.504150 203.471710,98.302582 
	C205.822189,93.193428 207.486145,88.402122 209.764969,83.923691 
	C214.936630,73.760124 223.268234,66.666336 233.373138,61.001984 
	C238.134903,59.587688 242.526505,58.238712 247.337875,56.860909 
	C249.717834,56.554996 251.706741,55.914379 253.633011,56.066532 
	C260.382507,56.599670 267.110413,57.406017 274.089447,58.357746 
	C278.887848,61.055031 283.443329,63.503185 288.190979,66.221909 
	C298.628052,74.272461 304.824219,84.642197 308.009430,96.981369 
	C308.292572,98.078278 309.190033,99.016602 309.802185,100.028564 
	C309.846924,100.467369 309.891693,100.906174 309.733459,101.770233 
	C309.624023,102.467270 309.717499,102.739044 309.810974,103.010818 
	C310.958588,128.202469 300.826019,146.836563 277.091187,158.058472 
	C262.850189,163.270401 249.365906,162.830872 235.885025,158.084549 
M284.025818,102.217369 
	C283.683563,101.498726 283.255707,100.807884 283.011810,100.057274 
	C279.250854,88.482742 266.518372,78.852837 255.609955,80.154556 
	C241.629562,81.822853 231.671494,90.023300 228.329056,103.635765 
	C223.920807,128.966721 248.515472,143.266891 266.832092,135.969116 
	C279.723511,130.832886 288.121796,116.201897 284.025818,102.217369 
z"/>
<path fill="#C9CEE2" opacity="1.000000" stroke="none" 
	d="
M322.965759,165.910492 
	C325.054352,164.294647 327.142944,162.678802 329.657349,161.468842 
	C331.404480,164.592682 332.725861,167.310654 334.091309,170.422821 
	C334.769745,174.536514 335.404114,178.256012 336.024902,182.435852 
	C336.007141,186.263916 336.002960,189.631653 335.840149,193.360428 
	C335.090027,197.483749 334.498535,201.246033 333.662750,205.210220 
	C332.270844,207.212021 331.123199,209.011917 329.975586,210.811813 
	C328.332367,210.385956 325.648529,210.416443 325.226837,209.454880 
	C323.442719,205.386688 320.191376,205.980057 316.946564,205.991562 
	C308.312988,206.022186 299.679230,206.005386 290.109436,206.009827 
	C278.118683,206.010910 267.064026,206.009613 255.539825,206.001801 
	C244.671646,206.015610 234.273010,206.035950 223.874390,206.056305 
	C213.564590,206.037964 203.236053,206.375824 192.953751,205.834732 
	C188.532043,205.602036 188.047119,210.195908 184.180939,210.512436 
	C182.094269,208.177505 180.537674,206.087357 178.973419,203.598343 
	C178.294662,199.476105 177.623566,195.752716 176.968292,191.568314 
	C176.962631,187.722794 176.941162,184.338287 176.944305,180.522644 
	C177.339249,176.724701 177.709579,173.357910 178.321884,169.754639 
	C179.718399,166.746231 180.872940,163.974304 182.027496,161.202362 
	C185.837296,160.177643 188.318237,161.715225 189.732147,165.812195 
	C189.110168,166.583542 188.533997,166.764618 187.932419,166.624390 
	C185.067413,162.703995 182.043900,165.338501 181.597351,167.440414 
	C180.166214,174.176819 179.757797,181.130508 178.957001,188.455200 
	C180.090744,194.486282 181.111771,200.089706 182.471985,205.609573 
	C182.677414,206.443283 184.463318,206.887527 185.518158,207.511932 
	C185.737488,206.388489 186.261398,205.226440 186.124695,204.148132 
	C185.443314,198.773300 184.588303,193.420502 183.859253,188.039124 
	C183.924118,188.018326 184.056885,187.987701 184.521973,187.990509 
	C232.965469,187.989868 280.943878,187.986435 328.987488,187.997375 
	C329.052673,188.011749 329.180847,188.048996 329.125732,188.493469 
	C328.233154,194.848907 327.395630,200.759872 326.431946,207.561554 
	C328.654572,209.284470 330.519440,206.921463 331.121704,204.447144 
	C332.432251,199.062958 333.059814,193.512512 333.976990,187.566254 
	C333.269165,181.034225 332.931458,174.887192 331.696808,168.925903 
	C330.894135,165.050201 328.810638,164.429276 325.811127,166.252594 
	C324.728333,166.297089 323.847046,166.103790 322.965759,165.910492 
z"/>
<path fill="#E2E6F0" opacity="1.000000" stroke="none" 
	d="
M187.957809,166.945679 
	C188.533997,166.764618 189.110168,166.583542 189.861496,166.147308 
	C205.038147,165.932617 220.039658,165.973099 235.519440,166.382065 
	C235.989746,167.822006 235.981781,168.893478 235.614044,170.024902 
	C233.857559,171.480667 232.460831,172.876480 231.064117,174.272278 
	C232.445908,175.547089 233.618546,177.472855 235.242310,177.994629 
	C249.339828,182.524689 263.545532,182.427505 277.652649,178.032883 
	C279.275787,177.527252 280.463104,175.622574 281.852478,174.366547 
	C280.236145,172.908127 278.619781,171.449707 276.969971,169.586639 
	C276.966553,168.101135 276.996613,167.020279 277.026672,165.939423 
	C292.030426,165.963120 307.034149,165.986816 322.501831,165.960495 
	C323.847046,166.103790 324.728333,166.297089 326.112610,166.473969 
	C327.384491,173.632690 328.153381,180.807831 328.922302,187.982986 
	C280.943878,187.986435 232.965469,187.989868 184.487183,187.526093 
	C184.345581,181.275482 184.574448,175.478394 185.183884,169.721619 
	C185.291016,168.709747 186.992584,167.866684 187.957809,166.945679 
z"/>
<path fill="#B1B9CF" opacity="1.000000" stroke="none" 
	d="
M132.863297,299.124207 
	C129.303009,297.770142 125.514198,296.821808 122.232338,294.973389 
	C116.298187,291.631165 110.643646,291.379700 104.436035,294.629211 
	C104.021652,293.494476 104.011124,292.682465 104.184135,291.575745 
	C105.333153,290.660858 106.240646,289.636383 107.273819,289.488159 
	C112.680710,288.712616 113.169525,285.311066 113.119476,280.632812 
	C112.899536,260.077026 113.050339,239.517288 113.439735,218.969330 
	C115.848854,219.657562 117.884979,220.335434 119.943901,221.389816 
	C120.691833,223.610748 121.281830,225.522537 122.162598,227.289368 
	C133.524612,250.081360 144.938339,272.847595 156.303711,295.637909 
	C157.336777,297.709412 158.126617,299.902252 159.029419,302.038727 
	C157.605240,304.863892 155.776093,305.665436 152.686401,304.082489 
	C148.848892,302.116364 144.747223,300.665802 140.129059,298.697571 
	C138.473282,297.917603 137.376251,297.542389 136.436401,296.927124 
	C133.598068,295.069031 133.058640,296.777618 132.863297,299.124207 
z"/>
<path fill="#C8CDE1" opacity="1.000000" stroke="none" 
	d="
M113.066742,218.958969 
	C113.050339,239.517288 112.899536,260.077026 113.119476,280.632812 
	C113.169525,285.311066 112.680710,288.712616 107.273819,289.488159 
	C106.240646,289.636383 105.333153,290.660858 103.790680,291.588196 
	C99.469917,293.618774 95.726143,295.342163 91.982376,297.065552 
	C86.655258,299.252014 81.404945,301.664307 75.963676,303.515198 
	C73.749466,304.268433 71.120399,303.802063 68.680092,303.890564 
	C68.851456,301.436920 68.318169,298.644562 69.308327,296.584473 
	C75.818352,283.040222 82.659126,269.655029 89.387581,256.215698 
	C95.377716,244.251099 101.362152,232.283661 108.033340,220.118256 
	C110.167297,219.599014 111.617020,219.278992 113.066742,218.958969 
z"/>
<path fill="#C8CDE1" opacity="1.000000" stroke="none" 
	d="
M406.024963,219.999298 
	C414.666656,236.991638 423.318268,253.978928 431.945831,270.978424 
	C436.264618,279.488037 440.704285,287.943542 444.714874,296.597015 
	C445.676575,298.671967 445.145599,301.438629 445.301147,303.887207 
	C443.007843,303.878143 440.467438,304.509552 438.468170,303.738312 
	C432.788513,301.547272 427.329773,298.783569 421.129059,295.968750 
	C416.646179,294.099640 412.818329,292.507080 408.761139,290.657959 
	C406.045044,289.577148 403.558289,288.752960 401.049011,287.465088 
	C400.994537,264.320404 400.962555,241.639450 401.309723,218.962860 
	C403.134216,219.311249 404.579590,219.655289 406.024963,219.999298 
z"/>
<path fill="#B0B8CF" opacity="1.000000" stroke="none" 
	d="
M400.930603,218.958496 
	C400.962555,241.639450 400.994537,264.320404 400.641876,287.489990 
	C393.505524,290.648773 386.753784,293.318909 379.655029,296.029663 
	C377.499573,297.072327 375.691162,298.074341 373.882782,299.076355 
	C369.580505,300.728699 365.137726,302.097321 361.025665,304.133698 
	C358.314026,305.476562 356.783569,304.725922 355.174438,302.016785 
	C356.006531,299.360229 356.835022,297.362823 357.798401,295.432739 
	C369.175507,272.639252 380.590149,249.864471 391.932861,227.053909 
	C392.877380,225.154419 393.371704,223.031036 394.430237,220.956909 
	C396.833710,220.254272 398.882141,219.606384 400.930603,218.958496 
z"/>
<path fill="#B0B8CF" opacity="1.000000" stroke="none" 
	d="
M378.986511,300.983887 
	C376.006042,317.121735 367.739746,329.822266 353.817505,338.512756 
	C345.525604,343.688690 336.316315,346.246002 326.426453,346.010345 
	C319.714752,345.850403 313.751648,343.985657 309.184753,338.168579 
	C311.531982,333.643036 313.825287,329.783539 316.118591,325.924011 
	C326.052032,334.919922 337.511841,334.664490 348.656555,327.881470 
	C358.570648,321.847412 365.334106,312.879181 372.206543,303.203003 
	C372.810547,302.556549 372.952911,302.291229 372.976227,301.962036 
	C372.976227,301.962036 373.001221,301.999390 373.371216,302.008057 
	C375.489655,301.672424 377.238098,301.328156 378.986511,300.983887 
z"/>
<path fill="#B0B8CF" opacity="1.000000" stroke="none" 
	d="
M199.029282,342.121216 
	C190.471466,348.122253 181.271942,346.150818 172.211990,344.002136 
	C153.099289,339.469299 136.811218,321.321503 134.396271,301.378845 
	C136.577957,301.298615 138.344894,301.618256 140.111832,301.937927 
	C147.268051,312.152313 155.006729,321.828033 166.370071,327.688141 
	C172.247589,330.719147 178.495087,332.285187 185.604187,330.447815 
	C190.398453,334.606049 194.713867,338.363647 199.029282,342.121216 
z"/>
<path fill="#8E98B2" opacity="1.000000" stroke="none" 
	d="
M315.975647,325.607300 
	C313.825287,329.783539 311.531982,333.643036 309.109619,337.844543 
	C306.236694,334.568634 302.335114,331.335602 300.979095,327.256348 
	C297.704803,317.406097 294.220490,307.280823 293.341309,297.049835 
	C291.412415,274.602936 291.033478,252.022354 290.065247,229.494476 
	C289.994812,227.856003 290.275909,226.202454 290.688599,224.256897 
	C291.337708,225.445404 291.838501,226.914993 292.022797,228.423233 
	C293.703064,242.175644 294.749054,256.036316 297.138153,269.662384 
	C299.366791,282.373230 302.450043,295.008270 306.253632,307.338409 
	C308.216644,313.701874 312.563141,319.330109 315.975647,325.607300 
z"/>
<path fill="#9EA9C9" opacity="1.000000" stroke="none" 
	d="
M277.014648,165.502411 
	C276.996613,167.020279 276.966553,168.101135 276.956207,169.962921 
	C276.727753,174.210266 274.723328,176.095444 271.502167,177.011520 
	C261.335510,179.902802 251.186630,179.898438 241.062424,176.870071 
	C237.692886,175.862183 235.523605,173.847565 235.973816,169.964935 
	C235.981781,168.893478 235.989746,167.822006 235.985352,166.348877 
	C235.976913,163.615036 235.980820,161.282898 235.934875,158.517639 
	C249.365906,162.830872 262.850189,163.270401 276.726593,158.100494 
	C277.077087,160.411530 277.039856,162.738464 277.014648,165.502411 
z"/>
<path fill="#8E98B2" opacity="1.000000" stroke="none" 
	d="
M199.362885,342.037109 
	C194.713867,338.363647 190.398453,334.606049 186.023438,330.517761 
	C199.671631,324.991821 206.834946,313.873169 210.848053,300.816589 
	C214.720856,288.216400 217.171585,275.179138 220.600250,262.114746 
	C220.360077,279.810272 220.630493,297.835571 215.924164,315.326294 
	C213.135208,325.691254 209.249237,335.607025 199.362885,342.037109 
z"/>
<path fill="#8C96AF" opacity="1.000000" stroke="none" 
	d="
M394.075195,221.011673 
	C393.371704,223.031036 392.877380,225.154419 391.932861,227.053909 
	C380.590149,249.864471 369.175507,272.639252 357.798401,295.432739 
	C356.835022,297.362823 356.006531,299.360229 355.042755,301.683136 
	C350.900696,297.193146 350.457031,292.605621 353.598724,286.551819 
	C365.836182,262.971405 377.445129,239.064804 389.883209,215.318817 
	C391.677460,217.242630 392.876343,219.127151 394.075195,221.011673 
z"/>
<path fill="#8C96AF" opacity="1.000000" stroke="none" 
	d="
M159.334320,301.850220 
	C158.126617,299.902252 157.336777,297.709412 156.303711,295.637909 
	C144.938339,272.847595 133.524612,250.081360 122.162598,227.289368 
	C121.281830,225.522537 120.691833,223.610748 120.218124,221.189270 
	C121.671432,218.732742 122.873306,216.853287 124.075180,214.973831 
	C133.367874,233.236130 142.668045,251.494629 151.948456,269.763153 
	C154.606445,274.995361 156.865799,280.466187 159.924423,285.449188 
	C163.406418,291.121857 163.496384,296.321747 159.334320,301.850220 
z"/>
<path fill="#C9CEE2" opacity="1.000000" stroke="none" 
	d="
M233.002960,61.067303 
	C223.268234,66.666336 214.936630,73.760124 209.764969,83.923691 
	C207.486145,88.402122 205.822189,93.193428 203.539566,97.935852 
	C202.520584,84.313538 206.251755,71.949112 215.750992,61.968399 
	C220.657623,56.813068 226.733047,52.770145 232.633881,48.646137 
	C232.992554,53.067543 232.997757,57.067425 233.002960,61.067303 
z"/>
<path fill="#C9CEE2" opacity="1.000000" stroke="none" 
	d="
M273.846497,58.108616 
	C267.110413,57.406017 260.382507,56.599670 253.633011,56.066532 
	C251.706741,55.914379 249.717834,56.554996 247.360596,56.408768 
	C246.957764,51.953564 246.952011,47.921673 246.946259,43.889782 
	C255.902649,42.059639 264.696289,42.455090 273.629578,46.440254 
	C273.939514,50.746529 273.893005,54.427574 273.846497,58.108616 
z"/>
<path fill="#C9CEE2" opacity="1.000000" stroke="none" 
	d="
M309.891968,99.577072 
	C309.190033,99.016602 308.292572,98.078278 308.009430,96.981369 
	C304.824219,84.642197 298.628052,74.272461 288.186646,65.765472 
	C287.996490,61.073784 288.002869,57.109097 288.009216,53.144405 
	C303.153809,64.734398 310.413452,80.092285 309.891968,99.577072 
z"/>
<path fill="#B2B9D0" opacity="1.000000" stroke="none" 
	d="
M246.536911,43.930943 
	C246.952011,47.921673 246.957764,51.953564 246.940796,56.437595 
	C242.526505,58.238712 238.134903,59.587688 233.373138,61.001984 
	C232.997757,57.067425 232.992554,53.067543 232.983597,48.614582 
	C237.362396,46.765034 241.744980,45.368568 246.536911,43.930943 
z"/>
<path fill="#B2B9D0" opacity="1.000000" stroke="none" 
	d="
M287.684540,52.998497 
	C288.002869,57.109097 287.996490,61.073784 287.994446,65.494904 
	C283.443329,63.503185 278.887848,61.055031 274.089447,58.357746 
	C273.893005,54.427574 273.939514,50.746529 273.982849,46.614674 
	C278.439728,48.393436 282.899811,50.623013 287.684540,52.998497 
z"/>
<path fill="#A4ABBF" opacity="1.000000" stroke="none" 
	d="
M256.009399,206.008331 
	C267.064026,206.009613 278.118683,206.010910 289.649414,206.038635 
	C290.095184,207.100693 290.064789,208.136292 289.852905,209.679504 
	C289.447998,210.439102 289.224609,210.691101 289.001251,210.943115 
	C278.333771,210.943176 267.666260,210.943253 256.538208,210.934570 
	C256.077667,210.925812 256.094788,210.875031 256.068848,210.452728 
	C256.031769,208.689713 256.020569,207.349030 256.009399,206.008331 
z"/>
<path fill="#BAC0CB" opacity="1.000000" stroke="none" 
	d="
M255.539825,206.001801 
	C256.020569,207.349030 256.031769,208.689713 256.068542,210.425919 
	C245.755539,210.878876 235.416931,210.936325 224.620453,211.015106 
	C224.100647,209.652115 224.038727,208.267807 223.925598,206.469894 
	C234.273010,206.035950 244.671646,206.015610 255.539825,206.001801 
z"/>
<path fill="#9EA9C9" opacity="1.000000" stroke="none" 
	d="
M333.907043,205.008316 
	C334.498535,201.246033 335.090027,197.483749 336.289917,193.360428 
	C339.877563,192.995667 342.856842,192.991943 345.836090,192.988220 
	C345.142334,197.234711 344.448608,201.481201 343.124146,205.627197 
	C339.631287,205.353897 336.769165,205.181107 333.907043,205.008316 
z"/>
<path fill="#9EA9C9" opacity="1.000000" stroke="none" 
	d="
M336.038513,181.975510 
	C335.404114,178.256012 334.769745,174.536514 334.543335,170.413025 
	C338.006775,169.993530 341.062256,169.978027 344.117706,169.962524 
	C344.738922,173.686417 345.360138,177.410324 345.465698,181.569153 
	C341.979553,181.994553 339.009033,181.985031 336.038513,181.975510 
z"/>
<path fill="#9EA9C9" opacity="1.000000" stroke="none" 
	d="
M176.952484,192.029327 
	C177.623566,195.752716 178.294662,199.476105 178.525879,203.599579 
	C175.113037,204.004044 172.140060,204.008423 169.167114,204.012787 
	C168.207397,200.269684 167.247696,196.526596 166.668457,192.391083 
	C170.350113,192.008881 173.651306,192.019104 176.952484,192.029327 
z"/>
<path fill="#B0B8CF" opacity="1.000000" stroke="none" 
	d="
M176.968292,191.568298 
	C173.651306,192.019104 170.350113,192.008881 166.604156,191.994003 
	C166.112991,188.631348 166.066589,185.273331 166.538239,181.460388 
	C170.344070,180.988220 173.631866,180.971008 176.919678,180.953796 
	C176.941162,184.338287 176.962631,187.722794 176.968292,191.568298 
z"/>
<path fill="#9EA9C9" opacity="1.000000" stroke="none" 
	d="
M394.430237,220.956909 
	C392.876343,219.127151 391.677460,217.242630 390.202698,215.165222 
	C392.361725,209.589813 397.260193,208.171402 401.351959,212.090591 
	C403.349579,214.003952 404.457794,216.845840 405.996765,219.633392 
	C404.579590,219.655289 403.134216,219.311249 401.309723,218.962860 
	C398.882141,219.606384 396.833710,220.254272 394.430237,220.956909 
z"/>
<path fill="#9EA9C9" opacity="1.000000" stroke="none" 
	d="
M176.944305,180.522644 
	C173.631866,180.971008 170.344070,180.988220 166.609344,181.008926 
	C166.775742,177.604324 167.389053,174.196243 168.532349,170.388428 
	C172.068207,169.989517 175.074066,169.990326 178.079926,169.991119 
	C177.709579,173.357910 177.339249,176.724701 176.944305,180.522644 
z"/>
<path fill="#9EA9C9" opacity="1.000000" stroke="none" 
	d="
M124.027374,214.607391 
	C122.873306,216.853287 121.671432,218.732742 120.195335,220.812744 
	C117.884979,220.335434 115.848854,219.657562 113.439735,218.969330 
	C111.617020,219.278992 110.167297,219.599014 108.347534,219.948364 
	C109.099724,217.719437 109.854141,215.158218 111.416023,213.262131 
	C115.431488,208.387405 120.102272,208.877213 124.027374,214.607391 
z"/>
<path fill="#B0B8CF" opacity="1.000000" stroke="none" 
	d="
M336.024933,182.435852 
	C339.009033,181.985031 341.979553,181.994553 345.393127,182.007996 
	C345.884033,185.369080 345.931915,188.726257 345.907959,192.535828 
	C342.856842,192.991943 339.877563,192.995667 336.448547,192.999390 
	C336.002960,189.631653 336.007141,186.263916 336.024933,182.435852 
z"/>
<path fill="#B0B8CF" opacity="1.000000" stroke="none" 
	d="
M178.321899,169.754639 
	C175.074066,169.990326 172.068207,169.989517 168.618546,169.986542 
	C170.202515,161.070282 170.387924,160.942093 181.582062,161.112885 
	C180.872940,163.974304 179.718399,166.746231 178.321899,169.754639 
z"/>
<path fill="#B0B8CF" opacity="1.000000" stroke="none" 
	d="
M344.065308,169.580429 
	C341.062256,169.978027 338.006775,169.993530 334.499268,170.018829 
	C332.725861,167.310654 331.404480,164.592682 330.027344,161.537292 
	C340.601196,160.508911 341.749146,161.162827 344.065308,169.580429 
z"/>
<path fill="#B0B8CF" opacity="1.000000" stroke="none" 
	d="
M169.098297,204.378235 
	C172.140060,204.008423 175.113037,204.004044 178.533539,203.998444 
	C180.537674,206.087357 182.094269,208.177505 183.825378,210.543304 
	C181.683823,210.879593 179.353302,210.797623 177.054688,211.030502 
	C172.290512,211.513199 170.439529,208.449966 169.098297,204.378235 
z"/>
<path fill="#B1B9CF" opacity="1.000000" stroke="none" 
	d="
M333.662750,205.210220 
	C336.769165,205.181107 339.631287,205.353897 342.779663,205.821838 
	C341.135437,213.099777 335.392212,210.511307 330.420593,210.894409 
	C331.123199,209.011917 332.270844,207.212021 333.662750,205.210220 
z"/>
<path fill="#8E98B2" opacity="1.000000" stroke="none" 
	d="
M91.985641,297.438385 
	C95.726143,295.342163 99.469917,293.618774 103.607147,291.882935 
	C104.011124,292.682465 104.021652,293.494476 104.076965,294.709869 
	C104.121765,295.113251 104.033974,295.537750 103.991318,295.750061 
	C100.257355,297.278076 96.566063,298.593811 92.518738,299.971313 
	C92.104774,299.292511 92.046844,298.551849 91.985641,297.438385 
z"/>
<path fill="#8C96AF" opacity="1.000000" stroke="none" 
	d="
M408.990448,290.914551 
	C412.818329,292.507080 416.646179,294.099640 420.780518,295.877258 
	C421.040619,296.808716 420.994293,297.555023 420.865723,298.666382 
	C417.073395,297.784576 413.363312,296.537781 409.316345,294.737122 
	C408.983154,293.093689 408.986816,292.004120 408.990448,290.914551 
z"/>
<path fill="#8E98B2" opacity="1.000000" stroke="none" 
	d="
M139.982788,301.642639 
	C138.344894,301.618256 136.577957,301.298615 134.424225,300.974640 
	C133.728760,300.517822 133.420105,300.065369 132.987366,299.368530 
	C133.058640,296.777618 133.598068,295.069031 136.436401,296.927124 
	C137.376251,297.542389 138.473282,297.917603 139.753448,298.632812 
	C139.956879,299.691193 139.905319,300.519287 139.982788,301.642639 
z"/>
<path fill="#8E98B2" opacity="1.000000" stroke="none" 
	d="
M379.116699,300.749207 
	C377.238098,301.328156 375.489655,301.672424 373.352905,301.995270 
	C373.298645,301.219818 373.632751,300.465820 373.924835,299.394073 
	C375.691162,298.074341 377.499573,297.072327 379.655701,296.430420 
	C380.061493,297.593872 380.119537,298.397247 380.177582,299.200592 
	C379.867340,299.638550 379.557129,300.076538 379.116699,300.749207 
z"/>
<path fill="#BAC0CB" opacity="1.000000" stroke="none" 
	d="
M289.147278,211.177704 
	C289.224609,210.691101 289.447998,210.439102 289.896545,210.066101 
	C290.401001,210.434250 290.680298,210.923401 290.872009,211.715088 
	C290.287384,211.815842 289.790344,211.614075 289.147278,211.177704 
z"/>
<path fill="#8E98B2" opacity="1.000000" stroke="none" 
	d="
M372.717346,302.025543 
	C372.952911,302.291229 372.810547,302.556549 372.356201,302.886139 
	C372.261627,302.705841 372.360046,302.397461 372.717346,302.025543 
z"/>
<path fill="#C9CEE2" opacity="1.000000" stroke="none" 
	d="
M309.887207,102.756477 
	C309.717499,102.739044 309.624023,102.467270 309.666199,102.095886 
	C309.855682,102.164886 309.909546,102.333504 309.887207,102.756477 
z"/>
<path fill="#C9CEE2" opacity="1.000000" stroke="none" 
	d="
M203.119705,101.240250 
	C203.332947,101.157936 203.486465,101.317131 203.584885,101.505157 
	C203.617386,101.567291 203.507736,101.703819 203.325836,101.904297 
	C203.138565,101.832504 203.088547,101.662750 203.119705,101.240250 
z"/>
<path fill="#FBFCFD" opacity="1.000000" stroke="none" 
	d="
M309.542908,387.967773 
	C312.295654,390.174377 314.711517,392.344727 317.127350,394.515076 
	C316.808807,395.010498 316.490265,395.505920 316.171722,396.001312 
	C311.691681,393.999969 307.211639,391.998627 302.211853,389.652130 
	C299.032074,387.633057 296.372040,385.959106 292.393494,383.455383 
	C293.255554,387.819733 293.786713,390.508850 294.317871,393.197937 
	C294.497498,396.101654 294.677155,399.005371 294.948669,403.394592 
	C293.441925,399.808563 292.501923,397.571411 291.284515,395.110107 
	C290.479126,391.510864 289.951172,388.135712 289.312286,384.051483 
	C283.631714,391.426697 278.606537,397.959686 273.547852,404.466644 
	C273.427124,404.621948 272.931946,404.486176 271.237640,404.486176 
	C275.516693,396.518646 279.510468,389.082245 283.767426,381.155792 
	C277.480316,382.195984 271.740448,383.145599 266.000580,384.095245 
	C265.886902,383.630951 265.773193,383.166656 265.659485,382.702362 
	C271.195923,381.024597 276.732361,379.346863 282.566711,377.578827 
	C275.393311,372.130066 268.554932,366.935791 261.716553,361.741486 
	C262.127960,361.123383 262.539337,360.505280 262.950745,359.887207 
	C270.407806,363.839539 277.864899,367.791870 285.987030,372.096710 
	C285.150482,366.009674 284.417206,360.674103 283.683929,355.338531 
	C284.072052,355.240234 284.460144,355.141937 284.848267,355.043610 
	C286.446991,360.211456 288.045746,365.379272 289.947449,371.526459 
	C295.412781,364.220947 300.427307,357.518066 305.441803,350.815186 
	C306.058044,351.204224 306.674316,351.593262 307.290588,351.982330 
	C303.295868,359.419403 299.301147,366.856506 294.964569,374.930054 
	C301.394470,373.910889 307.180756,372.993744 312.967041,372.076599 
	C313.084625,372.510895 313.202209,372.945221 313.319794,373.379517 
	C307.797974,375.037445 302.276154,376.695374 295.740906,378.657593 
	C300.625549,382.021851 304.915802,384.976685 309.542908,387.967773 
z"/>
<path fill="#A4ABBF" opacity="1.000000" stroke="none" 
	d="
M380.555145,299.152313 
	C380.119537,298.397247 380.061493,297.593872 380.002777,296.389771 
	C386.753784,293.318909 393.505524,290.648773 400.664368,287.953705 
	C403.558289,288.752960 406.045044,289.577148 408.761139,290.657959 
	C408.986816,292.004120 408.983154,293.093689 408.987915,294.590393 
	C408.996338,294.997559 408.524414,294.998688 408.289032,294.998474 
	C404.211548,292.142273 400.349457,291.217651 395.658386,293.480774 
	C390.943024,295.755676 385.856567,297.261292 380.555145,299.152313 
z"/>
<path fill="#C9CEE2" opacity="1.000000" stroke="none" 
	d="
M294.666321,393.140228 
	C293.786713,390.508850 293.255554,387.819733 292.393494,383.455383 
	C296.372040,385.959106 299.032074,387.633057 301.849609,389.598450 
	C299.676361,390.954102 297.345551,392.018311 294.666321,393.140228 
z"/>
<path fill="#000000" opacity="1.000000" stroke="none" 
	d="
M228.818588,102.971138 
	C231.671494,90.023300 241.629562,81.822853 255.609955,80.154556 
	C266.518372,78.852837 279.250854,88.482742 283.011810,100.057274 
	C283.255707,100.807884 283.683563,101.498726 284.008179,102.962646 
	C282.686127,106.291908 281.448395,108.912209 280.064819,111.453117 
	C275.837830,119.215935 262.666321,126.421539 254.590820,124.927475 
	C241.893494,122.578308 232.577850,115.958817 228.818588,102.971138 
z"/>
<path fill="#B2B9D0" opacity="1.000000" stroke="none" 
	d="
M228.573822,103.303452 
	C232.577850,115.958817 241.893494,122.578308 254.590820,124.927475 
	C262.666321,126.421539 275.837830,119.215935 280.064819,111.453117 
	C281.448395,108.912209 282.686127,106.291908 284.079224,103.342026 
	C288.121796,116.201897 279.723511,130.832886 266.832092,135.969116 
	C248.515472,143.266891 223.920807,128.966721 228.573822,103.303452 
z"/>
<path fill="#BAC0CB" opacity="1.000000" stroke="none" 
	d="
M187.932419,166.624390 
	C186.992584,167.866684 185.291016,168.709747 185.183884,169.721619 
	C184.574448,175.478394 184.345581,181.275482 184.022095,187.523285 
	C184.056885,187.987701 183.924118,188.018326 183.463959,188.021729 
	C181.654099,188.016861 180.304413,188.008591 178.954712,188.000336 
	C179.757797,181.130508 180.166214,174.176819 181.597351,167.440414 
	C182.043900,165.338501 185.067413,162.703995 187.932419,166.624390 
z"/>
<path fill="#BAC0CB" opacity="1.000000" stroke="none" 
	d="
M328.987488,187.997375 
	C328.153381,180.807831 327.384491,173.632690 326.314117,166.236145 
	C328.810638,164.429276 330.894135,165.050201 331.696808,168.925903 
	C332.931458,174.887192 333.269165,181.034225 333.575745,187.554504 
	C331.836304,188.020706 330.508575,188.034836 329.180847,188.048981 
	C329.180847,188.048996 329.052673,188.011749 328.987488,187.997375 
z"/>
<path fill="#A4ABBF" opacity="1.000000" stroke="none" 
	d="
M178.957001,188.455200 
	C180.304413,188.008591 181.654099,188.016861 183.399078,188.042526 
	C184.588303,193.420502 185.443314,198.773300 186.124695,204.148132 
	C186.261398,205.226440 185.737488,206.388489 185.518158,207.511932 
	C184.463318,206.887527 182.677414,206.443283 182.471985,205.609573 
	C181.111771,200.089706 180.090744,194.486282 178.957001,188.455200 
z"/>
<path fill="#A4ABBF" opacity="1.000000" stroke="none" 
	d="
M329.125732,188.493469 
	C330.508575,188.034836 331.836304,188.020706 333.565277,188.018295 
	C333.059814,193.512512 332.432251,199.062958 331.121704,204.447144 
	C330.519440,206.921463 328.654572,209.284470 326.431946,207.561554 
	C327.395630,200.759872 328.233154,194.848907 329.125732,188.493469 
z"/>
<path fill="#BAC0CB" opacity="1.000000" stroke="none" 
	d="
M235.614044,170.024902 
	C235.523605,173.847565 237.692886,175.862183 241.062424,176.870071 
	C251.186630,179.898438 261.335510,179.902802 271.502167,177.011520 
	C274.723328,176.095444 276.727753,174.210266 276.989685,170.367584 
	C278.619781,171.449707 280.236145,172.908127 281.852478,174.366547 
	C280.463104,175.622574 279.275787,177.527252 277.652649,178.032883 
	C263.545532,182.427505 249.339828,182.524689 235.242310,177.994629 
	C233.618546,177.472855 232.445908,175.547089 231.064117,174.272278 
	C232.460831,172.876480 233.857559,171.480667 235.614044,170.024902 
z"/>
</svg>