<svg version="1.1" id="Layer_1" xmlns="http://www.w3.org/2000/svg" xmlns:xlink="http://www.w3.org/1999/xlink" x="0px" y="0px"
	 width="100%" viewBox="0 0 512 512" enable-background="new 0 0 512 512" xml:space="preserve">
<path fill="#D16DAB" opacity="1.000000" stroke="none" 
	d="
M312.839264,312.971222 
	C318.615814,322.534454 321.565674,332.837433 320.448547,344.527771 
	C277.668152,344.983917 235.416153,344.978699 193.164154,344.973480 
	C192.046936,333.623596 195.086838,323.294739 201.467834,313.314240 
	C238.996368,312.984436 275.917816,312.977844 312.839264,312.971222 
z"/>
<path fill="#E6E6E6" opacity="1.000000" stroke="none" 
	d="
M209.157959,168.972275 
	C206.847916,150.207901 221.981781,130.248718 237.744812,124.706749 
	C238.627792,124.396309 239.390045,123.742424 240.974854,123.131958 
	C243.210938,122.822899 244.679214,122.477753 246.150681,122.463448 
	C253.342743,122.393524 260.535919,122.373978 267.728088,122.425583 
	C269.528625,122.438507 271.326752,122.780647 273.126007,122.971489 
	C279.141968,126.871819 285.736115,130.118073 291.048492,134.814285 
	C300.853882,143.482391 305.524323,154.813629 304.456604,168.532349 
	C272.337067,168.984695 240.747513,168.978485 209.157959,168.972275 
z"/>
<path fill="#C14D90" opacity="1.000000" stroke="none" 
	d="
M209.092346,169.423859 
	C240.747513,168.978485 272.337067,168.984695 304.384399,168.981598 
	C306.040222,183.594040 299.973175,195.134171 289.000793,205.106033 
	C279.279449,212.944504 268.789551,216.831726 256.525177,217.090942 
	C244.292130,216.840668 234.171738,212.257874 225.022491,205.139313 
	C214.138657,195.903046 208.590302,184.246597 209.092346,169.423859 
z"/>
<path fill="#CCCCCC" opacity="1.000000" stroke="none" 
	d="
M214.917999,395.981262 
	C209.778168,388.986176 204.578247,382.033813 199.546402,374.961884 
	C198.468582,373.447052 197.999756,371.498932 197.663544,369.379639 
	C237.663956,369.013458 277.251221,369.018005 316.838470,369.022583 
	C313.520996,379.515869 307.156952,387.961548 298.770996,395.686005 
	C289.939270,400.390106 281.503906,404.722900 273.036316,408.666321 
	C271.045929,396.925049 264.189178,393.186157 256.331604,393.156799 
	C247.995438,393.125671 241.822510,399.997833 240.563995,408.988953 
	C234.673660,406.407898 229.083221,404.027649 223.650192,401.330322 
	C220.604858,399.818390 217.820145,397.781555 214.917999,395.981262 
z"/>
<path fill="#C14D90" opacity="1.000000" stroke="none" 
	d="
M317.010010,368.674957 
	C277.251221,369.018005 237.663956,369.013458 197.618835,369.015808 
	C193.919617,361.644043 192.633224,353.916107 193.096191,345.430664 
	C235.416153,344.978699 277.668152,344.983917 320.377991,344.981262 
	C321.603729,353.068787 320.168579,360.819458 317.010010,368.674957 
z"/>
<path fill="#E6E6E6" opacity="1.000000" stroke="none" 
	d="
M312.809692,312.619965 
	C275.917816,312.977844 238.996368,312.984436 201.616821,312.981323 
	C206.305115,302.577942 214.514114,295.160492 224.936249,289.064819 
	C235.597763,284.244507 245.954926,281.115143 257.496460,280.952545 
	C260.047485,281.181702 262.246460,281.084595 264.261139,281.647308 
	C272.573029,283.968842 280.829041,286.490448 289.105591,288.938538 
	C299.139008,294.541748 306.978699,302.371063 312.809692,312.619965 
z"/>
<path fill="#B3B3B3" opacity="1.000000" stroke="none" 
	d="
M289.059784,288.475769 
	C280.829041,286.490448 272.573029,283.968842 264.261139,281.647308 
	C262.246460,281.084595 260.047485,281.181702 257.475769,280.491394 
	C256.998291,259.052826 256.978302,238.098251 256.958374,217.143677 
	C268.789551,216.831726 279.279449,212.944504 288.688812,205.244827 
	C289.002747,232.760574 289.008362,260.386810 289.059784,288.475769 
z"/>
<path fill="#CCCCCC" opacity="1.000000" stroke="none" 
	d="
M256.525146,217.090942 
	C256.978302,238.098251 256.998291,259.052826 257.038971,280.468567 
	C245.954926,281.115143 235.597763,284.244507 225.259827,288.929871 
	C224.930405,261.315338 224.972046,233.681778 225.018097,205.593765 
	C234.171738,212.257874 244.292130,216.840668 256.525146,217.090942 
z"/>
<path fill="#CCCCCC" opacity="1.000000" stroke="none" 
	d="
M273.069702,122.507675 
	C271.326752,122.780647 269.528625,122.438507 267.728088,122.425583 
	C260.535919,122.373978 253.342743,122.393524 246.150681,122.463448 
	C244.679214,122.477753 243.210938,122.822899 241.307617,122.993484 
	C240.916016,108.527840 241.013184,94.084091 240.973602,79.640717 
	C240.957123,73.627975 243.759918,69.485489 249.391693,66.316521 
	C254.929886,66.001236 259.900116,65.991165 264.870331,65.981094 
	C270.517303,69.849167 273.374084,74.807167 273.129578,82.049019 
	C272.679962,95.366760 273.008942,108.710793 273.069702,122.507675 
z"/>
<path fill="#B3B3B3" opacity="1.000000" stroke="none" 
	d="
M273.068542,409.055725 
	C281.503906,404.722900 289.939270,400.390106 298.728210,396.019287 
	C305.043732,404.915344 311.018494,413.840790 316.961060,422.787659 
	C319.282562,426.282806 321.531677,429.826019 323.527771,433.843506 
	C322.126038,435.050537 321.012024,435.764191 319.894135,436.471771 
	C312.232056,441.321503 304.569183,446.169983 296.584656,450.872498 
	C288.533081,437.526215 280.803497,424.326294 273.054016,410.781250 
	C273.045624,409.975952 273.057068,409.515839 273.068542,409.055725 
z"/>
<path fill="#B3B3B3" opacity="1.000000" stroke="none" 
	d="
M214.593994,396.102356 
	C217.820145,397.781555 220.604858,399.818390 223.650192,401.330322 
	C229.083221,404.027649 234.673660,406.407898 240.584564,409.333191 
	C240.955933,410.205963 240.940994,410.666321 240.591125,411.215271 
	C232.498444,424.534760 224.740692,437.765656 216.668945,450.861145 
	C207.780258,444.903259 199.205582,439.080750 190.630890,433.258270 
	C198.510605,420.913361 206.390289,408.568420 214.593994,396.102356 
z"/>
<path fill="#E6E6E6" opacity="1.000000" stroke="none" 
	d="
M264.929504,65.516937 
	C259.900116,65.991165 254.929886,66.001236 249.544800,65.996223 
	C249.086609,49.363750 249.000259,32.746292 249.025284,16.129005 
	C249.033127,10.913377 251.450592,8.948627 257.273376,8.999925 
	C262.626526,9.047085 264.962128,11.113165 264.978760,16.190365 
	C265.032074,32.477676 264.992493,48.765289 264.929504,65.516937 
z"/>
<path fill="#CCCCCC" opacity="1.000000" stroke="none" 
	d="
M190.369553,433.505920 
	C199.205582,439.080750 207.780258,444.903259 216.573563,451.205933 
	C212.896545,458.449951 209.000916,465.213776 205.105286,471.977631 
	C197.748688,467.532349 190.389755,463.090942 183.037155,458.639038 
	C181.191406,457.521484 179.366135,456.370117 177.208542,455.096985 
	C181.293152,447.890961 185.700684,440.822266 190.369553,433.505920 
z"/>
<path fill="#CCCCCC" opacity="1.000000" stroke="none" 
	d="
M296.906586,451.018860 
	C304.569183,446.169983 312.232056,441.321503 319.894135,436.471771 
	C321.012024,435.764191 322.126038,435.050537 323.540283,434.193481 
	C328.229889,440.778595 332.620972,447.509979 337.064392,454.601990 
	C327.947418,460.611267 318.778076,466.259888 309.197144,471.595032 
	C304.825897,464.527313 300.866241,457.773071 296.906586,451.018860 
z"/>
<path fill="#E6E6E6" opacity="1.000000" stroke="none" 
	d="
M240.926056,411.126648 
	C240.940994,410.666321 240.955933,410.205963 240.950287,409.401428 
	C241.822510,399.997833 247.995438,393.125671 256.331604,393.156799 
	C264.189178,393.186157 271.045929,396.925049 273.036316,408.666321 
	C273.057068,409.515839 273.045624,409.975952 273.020172,411.240723 
	C273.016571,439.341919 273.026947,466.638428 273.037292,493.934937 
	C271.546448,494.951752 270.088165,496.786407 268.559265,496.847260 
	C260.937256,497.150787 253.292847,497.114594 245.665863,496.883270 
	C244.127228,496.836578 242.629868,495.428558 241.053818,493.806335 
	C240.971466,465.685181 240.948761,438.405914 240.926056,411.126648 
z"/>
<path fill="#000000" opacity="1.000000" stroke="none" 
	d="
M240.591125,411.215271 
	C240.948761,438.405914 240.971466,465.685181 240.962341,493.424805 
	C233.928162,489.728027 226.883591,485.639893 219.937927,481.390106 
	C215.137680,478.452911 210.474091,475.292389 205.427353,472.104675 
	C209.000916,465.213776 212.896545,458.449951 216.887558,451.341309 
	C224.740692,437.765656 232.498444,424.534760 240.591125,411.215271 
z"/>
<path fill="#000000" opacity="1.000000" stroke="none" 
	d="
M273.397980,494.004700 
	C273.026947,466.638428 273.016571,439.341919 273.040039,411.585876 
	C280.803497,424.326294 288.533081,437.526215 296.584656,450.872498 
	C300.866241,457.773071 304.825897,464.527313 308.841125,471.629028 
	C297.184021,479.342499 285.471344,486.708496 273.397980,494.004700 
z"/>
</svg>