<svg version="1.1" id="Layer_1" xmlns="http://www.w3.org/2000/svg" xmlns:xlink="http://www.w3.org/1999/xlink" x="0px" y="0px"
	 width="100%" viewBox="0 0 512 512" enable-background="new 0 0 512 512" xml:space="preserve">
<path fill="#000000" opacity="1.000000" stroke="none" 
	d="
M1.000000,186.000000 
	C1.000000,125.333336 1.037114,65.166580 0.903093,5.000216 
	C0.895464,1.575340 1.576367,0.903139 5.000061,0.905342 
	C172.999985,1.013444 341.000000,1.013444 508.999939,0.905342 
	C512.423645,0.903139 513.096802,1.576367 513.094604,5.000061 
	C512.986511,172.999985 512.986511,341.000000 513.094604,508.999939 
	C513.096802,512.423645 512.423645,513.096802 508.999939,513.094604 
	C341.000000,512.986511 172.999985,512.986511 5.000061,513.094604 
	C1.576367,513.096802 0.900897,512.423950 0.904602,508.999908 
	C1.020945,401.500031 1.000000,294.000000 1.000000,186.000000 
z"/>
<path fill="#FDFCFD" opacity="1.000000" stroke="none" 
	d="
M95.971710,346.001648 
	C93.157936,337.432465 91.620216,329.038300 90.978470,320.451141 
	C90.392578,312.611328 89.595413,304.786926 89.049507,296.944733 
	C88.940437,295.377930 88.163918,294.481323 87.129929,293.705597 
	C78.330101,287.103699 69.259384,280.838531 60.729527,273.906799 
	C47.567677,263.210938 38.990383,249.619949 35.929817,232.659180 
	C34.132736,222.700256 33.865253,212.716171 33.991055,202.668213 
	C34.224472,184.024231 42.531208,176.103531 57.188545,169.988129 
	C62.413231,167.808243 67.213547,164.952240 71.460503,161.085800 
	C82.624626,150.921921 91.595329,138.724258 102.318542,128.155914 
	C124.322021,106.470230 149.973358,91.451332 180.100800,83.796371 
	C193.624878,80.360107 207.283890,78.199905 220.983292,75.910416 
	C232.100021,74.052567 242.668381,70.151054 252.947998,65.538010 
	C269.104401,58.287716 284.588837,49.644623 300.638062,42.209026 
	C318.506470,33.930595 336.958557,27.363108 357.266998,28.945749 
	C363.444244,29.427145 369.444702,30.494631 375.058105,33.042179 
	C384.641663,37.391541 388.667694,46.773178 385.574402,56.951420 
	C382.331787,67.620720 377.062866,77.399338 369.145172,85.035873 
	C360.905853,92.982613 360.416962,102.008171 363.384216,111.536644 
	C367.888611,126.001175 376.149384,138.462952 385.607178,150.293335 
	C393.927399,160.700745 404.675049,167.782623 415.363434,175.255188 
	C422.569611,180.293243 426.090363,188.411057 429.031830,196.597778 
	C432.062988,205.034195 434.174408,213.797516 438.328094,221.840897 
	C441.375671,227.742371 445.700165,232.394196 451.171661,235.989212 
	C460.905518,242.384689 469.462830,249.723541 475.127777,260.294037 
	C483.091614,275.154175 481.568573,289.027466 471.421600,301.862335 
	C466.836060,307.662598 465.354645,314.251862 464.111969,320.976379 
	C462.546478,329.447540 462.347595,338.165009 463.185059,346.688904 
	C463.883881,353.802094 464.350006,360.903290 463.861603,367.952454 
	C463.387085,374.801270 463.175476,381.818634 459.481110,388.134918 
	C454.887634,395.988525 448.249817,401.097290 439.260956,400.775269 
	C430.596954,400.464844 424.108612,395.652405 419.805908,387.583771 
	C414.886444,378.358582 412.991608,368.579498 411.928650,358.390411 
	C411.060059,350.064514 409.993805,341.772308 409.970093,333.381134 
	C409.961487,330.339752 408.877686,329.382477 405.599823,330.721130 
	C395.075500,335.019165 384.397766,338.940552 373.796661,343.052338 
	C371.415314,343.975983 369.788300,345.156281 369.898438,348.400055 
	C370.203674,357.388733 370.000031,366.394562 370.006348,375.393616 
	C370.008820,378.913727 371.048981,381.521240 374.174042,383.940460 
	C380.989288,389.216400 385.364075,396.084351 385.050781,405.288849 
	C384.805298,412.500488 380.330505,418.568970 373.225250,419.923370 
	C369.732056,420.589233 367.863159,421.921021 366.876038,425.586945 
	C365.032776,432.432495 359.636627,435.692596 352.475220,436.066620 
	C339.094696,436.765442 327.848694,430.718597 316.066803,425.747314 
	C301.098877,419.431732 296.577423,407.467163 296.014435,392.785767 
	C295.838409,388.195465 296.150879,383.607300 295.092743,379.039764 
	C294.695801,377.326385 294.169769,376.365753 292.668549,377.184143 
	C280.121277,384.024139 266.124146,387.948151 254.301834,396.220703 
	C249.906433,399.296356 247.997696,403.696228 248.001648,409.000214 
	C248.010086,420.332367 248.574936,431.702423 247.825165,442.984741 
	C247.216232,452.147491 247.374191,461.436584 244.120514,470.419800 
	C238.450012,486.075653 219.422485,490.585266 207.384293,478.995026 
	C200.141953,472.022125 197.886581,463.022980 196.062088,453.846100 
	C193.144257,439.169830 192.913422,424.109741 190.034698,409.404236 
	C188.466293,401.392273 184.569351,395.048950 178.173492,389.979462 
	C169.904297,383.425018 160.606644,378.257751 153.064316,370.696686 
	C147.930740,365.550385 143.775482,359.858856 140.486420,353.058777 
	C137.729691,359.098907 134.937103,364.971039 128.102951,367.007019 
	C115.700333,370.701935 102.459587,365.397766 97.005844,349.618134 
	C96.640373,348.560699 96.330215,347.484131 95.971710,346.001648 
z"/>
<path fill="#6C1D2E" opacity="1.000000" stroke="none" 
	d="
M138.360443,322.667389 
	C136.496048,319.920227 134.946136,317.383545 131.976135,314.963379 
	C131.316757,324.385040 130.745407,333.243256 130.047821,342.091492 
	C129.839539,344.733490 129.569550,347.435272 128.812302,349.954742 
	C127.567924,354.094971 124.731522,356.759888 120.268501,357.304077 
	C115.885353,357.838562 112.962212,355.664825 110.893715,352.050812 
	C106.576439,344.507751 105.214294,336.103577 104.153679,327.688995 
	C102.633797,315.630646 101.360519,303.538361 100.210617,291.438812 
	C99.988281,289.099274 98.883789,287.926208 97.215309,286.699768 
	C84.334831,277.231842 71.653114,267.482941 58.566029,258.311615 
	C52.800377,254.271103 49.433674,249.379013 48.578094,242.486130 
	C46.690582,227.279572 44.625599,212.103500 45.681404,196.697617 
	C46.119270,190.308395 49.177002,186.215958 54.999565,183.799042 
	C60.229408,181.628174 65.361343,179.104126 71.159409,179.094162 
	C73.429382,179.090286 74.341118,177.668228 75.502213,176.287598 
	C89.872292,159.200485 103.950569,141.844177 120.690544,126.928444 
	C144.348892,105.848251 171.374390,92.140503 203.413300,89.959991 
	C234.559509,87.840225 263.097870,77.607468 290.612274,63.490734 
	C306.416565,55.382084 322.304230,47.282291 339.618011,42.623562 
	C346.615540,40.740688 353.688385,40.052887 360.888947,41.032906 
	C365.560913,41.668774 369.906158,42.783024 373.396973,46.471836 
	C378.338654,51.693848 378.766937,54.379326 374.335968,60.345329 
	C366.374786,71.064461 357.576660,81.076027 348.081390,90.452293 
	C346.011993,92.495750 345.583313,94.143036 346.644348,96.947365 
	C356.344574,122.584991 369.845917,146.261368 383.793213,169.720810 
	C385.434692,172.481842 387.996552,173.866135 390.783264,175.070496 
	C396.129120,177.380920 401.296936,180.024216 406.331848,182.974747 
	C416.807983,189.113876 421.362152,198.447830 421.956116,210.261856 
	C422.180817,214.730865 423.411530,219.145325 423.701385,223.615921 
	C424.171692,230.869507 428.146515,235.393784 434.032745,239.055817 
	C441.940155,243.975327 449.863495,248.948502 457.277893,254.561874 
	C467.466339,262.275482 470.714203,274.696381 466.492310,286.786957 
	C464.789703,291.662781 461.909363,295.702057 457.407349,298.299988 
	C455.103333,299.629578 454.326691,301.249756 454.247101,303.887695 
	C453.583649,325.871307 452.786865,347.851044 451.956238,369.829132 
	C451.837128,372.979706 451.530914,376.155243 450.940948,379.248535 
	C450.045776,383.941803 447.840271,387.715027 442.621887,388.680298 
	C437.890381,389.555542 433.216187,387.232178 430.448334,382.605347 
	C427.731934,378.064484 426.908020,372.920410 426.235229,367.828247 
	C424.011200,350.994568 421.181244,334.232422 419.912048,317.283691 
	C419.655273,313.854492 418.635223,313.152771 415.366364,314.462585 
	C397.315643,321.695404 379.211243,328.795715 361.078278,335.820129 
	C358.571350,336.791290 357.472107,337.821442 357.747742,340.805298 
	C359.098022,355.422791 359.183105,370.095428 358.940094,384.762146 
	C358.893585,387.566895 359.510712,389.245728 362.310486,390.454926 
	C366.281464,392.169983 369.972382,394.558258 372.653564,398.104858 
	C376.299133,402.927094 374.036530,408.260193 368.044525,409.082703 
	C361.996643,409.912872 356.909943,407.454346 352.302521,404.011200 
	C349.709991,402.073761 347.744568,401.710236 345.727997,404.699738 
	C348.611816,407.148010 352.124664,408.914886 354.438141,412.043243 
	C356.149170,414.356934 357.668701,416.736053 356.335266,419.837830 
	C354.933441,423.098846 352.344452,424.639648 348.968597,424.987427 
	C340.876373,425.821045 334.544861,421.778015 328.446960,417.312317 
	C326.691162,416.026489 325.191315,415.040100 322.794617,414.851318 
	C314.704315,414.214172 309.632996,408.713715 308.971924,400.545715 
	C307.870331,386.934509 306.769897,373.323242 305.642151,359.379822 
	C302.274475,359.766754 299.366577,361.678253 296.290680,363.005920 
	C277.665588,371.045502 259.307495,379.650848 241.257217,388.922363 
	C238.372330,390.404175 237.137848,391.998718 237.157196,395.348969 
	C237.279373,416.522491 235.516251,437.633301 234.771744,458.780151 
	C234.719177,460.273163 234.456253,461.758362 234.300797,463.248169 
	C233.767975,468.353821 231.558472,472.048615 226.189911,473.317871 
	C220.948257,474.557098 217.053513,472.397339 213.962997,468.502350 
	C208.842041,462.048279 207.998764,454.131897 207.137527,446.384338 
	C205.133194,428.353485 201.415771,410.517822 200.899902,392.323242 
	C200.829849,389.851624 199.247131,388.941498 197.561493,387.826935 
	C187.564606,381.216980 177.701828,374.397369 167.583069,367.980835 
	C159.809952,363.051758 154.503067,356.313110 150.980850,347.957489 
	C147.361542,339.371582 143.458344,330.921661 138.360443,322.667389 
z"/>
<path fill="#A2603F" opacity="1.000000" stroke="none" 
	d="
M95.778114,160.303833 
	C113.953476,139.051498 132.975998,119.445663 158.608704,107.587967 
	C174.633987,100.174660 191.464081,95.780663 208.884140,94.143402 
	C233.141464,91.863503 256.228546,86.064766 278.033386,75.014488 
	C291.833130,68.021042 305.937469,61.625317 319.954407,55.066746 
	C322.338562,53.951180 324.971466,53.367290 327.741547,52.278732 
	C332.351929,50.299911 336.968872,49.785114 341.551788,49.115253 
	C344.018829,48.754662 346.286652,49.250168 347.828674,51.295410 
	C349.599060,53.643612 348.084625,55.790161 346.875671,57.724342 
	C342.679749,64.437386 336.809723,69.660965 331.076355,74.973763 
	C316.320892,88.646805 301.103821,101.814377 286.562531,115.724312 
	C262.278137,138.954391 237.734894,161.921997 210.801041,182.098038 
	C196.993729,192.441055 182.044800,201.023621 164.626556,203.614517 
	C139.201355,207.396408 118.532463,198.210495 102.265625,178.887375 
	C98.019020,173.842880 94.999985,167.731522 95.778114,160.303833 
z"/>
<path fill="#A2603F" opacity="1.000000" stroke="none" 
	d="
M220.723083,370.555664 
	C220.933533,373.921417 220.955307,376.956573 220.952515,380.441895 
	C216.607056,384.569489 211.893265,383.492371 207.267014,381.823364 
	C201.243683,379.650269 196.144104,375.790161 191.015167,372.114410 
	C182.499435,366.011353 174.193802,359.669617 167.000702,351.910431 
	C160.291687,344.673431 156.522720,336.227478 154.636841,326.724304 
	C152.539322,316.154602 148.070786,306.736420 139.979324,299.486053 
	C133.912186,294.049622 127.438950,289.058563 120.991631,284.058563 
	C106.503136,272.822601 90.869827,263.219269 76.046028,252.467041 
	C68.505440,246.997604 61.105415,241.317383 55.305325,233.866608 
	C53.837055,231.980499 52.744617,229.991058 52.199356,227.331146 
	C50.177002,222.134277 51.332497,217.010941 50.932938,211.993225 
	C50.765697,209.893021 51.236835,207.727524 50.211235,205.296204 
	C53.429756,202.831741 56.922482,203.686539 60.326149,204.258743 
	C72.203278,206.255325 82.737617,211.825577 92.919098,217.722488 
	C111.627373,228.557938 129.929321,240.110733 147.355194,252.949295 
	C158.782074,261.368103 165.438583,272.529846 166.511154,287.000702 
	C166.917145,292.478180 167.411346,297.934296 167.272919,303.416718 
	C166.945206,316.396149 172.437912,326.496338 182.268204,334.580994 
	C190.761047,341.565704 200.274796,347.151276 208.824860,354.044342 
	C214.170609,358.354065 219.242035,362.944244 220.723083,370.555664 
z"/>
<path fill="#A2603F" opacity="1.000000" stroke="none" 
	d="
M191.253601,268.298340 
	C191.024094,267.454010 191.017227,266.954193 190.974899,266.457397 
	C190.221497,257.612610 190.227676,257.634857 198.698212,254.918686 
	C202.304092,253.762421 205.873260,252.491653 209.835220,251.225220 
	C217.922638,251.126862 225.148087,248.489273 232.520782,246.783905 
	C278.222351,236.212769 323.702271,224.618546 370.079987,217.210052 
	C378.770782,215.821777 387.454559,214.097916 396.345123,214.552109 
	C398.327087,214.653381 400.354919,214.388687 402.551575,215.627090 
	C404.320709,219.499512 404.638214,223.315125 404.964752,227.549469 
	C403.761963,231.368607 400.695801,232.521408 397.790375,233.700211 
	C388.047577,237.653076 377.980865,240.618195 367.807037,243.232864 
	C338.286774,250.819626 308.480469,257.292786 279.322266,266.292969 
	C266.730255,270.179688 254.527924,275.113556 242.088669,279.397583 
	C233.118484,282.486877 224.131790,285.611969 214.561096,286.399506 
	C199.902710,287.605713 194.282974,283.295471 191.253601,268.298340 
z"/>
<path fill="#81391D" opacity="1.000000" stroke="none" 
	d="
M95.685234,160.138763 
	C98.208534,177.818970 110.414551,187.874954 124.737251,195.753479 
	C144.079544,206.393173 163.989929,205.149963 183.718765,196.592041 
	C199.724426,189.649124 213.280960,178.974335 226.633865,167.953445 
	C249.700638,148.915131 271.267242,128.261642 292.994019,107.747215 
	C308.311249,93.284683 324.449493,79.686432 339.485199,64.905121 
	C341.836273,62.593822 343.955292,59.969181 345.765137,57.215687 
	C346.736572,55.737736 348.767517,53.908508 347.069427,51.893085 
	C345.616119,50.168228 343.495636,49.928532 341.130493,50.377472 
	C337.081329,51.146069 332.952667,51.495686 328.425507,52.020462 
	C337.395508,46.599976 347.705200,45.761806 358.230835,46.060230 
	C359.675964,46.101200 360.965363,46.875816 361.303711,48.219372 
	C361.703766,49.808052 360.494202,51.000099 359.432587,52.063980 
	C351.550323,59.962971 343.663879,67.857872 335.763184,75.738457 
	C315.996002,95.455299 294.847137,113.691757 274.530884,132.822571 
	C260.761536,145.788467 246.623077,158.367508 232.498611,170.949951 
	C211.209427,189.914871 190.017838,208.993378 167.818298,226.915619 
	C165.104828,229.106262 163.477905,228.842972 160.980438,227.033173 
	C137.758636,210.205627 112.584686,196.716125 86.971756,183.990402 
	C78.646164,179.853836 78.639473,179.870178 84.736984,172.744492 
	C88.288300,168.594360 91.835838,164.440964 95.685234,160.138763 
z"/>
<path fill="#F9C035" opacity="1.000000" stroke="none" 
	d="
M226.444092,228.283112 
	C224.353134,212.031799 225.402603,210.614517 240.440979,205.953613 
	C271.316101,196.384323 303.103363,190.783844 334.635803,184.070663 
	C336.256378,183.725632 337.939453,183.629349 339.600159,183.525391 
	C345.658722,183.146149 348.303131,184.985031 349.639923,190.803482 
	C350.270172,193.546631 350.470734,196.388489 350.826843,199.598572 
	C349.958649,206.845428 344.784424,208.727158 339.217194,209.809128 
	C330.885956,211.428284 322.645721,213.412476 314.387634,215.346832 
	C292.525452,220.467697 270.700012,225.738144 248.937576,231.265060 
	C244.178848,232.473618 239.392715,232.613541 234.574356,232.249695 
	C231.561081,232.022141 228.623184,231.338333 226.444092,228.283112 
z"/>
<path fill="#A87E52" opacity="1.000000" stroke="none" 
	d="
M64.314171,192.209915 
	C61.528114,191.530930 59.460819,190.318863 57.102848,188.616547 
	C65.263695,184.607819 73.060600,182.572021 81.289597,186.653656 
	C109.022232,200.409195 136.607788,214.427094 161.700500,232.786819 
	C167.632645,237.127213 172.883270,242.216248 177.993805,247.472824 
	C183.698517,253.340576 185.419220,260.784576 185.886398,268.484680 
	C186.459778,277.935608 186.963593,287.386078 188.034668,296.794403 
	C188.749100,303.070221 191.104462,308.496429 195.576584,313.217529 
	C204.304031,322.430908 213.778519,330.874481 223.666656,338.685028 
	C234.469833,347.218353 236.783707,358.209259 235.739532,370.661743 
	C235.174347,377.401764 234.563980,384.302521 230.048462,389.979065 
	C228.800949,391.547363 227.620941,393.094025 225.144241,393.508209 
	C225.451935,390.447906 225.731277,387.669586 226.046539,384.474091 
	C227.626801,376.815796 227.118866,369.532043 226.449448,362.260406 
	C225.595261,352.981873 219.531891,346.984711 212.835358,341.606537 
	C205.830536,335.980774 198.846741,330.330811 191.856003,324.689941 
	C184.331573,318.618439 180.706253,310.830780 179.735413,301.506927 
	C178.616974,290.765808 177.383087,280.043091 176.017288,269.326874 
	C174.586395,258.100067 168.490082,250.503128 159.874710,244.121735 
	C141.625443,230.604507 121.441177,220.244675 102.067146,208.568909 
	C90.353645,201.509735 77.894615,195.988037 64.314171,192.209915 
z"/>
<path fill="#81391D" opacity="1.000000" stroke="none" 
	d="
M51.959759,227.505829 
	C61.801517,242.513412 76.988831,251.926315 91.696495,261.762329 
	C108.532776,273.021912 124.879379,284.917969 140.303528,298.022644 
	C147.681473,304.291107 153.080643,312.440735 154.665253,321.981659 
	C157.409195,338.502838 165.669373,351.146057 178.672195,361.225555 
	C187.070175,367.735504 195.427216,374.260620 204.785202,379.378845 
	C209.692520,382.062805 214.746902,382.912598 220.520905,380.933441 
	C220.524658,385.199097 223.039871,390.868652 218.397888,393.308014 
	C214.674133,395.264801 211.165558,390.860291 207.968735,388.827728 
	C193.128510,379.392181 178.520081,369.591888 163.835983,359.911102 
	C160.927277,357.993469 159.629730,354.862854 157.992706,351.994049 
	C153.543808,344.197571 151.088547,335.495483 146.538773,327.693298 
	C139.092407,314.923981 128.494400,305.203247 117.203964,296.177582 
	C97.925529,280.766174 77.965721,266.245026 57.868370,251.919296 
	C55.535229,250.256180 54.611145,247.746552 54.045490,245.153564 
	C52.810970,239.494415 51.821438,233.787704 51.959759,227.505829 
z"/>
<path fill="#FDFCFD" opacity="1.000000" stroke="none" 
	d="
M276.706421,159.069382 
	C294.468994,142.446487 312.280853,126.430046 329.776917,108.900314 
	C336.727112,127.114449 345.351807,143.987686 354.763733,160.442764 
	C353.406616,161.403793 352.403046,160.473755 351.393799,160.108765 
	C342.566620,156.916367 333.740601,157.126678 325.031799,160.363754 
	C312.674988,164.956818 299.935181,166.697556 286.831116,165.899002 
	C284.197754,165.738510 281.533417,165.291855 278.995819,164.577698 
	C276.472473,163.867554 274.859711,162.287827 276.706421,159.069382 
z"/>
<path fill="#813A1D" opacity="1.000000" stroke="none" 
	d="
M191.030609,268.421204 
	C193.331116,270.509094 193.787476,273.947601 195.339615,276.873810 
	C198.669342,283.151184 203.554611,286.115570 210.635208,285.579590 
	C221.483795,284.758392 231.856888,281.789734 241.947006,277.970581 
	C267.285187,268.379944 293.089142,260.402496 319.381409,253.826691 
	C343.347931,247.832581 367.605377,242.878036 391.034729,234.847809 
	C395.741760,233.234512 400.503601,231.670044 404.658997,228.134583 
	C406.731903,231.085770 405.912598,234.482635 405.919159,237.759262 
	C405.924805,240.581741 403.265778,240.491272 401.523102,240.852432 
	C355.891052,250.309967 311.171295,263.081360 267.023193,277.900604 
	C244.078003,285.602661 221.415771,294.103760 198.999313,303.227081 
	C195.440414,304.675537 194.268677,303.805634 193.702621,300.479401 
	C191.923203,290.023254 190.920990,279.503998 191.030609,268.421204 
z"/>
<path fill="#F19659" opacity="1.000000" stroke="none" 
	d="
M220.937134,370.464111 
	C214.355682,357.003265 201.213364,350.214050 189.578491,341.803680 
	C185.265793,338.686188 181.044830,335.470917 177.257492,331.702759 
	C169.815628,324.298553 165.962265,315.406067 166.015671,304.892700 
	C166.058731,296.413971 165.853622,287.959839 164.126602,279.619049 
	C162.076202,269.716522 156.791779,261.492188 148.834991,255.755829 
	C126.315300,239.520416 103.416389,223.786835 78.313622,211.659775 
	C69.734055,207.515030 60.837978,204.301163 50.592888,204.950714 
	C49.913998,191.397308 50.197643,191.229156 62.304699,196.714493 
	C91.620827,209.996719 119.174660,226.445190 146.577927,243.209305 
	C164.420731,254.124771 172.539169,270.087433 173.030716,290.555695 
	C173.198456,297.540497 173.850510,304.513092 174.047333,311.497864 
	C174.275467,319.592926 178.565567,325.255280 184.705063,329.763916 
	C194.507339,336.962433 203.939926,344.606323 213.183090,352.503418 
	C218.627472,357.154938 221.337997,362.878693 220.937134,370.464111 
z"/>
<path fill="#A87D51" opacity="1.000000" stroke="none" 
	d="
M174.334839,236.070480 
	C168.453766,232.184418 168.524841,232.273041 173.654297,228.159088 
	C189.356430,215.565643 204.546432,202.363541 219.495316,188.894562 
	C247.549286,163.617935 275.573212,138.306229 303.421509,112.803650 
	C324.664856,93.349632 345.589142,73.549782 365.664276,52.873207 
	C367.454071,51.029781 369.435028,47.565575 372.016296,52.658520 
	C369.717621,57.446102 366.643341,61.315456 363.156494,64.907616 
	C345.664490,82.927818 327.428131,100.176773 309.054749,117.285721 
	C302.729553,123.175636 296.582825,129.250061 290.248138,135.136856 
	C272.352173,151.767365 254.271713,168.181793 236.014145,184.415070 
	C217.128311,201.206970 197.886688,217.568970 178.460052,233.722305 
	C177.309799,234.678741 176.254547,235.766998 174.334839,236.070480 
z"/>
<path fill="#A15F3E" opacity="1.000000" stroke="none" 
	d="
M379.235168,322.794861 
	C378.978943,323.006104 378.518402,323.059998 378.287354,323.079346 
	C377.867004,323.233124 377.677734,323.367584 377.222839,323.727356 
	C376.957214,323.952667 377.004242,323.988037 376.982544,323.965393 
	C376.288177,324.718506 375.322601,324.370667 374.239807,324.779480 
	C373.976440,324.975586 374.001160,325.000000 373.993958,324.984070 
	C334.526581,339.911957 294.861084,354.331146 256.340302,371.656097 
	C251.222397,373.957916 246.397003,377.041718 240.437134,378.093201 
	C239.350754,373.006470 241.176361,370.349426 246.094589,368.192535 
	C284.916901,351.166992 323.947876,334.641571 363.338196,318.986786 
	C373.812073,314.824188 384.068085,309.992340 395.387756,307.024048 
	C398.697510,305.943939 401.814972,305.418884 404.960541,303.765015 
	C417.780487,299.845551 430.128174,295.707733 442.719971,292.388977 
	C444.606750,291.891693 446.454163,290.946991 448.806824,291.863617 
	C449.373138,295.470612 447.774048,297.179657 444.640289,298.334198 
	C425.633148,305.336945 406.690094,312.513763 387.729431,319.642548 
	C386.022644,320.284271 384.342896,320.997833 382.326721,321.832825 
	C381.290955,322.714020 380.325226,322.370911 379.235168,322.794861 
z"/>
<path fill="#D3D1D2" opacity="1.000000" stroke="none" 
	d="
M292.887939,311.332489 
	C294.715393,307.390656 292.710205,304.916199 290.312897,302.725250 
	C284.428223,297.347198 278.446014,292.075897 272.511597,286.752197 
	C271.189911,285.566528 269.903290,284.341827 268.083252,282.655975 
	C272.897064,281.008057 277.058990,279.614349 281.196838,278.152557 
	C283.034576,277.503326 284.330017,278.232727 285.673523,279.414154 
	C301.405243,293.248230 316.304626,307.949799 331.115173,322.750244 
	C333.346466,324.980011 332.663513,325.744995 330.169586,326.687378 
	C325.673035,328.386536 321.255737,330.295410 316.442444,332.209595 
	C310.025665,328.436676 305.894073,322.389191 300.048248,318.244293 
	C297.410828,316.374298 294.233215,314.925568 292.887939,311.332489 
z"/>
<path fill="#D3D2D2" opacity="1.000000" stroke="none" 
	d="
M293.807251,274.458313 
	C306.907806,269.774445 306.936829,269.744019 316.613098,278.972961 
	C320.942352,283.102112 325.264496,287.254486 329.342072,291.627350 
	C333.522766,296.110779 338.349976,298.368835 344.480103,297.098694 
	C346.981293,296.580414 348.841644,297.134888 350.700134,299.007751 
	C355.141510,303.483429 359.816162,307.727570 365.058136,312.691650 
	C356.910889,315.912445 349.322815,318.912170 341.370667,321.967590 
	C337.565063,319.587341 335.517700,315.874878 332.659760,312.908051 
	C321.969482,301.810425 310.369171,291.694794 298.783203,281.562408 
	C296.603088,279.655823 293.721832,278.216095 293.807251,274.458313 
z"/>
<path fill="#875728" opacity="1.000000" stroke="none" 
	d="
M174.134369,236.388229 
	C195.510101,217.688019 217.165405,199.415680 238.520294,180.798721 
	C251.026230,169.896194 263.029846,158.418625 275.300903,147.245285 
	C294.586151,129.685272 313.471954,111.710556 332.187042,93.541161 
	C345.648529,80.472176 359.712189,68.027946 371.746460,53.143784 
	C370.956665,59.908245 365.610901,64.109543 361.460236,68.868980 
	C344.368286,88.467796 325.477600,106.352165 306.838074,124.432785 
	C290.630341,140.154572 273.890472,155.346161 256.660492,169.981750 
	C241.100403,183.198898 225.901077,196.840622 210.348190,210.066437 
	C199.608582,219.199127 188.525009,227.926819 177.631958,236.880310 
	C176.325943,237.953796 175.323227,238.035049 174.134369,236.388229 
z"/>
<path fill="#A97F52" opacity="1.000000" stroke="none" 
	d="
M434.542450,308.193298 
	C449.036011,300.178772 449.369690,300.257111 448.985809,315.923950 
	C448.526093,334.685333 447.888031,353.449432 446.818390,372.183289 
	C446.583435,376.298859 447.203735,382.007202 440.326233,383.118164 
	C437.664032,380.710388 436.775391,377.659454 435.886719,374.627869 
	C434.148804,368.699341 432.845734,362.590179 432.753571,356.480286 
	C432.595612,346.006073 430.921417,335.593292 431.534973,325.115753 
	C431.862274,319.527039 431.675659,313.800812 434.542450,308.193298 
z"/>
<path fill="#A97F52" opacity="1.000000" stroke="none" 
	d="
M214.609619,400.067413 
	C220.097733,401.371643 220.097733,401.371643 231.799255,396.644653 
	C231.897476,397.306976 232.069092,397.913971 232.065582,398.519989 
	C231.941971,419.913239 230.798126,441.260315 228.990677,462.570892 
	C228.536896,467.921143 226.411652,468.928131 219.347260,467.249390 
	C216.239182,461.181488 215.356644,454.908569 215.086945,448.633911 
	C214.502869,435.045685 212.465866,421.555054 212.480270,407.935822 
	C212.483063,405.292328 212.376282,402.579559 214.609619,400.067413 
z"/>
<path fill="#875728" opacity="1.000000" stroke="none" 
	d="
M64.203316,192.279633 
	C74.837883,193.000931 84.579887,197.466751 93.835854,202.603577 
	C113.742645,213.651260 133.587494,224.848221 152.613983,237.396255 
	C156.630737,240.045319 160.469208,242.971527 164.324112,245.857834 
	C173.551468,252.766754 176.932114,262.573090 178.005447,273.546875 
	C178.956482,283.270203 180.089539,292.975800 181.031158,302.699951 
	C182.200714,314.777771 190.204865,322.057373 198.927261,329.046814 
	C205.916290,334.647247 213.270065,339.782501 219.748459,346.059448 
	C224.714203,350.870819 227.461441,356.588531 227.835205,363.197357 
	C228.217270,369.952972 228.872360,376.844299 226.344849,383.773621 
	C225.555847,378.110413 225.876404,372.146515 225.448715,366.166901 
	C224.748962,356.383118 218.761856,350.436035 212.151352,344.867310 
	C203.283173,337.396667 193.992615,330.426941 184.871582,323.257202 
	C180.992859,320.208252 179.229568,316.426636 178.839233,311.321747 
	C177.894562,298.967133 177.185669,286.581665 174.966904,274.329010 
	C172.444992,260.402069 164.030426,251.005768 153.079285,242.958984 
	C125.480347,222.679626 95.191978,207.204193 64.203316,192.279633 
z"/>
<path fill="#A87D51" opacity="1.000000" stroke="none" 
	d="
M395.136658,188.215683 
	C393.619598,186.018799 392.292969,183.957596 390.774750,181.598694 
	C405.003906,183.508240 415.891449,196.274857 417.051392,211.458633 
	C417.543213,217.896545 418.202820,224.338089 420.245148,230.563461 
	C421.658600,234.871933 424.107941,238.079254 427.917908,240.613022 
	C436.503143,246.322556 444.950867,252.244583 453.349487,258.227631 
	C463.925964,265.762146 466.366180,279.492157 459.109406,289.921509 
	C457.999390,291.516754 456.963837,293.258453 454.511627,293.669189 
	C453.035095,288.388489 455.775940,282.578827 452.156799,277.367065 
	C448.477325,269.460175 443.034485,263.550476 436.420837,258.593903 
	C434.298676,257.003479 432.371857,255.093155 430.101624,253.754364 
	C415.229828,244.984375 410.433319,231.247620 410.695587,214.944153 
	C410.724945,213.119034 410.727936,211.292099 410.671875,209.467010 
	C410.440399,201.928848 407.448059,196.022644 400.611694,192.348038 
	C399.159119,191.567245 397.629578,190.862778 396.212799,189.334564 
	C395.922180,189.088409 395.958496,189.080246 395.944977,189.067871 
	C395.788025,188.770966 395.586578,188.536255 395.136658,188.215683 
z"/>
<path fill="#D3D1D1" opacity="1.000000" stroke="none" 
	d="
M258.427917,323.238464 
	C258.696106,319.356110 256.565369,317.032104 254.169678,314.878906 
	C247.016479,308.449707 239.838379,302.048218 232.634552,295.604218 
	C240.702698,291.382416 240.770340,291.308075 247.076309,297.045593 
	C252.605728,302.076538 258.150635,307.116028 263.336548,312.491486 
	C268.103088,317.432251 273.277618,320.149384 280.226929,318.041077 
	C281.682037,317.599609 283.041138,317.525238 284.353241,318.791321 
	C290.662231,324.879089 297.056580,330.878387 303.956848,337.417236 
	C296.730743,340.542267 290.245087,343.347076 283.404419,346.277832 
	C276.853302,336.710266 267.966553,329.883484 258.427917,323.238464 
z"/>
<path fill="#EE9458" opacity="1.000000" stroke="none" 
	d="
M402.942627,215.490082 
	C384.641449,215.226440 366.965942,219.268433 349.170105,222.371552 
	C307.984222,229.553268 267.665100,240.631699 226.844223,249.448914 
	C221.551056,250.592209 216.270889,252.267487 210.462448,251.450134 
	C240.265656,242.815140 270.413605,234.815231 300.784637,227.671188 
	C330.983978,220.567535 361.311493,214.067780 391.785614,208.254654 
	C392.760590,208.068665 393.768158,208.042969 394.762573,207.970886 
	C401.734283,207.465408 402.467499,208.101791 402.942627,215.490082 
z"/>
<path fill="#D2D0D1" opacity="1.000000" stroke="none" 
	d="
M234.093140,342.293152 
	C222.854385,330.296448 210.030289,320.442841 198.744003,308.884918 
	C203.049500,305.701660 206.357742,305.563110 210.239655,309.397156 
	C216.383804,315.465546 223.409760,320.618744 229.399780,326.894104 
	C233.541306,331.232910 238.466049,333.006073 244.331070,331.144165 
	C247.201050,330.233032 249.253189,330.955536 251.411331,333.069916 
	C257.698914,339.229950 264.216644,345.155029 271.069763,351.570648 
	C265.303284,354.184387 260.056519,356.562531 254.455811,359.005310 
	C253.205399,359.539551 252.392365,359.147614 251.909851,358.512970 
	C247.038177,352.105103 240.195511,347.864197 234.093140,342.293152 
z"/>
<path fill="#FC8B5A" opacity="1.000000" stroke="none" 
	d="
M335.775909,103.345123 
	C337.564728,101.362206 339.148193,99.693390 340.460236,98.310646 
	C341.863678,98.083961 342.029602,98.838821 342.249634,99.402557 
	C355.119110,132.373398 373.621124,162.356415 391.652527,192.589645 
	C392.161041,193.442291 392.579407,194.348724 393.095673,195.582581 
	C390.476715,197.633865 388.784729,195.543076 387.013733,194.218353 
	C378.410553,187.783157 372.921753,178.821167 367.390503,169.885300 
	C355.983673,151.457428 345.498962,132.556244 337.770355,112.246765 
	C336.723297,109.495193 335.064514,106.835083 335.775909,103.345123 
z"/>
<path fill="#EB9C2B" opacity="1.000000" stroke="none" 
	d="
M226.121002,228.376862 
	C233.082489,232.041779 240.427902,231.779221 247.840729,230.007797 
	C276.181824,223.235184 304.503113,216.379852 332.838684,209.584061 
	C335.404724,208.968628 338.016296,208.538437 340.613220,208.057114 
	C345.172943,207.212021 348.617188,204.959290 350.554443,200.240646 
	C351.661682,211.141922 351.710754,211.377304 341.964508,213.409241 
	C305.155518,221.083298 268.701508,230.202240 232.469040,240.207031 
	C228.558167,241.286942 227.306564,240.351212 227.018463,236.683899 
	C226.811340,234.047256 226.382629,231.428024 226.121002,228.376862 
z"/>
<path fill="#D2D0D1" opacity="1.000000" stroke="none" 
	d="
M388.749237,283.127686 
	C390.930237,279.445129 389.146851,277.143951 386.745056,275.042572 
	C380.098572,269.227448 373.421570,263.447083 366.798645,257.605347 
	C365.848297,256.767090 364.462494,256.236267 364.247772,254.718094 
	C369.628052,251.721420 373.963989,252.084686 378.461578,257.032043 
	C384.716492,263.912567 391.376526,270.511719 399.126465,275.834686 
	C401.080902,277.177063 403.191620,278.837158 405.492950,278.244720 
	C411.688232,276.649811 414.978760,280.739166 418.636932,284.287109 
	C424.900085,290.361511 424.899872,290.380249 416.906555,293.343506 
	C412.541931,294.961548 408.157074,296.525146 403.410706,298.208984 
	C399.460388,294.609833 395.600830,291.223389 391.705200,287.868561 
	C390.349304,286.700867 388.886627,285.476105 388.749237,283.127686 
z"/>
<path fill="#D2D0D0" opacity="1.000000" stroke="none" 
	d="
M355.823975,292.404419 
	C359.441345,288.459961 357.716309,285.431610 354.742676,282.706512 
	C347.631989,276.190094 340.456665,269.744232 333.011902,263.002289 
	C336.240997,260.864624 338.612061,260.919128 341.575897,263.752197 
	C348.674133,270.537201 356.275421,276.796936 363.008636,283.973267 
	C367.149109,288.386261 372.116180,290.070801 377.936798,288.365967 
	C380.557617,287.598328 382.388214,288.211151 384.134277,290.114624 
	C387.500397,293.784241 390.948669,297.378510 394.708191,301.370697 
	C387.476929,304.150665 380.113861,306.981293 372.388611,309.838867 
	C367.397278,305.635956 362.339722,301.877380 358.076752,297.247192 
	C356.879669,295.947021 355.242920,294.835876 355.823975,292.404419 
z"/>
<path fill="#A05E3E" opacity="1.000000" stroke="none" 
	d="
M319.329803,177.293991 
	C318.836121,168.082748 318.826508,168.115433 327.130920,170.556000 
	C339.724792,174.257172 352.242676,178.166290 364.503143,182.894577 
	C367.287567,183.968399 369.328400,185.280563 370.767151,188.003006 
	C373.249786,192.700836 376.122955,197.193283 378.859680,201.755447 
	C380.482422,204.460571 380.206146,205.703751 376.624176,206.200897 
	C370.891876,206.996490 365.233765,208.380356 359.582123,209.680099 
	C356.857086,210.306824 355.980469,209.370239 355.966431,206.710693 
	C355.944580,202.567505 355.853699,198.457489 355.198334,194.296661 
	C353.142975,181.247482 350.838837,178.996460 337.523621,178.921997 
	C331.307953,177.939743 325.356323,179.391815 319.329803,177.293991 
z"/>
<path fill="#A87C51" opacity="1.000000" stroke="none" 
	d="
M353.440094,350.862122 
	C353.840698,361.980896 353.875916,372.772369 354.043121,383.561798 
	C354.079163,385.888855 353.392426,387.174683 351.045227,387.914398 
	C347.198212,389.126862 344.984619,391.463165 345.737457,396.056702 
	C346.206848,398.920532 341.509308,401.998840 338.406586,401.260254 
	C336.641296,400.840027 334.782196,399.790070 333.139099,400.064453 
	C327.224182,401.052155 326.915222,397.891663 326.904358,393.256958 
	C326.879883,382.819183 326.306152,372.382690 325.968567,361.479248 
	C327.051300,358.649811 328.867462,357.880951 331.675873,358.734558 
	C332.328949,366.426483 332.601379,373.892548 332.971222,381.353790 
	C333.195038,385.869537 335.316284,387.177490 339.561279,385.572784 
	C344.848419,383.574158 348.111755,378.814789 348.111481,372.986816 
	C348.111176,365.999603 348.058105,359.012360 348.053558,351.563538 
	C349.621246,349.679108 351.307281,349.535126 353.440094,350.862122 
z"/>
<path fill="#81391E" opacity="1.000000" stroke="none" 
	d="
M313.486450,176.617096 
	C315.146606,181.988586 312.962830,183.999023 307.899628,184.962326 
	C292.517487,187.888931 277.250885,191.417130 261.897583,194.503632 
	C253.855164,196.120422 244.653091,196.184097 238.343414,192.395737 
	C243.220047,189.081314 246.402222,184.124146 251.780029,181.118317 
	C253.656250,180.216537 255.352783,180.280777 256.950897,180.555283 
	C268.924408,182.611832 280.690125,181.183670 292.494324,178.969864 
	C299.294006,177.694611 306.080780,175.897064 313.486450,176.617096 
z"/>
<path fill="#D2D0D1" opacity="1.000000" stroke="none" 
	d="
M419.678741,274.192474 
	C422.784760,270.165863 420.573181,267.334778 417.953156,264.824249 
	C411.607086,258.743317 405.127655,252.801590 398.631805,246.738266 
	C403.820312,244.043365 407.886810,244.215561 412.621033,248.509598 
	C423.571991,258.442291 435.754639,266.991425 446.029907,277.724640 
	C449.799103,281.661835 449.760895,281.789093 444.664856,283.624847 
	C441.698517,284.693359 438.727570,285.749054 435.394165,286.823059 
	C429.589935,283.171234 424.060974,279.617737 419.678741,274.192474 
z"/>
<path fill="#FD8C5A" opacity="1.000000" stroke="none" 
	d="
M219.468094,218.960876 
	C219.819061,225.930481 220.812347,232.651688 222.596024,239.230118 
	C223.276276,241.738998 222.615417,242.810501 220.177948,243.510910 
	C210.142456,246.394547 200.132950,249.372238 190.153625,252.444351 
	C188.346436,253.000687 187.410767,252.702927 186.612808,251.010452 
	C185.910294,249.520462 184.897232,248.176895 183.856964,246.456482 
	C184.820465,243.124603 187.780136,241.881271 189.954208,239.946548 
	C197.872070,232.900375 206.358566,226.553177 215.068771,220.512970 
	C216.291321,219.665161 217.543503,218.826370 219.468094,218.960876 
z"/>
<path fill="#A15F3E" opacity="1.000000" stroke="none" 
	d="
M313.869324,176.440430 
	C297.588898,179.041962 281.659302,183.822769 265.014862,183.019135 
	C260.884644,182.819733 256.860291,182.122879 252.483597,181.041153 
	C256.299866,177.231995 260.576813,173.555740 264.679077,169.693970 
	C266.335632,168.134567 268.050110,167.692413 270.132355,168.207352 
	C283.694244,171.561325 297.349396,172.039780 311.076447,169.416672 
	C313.047791,169.039963 313.945343,169.471313 313.909821,171.516617 
	C313.883789,173.014755 313.893768,174.513489 313.869324,176.440430 
z"/>
<path fill="#A97E52" opacity="1.000000" stroke="none" 
	d="
M112.636230,299.267212 
	C115.612854,301.048584 118.029091,303.415833 120.869278,305.043213 
	C126.218765,308.108429 127.590988,312.494141 126.973900,318.347260 
	C126.055534,327.057831 125.697327,335.826569 125.040161,344.566010 
	C124.781693,348.003418 124.034027,351.199371 119.501053,351.913208 
	C115.298576,347.600250 113.912010,342.189697 113.092377,336.831482 
	C111.537933,326.669464 110.174934,316.445282 110.538254,306.103851 
	C110.619812,303.782104 110.558815,301.416534 112.636230,299.267212 
z"/>
<path fill="#823A1F" opacity="1.000000" stroke="none" 
	d="
M239.792755,378.195892 
	C269.795837,363.423401 300.523438,351.302765 331.473816,339.717072 
	C343.442535,335.236786 355.420197,330.779785 367.420654,326.385590 
	C369.267731,325.709229 371.260101,325.429626 373.586029,324.967346 
	C365.941132,329.678833 357.005310,332.345673 348.474182,335.919250 
	C324.423615,345.993805 300.301300,355.883820 276.543762,366.653778 
	C263.856293,372.405334 251.538300,378.911987 238.225525,385.270477 
	C238.748795,382.484985 239.128845,380.461853 239.792755,378.195892 
z"/>
<path fill="#875727" opacity="1.000000" stroke="none" 
	d="
M434.411804,307.860504 
	C434.050354,315.530396 432.525543,323.184570 433.033508,330.997253 
	C434.156036,348.261597 433.244049,365.800476 439.958557,382.697693 
	C435.870453,383.129547 434.223572,380.372070 432.883911,377.136932 
	C430.173218,370.591125 430.019165,363.567688 429.055786,356.711395 
	C427.631348,346.573700 426.470520,336.398315 425.260895,326.231415 
	C424.792084,322.291016 425.041443,318.295410 424.085022,314.373474 
	C423.569397,312.259033 424.308960,310.472412 426.863068,309.900970 
	C429.279541,309.360352 431.642517,308.580536 434.411804,307.860504 
z"/>
<path fill="#875728" opacity="1.000000" stroke="none" 
	d="
M395.938477,189.451477 
	C406.418884,192.048645 412.036591,198.933701 411.924225,209.554047 
	C411.855560,216.043213 412.584808,222.448471 413.231781,228.845642 
	C414.312958,239.536102 421.718018,246.005920 429.756561,251.884613 
	C435.500946,256.085602 441.169403,260.368134 446.104248,265.555389 
	C449.033295,268.634277 451.106171,272.102570 451.994019,276.641235 
	C440.373108,263.649200 425.809357,253.677826 412.330170,242.444122 
	C408.566376,239.307297 409.607910,234.139587 409.095520,229.802902 
	C408.610168,225.694962 408.691040,221.514023 408.627197,217.363586 
	C408.476166,207.541672 401.497162,200.898254 397.310669,192.959518 
	C396.769409,191.933105 395.971252,191.054886 395.938477,189.451477 
z"/>
<path fill="#FA564C" opacity="1.000000" stroke="none" 
	d="
M219.885635,218.697418 
	C209.441269,225.277466 200.185135,232.953018 190.898880,240.589310 
	C188.737793,242.366425 186.543396,244.103058 184.028473,246.001312 
	C179.014450,241.606247 179.022064,241.615433 183.684708,237.750046 
	C199.684738,224.485794 215.695526,211.234406 231.649078,197.914444 
	C233.198868,196.620468 234.458664,195.934708 236.494904,196.917511 
	C238.566879,197.917557 240.852631,198.474625 244.063141,199.574570 
	C239.989349,200.978012 236.777802,202.320847 233.442398,203.186234 
	C225.513840,205.243347 220.623901,209.845551 219.885635,218.697418 
z"/>
<path fill="#FA584D" opacity="1.000000" stroke="none" 
	d="
M335.651825,103.181541 
	C341.516022,120.700172 349.463135,137.285339 358.812744,153.205582 
	C365.690643,164.917038 372.263031,176.855286 381.157990,187.241470 
	C384.288727,190.897064 387.853424,194.086746 392.783447,195.935455 
	C393.151550,195.935089 393.078949,195.983810 393.048737,195.952209 
	C393.165710,196.211975 393.373596,196.450409 393.802216,196.813812 
	C397.803864,201.901947 397.688049,201.535538 391.872620,203.373550 
	C387.455231,204.769684 385.321503,203.973373 382.968842,199.730927 
	C369.526642,175.491241 354.266388,152.260422 342.593231,127.040077 
	C339.739838,120.875214 337.357269,114.493591 334.688751,108.241272 
	C333.908325,106.412727 333.494751,104.762367 335.651825,103.181541 
z"/>
<path fill="#813241" opacity="1.000000" stroke="none" 
	d="
M216.834442,303.294830 
	C220.793732,297.921448 225.885223,297.166290 230.559052,301.009644 
	C236.318756,305.745850 242.076996,310.485413 247.760727,315.311981 
	C253.694092,320.350555 253.473679,321.928711 246.585632,325.181610 
	C245.988007,325.463806 245.350937,325.662476 244.370026,325.934601 
	C235.489624,320.587463 227.017303,315.140289 219.806992,308.001892 
	C218.530640,306.738281 217.058807,305.573456 216.834442,303.294830 
z"/>
<path fill="#875727" opacity="1.000000" stroke="none" 
	d="
M214.816925,399.512817 
	C212.451477,409.651337 214.341217,419.562012 215.330551,429.320282 
	C216.096161,436.871918 215.520004,444.453552 216.796646,452.003296 
	C217.587494,456.680145 218.999130,461.307831 219.070007,466.537231 
	C214.590195,463.567108 214.876404,458.202148 213.795044,453.528168 
	C209.737762,435.991425 207.275436,418.196167 206.065643,400.239532 
	C205.940491,398.381897 204.956451,395.642059 206.810837,394.742889 
	C208.484589,393.931305 210.170410,396.249207 211.806839,397.261414 
	C212.786880,397.867584 213.704559,398.574615 214.816925,399.512817 
z"/>
<path fill="#813241" opacity="1.000000" stroke="none" 
	d="
M252.862457,288.344788 
	C261.360748,281.895416 266.668335,288.081665 272.235596,292.852051 
	C276.256226,296.297211 280.185730,299.859955 283.998657,303.533417 
	C289.042023,308.392303 288.976013,308.460815 282.319641,311.869141 
	C279.875427,312.487610 278.052704,311.547424 276.428894,310.476929 
	C268.676880,305.366333 261.234100,299.851379 254.872925,293.017731 
	C253.736404,291.796814 252.724991,290.477356 252.862457,288.344788 
z"/>
<path fill="#FB8A5A" opacity="1.000000" stroke="none" 
	d="
M320.424316,362.076874 
	C321.433960,376.499451 322.047119,390.907837 322.653778,405.316467 
	C322.702484,406.473267 322.867310,407.764038 321.846710,408.553101 
	C320.543121,409.560944 319.325653,408.619720 318.180237,408.010071 
	C315.642883,406.659607 314.426300,404.446899 313.924286,401.662903 
	C312.828491,395.586212 313.141296,389.421997 312.676483,382.870148 
	C312.675140,374.752106 315.524811,368.110870 320.424316,362.076874 
z"/>
<path fill="#BDBBBC" opacity="1.000000" stroke="none" 
	d="
M258.000916,323.250916 
	C261.882690,323.033966 263.977356,325.893524 266.585175,327.803009 
	C272.321136,332.002991 277.631104,336.664215 281.904419,342.417847 
	C282.638641,343.406433 283.042694,344.405609 283.045288,346.003876 
	C278.213715,350.276398 274.361115,349.101929 270.365936,344.687042 
	C266.019928,339.884521 261.236908,335.415344 256.247620,331.279510 
	C253.079727,328.653534 252.865875,327.013702 256.457123,324.992767 
	C257.005402,324.684204 257.358337,324.028656 258.000916,323.250916 
z"/>
<path fill="#813240" opacity="1.000000" stroke="none" 
	d="
M319.734558,267.260254 
	C325.553284,262.403107 329.375885,266.710876 333.184540,269.851898 
	C338.897461,274.563416 344.375549,279.561066 349.916351,284.478821 
	C351.005798,285.445770 352.531677,286.587189 351.704529,288.204010 
	C350.297516,290.954193 347.526184,291.070923 344.410065,291.014587 
	C340.952637,290.405945 338.610291,288.465179 336.467896,286.482635 
	C331.868652,282.226624 327.369202,277.869202 322.628662,273.759735 
	C320.849701,272.217590 318.601471,270.592896 319.734558,267.260254 
z"/>
<path fill="#BBB7B8" opacity="1.000000" stroke="none" 
	d="
M293.681213,274.171936 
	C296.949554,280.492004 303.254028,283.396271 307.956268,287.884399 
	C319.292786,298.704773 331.711090,308.435028 340.975708,321.674896 
	C339.264221,323.952423 337.800415,322.975006 336.405182,321.561615 
	C321.113007,306.070404 305.577637,290.831757 289.407806,276.250580 
	C289.320312,276.171661 289.377625,275.932190 289.346558,275.437988 
	C290.616272,275.029449 291.970367,274.593781 293.681213,274.171936 
z"/>
<path fill="#813240" opacity="1.000000" stroke="none" 
	d="
M349.793274,258.311584 
	C357.097290,254.050949 361.149902,259.347351 365.639038,263.169891 
	C370.414459,267.236206 375.016418,271.511627 379.877686,275.470276 
	C384.917023,279.574005 384.886993,280.277222 378.355682,282.967621 
	C375.801636,283.534088 374.219940,282.224396 372.572815,281.150940 
	C364.597809,275.953552 357.879639,269.318817 351.331726,262.496826 
	C350.307526,261.429749 349.232910,260.314362 349.793274,258.311584 
z"/>
<path fill="#875628" opacity="1.000000" stroke="none" 
	d="
M112.858849,298.709412 
	C110.520401,308.922272 112.757851,318.771393 113.388412,328.636993 
	C113.889488,336.476837 116.184738,343.881805 119.088905,351.509003 
	C115.560982,351.575928 114.866234,348.541656 113.913048,346.028473 
	C109.956596,335.596832 108.599350,324.583466 107.031685,313.633789 
	C106.260490,308.247223 105.693687,302.830109 105.116615,297.418030 
	C104.981567,296.151550 104.421158,294.451294 105.624580,293.691559 
	C107.095207,292.763153 107.838219,294.599365 108.828621,295.337341 
	C110.150757,296.322479 111.420319,297.378143 112.858849,298.709412 
z"/>
<path fill="#BDBBBB" opacity="1.000000" stroke="none" 
	d="
M292.691345,311.135651 
	C300.691406,317.777191 309.325500,323.528748 315.952087,331.971649 
	C311.582581,335.790283 307.787048,335.594208 303.880859,330.968933 
	C300.481842,326.944244 296.293396,323.587067 292.461426,319.926910 
	C287.705353,315.384094 287.708771,315.380524 292.691345,311.135651 
z"/>
<path fill="#813240" opacity="1.000000" stroke="none" 
	d="
M385.790588,249.300507 
	C390.967743,246.918243 394.171936,249.273148 397.487915,252.819443 
	C401.975586,257.618805 407.113983,261.802979 411.846222,266.382355 
	C416.171692,270.568085 415.905182,271.247650 409.392151,272.967468 
	C401.424866,268.372162 394.910797,262.474243 388.912628,255.997940 
	C387.264038,254.217941 385.359619,252.405441 385.790588,249.300507 
z"/>
<path fill="#9D7043" opacity="1.000000" stroke="none" 
	d="
M328.641937,165.531479 
	C335.526947,161.109085 342.830475,162.597534 350.138428,164.647339 
	C356.393158,166.401749 362.017670,168.915588 363.408966,176.843369 
	C351.856415,173.147247 340.375549,169.474060 328.641937,165.531479 
z"/>
<path fill="#7A2537" opacity="1.000000" stroke="none" 
	d="
M252.635391,288.013062 
	C257.300079,296.001556 265.103607,300.309998 271.722626,305.856140 
	C274.635925,308.297211 277.935699,310.124023 281.684784,311.866058 
	C277.652832,315.370087 273.421906,314.161133 269.765808,311.091919 
	C263.171875,305.556519 256.779083,299.771057 250.477097,293.902374 
	C246.731415,290.414215 247.077103,289.614655 252.635391,288.013062 
z"/>
<path fill="#BDBABB" opacity="1.000000" stroke="none" 
	d="
M233.892914,342.441010 
	C241.947723,345.773041 247.969772,351.966248 253.796722,358.910645 
	C253.719666,359.366089 253.377289,359.750000 252.948883,359.944519 
	C249.339493,361.583405 245.251404,365.065125 242.213852,364.316101 
	C238.603561,363.425903 240.747940,357.749298 239.645950,354.296478 
	C238.323044,350.151398 236.489548,346.318817 233.892914,342.441010 
z"/>
<path fill="#FA574D" opacity="1.000000" stroke="none" 
	d="
M320.885773,361.639587 
	C317.224365,368.203339 314.854065,374.815430 312.798767,382.010498 
	C311.092743,374.506195 311.002869,366.457123 310.837830,358.423187 
	C310.799866,356.574738 318.184601,352.486328 319.899628,353.216370 
	C321.085999,353.721375 320.876404,354.815308 320.909973,355.748840 
	C320.975159,357.560089 320.941650,359.374878 320.885773,361.639587 
z"/>
<path fill="#7A2537" opacity="1.000000" stroke="none" 
	d="
M319.554504,266.973053 
	C319.661102,270.554382 322.476868,272.338898 324.686432,274.036407 
	C331.337952,279.146515 336.441223,286.032471 343.852600,290.710144 
	C343.152405,294.258362 341.110229,292.881165 339.356781,292.134338 
	C334.212799,289.943390 330.899170,285.390961 326.675751,282.015503 
	C322.822784,278.936127 319.557739,275.122345 316.021729,271.644287 
	C315.138489,270.775513 313.144928,270.630463 313.538940,268.978363 
	C313.932892,267.326538 315.691803,267.181122 317.176849,267.029938 
	C317.832642,266.963226 318.498474,266.995331 319.554504,266.973053 
z"/>
<path fill="#7A2537" opacity="1.000000" stroke="none" 
	d="
M216.646851,302.826050 
	C222.985245,310.895569 231.390717,315.988068 239.343079,321.620819 
	C240.940857,322.752594 242.868332,323.465607 243.953644,325.632996 
	C239.053665,328.891876 235.718689,324.990875 232.621857,322.608368 
	C226.091370,317.584229 220.082825,311.876587 213.934830,306.366028 
	C213.046463,305.569763 211.161728,304.721619 211.940887,303.388947 
	C212.807190,301.907166 214.657043,301.624390 216.646851,302.826050 
z"/>
<path fill="#EC9257" opacity="1.000000" stroke="none" 
	d="
M449.332520,291.851501 
	C435.646332,295.965668 422.187775,299.800964 408.722992,303.614380 
	C407.776642,303.882355 406.784454,303.988281 405.405457,304.217834 
	C404.868530,304.079803 404.739746,303.893524 404.823730,303.442444 
	C418.607788,298.205017 432.205505,293.302643 445.733612,288.215179 
	C449.579803,286.768768 450.631317,287.768158 449.332520,291.851501 
z"/>
<path fill="#7A2537" opacity="1.000000" stroke="none" 
	d="
M349.653748,258.021118 
	C352.345795,263.629639 357.423981,266.856903 361.523468,270.825134 
	C366.260010,275.410065 371.443726,279.624878 377.688782,282.867554 
	C374.234528,285.455627 370.915283,283.820007 368.137817,281.402588 
	C360.182617,274.478638 352.434784,267.316467 344.215485,259.895874 
	C346.004791,258.764374 347.523834,258.121124 349.653748,258.021118 
z"/>
<path fill="#7A2537" opacity="1.000000" stroke="none" 
	d="
M385.629974,249.018738 
	C388.362549,255.575897 393.969421,259.365204 398.743835,263.817657 
	C401.965240,266.821869 405.506470,269.483154 408.963989,272.632568 
	C403.645020,273.972107 400.348114,270.237640 396.918243,267.299133 
	C390.908020,262.149872 385.209351,256.636963 379.069397,250.990601 
	C381.155426,249.687592 383.211456,249.385391 385.629974,249.018738 
z"/>
<path fill="#D3D2D2" opacity="1.000000" stroke="none" 
	d="
M327.994171,407.344421 
	C328.781433,404.479767 331.038574,404.367035 332.856201,404.897797 
	C340.376770,407.093994 347.537476,410.004517 351.743591,417.591339 
	C350.470825,419.066986 348.959534,419.280884 347.492401,418.873962 
	C340.086456,416.819824 332.867218,414.392334 327.994171,407.344421 
z"/>
<path fill="#A05D3E" opacity="1.000000" stroke="none" 
	d="
M337.229370,346.793762 
	C338.622406,344.995880 340.208923,343.604218 342.021423,344.470306 
	C343.772919,345.307251 342.910034,347.453217 342.927612,349.007111 
	C343.010986,356.379211 342.964874,363.752777 342.964874,371.931427 
	C335.550537,364.326691 337.022217,355.605225 337.229370,346.793762 
z"/>
<path fill="#CBC6C7" opacity="1.000000" stroke="none" 
	d="
M357.328247,401.782043 
	C355.212982,400.150848 353.296783,398.831512 351.652679,397.232422 
	C350.796875,396.400055 349.716522,395.220886 350.726837,393.754456 
	C351.566650,392.535583 352.895325,392.101318 354.223755,392.426270 
	C359.638245,393.750793 364.215179,396.670105 368.372162,400.277374 
	C369.109253,400.916931 369.603668,401.908539 369.154266,402.953613 
	C368.563202,404.327881 367.319489,404.820709 365.936523,404.856323 
	C362.824554,404.936493 360.233124,403.437378 357.328247,401.782043 
z"/>
<path fill="#BBB8B9" opacity="1.000000" stroke="none" 
	d="
M419.274231,273.916260 
	C424.706512,277.953247 429.818359,282.057983 434.979919,286.499146 
	C431.664642,289.331116 429.078400,288.825134 426.422424,285.409576 
	C424.232697,282.593628 421.308197,280.326355 418.591156,277.951080 
	C416.734711,276.328186 416.592712,275.103729 419.274231,273.916260 
z"/>
<path fill="#BAB5B6" opacity="1.000000" stroke="none" 
	d="
M327.652771,407.183105 
	C334.533417,412.758057 341.725281,417.421021 351.283966,417.942749 
	C351.014221,420.318970 348.865021,420.615326 347.004425,420.835236 
	C340.925140,421.553772 329.291046,413.452362 327.652771,407.183105 
z"/>
<path fill="#BCB8B9" opacity="1.000000" stroke="none" 
	d="
M388.561859,282.926392 
	C391.369812,286.993530 395.696594,289.319336 399.066498,292.638031 
	C400.555847,294.104736 402.511810,295.266693 403.014008,297.934692 
	C401.135956,299.909393 399.694550,298.736694 398.353668,297.451477 
	C394.790161,294.035889 391.379883,290.451080 387.689941,287.180298 
	C385.484680,285.225555 386.730072,284.245453 388.561859,282.926392 
z"/>
<path fill="#865628" opacity="1.000000" stroke="none" 
	d="
M332.026031,358.509216 
	C329.957062,358.754028 328.329681,359.840363 326.312439,360.881714 
	C323.634888,354.147858 324.557556,350.324127 328.701080,348.910004 
	C330.970367,348.135529 332.176056,348.278015 332.042023,351.071991 
	C331.930664,353.394714 332.030396,355.727600 332.026031,358.509216 
z"/>
<path fill="#BAB5B6" opacity="1.000000" stroke="none" 
	d="
M355.760498,292.260742 
	C357.918365,296.988892 362.238129,299.644073 365.860504,302.869415 
	C368.066833,304.833954 370.531677,306.482727 371.980591,309.530457 
	C370.577057,311.375488 369.466888,310.607452 368.264374,309.428192 
	C363.760132,305.011017 359.295074,300.546478 354.626984,296.307068 
	C352.295349,294.189514 353.778412,293.388184 355.760498,292.260742 
z"/>
<path fill="#86532A" opacity="1.000000" stroke="none" 
	d="
M353.834930,350.749115 
	C352.137024,351.145935 350.515808,351.101715 348.486938,351.079712 
	C347.730560,348.830566 347.349426,346.563599 347.040802,344.286774 
	C346.576355,340.860626 349.257721,339.716766 351.567352,339.597992 
	C354.092194,339.468201 352.758270,342.100922 352.963470,343.497833 
	C353.296265,345.763153 354.405029,347.931091 353.834930,350.749115 
z"/>
<path fill="#813821" opacity="1.000000" stroke="none" 
	d="
M318.741150,177.216827 
	C324.868927,177.121201 330.802673,176.313416 336.790558,178.653351 
	C332.309845,179.899597 327.555878,180.956451 322.770905,181.846619 
	C319.309570,182.490524 317.885132,180.890060 318.741150,177.216827 
z"/>
<path fill="#D78250" opacity="1.000000" stroke="none" 
	d="
M404.680481,303.227722 
	C405.029907,303.358093 405.023285,303.538574 405.006989,303.992584 
	C402.481567,306.058807 399.649719,306.885681 396.173309,307.000122 
	C398.219330,304.839081 401.513458,304.617004 404.680481,303.227722 
z"/>
<path fill="#823A1F" opacity="1.000000" stroke="none" 
	d="
M374.318115,324.985352 
	C374.495697,324.065338 375.385498,323.994965 376.624878,323.949036 
	C376.479187,324.917511 375.583740,324.987488 374.318115,324.985352 
z"/>
<path fill="#823A1F" opacity="1.000000" stroke="none" 
	d="
M379.320435,323.006287 
	C379.504852,322.079681 380.408264,322.022827 381.662292,321.988342 
	C381.475739,322.909027 380.583801,322.992218 379.320435,323.006287 
z"/>
<path fill="#823A1F" opacity="1.000000" stroke="none" 
	d="
M377.185974,323.875854 
	C377.061920,323.621155 377.269226,323.376587 377.817719,323.158813 
	C377.921295,323.404327 377.707428,323.637756 377.185974,323.875854 
z"/>
<path fill="#FC8B5A" opacity="1.000000" stroke="none" 
	d="
M393.898499,196.739120 
	C393.639130,196.874756 393.385254,196.671371 393.109619,196.151062 
	C393.290588,196.109268 393.562653,196.297897 393.898499,196.739120 
z"/>
<path fill="#875728" opacity="1.000000" stroke="none" 
	d="
M395.053345,188.295700 
	C395.296722,188.125565 395.572449,188.293716 395.852417,188.819977 
	C395.600616,188.978729 395.343597,188.797363 395.053345,188.295700 
z"/>
<path fill="#F5995A" opacity="1.000000" stroke="none" 
	d="
M234.180054,101.163269 
	C249.323013,98.642326 263.356903,94.290260 276.248657,86.558746 
	C278.786560,85.036705 281.672119,84.053024 284.472961,83.027489 
	C285.947662,82.487518 287.651062,81.389763 289.143219,82.913155 
	C290.780457,84.584686 290.334564,86.719528 289.630737,88.548576 
	C288.057678,92.636475 285.398254,96.031929 282.386902,99.211983 
	C271.725830,110.470261 259.954102,120.540413 248.430344,130.860306 
	C236.177612,141.833023 224.197662,153.183350 210.719315,162.681198 
	C195.754349,173.226624 180.758621,183.875015 162.205643,187.412109 
	C147.007965,190.309509 134.173004,185.714584 124.034637,174.278671 
	C116.624359,165.919983 116.900063,155.126572 125.424126,146.314392 
	C144.054276,127.054550 164.712479,110.703690 192.324570,106.503113 
	C204.774200,104.609169 217.339554,103.477631 229.849396,101.975136 
	C231.161484,101.817551 232.453171,101.489960 234.180054,101.163269 
z"/>
</svg>