<svg version="1.1" id="Layer_1" xmlns="http://www.w3.org/2000/svg" xmlns:xlink="http://www.w3.org/1999/xlink" x="0px" y="0px"
	 width="100%" viewBox="0 0 512 512" enable-background="new 0 0 512 512" xml:space="preserve">
<path fill="none" opacity="1.000000" stroke="none" 
	d="
M1.000000,137.000000 
	C1.000000,125.979103 1.000000,114.958214 1.468657,103.468948 
	C14.823419,103.000580 27.709522,103.000580 40.999691,103.000580 
	C40.999691,100.107239 40.999607,98.132935 40.999702,96.158638 
	C41.000511,79.530510 41.122829,62.900864 40.915897,46.275318 
	C40.864811,42.171150 42.030685,40.858795 46.215031,40.912624 
	C63.006653,41.128635 79.802711,41.008854 96.597099,40.988014 
	C98.537247,40.985607 100.477196,40.825775 103.000000,40.712849 
	C103.000000,27.182926 103.000000,14.091463 103.000000,1.000000 
	C114.020897,1.000000 125.041786,1.000000 136.531067,1.468657 
	C136.999756,13.074967 137.236389,24.219992 136.889267,35.346806 
	C136.741104,40.095814 138.426559,41.113197 142.831635,41.086647 
	C171.256516,40.915333 199.682938,41.004032 228.108856,40.986977 
	C229.881836,40.985912 231.654724,40.811607 234.000000,40.687649 
	C234.000000,27.177168 234.000000,14.088584 234.000000,1.000000 
	C245.020889,1.000000 256.041779,1.000000 267.531342,1.468657 
	C268.000000,14.830455 268.000000,27.723595 268.000000,40.999695 
	C270.919556,40.999695 272.898102,40.999649 274.876648,40.999706 
	C291.350739,41.000156 307.827576,41.168262 324.297119,40.894241 
	C328.959198,40.816673 330.156464,42.298912 330.094666,46.793800 
	C329.859039,63.930241 330.092926,81.072746 329.930786,98.210899 
	C329.896118,101.874985 330.930817,103.161552 334.708099,103.074867 
	C344.687134,102.845879 354.674957,103.012955 364.659180,102.983932 
	C366.264191,102.979271 367.868591,102.777008 370.000000,102.629677 
	C370.000000,68.480843 370.000000,34.740421 370.000000,1.000000 
	C417.625763,1.000000 465.251495,1.000000 513.000000,1.000000 
	C513.000000,123.020866 513.000000,245.041779 512.650513,367.637970 
	C509.747375,366.418427 507.147278,364.685791 504.647156,362.819214 
	C477.840149,342.805084 451.023346,322.803864 424.260223,302.731110 
	C394.283356,280.248047 364.375458,257.672974 334.407227,235.178406 
	C304.197174,212.502365 273.954651,189.869614 243.714279,167.234024 
	C238.498398,163.329819 233.222321,159.506058 227.000000,154.928574 
	C227.000000,275.146698 227.000000,394.073334 227.000000,513.000000 
	C151.756073,513.000000 76.512131,513.000000 1.000000,513.000000 
	C1.000000,465.646118 1.000000,418.291718 1.468657,370.468658 
	C33.887016,369.999237 65.837074,369.926575 97.785980,370.084961 
	C101.972557,370.105713 103.194191,368.828766 103.084846,364.718140 
	C102.819458,354.740906 102.854706,344.748718 103.071815,334.769165 
	C103.152229,331.072632 102.015976,329.889374 98.272034,329.927429 
	C81.300514,330.100098 64.326210,330.009521 47.352936,329.987457 
	C45.415951,329.984955 43.479179,329.817780 40.929394,329.698212 
	C40.929394,309.031006 40.929394,288.824951 40.929394,268.000000 
	C27.196728,268.000000 14.098364,268.000000 1.000000,268.000000 
	C1.000000,256.979095 1.000000,245.958206 1.468657,234.468933 
	C13.074966,234.000244 24.219990,233.763641 35.346802,234.110733 
	C40.095776,234.258881 41.113197,232.573456 41.086643,228.168365 
	C40.915329,199.743484 41.004028,171.317062 40.986973,142.891144 
	C40.985912,141.118164 40.811607,139.345276 40.687653,137.000000 
	C27.177116,137.000000 14.088558,137.000000 1.000000,137.000000 
M370.000000,157.500275 
	C370.000000,150.889969 370.000000,144.279663 370.000000,137.496277 
	C356.337250,137.496277 343.341034,137.496277 330.021393,137.496277 
	C330.021393,159.125671 329.988068,180.260025 330.108002,201.393509 
	C330.114838,202.602386 331.089539,204.167938 332.094238,204.951385 
	C339.771027,210.937637 347.537628,216.810303 355.337463,222.636429 
	C359.862000,226.016098 364.499664,229.244339 370.000000,233.197281 
	C370.000000,207.390717 370.000000,182.945450 370.000000,157.500275 
M184.499390,370.000000 
	C190.779648,370.000000 197.059891,370.000000 203.660461,370.000000 
	C203.660461,356.439697 203.660461,343.554596 203.660461,330.337311 
	C181.437469,330.337311 159.553375,330.337311 137.337067,330.337311 
	C137.337067,343.560181 137.337067,356.445679 137.337067,370.000000 
	C152.944092,370.000000 168.221893,370.000000 184.499390,370.000000 
z"/>
<path fill="#004C82" opacity="1.000000" stroke="none" 
	d="
M227.333328,513.000000 
	C227.000000,394.073334 227.000000,275.146698 227.000000,154.928574 
	C233.222321,159.506058 238.498398,163.329819 243.714279,167.234024 
	C273.954651,189.869614 304.197174,212.502365 334.407227,235.178406 
	C364.375458,257.672974 394.283356,280.248047 424.260223,302.731110 
	C451.023346,322.803864 477.840149,342.805084 504.647156,362.819214 
	C507.147278,364.685791 509.747375,366.418427 512.650513,368.106628 
	C513.000000,368.750000 513.000000,369.500000 512.541138,370.528870 
	C501.525696,371.532928 490.973450,372.330536 480.411407,372.964600 
	C467.853790,373.718445 455.286804,374.314819 442.725769,375.013580 
	C436.946106,375.335114 431.166809,375.682373 425.394562,376.114258 
	C408.430664,377.383453 391.474060,378.752502 374.507294,379.980804 
	C363.784485,380.757050 353.044983,381.303894 342.323730,382.098572 
	C341.208466,382.181244 339.893188,383.015320 339.133209,383.898651 
	C332.675415,391.404724 326.374725,399.045837 319.932037,406.565094 
	C305.646851,423.237274 291.341278,439.892212 276.978485,456.497467 
	C263.580078,471.987793 250.059830,487.372772 236.681717,502.880493 
	C233.920837,506.080872 231.550415,509.618073 229.000015,513.000000 
	C228.555557,513.000000 228.111099,513.000000 227.333328,513.000000 
z"/>
<path fill="#004C82" opacity="1.000000" stroke="none" 
	d="
M102.531342,1.000000 
	C103.000000,14.091463 103.000000,27.182926 103.000000,40.712849 
	C100.477196,40.825775 98.537247,40.985607 96.597099,40.988014 
	C79.802711,41.008854 63.006653,41.128635 46.215031,40.912624 
	C42.030685,40.858795 40.864811,42.171150 40.915897,46.275318 
	C41.122829,62.900864 41.000511,79.530510 40.999702,96.158638 
	C40.999607,98.132935 40.999691,100.107239 40.999691,103.000580 
	C27.709522,103.000580 14.823419,103.000580 1.468657,103.000290 
	C1.000000,69.073059 1.000000,35.146118 1.000000,1.000000 
	C34.687244,1.000000 68.374962,1.000000 102.531342,1.000000 
z"/>
<path fill="#004C82" opacity="1.000000" stroke="none" 
	d="
M369.531342,1.000000 
	C370.000000,34.740421 370.000000,68.480843 370.000000,102.629677 
	C367.868591,102.777008 366.264191,102.979271 364.659180,102.983932 
	C354.674957,103.012955 344.687134,102.845879 334.708099,103.074867 
	C330.930817,103.161552 329.896118,101.874985 329.930786,98.210899 
	C330.092926,81.072746 329.859039,63.930241 330.094666,46.793800 
	C330.156464,42.298912 328.959198,40.816673 324.297119,40.894241 
	C307.827576,41.168262 291.350739,41.000156 274.876648,40.999706 
	C272.898102,40.999649 270.919556,40.999695 268.000000,40.999695 
	C268.000000,27.723595 268.000000,14.830455 268.000000,1.468657 
	C301.687561,1.000000 335.375122,1.000000 369.531342,1.000000 
z"/>
<path fill="#004C82" opacity="1.000000" stroke="none" 
	d="
M1.000000,268.468658 
	C14.098364,268.000000 27.196728,268.000000 40.929394,268.000000 
	C40.929394,288.824951 40.929394,309.031006 40.929394,329.698212 
	C43.479179,329.817780 45.415951,329.984955 47.352936,329.987457 
	C64.326210,330.009521 81.300514,330.100098 98.272034,329.927429 
	C102.015976,329.889374 103.152229,331.072632 103.071815,334.769165 
	C102.854706,344.748718 102.819458,354.740906 103.084846,364.718140 
	C103.194191,368.828766 101.972557,370.105713 97.785980,370.084961 
	C65.837074,369.926575 33.887016,369.999237 1.468657,370.000000 
	C1.000000,336.312439 1.000000,302.624878 1.000000,268.468658 
z"/>
<path fill="#004C82" opacity="1.000000" stroke="none" 
	d="
M233.531342,1.000000 
	C234.000000,14.088584 234.000000,27.177168 234.000000,40.687649 
	C231.654724,40.811607 229.881836,40.985912 228.108856,40.986977 
	C199.682938,41.004032 171.256516,40.915333 142.831635,41.086647 
	C138.426559,41.113197 136.741104,40.095814 136.889267,35.346806 
	C137.236389,24.219992 136.999756,13.074967 136.999725,1.468657 
	C169.020889,1.000000 201.041794,1.000000 233.531342,1.000000 
z"/>
<path fill="#004C82" opacity="1.000000" stroke="none" 
	d="
M1.000000,137.468658 
	C14.088558,137.000000 27.177116,137.000000 40.687653,137.000000 
	C40.811607,139.345276 40.985912,141.118164 40.986973,142.891144 
	C41.004028,171.317062 40.915329,199.743484 41.086643,228.168365 
	C41.113197,232.573456 40.095776,234.258881 35.346802,234.110733 
	C24.219990,233.763641 13.074966,234.000244 1.468657,234.000275 
	C1.000000,201.979111 1.000000,169.958206 1.000000,137.468658 
z"/>
<path fill="#004C82" opacity="1.000000" stroke="none" 
	d="
M370.000000,158.000214 
	C370.000000,182.945450 370.000000,207.390717 370.000000,233.197281 
	C364.499664,229.244339 359.862000,226.016098 355.337463,222.636429 
	C347.537628,216.810303 339.771027,210.937637 332.094238,204.951385 
	C331.089539,204.167938 330.114838,202.602386 330.108002,201.393509 
	C329.988068,180.260025 330.021393,159.125671 330.021393,137.496277 
	C343.341034,137.496277 356.337250,137.496277 370.000000,137.496277 
	C370.000000,144.279663 370.000000,150.889969 370.000000,158.000214 
z"/>
<path fill="#004C82" opacity="1.000000" stroke="none" 
	d="
M183.999542,370.000000 
	C168.221893,370.000000 152.944092,370.000000 137.337067,370.000000 
	C137.337067,356.445679 137.337067,343.560181 137.337067,330.337311 
	C159.553375,330.337311 181.437469,330.337311 203.660461,330.337311 
	C203.660461,343.554596 203.660461,356.439697 203.660461,370.000000 
	C197.059891,370.000000 190.779648,370.000000 183.999542,370.000000 
z"/>
</svg>