<svg version="1.1" id="Layer_1" xmlns="http://www.w3.org/2000/svg" xmlns:xlink="http://www.w3.org/1999/xlink" x="0px" y="0px"
	 width="100%" viewBox="0 0 512 512" enable-background="new 0 0 512 512" xml:space="preserve">
<path fill="none" opacity="1.000000" stroke="none" 
	d="
M1.000000,400.000000 
	C1.000000,267.051086 1.000000,134.102203 1.000000,1.076650 
	C171.549957,1.076650 342.099945,1.076650 513.000000,1.076650 
	C513.000000,71.688927 513.000000,142.378433 512.637024,213.671997 
	C512.009094,214.082886 511.586914,213.942596 511.501648,213.689041 
	C506.831024,199.796844 498.356903,188.598389 487.517334,178.902267 
	C476.441406,168.994736 463.884460,161.689713 449.907654,156.933151 
	C424.625366,148.329117 398.560883,145.519775 371.500305,147.165512 
	C341.103241,147.075165 311.169891,147.016617 281.236542,147.013687 
	C272.763855,147.012863 264.291168,147.174515 255.365402,147.209534 
	C244.358795,147.100540 233.800430,146.839050 223.254227,147.089630 
	C219.153610,147.187088 215.080460,148.439972 210.570068,149.097290 
	C198.093918,151.955063 186.042480,154.882080 173.999893,157.372528 
	C175.005051,146.336731 176.567978,135.752457 176.847839,125.134369 
	C177.165863,113.068855 176.401382,100.970901 175.988907,88.891090 
	C175.536118,75.630577 173.148148,62.732716 167.968948,50.466949 
	C164.889206,43.173214 160.844070,36.472122 153.745132,32.346157 
	C141.487518,25.221897 123.466110,29.115999 111.637833,40.025398 
	C109.786438,41.369015 108.056839,42.394184 106.754128,43.811672 
	C100.859650,50.225418 94.614502,56.391708 89.359413,63.303814 
	C75.195503,81.933853 63.885277,102.265121 54.627510,124.105087 
	C53.576424,126.119972 52.776608,127.904968 52.076969,129.728409 
	C48.348568,139.445496 44.645233,149.172195 40.598045,159.081085 
	C37.226223,168.842743 34.189590,178.418900 30.979790,188.334351 
	C27.570406,200.366348 24.334192,212.059036 21.050398,224.164841 
	C18.996548,234.003876 16.990278,243.429779 14.653156,253.105713 
	C14.023286,255.279800 13.698811,257.200287 13.429502,259.128510 
	C11.994743,269.401398 10.573797,279.676208 9.073390,290.370270 
	C7.999082,299.850861 6.298424,308.899292 6.139595,317.974670 
	C5.759447,339.696075 5.025460,361.482574 9.076281,383.375641 
	C6.991924,388.589722 5.032971,393.461243 2.936075,398.272614 
	C2.622169,398.992859 1.661482,399.431244 1.000000,400.000000 
z"/>
<path fill="#000000" opacity="1.000000" stroke="none" 
	d="
M513.000000,240.000000 
	C513.000000,330.953949 513.000000,421.907928 513.000000,512.930908 
	C342.333344,512.930908 171.666672,512.930908 1.000000,512.930908 
	C1.000000,486.577454 1.000000,460.257385 1.346525,433.250488 
	C2.453591,434.141937 3.375132,435.663788 3.950277,437.306946 
	C11.427512,458.668427 25.766768,472.912323 47.987595,477.890686 
	C58.639248,480.277069 69.697151,481.043732 80.619377,481.980896 
	C95.044792,483.218658 109.517639,483.903687 124.435112,484.903564 
	C125.564651,484.996307 126.229103,485.016541 126.893700,485.026611 
	C156.512100,485.476074 186.091949,484.759155 215.599030,481.993927 
	C222.134735,481.381409 228.718872,480.956604 235.168274,479.811890 
	C257.589630,475.832214 274.631744,464.502991 284.470764,443.048096 
	C295.568970,442.917389 306.199524,442.816620 317.297913,442.827393 
	C356.499359,442.892090 395.233002,442.845245 434.431519,442.877441 
	C443.725891,442.974762 452.555450,442.985168 461.384918,443.013306 
	C474.944580,443.056519 488.203644,429.360046 488.123932,416.392212 
	C487.826019,367.913513 488.009979,319.431915 487.983521,270.951385 
	C487.981934,268.056335 488.042053,265.655579 491.191040,263.875000 
	C500.325989,258.709686 507.440460,251.575104 511.097748,241.433517 
	C511.323212,240.808319 512.347412,240.471161 513.000000,240.000000 
z"/>
<path fill="#AA6A51" opacity="1.000000" stroke="none" 
	d="
M123.970093,484.826294 
	C109.517639,483.903687 95.044792,483.218658 80.619377,481.980896 
	C69.697151,481.043732 58.639248,480.277069 47.987595,477.890686 
	C25.766768,472.912323 11.427512,458.668427 3.950277,437.306946 
	C3.375132,435.663788 2.453591,434.141937 1.346525,432.781860 
	C1.000000,422.312439 1.000000,411.624878 1.000000,400.468658 
	C1.661482,399.431244 2.622169,398.992859 2.936075,398.272614 
	C5.032971,393.461243 6.991924,388.589722 9.384594,383.259460 
	C10.445728,382.063416 11.216541,381.414734 11.775284,380.617432 
	C19.651571,369.377869 30.186020,361.623627 43.123589,357.299255 
	C51.280132,354.572968 59.633118,352.434326 68.061607,350.336731 
	C71.524796,356.761047 75.860291,362.565338 77.845779,369.085236 
	C80.028931,376.254242 80.239273,384.063904 80.952820,391.628021 
	C81.529297,397.739136 85.370735,401.366913 90.648972,399.993286 
	C95.147346,398.822632 96.168137,395.366211 96.388420,391.196136 
	C97.251778,374.852356 92.751526,359.994904 84.721535,346.149353 
	C88.787674,345.403809 92.398811,344.699280 96.441681,344.003265 
	C105.951096,343.029175 115.028786,342.046600 124.250473,341.371399 
	C125.821381,343.888367 127.325218,346.052521 128.660538,348.316071 
	C132.437973,354.719360 137.197800,360.799622 139.583160,367.694733 
	C141.919022,374.446686 142.036102,382.024109 142.699936,389.278320 
	C143.230896,395.080170 145.688660,398.512726 150.270920,398.587402 
	C155.032578,398.665009 157.843597,395.098785 158.075165,389.030426 
	C158.691330,372.883759 154.824966,358.038605 145.619003,344.642212 
	C144.759933,343.392120 144.578583,341.676239 144.536835,340.218384 
	C160.618881,341.574493 176.246658,342.888885 191.847488,344.589233 
	C192.260162,346.552002 192.308258,348.407257 193.200699,349.661987 
	C201.056747,360.707367 203.848495,373.114044 203.724182,386.445160 
	C203.669281,392.334290 206.554718,395.708984 211.113495,395.828949 
	C215.854843,395.953766 218.762939,392.324036 219.026825,386.351959 
	C219.597443,373.437439 216.865067,361.236603 211.793198,349.567688 
	C222.531357,352.133514 230.275162,358.621002 236.679443,366.684143 
	C249.265930,382.530853 253.688675,400.762543 250.888596,420.652313 
	C246.997589,448.291382 229.315079,473.433014 197.087433,477.587952 
	C175.010895,480.434143 152.674515,481.252228 130.463486,483.088104 
	C128.266144,483.269714 126.133026,484.228333 123.970093,484.826294 
z"/>
<path fill="#935B44" opacity="1.000000" stroke="none" 
	d="
M513.000000,239.531342 
	C512.347412,240.471161 511.323212,240.808319 511.097748,241.433517 
	C507.440460,251.575104 500.325989,258.709686 491.191040,263.875000 
	C488.042053,265.655579 487.981934,268.056335 487.983521,270.951385 
	C488.009979,319.431915 487.826019,367.913513 488.123932,416.392212 
	C488.203644,429.360046 474.944580,443.056519 461.384918,443.013306 
	C452.555450,442.985168 443.725891,442.974762 434.626312,442.614563 
	C451.865326,434.510925 455.401520,420.026428 455.166382,402.458923 
	C454.584686,359.001221 455.018188,315.530365 454.913818,272.065094 
	C454.903107,267.603394 456.175903,264.238617 459.323303,260.962006 
	C468.691467,251.209335 474.546875,239.777710 472.810516,225.819809 
	C471.119293,212.225357 464.166046,201.033218 454.825378,191.436142 
	C433.907104,169.943634 408.303741,156.789032 379.279724,149.917725 
	C376.768860,149.323288 374.399261,148.132294 371.964050,147.218414 
	C398.560883,145.519775 424.625366,148.329117 449.907654,156.933151 
	C463.884460,161.689713 476.441406,168.994736 487.517334,178.902267 
	C498.356903,188.598389 506.831024,199.796844 511.501648,213.689041 
	C511.586914,213.942596 512.009094,214.082886 512.637024,214.138031 
	C513.000000,222.354233 513.000000,230.708466 513.000000,239.531342 
z"/>
<path fill="#FED2A4" opacity="1.000000" stroke="none" 
	d="
M191.874435,344.203278 
	C176.246658,342.888885 160.618881,341.574493 144.231079,340.078979 
	C141.713486,338.303284 139.955902,336.708710 138.211075,334.638489 
	C138.224808,312.873535 138.173782,291.583984 138.278824,270.295197 
	C138.295990,266.812927 137.411331,264.462433 134.194839,262.569550 
	C125.962997,257.725159 119.789085,250.861603 115.783371,241.704102 
	C110.994431,228.700745 113.711601,216.713654 119.052475,204.646652 
	C129.663605,185.032150 145.561264,171.650894 165.041901,162.159317 
	C168.023621,160.706512 171.007935,159.259033 173.991043,157.809113 
	C186.042480,154.882080 198.093918,151.955063 210.957275,149.232239 
	C218.561584,149.959702 225.409943,150.097260 232.136642,151.073395 
	C260.406372,155.175827 285.729370,165.713455 305.934174,186.532211 
	C326.570496,207.795609 329.032623,236.836227 312.211365,259.902405 
	C309.168304,264.075256 307.986603,268.255035 308.001404,273.302979 
	C308.117157,312.776489 308.057953,352.250458 308.082489,391.724304 
	C308.084167,394.382721 308.102661,397.074982 308.496490,399.693848 
	C310.871307,415.484467 304.525208,427.646118 292.674896,437.348358 
	C290.529205,439.105103 287.419861,439.684845 284.829590,440.428345 
	C285.401642,438.464722 285.912506,436.884705 286.395447,435.296143 
	C296.176727,403.121674 281.287537,370.248718 250.704880,358.607666 
	C238.204575,353.849548 224.878769,351.260071 211.670502,347.628906 
	C211.280396,347.690033 211.148285,347.806244 211.008972,347.959290 
	C211.001755,347.996155 211.075485,348.010559 211.075592,347.746735 
	C210.758636,347.347107 210.441574,347.211304 209.900360,346.816223 
	C208.418701,344.844543 207.283218,343.024353 205.882080,341.438904 
	C200.465073,335.309204 194.830643,336.448761 191.874435,344.203278 
M204.079681,217.881805 
	C207.872589,218.551132 211.479507,217.785141 212.838821,214.044571 
	C213.677856,211.735703 213.686646,208.014603 212.330139,206.313156 
	C210.801956,204.396347 207.102097,202.880539 204.751755,203.326111 
	C202.430344,203.766205 199.703354,206.519852 198.783020,208.890793 
	C197.267456,212.795105 199.580811,215.860718 204.079681,217.881805 
M268.864349,231.859619 
	C274.979553,234.476105 280.042145,232.597977 280.997620,227.257019 
	C281.689911,223.387314 280.289520,220.360931 276.643463,218.726608 
	C273.263977,217.211761 270.026947,217.793869 267.664917,220.666962 
	C264.706726,224.265152 265.061951,227.946884 268.864349,231.859619 
M265.213684,293.262115 
	C264.774414,287.100372 261.539917,284.055603 256.264954,284.838104 
	C251.883820,285.488007 248.563095,289.715088 250.231583,293.823792 
	C251.233429,296.290863 254.050461,298.949646 256.575195,299.658966 
	C260.699341,300.817688 263.803406,298.325745 265.213684,293.262115 
M193.538254,283.597046 
	C194.879135,279.756012 194.607117,275.838898 190.774582,274.132416 
	C188.310196,273.035126 184.304321,272.995087 182.145676,274.338776 
	C180.247620,275.520264 178.889984,279.454407 179.273239,281.857147 
	C179.618607,284.022522 182.316757,286.506104 184.573074,287.509705 
	C187.909637,288.993713 190.988373,287.296783 193.538254,283.597046 
z"/>
<path fill="#AA6A51" opacity="1.000000" stroke="none" 
	d="
M371.500305,147.165512 
	C374.399261,148.132294 376.768860,149.323288 379.279724,149.917725 
	C408.303741,156.789032 433.907104,169.943634 454.825378,191.436142 
	C464.166046,201.033218 471.119293,212.225357 472.810516,225.819809 
	C474.546875,239.777710 468.691467,251.209335 459.323303,260.962006 
	C456.175903,264.238617 454.903107,267.603394 454.913818,272.065094 
	C455.018188,315.530365 454.584686,359.001221 455.166382,402.458923 
	C455.401520,420.026428 451.865326,434.510925 434.161438,442.535553 
	C395.233002,442.845245 356.499359,442.892090 317.569397,442.599609 
	C333.017578,436.460815 339.094635,427.775665 339.104492,410.944824 
	C339.131836,364.307434 339.156403,317.669952 339.043243,271.032837 
	C339.033783,267.130371 340.122528,264.745331 343.566071,262.587585 
	C358.177948,253.431747 365.756805,240.434891 363.978546,222.782364 
	C363.003052,213.098526 359.171417,204.450699 353.739197,196.545776 
	C339.790375,176.247513 320.532745,162.975845 297.128876,156.204697 
	C283.626495,152.298203 269.605865,150.183075 255.818497,147.261642 
	C264.291168,147.174515 272.763855,147.012863 281.236542,147.013687 
	C311.169891,147.016617 341.103241,147.075165 371.500305,147.165512 
z"/>
<path fill="#FFC344" opacity="1.000000" stroke="none" 
	d="
M118.864975,204.938293 
	C113.711601,216.713654 110.994431,228.700745 115.635780,242.049469 
	C114.877945,247.188156 114.038666,251.593201 113.518356,256.035614 
	C110.029381,285.825012 104.238731,315.151276 96.009949,343.994751 
	C92.398811,344.699280 88.787674,345.403809 84.491531,345.963593 
	C80.939781,342.828674 78.261856,339.313110 73.312271,340.960632 
	C68.975655,342.404083 67.891396,345.925476 67.897987,350.032104 
	C59.633118,352.434326 51.280132,354.572968 43.123589,357.299255 
	C30.186020,361.623627 19.651571,369.377869 11.775284,380.617432 
	C11.216541,381.414734 10.445728,382.063416 9.465208,382.897369 
	C5.025460,361.482574 5.759447,339.696075 6.139595,317.974670 
	C6.298424,308.899292 7.999082,299.850861 9.450073,290.409119 
	C15.772642,291.856903 21.591265,293.888153 27.536411,295.432281 
	C30.684902,296.250031 34.141495,296.875092 37.305447,296.448425 
	C45.850712,295.296112 52.018250,288.391296 52.801659,279.940613 
	C53.521027,272.180817 48.777481,264.415344 40.978027,261.556122 
	C32.402630,258.412445 23.656031,255.735794 14.984014,252.855682 
	C16.990278,243.429779 18.996548,234.003876 21.453560,224.153061 
	C30.815048,226.447098 39.702232,229.246506 48.642635,231.864120 
	C59.301323,234.984848 69.243225,230.041229 72.347916,220.232315 
	C75.477562,210.344559 70.288834,200.615417 59.711258,197.063309 
	C50.244347,193.884155 40.676353,191.005997 31.152958,187.995056 
	C34.189590,178.418900 37.226223,168.842743 40.938717,159.231812 
	C51.276554,162.278961 60.863411,165.628555 70.621742,168.367126 
	C80.294235,171.081635 89.856888,165.614914 92.798958,156.283066 
	C95.693047,147.103409 91.152168,137.645660 81.976395,133.872223 
	C79.826614,132.988129 77.578957,132.345230 75.396942,131.535812 
	C68.567665,129.002487 61.748249,126.442551 54.925007,123.892944 
	C63.885277,102.265121 75.195503,81.933853 89.359413,63.303814 
	C94.614502,56.391708 100.859650,50.225418 106.754128,43.811672 
	C108.056839,42.394184 109.786438,41.369015 111.734924,40.429810 
	C114.423363,66.025703 117.752625,91.316353 118.680733,116.694817 
	C119.664864,143.605255 118.345345,170.598892 118.105721,197.556839 
	C118.083870,200.014893 118.599129,202.477692 118.864975,204.938293 
z"/>
<path fill="#FFBD86" opacity="1.000000" stroke="none" 
	d="
M255.365402,147.209534 
	C269.605865,150.183075 283.626495,152.298203 297.128876,156.204697 
	C320.532745,162.975845 339.790375,176.247513 353.739197,196.545776 
	C359.171417,204.450699 363.003052,213.098526 363.978546,222.782364 
	C365.756805,240.434891 358.177948,253.431747 343.566071,262.587585 
	C340.122528,264.745331 339.033783,267.130371 339.043243,271.032837 
	C339.156403,317.669952 339.131836,364.307434 339.104492,410.944824 
	C339.094635,427.775665 333.017578,436.460815 317.101562,442.488098 
	C306.199524,442.816620 295.568970,442.917389 284.454681,442.732483 
	C284.232452,441.900543 284.493927,441.354279 284.755432,440.807983 
	C287.419861,439.684845 290.529205,439.105103 292.674896,437.348358 
	C304.525208,427.646118 310.871307,415.484467 308.496490,399.693848 
	C308.102661,397.074982 308.084167,394.382721 308.082489,391.724304 
	C308.057953,352.250458 308.117157,312.776489 308.001404,273.302979 
	C307.986603,268.255035 309.168304,264.075256 312.211365,259.902405 
	C329.032623,236.836227 326.570496,207.795609 305.934174,186.532211 
	C285.729370,165.713455 260.406372,155.175827 232.136642,151.073395 
	C225.409943,150.097260 218.561584,149.959702 211.381989,149.301483 
	C215.080460,148.439972 219.153610,147.187088 223.254227,147.089630 
	C233.800430,146.839050 244.358795,147.100540 255.365402,147.209534 
z"/>
<path fill="#FEB237" opacity="1.000000" stroke="none" 
	d="
M119.052475,204.646652 
	C118.599129,202.477692 118.083870,200.014893 118.105721,197.556839 
	C118.345345,170.598892 119.664864,143.605255 118.680733,116.694817 
	C117.752625,91.316353 114.423363,66.025703 112.053284,40.292007 
	C123.466110,29.115999 141.487518,25.221897 153.745132,32.346157 
	C160.844070,36.472122 164.889206,43.173214 167.968948,50.466949 
	C173.148148,62.732716 175.536118,75.630577 175.988907,88.891090 
	C176.401382,100.970901 177.165863,113.068855 176.847839,125.134369 
	C176.567978,135.752457 175.005051,146.336731 173.999893,157.372528 
	C171.007935,159.259033 168.023621,160.706512 165.041901,162.159317 
	C145.561264,171.650894 129.663605,185.032150 119.052475,204.646652 
z"/>
<path fill="#AB6B51" opacity="1.000000" stroke="none" 
	d="
M30.979790,188.334351 
	C40.676353,191.005997 50.244347,193.884155 59.711258,197.063309 
	C70.288834,200.615417 75.477562,210.344559 72.347916,220.232315 
	C69.243225,230.041229 59.301323,234.984848 48.642635,231.864120 
	C39.702232,229.246506 30.815048,226.447098 21.501141,223.739944 
	C24.334192,212.059036 27.570406,200.366348 30.979790,188.334351 
z"/>
<path fill="#AB6B51" opacity="1.000000" stroke="none" 
	d="
M54.627510,124.105087 
	C61.748249,126.442551 68.567665,129.002487 75.396942,131.535812 
	C77.578957,132.345230 79.826614,132.988129 81.976395,133.872223 
	C91.152168,137.645660 95.693047,147.103409 92.798958,156.283066 
	C89.856888,165.614914 80.294235,171.081635 70.621742,168.367126 
	C60.863411,165.628555 51.276554,162.278961 41.273903,159.046310 
	C44.645233,149.172195 48.348568,139.445496 52.076969,129.728409 
	C52.776608,127.904968 53.576424,126.119972 54.627510,124.105087 
z"/>
<path fill="#AB6B51" opacity="1.000000" stroke="none" 
	d="
M14.653158,253.105713 
	C23.656031,255.735794 32.402630,258.412445 40.978027,261.556122 
	C48.777481,264.415344 53.521027,272.180817 52.801659,279.940613 
	C52.018250,288.391296 45.850712,295.296112 37.305447,296.448425 
	C34.141495,296.875092 30.684902,296.250031 27.536411,295.432281 
	C21.591265,293.888153 15.772642,291.856903 9.524752,289.989197 
	C10.573797,279.676208 11.994743,269.401398 13.429502,259.128510 
	C13.698811,257.200287 14.023286,255.279800 14.653158,253.105713 
z"/>
<path fill="#945C44" opacity="1.000000" stroke="none" 
	d="
M284.829590,440.428345 
	C284.493927,441.354279 284.232452,441.900543 283.987061,442.762451 
	C274.631744,464.502991 257.589630,475.832214 235.168274,479.811890 
	C228.718872,480.956604 222.134735,481.381409 215.599030,481.993927 
	C186.091949,484.759155 156.512100,485.476074 126.893700,485.026611 
	C126.229103,485.016541 125.564651,484.996307 124.435112,484.903564 
	C126.133026,484.228333 128.266144,483.269714 130.463486,483.088104 
	C152.674515,481.252228 175.010895,480.434143 197.087433,477.587952 
	C229.315079,473.433014 246.997589,448.291382 250.888596,420.652313 
	C253.688675,400.762543 249.265930,382.530853 236.679443,366.684143 
	C230.275162,358.621002 222.531357,352.133514 211.749298,349.495361 
	C211.318802,349.441833 211.359482,349.277496 211.509140,348.881775 
	C211.748718,348.218658 211.838623,347.951324 211.928528,347.683990 
	C224.878769,351.260071 238.204575,353.849548 250.704880,358.607666 
	C281.287537,370.248718 296.176727,403.121674 286.395447,435.296143 
	C285.912506,436.884705 285.401642,438.464722 284.829590,440.428345 
z"/>
<path fill="#FEB237" opacity="1.000000" stroke="none" 
	d="
M96.441681,344.003265 
	C104.238731,315.151276 110.029381,285.825012 113.518356,256.035614 
	C114.038666,251.593201 114.877945,247.188156 115.717247,242.420441 
	C119.789085,250.861603 125.962997,257.725159 134.194839,262.569550 
	C137.411331,264.462433 138.295990,266.812927 138.278824,270.295197 
	C138.173782,291.583984 138.224808,312.873535 137.851181,334.492310 
	C130.055923,331.416351 126.532608,333.061066 124.106468,341.063995 
	C115.028786,342.046600 105.951096,343.029175 96.441681,344.003265 
z"/>
<path fill="#FEBD85" opacity="1.000000" stroke="none" 
	d="
M124.250473,341.371399 
	C126.532608,333.061066 130.055923,331.416351 137.838440,334.967957 
	C139.955902,336.708710 141.713486,338.303284 143.776794,340.037231 
	C144.578583,341.676239 144.759933,343.392120 145.619003,344.642212 
	C154.824966,358.038605 158.691330,372.883759 158.075165,389.030426 
	C157.843597,395.098785 155.032578,398.665009 150.270920,398.587402 
	C145.688660,398.512726 143.230896,395.080170 142.699936,389.278320 
	C142.036102,382.024109 141.919022,374.446686 139.583160,367.694733 
	C137.197800,360.799622 132.437973,354.719360 128.660538,348.316071 
	C127.325218,346.052521 125.821381,343.888367 124.250473,341.371399 
z"/>
<path fill="#FEBC85" opacity="1.000000" stroke="none" 
	d="
M68.061607,350.336731 
	C67.891396,345.925476 68.975655,342.404083 73.312271,340.960632 
	C78.261856,339.313110 80.939781,342.828674 84.036530,346.004639 
	C92.751526,359.994904 97.251778,374.852356 96.388420,391.196136 
	C96.168137,395.366211 95.147346,398.822632 90.648972,399.993286 
	C85.370735,401.366913 81.529297,397.739136 80.952820,391.628021 
	C80.239273,384.063904 80.028931,376.254242 77.845779,369.085236 
	C75.860291,362.565338 71.524796,356.761047 68.061607,350.336731 
z"/>
<path fill="#FEBC85" opacity="1.000000" stroke="none" 
	d="
M191.847488,344.589233 
	C194.830643,336.448761 200.465073,335.309204 205.882080,341.438904 
	C207.283218,343.024353 208.418701,344.844543 209.972305,347.048279 
	C210.446518,347.852356 210.715546,348.009338 211.075485,348.010559 
	C211.075485,348.010559 211.001755,347.996155 210.967560,348.201752 
	C210.976257,348.745972 211.118301,349.036011 211.359482,349.277496 
	C211.359482,349.277496 211.318802,349.441833 211.362701,349.514130 
	C216.865067,361.236603 219.597443,373.437439 219.026825,386.351959 
	C218.762939,392.324036 215.854843,395.953766 211.113495,395.828949 
	C206.554718,395.708984 203.669281,392.334290 203.724182,386.445160 
	C203.848495,373.114044 201.056747,360.707367 193.200699,349.661987 
	C192.308258,348.407257 192.260162,346.552002 191.847488,344.589233 
z"/>
<path fill="#AD6D53" opacity="1.000000" stroke="none" 
	d="
M203.697464,217.767670 
	C199.580811,215.860718 197.267456,212.795105 198.783020,208.890793 
	C199.703354,206.519852 202.430344,203.766205 204.751755,203.326111 
	C207.102097,202.880539 210.801956,204.396347 212.330139,206.313156 
	C213.686646,208.014603 213.677856,211.735703 212.838821,214.044571 
	C211.479507,217.785141 207.872589,218.551132 203.697464,217.767670 
z"/>
<path fill="#AC6C53" opacity="1.000000" stroke="none" 
	d="
M268.546570,231.606186 
	C265.061951,227.946884 264.706726,224.265152 267.664917,220.666962 
	C270.026947,217.793869 273.263977,217.211761 276.643463,218.726608 
	C280.289520,220.360931 281.689911,223.387314 280.997620,227.257019 
	C280.042145,232.597977 274.979553,234.476105 268.546570,231.606186 
z"/>
<path fill="#AC6C53" opacity="1.000000" stroke="none" 
	d="
M265.150757,293.663208 
	C263.803406,298.325745 260.699341,300.817688 256.575195,299.658966 
	C254.050461,298.949646 251.233429,296.290863 250.231583,293.823792 
	C248.563095,289.715088 251.883820,285.488007 256.264954,284.838104 
	C261.539917,284.055603 264.774414,287.100372 265.150757,293.663208 
z"/>
<path fill="#AC6C53" opacity="1.000000" stroke="none" 
	d="
M193.333191,283.942932 
	C190.988373,287.296783 187.909637,288.993713 184.573074,287.509705 
	C182.316757,286.506104 179.618607,284.022522 179.273239,281.857147 
	C178.889984,279.454407 180.247620,275.520264 182.145676,274.338776 
	C184.304321,272.995087 188.310196,273.035126 190.774582,274.132416 
	C194.607117,275.838898 194.879135,279.756012 193.333191,283.942932 
z"/>
<path fill="#AA6A51" opacity="1.000000" stroke="none" 
	d="
M211.075592,347.746735 
	C210.715546,348.009338 210.446518,347.852356 210.196457,347.307587 
	C210.441574,347.211304 210.758636,347.347107 211.075592,347.746735 
z"/>
<path fill="#AA6A51" opacity="1.000000" stroke="none" 
	d="
M211.509140,348.881775 
	C211.118301,349.036011 210.976257,348.745972 210.974792,348.164917 
	C211.148285,347.806244 211.280396,347.690033 211.670502,347.628906 
	C211.838623,347.951324 211.748718,348.218658 211.509140,348.881775 
z"/>
</svg>