<svg version="1.1" id="Layer_1" xmlns="http://www.w3.org/2000/svg" xmlns:xlink="http://www.w3.org/1999/xlink" x="0px" y="0px"
	 width="100%" viewBox="0 0 512 512" xml:space="preserve">

<path fill="#E09B2D" opacity="1.000000" stroke="none" 
	d="
M464.983704,19.195213 
	C469.563843,21.206062 474.723206,22.451302 478.603577,25.387081 
	C486.692963,31.507275 489.293945,39.260544 483.316010,52.367626 
	C480.900299,57.664280 479.233704,63.298603 476.938751,68.656128 
	C475.876678,71.135445 475.881348,72.835655 478.081665,74.661079 
	C481.023743,77.101921 482.031097,80.458176 480.433136,83.972656 
	C478.738098,87.700562 476.213562,90.765068 471.379730,89.989578 
	C468.673706,89.555458 467.713074,91.034286 466.956940,93.342438 
	C465.659180,97.303963 464.037506,101.159370 462.333588,105.632172 
	C454.512970,102.360855 447.075439,99.249779 439.333527,95.597824 
	C440.160492,91.417259 441.234161,87.758301 442.442169,84.144249 
	C443.340607,81.456398 442.638550,79.586746 439.966705,78.573479 
	C429.579651,74.634277 419.222534,70.608513 408.744904,66.926056 
	C407.512207,66.492828 404.671173,67.562988 404.175598,68.659370 
	C402.417358,72.549355 401.352448,76.752716 400.024872,80.837372 
	C391.340576,77.375443 382.656250,73.913521 373.800842,70.383385 
	C374.631561,67.958488 375.039001,65.636467 376.158661,63.733566 
	C378.583862,59.612061 379.132324,56.519650 375.372223,52.256599 
	C370.921326,47.210339 375.614563,38.589367 382.423523,38.019783 
	C383.733704,37.910179 385.060913,38.004040 385.928558,38.004040 
	C393.223724,25.894983 393.371979,10.459056 405.333984,1.239718 
	C410.688049,1.000000 416.376068,1.000000 422.532043,1.000005 
	C424.579620,2.088359 426.159241,3.176709 427.661316,4.843160 
	C422.609467,18.808357 417.538666,32.161842 412.842987,45.645958 
	C412.464661,46.732334 414.314819,49.569523 415.722473,50.146690 
	C425.722961,54.246994 435.897247,57.920822 445.971497,61.845222 
	C448.831940,62.959515 450.157532,62.118141 451.117279,59.284763 
	C455.653748,45.892563 460.346588,32.553326 464.983704,19.195213 
z"/>
<path fill="#B3B3B3" opacity="1.000000" stroke="none" 
	d="
M242.458069,513.000000 
	C241.665619,510.088440 241.094330,507.175720 241.108231,504.265808 
	C241.114151,503.023834 242.033798,501.370605 243.060974,500.612671 
	C254.792465,491.956024 266.764526,483.620636 278.385986,474.821289 
	C287.617249,467.831757 296.447693,460.313232 305.466309,453.042267 
	C308.627167,450.493988 311.821228,447.986969 314.995178,445.454895 
	C318.498596,442.659943 322.200714,443.343201 324.532867,446.421082 
	C326.846436,449.474579 327.509186,453.566101 323.850250,456.593811 
	C315.941467,463.138184 308.045502,469.710388 299.906372,475.961456 
	C284.422455,487.853516 268.769775,499.525818 253.201782,511.308685 
	C252.823029,511.595337 252.615509,512.108215 252.664062,512.757812 
	C249.638718,513.000000 246.277420,513.000000 242.458069,513.000000 
z"/>
<path fill="#F7B239" opacity="1.000000" stroke="none" 
	d="
M83.927681,478.028534 
	C68.361023,462.588165 52.794365,447.147797 37.101135,430.961151 
	C36.198219,424.277863 38.777870,419.562073 42.369381,415.176270 
	C47.108665,409.388855 51.823364,403.580627 56.491280,397.735535 
	C82.628906,365.006653 108.244621,331.843689 135.044769,299.667023 
	C154.390915,276.439728 175.057999,254.289825 195.602463,232.091202 
	C210.184540,216.335022 225.539566,201.293900 240.567169,185.950851 
	C241.790939,184.701385 243.150543,183.584976 244.372192,182.474762 
	C245.289352,183.092865 245.755783,183.309891 246.097763,183.651520 
	C273.912567,211.437851 301.687134,239.264572 329.571045,266.981262 
	C332.329498,269.723206 331.303406,271.329041 329.063446,273.465363 
	C313.289948,288.509338 297.780090,303.835846 281.796051,318.651428 
	C259.973694,338.878601 238.171387,359.155457 215.679123,378.623840 
	C194.326355,397.105957 172.241013,414.755005 150.204025,432.429016 
	C133.731476,445.640289 116.812370,458.294281 100.116364,471.227753 
	C95.312447,474.949097 90.395859,478.311340 83.927681,478.028534 
z"/>
<path fill="#E09B2D" opacity="1.000000" stroke="none" 
	d="
M84.048569,478.343475 
	C90.395859,478.311340 95.312447,474.949097 100.116364,471.227753 
	C116.812370,458.294281 133.731476,445.640289 150.204025,432.429016 
	C172.241013,414.755005 194.326355,397.105957 215.679123,378.623840 
	C238.171387,359.155457 259.973694,338.878601 281.796051,318.651428 
	C297.780090,303.835846 313.289948,288.509338 329.063446,273.465363 
	C331.303406,271.329041 332.329498,269.723206 329.571045,266.981262 
	C301.687134,239.264572 273.912567,211.437851 246.097763,183.651520 
	C245.755783,183.309891 245.289352,183.092865 244.372192,182.474762 
	C243.150543,183.584976 241.790939,184.701385 240.567169,185.950851 
	C225.539566,201.293900 210.184540,216.335022 195.602463,232.091202 
	C175.057999,254.289825 154.390915,276.439728 135.044769,299.667023 
	C108.244621,331.843689 82.628906,365.006653 56.491280,397.735535 
	C51.823364,403.580627 47.108665,409.388855 42.369381,415.176270 
	C38.777870,419.562073 36.198219,424.277863 36.964355,430.658630 
	C32.782188,427.055023 28.489979,423.122742 24.475117,418.925171 
	C21.063559,415.358398 20.973171,406.153778 24.132914,401.383484 
	C40.480984,376.702667 56.308273,351.651459 73.406059,327.500275 
	C88.879150,305.644012 105.439789,284.530212 122.117393,263.563507 
	C133.758011,248.929169 146.162354,234.877228 158.667831,220.962616 
	C172.377258,205.708420 186.590225,190.906616 200.593216,175.916504 
	C205.790253,170.353119 211.126480,164.912781 216.127197,159.179077 
	C217.083862,158.082184 217.535843,155.473862 216.899094,154.250961 
	C214.602692,149.840591 217.625168,144.915207 221.190460,142.406891 
	C224.956421,139.757401 228.741318,140.890472 231.966293,143.549225 
	C234.260788,145.440857 236.139191,147.837173 237.831696,149.617386 
	C245.960815,143.218018 253.366592,136.390305 261.732849,131.074142 
	C270.635803,125.416969 280.688019,123.400894 291.601379,124.655304 
	C304.078827,126.089493 314.284943,131.258591 323.050507,140.459579 
	C333.651489,129.854752 344.015808,119.536339 354.272736,109.112251 
	C354.943024,108.431053 355.263611,106.774300 354.941223,105.853401 
	C353.246002,101.011429 354.852936,96.983170 358.597595,94.328621 
	C362.616211,91.479874 368.302063,92.837769 372.441437,96.915573 
	C379.916748,104.279724 387.286316,111.751244 394.704773,119.173149 
	C402.007019,126.478813 409.514435,133.594864 416.510040,141.182983 
	C418.882019,143.755859 421.124084,147.419495 421.397888,150.751312 
	C421.948395,157.451202 416.233612,161.198273 409.390076,159.846710 
	C407.965118,159.565277 405.804962,159.889816 404.850189,160.822327 
	C394.502930,170.928345 384.328766,181.211639 374.048920,191.505051 
	C385.527069,202.223541 390.672089,215.310165 390.023682,230.799088 
	C389.546478,242.197403 385.143829,251.934265 377.932678,260.547211 
	C373.630005,265.686279 369.250916,270.761383 364.026337,276.898865 
	C366.086182,278.493500 368.135071,279.914948 369.992920,281.553070 
	C373.558838,284.697296 373.982513,288.601654 372.046997,292.722931 
	C369.926697,297.237640 365.668152,299.422943 361.439819,297.732758 
	C356.785553,295.872284 354.517670,298.309906 351.908691,300.669250 
	C348.453125,303.794067 345.337799,307.291412 341.964752,310.511902 
	C328.420441,323.443665 315.349854,336.933228 301.150238,349.103638 
	C274.511963,371.935150 247.338013,394.149139 220.149658,416.329224 
	C194.352188,437.374664 166.030838,454.827698 138.217148,472.994507 
	C129.770081,478.511810 121.534134,484.359436 113.308609,490.206512 
	C107.559296,494.293396 99.541481,493.886047 94.420753,488.894318 
	C90.963196,485.523834 87.583801,482.073212 84.048569,478.343475 
M275.520538,154.990616 
	C271.235901,158.932877 267.077240,163.024841 262.626129,166.769196 
	C259.170593,169.676071 259.041534,171.737518 262.449982,175.078415 
	C279.587311,191.876190 296.465393,208.938446 313.434814,225.907547 
	C322.273041,234.745621 331.122894,243.572144 339.941681,252.429581 
	C341.851746,254.348007 343.718170,255.980377 346.197571,253.278717 
	C355.184357,243.486160 365.038239,234.290466 370.108337,221.606979 
	C375.726959,207.551376 376.752075,193.994675 364.163330,182.658112 
	C361.710144,180.448959 362.559784,178.843628 364.525543,176.903275 
	C373.183624,168.357147 381.616974,159.578339 390.423065,151.189636 
	C393.970978,147.809921 394.487152,145.490387 390.615051,141.943024 
	C384.108490,135.982208 377.920746,129.653793 371.865204,123.229004 
	C369.071991,120.265427 367.208038,120.031013 364.255981,123.116592 
	C356.078186,131.664200 347.593262,139.918182 339.218811,148.277313 
	C334.541077,152.946503 334.367249,153.089706 329.812744,148.205505 
	C323.670898,141.619064 316.069061,140.216873 307.554291,140.765289 
	C295.339325,141.552032 285.371185,147.237915 275.520538,154.990616 
z"/>
<path fill="#B3B3B3" opacity="1.000000" stroke="none" 
	d="
M170.283234,156.237518 
	C158.171234,168.990997 145.959641,181.180573 134.549744,194.079315 
	C108.718735,223.280930 83.387001,252.916290 60.729374,284.715698 
	C58.252487,288.191925 53.215313,289.167542 49.743198,286.938477 
	C46.471207,284.837891 45.886848,280.603912 48.831017,276.680603 
	C59.323463,262.698700 69.663193,248.584702 80.639267,234.987747 
	C93.125038,219.520630 106.211029,204.537186 119.082947,189.383286 
	C122.069061,185.867783 125.188774,182.460754 128.345474,179.096207 
	C134.235596,172.818237 140.198593,166.608643 146.130051,160.369446 
	C152.521530,153.646332 158.853882,146.865707 165.323929,140.219101 
	C169.204193,136.232956 173.198547,135.996811 176.548660,139.246429 
	C179.006500,141.630539 178.298630,147.051590 175.265549,150.271194 
	C173.573715,152.067047 172.112640,154.080276 170.283234,156.237518 
z"/>
<path fill="#B3B3B3" opacity="1.000000" stroke="none" 
	d="
M257.336304,432.262634 
	C265.767670,425.526093 273.941345,419.050568 282.015411,412.453186 
	C288.352509,407.275146 294.519379,401.888855 300.854370,396.708160 
	C304.196625,393.974945 307.701141,394.478699 310.624298,397.336639 
	C313.021210,399.680145 312.626556,405.147675 309.858795,407.566925 
	C300.685516,415.585175 291.544922,423.657562 282.064056,431.302795 
	C270.597137,440.549530 258.929291,449.561249 247.103775,458.345306 
	C234.031815,468.055176 220.799683,477.560608 207.416946,486.837128 
	C197.127136,493.969727 186.502777,500.620270 176.013153,507.463654 
	C171.939545,510.121246 166.711685,509.454163 164.601944,506.066467 
	C162.590790,502.837158 164.355164,497.934021 168.191666,495.277924 
	C195.455154,476.402802 222.696075,457.494934 249.896484,438.529053 
	C252.445084,436.751984 254.663788,434.501740 257.336304,432.262634 
z"/>
<path fill="#2BA5F7" opacity="1.000000" stroke="none" 
	d="
M502.212677,220.290497 
	C493.299316,226.808929 484.554810,225.042709 476.049164,220.471741 
	C468.698730,216.521591 465.579773,209.912888 466.022430,201.686829 
	C466.597198,191.005920 467.308929,180.332108 468.007538,169.658249 
	C468.577972,160.942444 462.536469,151.393860 453.017151,147.942123 
	C451.226074,147.292664 449.537109,146.361542 447.801025,145.560394 
	C447.917358,145.088745 448.033691,144.617096 448.150024,144.145447 
	C455.581390,146.147812 463.305664,147.428574 470.383575,150.301712 
	C485.436646,156.412216 498.109558,165.675919 504.658997,181.307953 
	C509.454956,192.754761 511.691895,204.403412 505.367279,216.121323 
	C504.606781,217.530289 503.447571,218.724014 502.212677,220.290497 
z"/>
<path fill="#F7B239" opacity="1.000000" stroke="none" 
	d="
M464.612244,19.111244 
	C460.346588,32.553326 455.653748,45.892563 451.117279,59.284763 
	C450.157532,62.118141 448.831940,62.959515 445.971497,61.845222 
	C435.897247,57.920822 425.722961,54.246994 415.722473,50.146690 
	C414.314819,49.569523 412.464661,46.732334 412.842987,45.645958 
	C417.538666,32.161842 422.609467,18.808357 427.851044,5.175376 
	C440.159149,9.628754 452.199982,14.328016 464.612244,19.111244 
z"/>
<path fill="#B3B3B3" opacity="1.000000" stroke="none" 
	d="
M92.308762,183.216095 
	C81.687866,195.773407 71.291008,208.050888 60.981461,220.401276 
	C56.691200,225.540833 52.650871,230.888824 48.370358,236.036819 
	C46.358021,238.456970 40.804501,238.794312 38.413780,236.889633 
	C35.318138,234.423279 34.933445,229.456375 37.731194,225.846191 
	C41.656128,220.781509 45.560005,215.688797 49.725166,210.824081 
	C64.374474,193.714355 79.061859,176.636047 93.878510,159.671326 
	C100.825897,151.716736 108.047180,143.998077 115.254356,136.275177 
	C118.217316,133.100189 122.493607,133.008133 125.246475,135.730774 
	C127.870461,138.325943 127.773476,143.444412 125.118439,146.353302 
	C114.750793,157.712143 104.397568,169.084183 94.070236,180.479630 
	C93.432083,181.183777 93.062538,182.131378 92.308762,183.216095 
z"/>
<path fill="#B3B3B3" opacity="1.000000" stroke="none" 
	d="
M335.707916,384.790344 
	C332.767029,386.355316 329.997253,388.836670 327.445221,388.629913 
	C325.216888,388.449371 321.858093,385.468506 321.502228,383.311768 
	C321.088135,380.802429 322.727173,377.189789 324.657532,375.206909 
	C329.678070,370.049866 335.453949,365.638794 340.729645,360.716980 
	C348.591736,353.382294 356.249817,345.829437 364.062408,338.440979 
	C367.486786,335.202515 373.055542,335.122864 375.527374,338.090607 
	C378.075287,341.149719 377.345337,345.699158 373.931854,348.920502 
	C365.035309,357.316345 356.204681,365.782074 347.306061,374.175751 
	C343.582916,377.687653 339.754303,381.087830 335.707916,384.790344 
z"/>
<path fill="#B3B3B3" opacity="1.000000" stroke="none" 
	d="
M16.753098,322.751343 
	C20.443216,317.163269 23.832788,311.814850 27.323570,306.533386 
	C29.610622,303.073120 35.007977,301.678436 38.081261,303.617706 
	C41.293228,305.644409 42.182011,310.828125 39.731091,314.616211 
	C32.781994,325.356598 25.788757,336.069580 18.693068,346.713470 
	C15.824738,351.016113 11.723119,352.027588 8.238360,349.659363 
	C4.352539,347.018555 3.858337,343.430298 6.792360,338.652405 
	C10.001798,333.426086 13.259094,328.229156 16.753098,322.751343 
z"/>
<path fill="#F6B139" opacity="1.000000" stroke="none" 
	d="
M400.397064,80.909859 
	C401.352448,76.752716 402.417358,72.549355 404.175598,68.659370 
	C404.671173,67.562988 407.512207,66.492828 408.744904,66.926056 
	C419.222534,70.608513 429.579651,74.634277 439.966705,78.573479 
	C442.638550,79.586746 443.340607,81.456398 442.442169,84.144249 
	C441.234161,87.758301 440.160492,91.417259 439.000000,95.432854 
	C426.237000,90.866631 413.503113,85.924492 400.397064,80.909859 
z"/>
<path fill="#CC1B5B" opacity="1.000000" stroke="none" 
	d="
M290.998901,84.681076 
	C290.680328,90.010796 287.672180,93.215149 283.623657,92.994286 
	C280.152039,92.804886 277.155518,89.281563 277.020844,85.060135 
	C276.925476,82.071007 276.915771,79.073288 277.022156,76.084892 
	C277.203888,70.980484 279.715515,68.797050 285.015015,69.005318 
	C289.691650,69.189110 291.200562,71.966881 291.019684,76.245827 
	C290.907410,78.900795 290.998932,81.564369 290.998901,84.681076 
z"/>
<path fill="#CC1B5B" opacity="1.000000" stroke="none" 
	d="
M267.962402,49.551910 
	C271.667816,51.843445 272.015869,55.551594 270.605042,58.043560 
	C269.309662,60.331623 266.030212,62.021271 263.288727,62.818466 
	C260.535309,63.619137 257.358887,63.130020 254.382095,62.958519 
	C250.032394,62.707920 246.876053,59.306786 247.008972,55.281509 
	C247.145584,51.144775 249.663315,49.032246 254.730850,49.020592 
	C259.036041,49.010689 263.341644,49.172546 267.962402,49.551910 
z"/>
<path fill="#CC1B5B" opacity="1.000000" stroke="none" 
	d="
M297.062653,55.128975 
	C297.951569,50.148701 300.893555,48.660965 305.275452,48.964184 
	C308.082764,49.158443 310.923859,49.145943 313.732971,48.965153 
	C317.571564,48.718105 320.185638,50.077312 320.960968,53.996288 
	C321.858429,58.532814 319.469574,61.762009 315.499176,62.597130 
	C311.374847,63.464630 306.845673,63.353783 302.656830,62.670219 
	C299.274261,62.118237 297.119019,59.323612 297.062653,55.128975 
z"/>
<path fill="#CC1B5B" opacity="1.000000" stroke="none" 
	d="
M288.061035,19.638342 
	C289.245148,21.911970 290.598602,23.832420 290.886963,25.901321 
	C291.317780,28.992638 290.840607,32.198318 291.036285,35.337482 
	C291.322937,39.936073 288.335022,42.049778 284.743713,42.845097 
	C280.959686,43.683098 277.308899,39.926643 277.033081,35.637447 
	C276.884369,33.324810 276.999237,30.995026 277.000519,28.672979 
	C277.005310,20.127161 279.027252,18.375280 288.061035,19.638342 
z"/>
<path fill="#B3B3B3" opacity="1.000000" stroke="none" 
	d="
M371.210480,396.495911 
	C373.182922,391.585052 377.194641,391.363251 380.862274,392.188934 
	C384.290222,392.960663 385.366516,396.022186 385.049774,399.604248 
	C384.725922,403.266907 382.835388,405.314301 379.391113,405.940643 
	C374.669434,406.799194 371.187469,402.942841 371.210480,396.495911 
z"/>
<path fill="#F7B239" opacity="1.000000" stroke="none" 
	d="
M275.778442,154.745178 
	C285.371185,147.237915 295.339325,141.552032 307.554291,140.765289 
	C316.069061,140.216873 323.670898,141.619064 329.812744,148.205505 
	C334.367249,153.089706 334.541077,152.946503 339.218811,148.277313 
	C347.593262,139.918182 356.078186,131.664200 364.255981,123.116592 
	C367.208038,120.031013 369.071991,120.265427 371.865204,123.229004 
	C377.920746,129.653793 384.108490,135.982208 390.615051,141.943024 
	C394.487152,145.490387 393.970978,147.809921 390.423065,151.189636 
	C381.616974,159.578339 373.183624,168.357147 364.525543,176.903275 
	C362.559784,178.843628 361.710144,180.448959 364.163330,182.658112 
	C376.752075,193.994675 375.726959,207.551376 370.108337,221.606979 
	C365.038239,234.290466 355.184357,243.486160 346.197571,253.278717 
	C343.718170,255.980377 341.851746,254.348007 339.941681,252.429581 
	C331.122894,243.572144 322.273041,234.745621 313.434814,225.907547 
	C296.465393,208.938446 279.587311,191.876190 262.449982,175.078415 
	C259.041534,171.737518 259.170593,169.676071 262.626129,166.769196 
	C267.077240,163.024841 271.235901,158.932877 275.778442,154.745178 
z"/>
</svg>