<svg version="1.1" id="Layer_1" xmlns="http://www.w3.org/2000/svg" xmlns:xlink="http://www.w3.org/1999/xlink" x="0px" y="0px"
	 width="100%" viewBox="0 0 512 512" enable-background="new 0 0 512 512" xml:space="preserve">
<path fill="none" opacity="1.000000" stroke="none" 
	d="
M331.000000,513.000000 
	C220.693466,513.000000 110.886925,513.000000 1.040193,513.000000 
	C1.040193,342.401764 1.040193,171.803528 1.040193,1.102647 
	C171.556549,1.102647 342.113159,1.102647 512.834900,1.102647 
	C512.834900,171.666534 512.834900,342.333252 512.834900,513.000000 
	C452.470184,513.000000 391.985077,513.000000 331.000000,513.000000 
M255.791077,311.507660 
	C248.781601,318.538055 241.772141,325.568420 233.749359,333.615143 
	C236.899857,334.872131 239.257401,336.567749 241.664825,336.641815 
	C251.777542,336.952850 261.910980,336.965454 272.023285,336.651611 
	C274.554413,336.573059 277.035187,334.873169 280.490082,333.555878 
	C272.109528,325.245605 264.928162,318.124451 257.941895,310.332489 
	C261.439056,306.797333 264.936218,303.262177 268.977051,299.177429 
	C276.269531,306.756195 283.377289,314.143036 289.929718,320.952728 
	C297.852112,313.032837 305.211426,305.675873 312.639740,298.249939 
	C311.890503,297.318726 310.785675,295.945557 309.752869,294.661896 
	C313.440033,290.874298 316.909790,287.309998 320.597687,283.521637 
	C333.275696,296.239014 345.819885,308.822144 358.039429,321.079590 
	C388.444366,290.668213 418.431671,260.674561 448.622070,230.477768 
	C447.248627,228.982224 445.498779,227.076782 443.883087,225.317413 
	C447.760681,221.532837 451.384552,217.995895 455.112671,214.357193 
	C456.820435,215.959656 458.702240,217.725403 460.584015,219.491135 
	C461.030914,219.320328 461.477814,219.149506 461.924713,218.978683 
	C461.817230,217.408981 462.097626,215.685303 461.544769,214.292389 
	C451.437897,188.829575 430.734924,174.076431 407.864594,161.604309 
	C407.111816,161.193802 405.580933,162.210251 404.412750,162.561539 
	C404.205963,163.091568 403.999146,163.621597 403.792328,164.151627 
	C406.750244,166.315491 409.708130,168.479355 411.704041,169.939468 
	C407.669342,174.549652 404.301422,178.397964 399.826141,183.511627 
	C397.471924,180.196701 395.364288,177.228958 392.889038,173.743591 
	C375.568634,191.077820 359.103699,207.555893 342.994995,223.677444 
	C339.324127,220.174683 335.650452,216.669266 330.916473,212.152100 
	C336.430298,207.185272 341.932312,202.229080 346.961121,197.699127 
	C339.213318,189.879761 331.972534,182.572113 325.103119,175.639236 
	C317.934204,182.806427 310.575623,190.163223 302.397888,198.338989 
	C309.490173,205.081879 316.911621,212.137680 323.486237,218.388382 
	C319.759857,222.620285 316.405823,226.429352 312.578003,230.776428 
	C293.835541,212.018082 275.385223,193.552139 256.308868,174.459625 
	C250.474442,180.510956 244.627716,186.575027 239.507141,191.885971 
	C235.329330,188.212296 231.510910,184.854614 227.033859,180.917786 
	C233.397720,174.964447 239.451614,169.301071 245.162354,163.958710 
	C237.423187,156.147614 230.096848,148.753174 223.219131,141.811523 
	C216.078583,148.950607 208.708740,156.318924 200.557465,164.468521 
	C204.997711,168.441010 209.804398,172.741333 213.811691,176.326477 
	C209.886658,180.523712 206.422226,184.228424 202.737534,188.168655 
	C188.731369,174.143494 174.615341,160.005386 160.495575,145.871002 
	C155.507904,140.878174 154.827820,140.877609 149.734894,145.966782 
	C133.822708,161.867264 117.917503,177.774734 102.016014,193.685913 
	C100.900986,194.801590 99.838203,195.969482 98.781731,197.080917 
	C100.985283,199.471893 102.760399,201.397995 103.665245,202.379791 
	C100.104393,206.573486 96.810608,210.452637 93.458054,214.401001 
	C91.237976,212.344772 89.321983,210.570175 87.871864,209.227097 
	C80.278961,216.833466 72.917526,224.207947 66.137413,231.000076 
	C73.159111,238.014099 80.533852,245.380814 88.831306,253.669220 
	C91.992340,249.915771 95.504646,245.745193 98.190819,242.555603 
	C102.546318,246.413467 106.355255,249.787231 110.747154,253.677353 
	C106.666504,257.492889 102.798096,261.109985 99.215416,264.459900 
	C118.109253,283.364441 136.780807,302.046600 156.201599,321.478394 
	C163.016296,314.317017 170.081558,306.892303 176.558701,300.085663 
	C180.702271,303.986389 184.391113,307.459015 188.694214,311.509918 
	C183.159500,316.817810 177.666061,322.086121 171.648895,327.856720 
	C185.168274,330.444366 197.865616,333.470764 210.906540,334.017517 
	C211.214890,333.410400 211.523254,332.803253 211.831604,332.196136 
	C206.927124,328.001312 202.022644,323.806519 197.443085,319.889648 
	C201.955414,315.391998 205.551727,311.807434 209.724197,307.648529 
	C213.917191,312.034149 218.361618,316.682709 223.472702,322.028564 
	C231.034897,314.375305 238.233505,307.089966 245.718140,299.515167 
	C249.327438,303.450012 252.791611,307.226624 255.791077,311.507660 
M442.509094,301.018768 
	C428.827545,311.828400 413.724640,320.212219 397.706055,326.956299 
	C359.987946,342.836395 320.436371,350.136078 279.732574,352.285339 
	C234.797302,354.658020 190.586655,350.606323 147.320892,337.967712 
	C116.013229,328.822266 86.799255,315.570251 62.389347,293.244812 
	C61.671608,292.588348 60.547989,292.375732 58.892342,291.632324 
	C77.947731,342.149811 111.490936,378.326141 158.638382,402.152527 
	C176.715500,411.287964 195.793549,417.524170 215.725342,421.131287 
	C219.639908,421.839691 223.748337,422.893738 224.492340,427.313477 
	C225.467102,433.104279 229.015839,432.010406 233.002136,431.735443 
	C233.002136,419.025055 232.957520,406.713043 233.020660,394.401581 
	C233.052994,388.097290 235.950211,385.081635 242.083221,385.026703 
	C252.080078,384.937225 262.079041,384.930206 272.075684,385.030396 
	C277.944458,385.089233 280.915741,388.120178 280.971954,394.069855 
	C281.064819,403.899994 280.998505,413.731659 280.999176,423.562683 
	C280.999359,426.325012 280.999207,429.087311 280.999207,431.849640 
	C281.455322,432.243378 281.911407,432.637146 282.367523,433.030884 
	C284.592194,431.714996 288.270844,430.799713 288.764801,429.006927 
	C290.162903,423.932983 293.375763,422.135498 297.935028,421.152496 
	C305.407318,419.541351 312.971954,418.156158 320.252014,415.887451 
	C382.238831,396.570435 427.529175,358.439758 452.612061,297.738892 
	C453.309631,296.050842 453.687744,294.230804 454.214813,292.472321 
	C453.895569,292.306122 453.576324,292.139954 453.257080,291.973785 
	C449.861298,294.842987 446.465515,297.712189 442.509094,301.018768 
M249.000977,411.523865 
	C249.000977,439.940399 249.000977,468.356934 249.000977,496.701477 
	C254.653290,496.701477 259.722290,496.701477 264.707855,496.701477 
	C264.707855,464.676910 264.707855,432.950745 264.707855,401.300354 
	C259.343079,401.300354 254.274063,401.300354 249.000977,401.300354 
	C249.000977,404.576935 249.000977,407.555817 249.000977,411.523865 
M386.320496,443.230225 
	C393.077087,461.167480 399.833679,479.104706 406.494415,496.787445 
	C411.665558,496.787445 416.257812,496.787445 421.225494,496.787445 
	C420.599091,494.933502 420.122131,493.374969 419.550537,491.851959 
	C409.762360,465.770325 399.988220,439.683380 390.139587,413.624603 
	C388.507416,409.305939 388.582550,405.608307 392.416962,402.401917 
	C393.332550,401.636261 393.591431,400.085205 394.632355,397.877197 
	C385.114960,403.541168 376.831970,408.407043 368.646729,413.432190 
	C367.752228,413.981293 367.420349,415.446777 366.234344,417.528198 
	C374.899933,415.681427 378.048645,419.929138 380.035706,426.165527 
	C381.795441,431.688477 384.034912,437.058563 386.320496,443.230225 
M103.222061,497.009064 
	C106.334312,497.612762 107.861015,496.333374 108.975929,493.295044 
	C116.868965,471.785248 125.043159,450.378632 132.947739,428.872986 
	C135.430801,422.117462 137.310287,415.100922 147.613678,417.319336 
	C147.621277,416.633789 147.628860,415.948212 147.636444,415.262665 
	C138.641541,409.635925 129.646652,404.009186 119.609474,397.730438 
	C120.214943,399.850159 120.172997,401.454651 120.899307,401.964355 
	C125.932816,405.496704 125.301483,409.754730 123.398491,414.748352 
	C114.648323,437.709930 106.097588,460.747498 97.486359,483.761963 
	C95.889229,488.030457 94.342926,492.317993 92.621880,497.009064 
	C96.321419,497.009064 99.310524,497.009064 103.222061,497.009064 
M379.932922,161.608887 
	C374.291718,155.961670 368.819519,150.126389 362.891541,144.798264 
	C361.393341,143.451691 357.363525,142.521332 356.329315,143.446960 
	C349.427155,149.624283 343.021637,156.356537 336.926636,162.437775 
	C344.631012,170.133118 351.970703,177.464249 359.569916,185.054565 
	C366.253571,178.361938 373.303436,171.334457 380.277161,164.232208 
	C380.653839,163.848587 380.392456,162.838425 379.932922,161.608887 
M305.957153,155.545670 
	C301.095001,150.582230 296.232849,145.618774 291.776123,141.069214 
	C283.952820,148.882980 276.593353,156.233505 269.800934,163.017654 
	C276.836823,170.043961 284.182770,177.379883 290.927765,184.115692 
	C297.859467,177.168320 305.187408,169.823807 312.768829,162.225204 
	C310.953033,160.447205 308.705872,158.246857 305.957153,155.545670 
M277.837097,130.896713 
	C276.546997,130.360535 275.262177,129.374008 273.966003,129.358917 
	C262.853394,129.229340 251.738739,129.261230 240.624771,129.285721 
	C239.082672,129.289124 237.541061,129.515335 236.124100,129.628433 
	C243.418335,136.923279 250.395737,143.901276 257.620605,151.126755 
	C263.987091,144.778427 270.658539,138.125977 277.837097,130.896713 
M90.707581,279.706512 
	C89.632263,278.711151 88.556946,277.715759 87.434044,276.676331 
	C84.419670,279.920441 81.562569,282.995300 78.523041,286.266479 
	C91.531731,296.791931 105.900162,305.427612 122.186172,311.088318 
	C111.862793,300.797241 101.539421,290.506134 90.707581,279.706512 
M430.925293,280.488800 
	C429.533447,279.165588 428.141602,277.842377 427.463287,277.197479 
	C415.568359,289.040436 404.095886,300.462769 392.806366,311.702972 
	C408.215363,305.263000 422.772125,296.729492 436.306305,285.481720 
	C434.364502,283.700867 432.892334,282.350739 430.925293,280.488800 
M330.548645,315.931244 
	C329.071228,313.736694 327.593842,311.542145 326.116425,309.347626 
	C326.129150,310.378998 326.141876,311.410370 326.154602,312.441742 
	C318.491180,319.493103 310.827759,326.544464 303.164368,333.595856 
	C303.241730,333.937897 303.319092,334.279968 303.396484,334.622040 
	C316.154877,332.515778 328.913300,330.409515 343.018951,328.080841 
	C338.363739,323.549286 334.707733,319.990387 330.548645,315.931244 
M455.138550,264.630554 
	C457.636353,259.208466 460.341370,253.866714 462.496338,248.311615 
	C463.085846,246.791901 462.025055,244.631989 461.815063,243.340515 
	C453.860718,251.229324 446.483978,258.545258 439.274994,265.694824 
	C441.672577,268.249207 444.504547,271.266418 447.723328,274.695740 
	C450.234680,271.340637 452.509766,268.301239 455.138550,264.630554 
M52.874016,252.584747 
	C55.965961,260.695831 60.316650,267.996033 65.712570,273.711060 
	C69.274963,270.586121 72.477722,267.776642 75.244331,265.349762 
	C67.733002,257.807648 60.471760,250.516647 53.009224,243.023529 
	C48.593407,245.508987 52.032417,248.816452 52.874016,252.584747 
M329.148071,147.597580 
	C332.596985,144.570480 336.045929,141.543396 339.494843,138.516312 
	C339.125397,138.018738 338.755951,137.521164 338.386475,137.023590 
	C327.719971,135.273972 317.053467,133.524368 305.725494,131.666245 
	C312.738556,138.561127 319.034943,144.751373 325.495178,151.102707 
	C326.283020,150.353729 327.472717,149.222748 329.148071,147.597580 
M187.539124,150.240601 
	C188.383301,150.444351 189.673782,151.106720 190.005539,150.783890 
	C196.115753,144.837997 202.111374,138.774338 209.077469,131.786346 
	C202.270355,132.729538 196.883530,133.355118 191.541901,134.250229 
	C186.263306,135.134796 181.030350,136.291733 175.777374,137.329178 
	C175.485153,137.838623 175.192947,138.348068 174.900742,138.857513 
	C178.931183,142.486221 182.961639,146.114914 187.539124,150.240601 
M61.331783,211.837677 
	C66.197495,207.123581 71.063210,202.409470 75.777992,197.841599 
	C72.989914,194.948196 70.617592,192.486267 67.955879,189.724014 
	C60.648388,197.231293 55.240459,205.993942 51.959095,216.042099 
	C51.654190,216.975769 52.528217,218.294418 53.228924,220.739807 
	C56.384102,217.252731 58.607059,214.795929 61.331783,211.837677 
M101.346420,171.846466 
	C105.660110,167.527939 109.973808,163.209412 114.287498,158.890900 
	C113.821327,158.333344 113.355156,157.775803 112.888992,157.218262 
	C101.880630,164.038605 90.872276,170.858963 80.276718,177.423553 
	C83.038185,180.686905 85.136688,183.166779 87.598190,186.075653 
	C92.308739,181.194046 96.577530,176.770233 101.346420,171.846466 
z"/>
<path fill="#E26761" opacity="1.000000" stroke="none" 
	d="
M442.789429,300.800079 
	C446.465515,297.712189 449.861298,294.842987 453.257080,291.973785 
	C453.576324,292.139954 453.895569,292.306122 454.214813,292.472321 
	C453.687744,294.230804 453.309631,296.050842 452.612061,297.738892 
	C427.529175,358.439758 382.238831,396.570435 320.252014,415.887451 
	C312.971954,418.156158 305.407318,419.541351 297.935028,421.152496 
	C293.375763,422.135498 290.162903,423.932983 288.764801,429.006927 
	C288.270844,430.799713 284.592194,431.714996 282.367523,433.030884 
	C281.911407,432.637146 281.455322,432.243378 280.999207,431.849640 
	C280.999207,429.087311 280.999359,426.325012 280.999176,423.562683 
	C280.998505,413.731659 281.064819,403.899994 280.971954,394.069855 
	C280.915741,388.120178 277.944458,385.089233 272.075684,385.030396 
	C262.079041,384.930206 252.080078,384.937225 242.083221,385.026703 
	C235.950211,385.081635 233.052994,388.097290 233.020660,394.401581 
	C232.957520,406.713043 233.002136,419.025055 233.002136,431.735443 
	C229.015839,432.010406 225.467102,433.104279 224.492340,427.313477 
	C223.748337,422.893738 219.639908,421.839691 215.725342,421.131287 
	C195.793549,417.524170 176.715500,411.287964 158.638382,402.152527 
	C111.490936,378.326141 77.947731,342.149811 58.892342,291.632324 
	C60.547989,292.375732 61.671608,292.588348 62.389347,293.244812 
	C86.799255,315.570251 116.013229,328.822266 147.320892,337.967712 
	C190.586655,350.606323 234.797302,354.658020 279.732574,352.285339 
	C320.436371,350.136078 359.987946,342.836395 397.706055,326.956299 
	C413.724640,320.212219 428.827545,311.828400 442.789429,300.800079 
z"/>
<path fill="#F2955F" opacity="1.000000" stroke="none" 
	d="
M256.255768,311.003235 
	C252.791611,307.226624 249.327438,303.450012 245.718140,299.515167 
	C238.233505,307.089966 231.034897,314.375305 223.472702,322.028564 
	C218.361618,316.682709 213.917191,312.034149 209.724197,307.648529 
	C205.551727,311.807434 201.955414,315.391998 197.443085,319.889648 
	C202.022644,323.806519 206.927124,328.001312 211.831604,332.196136 
	C211.523254,332.803253 211.214890,333.410400 210.906540,334.017517 
	C197.865616,333.470764 185.168274,330.444366 171.648895,327.856720 
	C177.666061,322.086121 183.159500,316.817810 188.694214,311.509918 
	C184.391113,307.459015 180.702271,303.986389 176.558701,300.085663 
	C170.081558,306.892303 163.016296,314.317017 156.201599,321.478394 
	C136.780807,302.046600 118.109253,283.364441 99.215416,264.459900 
	C102.798096,261.109985 106.666504,257.492889 110.747154,253.677353 
	C106.355255,249.787231 102.546318,246.413467 98.190819,242.555603 
	C95.504646,245.745193 91.992340,249.915771 88.831306,253.669220 
	C80.533852,245.380814 73.159111,238.014099 66.137413,231.000076 
	C72.917526,224.207947 80.278961,216.833466 87.871864,209.227097 
	C89.321983,210.570175 91.237976,212.344772 93.458054,214.401001 
	C96.810608,210.452637 100.104393,206.573486 103.665245,202.379791 
	C102.760399,201.397995 100.985283,199.471893 98.781731,197.080917 
	C99.838203,195.969482 100.900986,194.801590 102.016014,193.685913 
	C117.917503,177.774734 133.822708,161.867264 149.734894,145.966782 
	C154.827820,140.877609 155.507904,140.878174 160.495575,145.871002 
	C174.615341,160.005386 188.731369,174.143494 202.737534,188.168655 
	C206.422226,184.228424 209.886658,180.523712 213.811691,176.326477 
	C209.804398,172.741333 204.997711,168.441010 200.557465,164.468521 
	C208.708740,156.318924 216.078583,148.950607 223.219131,141.811523 
	C230.096848,148.753174 237.423187,156.147614 245.162354,163.958710 
	C239.451614,169.301071 233.397720,174.964447 227.033859,180.917786 
	C231.510910,184.854614 235.329330,188.212296 239.507141,191.885971 
	C244.627716,186.575027 250.474442,180.510956 256.308868,174.459625 
	C275.385223,193.552139 293.835541,212.018082 312.578003,230.776428 
	C316.405823,226.429352 319.759857,222.620285 323.486237,218.388382 
	C316.911621,212.137680 309.490173,205.081879 302.397888,198.338989 
	C310.575623,190.163223 317.934204,182.806427 325.103119,175.639236 
	C331.972534,182.572113 339.213318,189.879761 346.961121,197.699127 
	C341.932312,202.229080 336.430298,207.185272 330.916473,212.152100 
	C335.650452,216.669266 339.324127,220.174683 342.994995,223.677444 
	C359.103699,207.555893 375.568634,191.077820 392.889038,173.743591 
	C395.364288,177.228958 397.471924,180.196701 399.826141,183.511627 
	C404.301422,178.397964 407.669342,174.549652 411.704041,169.939468 
	C409.708130,168.479355 406.750244,166.315491 403.792328,164.151627 
	C403.999146,163.621597 404.205963,163.091568 404.412750,162.561539 
	C405.580933,162.210251 407.111816,161.193802 407.864594,161.604309 
	C430.734924,174.076431 451.437897,188.829575 461.544769,214.292389 
	C462.097626,215.685303 461.817230,217.408981 461.924713,218.978683 
	C461.477814,219.149506 461.030914,219.320328 460.584015,219.491135 
	C458.702240,217.725403 456.820435,215.959656 455.112671,214.357193 
	C451.384552,217.995895 447.760681,221.532837 443.883087,225.317413 
	C445.498779,227.076782 447.248627,228.982224 448.622070,230.477768 
	C418.431671,260.674561 388.444366,290.668213 358.039429,321.079590 
	C345.819885,308.822144 333.275696,296.239014 320.597687,283.521637 
	C316.909790,287.309998 313.440033,290.874298 309.752869,294.661896 
	C310.785675,295.945557 311.890503,297.318726 312.639740,298.249939 
	C305.211426,305.675873 297.852112,313.032837 289.929718,320.952728 
	C283.377289,314.143036 276.269531,306.756195 268.977051,299.177429 
	C264.936218,303.262177 261.439056,306.797333 257.595825,310.666840 
	C256.918457,311.000458 256.587097,311.001160 256.255768,311.003235 
M278.081818,282.586273 
	C280.570221,278.685791 283.769989,275.060669 285.407166,270.830719 
	C289.513947,260.219910 290.253510,249.017273 288.173248,237.891754 
	C284.904633,220.410690 273.189941,210.027039 255.458466,209.086258 
	C244.339188,208.496292 233.137146,208.495071 222.022079,209.118423 
	C213.843857,209.577072 208.387619,206.337036 203.923569,200.003464 
	C199.801895,194.155655 195.504089,188.418640 191.038193,182.829086 
	C172.924652,160.158035 130.355270,166.198578 118.993668,193.606857 
	C112.325272,209.693420 110.820778,226.233398 115.694160,242.944870 
	C124.744041,273.978119 147.258362,289.588745 177.766403,294.936920 
	C199.751358,298.790955 221.970673,297.435150 244.054916,295.544464 
	C256.208954,294.503906 268.175507,291.996399 278.081818,282.586273 
M424.746643,241.222305 
	C428.863037,233.468536 433.748108,226.002060 436.795410,217.848724 
	C438.509094,213.263550 438.263428,207.267349 437.007507,202.394730 
	C434.523132,192.756073 425.413696,186.573822 415.341736,186.177475 
	C405.312195,185.782791 395.745392,191.758286 392.124847,201.891251 
	C384.711853,222.638306 355.275146,238.838501 334.713470,234.384094 
	C322.843445,231.812592 310.722809,240.641403 308.064026,252.480377 
	C305.280670,264.874176 312.205231,277.363983 324.177277,280.833130 
	C328.446960,282.070343 333.004730,282.865967 337.438080,282.898438 
	C372.953247,283.158600 401.972778,269.491577 424.746643,241.222305 
z"/>
<path fill="#E0F2F3" opacity="1.000000" stroke="none" 
	d="
M249.000977,411.029297 
	C249.000977,407.555817 249.000977,404.576935 249.000977,401.300354 
	C254.274063,401.300354 259.343079,401.300354 264.707855,401.300354 
	C264.707855,432.950745 264.707855,464.676910 264.707855,496.701477 
	C259.722290,496.701477 254.653290,496.701477 249.000977,496.701477 
	C249.000977,468.356934 249.000977,439.940399 249.000977,411.029297 
z"/>
<path fill="#D0E0E1" opacity="1.000000" stroke="none" 
	d="
M386.191528,442.863190 
	C384.034912,437.058563 381.795441,431.688477 380.035706,426.165527 
	C378.048645,419.929138 374.899933,415.681427 366.234344,417.528198 
	C367.420349,415.446777 367.752228,413.981293 368.646729,413.432190 
	C376.831970,408.407043 385.114960,403.541168 394.632355,397.877197 
	C393.591431,400.085205 393.332550,401.636261 392.416962,402.401917 
	C388.582550,405.608307 388.507416,409.305939 390.139587,413.624603 
	C399.988220,439.683380 409.762360,465.770325 419.550537,491.851959 
	C420.122131,493.374969 420.599091,494.933502 421.225494,496.787445 
	C416.257812,496.787445 411.665558,496.787445 406.494415,496.787445 
	C399.833679,479.104706 393.077087,461.167480 386.191528,442.863190 
z"/>
<path fill="#D0E0E1" opacity="1.000000" stroke="none" 
	d="
M102.760849,497.009064 
	C99.310524,497.009064 96.321419,497.009064 92.621880,497.009064 
	C94.342926,492.317993 95.889229,488.030457 97.486359,483.761963 
	C106.097588,460.747498 114.648323,437.709930 123.398491,414.748352 
	C125.301483,409.754730 125.932816,405.496704 120.899307,401.964355 
	C120.172997,401.454651 120.214943,399.850159 119.609474,397.730438 
	C129.646652,404.009186 138.641541,409.635925 147.636444,415.262665 
	C147.628860,415.948212 147.621277,416.633789 147.613678,417.319336 
	C137.310287,415.100922 135.430801,422.117462 132.947739,428.872986 
	C125.043159,450.378632 116.868965,471.785248 108.975929,493.295044 
	C107.861015,496.333374 106.334312,497.612762 102.760849,497.009064 
z"/>
<path fill="#F3965F" opacity="1.000000" stroke="none" 
	d="
M380.180511,161.864395 
	C380.392456,162.838425 380.653839,163.848587 380.277161,164.232208 
	C373.303436,171.334457 366.253571,178.361938 359.569916,185.054565 
	C351.970703,177.464249 344.631012,170.133118 336.926636,162.437775 
	C343.021637,156.356537 349.427155,149.624283 356.329315,143.446960 
	C357.363525,142.521332 361.393341,143.451691 362.891541,144.798264 
	C368.819519,150.126389 374.291718,155.961670 380.180511,161.864395 
z"/>
<path fill="#F3965F" opacity="1.000000" stroke="none" 
	d="
M306.207947,155.796082 
	C308.705872,158.246857 310.953033,160.447205 312.768829,162.225204 
	C305.187408,169.823807 297.859467,177.168320 290.927765,184.115692 
	C284.182770,177.379883 276.836823,170.043961 269.800934,163.017654 
	C276.593353,156.233505 283.952820,148.882980 291.776123,141.069214 
	C296.232849,145.618774 301.095001,150.582230 306.207947,155.796082 
z"/>
<path fill="#F2955F" opacity="1.000000" stroke="none" 
	d="
M256.023438,311.255432 
	C256.587097,311.001160 256.918457,311.000458 257.498291,311.002258 
	C264.928162,318.124451 272.109528,325.245605 280.490082,333.555878 
	C277.035187,334.873169 274.554413,336.573059 272.023285,336.651611 
	C261.910980,336.965454 251.777542,336.952850 241.664825,336.641815 
	C239.257401,336.567749 236.899857,334.872131 233.749359,333.615143 
	C241.772141,325.568420 248.781601,318.538055 256.023438,311.255432 
z"/>
<path fill="#F1955F" opacity="1.000000" stroke="none" 
	d="
M277.583557,131.185120 
	C270.658539,138.125977 263.987091,144.778427 257.620605,151.126755 
	C250.395737,143.901276 243.418335,136.923279 236.124100,129.628433 
	C237.541061,129.515335 239.082672,129.289124 240.624771,129.285721 
	C251.738739,129.261230 262.853394,129.229340 273.966003,129.358917 
	C275.262177,129.374008 276.546997,130.360535 277.583557,131.185120 
z"/>
<path fill="#F1945E" opacity="1.000000" stroke="none" 
	d="
M90.961807,279.960754 
	C101.539421,290.506134 111.862793,300.797241 122.186172,311.088318 
	C105.900162,305.427612 91.531731,296.791931 78.523041,286.266479 
	C81.562569,282.995300 84.419670,279.920441 87.434044,276.676331 
	C88.556946,277.715759 89.632263,278.711151 90.961807,279.960754 
z"/>
<path fill="#F1945E" opacity="1.000000" stroke="none" 
	d="
M431.172729,280.744690 
	C432.892334,282.350739 434.364502,283.700867 436.306305,285.481720 
	C422.772125,296.729492 408.215363,305.263000 392.806366,311.702972 
	C404.095886,300.462769 415.568359,289.040436 427.463287,277.197479 
	C428.141602,277.842377 429.533447,279.165588 431.172729,280.744690 
z"/>
<path fill="#F2955F" opacity="1.000000" stroke="none" 
	d="
M330.800171,316.181335 
	C334.707733,319.990387 338.363739,323.549286 343.018951,328.080841 
	C328.913300,330.409515 316.154877,332.515778 303.396484,334.622040 
	C303.319092,334.279968 303.241730,333.937897 303.164368,333.595856 
	C310.827759,326.544464 318.491180,319.493103 326.154602,312.441742 
	C326.141876,311.410370 326.129150,310.378998 326.116425,309.347626 
	C327.593842,311.542145 329.071228,313.736694 330.800171,316.181335 
z"/>
<path fill="#F1945E" opacity="1.000000" stroke="none" 
	d="
M454.961700,264.946198 
	C452.509766,268.301239 450.234680,271.340637 447.723328,274.695740 
	C444.504547,271.266418 441.672577,268.249207 439.274994,265.694824 
	C446.483978,258.545258 453.860718,251.229324 461.815063,243.340515 
	C462.025055,244.631989 463.085846,246.791901 462.496338,248.311615 
	C460.341370,253.866714 457.636353,259.208466 454.961700,264.946198 
z"/>
<path fill="#F1945E" opacity="1.000000" stroke="none" 
	d="
M52.734558,252.216522 
	C52.032417,248.816452 48.593407,245.508987 53.009224,243.023529 
	C60.471760,250.516647 67.733002,257.807648 75.244331,265.349762 
	C72.477722,267.776642 69.274963,270.586121 65.712570,273.711060 
	C60.316650,267.996033 55.965961,260.695831 52.734558,252.216522 
z"/>
<path fill="#EA905C" opacity="1.000000" stroke="none" 
	d="
M328.905243,147.844666 
	C327.472717,149.222748 326.283020,150.353729 325.495178,151.102707 
	C319.034943,144.751373 312.738556,138.561127 305.725494,131.666245 
	C317.053467,133.524368 327.719971,135.273972 338.386475,137.023590 
	C338.755951,137.521164 339.125397,138.018738 339.494843,138.516312 
	C336.045929,141.543396 332.596985,144.570480 328.905243,147.844666 
z"/>
<path fill="#F1955E" opacity="1.000000" stroke="none" 
	d="
M187.265594,149.992111 
	C182.961639,146.114914 178.931183,142.486221 174.900742,138.857513 
	C175.192947,138.348068 175.485153,137.838623 175.777374,137.329178 
	C181.030350,136.291733 186.263306,135.134796 191.541901,134.250229 
	C196.883530,133.355118 202.270355,132.729538 209.077469,131.786346 
	C202.111374,138.774338 196.115753,144.837997 190.005539,150.783890 
	C189.673782,151.106720 188.383301,150.444351 187.265594,149.992111 
z"/>
<path fill="#E88F5B" opacity="1.000000" stroke="none" 
	d="
M61.080898,212.088409 
	C58.607059,214.795929 56.384102,217.252731 53.228924,220.739807 
	C52.528217,218.294418 51.654190,216.975769 51.959095,216.042099 
	C55.240459,205.993942 60.648388,197.231293 67.955879,189.724014 
	C70.617592,192.486267 72.989914,194.948196 75.777992,197.841599 
	C71.063210,202.409470 66.197495,207.123581 61.080898,212.088409 
z"/>
<path fill="#E68E5A" opacity="1.000000" stroke="none" 
	d="
M101.096375,172.096436 
	C96.577530,176.770233 92.308739,181.194046 87.598190,186.075653 
	C85.136688,183.166779 83.038185,180.686905 80.276718,177.423553 
	C90.872276,170.858963 101.880630,164.038605 112.888992,157.218262 
	C113.355156,157.775803 113.821327,158.333344 114.287498,158.890900 
	C109.973808,163.209412 105.660110,167.527939 101.096375,172.096436 
z"/>
<path fill="#030201" opacity="1.000000" stroke="none" 
	d="
M277.828857,282.837524 
	C268.175507,291.996399 256.208954,294.503906 244.054916,295.544464 
	C221.970673,297.435150 199.751358,298.790955 177.766403,294.936920 
	C147.258362,289.588745 124.744041,273.978119 115.694160,242.944870 
	C110.820778,226.233398 112.325272,209.693420 118.993668,193.606857 
	C130.355270,166.198578 172.924652,160.158035 191.038193,182.829086 
	C195.504089,188.418640 199.801895,194.155655 203.923569,200.003464 
	C208.387619,206.337036 213.843857,209.577072 222.022079,209.118423 
	C233.137146,208.495071 244.339188,208.496292 255.458466,209.086258 
	C273.189941,210.027039 284.904633,220.410690 288.173248,237.891754 
	C290.253510,249.017273 289.513947,260.219910 285.407166,270.830719 
	C283.769989,275.060669 280.570221,278.685791 277.828857,282.837524 
M193.777100,280.855865 
	C200.773163,280.890747 207.788727,281.274475 214.761017,280.884399 
	C227.367447,280.179077 240.058334,279.734863 252.508713,277.835968 
	C265.205048,275.899567 270.467163,269.587799 272.387146,256.948914 
	C272.909424,253.510971 273.006042,249.986099 273.032593,246.499100 
	C273.134552,233.110382 266.740509,225.762070 253.440262,225.014862 
	C243.657257,224.465256 233.759796,224.257843 224.016129,225.094696 
	C208.819717,226.399841 198.068497,220.128174 189.849640,207.943268 
	C186.320587,202.711258 182.687393,197.433777 178.366699,192.873123 
	C165.255341,179.033646 140.412689,183.315460 133.274689,200.972412 
	C124.027100,223.847702 128.168182,254.372070 155.222046,270.260742 
	C166.858994,277.095123 179.631485,279.685638 193.777100,280.855865 
z"/>
<path fill="#040202" opacity="1.000000" stroke="none" 
	d="
M424.521667,241.502350 
	C401.972778,269.491577 372.953247,283.158600 337.438080,282.898438 
	C333.004730,282.865967 328.446960,282.070343 324.177277,280.833130 
	C312.205231,277.363983 305.280670,264.874176 308.064026,252.480377 
	C310.722809,240.641403 322.843445,231.812592 334.713470,234.384094 
	C355.275146,238.838501 384.711853,222.638306 392.124847,201.891251 
	C395.745392,191.758286 405.312195,185.782791 415.341736,186.177475 
	C425.413696,186.573822 434.523132,192.756073 437.007507,202.394730 
	C438.263428,207.267349 438.509094,213.263550 436.795410,217.848724 
	C433.748108,226.002060 428.863037,233.468536 424.521667,241.502350 
M392.086914,250.634384 
	C405.562805,241.526169 415.441498,229.493362 421.422485,214.343643 
	C423.779785,208.372650 421.417816,203.184082 415.892090,202.386551 
	C411.303802,201.724335 408.439270,204.092453 406.692383,208.308823 
	C402.683655,217.984573 396.955505,226.514801 388.685699,233.057205 
	C372.451782,245.900223 354.551788,253.504471 333.256012,250.268250 
	C328.019501,249.472473 324.061340,252.546692 323.550842,257.237427 
	C323.065216,261.699554 326.028748,265.235107 331.108215,266.022247 
	C334.060242,266.479675 337.044617,266.809021 340.026764,266.978241 
	C359.153046,268.063507 375.875641,261.334839 392.086914,250.634384 
z"/>
<path fill="#E16760" opacity="1.000000" stroke="none" 
	d="
M193.309097,280.834473 
	C179.631485,279.685638 166.858994,277.095123 155.222046,270.260742 
	C128.168182,254.372070 124.027100,223.847702 133.274689,200.972412 
	C140.412689,183.315460 165.255341,179.033646 178.366699,192.873123 
	C182.687393,197.433777 186.320587,202.711258 189.849640,207.943268 
	C198.068497,220.128174 208.819717,226.399841 224.016129,225.094696 
	C233.759796,224.257843 243.657257,224.465256 253.440262,225.014862 
	C266.740509,225.762070 273.134552,233.110382 273.032593,246.499100 
	C273.006042,249.986099 272.909424,253.510971 272.387146,256.948914 
	C270.467163,269.587799 265.205048,275.899567 252.508713,277.835968 
	C240.058334,279.734863 227.367447,280.179077 214.761017,280.884399 
	C207.788727,281.274475 200.773163,280.890747 193.309097,280.834473 
M161.432846,201.006729 
	C146.920776,201.667435 136.614792,212.160568 137.031113,225.851578 
	C137.425247,238.813553 148.547485,249.254425 161.647110,248.959564 
	C174.062408,248.680099 184.405701,238.514786 184.957687,226.050125 
	C185.536545,212.978195 176.234314,202.704514 161.432846,201.006729 
M208.861435,249.819839 
	C203.707245,249.449463 198.553040,249.079086 193.341034,248.704559 
	C193.341034,254.636398 193.341034,259.686584 193.341034,264.610992 
	C198.738480,264.610992 203.793442,264.610992 208.975739,264.610992 
	C208.975739,259.740753 208.975739,255.254242 208.861435,249.819839 
M246.284897,256.992645 
	C247.182846,256.349091 248.823807,255.743118 248.858582,255.055893 
	C249.090240,250.475922 248.978745,245.878586 248.978745,241.373367 
	C243.294235,241.373367 238.240982,241.373367 233.244354,241.373367 
	C233.244354,246.677826 233.244354,251.611115 233.244354,256.454224 
	C233.766403,256.676575 234.054718,256.903717 234.345947,256.907532 
	C238.005051,256.955475 241.664581,256.971161 246.284897,256.992645 
z"/>
<path fill="#DF665F" opacity="1.000000" stroke="none" 
	d="
M391.783020,250.829681 
	C375.875641,261.334839 359.153046,268.063507 340.026764,266.978241 
	C337.044617,266.809021 334.060242,266.479675 331.108215,266.022247 
	C326.028748,265.235107 323.065216,261.699554 323.550842,257.237427 
	C324.061340,252.546692 328.019501,249.472473 333.256012,250.268250 
	C354.551788,253.504471 372.451782,245.900223 388.685699,233.057205 
	C396.955505,226.514801 402.683655,217.984573 406.692383,208.308823 
	C408.439270,204.092453 411.303802,201.724335 415.892090,202.386551 
	C421.417816,203.184082 423.779785,208.372650 421.422485,214.343643 
	C415.441498,229.493362 405.562805,241.526169 391.783020,250.829681 
z"/>
<path fill="#030101" opacity="1.000000" stroke="none" 
	d="
M161.867889,201.018097 
	C176.234314,202.704514 185.536545,212.978195 184.957687,226.050125 
	C184.405701,238.514786 174.062408,248.680099 161.647110,248.959564 
	C148.547485,249.254425 137.425247,238.813553 137.031113,225.851578 
	C136.614792,212.160568 146.920776,201.667435 161.867889,201.018097 
M167.846481,229.108047 
	C169.863556,223.561661 168.391586,219.343842 163.810455,217.543121 
	C159.736832,215.941879 155.201248,217.921677 153.583862,222.115112 
	C152.137939,225.864029 153.153046,229.147614 156.329758,231.388809 
	C160.367264,234.237305 164.167755,233.407562 167.846481,229.108047 
z"/>
<path fill="#000000" opacity="1.000000" stroke="none" 
	d="
M208.918579,250.293793 
	C208.975739,255.254242 208.975739,259.740753 208.975739,264.610992 
	C203.793442,264.610992 198.738480,264.610992 193.341034,264.610992 
	C193.341034,259.686584 193.341034,254.636398 193.341034,248.704559 
	C198.553040,249.079086 203.707245,249.449463 208.918579,250.293793 
z"/>
<path fill="#000000" opacity="1.000000" stroke="none" 
	d="
M245.804443,256.993866 
	C241.664581,256.971161 238.005051,256.955475 234.345947,256.907532 
	C234.054718,256.903717 233.766403,256.676575 233.244354,256.454224 
	C233.244354,251.611115 233.244354,246.677826 233.244354,241.373367 
	C238.240982,241.373367 243.294235,241.373367 248.978745,241.373367 
	C248.978745,245.878586 249.090240,250.475922 248.858582,255.055893 
	C248.823807,255.743118 247.182846,256.349091 245.804443,256.993866 
z"/>
<path fill="#EAABB5" opacity="1.000000" stroke="none" 
	d="
M167.619385,229.423889 
	C164.167755,233.407562 160.367264,234.237305 156.329758,231.388809 
	C153.153046,229.147614 152.137939,225.864029 153.583862,222.115112 
	C155.201248,217.921677 159.736832,215.941879 163.810455,217.543121 
	C168.391586,219.343842 169.863556,223.561661 167.619385,229.423889 
z"/>
</svg>