<svg version="1.1" id="Layer_1" xmlns="http://www.w3.org/2000/svg" xmlns:xlink="http://www.w3.org/1999/xlink" x="0px" y="0px"
	 width="100%" viewBox="0 0 512 512" xml:space="preserve">

<path fill="#FA4239" opacity="1.000000" stroke="none" 
	d="
M387.991516,88.678528 
	C381.846161,86.042465 377.435699,88.545692 372.699249,92.438408 
	C359.455688,103.322876 344.368927,105.742203 328.253754,100.070145 
	C312.942078,94.680878 302.180389,81.421677 299.392731,65.194519 
	C328.979523,65.194519 358.529022,65.194519 386.934204,65.194519 
	C389.859802,68.057762 392.194672,70.342842 394.802063,72.854767 
	C392.765533,78.171875 390.456482,83.262154 387.991516,88.678528 
z"/>
<path fill="#B8623F" opacity="1.000000" stroke="none" 
	d="
M290.960541,133.515381 
	C295.191925,131.905090 297.805420,129.455246 299.278931,124.978439 
	C301.070404,119.535522 306.652679,120.366257 311.607971,119.821777 
	C316.618317,121.820885 321.078583,123.497734 325.258850,125.456848 
	C322.295959,129.436188 321.596069,133.752884 324.366791,137.171768 
	C325.935516,139.107452 329.760803,140.373871 332.346558,140.066162 
	C336.714844,139.546341 338.142059,135.785156 337.916473,129.023804 
	C339.824860,128.462219 341.431213,128.230164 343.039917,128.016083 
	C349.862946,127.108109 356.806122,126.714523 363.474823,125.150108 
	C369.499390,123.736778 375.224243,121.045715 381.081268,118.918106 
	C382.988220,121.356438 384.895142,123.794777 386.790344,126.891830 
	C383.375824,144.656021 373.756500,157.097046 358.012695,164.365219 
	C346.645050,169.613098 334.586578,172.585129 321.888428,172.070358 
	C317.198090,166.753540 312.097534,161.734589 307.950684,156.023163 
	C304.784149,151.661926 301.560455,148.947220 295.585266,150.143860 
	C293.772736,144.705856 292.381500,139.323334 290.960541,133.515381 
M350.836639,140.801804 
	C351.747467,145.245529 354.533417,147.387985 358.987335,146.963043 
	C363.379059,146.544037 365.231537,143.407898 365.534119,139.463913 
	C365.852661,135.311829 364.310730,131.975677 359.942871,130.648727 
	C354.626526,129.033615 350.925629,132.816681 350.836639,140.801804 
z"/>
<path fill="#A04223" opacity="1.000000" stroke="none" 
	d="
M212.997452,298.000427 
	C213.831604,300.611481 214.999359,303.169647 215.423615,305.845673 
	C216.100662,310.116455 218.237625,312.745361 222.744720,313.894775 
	C220.397873,319.851379 217.741028,325.624786 214.951172,331.733704 
	C209.233337,329.755341 205.146301,331.746674 200.479370,335.376740 
	C188.260910,344.880615 173.910706,348.709259 158.507416,347.919159 
	C155.372742,347.758362 152.330383,345.797668 149.478241,344.339417 
	C152.821472,343.678009 155.941589,343.415649 159.040878,342.998474 
	C183.434891,339.715088 207.397812,328.425476 212.997452,298.000427 
z"/>
<path fill="#B7623F" opacity="1.000000" stroke="none" 
	d="
M212.914948,297.669861 
	C207.397812,328.425476 183.434891,339.715088 159.040878,342.998474 
	C155.941589,343.415649 152.821472,343.678009 149.252258,344.058624 
	C134.815475,333.165924 126.194901,319.111450 124.506699,301.282227 
	C123.974556,295.662201 126.344795,293.122498 131.861038,291.852936 
	C145.606567,288.689362 159.309113,285.311035 173.124176,282.484467 
	C190.781769,278.871704 204.659515,284.265533 212.914948,297.669861 
M163.683228,305.931824 
	C162.578217,302.854767 162.228989,299.077301 160.184341,296.871094 
	C157.383560,293.849030 152.217972,295.375427 150.033920,298.974274 
	C147.548920,303.069000 148.871353,309.006927 152.762558,311.226379 
	C156.846252,313.555634 160.763443,311.888947 163.683228,305.931824 
M178.883759,316.459290 
	C182.497879,319.426575 186.262268,319.636780 189.449127,316.153229 
	C192.437683,312.886414 192.496292,308.868927 190.167099,305.157806 
	C188.156158,301.953766 184.934631,301.220795 181.453857,302.369141 
	C177.709549,303.604462 175.992340,307.700470 176.986771,312.747101 
	C177.201218,313.835388 177.878784,314.832489 178.883759,316.459290 
z"/>
<path fill="#B8623F" opacity="1.000000" stroke="none" 
	d="
M147.887741,172.071976 
	C134.886261,161.113449 126.272842,147.603348 124.525826,130.426620 
	C123.773804,123.032791 126.526611,120.957855 137.607422,119.822281 
	C142.617905,121.821342 147.077988,123.498222 151.259613,125.457954 
	C148.319595,129.446899 147.624054,133.767181 150.391617,137.183121 
	C151.956604,139.114746 155.787338,140.373230 158.369003,140.058777 
	C162.750534,139.525101 164.171402,135.769104 163.926437,129.015839 
	C165.834412,128.457291 167.441376,128.230011 169.050110,128.015915 
	C175.871628,127.108139 182.813034,126.712990 189.480103,125.148247 
	C195.503403,123.734589 201.227005,121.043999 207.082779,118.916512 
	C208.990417,121.353661 210.898056,123.790802 212.793854,126.887100 
	C209.447906,144.700882 199.775085,157.094284 184.026154,164.360886 
	C172.651642,169.609116 160.590149,172.581375 147.887741,172.071976 
M182.892517,130.395615 
	C182.117844,130.681747 181.268692,130.847687 180.580841,131.273941 
	C176.743591,133.651901 175.451630,139.516556 177.824371,143.537933 
	C179.761856,146.821640 183.820023,148.011887 187.320602,146.323105 
	C191.266800,144.419342 193.284393,138.890640 190.643082,134.828583 
	C189.250427,132.686874 186.024933,131.736969 182.892517,130.395615 
z"/>
<path fill="#FA4239" opacity="1.000000" stroke="none" 
	d="
M130.614258,80.276611 
	C128.531052,75.227112 126.657623,70.482353 124.581131,65.223297 
	C155.151672,65.223297 184.854080,65.223297 214.575089,65.223297 
	C211.693069,83.228943 198.239243,97.477486 180.101196,101.827087 
	C162.930099,105.944809 143.519989,98.671791 133.341141,84.297096 
	C132.476791,83.076447 131.661896,81.820770 130.614258,80.276611 
z"/>
<path fill="#1BCC90" opacity="1.000000" stroke="none" 
	d="
M210.319229,257.868866 
	C210.319229,262.801819 210.319229,267.734772 210.319229,273.555542 
	C199.580322,267.301849 188.566345,265.744476 177.431122,267.222626 
	C166.937180,268.615601 156.647461,271.500916 146.227661,273.522247 
	C142.348038,274.274811 138.359985,274.502716 134.410980,274.852570 
	C131.073151,275.148254 129.441681,273.403748 129.422897,270.145538 
	C129.400864,266.322418 129.470535,262.498749 130.061981,258.298584 
	C157.188751,257.904144 183.753998,257.886505 210.319229,257.868866 
z"/>
<path fill="#01AB6E" opacity="1.000000" stroke="none" 
	d="
M210.437866,257.531494 
	C183.753998,257.886505 157.188751,257.904144 130.152130,257.895660 
	C128.807007,250.409729 129.683548,249.371902 137.166672,249.364532 
	C159.153168,249.342896 181.139709,249.339249 203.126190,249.367203 
	C210.091934,249.376053 210.819107,250.198792 210.437866,257.531494 
z"/>
<path fill="#D41918" opacity="1.000000" stroke="none" 
	d="
M172.091232,202.271317 
	C165.992569,202.385696 159.893921,202.500076 153.220276,202.150894 
	C142.862778,198.937561 133.699371,195.101624 126.945488,187.038437 
	C134.517548,186.784821 141.880951,186.364136 149.325363,189.547287 
	C157.738632,193.144714 167.042892,192.881271 175.705856,190.182175 
	C187.042709,186.650024 198.515411,186.566589 210.408005,187.240295 
	C201.280945,193.974487 190.702271,197.400772 179.778717,199.996460 
	C177.182632,200.613342 174.651978,201.505692 172.091232,202.271317 
z"/>
<path fill="#F2B707" opacity="1.000000" stroke="none" 
	d="
M196.984619,366.047363 
	C198.764328,366.047363 200.544037,366.047363 202.881256,366.047363 
	C202.881256,370.505585 203.046204,374.637848 202.763306,378.739197 
	C202.694077,379.742920 201.161896,381.470764 200.297470,381.473785 
	C179.661987,381.546082 159.025833,381.430389 138.389938,381.322784 
	C138.111893,381.321320 137.835617,380.984253 137.143097,380.533356 
	C137.143097,376.837402 137.143097,372.868500 137.589935,368.458801 
	C148.345062,372.540527 159.013672,375.332764 170.271164,372.923004 
	C179.254608,371.000031 188.085831,368.365845 196.984619,366.047363 
z"/>
<path fill="#F19000" opacity="1.000000" stroke="none" 
	d="
M137.332748,228.033859 
	C137.332748,224.752350 137.332748,221.470840 137.332748,217.799271 
	C159.091629,217.799271 180.580688,217.799271 202.853531,217.799271 
	C202.853531,220.991638 202.853531,224.067551 202.313751,227.583160 
	C180.293549,228.026520 158.813156,228.030197 137.332748,228.033859 
z"/>
<path fill="#F99500" opacity="1.000000" stroke="none" 
	d="
M202.648331,39.963406 
	C203.283691,48.956394 203.283691,48.956512 194.445236,48.956562 
	C177.950195,48.956650 161.454926,49.008827 144.960205,48.934879 
	C136.524384,48.897064 137.084610,50.489037 137.704529,40.404892 
	C159.711136,39.968212 181.179733,39.965809 202.648331,39.963406 
z"/>
<path fill="#A04123" opacity="1.000000" stroke="none" 
	d="
M206.921295,118.622032 
	C201.227005,121.043999 195.503403,123.734589 189.480103,125.148247 
	C182.813034,126.712990 175.871628,127.108139 169.050110,128.015915 
	C167.441376,128.230011 165.834412,128.457291 163.723053,128.732162 
	C160.051086,123.680801 157.736465,122.965347 151.538055,125.175102 
	C147.077988,123.498222 142.617905,121.821342 138.030807,119.770447 
	C146.351227,116.700012 154.713989,115.580353 163.714020,117.471024 
	C172.761993,119.371758 182.097260,117.989113 190.493347,114.148346 
	C196.208206,111.534088 200.227478,112.935158 204.384232,116.519859 
	C205.136368,117.168488 205.965988,117.727287 206.921295,118.622032 
z"/>
<path fill="#A04123" opacity="1.000000" stroke="none" 
	d="
M148.097443,172.356476 
	C160.590149,172.581375 172.651642,169.609116 184.026154,164.360886 
	C199.775085,157.094284 209.447906,144.700882 212.957825,127.184036 
	C216.391403,132.216568 215.999207,137.911209 214.229858,143.577698 
	C210.860535,154.368301 204.358765,162.954559 194.289932,168.064651 
	C182.511276,174.042496 170.105530,178.403641 156.517578,176.027969 
	C153.670395,175.530182 151.038330,173.802124 148.097443,172.356476 
z"/>
<path fill="#F9BA06" opacity="1.000000" stroke="none" 
	d="
M202.738434,39.542084 
	C181.179733,39.965809 159.711136,39.968212 137.797089,39.966599 
	C136.869308,33.064137 136.869308,33.061863 143.624161,33.061375 
	C161.424164,33.060089 179.227051,33.237476 197.022293,32.946491 
	C201.947586,32.865948 203.726120,34.387836 202.738434,39.542084 
z"/>
<path fill="#F94138" opacity="1.000000" stroke="none" 
	d="
M172.499481,202.385971 
	C174.651978,201.505692 177.182632,200.613342 179.778717,199.996460 
	C190.702271,197.400772 201.280945,193.974487 210.872131,187.331635 
	C212.700775,186.962265 214.356277,186.835495 216.012344,186.827591 
	C225.905624,186.780380 227.785919,189.162811 225.857025,198.966949 
	C225.197586,202.318680 222.817093,202.423141 220.215790,202.421036 
	C208.262802,202.411362 196.309799,202.412003 184.356812,202.423050 
	C180.540436,202.426575 176.724075,202.473541 172.499481,202.385971 
z"/>
<path fill="#F84138" opacity="1.000000" stroke="none" 
	d="
M126.496628,186.960312 
	C133.699371,195.101624 142.862778,198.937561 152.776459,201.981781 
	C141.500031,202.319550 130.092377,202.354813 118.684853,202.411514 
	C115.603149,202.426834 114.149391,200.925629 114.129341,197.859604 
	C114.046745,185.228622 113.566551,186.757874 126.496628,186.960312 
z"/>
<path fill="#FEC007" opacity="1.000000" stroke="none" 
	d="
M137.251495,228.458496 
	C158.813156,228.030197 180.293549,228.026520 202.220642,228.028900 
	C202.667328,229.502563 202.667328,230.970154 202.667328,232.761368 
	C201.238022,232.903107 199.958374,233.138992 198.678436,233.140594 
	C179.684998,233.164474 160.691116,233.096008 141.698395,233.216217 
	C138.430176,233.236908 136.475616,232.642441 137.251495,228.458496 
z"/>
<path fill="#FB9800" opacity="1.000000" stroke="none" 
	d="
M196.523285,365.966736 
	C188.085831,368.365845 179.254608,371.000031 170.271164,372.923004 
	C159.013672,375.332764 148.345062,372.540527 137.676239,368.002319 
	C138.812164,367.279144 140.304108,365.967438 141.805756,365.956238 
	C159.890305,365.821289 177.976334,365.878815 196.523285,365.966736 
z"/>
<path fill="#B7623F" opacity="1.000000" stroke="none" 
	d="
M322.786774,344.112091 
	C308.822235,333.164764 300.182831,319.119141 298.506866,301.287323 
	C297.974121,295.619171 300.311890,293.128174 305.841034,291.856262 
	C319.587128,288.694153 333.222931,284.821381 347.122223,282.614624 
	C364.751373,279.815704 377.042297,282.312561 386.847534,298.063263 
	C383.734985,314.900696 375.046173,327.028442 360.513519,334.709900 
	C348.750580,340.927307 335.957001,343.360840 322.786774,344.112091 
M359.151398,318.578278 
	C364.808044,316.300995 366.848541,312.253784 365.021362,306.935486 
	C363.696533,303.079315 359.745819,301.023071 355.884247,302.179871 
	C351.737457,303.422119 349.562653,308.300049 350.990631,313.223572 
	C352.066162,316.931976 354.868378,318.342255 359.151398,318.578278 
M337.425323,306.682587 
	C338.504639,302.208435 337.676086,298.369904 333.303131,296.146942 
	C329.673065,294.301666 325.468964,295.956268 323.677917,299.610229 
	C321.656921,303.733185 322.914368,308.815094 326.512177,311.064880 
	C330.260895,313.409119 334.098053,312.101929 337.425323,306.682587 
z"/>
<path fill="#1BCD90" opacity="1.000000" stroke="none" 
	d="
M384.318878,257.868835 
	C384.318878,262.804993 384.318878,267.741150 384.318878,273.531708 
	C373.578003,267.307007 362.565918,265.749756 351.428101,267.220428 
	C340.930664,268.606537 330.633057,271.462463 320.209808,273.476593 
	C316.329407,274.226379 312.348297,274.490784 308.401672,274.851013 
	C305.063629,275.155701 303.432983,273.415466 303.420807,270.147308 
	C303.406586,266.323456 303.470703,262.499298 304.062256,258.298553 
	C331.188782,257.904144 357.753845,257.886475 384.318878,257.868835 
z"/>
<path fill="#01AB6E" opacity="1.000000" stroke="none" 
	d="
M384.437653,257.531616 
	C357.753845,257.886475 331.188782,257.904144 304.152405,257.895630 
	C302.804871,250.402115 303.673737,249.371918 311.157318,249.364563 
	C333.143890,249.342957 355.130524,249.339157 377.117065,249.367249 
	C384.074768,249.376144 384.815094,250.212158 384.437653,257.531616 
z"/>
<path fill="#D41918" opacity="1.000000" stroke="none" 
	d="
M300.944824,187.039368 
	C308.504730,186.848663 315.857147,186.295273 323.300812,189.598480 
	C332.407379,193.639664 342.428955,192.558716 351.628235,189.695938 
	C362.401459,186.343353 373.214233,186.895584 384.404083,187.238480 
	C375.281372,193.979904 364.700012,197.397568 353.778473,199.996368 
	C351.182709,200.614044 348.652100,201.505600 346.091522,202.271179 
	C339.992432,202.385498 333.893341,202.499832 327.218872,202.150772 
	C316.925842,198.824753 307.575226,195.318268 300.944824,187.039368 
z"/>
<path fill="#F2B707" opacity="1.000000" stroke="none" 
	d="
M370.984741,366.047363 
	C372.762939,366.047363 374.541138,366.047363 376.880859,366.047363 
	C376.880859,370.515778 377.046814,374.647491 376.761963,378.747894 
	C376.692383,379.749573 375.148102,381.471161 374.276825,381.474274 
	C353.643341,381.548187 333.009186,381.434204 312.375275,381.328339 
	C312.097717,381.326904 311.821838,380.988586 311.143127,380.544342 
	C311.143127,376.839722 311.143127,372.869720 311.589966,368.458862 
	C322.345093,372.540680 333.013733,375.332672 344.271210,372.922974 
	C353.254669,371.000031 362.085938,368.365845 370.984741,366.047363 
z"/>
<path fill="#F19000" opacity="1.000000" stroke="none" 
	d="
M311.332275,228.034286 
	C311.332275,224.751114 311.332275,221.467941 311.332275,217.795044 
	C333.078522,217.795044 354.568604,217.795044 376.854156,217.795044 
	C376.854156,220.993561 376.854156,224.068771 376.314270,227.583466 
	C354.293671,228.026703 332.812988,228.030487 311.332275,228.034286 
z"/>
<path fill="#F99500" opacity="1.000000" stroke="none" 
	d="
M376.648285,39.963406 
	C377.283661,48.956406 377.283661,48.956509 368.435486,48.956551 
	C351.940521,48.956631 335.445282,49.010620 318.950653,48.934128 
	C310.502899,48.894955 311.090424,50.504696 311.704529,40.405045 
	C333.711121,39.968208 355.179718,39.965809 376.648285,39.963406 
z"/>
<path fill="#9F4123" opacity="1.000000" stroke="none" 
	d="
M380.920105,118.623428 
	C375.224243,121.045715 369.499390,123.736778 363.474823,125.150108 
	C356.806122,126.714523 349.862946,127.108109 343.039917,128.016083 
	C341.431213,128.230164 339.824860,128.462219 337.716187,128.738113 
	C334.016876,123.678497 331.727844,122.969673 325.538818,125.174591 
	C321.078583,123.497734 316.618317,121.820885 312.031372,119.769913 
	C320.350067,116.685043 328.715790,115.592148 337.711121,117.471710 
	C346.759949,119.362457 356.095825,117.992172 364.490112,114.156921 
	C370.208832,111.544106 374.222870,112.952644 378.384460,116.520195 
	C379.138580,117.166649 379.965576,117.728073 380.920105,118.623428 
z"/>
<path fill="#A04123" opacity="1.000000" stroke="none" 
	d="
M322.097290,172.355484 
	C334.586578,172.585129 346.645050,169.613098 358.012695,164.365219 
	C373.756500,157.097046 383.375824,144.656021 386.954407,127.188889 
	C390.436646,132.249100 389.784821,138.047073 388.154480,143.646484 
	C385.310333,153.414810 379.548248,161.437210 370.797089,166.559967 
	C358.444397,173.791000 345.144806,178.280090 330.507874,176.019272 
	C327.667755,175.580597 325.034729,173.801437 322.097290,172.355484 
z"/>
<path fill="#9F4123" opacity="1.000000" stroke="none" 
	d="
M323.016174,344.391418 
	C335.957001,343.360840 348.750580,340.927307 360.513519,334.709900 
	C375.046173,327.028442 383.734985,314.900696 386.933197,298.392914 
	C390.403198,303.522858 389.962677,309.413147 388.212128,315.201721 
	C385.436859,324.378876 380.141388,331.967316 372.100739,337.260071 
	C360.428070,344.943665 347.445496,348.617859 333.490936,347.979126 
	C330.032593,347.820862 326.658447,345.822998 323.016174,344.391418 
z"/>
<path fill="#F9BA06" opacity="1.000000" stroke="none" 
	d="
M376.738403,39.542404 
	C355.179718,39.965809 333.711121,39.968208 311.797119,39.966606 
	C310.869110,33.064236 310.869110,33.061905 317.612244,33.061405 
	C335.412384,33.060081 353.215393,33.237171 371.010803,32.946636 
	C375.933441,32.866268 377.714447,34.390686 376.738403,39.542404 
z"/>
<path fill="#F94138" opacity="1.000000" stroke="none" 
	d="
M346.482758,202.378876 
	C348.652100,201.505600 351.182709,200.614044 353.778473,199.996368 
	C364.700012,197.397568 375.281372,193.979904 384.868042,187.329391 
	C387.193848,186.960709 389.346832,186.834045 391.500183,186.827927 
	C399.884003,186.804108 399.884003,186.818314 399.869812,194.998306 
	C399.857330,202.165329 399.609924,202.406708 392.179138,202.418671 
	C377.077423,202.442963 361.975708,202.464127 346.482758,202.378876 
z"/>
<path fill="#F84138" opacity="1.000000" stroke="none" 
	d="
M300.495972,186.961029 
	C307.575226,195.318268 316.925842,198.824753 326.775024,201.981400 
	C315.484711,202.318619 304.062805,202.356827 292.640930,202.408295 
	C289.573151,202.422119 288.273346,200.950302 288.066681,197.860245 
	C287.334503,186.914078 287.583374,186.624466 300.495972,186.961029 
z"/>
<path fill="#FEC007" opacity="1.000000" stroke="none" 
	d="
M311.251221,228.459473 
	C332.812988,228.030487 354.293671,228.026703 376.221069,228.029144 
	C376.667786,229.501587 376.667786,230.967804 376.667786,232.756897 
	C375.223755,232.901276 373.944794,233.138931 372.665497,233.140549 
	C353.672577,233.164536 334.679199,233.094910 315.687042,233.217072 
	C312.412750,233.238129 310.471802,232.638489 311.251221,228.459473 
z"/>
<path fill="#FB9800" opacity="1.000000" stroke="none" 
	d="
M370.523376,365.966797 
	C362.085938,368.365845 353.254669,371.000031 344.271210,372.922974 
	C333.013733,375.332672 322.345093,372.540680 311.676239,368.002319 
	C312.808014,367.279144 314.295807,365.967499 315.793304,365.956329 
	C333.882080,365.821564 351.972229,365.878876 370.523376,365.966797 
z"/>
<path fill="#060302" opacity="1.000000" stroke="none" 
	d="
M325.258850,125.456848 
	C331.727844,122.969673 334.016876,123.678497 337.415222,129.075928 
	C338.142059,135.785156 336.714844,139.546341 332.346558,140.066162 
	C329.760803,140.373871 325.935516,139.107452 324.366791,137.171768 
	C321.596069,133.752884 322.295959,129.436188 325.258850,125.456848 
z"/>
<path fill="#050302" opacity="1.000000" stroke="none" 
	d="
M350.759277,140.439117 
	C350.925629,132.816681 354.626526,129.033615 359.942871,130.648727 
	C364.310730,131.975677 365.852661,135.311829 365.534119,139.463913 
	C365.231537,143.407898 363.379059,146.544037 358.987335,146.963043 
	C354.533417,147.387985 351.747467,145.245529 350.759277,140.439117 
z"/>
<path fill="#050302" opacity="1.000000" stroke="none" 
	d="
M163.562958,306.307037 
	C160.763443,311.888947 156.846252,313.555634 152.762558,311.226379 
	C148.871353,309.006927 147.548920,303.069000 150.033920,298.974274 
	C152.217972,295.375427 157.383560,293.849030 160.184341,296.871094 
	C162.228989,299.077301 162.578217,302.854767 163.562958,306.307037 
z"/>
<path fill="#050302" opacity="1.000000" stroke="none" 
	d="
M178.613388,316.165436 
	C177.878784,314.832489 177.201218,313.835388 176.986771,312.747101 
	C175.992340,307.700470 177.709549,303.604462 181.453857,302.369141 
	C184.934631,301.220795 188.156158,301.953766 190.167099,305.157806 
	C192.496292,308.868927 192.437683,312.886414 189.449127,316.153229 
	C186.262268,319.636780 182.497879,319.426575 178.613388,316.165436 
z"/>
<path fill="#060302" opacity="1.000000" stroke="none" 
	d="
M151.259613,125.457954 
	C157.736465,122.965347 160.051086,123.680801 163.422852,129.069489 
	C164.171402,135.769104 162.750534,139.525101 158.369003,140.058777 
	C155.787338,140.373230 151.956604,139.114746 150.391617,137.183121 
	C147.624054,133.767181 148.319595,129.446899 151.259613,125.457954 
z"/>
<path fill="#050302" opacity="1.000000" stroke="none" 
	d="
M183.259750,130.322281 
	C186.024933,131.736969 189.250427,132.686874 190.643082,134.828583 
	C193.284393,138.890640 191.266800,144.419342 187.320602,146.323105 
	C183.820023,148.011887 179.761856,146.821640 177.824371,143.537933 
	C175.451630,139.516556 176.743591,133.651901 180.580841,131.273941 
	C181.268692,130.847687 182.117844,130.681747 183.259750,130.322281 
z"/>
<path fill="#050302" opacity="1.000000" stroke="none" 
	d="
M358.787903,318.644958 
	C354.868378,318.342255 352.066162,316.931976 350.990631,313.223572 
	C349.562653,308.300049 351.737457,303.422119 355.884247,302.179871 
	C359.745819,301.023071 363.696533,303.079315 365.021362,306.935486 
	C366.848541,312.253784 364.808044,316.300995 358.787903,318.644958 
z"/>
<path fill="#050302" opacity="1.000000" stroke="none" 
	d="
M337.302307,307.056763 
	C334.098053,312.101929 330.260895,313.409119 326.512177,311.064880 
	C322.914368,308.815094 321.656921,303.733185 323.677917,299.610229 
	C325.468964,295.956268 329.673065,294.301666 333.303131,296.146942 
	C337.676086,298.369904 338.504639,302.208435 337.302307,307.056763 
z"/>
</svg>