<svg version="1.1" id="Layer_1" xmlns="http://www.w3.org/2000/svg" xmlns:xlink="http://www.w3.org/1999/xlink" x="0px" y="0px"
	 width="100%" viewBox="0 0 512 512" xml:space="preserve">

<path fill="#DFB28B" opacity="1.000000" stroke="none" 
	d="
M367.468658,513.000000 
	C366.379700,512.335999 365.848572,511.215393 365.126160,511.074310 
	C342.250275,506.606964 322.356079,496.524231 305.090393,480.737366 
	C288.823608,465.863831 277.614899,448.006531 270.645386,427.255890 
	C265.165802,410.941345 263.593872,394.034943 265.213806,377.164551 
	C267.571777,352.608124 276.466827,330.382660 292.326569,311.071075 
	C307.211365,292.946655 325.403687,279.892609 347.511322,271.896027 
	C364.685822,265.683777 382.373871,263.648102 400.256561,265.186371 
	C424.153931,267.241943 445.928497,275.648224 465.043549,290.506195 
	C482.556641,304.118988 495.719818,321.078003 504.014984,341.597565 
	C507.020111,349.031311 508.694855,357.001190 511.022797,364.712524 
	C511.334137,365.743866 511.918060,366.692932 512.687866,367.340027 
	C513.000000,381.687561 513.000000,396.375122 512.688721,411.191315 
	C511.944855,411.808289 511.277222,412.229462 511.115631,412.795166 
	C509.030792,420.093628 507.563141,427.619263 504.884155,434.687500 
	C497.009644,455.463440 484.133484,472.854828 466.728180,486.561218 
	C450.726959,499.161926 432.811371,508.037476 412.373169,511.100555 
	C411.832672,511.181549 411.454071,512.342590 411.000000,513.000000 
	C396.645782,513.000000 382.291534,513.000000 367.468658,513.000000 
M380.971954,429.484375 
	C380.168213,424.415710 382.223724,420.790619 385.906097,417.261658 
	C396.721436,406.896851 407.312958,396.286926 417.688141,385.481079 
	C420.998199,382.033569 424.406677,380.421936 429.092163,380.919281 
	C431.712067,381.197388 434.385712,380.969269 437.035126,380.969269 
	C437.195831,380.437805 437.356506,379.906372 437.517181,379.374908 
	C433.560089,375.594391 429.536407,371.880737 425.658875,368.020294 
	C415.595490,358.001129 403.231445,355.175507 389.769684,357.381012 
	C373.078888,360.115509 359.209808,374.787598 357.075836,390.936157 
	C354.707520,408.857758 365.358002,429.651062 380.971863,436.967224 
	C380.971863,434.642975 380.971863,432.511078 380.971954,429.484375 
M417.410004,475.065063 
	C421.299622,478.943817 425.189240,482.822601 429.078857,486.701355 
	C430.196411,483.756744 430.429138,481.582703 430.150574,479.476349 
	C429.453369,474.204407 431.491699,470.454865 435.321045,466.819824 
	C445.094971,457.541656 454.770905,448.119263 463.883240,438.200806 
	C469.214661,432.397766 474.724823,428.677551 482.851654,430.140259 
	C483.882416,430.325806 485.018280,429.927612 487.345276,429.654236 
	C483.034210,425.347931 479.482605,421.737366 475.863373,418.195953 
	C459.835663,402.512604 435.086700,401.912445 419.515839,416.807129 
	C402.480957,433.102264 401.407990,457.055267 417.410004,475.065063 
M307.100159,343.929077 
	C305.350159,363.362122 316.495667,375.818970 331.031891,387.824860 
	C331.031891,384.616394 331.276093,382.335907 330.983643,380.126434 
	C330.260376,374.662445 332.412079,370.781708 336.362366,367.041351 
	C345.790741,358.114014 355.197357,349.102234 363.858490,339.447937 
	C369.556610,333.096497 375.618500,329.564026 384.193665,330.993835 
	C385.059662,331.138184 386.010620,330.773102 388.204285,330.463501 
	C383.089935,325.434723 378.932800,320.951508 374.363342,316.937714 
	C365.233521,308.918152 354.389221,305.493011 342.439545,307.480682 
	C322.345764,310.823090 310.818756,323.124176 307.100159,343.929077 
z"/>
<path fill="#DFB28B" opacity="1.000000" stroke="none" 
	d="
M278.531342,0.999998 
	C279.620483,1.664078 280.153503,2.788453 280.874146,2.925403 
	C302.907593,7.112552 322.115723,16.733076 339.110870,31.462774 
	C361.494385,50.862583 374.931122,75.424484 379.647400,104.077248 
	C384.561310,133.930466 379.794800,162.691284 363.567657,188.999130 
	C347.307739,215.360123 324.659637,233.460587 295.299255,243.319809 
	C278.964539,248.805008 262.074341,250.369583 245.196213,248.790222 
	C221.328644,246.556854 199.539383,238.096329 180.535782,223.060989 
	C155.384872,203.161957 139.443359,177.383713 134.312561,145.919586 
	C130.277679,121.175957 132.829605,96.695923 143.749146,73.457893 
	C150.642090,58.788906 159.322128,45.458397 171.173019,34.511021 
	C188.808807,18.219793 209.230591,7.003641 233.205338,2.952576 
	C234.080048,2.804776 234.857742,2.082848 235.340332,1.314243 
	C249.354233,1.000000 263.708466,1.000000 278.531342,0.999998 
M204.183624,197.536240 
	C216.066513,200.707794 227.401154,199.356476 237.769211,192.709061 
	C247.941818,186.186920 254.231384,176.711945 256.764160,163.409622 
	C264.583923,193.401840 287.432068,201.127884 304.329956,198.774567 
	C324.209045,196.006088 339.729187,178.504044 339.605011,158.206558 
	C339.475220,136.990479 325.404327,121.417549 306.883301,117.607658 
	C297.378418,115.652458 288.010773,116.689537 279.201263,121.325584 
	C267.070435,127.709480 260.306610,138.026382 257.098083,152.491211 
	C255.976135,148.774155 255.351318,146.434601 254.567490,144.149612 
	C247.911133,124.744888 227.056076,113.068268 207.070938,117.528252 
	C188.181351,121.743744 174.934052,137.247665 174.462357,157.264709 
	C174.039276,175.218094 184.852173,191.169891 204.183624,197.536240 
M215.926239,76.411911 
	C215.704208,98.919449 237.071365,119.587936 262.064301,116.197754 
	C286.143158,112.931557 302.632172,90.103371 297.387085,66.781830 
	C292.756958,46.194557 273.831024,32.137051 253.392670,34.104347 
	C231.995758,36.163918 216.181870,53.621452 215.926239,76.411911 
z"/>
<path fill="#DFB28B" opacity="1.000000" stroke="none" 
	d="
M1.000000,367.468658 
	C1.657339,366.546051 2.803394,366.178925 2.901627,365.625671 
	C6.956647,342.790100 17.080269,323.085724 32.555786,305.826935 
	C47.512199,289.147095 65.654373,277.718811 86.752556,270.645782 
	C102.736671,265.287201 119.268394,263.772736 135.858337,265.158875 
	C159.280731,267.115936 180.901337,275.118408 199.570816,289.421326 
	C218.728348,304.098145 232.971039,322.716400 241.471344,345.710327 
	C248.040710,363.480896 250.365921,381.754425 248.806030,400.302490 
	C246.796265,424.199829 238.328949,445.956635 223.475220,465.060822 
	C209.869843,482.559418 192.988068,495.805115 172.420074,504.023224 
	C164.968094,507.000702 157.005646,508.696533 149.290039,511.023285 
	C148.258163,511.334473 147.308411,511.917999 146.660309,512.687744 
	C132.645767,513.000000 118.291542,513.000000 103.808884,512.685669 
	C103.023804,511.925842 102.405540,511.167297 101.704819,511.081421 
	C89.955055,509.641083 79.100098,505.358948 68.659775,500.149231 
	C44.670189,488.178436 26.359959,470.041840 14.331024,446.237000 
	C9.217933,436.118378 6.717314,424.683380 2.939694,413.878021 
	C2.674259,413.118774 1.663942,412.619934 0.999997,412.000000 
	C1.000000,397.312439 1.000000,382.624878 1.000000,367.468658 
M71.859100,391.197357 
	C70.676132,392.358551 69.155510,393.329285 68.372910,394.716370 
	C65.936790,399.034210 62.389263,401.327820 57.631340,402.776031 
	C50.213287,405.033875 46.941116,409.935577 47.069683,417.811066 
	C47.137829,421.985443 46.243568,425.385223 43.624916,428.817230 
	C38.286583,435.813629 38.795341,441.634644 43.638077,449.034973 
	C45.415890,451.751709 46.685150,455.268982 46.845592,458.487915 
	C47.308994,467.785034 50.237785,471.943878 58.923664,475.275146 
	C61.817734,476.385132 64.843964,478.318115 66.709656,480.726929 
	C72.751053,488.527252 77.589111,490.156891 87.102158,487.500702 
	C90.062965,486.674011 93.655251,486.671448 96.607292,487.517273 
	C105.917786,490.184906 111.056114,488.478333 116.972023,480.712219 
	C118.720551,478.416779 121.532700,476.451843 124.264915,475.473877 
	C133.069534,472.322327 136.468506,467.749451 136.979218,458.541168 
	C137.158600,455.307373 138.282166,451.764984 140.035355,449.047943 
	C145.033356,441.302094 145.042984,435.959930 139.990967,428.310303 
	C138.290329,425.735229 137.117371,422.356079 136.981598,419.287872 
	C136.558060,409.716492 133.274231,405.184631 124.226280,401.857269 
	C121.487892,400.850250 118.705223,398.870667 116.914970,396.577576 
	C110.877419,388.844208 105.887634,387.231689 96.469833,389.866272 
	C93.503784,390.696014 89.951515,390.507690 86.915657,389.767609 
	C81.875282,388.538818 77.122292,387.862213 71.859100,391.197357 
M138.502457,343.341736 
	C145.639984,334.036194 145.553268,329.234131 139.011536,319.464844 
	C137.506577,317.217377 137.137711,313.941833 136.992477,311.101227 
	C136.553253,302.510437 133.041733,297.275177 124.796471,294.912201 
	C121.013382,293.828064 118.460327,291.934296 116.307564,288.684570 
	C111.549667,281.502258 105.671432,279.986389 97.235779,282.256531 
	C93.954369,283.139618 90.063148,283.163544 86.769150,282.324585 
	C77.535187,279.972839 72.590530,281.584320 66.800026,289.151154 
	C65.108154,291.362000 62.568645,293.403839 59.986324,294.368713 
	C50.032448,298.087769 47.208836,301.905548 46.895458,312.449005 
	C46.822243,314.912384 46.065258,317.757385 44.640011,319.709045 
	C38.483963,328.138916 38.389839,333.840698 44.223083,342.495056 
	C45.769333,344.789093 46.776321,347.875244 46.875744,350.639252 
	C47.243423,360.860962 50.049709,364.661530 59.846622,368.233124 
	C62.439018,369.178162 65.070351,371.123779 66.726013,373.329041 
	C72.309387,380.765930 77.685555,382.590149 86.709953,380.337433 
	C90.040802,379.505951 93.922386,379.563385 97.270470,380.377045 
	C105.710495,382.428223 110.667381,380.847443 116.287399,374.272461 
	C118.513725,371.667847 121.571770,369.324677 124.730423,368.052643 
	C133.417160,364.554291 136.748459,360.178864 136.963211,350.772980 
	C137.014877,348.510834 137.679352,346.262695 138.502457,343.341736 
M224.578705,419.911560 
	C225.627670,415.961731 226.647400,412.003845 227.735977,408.064972 
	C228.451340,405.476410 228.676666,402.502686 230.138977,400.413788 
	C236.250443,391.683594 236.280533,386.417908 230.065353,377.690186 
	C228.741562,375.831238 227.716370,373.238678 227.766571,371.011475 
	C227.995804,360.840240 224.458298,355.761017 214.812347,352.270752 
	C212.212540,351.330017 209.576126,349.428314 207.876816,347.249847 
	C201.432190,338.988190 196.900787,337.555634 186.597229,340.591858 
	C184.103638,341.326660 181.013962,341.297638 178.519623,340.549194 
	C168.602539,337.573639 163.656387,339.180725 157.298676,347.441711 
	C155.714890,349.499634 153.216019,351.326233 150.764053,352.159393 
	C141.225021,355.400848 138.161072,359.580811 137.812347,369.769318 
	C137.717468,372.541290 136.741013,375.662994 135.172653,377.936859 
	C129.324615,386.415497 129.301437,391.813416 135.113937,400.322113 
	C136.671646,402.602417 137.715363,405.683289 137.806366,408.435944 
	C138.144714,418.671082 141.155411,422.808014 150.722931,426.063629 
	C153.183823,426.900970 155.750381,428.669922 157.295502,430.737854 
	C163.472702,439.004944 168.628448,440.710632 178.474258,437.788208 
	C181.097641,437.009491 184.161163,437.749939 187.022079,437.726990 
	C191.703720,437.689423 198.253204,439.534241 200.712173,437.161865 
	C207.779037,430.343964 215.970673,425.563110 224.578705,419.911560 
z"/>

<path fill="#FBB03C" opacity="1.000000" stroke="none" 
	d="
M380.971924,429.931793 
	C380.971863,432.511078 380.971863,434.642975 380.971863,436.967224 
	C365.358002,429.651062 354.707520,408.857758 357.075836,390.936157 
	C359.209808,374.787598 373.078888,360.115509 389.769684,357.381012 
	C403.231445,355.175507 415.595490,358.001129 425.658875,368.020294 
	C429.536407,371.880737 433.560089,375.594391 437.517181,379.374908 
	C437.356506,379.906372 437.195831,380.437805 437.035126,380.969269 
	C434.385712,380.969269 431.712067,381.197388 429.092163,380.919281 
	C424.406677,380.421936 420.998199,382.033569 417.688141,385.481079 
	C407.312958,396.286926 396.721436,406.896851 385.906097,417.261658 
	C382.223724,420.790619 380.168213,424.415710 380.971924,429.931793 
z"/>
<path fill="#8DC640" opacity="1.000000" stroke="none" 
	d="
M417.169861,474.803192 
	C401.407990,457.055267 402.480957,433.102264 419.515839,416.807129 
	C435.086700,401.912445 459.835663,402.512604 475.863373,418.195953 
	C479.482605,421.737366 483.034210,425.347931 487.345276,429.654236 
	C485.018280,429.927612 483.882416,430.325806 482.851654,430.140259 
	C474.724823,428.677551 469.214661,432.397766 463.883240,438.200806 
	C454.770905,448.119263 445.094971,457.541656 435.321045,466.819824 
	C431.491699,470.454865 429.453369,474.204407 430.150574,479.476349 
	C430.429138,481.582703 430.196411,483.756744 429.078857,486.701355 
	C425.189240,482.822601 421.299622,478.943817 417.169861,474.803192 
z"/>
<path fill="#F0BEB4" opacity="1.000000" stroke="none" 
	d="
M307.168091,343.489502 
	C310.818756,323.124176 322.345764,310.823090 342.439545,307.480682 
	C354.389221,305.493011 365.233521,308.918152 374.363342,316.937714 
	C378.932800,320.951508 383.089935,325.434723 388.204285,330.463501 
	C386.010620,330.773102 385.059662,331.138184 384.193665,330.993835 
	C375.618500,329.564026 369.556610,333.096497 363.858490,339.447937 
	C355.197357,349.102234 345.790741,358.114014 336.362366,367.041351 
	C332.412079,370.781708 330.260376,374.662445 330.983643,380.126434 
	C331.276093,382.335907 331.031891,384.616394 331.031891,387.824860 
	C316.495667,375.818970 305.350159,363.362122 307.168091,343.489502 
z"/>
<path fill="#EBE4DC" opacity="1.000000" stroke="none" 
	d="
M203.801041,197.407486 
	C184.852173,191.169891 174.039276,175.218094 174.462357,157.264709 
	C174.934052,137.247665 188.181351,121.743744 207.070938,117.528252 
	C227.056076,113.068268 247.911133,124.744888 254.567490,144.149612 
	C255.351318,146.434601 255.976135,148.774155 257.098083,152.491211 
	C260.306610,138.026382 267.070435,127.709480 279.201263,121.325584 
	C288.010773,116.689537 297.378418,115.652458 306.883301,117.607658 
	C325.404327,121.417549 339.475220,136.990479 339.605011,158.206558 
	C339.729187,178.504044 324.209045,196.006088 304.329956,198.774567 
	C287.432068,201.127884 264.583923,193.401840 256.764160,163.409622 
	C254.231384,176.711945 247.941818,186.186920 237.769211,192.709061 
	C227.401154,199.356476 216.066513,200.707794 203.801041,197.407486 
M218.305161,149.700073 
	C214.750122,149.700073 211.195084,149.700073 207.727432,149.700073 
	C207.727432,155.634308 207.727432,160.707748 207.727432,165.768311 
	C213.287155,165.768311 218.497742,165.768311 223.817719,165.768311 
	C223.817719,160.333313 223.817719,155.243729 223.817719,149.908081 
	C222.167587,149.833557 220.695648,149.767090 218.305161,149.700073 
M306.698120,156.579865 
	C306.601654,154.476700 306.505219,152.373520 306.407166,150.235901 
	C300.711151,150.235901 295.535156,150.235901 290.457458,150.235901 
	C290.457458,155.751846 290.457458,160.777130 290.457458,166.099747 
	C293.392151,166.099747 295.870880,166.131317 298.348541,166.094131 
	C307.758789,165.952942 306.580353,167.451187 306.698120,156.579865 
z"/>
<path fill="#EAE4DC" opacity="1.000000" stroke="none" 
	d="
M215.923615,75.941315 
	C216.181870,53.621452 231.995758,36.163918 253.392670,34.104347 
	C273.831024,32.137051 292.756958,46.194557 297.387085,66.781830 
	C302.632172,90.103371 286.143158,112.931557 262.064301,116.197754 
	C237.071365,119.587936 215.704208,98.919449 215.923615,75.941315 
M262.234528,92.252647 
	C263.576477,94.350693 264.918427,96.448746 265.926208,98.024345 
	C271.169373,92.873512 274.892151,89.216309 279.139832,85.043442 
	C275.751709,82.084953 272.254486,79.031204 267.550262,74.923531 
	C272.099365,71.500496 275.947815,68.604675 279.285461,66.093201 
	C274.808807,61.187771 271.267975,57.307808 267.589539,53.277065 
	C263.930603,56.749249 260.490692,60.013599 256.059540,64.218605 
	C252.857956,60.171974 249.981979,56.536892 247.302200,53.149796 
	C242.739227,57.471901 238.943756,61.067024 233.941391,65.805336 
	C237.962891,68.890839 241.760590,71.804626 247.180222,75.962852 
	C242.137634,79.759071 238.309631,82.640900 234.970963,85.154350 
	C239.172424,89.713829 242.637329,93.473991 246.327560,97.478676 
	C250.020065,93.991463 253.460709,90.742111 258.130005,86.332436 
	C259.503784,88.399513 260.615021,90.071556 262.234528,92.252647 
z"/>
<path fill="#F15C26" opacity="1.000000" stroke="none" 
	d="
M72.175034,391.000885 
	C77.122292,387.862213 81.875282,388.538818 86.915657,389.767609 
	C89.951515,390.507690 93.503784,390.696014 96.469833,389.866272 
	C105.887634,387.231689 110.877419,388.844208 116.914970,396.577576 
	C118.705223,398.870667 121.487892,400.850250 124.226280,401.857269 
	C133.274231,405.184631 136.558060,409.716492 136.981598,419.287872 
	C137.117371,422.356079 138.290329,425.735229 139.990967,428.310303 
	C145.042984,435.959930 145.033356,441.302094 140.035355,449.047943 
	C138.282166,451.764984 137.158600,455.307373 136.979218,458.541168 
	C136.468506,467.749451 133.069534,472.322327 124.264915,475.473877 
	C121.532700,476.451843 118.720551,478.416779 116.972023,480.712219 
	C111.056114,488.478333 105.917786,490.184906 96.607292,487.517273 
	C93.655251,486.671448 90.062965,486.674011 87.102158,487.500702 
	C77.589111,490.156891 72.751053,488.527252 66.709656,480.726929 
	C64.843964,478.318115 61.817734,476.385132 58.923664,475.275146 
	C50.237785,471.943878 47.308994,467.785034 46.845592,458.487915 
	C46.685150,455.268982 45.415890,451.751709 43.638077,449.034973 
	C38.795341,441.634644 38.286583,435.813629 43.624916,428.817230 
	C46.243568,425.385223 47.137829,421.985443 47.069683,417.811066 
	C46.941116,409.935577 50.213287,405.033875 57.631340,402.776031 
	C62.389263,401.327820 65.936790,399.034210 68.372910,394.716370 
	C69.155510,393.329285 70.676132,392.358551 72.175034,391.000885 
M110.392288,414.271149 
	C108.573631,412.359314 106.511330,410.619843 105.003578,408.488129 
	C103.438156,406.274872 102.019463,405.296753 99.266182,406.506409 
	C94.315163,408.681549 89.214737,408.620697 84.247780,406.455719 
	C81.799416,405.388550 80.257973,405.976044 78.917152,408.251740 
	C76.165237,412.922333 72.006882,415.698853 66.776253,417.157715 
	C65.529198,417.505554 63.662182,419.174438 63.727814,420.121552 
	C64.230972,427.382874 61.634510,433.418182 56.580200,438.688812 
	C61.749542,444.098999 64.106361,450.058960 63.759758,457.137024 
	C63.711536,458.121887 65.522530,459.772949 66.764229,460.146179 
	C72.112816,461.753754 76.253860,464.708893 79.275833,469.437958 
	C79.899994,470.414673 81.866264,471.596893 82.597549,471.276672 
	C89.450157,468.276093 96.154633,469.037689 102.796448,472.132843 
	C106.362434,465.671326 111.017059,461.466461 117.827705,459.887115 
	C118.733147,459.677124 120.046158,458.078735 119.962875,457.243805 
	C119.231377,449.910492 122.308487,444.013275 127.036362,438.504974 
	C121.215240,432.784546 119.201370,425.967163 120.111557,418.424408 
	C116.817856,417.078186 113.907501,415.888641 110.392288,414.271149 
z"/>
<path fill="#FBB03D" opacity="1.000000" stroke="none" 
	d="
M138.282227,343.674927 
	C137.679352,346.262695 137.014877,348.510834 136.963211,350.772980 
	C136.748459,360.178864 133.417160,364.554291 124.730423,368.052643 
	C121.571770,369.324677 118.513725,371.667847 116.287399,374.272461 
	C110.667381,380.847443 105.710495,382.428223 97.270470,380.377045 
	C93.922386,379.563385 90.040802,379.505951 86.709953,380.337433 
	C77.685555,382.590149 72.309387,380.765930 66.726013,373.329041 
	C65.070351,371.123779 62.439018,369.178162 59.846622,368.233124 
	C50.049709,364.661530 47.243423,360.860962 46.875744,350.639252 
	C46.776321,347.875244 45.769333,344.789093 44.223083,342.495056 
	C38.389839,333.840698 38.483963,328.138916 44.640011,319.709045 
	C46.065258,317.757385 46.822243,314.912384 46.895458,312.449005 
	C47.208836,301.905548 50.032448,298.087769 59.986324,294.368713 
	C62.568645,293.403839 65.108154,291.362000 66.800026,289.151154 
	C72.590530,281.584320 77.535187,279.972839 86.769150,282.324585 
	C90.063148,283.163544 93.954369,283.139618 97.235779,282.256531 
	C105.671432,279.986389 111.549667,281.502258 116.307564,288.684570 
	C118.460327,291.934296 121.013382,293.828064 124.796471,294.912201 
	C133.041733,297.275177 136.553253,302.510437 136.992477,311.101227 
	C137.137711,313.941833 137.506577,317.217377 139.011536,319.464844 
	C145.553268,329.234131 145.639984,334.036194 138.282227,343.674927 
M106.832329,303.670624 
	C104.505409,301.943146 104.382378,296.824280 99.466408,299.065399 
	C94.514183,301.323090 89.538910,301.009766 84.376099,299.357300 
	C82.893898,298.882874 80.023735,299.740967 79.132202,300.965393 
	C75.937927,305.352478 71.952461,308.216431 66.837837,309.881195 
	C65.588165,310.287994 63.809799,311.928894 63.841515,312.953888 
	C64.059921,320.013672 61.603416,325.967834 56.993706,330.961121 
	C58.971920,334.276001 62.104294,337.181915 62.264656,340.243500 
	C62.703690,348.625610 67.012207,352.353638 73.778946,356.985657 
	C79.811722,361.115265 84.117348,362.608673 91.406807,362.602478 
	C99.130638,362.595886 104.035599,361.440613 110.443657,356.584015 
	C116.428017,352.048615 119.072838,348.138641 121.599823,341.202332 
	C124.344933,333.667297 124.137230,328.686035 121.490005,321.302277 
	C119.084465,314.592590 118.313820,308.553131 110.306999,306.768127 
	C109.172264,306.515167 108.299080,305.089020 106.832329,303.670624 
z"/>
<path fill="#8DC640" opacity="1.000000" stroke="none" 
	d="
M224.332764,420.194061 
	C215.970673,425.563110 207.779037,430.343964 200.712173,437.161865 
	C198.253204,439.534241 191.703720,437.689423 187.022079,437.726990 
	C184.161163,437.749939 181.097641,437.009491 178.474258,437.788208 
	C168.628448,440.710632 163.472702,439.004944 157.295502,430.737854 
	C155.750381,428.669922 153.183823,426.900970 150.722931,426.063629 
	C141.155411,422.808014 138.144714,418.671082 137.806366,408.435944 
	C137.715363,405.683289 136.671646,402.602417 135.113937,400.322113 
	C129.301437,391.813416 129.324615,386.415497 135.172653,377.936859 
	C136.741013,375.662994 137.717468,372.541290 137.812347,369.769318 
	C138.161072,359.580811 141.225021,355.400848 150.764053,352.159393 
	C153.216019,351.326233 155.714890,349.499634 157.298676,347.441711 
	C163.656387,339.180725 168.602539,337.573639 178.519623,340.549194 
	C181.013962,341.297638 184.103638,341.326660 186.597229,340.591858 
	C196.900787,337.555634 201.432190,338.988190 207.876816,347.249847 
	C209.576126,349.428314 212.212540,351.330017 214.812347,352.270752 
	C224.458298,355.761017 227.995804,360.840240 227.766571,371.011475 
	C227.716370,373.238678 228.741562,375.831238 230.065353,377.690186 
	C236.280533,386.417908 236.250443,391.683594 230.138977,400.413788 
	C228.676666,402.502686 228.451340,405.476410 227.735977,408.064972 
	C226.647400,412.003845 225.627670,415.961731 224.332764,420.194061 
M150.075836,392.446625 
	C153.416031,396.322266 154.696960,400.881073 154.245132,405.889130 
	C153.992844,408.685333 154.915436,410.245758 157.737854,410.843842 
	C163.077103,411.975281 166.846085,415.250916 170.007431,419.616547 
	C170.841660,420.768524 173.431610,421.708069 174.731964,421.279297 
	C180.201050,419.475952 185.434952,419.422729 190.842545,421.412445 
	C191.912659,421.806183 194.165833,421.413086 194.631149,420.637512 
	C198.317886,414.492584 203.916687,411.311371 210.990143,409.766022 
	C210.354614,402.545593 211.643890,396.054596 216.514816,390.557678 
	C217.075546,389.924805 216.594910,387.621490 215.847168,386.703552 
	C212.184631,382.207306 210.650589,377.211304 210.847260,371.427673 
	C210.888916,370.203003 209.289551,368.150787 208.059845,367.787292 
	C202.510376,366.147003 198.346863,362.997437 195.073776,358.259888 
	C194.377213,357.251678 191.946823,356.535553 190.738434,356.942291 
	C185.287674,358.776917 180.053131,358.682892 174.590454,356.960602 
	C173.311188,356.557251 170.770020,357.553101 169.965179,358.709564 
	C166.864441,363.164917 162.876511,365.957764 157.748596,367.659332 
	C156.277252,368.147583 154.448822,370.500214 154.458267,371.987396 
	C154.493820,377.591644 152.935211,382.358643 149.535141,386.810364 
	C148.736420,387.856110 149.560623,390.141357 150.075836,392.446625 
z"/>
<path fill="#F41439" opacity="1.000000" stroke="none" 
	d="
M218.764435,149.700348 
	C220.695648,149.767090 222.167587,149.833557 223.817719,149.908081 
	C223.817719,155.243729 223.817719,160.333313 223.817719,165.768311 
	C218.497742,165.768311 213.287155,165.768311 207.727432,165.768311 
	C207.727432,160.707748 207.727432,155.634308 207.727432,149.700073 
	C211.195084,149.700073 214.750122,149.700073 218.764435,149.700348 
z"/>
<path fill="#FBB13F" opacity="1.000000" stroke="none" 
	d="
M306.697815,157.053467 
	C306.580353,167.451187 307.758789,165.952942 298.348541,166.094131 
	C295.870880,166.131317 293.392151,166.099747 290.457458,166.099747 
	C290.457458,160.777130 290.457458,155.751846 290.457458,150.235901 
	C295.535156,150.235901 300.711151,150.235901 306.407166,150.235901 
	C306.505219,152.373520 306.601654,154.476700 306.697815,157.053467 
z"/>
<path fill="#8EC742" opacity="1.000000" stroke="none" 
	d="
M261.980408,91.998123 
	C260.615021,90.071556 259.503784,88.399513 258.130005,86.332436 
	C253.460709,90.742111 250.020065,93.991463 246.327560,97.478676 
	C242.637329,93.473991 239.172424,89.713829 234.970963,85.154350 
	C238.309631,82.640900 242.137634,79.759071 247.180222,75.962852 
	C241.760590,71.804626 237.962891,68.890839 233.941391,65.805336 
	C238.943756,61.067024 242.739227,57.471901 247.302200,53.149796 
	C249.981979,56.536892 252.857956,60.171974 256.059540,64.218605 
	C260.490692,60.013599 263.930603,56.749249 267.589539,53.277065 
	C271.267975,57.307808 274.808807,61.187771 279.285461,66.093201 
	C275.947815,68.604675 272.099365,71.500496 267.550262,74.923531 
	C272.254486,79.031204 275.751709,82.084953 279.139832,85.043442 
	C274.892151,89.216309 271.169373,92.873512 265.926208,98.024345 
	C264.918427,96.448746 263.576477,94.350693 261.980408,91.998123 
z"/>
<path fill="#EBE3DA" opacity="1.000000" stroke="none" 
	d="
M110.694717,414.485107 
	C113.907501,415.888641 116.817856,417.078186 120.111557,418.424408 
	C119.201370,425.967163 121.215240,432.784546 127.036362,438.504974 
	C122.308487,444.013275 119.231377,449.910492 119.962875,457.243805 
	C120.046158,458.078735 118.733147,459.677124 117.827705,459.887115 
	C111.017059,461.466461 106.362434,465.671326 102.796448,472.132843 
	C96.154633,469.037689 89.450157,468.276093 82.597549,471.276672 
	C81.866264,471.596893 79.899994,470.414673 79.275833,469.437958 
	C76.253860,464.708893 72.112816,461.753754 66.764229,460.146179 
	C65.522530,459.772949 63.711536,458.121887 63.759758,457.137024 
	C64.106361,450.058960 61.749542,444.098999 56.580200,438.688812 
	C61.634510,433.418182 64.230972,427.382874 63.727814,420.121552 
	C63.662182,419.174438 65.529198,417.505554 66.776253,417.157715 
	C72.006882,415.698853 76.165237,412.922333 78.917152,408.251740 
	C80.257973,405.976044 81.799416,405.388550 84.247780,406.455719 
	C89.214737,408.620697 94.315163,408.681549 99.266182,406.506409 
	C102.019463,405.296753 103.438156,406.274872 105.003578,408.488129 
	C106.511330,410.619843 108.573631,412.359314 110.694717,414.485107 
M75.905586,434.606842 
	C74.240356,441.874023 76.418022,447.841064 82.427856,452.116882 
	C88.108276,456.158356 94.316055,456.339081 100.272354,452.774048 
	C106.444855,449.079590 108.924339,443.345612 108.064606,436.210907 
	C107.204079,429.069550 101.271408,423.294373 93.791985,422.254364 
	C86.222603,421.201843 79.633102,425.506561 75.905586,434.606842 
z"/>
<path fill="#EBE4DA" opacity="1.000000" stroke="none" 
	d="
M107.068588,303.938232 
	C108.299080,305.089020 109.172264,306.515167 110.306999,306.768127 
	C118.313820,308.553131 119.084465,314.592590 121.490005,321.302277 
	C124.137230,328.686035 124.344933,333.667297 121.599823,341.202332 
	C119.072838,348.138641 116.428017,352.048615 110.443657,356.584015 
	C104.035599,361.440613 99.130638,362.595886 91.406807,362.602478 
	C84.117348,362.608673 79.811722,361.115265 73.778946,356.985657 
	C67.012207,352.353638 62.703690,348.625610 62.264656,340.243500 
	C62.104294,337.181915 58.971920,334.276001 56.993706,330.961121 
	C61.603416,325.967834 64.059921,320.013672 63.841515,312.953888 
	C63.809799,311.928894 65.588165,310.287994 66.837837,309.881195 
	C71.952461,308.216431 75.937927,305.352478 79.132202,300.965393 
	C80.023735,299.740967 82.893898,298.882874 84.376099,299.357300 
	C89.538910,301.009766 94.514183,301.323090 99.466408,299.065399 
	C104.382378,296.824280 104.505409,301.943146 107.068588,303.938232 
M76.620941,337.633301 
	C81.788857,347.406921 91.698303,350.638611 100.398415,345.387634 
	C108.331268,340.599731 110.725929,330.000763 105.625542,322.251984 
	C101.287498,315.661407 92.585220,313.044861 85.349648,316.155548 
	C77.379494,319.582031 74.055420,327.201538 76.620941,337.633301 
z"/>
<path fill="#EAE4DA" opacity="1.000000" stroke="none" 
	d="
M149.857010,392.151489 
	C149.560623,390.141357 148.736420,387.856110 149.535141,386.810364 
	C152.935211,382.358643 154.493820,377.591644 154.458267,371.987396 
	C154.448822,370.500214 156.277252,368.147583 157.748596,367.659332 
	C162.876511,365.957764 166.864441,363.164917 169.965179,358.709564 
	C170.770020,357.553101 173.311188,356.557251 174.590454,356.960602 
	C180.053131,358.682892 185.287674,358.776917 190.738434,356.942291 
	C191.946823,356.535553 194.377213,357.251678 195.073776,358.259888 
	C198.346863,362.997437 202.510376,366.147003 208.059845,367.787292 
	C209.289551,368.150787 210.888916,370.203003 210.847260,371.427673 
	C210.650589,377.211304 212.184631,382.207306 215.847168,386.703552 
	C216.594910,387.621490 217.075546,389.924805 216.514816,390.557678 
	C211.643890,396.054596 210.354614,402.545593 210.990143,409.766022 
	C203.916687,411.311371 198.317886,414.492584 194.631149,420.637512 
	C194.165833,421.413086 191.912659,421.806183 190.842545,421.412445 
	C185.434952,419.422729 180.201050,419.475952 174.731964,421.279297 
	C173.431610,421.708069 170.841660,420.768524 170.007431,419.616547 
	C166.846085,415.250916 163.077103,411.975281 157.737854,410.843842 
	C154.915436,410.245758 153.992844,408.685333 154.245132,405.889130 
	C154.696960,400.881073 153.416031,396.322266 149.857010,392.151489 
M173.105759,402.573547 
	C180.582275,406.794647 187.315567,406.573486 193.076172,401.917542 
	C198.220505,397.759766 200.397736,390.651306 198.451233,384.368561 
	C196.380112,377.683563 190.605927,373.130524 183.755203,372.780548 
	C176.561310,372.412994 170.534927,376.001892 167.677048,382.355560 
	C164.524017,389.365448 166.150955,395.991119 173.105759,402.573547 
z"/>
<path fill="#F15C27" opacity="1.000000" stroke="none" 
	d="
M75.983330,434.222107 
	C79.633102,425.506561 86.222603,421.201843 93.791985,422.254364 
	C101.271408,423.294373 107.204079,429.069550 108.064606,436.210907 
	C108.924339,443.345612 106.444855,449.079590 100.272354,452.774048 
	C94.316055,456.339081 88.108276,456.158356 82.427856,452.116882 
	C76.418022,447.841064 74.240356,441.874023 75.983330,434.222107 
z"/>
<path fill="#F15C27" opacity="1.000000" stroke="none" 
	d="
M76.453461,337.282410 
	C74.055420,327.201538 77.379494,319.582031 85.349648,316.155548 
	C92.585220,313.044861 101.287498,315.661407 105.625542,322.251984 
	C110.725929,330.000763 108.331268,340.599731 100.398415,345.387634 
	C91.698303,350.638611 81.788857,347.406921 76.453461,337.282410 
z"/>
<path fill="#F15C27" opacity="1.000000" stroke="none" 
	d="
M172.816711,402.341553 
	C166.150955,395.991119 164.524017,389.365448 167.677048,382.355560 
	C170.534927,376.001892 176.561310,372.412994 183.755203,372.780548 
	C190.605927,373.130524 196.380112,377.683563 198.451233,384.368561 
	C200.397736,390.651306 198.220505,397.759766 193.076172,401.917542 
	C187.315567,406.573486 180.582275,406.794647 172.816711,402.341553 
z"/>
</svg>