<svg version="1.1" id="Layer_1" xmlns="http://www.w3.org/2000/svg" xmlns:xlink="http://www.w3.org/1999/xlink" x="0px" y="0px"
	 width="100%" viewBox="0 0 512 512" enable-background="new 0 0 512 512" xml:space="preserve">

<path fill="#E2A975" opacity="1.000000" stroke="none" 
	d="
M373.919556,377.687866 
	C372.257660,377.750610 370.595795,377.868103 368.933899,377.868286 
	C288.602844,377.877228 208.271805,377.876099 127.940765,377.876099 
	C126.292801,377.876099 124.644836,377.876099 122.420990,377.876099 
	C118.416573,320.850616 114.431824,264.105133 110.396484,206.639328 
	C202.280350,206.639328 293.704376,206.639328 385.573761,207.219116 
	C385.647797,214.581955 385.395996,221.374084 384.881317,228.146255 
	C383.665131,244.148148 382.217072,260.132874 381.067932,276.139282 
	C380.190308,288.363739 379.771332,300.621124 378.892273,312.845459 
	C377.337463,334.466980 375.587738,356.074463 373.919556,377.687866 
M210.856567,308.559509 
	C213.321564,330.916138 231.593704,348.386200 254.041611,349.848877 
	C276.194000,351.292328 297.503754,336.550842 301.683990,314.788971 
	C304.004333,302.709473 303.760071,289.914062 303.078613,277.528961 
	C301.767456,253.697586 283.355438,236.277527 259.142212,234.609955 
	C236.853821,233.074921 215.453476,249.032700 211.687653,271.812653 
	C209.755981,283.497681 210.980972,295.704590 210.856567,308.559509 
z"/>
<path fill="#D8ECFE" opacity="1.000000" stroke="none" 
	d="
M342.973480,497.823547 
	C336.481323,497.882172 329.989197,497.989868 323.497040,497.991669 
	C273.024963,498.005768 222.552887,498.003448 172.080811,497.997345 
	C153.264130,497.995056 141.124313,486.600739 139.866028,467.918243 
	C138.892532,453.464569 137.830368,439.016571 136.739227,424.571198 
	C136.170776,417.045746 135.153671,415.831604 127.934456,413.558929 
	C127.432808,407.015747 126.922615,400.361053 126.350380,392.897095 
	C204.429108,392.897095 282.750061,392.897095 361.534637,393.432861 
	C361.633942,400.423737 361.379852,406.887360 360.883514,413.332306 
	C359.650696,429.341888 357.677917,445.324066 357.197449,461.353088 
	C356.774292,475.469696 353.266296,487.825134 342.973480,497.823547 
z"/>
<path fill="#B57F5F" opacity="1.000000" stroke="none" 
	d="
M405.971619,126.832275 
	C404.142639,126.887680 402.313721,126.991417 400.484772,126.991562 
	C299.377106,126.999359 198.269455,126.998482 97.161797,126.998497 
	C95.208778,126.998497 93.255753,126.998505 90.864494,126.998505 
	C90.864494,112.868706 90.703133,99.254181 91.079178,85.654526 
	C91.123634,84.047173 94.034103,82.422272 95.787048,81.019173 
	C96.299217,80.609222 97.403084,80.930038 98.235741,80.930130 
	C200.176010,80.941444 302.116272,80.954086 404.589050,81.445290 
	C405.413757,83.860817 405.949066,85.796478 405.958954,87.734825 
	C406.025513,100.766991 405.980469,113.799728 405.971619,126.832275 
z"/>
<path fill="#D8ECFE" opacity="1.000000" stroke="none" 
	d="
M376.880432,191.290817 
	C375.557068,191.380844 374.233734,191.549454 372.910370,191.549652 
	C290.085968,191.561798 207.261536,191.560211 124.437126,191.559891 
	C123.111290,191.559891 121.785461,191.559906 119.884003,191.559906 
	C118.674789,175.151428 117.478729,158.921494 116.232513,142.011017 
	C203.899338,142.011017 291.470734,142.011017 379.545258,142.520599 
	C378.992401,159.117065 377.936432,175.203934 376.880432,191.290817 
z"/>
<path fill="#B47F5F" opacity="1.000000" stroke="none" 
	d="
M113.807358,63.669659 
	C119.225838,48.833797 124.571175,33.970062 130.195862,19.212801 
	C130.667099,17.976418 133.035736,16.697311 134.492081,16.731943 
	C141.646515,16.902081 148.795547,17.870588 155.935577,17.771406 
	C158.512009,17.735615 162.079391,16.152769 163.362518,14.119663 
	C165.011719,11.506516 166.553284,10.837730 169.239090,10.967116 
	C172.231613,11.111279 175.254822,10.794296 178.230713,11.059396 
	C181.342850,11.336635 184.278336,11.465132 185.731964,15.637691 
	C186.451767,17.703844 190.162842,19.791336 192.675858,20.000116 
	C211.760178,21.585623 230.881607,22.728731 249.993988,23.971018 
	C284.561157,26.217852 319.130157,28.436647 353.698242,30.670061 
	C359.847412,31.067354 365.995636,31.478729 372.620789,32.341785 
	C377.043610,43.763748 380.989990,54.727531 384.936340,65.691307 
	C383.940796,65.754837 382.945190,65.874016 381.949615,65.873993 
	C292.959381,65.871834 203.969131,65.860504 114.499428,65.445328 
	C113.949097,64.583786 113.878227,64.126724 113.807358,63.669659 
z"/>
<path fill="#B47F5E" opacity="1.000000" stroke="none" 
	d="
M374.386902,377.766479 
	C375.587738,356.074463 377.337463,334.466980 378.892273,312.845459 
	C379.771332,300.621124 380.190308,288.363739 381.067932,276.139282 
	C382.217072,260.132874 383.665131,244.148148 384.881317,228.146255 
	C385.395996,221.374084 385.647797,214.581955 386.032043,207.341492 
	C391.669281,206.884079 397.293640,206.884079 403.464447,206.884079 
	C402.910583,215.856079 402.520966,224.609680 401.776398,233.332977 
	C401.313751,238.753494 402.939819,242.483398 409.082855,243.886459 
	C408.632935,250.806488 408.188293,257.645081 407.743683,264.490295 
	C400.538818,266.154327 399.390045,267.645905 398.857849,275.310272 
	C396.550781,308.534454 394.200287,341.755676 391.852936,374.977051 
	C391.796509,375.775360 391.592010,376.563232 391.373016,377.845123 
	C385.750671,377.845123 380.302429,377.845123 374.386902,377.766479 
z"/>
<path fill="#B2D8FC" opacity="1.000000" stroke="none" 
	d="
M343.404083,497.904419 
	C353.266296,487.825134 356.774292,475.469696 357.197449,461.353088 
	C357.677917,445.324066 359.650696,429.341888 360.883514,413.332306 
	C361.379852,406.887360 361.633942,400.423737 361.994934,393.524231 
	C367.758057,393.079865 373.524536,393.079865 379.609589,393.079865 
	C377.686157,419.487915 376.103760,445.533051 373.778503,471.511719 
	C372.393951,486.979980 359.610504,497.724121 343.404083,497.904419 
z"/>
<path fill="#A2C2E0" opacity="1.000000" stroke="none" 
	d="
M377.332153,191.446320 
	C377.936432,175.203934 378.992401,159.117065 380.008728,142.579224 
	C385.753632,142.128265 391.538269,142.128265 397.806396,142.128265 
	C396.599548,158.709900 395.411774,175.029236 394.205566,191.601837 
	C388.386719,191.601837 383.085297,191.601837 377.332153,191.446320 
z"/>
<path fill="#9F6E50" opacity="1.000000" stroke="none" 
	d="
M406.437622,126.897865 
	C405.980469,113.799728 406.025513,100.766991 405.958954,87.734825 
	C405.949066,85.796478 405.413757,83.860817 405.051483,81.518791 
	C409.289337,81.057724 413.597504,80.944481 417.905029,80.964989 
	C421.028046,80.979858 423.068695,82.594856 423.091034,85.771049 
	C423.186310,99.323677 423.131592,112.877350 423.131592,126.963455 
	C417.418823,126.963455 412.161255,126.963455 406.437622,126.897865 
z"/>
<path fill="#996A4E" opacity="1.000000" stroke="none" 
	d="
M385.401123,65.773682 
	C380.989990,54.727531 377.043610,43.763748 373.040894,32.435287 
	C388.653900,31.678156 388.651794,31.678925 393.969421,46.156567 
	C396.298492,52.497700 398.638092,58.834972 401.224152,65.856049 
	C395.670929,65.856049 390.768402,65.856049 385.401123,65.773682 
z"/>
<path fill="#996A4E" opacity="1.000000" stroke="none" 
	d="
M113.582779,63.870476 
	C113.878227,64.126724 113.949097,64.583786 114.037888,65.387039 
	C113.823273,65.179245 113.590744,64.625267 113.582779,63.870476 
z"/>
<path fill="#040302" opacity="1.000000" stroke="none" 
	d="
M210.817978,308.117554 
	C210.980972,295.704590 209.755981,283.497681 211.687653,271.812653 
	C215.453476,249.032700 236.853821,233.074921 259.142212,234.609955 
	C283.355438,236.277527 301.767456,253.697586 303.078613,277.528961 
	C303.760071,289.914062 304.004333,302.709473 301.683990,314.788971 
	C297.503754,336.550842 276.194000,351.292328 254.041611,349.848877 
	C231.593704,348.386200 213.321564,330.916138 210.817978,308.117554 
M259.218506,252.805649 
	C253.024902,264.204102 254.031998,275.093079 261.394409,285.624176 
	C264.436401,289.975403 267.248779,294.487122 270.270508,299.660126 
	C274.743652,309.623505 274.752258,319.886292 271.496033,331.333130 
	C281.264374,325.320251 287.248016,317.924103 287.954315,307.641846 
	C288.659180,297.380585 288.583740,287.004517 287.978546,276.730164 
	C287.241180,264.211670 275.766022,252.089172 263.682404,250.290909 
	C262.538116,250.120621 261.141235,251.647919 259.218506,252.805649 
M225.423080,301.017029 
	C225.523254,302.679108 225.596588,304.343353 225.727844,306.002960 
	C226.745117,318.866913 235.483047,329.607117 247.748657,333.529877 
	C251.769409,334.815765 254.060776,334.219757 255.845886,330.005402 
	C261.064728,317.684296 259.116425,306.699890 250.851974,296.442749 
	C241.409058,284.723022 237.865509,271.554596 241.583954,256.715424 
	C241.785675,255.910416 241.610001,255.010818 241.610001,253.551132 
	C232.542694,259.178131 226.975555,266.586548 225.998734,276.641724 
	C225.244644,284.404327 225.558685,292.270752 225.423080,301.017029 
z"/>
<path fill="#B27D5D" opacity="1.000000" stroke="none" 
	d="
M225.410461,300.554016 
	C225.558685,292.270752 225.244644,284.404327 225.998734,276.641724 
	C226.975555,266.586548 232.542694,259.178131 241.610001,253.551132 
	C241.610001,255.010818 241.785675,255.910416 241.583954,256.715424 
	C237.865509,271.554596 241.409058,284.723022 250.851974,296.442749 
	C259.116425,306.699890 261.064728,317.684296 255.845886,330.005402 
	C254.060776,334.219757 251.769409,334.815765 247.748657,333.529877 
	C235.483047,329.607117 226.745117,318.866913 225.727844,306.002960 
	C225.596588,304.343353 225.523254,302.679108 225.410461,300.554016 
z"/>
<path fill="#9C6C4F" opacity="1.000000" stroke="none" 
	d="
M259.861603,252.387100 
	C261.141235,251.647919 262.538116,250.120621 263.682404,250.290909 
	C275.766022,252.089172 287.241180,264.211670 287.978546,276.730164 
	C288.583740,287.004517 288.659180,297.380585 287.954315,307.641846 
	C287.248016,317.924103 281.264374,325.320251 271.496033,331.333130 
	C274.752258,319.886292 274.743652,309.623505 270.471558,298.973785 
	C270.431427,289.388550 271.399261,280.230530 269.565308,271.672974 
	C268.106018,264.863861 263.224060,258.788300 259.861603,252.387100 
z"/>
<path fill="#B27D5D" opacity="1.000000" stroke="none" 
	d="
M259.540039,252.596375 
	C263.224060,258.788300 268.106018,264.863861 269.565308,271.672974 
	C271.399261,280.230530 270.431427,289.388550 270.419128,298.606659 
	C267.248779,294.487122 264.436401,289.975403 261.394409,285.624176 
	C254.031998,275.093079 253.024902,264.204102 259.540039,252.596375 
z"/>
</svg>