<svg version="1.1" id="Layer_1" xmlns="http://www.w3.org/2000/svg" xmlns:xlink="http://www.w3.org/1999/xlink" x="0px" y="0px"
	 width="100%" viewBox="0 0 512 512" enable-background="new 0 0 512 512" xml:space="preserve">
<path fill="#000000" opacity="1.000000" stroke="none" 
	d="
M345.000000,513.000000 
	C230.027939,513.000000 115.555870,513.000000 1.041900,513.000000 
	C1.041900,342.402924 1.041900,171.805817 1.041900,1.104355 
	C171.555405,1.104355 342.110901,1.104355 512.833191,1.104355 
	C512.833191,171.666534 512.833191,342.333252 512.833191,513.000000 
	C457.139069,513.000000 401.319550,513.000000 345.000000,513.000000 
M270.114960,52.969849 
	C267.682678,53.315712 265.208588,53.481403 262.824554,54.035034 
	C236.097153,60.241795 219.548248,82.493027 219.115875,108.998947 
	C218.867096,124.250885 224.988739,137.430939 234.055847,148.982422 
	C211.601700,148.988144 189.147293,148.941315 166.693649,149.049255 
	C162.764786,149.068130 158.737442,149.299606 154.929672,150.183151 
	C139.306946,153.808228 128.102539,165.485458 126.309837,179.089493 
	C124.480247,192.973495 124.002609,207.035660 122.528694,221.188766 
	C122.208008,221.393417 122.164291,221.646164 122.206497,222.790176 
	C122.139694,224.516708 122.072891,226.243225 121.321869,228.179550 
	C114.809647,233.359222 108.020103,238.236176 101.899292,243.843140 
	C98.719887,246.755615 96.051994,248.474091 91.420959,249.336212 
	C67.482780,253.792694 49.271568,267.065063 38.193584,288.806915 
	C31.023045,302.879944 27.701900,317.986755 29.842184,334.168182 
	C31.375198,345.758453 34.025696,356.736115 40.136963,367.547028 
	C41.812332,378.327240 43.434597,389.116058 45.173569,399.885986 
	C49.442211,426.322906 53.793850,452.746490 58.053085,479.184906 
	C60.182617,492.403625 69.180664,503.105865 81.169113,504.661926 
	C89.026237,505.681732 97.122559,504.858612 106.024986,504.963837 
	C110.993103,504.946289 115.961220,504.928741 121.872894,504.984863 
	C130.626511,504.934265 139.380127,504.883667 149.042511,504.947876 
	C154.003006,504.933594 158.963486,504.919312 164.868225,504.978485 
	C173.620514,504.933624 182.372818,504.888763 192.035690,504.954163 
	C197.002808,504.941925 201.969910,504.929657 207.879623,504.990875 
	C215.326660,504.940308 222.773712,504.889771 231.127655,504.881866 
	C233.292236,504.921204 235.456818,504.994659 237.621399,504.994843 
	C303.927979,505.001038 370.234619,504.938965 436.541046,505.044708 
	C452.349701,505.069916 465.059296,499.153961 474.760956,486.726166 
	C481.192719,478.487061 484.207123,468.922089 484.923950,458.672485 
	C485.395508,451.929779 482.280121,449.033691 475.570068,449.000549 
	C466.409180,448.955322 457.248322,448.915863 448.026550,447.992645 
	C447.691803,444.882751 447.286987,441.778534 447.033966,438.662018 
	C445.673065,421.899414 444.352966,405.133514 443.012787,388.369202 
	C441.685974,371.771515 440.350739,355.174500 439.021454,338.576996 
	C437.612518,320.984558 436.206238,303.391907 434.854004,284.937805 
	C434.850983,284.106201 434.907928,283.269379 434.836121,282.443756 
	C433.223999,263.904938 431.520386,245.373718 429.999084,226.827515 
	C428.838806,212.682724 427.708130,198.529968 426.940216,184.360382 
	C426.405487,174.493576 422.668945,165.968994 415.599457,159.588394 
	C406.936676,151.769791 396.369568,148.593292 384.364136,148.845352 
	C361.591919,149.323502 338.800598,148.893204 316.291534,148.246048 
	C333.128754,131.838821 336.768646,104.880196 326.644348,84.421982 
	C319.236023,69.451912 307.613525,59.040676 291.345642,54.276169 
	C299.746582,44.959568 309.017273,36.439018 320.760956,31.905640 
	C329.418396,28.563635 338.831055,27.121759 347.963837,25.087591 
	C353.771790,23.793983 355.374420,21.973921 354.989990,15.865562 
	C354.674622,10.855303 352.518555,9.245649 346.656616,8.970004 
	C331.398407,8.252520 317.667297,12.764498 304.781952,20.601768 
	C291.139374,28.899616 280.142029,39.912693 270.114960,52.969849 
z"/>
<path fill="#FFCC80" opacity="1.000000" stroke="none" 
	d="
M122.933090,221.019821 
	C124.002609,207.035660 124.480247,192.973495 126.309837,179.089493 
	C128.102539,165.485458 139.306946,153.808228 154.929672,150.183151 
	C158.737442,149.299606 162.764786,149.068130 166.693649,149.049255 
	C189.147293,148.941315 211.601700,148.988144 234.982574,148.972488 
	C262.611938,148.921783 289.314575,148.881012 316.017212,148.840256 
	C338.800598,148.893204 361.591919,149.323502 384.364136,148.845352 
	C396.369568,148.593292 406.936676,151.769791 415.599457,159.588394 
	C422.668945,165.968994 426.405487,174.493576 426.940216,184.360382 
	C427.708130,198.529968 428.838806,212.682724 429.999084,226.827515 
	C431.520386,245.373718 433.223999,263.904938 434.836121,282.443756 
	C434.907928,283.269379 434.850983,284.106201 434.371399,285.397675 
	C428.057068,285.887177 422.223053,285.824860 416.394073,285.967377 
	C406.840729,286.200958 400.176727,292.808502 399.693390,302.342987 
	C399.508026,305.999359 399.544617,309.689606 399.041504,313.303345 
	C396.865509,328.933319 381.035614,339.813873 365.640778,336.401062 
	C351.290314,333.219818 343.029694,322.118561 342.999176,305.973541 
	C342.975037,293.204376 336.555634,285.933990 325.310852,285.940430 
	C314.058014,285.946869 307.797943,293.110443 307.788513,306.040283 
	C307.775055,324.537262 307.822845,343.034363 307.746857,361.531036 
	C307.733917,364.678101 307.505493,367.876465 306.904938,370.959198 
	C305.121399,380.114227 296.985382,389.691101 289.997070,390.101898 
	C282.716492,390.529907 275.380310,390.011658 268.126282,389.513702 
	C269.140350,382.063629 270.096527,375.007019 271.000977,367.950317 
	C270.949280,367.950287 270.942291,368.053467 271.198364,368.086304 
	C271.591431,367.807495 271.728424,367.495911 272.023712,366.847595 
	C279.922882,350.708954 284.318298,334.306335 282.047577,316.468567 
	C279.944763,299.949707 273.520325,285.475861 262.525513,273.047607 
	C250.551331,259.512268 235.247025,252.175537 217.634247,249.058563 
	C215.400620,248.663269 213.132507,247.191010 211.373184,245.653732 
	C207.767944,242.503525 204.818161,238.548737 201.033035,235.668289 
	C185.003769,223.470078 167.001266,217.479507 146.831573,220.943207 
	C138.402771,222.390686 130.272232,225.575089 122.006088,227.969757 
	C122.072891,226.243225 122.139694,224.516708 122.459076,222.260315 
	C122.887810,221.525482 122.961624,221.288605 122.933090,221.019821 
z"/>
<path fill="#F6967D" opacity="1.000000" stroke="none" 
	d="
M121.663979,228.074646 
	C130.272232,225.575089 138.402771,222.390686 146.831573,220.943207 
	C167.001266,217.479507 185.003769,223.470078 201.033035,235.668289 
	C204.818161,238.548737 207.767944,242.503525 211.373184,245.653732 
	C213.132507,247.191010 215.400620,248.663269 217.634247,249.058563 
	C235.247025,252.175537 250.551331,259.512268 262.525513,273.047607 
	C273.520325,285.475861 279.944763,299.949707 282.047577,316.468567 
	C284.318298,334.306335 279.922882,350.708954 271.811951,366.915771 
	C271.228546,367.532959 271.062012,367.777252 270.942291,368.053467 
	C270.942291,368.053467 270.949280,367.950287 270.630310,368.075928 
	C267.455872,368.839600 264.601227,370.030518 261.744812,370.034698 
	C191.428360,370.137878 121.111572,370.164429 50.795506,369.969757 
	C47.282303,369.960052 43.774944,367.836670 40.264862,366.697510 
	C34.025696,356.736115 31.375198,345.758453 29.842184,334.168182 
	C27.701900,317.986755 31.023045,302.879944 38.193584,288.806915 
	C49.271568,267.065063 67.482780,253.792694 91.420959,249.336212 
	C96.051994,248.474091 98.719887,246.755615 101.899292,243.843140 
	C108.020103,238.236176 114.809647,233.359222 121.663979,228.074646 
z"/>
<path fill="#4A361F" opacity="1.000000" stroke="none" 
	d="
M40.200912,367.122253 
	C43.774944,367.836670 47.282303,369.960052 50.795506,369.969757 
	C121.111572,370.164429 191.428360,370.137878 261.744812,370.034698 
	C264.601227,370.030518 267.455872,368.839600 270.682007,368.075989 
	C270.096527,375.007019 269.140350,382.063629 268.078064,389.934875 
	C266.422974,400.357056 264.825806,409.957214 263.338593,419.574310 
	C261.826447,429.352722 260.422638,439.147827 258.754028,449.266724 
	C257.083771,458.243835 255.196701,466.843750 254.273926,475.545959 
	C252.659790,490.767822 245.006287,500.630615 230.220749,504.839203 
	C222.773712,504.889771 215.326660,504.940308 207.520721,504.569183 
	C207.761932,500.380493 208.437012,496.623688 208.949966,492.844879 
	C212.165070,469.159912 215.340637,445.469574 218.536377,421.782013 
	C220.001129,410.924835 221.598602,400.083527 222.873199,389.204224 
	C223.190796,386.493347 223.116104,383.404968 222.104736,380.950348 
	C220.713364,377.573395 217.456253,376.374695 213.758331,377.051880 
	C208.836151,377.953278 207.683395,381.844818 207.131836,385.911682 
	C201.755936,425.550293 196.450546,465.198456 191.125107,504.843872 
	C182.372818,504.888763 173.620514,504.933624 164.443237,504.481873 
	C164.034256,464.502106 164.053711,425.018982 164.051270,385.535828 
	C164.051193,384.213318 164.334732,382.399139 163.616226,381.661591 
	C161.560181,379.551208 159.210938,376.718567 156.680984,376.379639 
	C154.441727,376.079681 151.355835,378.315979 149.500885,380.253296 
	C148.251862,381.557739 148.126678,384.289703 148.123886,386.383881 
	C148.071381,425.866882 148.112320,465.349976 148.133743,504.833069 
	C139.380127,504.883667 130.626511,504.934265 121.438202,504.519684 
	C120.360458,498.953308 119.755104,493.847046 119.068291,488.751770 
	C114.390068,454.045227 109.706818,419.339355 104.992058,384.637756 
	C104.266846,379.300018 100.647659,376.355865 95.845955,376.991699 
	C91.203285,377.606476 88.414291,381.557648 89.139648,386.939667 
	C91.600174,405.196106 94.197975,423.434082 96.671829,441.688782 
	C99.524757,462.740784 102.301765,483.803070 105.111748,504.860870 
	C97.122559,504.858612 89.026237,505.681732 81.169113,504.661926 
	C69.180664,503.105865 60.182617,492.403625 58.053085,479.184906 
	C53.793850,452.746490 49.442211,426.322906 45.173569,399.885986 
	C43.434597,389.116058 41.812332,378.327240 40.200912,367.122253 
z"/>
<path fill="#6D4C41" opacity="1.000000" stroke="none" 
	d="
M258.971436,448.935638 
	C260.422638,439.147827 261.826447,429.352722 263.338593,419.574310 
	C264.825806,409.957214 266.422974,400.357056 268.020172,390.328308 
	C275.380310,390.011658 282.716492,390.529907 289.997070,390.101898 
	C296.985382,389.691101 305.121399,380.114227 306.904938,370.959198 
	C307.505493,367.876465 307.733917,364.678101 307.746857,361.531036 
	C307.822845,343.034363 307.775055,324.537262 307.788513,306.040283 
	C307.797943,293.110443 314.058014,285.946869 325.310852,285.940430 
	C336.555634,285.933990 342.975037,293.204376 342.999176,305.973541 
	C343.029694,322.118561 351.290314,333.219818 365.640778,336.401062 
	C381.035614,339.813873 396.865509,328.933319 399.041504,313.303345 
	C399.544617,309.689606 399.508026,305.999359 399.693390,302.342987 
	C400.176727,292.808502 406.840729,286.200958 416.394073,285.967377 
	C422.223053,285.824860 428.057068,285.887177 434.343781,285.828430 
	C436.206238,303.391907 437.612518,320.984558 439.021454,338.576996 
	C440.350739,355.174500 441.685974,371.771515 443.012787,388.369202 
	C444.352966,405.133514 445.673065,421.899414 447.033966,438.662018 
	C447.286987,441.778534 447.691803,444.882751 447.585022,448.474976 
	C384.419464,448.950043 321.695435,448.942841 258.971436,448.935638 
z"/>
<path fill="#E7685D" opacity="1.000000" stroke="none" 
	d="
M258.754028,449.266724 
	C321.695435,448.942841 384.419464,448.950043 447.615479,448.915588 
	C457.248322,448.915863 466.409180,448.955322 475.570068,449.000549 
	C482.280121,449.033691 485.395508,451.929779 484.923950,458.672485 
	C484.207123,468.922089 481.192719,478.487061 474.760956,486.726166 
	C465.059296,499.153961 452.349701,505.069916 436.541046,505.044708 
	C370.234619,504.938965 303.927979,505.001038 237.621399,504.994843 
	C235.456818,504.994659 233.292236,504.921204 230.674194,504.860535 
	C245.006287,500.630615 252.659790,490.767822 254.273926,475.545959 
	C255.196701,466.843750 257.083771,458.243835 258.754028,449.266724 
z"/>
<path fill="#C62828" opacity="1.000000" stroke="none" 
	d="
M316.154358,148.543152 
	C289.314575,148.881012 262.611938,148.921783 235.445312,148.901733 
	C224.988739,137.430939 218.867096,124.250885 219.115875,108.998947 
	C219.548248,82.493027 236.097153,60.241795 262.824554,54.035034 
	C265.208588,53.481403 267.682678,53.315712 271.000610,52.985397 
	C278.271362,53.616184 284.656464,54.231430 291.041565,54.846672 
	C307.613525,59.040676 319.236023,69.451912 326.644348,84.421982 
	C336.768646,104.880196 333.128754,131.838821 316.154358,148.543152 
z"/>
<path fill="#8E6B55" opacity="1.000000" stroke="none" 
	d="
M105.568367,504.912354 
	C102.301765,483.803070 99.524757,462.740784 96.671829,441.688782 
	C94.197975,423.434082 91.600174,405.196106 89.139648,386.939667 
	C88.414291,381.557648 91.203285,377.606476 95.845955,376.991699 
	C100.647659,376.355865 104.266846,379.300018 104.992058,384.637756 
	C109.706818,419.339355 114.390068,454.045227 119.068291,488.751770 
	C119.755104,493.847046 120.360458,498.953308 120.966415,504.482849 
	C115.961220,504.928741 110.993103,504.946289 105.568367,504.912354 
z"/>
<path fill="#8E6B55" opacity="1.000000" stroke="none" 
	d="
M191.580399,504.899048 
	C196.450546,465.198456 201.755936,425.550293 207.131836,385.911682 
	C207.683395,381.844818 208.836151,377.953278 213.758331,377.051880 
	C217.456253,376.374695 220.713364,377.573395 222.104736,380.950348 
	C223.116104,383.404968 223.190796,386.493347 222.873199,389.204224 
	C221.598602,400.083527 220.001129,410.924835 218.536377,421.782013 
	C215.340637,445.469574 212.165070,469.159912 208.949966,492.844879 
	C208.437012,496.623688 207.761932,500.380493 207.049408,504.532440 
	C201.969910,504.929657 197.002808,504.941925 191.580399,504.899048 
z"/>
<path fill="#8E6B55" opacity="1.000000" stroke="none" 
	d="
M148.588135,504.890472 
	C148.112320,465.349976 148.071381,425.866882 148.123886,386.383881 
	C148.126678,384.289703 148.251862,381.557739 149.500885,380.253296 
	C151.355835,378.315979 154.441727,376.079681 156.680984,376.379639 
	C159.210938,376.718567 161.560181,379.551208 163.616226,381.661591 
	C164.334732,382.399139 164.051193,384.213318 164.051270,385.535828 
	C164.053711,425.018982 164.034256,464.502106 163.971130,504.445160 
	C158.963486,504.919312 154.003006,504.933594 148.588135,504.890472 
z"/>
<path fill="#424242" opacity="1.000000" stroke="none" 
	d="
M291.193604,54.561420 
	C284.656464,54.231430 278.271362,53.616184 271.427612,52.933346 
	C280.142029,39.912693 291.139374,28.899616 304.781952,20.601768 
	C317.667297,12.764498 331.398407,8.252520 346.656616,8.970004 
	C352.518555,9.245649 354.674622,10.855303 354.989990,15.865562 
	C355.374420,21.973921 353.771790,23.793983 347.963837,25.087591 
	C338.831055,27.121759 329.418396,28.563635 320.760956,31.905640 
	C309.017273,36.439018 299.746582,44.959568 291.193604,54.561420 
z"/>
<path fill="#F6967D" opacity="1.000000" stroke="none" 
	d="
M122.730896,221.104294 
	C122.961624,221.288605 122.887810,221.525482 122.554596,221.838715 
	C122.164291,221.646164 122.208008,221.393417 122.730896,221.104294 
z"/>
<path fill="#4A361F" opacity="1.000000" stroke="none" 
	d="
M271.198364,368.086304 
	C271.062012,367.777252 271.228546,367.532959 271.653625,367.252441 
	C271.728424,367.495911 271.591431,367.807495 271.198364,368.086304 
z"/>
</svg>