<svg version="1.1" id="Layer_1" xmlns="http://www.w3.org/2000/svg" xmlns:xlink="http://www.w3.org/1999/xlink" x="0px" y="0px"
	 width="100%" viewBox="0 0 512 512" enable-background="new 0 0 512 512" xml:space="preserve">
<path fill="none" opacity="1.000000" stroke="none" 
	d="
M236.000000,513.000000 
	C157.352402,513.000000 79.204803,513.000000 1.028605,513.000000 
	C1.028605,342.394043 1.028605,171.788086 1.028605,1.091059 
	C171.564285,1.091059 342.128632,1.091059 512.846497,1.091059 
	C512.846497,171.666565 512.846497,342.333252 512.846497,513.000000 
	C420.788055,513.000000 328.644012,513.000000 236.000000,513.000000 
M265.099701,456.333344 
	C267.352325,450.113953 268.934540,449.005524 275.829224,449.004395 
	C325.318085,448.996246 374.806915,448.999939 424.295776,448.999908 
	C426.405792,448.999908 428.515778,448.999939 431.026855,448.999939 
	C431.026855,446.520813 431.149628,444.723511 431.008362,442.947235 
	C429.055817,418.392487 427.036011,393.843079 425.095398,369.287384 
	C422.997437,342.740295 420.916138,316.191650 418.967773,289.633362 
	C418.731018,286.405670 417.321533,285.759613 414.513916,286.004730 
	C407.264282,286.637695 400.665192,292.933472 399.929352,300.242828 
	C399.679840,302.721619 399.842987,305.238983 399.706940,307.732697 
	C398.589142,328.220978 381.714447,341.292084 363.299164,335.839325 
	C352.074371,332.515656 342.060486,321.886963 342.883545,304.538910 
	C343.423035,293.167206 336.104095,285.947754 325.373627,285.954254 
	C314.424316,285.960876 307.871002,292.837891 307.847198,304.487213 
	C307.807312,323.982727 307.862091,343.478455 307.817871,362.973969 
	C307.795898,372.654175 304.552460,380.920746 296.702972,386.987946 
	C289.442505,392.599915 284.467316,391.265472 281.018066,382.123627 
	C282.263702,380.033234 283.017883,377.193451 284.847504,375.993439 
	C290.265930,372.439728 291.834534,367.561890 291.806610,361.484344 
	C291.714661,341.489838 291.555023,321.490112 291.904877,301.500854 
	C292.192352,285.075775 305.175415,271.485901 321.152069,270.052185 
	C339.349030,268.419220 354.570740,278.880493 358.051178,295.725098 
	C358.883362,299.752747 358.807526,303.983917 358.980103,308.128510 
	C359.285736,315.469543 364.154938,320.779755 370.921844,320.979218 
	C377.754639,321.180603 382.911591,316.265808 383.518280,308.824158 
	C383.748016,306.006195 383.593750,303.158142 383.789185,300.335938 
	C384.782776,285.989349 394.782349,274.203613 408.795654,270.900665 
	C411.478882,270.268219 414.237549,269.955750 417.227234,269.450806 
	C414.922150,240.975677 412.598175,212.769623 410.379272,184.555313 
	C409.698853,175.903900 404.872223,170.291809 397.251099,167.327530 
	C393.185944,165.746353 388.515442,165.100021 384.116211,165.091995 
	C312.133026,164.960678 240.149536,164.998749 168.166107,165.000183 
	C166.999832,165.000214 165.831741,164.980637 164.667557,165.035385 
	C153.312866,165.569214 141.584885,173.265625 141.756332,187.184662 
	C141.846146,194.477371 141.010757,201.848373 139.817123,209.055481 
	C139.370056,211.755005 137.144440,215.698212 134.991150,216.264130 
	C130.162552,217.533157 130.740005,220.607239 130.198944,224.474365 
	C132.146164,223.938690 133.526962,223.562714 134.905609,223.179016 
	C160.754501,215.984680 184.360825,220.537277 204.187836,238.619339 
	C211.532806,245.317856 218.929199,249.281784 228.472214,251.946457 
	C272.796295,264.323059 295.211060,315.391327 275.628998,358.606232 
	C272.100677,366.392731 270.468567,374.289215 269.236694,383.410217 
	C267.956024,391.111206 266.604584,398.801270 265.409241,406.515472 
	C262.816437,423.248322 260.303406,439.993561 257.256622,457.352692 
	C255.453674,467.818542 253.650696,478.284363 251.832092,488.840973 
	C252.391846,488.881042 253.211761,488.990936 254.031693,488.991028 
	C315.002441,488.998474 375.973206,488.997437 436.943939,488.994324 
	C437.609955,488.994293 438.277374,488.979736 438.941772,488.936157 
	C452.609924,488.039001 465.400543,477.048157 466.541534,465.000000 
	C464.529938,465.000000 462.540375,465.000000 460.550812,465.000000 
	C398.913727,464.999969 337.276611,465.003876 275.639526,464.994232 
	C268.736847,464.993134 266.908081,463.598480 265.099701,456.333344 
M74.016747,273.496124 
	C48.210407,290.788849 38.631775,323.681244 51.144421,351.920135 
	C52.205975,354.315918 53.211376,355.921600 56.491196,355.915344 
	C122.954552,355.788483 189.418243,355.801514 255.881744,355.885071 
	C258.696991,355.888611 260.352692,355.014862 261.016785,352.393097 
	C262.885071,345.017334 265.863678,337.699768 266.333496,330.229065 
	C269.401459,281.447113 222.510651,253.049759 189.810135,269.215515 
	C184.947327,271.619476 180.500534,269.384338 178.818497,264.817535 
	C177.227753,260.498566 179.112671,256.607849 184.034317,254.476059 
	C187.145859,253.128326 190.368652,252.037384 193.711700,250.766586 
	C172.911438,231.131348 137.894440,231.188934 118.854134,250.851593 
	C122.047523,252.046219 125.153061,253.086823 128.160126,254.360031 
	C133.230743,256.506989 135.301178,260.711060 133.602097,265.067596 
	C131.913208,269.397949 127.387566,271.275116 122.385109,269.155212 
	C105.727699,262.096283 89.913872,264.176300 74.016747,273.496124 
M240.522079,460.017853 
	C245.246628,430.881470 249.971161,401.745087 254.736450,372.357422 
	C188.839066,372.357422 123.647079,372.357422 58.348877,372.357422 
	C58.246773,373.594299 58.009438,374.436951 58.136665,375.220367 
	C63.731735,409.672852 69.347626,444.121948 74.994675,478.565948 
	C75.842278,483.735931 79.241776,487.458160 83.994865,488.174103 
	C90.056877,489.087219 96.360657,488.395416 102.950203,488.395416 
	C99.763496,464.944733 96.636131,441.918243 93.504669,418.892242 
	C92.026817,408.025452 90.430000,397.173248 89.108063,386.287598 
	C88.491127,381.207336 91.493492,377.488525 96.028664,376.990082 
	C100.528824,376.495453 104.238167,379.168396 104.896637,383.857605 
	C107.345947,401.300293 109.642342,418.764435 112.009354,436.218689 
	C114.175346,452.190765 116.474052,468.146271 118.454269,484.141235 
	C118.962410,488.245758 120.745766,489.289062 124.604759,489.081726 
	C130.419235,488.769318 136.285767,488.681885 142.087234,489.097687 
	C147.039062,489.452576 148.193878,487.616486 148.164795,482.891235 
	C147.969955,451.236938 148.040253,419.580811 148.109726,387.925476 
	C148.115097,385.482086 148.414093,382.915314 149.210175,380.626221 
	C150.466690,377.013092 153.478775,375.601044 157.186569,376.094543 
	C160.892532,376.587769 163.211731,378.840637 163.873657,382.526093 
	C164.164719,384.146545 164.055054,385.846619 164.055511,387.510529 
	C164.064209,419.499237 164.144592,451.488403 163.967178,483.476135 
	C163.942657,487.898529 165.206970,489.327087 169.617035,489.089905 
	C176.096054,488.741425 182.610367,488.886292 189.104156,489.045563 
	C192.261658,489.122986 193.555710,487.815643 193.952484,484.780701 
	C197.269608,459.407349 200.638870,434.040680 204.066605,408.682007 
	C205.245590,399.959900 206.434677,391.229767 208.009644,382.574371 
	C208.834976,378.038605 212.411469,376.382721 216.711243,377.067810 
	C220.839569,377.725555 223.227493,380.468994 223.041992,384.729187 
	C222.839890,389.371338 222.374954,394.016937 221.747299,398.623260 
	C217.911118,426.776886 214.032501,454.924927 210.070389,483.061066 
	C209.437469,487.555634 210.674744,489.631134 215.547302,489.063232 
	C218.506378,488.718414 221.541214,489.085052 224.536041,488.973022 
	C231.495331,488.712769 236.577484,484.421692 237.773727,477.630249 
	C238.753906,472.065521 239.469208,466.454102 240.522079,460.017853 
M306.749481,134.211029 
	C313.873840,124.927658 316.911163,114.603928 315.164337,102.880043 
	C311.964508,81.404503 291.089417,65.839439 270.009247,69.372192 
	C247.183197,73.197540 231.904282,94.268661 236.415222,116.232147 
	C239.669571,132.077286 249.188004,142.867203 264.802856,147.314529 
	C281.076202,151.949402 294.956360,147.190750 306.749481,134.211029 
z"/>
<path fill="#FECB80" opacity="1.000000" stroke="none" 
	d="
M269.576172,382.554565 
	C270.468567,374.289215 272.100677,366.392731 275.628998,358.606232 
	C295.211060,315.391327 272.796295,264.323059 228.472214,251.946457 
	C218.929199,249.281784 211.532806,245.317856 204.187836,238.619339 
	C184.360825,220.537277 160.754501,215.984680 134.905609,223.179016 
	C133.526962,223.562714 132.146164,223.938690 130.198944,224.474365 
	C130.740005,220.607239 130.162552,217.533157 134.991150,216.264130 
	C137.144440,215.698212 139.370056,211.755005 139.817123,209.055481 
	C141.010757,201.848373 141.846146,194.477371 141.756332,187.184662 
	C141.584885,173.265625 153.312866,165.569214 164.667557,165.035385 
	C165.831741,164.980637 166.999832,165.000214 168.166107,165.000183 
	C240.149536,164.998749 312.133026,164.960678 384.116211,165.091995 
	C388.515442,165.100021 393.185944,165.746353 397.251099,167.327530 
	C404.872223,170.291809 409.698853,175.903900 410.379272,184.555313 
	C412.598175,212.769623 414.922150,240.975677 417.227234,269.450806 
	C414.237549,269.955750 411.478882,270.268219 408.795654,270.900665 
	C394.782349,274.203613 384.782776,285.989349 383.789185,300.335938 
	C383.593750,303.158142 383.748016,306.006195 383.518280,308.824158 
	C382.911591,316.265808 377.754639,321.180603 370.921844,320.979218 
	C364.154938,320.779755 359.285736,315.469543 358.980103,308.128510 
	C358.807526,303.983917 358.883362,299.752747 358.051178,295.725098 
	C354.570740,278.880493 339.349030,268.419220 321.152069,270.052185 
	C305.175415,271.485901 292.192352,285.075775 291.904877,301.500854 
	C291.555023,321.490112 291.714661,341.489838 291.806610,361.484344 
	C291.834534,367.561890 290.265930,372.439728 284.847504,375.993439 
	C283.017883,377.193451 282.263702,380.033234 280.478394,382.369293 
	C276.484558,382.594818 273.030365,382.574677 269.576172,382.554565 
z"/>
<path fill="#F5957C" opacity="1.000000" stroke="none" 
	d="
M74.317406,273.292236 
	C89.913872,264.176300 105.727699,262.096283 122.385109,269.155212 
	C127.387566,271.275116 131.913208,269.397949 133.602097,265.067596 
	C135.301178,260.711060 133.230743,256.506989 128.160126,254.360031 
	C125.153061,253.086823 122.047523,252.046219 118.854134,250.851593 
	C137.894440,231.188934 172.911438,231.131348 193.711700,250.766586 
	C190.368652,252.037384 187.145859,253.128326 184.034317,254.476059 
	C179.112671,256.607849 177.227753,260.498566 178.818497,264.817535 
	C180.500534,269.384338 184.947327,271.619476 189.810135,269.215515 
	C222.510651,253.049759 269.401459,281.447113 266.333496,330.229065 
	C265.863678,337.699768 262.885071,345.017334 261.016785,352.393097 
	C260.352692,355.014862 258.696991,355.888611 255.881744,355.885071 
	C189.418243,355.801514 122.954552,355.788483 56.491196,355.915344 
	C53.211376,355.921600 52.205975,354.315918 51.144421,351.920135 
	C38.631775,323.681244 48.210407,290.788849 74.317406,273.292236 
z"/>
<path fill="#6D4C41" opacity="1.000000" stroke="none" 
	d="
M269.406433,382.982361 
	C273.030365,382.574677 276.484558,382.594818 280.371521,382.709259 
	C284.467316,391.265472 289.442505,392.599915 296.702972,386.987946 
	C304.552460,380.920746 307.795898,372.654175 307.817871,362.973969 
	C307.862091,343.478455 307.807312,323.982727 307.847198,304.487213 
	C307.871002,292.837891 314.424316,285.960876 325.373627,285.954254 
	C336.104095,285.947754 343.423035,293.167206 342.883545,304.538910 
	C342.060486,321.886963 352.074371,332.515656 363.299164,335.839325 
	C381.714447,341.292084 398.589142,328.220978 399.706940,307.732697 
	C399.842987,305.238983 399.679840,302.721619 399.929352,300.242828 
	C400.665192,292.933472 407.264282,286.637695 414.513916,286.004730 
	C417.321533,285.759613 418.731018,286.405670 418.967773,289.633362 
	C420.916138,316.191650 422.997437,342.740295 425.095398,369.287384 
	C427.036011,393.843079 429.055817,418.392487 431.008362,442.947235 
	C431.149628,444.723511 431.026855,446.520813 431.026855,448.999939 
	C428.515778,448.999939 426.405792,448.999908 424.295776,448.999908 
	C374.806915,448.999939 325.318085,448.996246 275.829224,449.004395 
	C268.934540,449.005524 267.352325,450.113953 264.570831,456.673584 
	C261.947235,456.920502 259.852478,456.827118 257.757751,456.733734 
	C260.303406,439.993561 262.816437,423.248322 265.409241,406.515472 
	C266.604584,398.801270 267.956024,391.111206 269.406433,382.982361 
z"/>
<path fill="#48361F" opacity="1.000000" stroke="none" 
	d="
M240.412018,460.440613 
	C239.469208,466.454102 238.753906,472.065521 237.773727,477.630249 
	C236.577484,484.421692 231.495331,488.712769 224.536041,488.973022 
	C221.541214,489.085052 218.506378,488.718414 215.547302,489.063232 
	C210.674744,489.631134 209.437469,487.555634 210.070389,483.061066 
	C214.032501,454.924927 217.911118,426.776886 221.747299,398.623260 
	C222.374954,394.016937 222.839890,389.371338 223.041992,384.729187 
	C223.227493,380.468994 220.839569,377.725555 216.711243,377.067810 
	C212.411469,376.382721 208.834976,378.038605 208.009644,382.574371 
	C206.434677,391.229767 205.245590,399.959900 204.066605,408.682007 
	C200.638870,434.040680 197.269608,459.407349 193.952484,484.780701 
	C193.555710,487.815643 192.261658,489.122986 189.104156,489.045563 
	C182.610367,488.886292 176.096054,488.741425 169.617035,489.089905 
	C165.206970,489.327087 163.942657,487.898529 163.967178,483.476135 
	C164.144592,451.488403 164.064209,419.499237 164.055511,387.510529 
	C164.055054,385.846619 164.164719,384.146545 163.873657,382.526093 
	C163.211731,378.840637 160.892532,376.587769 157.186569,376.094543 
	C153.478775,375.601044 150.466690,377.013092 149.210175,380.626221 
	C148.414093,382.915314 148.115097,385.482086 148.109726,387.925476 
	C148.040253,419.580811 147.969955,451.236938 148.164795,482.891235 
	C148.193878,487.616486 147.039062,489.452576 142.087234,489.097687 
	C136.285767,488.681885 130.419235,488.769318 124.604759,489.081726 
	C120.745766,489.289062 118.962410,488.245758 118.454269,484.141235 
	C116.474052,468.146271 114.175346,452.190765 112.009354,436.218689 
	C109.642342,418.764435 107.345947,401.300293 104.896637,383.857605 
	C104.238167,379.168396 100.528824,376.495453 96.028664,376.990082 
	C91.493492,377.488525 88.491127,381.207336 89.108063,386.287598 
	C90.430000,397.173248 92.026817,408.025452 93.504669,418.892242 
	C96.636131,441.918243 99.763496,464.944733 102.950203,488.395416 
	C96.360657,488.395416 90.056877,489.087219 83.994865,488.174103 
	C79.241776,487.458160 75.842278,483.735931 74.994675,478.565948 
	C69.347626,444.121948 63.731735,409.672852 58.136665,375.220367 
	C58.009438,374.436951 58.246773,373.594299 58.348877,372.357422 
	C123.647079,372.357422 188.839066,372.357422 254.736450,372.357422 
	C249.971161,401.745087 245.246628,430.881470 240.412018,460.440613 
z"/>
<path fill="#C52828" opacity="1.000000" stroke="none" 
	d="
M306.521057,134.485535 
	C294.956360,147.190750 281.076202,151.949402 264.802856,147.314529 
	C249.188004,142.867203 239.669571,132.077286 236.415222,116.232147 
	C231.904282,94.268661 247.183197,73.197540 270.009247,69.372192 
	C291.089417,65.839439 311.964508,81.404503 315.164337,102.880043 
	C316.911163,114.603928 313.873840,124.927658 306.521057,134.485535 
z"/>
<path fill="#E7685D" opacity="1.000000" stroke="none" 
	d="
M257.507202,457.043213 
	C259.852478,456.827118 261.947235,456.920502 264.487427,457.028809 
	C266.908081,463.598480 268.736847,464.993134 275.639526,464.994232 
	C337.276611,465.003876 398.913727,464.999969 460.550812,465.000000 
	C462.540375,465.000000 464.529938,465.000000 466.541534,465.000000 
	C465.400543,477.048157 452.609924,488.039001 438.941772,488.936157 
	C438.277374,488.979736 437.609955,488.994293 436.943939,488.994324 
	C375.973206,488.997437 315.002441,488.998474 254.031693,488.991028 
	C253.211761,488.990936 252.391846,488.881042 251.832092,488.840973 
	C253.650696,478.284363 255.453674,467.818542 257.507202,457.043213 
z"/>
</svg>