<svg version="1.1" id="Layer_1" xmlns="http://www.w3.org/2000/svg" xmlns:xlink="http://www.w3.org/1999/xlink" x="0px" y="0px"
	 width="100%" viewBox="0 0 512 512" enable-background="new 0 0 512 512" xml:space="preserve">

<path fill="#FFFFFF" opacity="1.000000" stroke="none" 
	d="
M258.053253,131.900238 
	C221.894760,131.932327 185.735062,131.828857 149.579147,132.150558 
	C144.474197,132.195969 139.387711,134.315521 133.995392,135.542694 
	C129.193085,116.866966 124.078239,97.061951 119.020714,77.242325 
	C117.866974,72.721008 117.027649,68.118401 115.835770,63.608139 
	C114.241646,57.575684 110.150940,53.248238 104.883354,50.494987 
	C85.915337,40.580830 66.766716,31.012667 47.705597,21.276068 
	C33.455086,13.996778 19.856436,20.971542 16.560507,34.028687 
	C14.267964,43.110813 16.987106,52.504051 29.718748,58.951763 
	C44.076237,66.222862 58.500790,73.363831 72.965599,80.419075 
	C76.556831,82.170700 78.359184,84.258392 79.223557,88.599236 
	C82.111084,103.100395 85.928848,117.416008 89.372337,131.806976 
	C90.530556,136.647415 91.635246,141.500656 92.861641,146.765488 
	C91.326439,146.841629 89.765030,146.985199 88.203506,146.986465 
	C69.207069,147.001953 50.202316,147.342026 31.216801,146.886353 
	C16.229067,146.526627 3.286865,159.211578 3.936021,174.247498 
	C4.550721,188.485306 4.537156,202.749191 5.031559,216.993561 
	C5.540896,231.668182 6.335849,246.332855 6.994977,261.002350 
	C7.669050,276.004486 8.324185,291.007416 8.998260,306.009552 
	C9.657390,320.679047 10.329956,335.347961 10.996623,350.017120 
	C11.663288,364.686279 12.335851,379.355194 12.994982,394.024689 
	C13.669056,409.026825 13.575285,424.113892 15.240480,439.004669 
	C16.523518,450.478058 14.575123,462.170990 18.720381,473.505676 
	C23.762383,487.292419 33.839848,493.844452 47.326317,493.937714 
	C77.649025,494.147461 107.974190,494.003479 138.231888,494.003479 
	C143.355301,502.645782 149.196808,510.248871 159.881653,512.631714 
	C107.022133,513.000000 54.044266,513.000000 1.033198,513.000000 
	C1.033198,342.426727 1.033198,171.853470 1.033198,1.000000 
	C126.020752,1.000000 251.041718,1.000000 376.531342,1.000000 
	C373.988953,2.169585 371.052795,3.621067 367.949982,4.445036 
	C362.837402,5.802706 360.398529,8.777530 360.606384,14.568971 
	C358.801025,15.407264 357.382599,15.773404 355.632812,15.976881 
	C353.902069,11.995520 350.869629,10.512789 347.185089,11.091666 
	C343.748688,11.631567 340.300873,12.661624 337.108612,14.051359 
	C333.077271,15.806336 331.562073,19.940939 332.513885,23.978691 
	C330.140991,24.330153 328.150787,24.657999 326.014954,24.658493 
	C323.430176,22.886673 320.777802,19.942822 318.588196,20.254108 
	C308.446716,21.695887 298.765228,24.593546 293.987427,35.156334 
	C290.958740,41.852158 288.016510,48.587292 284.961945,55.271187 
	C275.981354,74.922195 266.942688,94.546684 257.976318,114.204155 
	C255.765076,119.051994 256.838226,122.574883 261.111542,126.066284 
	C260.015442,128.237091 259.034332,130.068665 258.053253,131.900238 
z"/>
<path fill="#FFFFFF" opacity="1.000000" stroke="none" 
	d="
M473.998474,217.042923 
	C481.329529,214.669937 481.722778,213.904129 482.054749,207.011627 
	C482.503754,197.688446 483.987000,188.367142 483.772461,179.073975 
	C483.573761,170.465652 482.871277,161.311584 476.116913,154.804169 
	C470.361145,149.258881 463.146057,146.773865 454.872467,146.912613 
	C438.227417,147.191711 421.574280,146.990677 404.568298,146.613647 
	C405.127838,144.747299 406.043579,143.255081 406.959320,141.762848 
	C412.345734,142.782120 415.810333,141.007126 418.130188,135.675400 
	C424.399506,121.266754 431.466675,107.199265 437.515717,92.703644 
	C440.007019,86.733627 443.826660,83.713615 449.693878,81.987648 
	C463.684296,77.872032 477.529175,73.255852 491.549805,69.251427 
	C497.760681,67.477539 503.096191,65.287354 507.073273,59.649303 
	C511.202423,53.795689 511.094910,42.676205 506.635071,36.127522 
	C502.372864,29.869068 491.569092,26.049505 484.217010,28.313131 
	C463.097229,34.815655 442.022339,41.464153 420.897980,47.951580 
	C414.327393,49.969448 409.725403,54.133118 407.005951,60.260574 
	C394.787140,87.792053 382.710571,115.386719 370.456604,142.902420 
	C369.736755,144.518753 367.956970,146.711182 366.590851,146.769485 
	C363.893585,146.884583 361.101166,148.124557 358.488739,144.340195 
	C352.869843,136.200668 344.548370,131.908020 334.302338,131.977783 
	C322.475159,132.058304 310.647003,131.996506 298.147461,131.996506 
	C300.847168,125.834824 303.342163,119.920792 306.012817,114.087196 
	C313.290833,98.189522 320.956726,82.459724 327.818512,66.385765 
	C330.746704,59.526409 337.083496,59.909542 342.114838,58.223347 
	C358.668304,52.675652 375.551819,48.121902 392.213562,42.884159 
	C399.632996,40.551804 405.684021,31.657915 406.015167,23.931374 
	C406.425995,14.346854 401.806793,5.738798 391.096954,1.349193 
	C431.645020,1.000000 472.290039,1.000000 512.967529,1.000000 
	C512.967529,171.554169 512.967529,342.108368 512.967529,513.000000 
	C450.646179,513.000000 388.291748,513.000000 325.468658,513.000000 
	C334.769196,509.720490 341.948181,503.494324 346.508789,494.003479 
	C377.208557,494.003479 408.006134,493.999512 438.803680,494.005035 
	C455.693695,494.008087 467.278595,483.974365 469.980713,467.455475 
	C470.505066,464.250092 470.840515,460.993225 470.975372,457.748169 
	C471.701904,440.262604 472.289490,422.771240 473.019989,405.285858 
	C473.611542,391.124786 474.361237,376.970337 474.997040,362.811035 
	C475.692505,347.322266 476.315674,331.830322 477.011169,316.341583 
	C477.646973,302.182251 478.364746,288.026550 478.993347,273.866913 
	C479.381409,265.125336 479.666656,256.379181 480.005005,247.635345 
	C480.174622,243.251724 478.441467,240.428085 473.403931,239.418396 
	C473.351501,231.586182 473.674988,224.314545 473.998474,217.042923 
z"/>
<path fill="#A3E175" opacity="1.000000" stroke="none" 
	d="
M425.644989,414.972107 
	C427.515350,394.133362 419.410339,381.942352 397.413574,372.508209 
	C394.030212,343.452118 386.605743,335.202271 355.994415,326.788025 
	C357.745575,287.823578 359.500519,248.775131 361.278351,209.217270 
	C362.956360,209.126236 364.543182,208.966339 366.130096,208.965164 
	C388.279663,208.948746 410.429230,208.948334 432.578796,208.957153 
	C440.215973,208.960190 442.015289,210.913483 441.676819,218.433578 
	C438.742218,283.635742 435.830933,348.838928 432.389526,414.508423 
	C429.792542,414.974060 427.718750,414.973083 425.644989,414.972107 
M389.416290,272.764587 
	C392.085449,276.823334 395.801971,278.335785 398.916382,276.306580 
	C402.181885,274.178955 403.964417,270.771088 401.739624,267.412018 
	C400.384552,265.366089 396.903839,263.283752 394.680084,263.569489 
	C390.533722,264.102203 388.207855,267.358002 389.416290,272.764587 
M427.450562,255.115524 
	C426.843048,249.806549 423.889221,246.728104 419.956085,247.579788 
	C416.687927,248.287460 414.121735,249.932327 414.001556,253.784500 
	C413.889648,257.371613 415.431396,259.989471 418.959381,260.805908 
	C423.125031,261.769928 426.028076,260.086487 427.450562,255.115524 
M368.890747,253.010788 
	C371.174469,252.122879 373.987000,251.753250 375.549835,250.158768 
	C376.536713,249.151901 376.425964,245.697388 375.425049,244.450897 
	C374.083344,242.780075 371.219177,241.101685 369.351501,241.422455 
	C367.406708,241.756470 364.528870,244.432770 364.488037,246.142929 
	C364.435028,248.363647 366.780792,250.641647 368.890747,253.010788 
M406.515808,233.002823 
	C409.186493,229.720184 408.487976,226.303452 405.318726,224.489639 
	C403.453918,223.422363 399.133728,223.620270 398.047363,224.966919 
	C396.620331,226.735992 396.185547,230.827759 397.306030,232.787445 
	C399.178101,236.061661 402.801025,235.930420 406.515808,233.002823 
z"/>
<path fill="#CFE5F6" opacity="1.000000" stroke="none" 
	d="
M168.042679,148.403931 
	C169.867950,148.324341 171.693207,148.175659 173.518494,148.175232 
	C225.825607,148.162766 278.132721,148.164505 330.439819,148.165604 
	C343.107330,148.165878 347.812561,152.687164 347.310455,165.337601 
	C345.877075,201.451660 344.233368,237.557495 342.626007,273.664520 
	C341.114990,307.607758 339.546997,341.548462 338.000214,375.490112 
	C336.445862,409.598145 334.986664,443.711182 333.200317,477.807068 
	C332.982361,481.967865 331.522858,486.289093 329.698181,490.083710 
	C327.357300,494.951813 322.777039,497.059753 317.352966,497.075012 
	C306.525574,497.105499 295.698090,497.134918 284.870667,497.135071 
	C251.887314,497.135498 218.903946,497.121796 185.297119,496.724060 
	C183.130966,492.494080 181.588272,488.653717 180.512131,484.809326 
	C182.807587,484.916016 184.636429,485.122406 186.465378,485.123352 
	C224.621933,485.142792 262.778564,485.188049 300.934967,485.111176 
	C313.064209,485.086731 321.482147,478.088745 322.975708,465.756714 
	C324.314056,454.706329 324.464813,443.505280 324.980225,432.363342 
	C326.573639,397.915466 328.097504,363.464325 329.636200,329.013916 
	C331.405304,289.403687 333.293976,249.798172 334.863434,210.180038 
	C335.574799,192.223877 326.254272,183.014664 308.238861,183.013290 
	C265.583496,183.010056 222.927750,182.928055 180.273285,183.124283 
	C175.232391,183.147476 170.198578,184.707611 165.116699,185.054337 
	C165.511902,172.458359 162.046753,160.042389 168.042679,148.403931 
z"/>
<path fill="#CCE2F3" opacity="1.000000" stroke="none" 
	d="
M473.771423,216.769043 
	C473.674988,224.314545 473.351501,231.586182 473.028748,239.306732 
	C466.424103,240.797012 464.353638,242.995071 464.064667,249.490891 
	C461.657898,303.589966 459.270172,357.689911 456.872223,411.789368 
	C456.178650,427.436798 455.536957,443.087006 454.713043,458.727631 
	C454.548981,461.842194 453.876892,464.976440 453.063568,468.000580 
	C451.441437,474.031952 447.191620,477.457367 441.091583,477.490265 
	C410.634277,477.654510 380.175598,477.565338 349.183350,477.565338 
	C349.360138,474.400757 349.521545,471.511688 349.705566,468.217896 
	C351.921936,468.217896 353.713623,468.217896 355.505310,468.217896 
	C377.836639,468.217896 400.167969,468.219757 422.499298,468.217285 
	C438.902802,468.215485 446.413391,461.275116 447.205627,444.994934 
	C448.817322,411.876221 450.339111,378.752869 451.808929,345.627502 
	C453.670197,303.679260 455.466461,261.728027 457.210266,219.774765 
	C457.354553,216.304230 457.352936,212.704941 456.612091,209.343338 
	C454.392059,199.269836 445.836639,193.120239 434.366516,193.092651 
	C412.035309,193.038940 389.703888,193.076721 367.372559,193.076630 
	C365.743408,193.076614 364.114258,193.076614 362.000549,193.076614 
	C362.451935,182.980713 362.886597,173.259079 363.343292,163.044312 
	C365.038391,163.044312 366.488556,163.044296 367.938751,163.044296 
	C396.602844,163.044296 425.266968,163.037888 453.931061,163.048019 
	C463.152618,163.051270 467.230743,166.807526 467.137695,175.976929 
	C467.036346,185.969055 466.354065,195.953995 466.045288,205.945786 
	C465.843231,212.484665 467.303162,214.401154 473.771423,216.769043 
z"/>
<path fill="#FCD122" opacity="1.000000" stroke="none" 
	d="
M96.904648,415.004456 
	C100.750221,430.410187 109.666893,441.058777 125.417946,445.174683 
	C128.118134,445.880219 130.941772,446.113342 134.134003,446.634125 
	C134.314636,448.301514 134.503952,450.048981 134.777954,452.578217 
	C132.575531,452.578217 130.821960,452.578217 129.068375,452.578217 
	C108.598351,452.578217 88.128334,452.579926 67.658310,452.577393 
	C59.536732,452.576355 58.352337,451.369690 58.054123,443.029755 
	C57.400036,424.737305 56.734234,406.445312 56.042023,388.154297 
	C55.809788,382.017700 53.858471,379.852203 47.495781,378.391846 
	C46.871017,372.658203 46.653652,367.433838 46.436287,362.209503 
	C53.197289,361.313721 55.351116,358.984222 55.008114,351.989777 
	C53.573788,322.741608 52.013412,293.499634 50.489365,264.255859 
	C49.684029,248.802872 48.785549,233.354279 48.074245,217.897018 
	C47.743511,210.709946 49.536648,208.979202 56.607800,208.953491 
	C61.434006,208.935944 66.260376,208.963364 71.545502,209.504456 
	C72.976593,229.557968 74.035881,249.073883 74.889648,268.598785 
	C75.433075,281.026459 75.550125,293.472870 76.098846,305.900238 
	C76.366890,311.971008 77.184219,318.017517 77.752930,324.075012 
	C75.722420,325.967010 73.580605,327.754395 71.684349,329.772522 
	C67.620567,334.097504 67.489952,336.995636 70.881317,342.673401 
	C69.933258,346.236603 68.981499,349.110474 68.029739,351.984344 
	C61.363335,354.509827 60.200863,356.224945 60.905155,363.067383 
	C62.266346,376.291809 68.814163,386.414032 79.841156,394.604950 
	C80.126770,408.335114 84.638977,416.523285 96.904648,415.004456 
z"/>
<path fill="#B5D4EF" opacity="1.000000" stroke="none" 
	d="
M167.582428,148.295258 
	C162.046753,160.042389 165.511902,172.458359 164.863281,185.249207 
	C155.047363,191.160431 152.393692,199.794830 152.901154,209.949387 
	C153.931778,230.573074 154.959381,251.197021 156.045624,271.817841 
	C157.578598,300.919586 159.196381,330.016968 160.693741,359.120514 
	C160.939728,363.901886 162.989975,366.975311 167.728851,368.593323 
	C167.959442,375.349091 168.163086,381.644653 168.029510,388.098358 
	C162.691376,389.913940 161.580887,393.695312 161.768967,398.480682 
	C162.572433,418.920776 163.305664,439.364044 163.958298,459.809540 
	C164.328796,471.416504 168.707611,480.322540 180.045578,484.813324 
	C181.588272,488.653717 183.130966,492.494080 184.835800,496.634644 
	C180.006958,497.004974 175.015396,497.161652 170.025131,497.127441 
	C159.076950,497.052338 152.964645,491.725616 152.001328,480.698822 
	C151.074249,470.086548 150.689133,459.423187 150.215042,448.775665 
	C147.058960,377.893738 143.947174,307.009857 140.811325,236.127029 
	C139.810181,213.497787 138.771011,190.870224 137.775726,168.240723 
	C137.673462,165.915146 137.599106,163.569748 137.776138,161.253754 
	C138.432312,152.668777 143.060303,148.303223 151.630524,148.175003 
	C156.793182,148.097778 161.958206,148.177414 167.582428,148.295258 
z"/>
<path fill="#FEE376" opacity="1.000000" stroke="none" 
	d="
M78.095581,323.945282 
	C77.184219,318.017517 76.366890,311.971008 76.098846,305.900238 
	C75.550125,293.472870 75.433075,281.026459 74.889648,268.598785 
	C74.035881,249.073883 72.976593,229.557968 72.008896,209.584198 
	C89.110619,209.130157 106.207764,209.130157 123.684402,209.130157 
	C125.417488,247.472778 127.139725,285.575592 128.890656,324.313049 
	C111.762001,313.653870 95.085999,312.804626 78.095581,323.945282 
M87.754684,240.803375 
	C93.228973,243.747711 98.657890,242.218750 98.760910,237.289581 
	C98.812881,234.803253 97.248474,231.088547 95.304962,230.090256 
	C93.351707,229.086990 89.426384,229.970276 87.430252,231.456848 
	C84.367172,233.738037 84.994568,237.262665 87.754684,240.803375 
M115.961555,263.809906 
	C114.794182,259.719238 111.880081,258.128632 108.032242,259.251801 
	C104.841461,260.183167 102.889793,263.145660 104.237518,266.199310 
	C105.148857,268.264191 107.920464,270.492798 110.112259,270.790405 
	C113.962166,271.313202 116.002403,268.566315 115.961555,263.809906 
z"/>
<path fill="#B5D3EE" opacity="1.000000" stroke="none" 
	d="
M46.123779,362.106750 
	C46.653652,367.433838 46.871017,372.658203 47.113949,378.334656 
	C41.850334,380.108398 40.099701,383.831421 40.282108,388.875732 
	C40.949348,407.327576 41.522495,425.783447 42.312881,444.230011 
	C42.769161,454.879028 46.228771,463.797363 57.696274,468.206848 
	C58.999210,471.674347 60.009216,474.569977 61.019218,477.465607 
	C57.199585,477.560455 53.379150,477.759644 49.560471,477.730255 
	C38.816849,477.647644 33.483658,472.855652 32.882847,462.155334 
	C31.781250,442.536072 30.933105,422.902222 30.039660,403.271667 
	C27.457741,346.542633 24.902157,289.812347 22.344349,233.082199 
	C21.556736,215.613556 20.757610,198.145248 20.058123,180.673019 
	C19.939106,177.700104 19.931982,174.634247 20.514517,171.740433 
	C21.668039,166.010178 25.206224,163.220566 31.076849,163.071640 
	C36.070335,162.944977 41.069843,163.055588 46.360794,163.458069 
	C45.767353,166.836700 44.255287,169.789581 44.115566,172.806015 
	C43.769749,180.271805 44.051895,187.766663 44.081711,195.249847 
	C34.983421,200.221863 31.734680,208.342392 32.239674,218.157318 
	C34.298302,258.167969 36.497303,298.171387 38.629570,338.178253 
	C38.895023,343.158875 38.993484,348.149200 39.311638,353.125946 
	C39.585224,357.405518 41.151352,360.871704 46.123779,362.106750 
z"/>
<path fill="#D1E7F8" opacity="1.000000" stroke="none" 
	d="
M44.475395,195.192947 
	C44.051895,187.766663 43.769749,180.271805 44.115566,172.806015 
	C44.255287,169.789581 45.767353,166.836700 46.821667,163.542267 
	C71.738052,163.229645 96.487671,163.229645 121.629288,163.229645 
	C122.084099,173.077881 122.532623,182.789993 123.007149,193.065155 
	C121.108276,193.065155 119.506310,193.065140 117.904343,193.065140 
	C97.613716,193.065216 77.321976,192.954132 57.033421,193.159149 
	C52.972397,193.200180 48.923542,194.445831 44.475395,195.192947 
z"/>
<path fill="#FDA633" opacity="1.000000" stroke="none" 
	d="
M68.372284,352.094238 
	C68.981499,349.110474 69.933258,346.236603 71.043106,343.007690 
	C76.051010,345.279938 79.849068,343.978943 83.618340,340.123749 
	C91.402679,332.161926 100.990410,329.717773 111.529900,333.229706 
	C121.888618,336.681366 128.224594,344.251373 129.418396,355.115265 
	C129.945236,359.909760 128.602615,364.945038 127.792061,369.818329 
	C127.647499,370.687469 126.050812,371.666016 124.952293,371.968750 
	C117.705078,373.966187 111.816650,377.958557 106.279503,382.996307 
	C104.435707,384.673767 100.403702,385.128906 97.742661,384.520874 
	C86.135010,381.868744 78.784286,374.617157 76.728912,362.654114 
	C75.868721,357.647461 74.851738,353.037292 68.372284,352.094238 
z"/>
<path fill="#FADF74" opacity="1.000000" stroke="none" 
	d="
M355.964172,16.139545 
	C357.382599,15.773404 358.801025,15.407264 360.586273,14.986351 
	C365.662170,21.323751 367.013672,21.753807 374.839813,19.347748 
	C377.062408,18.664444 379.264771,17.905087 381.511078,17.311768 
	C384.919830,16.411417 387.990967,16.826231 389.225800,20.649069 
	C390.536255,24.705938 388.276062,26.913635 384.637726,28.041172 
	C372.742950,31.727425 360.836639,35.376587 348.939453,39.055050 
	C340.691406,41.605244 332.503693,44.371086 324.185944,46.667042 
	C319.745972,47.892605 317.110657,50.478573 315.280640,54.546299 
	C308.196381,70.293053 300.963226,85.972801 293.351318,101.600891 
	C290.223999,99.353821 287.530975,97.183388 284.888245,94.637222 
	C292.301117,78.100601 299.819489,62.007828 306.928894,45.736336 
	C308.997986,41.000641 312.010193,38.418175 316.904297,37.093163 
	C325.383728,34.797459 326.125122,33.550980 326.160553,24.985844 
	C328.150787,24.657999 330.140991,24.330153 332.715576,24.274078 
	C335.434448,26.137039 337.393616,28.731939 339.734589,29.140766 
	C348.546265,30.679636 355.400452,24.895214 355.964172,16.139545 
z"/>
<path fill="#79CD3B" opacity="1.000000" stroke="none" 
	d="
M425.445282,415.267273 
	C427.718750,414.973083 429.792542,414.974060 432.303650,414.965637 
	C432.238220,425.574585 431.773895,436.194946 431.212738,446.810181 
	C431.003143,450.775360 428.968964,452.681976 424.776184,452.665527 
	C400.989960,452.572021 377.203217,452.620392 353.416626,452.604919 
	C352.612213,452.604401 351.807922,452.438629 350.350433,452.277771 
	C350.866943,440.634369 351.375732,429.165222 351.917786,416.945709 
	C363.217804,439.125610 376.494965,448.297119 392.992432,445.816437 
	C409.842041,443.282837 422.411530,431.492432 425.445282,415.267273 
z"/>
<path fill="#5CA923" opacity="1.000000" stroke="none" 
	d="
M363.982483,344.836182 
	C377.140869,350.690338 383.799957,363.457825 380.628967,376.170929 
	C377.531128,388.590973 366.524597,396.740448 352.901581,395.971771 
	C353.678101,378.547607 354.455536,361.103882 355.271698,342.790527 
	C358.339478,343.496918 360.976746,344.104187 363.982483,344.836182 
z"/>
<path fill="#5DAA24" opacity="1.000000" stroke="none" 
	d="
M373.945618,424.077026 
	C371.334991,419.722076 368.980957,415.623199 366.282349,410.924347 
	C378.647858,406.441345 387.539917,399.363007 392.853790,388.469116 
	C401.216187,389.664917 407.378662,395.310638 409.584473,403.601898 
	C411.719238,411.625885 408.576263,420.531799 401.733398,425.848969 
	C395.154175,430.961273 385.617889,431.552002 378.254333,427.231201 
	C376.827911,426.394196 375.549133,425.305634 373.945618,424.077026 
z"/>
<path fill="#F7DD73" opacity="1.000000" stroke="none" 
	d="
M104.686737,124.308472 
	C101.122040,109.473694 97.356277,94.682899 94.096474,79.781425 
	C92.877098,74.207336 90.103630,70.779854 85.034485,68.301018 
	C69.525078,60.716846 54.184155,52.788109 38.779598,44.989635 
	C37.594437,44.389660 35.975388,44.052223 35.344021,43.081520 
	C34.172688,41.280636 33.582218,39.101944 32.749874,37.080574 
	C34.900383,36.563385 37.502171,35.005955 39.123234,35.709202 
	C46.117397,38.743416 52.822826,42.442749 59.635918,45.894917 
	C71.334457,51.822540 82.969971,57.880684 94.774338,63.589611 
	C98.296318,65.292938 100.027870,67.662048 100.920586,71.332626 
	C104.805054,87.304520 108.875076,103.231285 112.510719,119.626175 
	C109.658073,121.488098 107.172401,122.898285 104.686737,124.308472 
z"/>
<path fill="#F7DD73" opacity="1.000000" stroke="none" 
	d="
M400.707245,115.707382 
	C407.807617,99.425041 414.826324,83.105835 422.132019,66.916122 
	C422.880585,65.257263 425.169220,63.807175 427.044220,63.217625 
	C446.850708,56.989826 466.731293,50.998108 486.555511,44.825783 
	C489.604370,43.876511 492.483978,43.541630 493.678009,46.938587 
	C495.016815,50.747402 492.195648,52.151005 489.027466,53.116566 
	C471.549896,58.443192 454.123627,63.940639 436.610626,69.147003 
	C431.602570,70.635826 428.334503,73.325760 426.227325,78.195206 
	C420.224640,92.066772 413.870148,105.786087 407.206238,119.478210 
	C404.741333,118.163193 402.724304,116.935295 400.707245,115.707382 
z"/>
<path fill="#CADFF0" opacity="1.000000" stroke="none" 
	d="
M61.472786,477.583557 
	C60.009216,474.569977 58.999210,471.674347 57.992416,468.392151 
	C83.478577,468.126984 108.961525,468.248016 134.444427,468.379700 
	C134.577957,468.380371 134.710709,468.530640 135.250763,468.856750 
	C135.449234,471.357513 135.669754,474.136047 135.952744,477.701508 
	C111.059158,477.701508 86.492760,477.701508 61.472786,477.583557 
z"/>
<path fill="#FAA432" opacity="1.000000" stroke="none" 
	d="
M113.995346,400.210541 
	C117.586220,392.632568 123.082314,388.161163 131.686783,386.789001 
	C132.335800,401.369110 132.967026,415.549286 133.597168,429.705261 
	C119.429482,431.499054 109.015457,415.853821 113.995346,400.210541 
z"/>
<path fill="#FAD022" opacity="1.000000" stroke="none" 
	d="
M284.837921,95.012955 
	C287.530975,97.183388 290.223999,99.353821 293.093201,101.828796 
	C289.093079,111.528641 284.999359,120.962715 280.629395,130.267029 
	C280.119598,131.352448 278.098389,132.287354 276.751617,132.323868 
	C270.772430,132.486008 264.783691,132.295288 258.425842,132.066223 
	C259.034332,130.068665 260.015442,128.237091 261.527832,126.064941 
	C268.762543,126.449287 270.451385,125.529030 273.285400,119.532234 
	C277.145752,111.363647 280.987915,103.186455 284.837921,95.012955 
z"/>
<path fill="#FAD022" opacity="1.000000" stroke="none" 
	d="
M400.443542,115.952728 
	C402.724304,116.935295 404.741333,118.163193 406.934143,119.688568 
	C405.994690,122.735542 404.923370,125.503815 403.755676,128.230820 
	C401.002716,134.659943 401.419373,136.531693 406.855896,141.450867 
	C406.043579,143.255081 405.127838,144.747299 404.102234,146.556610 
	C398.405060,146.873703 392.817719,146.873703 386.626312,146.873703 
	C391.240295,136.430908 395.710052,126.314484 400.443542,115.952728 
z"/>
<path fill="#F9CF22" opacity="1.000000" stroke="none" 
	d="
M104.691376,124.717407 
	C107.172401,122.898285 109.658073,121.488098 112.491692,120.018005 
	C115.147690,128.762421 117.455734,137.566742 119.988579,147.228592 
	C117.182655,147.228592 114.747940,147.528900 112.445061,147.107956 
	C111.204712,146.881256 109.487823,145.605209 109.189949,144.483032 
	C107.491394,138.084045 106.155296,131.588852 104.691376,124.717407 
z"/>
<path fill="#FADF73" opacity="1.000000" stroke="none" 
	d="
M96.961349,414.539093 
	C84.638977,416.523285 80.126770,408.335114 80.106308,394.847656 
	C85.566109,396.713287 91.004242,398.986389 97.018044,401.500122 
	C97.018044,405.239166 97.018044,409.656433 96.961349,414.539093 
z"/>
<path fill="#020201" opacity="1.000000" stroke="none" 
	d="
M284.888245,94.637222 
	C280.987915,103.186455 277.145752,111.363647 273.285400,119.532234 
	C270.451385,125.529030 268.762543,126.449287 261.642822,125.725708 
	C256.838226,122.574883 255.765076,119.051994 257.976318,114.204155 
	C266.942688,94.546684 275.981354,74.922195 284.961945,55.271187 
	C288.016510,48.587292 290.958740,41.852158 293.987427,35.156334 
	C298.765228,24.593546 308.446716,21.695887 318.588196,20.254108 
	C320.777802,19.942822 323.430176,22.886673 326.014954,24.658493 
	C326.125122,33.550980 325.383728,34.797459 316.904297,37.093163 
	C312.010193,38.418175 308.997986,41.000641 306.928894,45.736336 
	C299.819489,62.007828 292.301117,78.100601 284.888245,94.637222 
z"/>
<path fill="#040302" opacity="1.000000" stroke="none" 
	d="
M355.632812,15.976882 
	C355.400452,24.895214 348.546265,30.679636 339.734589,29.140766 
	C337.393616,28.731939 335.434448,26.137039 333.098267,24.250462 
	C331.562073,19.940939 333.077271,15.806336 337.108612,14.051359 
	C340.300873,12.661624 343.748688,11.631567 347.185089,11.091666 
	C350.869629,10.512789 353.902069,11.995520 355.632812,15.976882 
z"/>
<path fill="#7FD640" opacity="1.000000" stroke="none" 
	d="
M389.280365,272.388519 
	C388.207855,267.358002 390.533722,264.102203 394.680084,263.569489 
	C396.903839,263.283752 400.384552,265.366089 401.739624,267.412018 
	C403.964417,270.771088 402.181885,274.178955 398.916382,276.306580 
	C395.801971,278.335785 392.085449,276.823334 389.280365,272.388519 
z"/>
<path fill="#7FD640" opacity="1.000000" stroke="none" 
	d="
M427.320679,255.464966 
	C426.028076,260.086487 423.125031,261.769928 418.959381,260.805908 
	C415.431396,259.989471 413.889648,257.371613 414.001556,253.784500 
	C414.121735,249.932327 416.687927,248.287460 419.956085,247.579788 
	C423.889221,246.728104 426.843048,249.806549 427.320679,255.464966 
z"/>
<path fill="#7FD640" opacity="1.000000" stroke="none" 
	d="
M368.492371,252.952896 
	C366.780792,250.641647 364.435028,248.363647 364.488037,246.142929 
	C364.528870,244.432770 367.406708,241.756470 369.351501,241.422455 
	C371.219177,241.101685 374.083344,242.780075 375.425049,244.450897 
	C376.425964,245.697388 376.536713,249.151901 375.549835,250.158768 
	C373.987000,251.753250 371.174469,252.122879 368.492371,252.952896 
z"/>
<path fill="#7FD63F" opacity="1.000000" stroke="none" 
	d="
M406.233337,233.286560 
	C402.801025,235.930420 399.178101,236.061661 397.306030,232.787445 
	C396.185547,230.827759 396.620331,226.735992 398.047363,224.966919 
	C399.133728,223.620270 403.453918,223.422363 405.318726,224.489639 
	C408.487976,226.303452 409.186493,229.720184 406.233337,233.286560 
z"/>
<path fill="#040202" opacity="1.000000" stroke="none" 
	d="
M167.701889,368.133179 
	C162.989975,366.975311 160.939728,363.901886 160.693741,359.120514 
	C159.196381,330.016968 157.578598,300.919586 156.045624,271.817841 
	C154.959381,251.197021 153.931778,230.573074 152.901154,209.949387 
	C152.393692,199.794830 155.047363,191.160431 164.908081,185.750153 
	C170.198578,184.707611 175.232391,183.147476 180.273285,183.124283 
	C222.927750,182.928055 265.583496,183.010056 308.238861,183.013290 
	C326.254272,183.014664 335.574799,192.223877 334.863434,210.180038 
	C333.293976,249.798172 331.405304,289.403687 329.636200,329.013916 
	C328.097504,363.464325 326.573639,397.915466 324.980225,432.363342 
	C324.464813,443.505280 324.314056,454.706329 322.975708,465.756714 
	C321.482147,478.088745 313.064209,485.086731 300.934967,485.111176 
	C262.778564,485.188049 224.621933,485.142792 186.465378,485.123352 
	C184.636429,485.122406 182.807587,484.916016 180.512131,484.809326 
	C168.707611,480.322540 164.328796,471.416504 163.958298,459.809540 
	C163.305664,439.364044 162.572433,418.920776 161.768967,398.480682 
	C161.580887,393.695312 162.691376,389.913940 168.390747,388.137390 
	C175.677811,389.201111 177.268646,391.054352 177.604248,399.177032 
	C178.449432,419.633026 179.104416,440.096802 179.891327,460.555298 
	C180.162445,467.603882 181.991776,469.318970 188.955353,469.320618 
	C225.583038,469.329315 262.210724,469.329773 298.838409,469.320801 
	C305.336487,469.319183 307.518707,467.656219 307.840118,461.476624 
	C308.436249,450.014984 308.675385,438.534790 309.182251,426.647034 
	C310.199280,407.111389 311.113098,387.991791 311.991333,368.870544 
	C313.236176,341.767151 314.481903,314.663757 315.676880,287.558136 
	C316.835236,261.283020 317.999542,235.007812 319.009308,208.726807 
	C319.303772,201.063477 316.998474,198.929840 309.363586,198.904831 
	C300.206207,198.874832 291.048615,198.882355 281.891174,198.900467 
	C253.257965,198.957123 224.624771,199.026413 195.529312,199.011292 
	C189.413239,198.921112 183.759247,198.876495 178.105667,198.908188 
	C170.760727,198.949341 168.435165,201.110245 168.737610,208.458984 
	C169.489532,226.728912 170.443283,244.990829 171.373871,263.253021 
	C172.989624,294.961212 174.690857,326.665100 176.255661,358.375763 
	C176.577728,364.902161 174.347321,367.215759 167.701889,368.133179 
z"/>
<path fill="#FD0C38" opacity="1.000000" stroke="none" 
	d="
M309.063202,427.062317 
	C308.675385,438.534790 308.436249,450.014984 307.840118,461.476624 
	C307.518707,467.656219 305.336487,469.319183 298.838409,469.320801 
	C262.210724,469.329773 225.583038,469.329315 188.955353,469.320618 
	C181.991776,469.318970 180.162445,467.603882 179.891327,460.555298 
	C179.104416,440.096802 178.449432,419.633026 177.604248,399.177032 
	C177.268646,391.054352 175.677811,389.201111 168.727936,387.979309 
	C168.163086,381.644653 167.959442,375.349091 167.728851,368.593323 
	C174.347321,367.215759 176.577728,364.902161 176.255661,358.375763 
	C174.690857,326.665100 172.989624,294.961212 171.373871,263.253021 
	C170.443283,244.990829 169.489532,226.728912 168.737610,208.458984 
	C168.435165,201.110245 170.760727,198.949341 178.105667,198.908188 
	C183.759247,198.876495 189.413239,198.921112 195.528824,199.472443 
	C196.642700,213.236557 197.343140,226.457870 197.936249,239.683990 
	C198.982132,263.006897 200.021637,286.330353 200.946426,309.658234 
	C201.438919,322.080750 201.599335,334.516541 202.110077,346.938110 
	C202.222717,349.677734 203.183624,352.382507 203.626160,355.386627 
	C188.726379,369.842377 182.984833,387.094482 186.037292,407.274170 
	C190.527878,436.961365 221.400070,458.765381 250.975861,453.507568 
	C268.235321,450.439209 281.146454,441.200409 291.359436,427.011108 
	C297.577423,427.036896 303.320312,427.049591 309.063202,427.062317 
z"/>
<path fill="#FFD424" opacity="1.000000" stroke="none" 
	d="
M87.492119,240.542542 
	C84.994568,237.262665 84.367172,233.738037 87.430252,231.456848 
	C89.426384,229.970276 93.351707,229.086990 95.304962,230.090256 
	C97.248474,231.088547 98.812881,234.803253 98.760910,237.289581 
	C98.657890,242.218750 93.228973,243.747711 87.492119,240.542542 
z"/>
<path fill="#FFD424" opacity="1.000000" stroke="none" 
	d="
M115.978119,264.206665 
	C116.002403,268.566315 113.962166,271.313202 110.112259,270.790405 
	C107.920464,270.492798 105.148857,268.264191 104.237518,266.199310 
	C102.889793,263.145660 104.841461,260.183167 108.032242,259.251801 
	C111.880081,258.128632 114.794182,259.719238 115.978119,264.206665 
z"/>
<path fill="#FE3F61" opacity="1.000000" stroke="none" 
	d="
M203.753906,355.103333 
	C203.183624,352.382507 202.222717,349.677734 202.110077,346.938110 
	C201.599335,334.516541 201.438919,322.080750 200.946426,309.658234 
	C200.021637,286.330353 198.982132,263.006897 197.936249,239.683990 
	C197.343140,226.457870 196.642700,213.236557 195.991089,199.551941 
	C224.624771,199.026413 253.257965,198.957123 281.891174,198.900467 
	C291.048615,198.882355 300.206207,198.874832 309.363586,198.904831 
	C316.998474,198.929840 319.303772,201.063477 319.009308,208.726807 
	C317.999542,235.007812 316.835236,261.283020 315.676880,287.558136 
	C314.481903,314.663757 313.236176,341.767151 311.991333,368.870544 
	C311.113098,387.991791 310.199280,407.111389 309.182251,426.647034 
	C303.320312,427.049591 297.577423,427.036896 291.431763,426.659454 
	C302.769867,405.328339 301.177795,384.728058 288.901489,364.571838 
	C289.897461,363.798859 290.548492,363.294983 291.198059,362.789215 
	C307.512268,350.087982 313.155609,329.726257 305.969788,309.492126 
	C299.741089,291.952972 280.391266,279.311768 260.953278,280.082855 
	C253.625641,280.373535 251.157318,282.782745 250.483932,290.146606 
	C246.700790,291.986023 243.228714,293.676727 239.426300,295.214172 
	C233.378128,292.176910 230.583511,292.793518 226.737961,297.872772 
	C217.028107,310.697723 214.442383,324.875061 219.242203,340.193329 
	C220.307800,343.594086 219.788193,345.031982 216.616333,346.697021 
	C212.101974,349.066925 208.020386,352.261230 203.753906,355.103333 
M258.814240,233.597244 
	C261.357178,235.369064 264.020538,238.672989 266.409454,238.485260 
	C268.837463,238.294449 271.906067,235.027573 272.958160,232.409988 
	C273.688629,230.592621 272.153229,226.735840 270.399292,225.364349 
	C268.626892,223.978455 265.034851,223.658081 262.782532,224.437973 
	C259.244995,225.662827 257.889069,229.041809 258.814240,233.597244 
M291.532867,256.258362 
	C294.833862,257.462097 298.299042,258.027252 300.545746,254.769913 
	C301.802460,252.947906 302.646362,250.213043 302.340332,248.081268 
	C301.817627,244.439850 298.723083,242.017166 295.274689,242.310181 
	C292.880798,242.513580 289.735687,244.474289 288.613739,246.558365 
	C286.941559,249.664566 287.488983,253.385132 291.532867,256.258362 
M250.816147,257.943451 
	C250.270050,256.932556 249.942505,255.678879 249.138153,254.954880 
	C246.371384,252.464447 242.738190,251.782761 240.147888,254.221863 
	C238.404831,255.863190 237.296082,259.426422 237.705811,261.821533 
	C238.367828,265.691528 242.044800,266.524261 245.585007,265.885956 
	C249.411102,265.196136 251.079330,262.549377 250.816147,257.943451 
M229.563416,228.197983 
	C226.834259,224.027115 222.496338,222.683975 219.187973,224.985443 
	C216.149857,227.098892 215.141907,231.839691 217.963318,234.418518 
	C219.695938,236.002182 222.990906,236.920593 225.335831,236.552948 
	C229.138611,235.956711 230.371643,232.704620 229.563416,228.197983 
z"/>
<path fill="#040001" opacity="1.000000" stroke="none" 
	d="
M203.626160,355.386627 
	C208.020386,352.261230 212.101974,349.066925 216.616333,346.697021 
	C219.788193,345.031982 220.307800,343.594086 219.242203,340.193329 
	C214.442383,324.875061 217.028107,310.697723 226.737961,297.872772 
	C230.583511,292.793518 233.378128,292.176910 239.549500,295.545898 
	C243.296051,300.267059 241.822968,303.969055 238.996307,307.796356 
	C232.375320,316.761017 231.051605,326.545898 234.809586,337.083191 
	C235.713913,339.618896 236.786667,340.500458 239.761337,340.429138 
	C250.930283,340.161255 261.570770,342.582581 271.177856,348.521515 
	C278.729309,353.189758 280.115143,353.097290 285.823578,346.235504 
	C287.305603,344.454041 288.696106,342.535522 289.783203,340.495819 
	C300.644745,320.116791 285.927063,295.988281 262.561951,296.019073 
	C257.399323,296.025879 252.828827,295.714661 250.794998,289.997864 
	C251.157318,282.782745 253.625641,280.373535 260.953278,280.082855 
	C280.391266,279.311768 299.741089,291.952972 305.969788,309.492126 
	C313.155609,329.726257 307.512268,350.087982 291.198059,362.789215 
	C290.548492,363.294983 289.897461,363.798859 288.901489,364.571838 
	C301.177795,384.728058 302.769867,405.328339 290.956665,426.646362 
	C281.146454,441.200409 268.235321,450.439209 250.975861,453.507568 
	C221.400070,458.765381 190.527878,436.961365 186.037292,407.274170 
	C182.984833,387.094482 188.726379,369.842377 203.626160,355.386627 
M267.383911,365.058868 
	C255.461731,356.130798 242.452972,354.009705 228.299622,358.714966 
	C208.431824,365.320007 196.618454,387.976013 202.575500,408.149872 
	C208.943924,429.716797 230.627472,442.631317 251.441406,437.145447 
	C267.672638,432.867432 278.284668,422.605042 281.961426,406.224823 
	C285.592316,390.048950 280.498444,376.368805 267.383911,365.058868 
z"/>
<path fill="#D60027" opacity="1.000000" stroke="none" 
	d="
M250.483932,290.146606 
	C252.828827,295.714661 257.399323,296.025879 262.561951,296.019073 
	C285.927063,295.988281 300.644745,320.116791 289.783203,340.495819 
	C288.696106,342.535522 287.305603,344.454041 285.823578,346.235504 
	C280.115143,353.097290 278.729309,353.189758 271.177856,348.521515 
	C261.570770,342.582581 250.930283,340.161255 239.761337,340.429138 
	C236.786667,340.500458 235.713913,339.618896 234.809586,337.083191 
	C231.051605,326.545898 232.375320,316.761017 238.996307,307.796356 
	C241.822968,303.969055 243.296051,300.267059 239.879822,295.699158 
	C243.228714,293.676727 246.700790,291.986023 250.483932,290.146606 
z"/>
<path fill="#FF0E39" opacity="1.000000" stroke="none" 
	d="
M258.654724,233.254456 
	C257.889069,229.041809 259.244995,225.662827 262.782532,224.437973 
	C265.034851,223.658081 268.626892,223.978455 270.399292,225.364349 
	C272.153229,226.735840 273.688629,230.592621 272.958160,232.409988 
	C271.906067,235.027573 268.837463,238.294449 266.409454,238.485260 
	C264.020538,238.672989 261.357178,235.369064 258.654724,233.254456 
z"/>
<path fill="#FF0D39" opacity="1.000000" stroke="none" 
	d="
M291.169678,256.077118 
	C287.488983,253.385132 286.941559,249.664566 288.613739,246.558365 
	C289.735687,244.474289 292.880798,242.513580 295.274689,242.310181 
	C298.723083,242.017166 301.817627,244.439850 302.340332,248.081268 
	C302.646362,250.213043 301.802460,252.947906 300.545746,254.769913 
	C298.299042,258.027252 294.833862,257.462097 291.169678,256.077118 
z"/>
<path fill="#FF0E3A" opacity="1.000000" stroke="none" 
	d="
M250.877747,258.331909 
	C251.079330,262.549377 249.411102,265.196136 245.585007,265.885956 
	C242.044800,266.524261 238.367828,265.691528 237.705811,261.821533 
	C237.296082,259.426422 238.404831,255.863190 240.147888,254.221863 
	C242.738190,251.782761 246.371384,252.464447 249.138153,254.954880 
	C249.942505,255.678879 250.270050,256.932556 250.877747,258.331909 
z"/>
<path fill="#FF0D39" opacity="1.000000" stroke="none" 
	d="
M229.701721,228.570282 
	C230.371643,232.704620 229.138611,235.956711 225.335831,236.552948 
	C222.990906,236.920593 219.695938,236.002182 217.963318,234.418518 
	C215.141907,231.839691 216.149857,227.098892 219.187973,224.985443 
	C222.496338,222.683975 226.834259,224.027115 229.701721,228.570282 
z"/>
<path fill="#D70027" opacity="1.000000" stroke="none" 
	d="
M267.659088,365.287415 
	C280.498444,376.368805 285.592316,390.048950 281.961426,406.224823 
	C278.284668,422.605042 267.672638,432.867432 251.441406,437.145447 
	C230.627472,442.631317 208.943924,429.716797 202.575500,408.149872 
	C196.618454,387.976013 208.431824,365.320007 228.299622,358.714966 
	C242.452972,354.009705 255.461731,356.130798 267.659088,365.287415 
z"/>
</svg>