<svg version="1.1" id="Layer_1" xmlns="http://www.w3.org/2000/svg" xmlns:xlink="http://www.w3.org/1999/xlink" x="0px" y="0px"
	 width="100%" viewBox="0 0 512 512" enable-background="new 0 0 512 512" xml:space="preserve">
<path fill="#000000" opacity="1.000000" stroke="none" 
	d="
M0.999998,365.000000 
	C1.000000,243.731842 1.000000,122.463669 1.000000,1.000000 
	C146.356598,1.000000 291.713287,1.000000 437.867767,1.249877 
	C428.066254,9.007380 417.503845,16.567753 406.859375,24.010805 
	C388.990143,36.505718 371.032532,48.874763 353.217865,61.446636 
	C351.142273,62.911400 349.009186,65.046967 348.133911,67.341240 
	C341.208923,85.493446 334.582611,103.759605 327.404968,121.994446 
	C311.951019,121.998505 296.956573,122.013779 281.962158,121.996185 
	C247.977890,121.956314 213.993637,121.900253 179.847382,121.517380 
	C176.056900,108.622749 170.819504,96.720413 163.849426,85.711174 
	C156.471390,74.057571 148.477127,62.681679 134.837402,57.490410 
	C129.419113,55.428207 123.623932,54.356213 118.145126,52.530861 
	C125.983009,43.282589 128.918182,32.501881 129.939758,21.107325 
	C130.579880,13.967234 126.591042,9.926324 119.380066,10.046283 
	C115.944649,10.103433 112.453110,10.344132 109.097054,11.035768 
	C87.542953,15.477759 75.328331,28.863005 73.567764,50.836456 
	C72.779175,50.673531 72.277992,50.562309 71.910614,50.278107 
	C62.812546,43.239838 53.861408,36.002228 44.589397,29.201950 
	C39.518250,25.482676 33.775684,22.844374 27.199570,23.014996 
	C22.372864,23.140228 18.989628,26.203651 18.090584,31.140862 
	C17.419630,34.825497 20.270830,39.395069 24.435284,40.670654 
	C38.667450,45.030010 49.112865,54.719261 58.913666,65.355606 
	C49.693172,66.400749 41.077942,68.677948 34.146004,74.510460 
	C22.148403,84.605179 17.425280,98.082329 18.067686,113.508171 
	C18.230236,117.411430 20.153843,120.555138 24.529175,120.967522 
	C27.357353,121.234070 30.232864,121.052284 33.085613,120.994637 
	C43.696972,120.780220 52.659916,116.376839 61.028297,110.364876 
	C62.954975,116.789200 64.000549,123.161621 66.559586,128.853592 
	C73.393486,144.053940 86.968826,152.498749 100.893028,159.739639 
	C111.361465,165.183441 122.849014,168.667511 133.935944,173.445969 
	C134.659225,179.139099 135.300766,184.414093 136.007812,189.680283 
	C136.691925,194.775528 137.443436,199.861725 138.094574,205.390594 
	C138.019623,206.989288 137.903793,208.161377 138.028137,209.307404 
	C139.715195,224.856537 141.435547,240.402039 142.944138,256.248169 
	C130.376175,262.293884 122.015945,272.028717 115.449829,283.454834 
	C107.635429,273.887756 97.391182,269.170227 86.133476,265.948273 
	C75.359955,262.864868 64.526176,264.162506 53.751690,265.132080 
	C45.139538,265.907135 36.551510,267.390717 28.102358,269.242401 
	C25.850153,269.735962 23.289000,272.428223 22.476217,274.688690 
	C21.874376,276.362488 23.225538,279.864777 24.818752,281.023712 
	C37.764492,290.440552 50.972630,299.496674 63.646111,308.801453 
	C62.028469,308.960266 60.862236,309.047516 59.703175,308.990112 
	C41.611618,308.093750 28.048937,315.978912 17.265667,330.080444 
	C9.739797,339.922211 5.944823,351.160950 2.941584,362.870789 
	C2.730852,363.692474 1.667089,364.295380 0.999998,365.000000 
z"/>
<path fill="#000000" opacity="1.000000" stroke="none" 
	d="
M449.000000,0.999998 
	C470.318939,1.000000 491.637848,1.000000 512.950745,1.000003 
	C512.944702,171.666672 512.944702,342.333344 512.944702,513.000000 
	C489.238678,513.000000 465.587982,513.000000 441.128052,512.688965 
	C440.972473,511.930634 441.579834,511.190247 442.286560,511.078583 
	C465.470123,507.414276 485.428711,496.893951 503.277222,482.104004 
	C507.105743,478.931549 508.291138,473.078491 504.265533,468.872772 
	C498.074585,462.404816 491.543915,456.262054 485.011658,449.667175 
	C468.254517,432.859070 451.643005,416.365173 434.911499,399.562683 
	C423.526947,388.124725 412.262451,376.995300 400.870514,365.568665 
	C395.769714,360.235352 390.796356,355.199219 385.900024,349.732880 
	C386.336853,345.890167 386.666504,342.474091 387.062012,339.065704 
	C388.362000,327.863098 389.725800,316.667725 390.985748,305.460693 
	C391.754639,298.621552 392.307434,291.758026 393.082581,284.919708 
	C394.334106,273.878052 395.673218,262.846191 397.005646,251.813843 
	C397.906464,244.354980 398.988464,236.915634 399.754150,229.443451 
	C400.589233,221.293945 401.152832,213.116608 401.918091,204.537613 
	C402.334320,202.397232 402.801361,200.684143 402.976746,198.941696 
	C403.714355,191.612930 404.312439,184.270050 405.058929,176.942245 
	C406.334320,164.423355 407.551575,151.896240 409.045868,139.402786 
	C410.067078,130.864578 400.812592,121.674599 391.423004,121.895287 
	C376.957031,122.235275 362.474976,121.888260 348.013397,121.455215 
	C352.351715,109.223328 356.570831,97.328674 361.064178,85.538544 
	C362.444397,81.916939 363.726044,77.496094 366.516937,75.312927 
	C375.841339,68.019012 385.836609,61.583946 395.560822,54.799713 
	C413.283752,42.435062 430.970734,30.018656 448.734711,17.713360 
	C452.431702,15.152415 453.867828,6.338199 450.078430,3.466269 
	C449.454376,2.993299 449.346466,1.839276 449.000000,0.999998 
z"/>
<path fill="#F29C1F" opacity="1.000000" stroke="none" 
	d="
M401.834778,204.951416 
	C401.152832,213.116608 400.589233,221.293945 399.754150,229.443451 
	C398.988464,236.915634 397.906464,244.354980 397.005646,251.813843 
	C395.673218,262.846191 394.334106,273.878052 393.082581,284.919708 
	C392.307434,291.758026 391.754639,298.621552 390.985748,305.460693 
	C389.725800,316.667725 388.362000,327.863098 387.062012,339.065704 
	C386.666504,342.474091 386.336853,345.890167 385.583862,349.614746 
	C374.858032,339.793793 364.551270,329.634064 354.163971,319.557343 
	C352.654724,318.093170 350.760223,317.026093 348.967651,315.451752 
	C343.620422,309.597137 338.420502,303.996094 333.059326,298.553925 
	C327.274750,292.681976 322.742279,292.728363 317.557434,299.045776 
	C293.723358,328.086029 283.596802,361.570709 288.435699,398.636047 
	C293.984344,441.138275 315.682465,473.767151 352.934021,495.599243 
	C357.923981,498.523743 363.041443,501.230774 367.960358,504.350677 
	C365.213898,507.441925 362.606964,510.220978 360.000000,513.000000 
	C300.312439,513.000000 240.624878,513.000000 180.800262,512.758118 
	C177.744522,509.377045 174.825851,506.237823 171.885635,502.691833 
	C170.581512,492.418579 169.176254,482.566193 168.042358,472.682678 
	C165.811081,453.233917 163.743179,433.766479 161.583984,414.309387 
	C159.406540,394.687653 157.234573,375.065186 154.995422,355.450439 
	C153.339966,340.949066 151.580597,326.459503 149.909058,311.545197 
	C148.592529,299.447540 147.234482,287.769409 146.021439,275.773224 
	C147.031342,274.708221 147.827698,273.857483 148.773361,273.232697 
	C152.312820,270.894257 153.834732,267.649292 152.980133,263.515137 
	C152.148834,259.493744 149.385895,257.455719 145.411621,256.844147 
	C144.629547,256.723816 143.900940,256.255981 143.147675,255.948441 
	C141.435547,240.402039 139.715195,224.856537 138.028137,209.307404 
	C137.903793,208.161377 138.019623,206.989288 138.445038,205.442291 
	C147.789261,209.481888 156.677429,213.980438 165.642075,218.320984 
	C188.265549,229.274872 211.164703,229.837204 233.895599,219.037491 
	C253.407593,209.767136 273.279388,207.811325 294.008484,214.232269 
	C294.057556,214.443436 294.165344,214.863373 294.010284,215.205780 
	C293.649536,216.003738 293.415100,216.448654 293.242188,216.916290 
	C267.202972,287.353333 241.168045,357.791962 215.133392,428.230713 
	C210.515305,440.725372 205.782700,453.179443 201.326904,465.731720 
	C198.750244,472.990295 203.406189,478.939880 210.608734,478.053589 
	C215.095444,477.501465 216.914871,474.389557 218.328461,470.561371 
	C242.842163,404.174561 267.428070,337.814453 291.948730,271.430206 
	C298.119629,254.723892 304.118286,237.953949 310.380554,221.188126 
	C310.565002,221.162994 310.930969,221.094589 311.229645,221.301193 
	C333.957275,229.838577 355.691437,228.081467 376.878204,217.190109 
	C385.117035,212.954819 393.511353,209.022003 401.834778,204.951416 
M187.120956,270.762024 
	C183.305328,276.670624 182.172745,282.911591 184.365631,289.749817 
	C187.869751,300.676941 199.702530,306.980377 211.037064,303.797882 
	C221.919113,300.742432 228.820129,288.994904 225.997009,278.101715 
	C223.756546,269.456665 218.219971,263.964264 209.510345,261.915894 
	C200.408417,259.775238 193.298431,263.243866 187.120956,270.762024 
M207.443848,386.245850 
	C206.266418,385.354309 205.214569,384.111115 203.887939,383.637421 
	C199.945694,382.229767 196.184875,382.755554 193.632935,386.341614 
	C191.166367,389.807678 191.215057,393.647797 193.891556,396.990387 
	C196.628098,400.407959 200.407059,400.836700 204.283020,399.226990 
	C208.785812,397.356903 210.000977,392.862946 207.443848,386.245850 
M183.297028,349.168457 
	C183.608582,350.116852 183.796616,351.129791 184.252640,352.002716 
	C186.455460,356.219360 191.068619,357.837250 195.252960,355.932617 
	C199.863754,353.833893 201.643997,349.406403 199.799835,344.786407 
	C198.206284,340.794312 194.867188,339.096649 191.057495,339.521423 
	C186.174591,340.065826 183.577377,343.459442 183.297028,349.168457 
z"/>
<path fill="#E64C3C" opacity="1.000000" stroke="none" 
	d="
M149.867538,311.964691 
	C151.580597,326.459503 153.339966,340.949066 154.995422,355.450439 
	C157.234573,375.065186 159.406540,394.687653 161.583984,414.309387 
	C163.743179,433.766479 165.811081,453.233917 168.042358,472.682678 
	C169.176254,482.566193 170.581512,492.418579 171.527069,502.667358 
	C165.156296,505.723877 159.108368,508.367279 153.112839,511.124542 
	C152.569336,511.374481 152.362946,512.357422 152.000000,513.000000 
	C142.645767,513.000000 133.291550,513.000000 123.783783,512.700745 
	C120.931320,511.014740 118.089516,508.282684 115.566338,508.550659 
	C111.598137,508.972107 107.844498,511.413757 104.000000,513.000000 
	C94.979103,513.000000 85.958214,513.000000 76.735092,512.658142 
	C74.930428,511.648346 73.348557,510.925079 71.722343,510.321136 
	C56.649899,504.723511 44.546078,495.270477 34.266022,482.933228 
	C18.495342,464.006561 8.498370,442.532532 3.681164,418.479828 
	C3.294978,416.551575 1.917057,414.821930 1.000000,413.000000 
	C1.000000,397.312439 1.000000,381.624878 0.999998,365.468658 
	C1.667089,364.295380 2.730852,363.692474 2.941584,362.870789 
	C5.944823,351.160950 9.739797,339.922211 17.265667,330.080444 
	C28.048937,315.978912 41.611618,308.093750 59.703175,308.990112 
	C60.862236,309.047516 62.028469,308.960266 64.027138,308.892181 
	C71.241844,310.618073 77.620773,312.392059 84.171410,314.463654 
	C91.214111,318.157745 98.085114,321.554260 104.984299,325.421814 
	C105.011536,332.865326 104.937073,339.838806 105.032074,346.809937 
	C105.112991,352.747864 108.842552,356.814911 113.912613,356.751740 
	C118.568268,356.693756 121.979767,352.524689 122.170746,346.819092 
	C122.425758,339.200775 122.764893,331.585297 123.453568,323.977600 
	C132.515335,319.979279 141.191437,315.971985 149.867538,311.964691 
M60.876629,350.187897 
	C64.071106,346.548187 64.296173,342.567322 61.436234,338.827759 
	C58.493732,334.980255 54.476898,334.870361 50.192413,336.648346 
	C39.275036,341.178894 34.519947,350.640015 31.203173,360.945038 
	C24.999897,380.218262 26.155693,399.628906 31.051363,418.986664 
	C32.767254,425.771393 36.949322,428.871552 42.234715,427.379639 
	C47.703445,425.835999 49.815125,421.178284 47.788532,414.578491 
	C44.215965,402.944061 42.790115,391.056824 45.170444,379.126251 
	C47.333584,368.284241 47.859352,356.206818 60.876629,350.187897 
z"/>
<path fill="#F0C419" opacity="1.000000" stroke="none" 
	d="
M368.099854,504.038483 
	C363.041443,501.230774 357.923981,498.523743 352.934021,495.599243 
	C315.682465,473.767151 293.984344,441.138275 288.435699,398.636047 
	C283.596802,361.570709 293.723358,328.086029 317.557434,299.045776 
	C322.742279,292.728363 327.274750,292.681976 333.059326,298.553925 
	C338.420502,303.996094 343.620422,309.597137 348.795410,315.761322 
	C347.479034,317.741943 346.225647,319.061218 345.043243,320.441284 
	C333.922699,333.421539 326.656158,348.220947 323.813965,365.528259 
	C323.114410,371.583496 322.575470,377.287994 322.025513,383.445435 
	C322.479767,403.722748 328.378235,421.779999 339.799438,437.981873 
	C341.184204,439.946259 343.214508,441.455627 345.028870,443.504883 
	C349.056549,447.890442 353.000977,451.947021 357.143951,456.275391 
	C375.016785,470.759735 394.939240,478.627197 418.344910,478.002747 
	C424.218781,477.653564 429.621185,477.296082 435.382019,476.809265 
	C436.704712,476.449890 437.668488,476.217682 438.633301,475.989990 
	C456.615417,471.745911 472.622894,463.969971 485.157349,449.981354 
	C491.543915,456.262054 498.074585,462.404816 504.265533,468.872772 
	C508.291138,473.078491 507.105743,478.931549 503.277222,482.104004 
	C485.428711,496.893951 465.470123,507.414276 442.286560,511.078583 
	C441.579834,511.190247 440.972473,511.930634 440.659393,512.688965 
	C425.979095,513.000000 410.958221,513.000000 395.809570,512.686768 
	C395.191376,511.942902 394.766724,511.273834 394.200531,511.117523 
	C385.511139,508.718536 376.803375,506.386261 368.099854,504.038483 
z"/>
<path fill="#FF5364" opacity="1.000000" stroke="none" 
	d="
M448.541931,0.999998 
	C449.346466,1.839276 449.454376,2.993299 450.078430,3.466269 
	C453.867828,6.338199 452.431702,15.152415 448.734711,17.713360 
	C430.970734,30.018656 413.283752,42.435062 395.560822,54.799713 
	C385.836609,61.583946 375.841339,68.019012 366.516937,75.312927 
	C363.726044,77.496094 362.444397,81.916939 361.064178,85.538544 
	C356.570831,97.328674 352.351715,109.223328 347.781372,121.528534 
	C347.535706,121.979317 347.061340,122.088120 346.591431,122.071945 
	C340.084106,122.052887 334.046753,122.050018 327.960114,122.066551 
	C327.910858,122.085960 327.864502,121.990738 327.864502,121.990738 
	C334.582611,103.759605 341.208923,85.493446 348.133911,67.341240 
	C349.009186,65.046967 351.142273,62.911400 353.217865,61.446636 
	C371.032532,48.874763 388.990143,36.505718 406.859375,24.010805 
	C417.503845,16.567753 428.066254,9.007380 438.332764,1.249877 
	C441.361298,1.000000 444.722565,1.000000 448.541931,0.999998 
z"/>
<path fill="#000000" opacity="1.000000" stroke="none" 
	d="
M1.000000,413.468658 
	C1.917057,414.821930 3.294978,416.551575 3.681164,418.479828 
	C8.498370,442.532532 18.495342,464.006561 34.266022,482.933228 
	C44.546078,495.270477 56.649899,504.723511 71.722343,510.321136 
	C73.348557,510.925079 74.930428,511.648346 76.266434,512.658142 
	C51.062649,513.000000 26.125301,513.000000 1.000000,513.000000 
	C1.000000,479.979340 1.000000,446.958344 1.000000,413.468658 
z"/>
<path fill="#000000" opacity="1.000000" stroke="none" 
	d="
M367.960358,504.350677 
	C376.803375,506.386261 385.511139,508.718536 394.200531,511.117523 
	C394.766724,511.273834 395.191376,511.942902 395.340942,512.686768 
	C383.645782,513.000000 372.291534,513.000000 360.468689,513.000000 
	C362.606964,510.220978 365.213898,507.441925 367.960358,504.350677 
z"/>
<path fill="#000000" opacity="1.000000" stroke="none" 
	d="
M152.468658,513.000000 
	C152.362946,512.357422 152.569336,511.374481 153.112839,511.124542 
	C159.108368,508.367279 165.156296,505.723877 171.548615,503.074158 
	C174.825851,506.237823 177.744522,509.377045 180.331604,512.758118 
	C170.979111,513.000000 161.958206,513.000000 152.468658,513.000000 
z"/>
<path fill="#000000" opacity="1.000000" stroke="none" 
	d="
M104.468277,513.000000 
	C107.844498,511.413757 111.598137,508.972107 115.566338,508.550659 
	C118.089516,508.282684 120.931320,511.014740 123.315125,512.700745 
	C116.978844,513.000000 110.957695,513.000000 104.468277,513.000000 
z"/>
<path fill="#9FC9D3" opacity="1.000000" stroke="none" 
	d="
M293.959442,214.021118 
	C273.279388,207.811325 253.407593,209.767136 233.895599,219.037491 
	C211.164703,229.837204 188.265549,229.274872 165.642075,218.320984 
	C156.677429,213.980438 147.789261,209.481888 138.515808,205.003571 
	C137.443436,199.861725 136.691925,194.775528 136.007812,189.680283 
	C135.300766,184.414093 134.659225,179.139099 134.089874,173.005737 
	C133.238281,162.400101 132.381180,152.646164 131.307693,142.916107 
	C130.135803,132.294006 136.632965,123.799011 147.168259,122.662697 
	C150.131287,122.343102 153.142929,122.470634 156.132446,122.400902 
	C164.091370,122.215248 172.050400,122.033859 180.009384,121.850769 
	C213.993637,121.900253 247.977890,121.956314 281.962158,121.996185 
	C296.956573,122.013779 311.951019,121.998505 327.404968,121.994446 
	C327.864502,121.990738 327.910858,122.085960 327.924927,122.436516 
	C322.507843,137.554901 317.125427,152.340866 311.632233,167.085587 
	C305.795990,182.751144 299.854797,198.377594 293.959442,214.021118 
z"/>
<path fill="#E64D3C" opacity="1.000000" stroke="none" 
	d="
M179.847382,121.517380 
	C172.050400,122.033859 164.091370,122.215248 156.132446,122.400902 
	C153.142929,122.470634 150.131287,122.343102 147.168259,122.662697 
	C136.632965,123.799011 130.135803,132.294006 131.307693,142.916107 
	C132.381180,152.646164 133.238281,162.400101 134.036804,172.583740 
	C122.849014,168.667511 111.361465,165.183441 100.893028,159.739639 
	C86.968826,152.498749 73.393486,144.053940 66.559586,128.853592 
	C64.000549,123.161621 62.954975,116.789200 61.182106,110.057739 
	C70.316689,99.455307 73.137871,87.179001 74.498604,74.200836 
	C79.482269,73.458282 81.927132,70.765488 82.645401,66.063766 
	C96.057816,65.212044 107.941040,61.442463 118.000336,52.833405 
	C123.623932,54.356213 129.419113,55.428207 134.837402,57.490410 
	C148.477127,62.681679 156.471390,74.057571 163.849426,85.711174 
	C170.819504,96.720413 176.056900,108.622749 179.847382,121.517380 
M97.647217,126.745956 
	C99.862434,130.195908 103.279099,132.187012 106.932167,130.626465 
	C109.614380,129.480652 112.637611,126.639030 113.299004,123.999443 
	C113.890930,121.637077 112.073105,117.981239 110.215950,115.862518 
	C107.666885,112.954430 103.823997,113.219818 100.617744,115.270149 
	C96.596748,117.841499 95.531662,121.602203 97.647217,126.745956 
M134.450027,104.334244 
	C138.384644,102.293251 141.086960,98.948303 139.382950,94.762665 
	C138.265961,92.018936 135.079880,88.938782 132.339554,88.383736 
	C129.860916,87.881691 125.716049,89.897087 124.183250,92.105446 
	C122.766357,94.146835 122.949211,98.292427 124.023369,100.837875 
	C125.667274,104.733498 129.564514,105.695312 134.450027,104.334244 
z"/>
<path fill="#4FBA6F" opacity="1.000000" stroke="none" 
	d="
M83.999702,314.166077 
	C77.620773,312.392059 71.241844,310.618073 64.481880,308.753357 
	C50.972630,299.496674 37.764492,290.440552 24.818752,281.023712 
	C23.225538,279.864777 21.874376,276.362488 22.476217,274.688690 
	C23.289000,272.428223 25.850153,269.735962 28.102358,269.242401 
	C36.551510,267.390717 45.139538,265.907135 53.751690,265.132080 
	C64.526176,264.162506 75.359955,262.864868 86.133476,265.948273 
	C97.391182,269.170227 107.635429,273.887756 115.301651,283.836182 
	C112.187210,293.674103 109.024361,302.838959 105.448708,312.002869 
	C98.023834,312.723267 91.011772,313.444672 83.999702,314.166077 
z"/>
<path fill="#4FBA6F" opacity="1.000000" stroke="none" 
	d="
M74.119324,74.223900 
	C73.137871,87.179001 70.316689,99.455307 60.991043,109.695587 
	C52.659916,116.376839 43.696972,120.780220 33.085613,120.994637 
	C30.232864,121.052284 27.357353,121.234070 24.529175,120.967522 
	C20.153843,120.555138 18.230236,117.411430 18.067686,113.508171 
	C17.425280,98.082329 22.148403,84.605179 34.146004,74.510460 
	C41.077942,68.677948 49.693172,66.400749 59.239399,65.427063 
	C61.462585,66.513237 62.998665,68.066727 64.808891,69.170685 
	C67.819801,71.006874 71.006599,72.554657 74.119324,74.223900 
z"/>
<path fill="#4FBA6F" opacity="1.000000" stroke="none" 
	d="
M118.145126,52.530861 
	C107.941040,61.442463 96.057816,65.212044 82.597778,65.674118 
	C80.692375,62.677479 79.272896,59.993824 77.781654,57.350658 
	C76.537254,55.145000 75.208763,52.986782 73.917519,50.807556 
	C75.328331,28.863005 87.542953,15.477759 109.097054,11.035768 
	C112.453110,10.344132 115.944649,10.103433 119.380066,10.046283 
	C126.591042,9.926324 130.579880,13.967234 129.939758,21.107325 
	C128.918182,32.501881 125.983009,43.282589 118.145126,52.530861 
z"/>
<path fill="#805333" opacity="1.000000" stroke="none" 
	d="
M105.861511,312.003845 
	C109.024361,302.838959 112.187210,293.674103 115.498245,284.127899 
	C122.015945,272.028717 130.376175,262.293884 142.944138,256.248169 
	C143.900940,256.255981 144.629547,256.723816 145.411621,256.844147 
	C149.385895,257.455719 152.148834,259.493744 152.980133,263.515137 
	C153.834732,267.649292 152.312820,270.894257 148.773361,273.232697 
	C147.827698,273.857483 147.031342,274.708221 145.719696,275.892456 
	C130.448395,288.749451 124.551071,305.330261 123.067902,323.968597 
	C122.764893,331.585297 122.425758,339.200775 122.170746,346.819092 
	C121.979767,352.524689 118.568268,356.693756 113.912613,356.751740 
	C108.842552,356.814911 105.112991,352.747864 105.032074,346.809937 
	C104.937073,339.838806 105.011536,332.865326 105.001099,324.971741 
	C105.280304,320.035004 105.570908,316.019409 105.861511,312.003845 
z"/>
<path fill="#4C8056" opacity="1.000000" stroke="none" 
	d="
M73.567764,50.836456 
	C75.208763,52.986782 76.537254,55.145000 77.781654,57.350658 
	C79.272896,59.993824 80.692375,62.677479 82.190552,65.733238 
	C81.927132,70.765488 79.482269,73.458282 74.498604,74.200836 
	C71.006599,72.554657 67.819801,71.006874 64.808891,69.170685 
	C62.998665,68.066727 61.462585,66.513237 59.477570,65.090317 
	C49.112865,54.719261 38.667450,45.030010 24.435284,40.670654 
	C20.270830,39.395069 17.419630,34.825497 18.090584,31.140862 
	C18.989628,26.203651 22.372864,23.140228 27.199570,23.014996 
	C33.775684,22.844374 39.518250,25.482676 44.589397,29.201950 
	C53.861408,36.002228 62.812546,43.239838 71.910614,50.278107 
	C72.277992,50.562309 72.779175,50.673531 73.567764,50.836456 
z"/>
<path fill="#9FC9D3" opacity="1.000000" stroke="none" 
	d="
M347.061340,122.088120 
	C347.061340,122.088120 347.535706,121.979317 347.767700,121.906006 
	C362.474976,121.888260 376.957031,122.235275 391.423004,121.895287 
	C400.812592,121.674599 410.067078,130.864578 409.045868,139.402786 
	C407.551575,151.896240 406.334320,164.423355 405.058929,176.942245 
	C404.312439,184.270050 403.714355,191.612930 402.976746,198.941696 
	C402.801361,200.684143 402.334320,202.397232 401.918121,204.537628 
	C393.511353,209.022003 385.117035,212.954819 376.878204,217.190109 
	C355.691437,228.081467 333.957275,229.838577 311.259521,220.915115 
	C323.014252,187.577652 335.037781,154.832886 347.061340,122.088120 
z"/>
<path fill="#F29D20" opacity="1.000000" stroke="none" 
	d="
M356.945435,456.003601 
	C353.000977,451.947021 349.056549,447.890442 345.292328,443.276855 
	C364.946136,423.055206 384.419678,403.390503 404.619415,382.992523 
	C376.483246,382.992523 349.259857,382.992523 322.036499,382.992523 
	C322.575470,377.287994 323.114410,371.583496 324.285339,365.514709 
	C350.277557,365.388885 375.637756,365.627350 400.997955,365.865845 
	C412.262451,376.995300 423.526947,388.124725 434.888733,400.039215 
	C434.998535,426.195709 435.011078,451.567169 435.023621,476.938599 
	C429.621185,477.296082 424.218781,477.653564 418.341583,477.534424 
	C417.575653,450.414124 417.284485,423.770447 416.988647,396.700623 
	C415.825165,397.248505 415.301483,397.349823 414.990051,397.662537 
	C395.630798,417.098572 376.288940,436.551910 356.945435,456.003601 
z"/>
<path fill="#F3D55B" opacity="1.000000" stroke="none" 
	d="
M435.382019,476.809265 
	C435.011078,451.567169 434.998535,426.195709 435.008789,400.347778 
	C451.643005,416.365173 468.254517,432.859070 485.011658,449.667175 
	C472.622894,463.969971 456.615417,471.745911 438.633301,475.989990 
	C437.668488,476.217682 436.704712,476.449890 435.382019,476.809265 
z"/>
<path fill="#F3D45A" opacity="1.000000" stroke="none" 
	d="
M400.870514,365.568665 
	C375.637756,365.627350 350.277557,365.388885 324.445984,365.164001 
	C326.656158,348.220947 333.922699,333.421539 345.043243,320.441284 
	C346.225647,319.061218 347.479034,317.741943 348.871735,316.084869 
	C350.760223,317.026093 352.654724,318.093170 354.163971,319.557343 
	C364.551270,329.634064 374.858032,339.793793 385.506866,350.044922 
	C390.796356,355.199219 395.769714,360.235352 400.870514,365.568665 
z"/>
<path fill="#C13B2C" opacity="1.000000" stroke="none" 
	d="
M310.196106,221.213257 
	C304.118286,237.953949 298.119629,254.723892 291.948730,271.430206 
	C267.428070,337.814453 242.842163,404.174561 218.328461,470.561371 
	C216.914871,474.389557 215.095444,477.501465 210.608734,478.053589 
	C203.406189,478.939880 198.750244,472.990295 201.326904,465.731720 
	C205.782700,453.179443 210.515305,440.725372 215.133392,428.230713 
	C241.168045,357.791962 267.202972,287.353333 293.242188,216.916290 
	C293.415100,216.448654 293.649536,216.003738 294.390015,215.235809 
	C300.015259,217.020050 305.105713,219.116653 310.196106,221.213257 
z"/>
<path fill="#DF4F61" opacity="1.000000" stroke="none" 
	d="
M310.380554,221.188126 
	C305.105713,219.116653 300.015259,217.020050 294.545105,214.893402 
	C294.165344,214.863373 294.057556,214.443436 294.008484,214.232269 
	C299.854797,198.377594 305.795990,182.751144 311.632233,167.085587 
	C317.125427,152.340866 322.507843,137.554901 327.974182,122.417107 
	C334.046753,122.050018 340.084106,122.052887 346.591431,122.071945 
	C335.037781,154.832886 323.014252,187.577652 310.960846,220.708511 
	C310.930969,221.094589 310.565002,221.162994 310.380554,221.188126 
z"/>
<path fill="#D25727" opacity="1.000000" stroke="none" 
	d="
M187.328369,270.460144 
	C193.298431,263.243866 200.408417,259.775238 209.510345,261.915894 
	C218.219971,263.964264 223.756546,269.456665 225.997009,278.101715 
	C228.820129,288.994904 221.919113,300.742432 211.037064,303.797882 
	C199.702530,306.980377 187.869751,300.676941 184.365631,289.749817 
	C182.172745,282.911591 183.305328,276.670624 187.328369,270.460144 
z"/>
<path fill="#000000" opacity="1.000000" stroke="none" 
	d="
M123.453568,323.977600 
	C124.551071,305.330261 130.448395,288.749451 145.574692,276.210449 
	C147.234482,287.769409 148.592529,299.447540 149.909058,311.545197 
	C141.191437,315.971985 132.515335,319.979279 123.453568,323.977600 
z"/>
<path fill="#D35827" opacity="1.000000" stroke="none" 
	d="
M207.659714,386.577057 
	C210.000977,392.862946 208.785812,397.356903 204.283020,399.226990 
	C200.407059,400.836700 196.628098,400.407959 193.891556,396.990387 
	C191.215057,393.647797 191.166367,389.807678 193.632935,386.341614 
	C196.184875,382.755554 199.945694,382.229767 203.887939,383.637421 
	C205.214569,384.111115 206.266418,385.354309 207.659714,386.577057 
z"/>
<path fill="#D35827" opacity="1.000000" stroke="none" 
	d="
M183.246887,348.789246 
	C183.577377,343.459442 186.174591,340.065826 191.057495,339.521423 
	C194.867188,339.096649 198.206284,340.794312 199.799835,344.786407 
	C201.643997,349.406403 199.863754,353.833893 195.252960,355.932617 
	C191.068619,357.837250 186.455460,356.219360 184.252640,352.002716 
	C183.796616,351.129791 183.608582,350.116852 183.246887,348.789246 
z"/>
<path fill="#FFFCFC" opacity="1.000000" stroke="none" 
	d="
M60.605911,350.455322 
	C47.859352,356.206818 47.333584,368.284241 45.170444,379.126251 
	C42.790115,391.056824 44.215965,402.944061 47.788532,414.578491 
	C49.815125,421.178284 47.703445,425.835999 42.234715,427.379639 
	C36.949322,428.871552 32.767254,425.771393 31.051363,418.986664 
	C26.155693,399.628906 24.999897,380.218262 31.203173,360.945038 
	C34.519947,350.640015 39.275036,341.178894 50.192413,336.648346 
	C54.476898,334.870361 58.493732,334.980255 61.436234,338.827759 
	C64.296173,342.567322 64.071106,346.548187 60.605911,350.455322 
z"/>
<path fill="#000000" opacity="1.000000" stroke="none" 
	d="
M105.448708,312.002869 
	C105.570908,316.019409 105.280304,320.035004 104.972900,324.500671 
	C98.085114,321.554260 91.214111,318.157745 84.171410,314.463654 
	C91.011772,313.444672 98.023834,312.723267 105.448708,312.002869 
z"/>
<path fill="#F3D45A" opacity="1.000000" stroke="none" 
	d="
M322.025513,383.445435 
	C349.259857,382.992523 376.483246,382.992523 404.619415,382.992523 
	C384.419678,403.390503 364.946136,423.055206 345.209106,442.947876 
	C343.214508,441.455627 341.184204,439.946259 339.799438,437.981873 
	C328.378235,421.779999 322.479767,403.722748 322.025513,383.445435 
z"/>
<path fill="#F3D45A" opacity="1.000000" stroke="none" 
	d="
M357.143982,456.275421 
	C376.288940,436.551910 395.630798,417.098572 414.990051,397.662537 
	C415.301483,397.349823 415.825165,397.248505 416.988647,396.700623 
	C417.284485,423.770447 417.575653,450.414124 417.870178,477.526123 
	C394.939240,478.627197 375.016785,470.759735 357.143982,456.275421 
z"/>
<path fill="#F0C11A" opacity="1.000000" stroke="none" 
	d="
M97.464462,126.419449 
	C95.531662,121.602203 96.596748,117.841499 100.617744,115.270149 
	C103.823997,113.219818 107.666885,112.954430 110.215950,115.862518 
	C112.073105,117.981239 113.890930,121.637077 113.299004,123.999443 
	C112.637611,126.639030 109.614380,129.480652 106.932167,130.626465 
	C103.279099,132.187012 99.862434,130.195908 97.464462,126.419449 
z"/>
<path fill="#F0C11A" opacity="1.000000" stroke="none" 
	d="
M134.089020,104.486755 
	C129.564514,105.695312 125.667274,104.733498 124.023369,100.837875 
	C122.949211,98.292427 122.766357,94.146835 124.183250,92.105446 
	C125.716049,89.897087 129.860916,87.881691 132.339554,88.383736 
	C135.079880,88.938782 138.265961,92.018936 139.382950,94.762665 
	C141.086960,98.948303 138.384644,102.293251 134.089020,104.486755 
z"/>
</svg>