<svg version="1.1" id="Layer_1" xmlns="http://www.w3.org/2000/svg" xmlns:xlink="http://www.w3.org/1999/xlink" x="0px" y="0px"
	 width="100%" viewBox="0 0 512 512" enable-background="new 0 0 512 512" xml:space="preserve">


<path fill="#FFFFFF" opacity="1.000000" stroke="none" 
	d="
M147.531342,1.000000 
	C141.274612,3.324627 135.338287,7.031227 132.253494,13.510043 
	C130.319092,17.572807 129.846466,22.386711 129.071274,26.923967 
	C128.658752,29.338488 128.998138,31.881472 128.998138,33.235207 
	C123.508377,35.569374 118.324966,37.181435 113.759247,39.850231 
	C106.515289,44.084534 103.374733,51.178535 103.070854,59.311455 
	C102.747543,67.964447 102.992958,76.638885 102.999733,85.303947 
	C103.005234,92.332321 105.682358,94.990593 112.745689,95.001282 
	C115.240822,95.005058 117.735977,95.001877 120.851646,95.001877 
	C123.797287,120.159821 126.741943,145.309372 129.749741,170.998138 
	C125.125984,170.998138 120.364838,171.036438 115.604469,170.991653 
	C92.504120,170.774338 71.350349,177.038147 53.251244,191.459885 
	C36.340469,204.934692 24.555443,222.397659 20.278252,243.716278 
	C18.037325,254.885635 18.384384,266.624634 18.126732,278.119019 
	C18.007912,283.419861 25.535084,290.256989 31.176380,290.982208 
	C34.886139,291.459106 38.619469,291.752625 42.684586,292.162811 
	C42.684586,300.293610 42.684586,308.721283 42.684586,317.493927 
	C33.531445,320.431427 25.945524,325.940247 21.478764,335.033997 
	C12.380733,353.556458 20.174902,374.826447 39.687958,382.983521 
	C41.006191,383.534576 42.811192,385.059082 42.851322,386.185638 
	C43.128662,393.970184 42.997375,401.769257 42.997375,409.461121 
	C38.300793,409.999695 33.887589,410.157166 29.637177,411.071472 
	C22.527639,412.600800 17.622091,420.500000 17.914339,426.963165 
	C18.267752,434.779053 18.359655,442.643341 17.923859,450.450897 
	C16.977573,467.404144 22.674520,481.851715 34.062878,494.998169 
	C26.792168,494.998169 20.047146,495.025055 13.302464,494.988800 
	C8.729321,494.964233 4.574176,495.853394 1.345196,499.917480 
	C1.000000,333.779327 1.000000,167.558624 1.000000,1.000000 
	C49.687038,1.000000 98.374863,1.000000 147.531342,1.000000 
z"/>
<path fill="#F34335" opacity="1.000000" stroke="none" 
	d="
M429.952667,495.816833 
	C390.812592,495.867218 351.672546,495.921936 312.532471,495.965607 
	C299.058746,495.980652 285.584991,495.968018 271.605377,495.968018 
	C261.148438,427.717682 250.729309,359.714203 240.311768,291.721039 
	C252.293121,289.322296 263.020874,295.108643 268.816467,306.217224 
	C273.182617,314.585907 277.336609,323.310577 283.154846,330.628754 
	C298.407379,349.813416 318.758606,360.757202 343.051971,364.054108 
	C361.477295,366.554688 379.650574,365.111603 397.145905,358.638336 
	C420.808563,349.883118 437.719818,333.699249 448.010162,310.679352 
	C450.833618,304.363251 453.850372,298.317078 460.626465,295.201111 
	C460.593658,298.332825 460.257111,301.123016 459.829102,303.899078 
	C456.557465,325.119690 453.286591,346.340454 449.978027,367.555328 
	C447.407593,384.037079 444.725006,400.501526 442.199402,416.990051 
	C439.723114,433.156647 437.443878,449.353485 434.959137,465.518738 
	C433.404114,475.635590 431.629028,485.718628 429.952667,495.816833 
M369.836456,387.596985 
	C364.282928,386.756927 358.691376,385.002106 353.182343,385.231354 
	C325.830933,386.369507 306.356049,409.376495 308.395477,435.039795 
	C310.645874,463.357849 335.153809,482.456085 362.314667,478.142456 
	C383.812286,474.728271 400.219116,457.245605 401.852570,436.011993 
	C403.500336,414.592133 390.401428,394.411987 369.836456,387.596985 
z"/>
<path fill="#FE9701" opacity="1.000000" stroke="none" 
	d="
M288.073761,209.109711 
	C283.965607,213.053070 282.428711,217.900238 282.634552,223.533707 
	C282.827759,228.821243 282.675934,234.121384 282.675934,239.966049 
	C273.948730,239.966049 265.676849,239.942993 257.405182,239.971588 
	C245.779526,240.011795 240.014282,245.821518 239.969406,257.513336 
	C239.949066,262.815369 239.965973,268.117523 239.965973,273.722046 
	C171.632202,273.722046 103.622383,273.722046 35.146446,273.722046 
	C33.976437,243.517456 44.194397,218.944473 69.654205,201.769424 
	C82.288757,193.246262 96.413773,188.979584 111.718071,188.971329 
	C155.852158,188.947510 199.986267,188.958069 244.868073,189.296768 
	C252.955032,191.545868 260.748444,192.477325 267.510956,195.624237 
	C274.864624,199.046219 281.260345,204.526733 288.073761,209.109711 
M106.876633,216.158722 
	C103.621155,218.771103 102.756821,222.202301 104.145782,225.956192 
	C105.580360,229.833389 108.876625,231.332932 112.846855,231.363449 
	C115.664116,231.385101 118.500923,231.424133 121.296448,231.137680 
	C125.916595,230.664246 128.609955,227.790695 128.843430,223.308441 
	C129.076782,218.829102 126.749756,215.210556 122.146362,214.876801 
	C117.329277,214.527542 112.422371,215.417252 106.876633,216.158722 
M170.935394,231.320724 
	C167.638916,231.503128 164.270493,231.322220 161.063599,231.957123 
	C156.758331,232.809433 154.698395,235.963287 154.839417,240.290237 
	C154.973923,244.416733 157.190720,247.241730 161.267532,247.983429 
	C164.170914,248.511642 167.205063,248.561310 170.169189,248.465149 
	C176.202362,248.269470 179.588043,245.490295 180.010941,240.728851 
	C180.437927,235.921295 177.750854,232.881058 170.935394,231.320724 
M231.209778,222.560272 
	C230.863754,218.216965 228.635239,215.230438 224.291809,214.762634 
	C220.395111,214.342957 216.353561,214.327774 212.480881,214.875839 
	C208.147736,215.489044 205.910614,218.657181 206.007004,222.995605 
	C206.108521,227.563538 208.619537,230.498947 213.206406,231.065613 
	C216.310959,231.449158 219.496307,231.453781 222.627182,231.285965 
	C227.550858,231.022064 230.665131,228.539612 231.209778,222.560272 
z"/>
<path fill="#2295F2" opacity="1.000000" stroke="none" 
	d="
M338.921692,188.760208 
	C335.107819,190.550735 331.293915,192.341263 328.134644,193.824448 
	C318.180634,188.459381 308.277740,182.410355 297.785797,177.663376 
	C286.899750,172.738068 275.030609,171.703934 263.095276,171.726181 
	C226.274719,171.794800 189.453751,171.695404 152.633545,171.830963 
	C148.720840,171.845383 147.291473,170.955795 146.850281,166.751083 
	C144.575180,145.068710 141.872101,123.431328 139.342453,101.775429 
	C139.097107,99.675049 139.016693,97.555405 138.823715,94.960739 
	C208.837967,94.960739 278.438263,94.960739 348.507751,95.454544 
	C348.315308,102.035156 347.653168,108.121902 346.992157,114.208763 
	C345.901764,124.249420 344.809448,134.289886 343.722839,144.330963 
	C342.120209,159.140457 340.521881,173.950439 338.921692,188.760208 
z"/>
<path fill="#FE9701" opacity="1.000000" stroke="none" 
	d="
M113.000031,427.851959 
	C138.483215,427.851959 163.466919,427.932068 188.449051,427.770111 
	C192.435059,427.744293 195.208786,428.916595 197.990219,431.797302 
	C208.053528,442.219971 218.410141,452.359497 228.656448,462.605499 
	C238.320526,472.269257 238.485046,472.291931 249.591309,465.258179 
	C251.143478,475.359955 252.671539,485.304840 254.266388,495.684509 
	C252.477509,495.785950 251.046570,495.937744 249.615585,495.938019 
	C193.153580,495.949890 136.691559,495.981384 80.229599,495.931061 
	C58.228176,495.911469 40.903084,483.549683 36.649933,462.991089 
	C34.357193,451.908600 35.125992,440.192719 34.464703,427.851990 
	C61.034351,427.851990 86.767189,427.851990 113.000031,427.851959 
z"/>
<path fill="#F4F4F4" opacity="1.000000" stroke="none" 
	d="
M367.940826,77.700897 
	C366.779602,77.761238 365.618378,77.874290 364.457153,77.874413 
	C284.497559,77.882828 204.537949,77.882187 124.578346,77.882309 
	C123.420616,77.882309 122.262886,77.882309 120.813828,77.882309 
	C120.813828,71.559540 120.599075,65.448029 120.889946,59.360676 
	C121.081268,55.356606 123.939812,53.265980 127.683289,52.485970 
	C129.131363,52.184238 130.651886,52.131886 132.139420,52.131752 
	C209.766724,52.124916 287.394012,52.135921 365.539948,52.598690 
	C366.686005,61.268520 367.313416,69.484711 367.940826,77.700897 
z"/>
<path fill="#FDE839" opacity="1.000000" stroke="none" 
	d="
M141.008255,359.003448 
	C129.190140,347.302094 117.250740,335.719635 105.611595,323.842926 
	C100.725159,318.856720 95.259422,316.511597 88.283073,316.738678 
	C79.336975,317.029877 70.374214,316.809418 61.115467,316.809418 
	C61.115467,308.171295 61.115467,299.936310 61.115467,291.399170 
	C114.997437,291.399170 168.854309,291.399170 222.960419,291.399170 
	C224.243973,299.618988 225.522263,307.805023 226.928253,316.808960 
	C221.428162,316.808960 216.132889,317.385040 211.007828,316.695679 
	C198.121277,314.962402 188.329498,319.719299 179.915192,329.884003 
	C173.781296,329.155151 169.825653,331.169098 166.129730,335.204742 
	C159.518478,342.423706 152.397812,349.179840 145.400467,356.037994 
	C144.159576,357.254181 142.483414,358.026276 141.008255,359.003448 
z"/>
<path fill="#4BAD4F" opacity="1.000000" stroke="none" 
	d="
M134.000000,384.998199 
	C166.806900,384.998199 199.114197,385.073700 231.420258,384.908630 
	C235.766052,384.886414 237.690109,385.547333 238.328812,390.554199 
	C240.409851,406.867096 243.075058,423.113312 245.888367,439.320465 
	C246.792496,444.528961 242.994354,446.214874 240.070374,449.484924 
	C238.664429,448.187195 237.334091,447.038788 236.092957,445.800934 
	C226.777954,436.510712 217.382507,427.298065 208.217728,417.861542 
	C203.391312,412.891968 197.904861,410.637787 190.894531,410.667328 
	C149.762238,410.840576 108.628853,410.752350 67.495834,410.752289 
	C65.529289,410.752289 63.562740,410.752289 61.222370,410.752289 
	C61.222370,402.090759 61.222370,393.875214 61.222370,384.998199 
	C85.329842,384.998199 109.414917,384.998199 134.000000,384.998199 
z"/>
<path fill="#FBB001" opacity="1.000000" stroke="none" 
	d="
M367.973083,312.000000 
	C367.973053,323.977936 367.973053,335.455872 367.973053,348.263611 
	C359.776093,347.736145 351.893860,347.367676 344.065460,346.508545 
	C343.290527,346.423492 342.326935,343.340729 342.322418,341.646973 
	C342.222870,304.186981 342.246246,266.726654 342.246246,229.266373 
	C342.246246,221.648315 342.246246,214.030273 342.246246,206.151321 
	C350.968628,206.151321 359.203247,206.151321 367.973083,206.151321 
	C367.973083,241.349564 367.973083,276.424774 367.973083,312.000000 
z"/>
<path fill="#C42828" opacity="1.000000" stroke="none" 
	d="
M430.419556,495.882935 
	C431.629028,485.718628 433.404114,475.635590 434.959137,465.518738 
	C437.443878,449.353485 439.723114,433.156647 442.199402,416.990051 
	C444.725006,400.501526 447.407593,384.037079 449.978027,367.555328 
	C453.286591,346.340454 456.557465,325.119690 459.829102,303.899078 
	C460.257111,301.123016 460.593658,298.332825 460.972412,295.109009 
	C466.040039,291.169403 471.706665,290.822693 478.529480,291.229584 
	C468.049103,359.627808 457.633331,427.604523 447.161224,495.949005 
	C441.477509,495.949005 436.182007,495.949005 430.419556,495.882935 
z"/>
<path fill="#F3F3F3" opacity="1.000000" stroke="none" 
	d="
M341.984375,34.899063 
	C336.994202,34.956100 332.004059,35.061760 327.013885,35.062752 
	C268.744781,35.074341 210.475662,35.070175 152.206558,35.070175 
	C150.382004,35.070175 148.557449,35.070175 146.186493,35.070175 
	C146.186493,31.873232 145.891205,28.761122 146.257462,25.728920 
	C146.774323,21.449858 149.505402,18.941711 153.757462,18.198421 
	C154.732391,18.027996 155.746323,18.036692 156.742294,18.036821 
	C217.841278,18.044836 278.940277,18.060556 340.497986,18.573677 
	C341.299255,24.347548 341.641815,29.623304 341.984375,34.899063 
z"/>
<path fill="#F9D533" opacity="1.000000" stroke="none" 
	d="
M410.675232,280.000122 
	C410.675079,296.316437 410.788300,312.134552 410.535095,327.946838 
	C410.502502,329.980164 409.088165,332.852631 407.423767,333.848236 
	C400.530243,337.971771 393.294708,341.523590 385.265350,345.771790 
	C385.265350,303.838196 385.265350,263.661163 385.265350,223.204300 
	C393.560760,223.204300 401.804108,223.204300 410.675293,223.204300 
	C410.675293,241.982391 410.675293,260.741241 410.675232,280.000122 
z"/>
<path fill="#FDD834" opacity="1.000000" stroke="none" 
	d="
M325.176514,225.141815 
	C325.184509,263.935394 325.184509,302.241180 325.184509,341.283600 
	C316.950256,338.574982 310.615204,333.749786 304.357391,328.695007 
	C300.837219,325.851562 299.598297,322.588623 299.633270,317.978088 
	C299.858398,288.327026 299.748322,258.673462 299.748322,229.020691 
	C299.748322,227.204620 299.748352,225.388565 299.748352,222.984680 
	C307.912201,222.984680 315.847412,222.956345 323.781006,223.056061 
	C324.250122,223.061951 324.706299,224.097580 325.176514,225.141815 
z"/>
<path fill="#785448" opacity="1.000000" stroke="none" 
	d="
M42.672577,364.454712 
	C35.762230,358.690369 33.663246,352.015625 36.258144,344.782227 
	C38.603836,338.243500 45.170181,333.978851 53.191227,333.941803 
	C64.677979,333.888733 76.165688,333.872101 87.651573,333.984955 
	C89.355156,334.001709 91.575500,334.274170 92.669037,335.339539 
	C103.383896,345.778320 113.910400,356.410431 125.089554,367.586548 
	C123.104836,367.761871 121.897278,367.960541 120.689560,367.961578 
	C98.880936,367.980072 77.069839,368.142700 55.265797,367.825653 
	C51.152988,367.765808 47.068245,365.776123 42.672577,364.454712 
z"/>
<path fill="#1565BE" opacity="1.000000" stroke="none" 
	d="
M339.392700,188.805847 
	C340.521881,173.950439 342.120209,159.140457 343.722839,144.330963 
	C344.809448,134.289886 345.901764,124.249420 346.992157,114.208763 
	C347.653168,108.121902 348.315308,102.035156 348.968628,95.529648 
	C354.750214,95.110939 360.540131,95.110939 366.848328,95.110939 
	C363.225128,126.385841 359.640198,157.330338 355.988464,188.851486 
	C350.423004,188.851486 345.143372,188.851486 339.392700,188.805847 
z"/>
<path fill="#785447" opacity="1.000000" stroke="none" 
	d="
M208.124115,333.924377 
	C214.424194,333.924713 220.247787,333.804535 226.059097,334.018127 
	C227.362625,334.066040 229.613525,335.122314 229.752502,335.984497 
	C231.386658,346.122772 232.705048,356.312042 234.079910,366.491455 
	C234.117050,366.766327 233.854218,367.081696 233.607773,367.675903 
	C211.831848,367.675903 189.935913,367.675903 167.513855,367.675903 
	C168.377075,366.579559 169.032059,365.555237 169.870071,364.713074 
	C178.430832,356.109497 187.197647,347.701752 195.519470,338.874054 
	C198.998154,335.183899 202.557205,333.032379 208.124115,333.924377 
z"/>
<path fill="#FBB001" opacity="1.000000" stroke="none" 
	d="
M453.195007,262.007019 
	C453.195038,263.337067 453.120667,264.177429 453.206421,265.001129 
	C454.097626,273.562897 452.965546,280.502502 444.481354,285.978180 
	C439.506836,289.188721 436.881439,296.155823 433.448334,301.590424 
	C431.640747,304.451843 430.368195,307.651276 428.070099,310.459106 
	C428.070099,289.962402 428.070099,269.465698 428.070099,248.686401 
	C436.274536,248.686401 444.367310,248.686401 453.195007,248.686401 
	C453.195007,253.006866 453.195007,257.258270 453.195007,262.007019 
z"/>
<path fill="#F8AE01" opacity="1.000000" stroke="none" 
	d="
M282.692413,278.993774 
	C282.692352,284.312195 282.692352,289.132355 282.692352,295.614716 
	C275.821045,285.493835 267.747345,278.827606 257.121155,275.804718 
	C257.121155,269.533020 257.121155,263.572845 257.121155,257.300415 
	C265.489990,257.300415 273.734863,257.300415 282.692474,257.300415 
	C282.692474,264.308075 282.692474,271.401794 282.692413,278.993774 
z"/>
<path fill="#F17A00" opacity="1.000000" stroke="none" 
	d="
M288.421936,208.991608 
	C281.260345,204.526733 274.864624,199.046219 267.510956,195.624237 
	C260.748444,192.477325 252.955032,191.545868 245.334885,189.372009 
	C260.277802,188.815796 275.683502,187.475906 290.265167,193.136963 
	C298.002075,196.140671 305.249268,200.405701 312.460510,204.765488 
	C304.427979,207.089706 295.925201,203.593628 288.421936,208.991608 
z"/>
<path fill="#C9CDCF" opacity="1.000000" stroke="none" 
	d="
M368.404480,77.793892 
	C367.313416,69.484711 366.686005,61.268520 365.997681,52.682991 
	C369.236267,52.243279 372.547760,51.961773 375.832550,52.148731 
	C381.741547,52.485046 384.835724,55.753513 384.991150,61.694592 
	C385.116516,66.485931 385.020966,71.283333 384.995605,76.077896 
	C384.993164,76.538582 384.793396,76.998222 384.584442,77.886887 
	C379.355133,77.886887 374.111633,77.886887 368.404480,77.793892 
z"/>
<path fill="#F7D333" opacity="1.000000" stroke="none" 
	d="
M141.129822,359.315979 
	C142.483414,358.026276 144.159576,357.254181 145.400467,356.037994 
	C152.397812,349.179840 159.518478,342.423706 166.129730,335.204742 
	C169.825653,331.169098 173.781296,329.155151 179.606995,330.010376 
	C168.593445,341.004211 157.132858,351.987885 145.249374,363.376862 
	C144.505676,362.679596 142.878540,361.154053 141.129822,359.315979 
z"/>
<path fill="#CED7DA" opacity="1.000000" stroke="none" 
	d="
M342.447144,34.982677 
	C341.641815,29.623304 341.299255,24.347548 340.956970,18.659271 
	C341.782776,18.174810 342.607574,18.049763 343.433868,18.038816 
	C358.080139,17.844753 359.918152,19.758411 359.143463,35.066292 
	C353.772308,35.066292 348.341095,35.066292 342.447144,34.982677 
z"/>
<path fill="#040202" opacity="1.000000" stroke="none" 
	d="
M370.213776,387.723816 
	C390.401428,394.411987 403.500336,414.592133 401.852570,436.011993 
	C400.219116,457.245605 383.812286,474.728271 362.314667,478.142456 
	C335.153809,482.456085 310.645874,463.357849 308.395477,435.039795 
	C306.356049,409.376495 325.830933,386.369507 353.182343,385.231354 
	C358.691376,385.002106 364.282928,386.756927 370.213776,387.723816 
M357.119934,402.261963 
	C336.936371,401.329742 321.996460,418.674988 326.032776,438.354218 
	C329.103516,453.325714 345.329926,464.471649 359.790985,461.198395 
	C374.931000,458.677948 385.625458,445.714111 384.931000,430.723572 
	C384.231781,415.630219 372.554810,403.484100 357.119934,402.261963 
z"/>
<path fill="#070400" opacity="1.000000" stroke="none" 
	d="
M107.215683,215.962067 
	C112.422371,215.417252 117.329277,214.527542 122.146362,214.876801 
	C126.749756,215.210556 129.076782,218.829102 128.843430,223.308441 
	C128.609955,227.790695 125.916595,230.664246 121.296448,231.137680 
	C118.500923,231.424133 115.664116,231.385101 112.846855,231.363449 
	C108.876625,231.332932 105.580360,229.833389 104.145782,225.956192 
	C102.756821,222.202301 103.621155,218.771103 107.215683,215.962067 
z"/>
<path fill="#060300" opacity="1.000000" stroke="none" 
	d="
M171.353943,231.364136 
	C177.750854,232.881058 180.437927,235.921295 180.010941,240.728851 
	C179.588043,245.490295 176.202362,248.269470 170.169189,248.465149 
	C167.205063,248.561310 164.170914,248.511642 161.267532,247.983429 
	C157.190720,247.241730 154.973923,244.416733 154.839417,240.290237 
	C154.698395,235.963287 156.758331,232.809433 161.063599,231.957123 
	C164.270493,231.322220 167.638916,231.503128 171.353943,231.364136 
z"/>
<path fill="#060300" opacity="1.000000" stroke="none" 
	d="
M231.197205,222.970093 
	C230.665131,228.539612 227.550858,231.022064 222.627182,231.285965 
	C219.496307,231.453781 216.310959,231.449158 213.206406,231.065613 
	C208.619537,230.498947 206.108521,227.563538 206.007004,222.995605 
	C205.910614,218.657181 208.147736,215.489044 212.480881,214.875839 
	C216.353561,214.327774 220.395111,214.342957 224.291809,214.762634 
	C228.635239,215.230438 230.863754,218.216965 231.197205,222.970093 
z"/>
<path fill="#F2F3F3" opacity="1.000000" stroke="none" 
	d="
M358.992828,460.994476 
	C345.329926,464.471649 329.103516,453.325714 326.032776,438.354218 
	C321.996460,418.674988 336.936371,401.329742 357.587189,402.750793 
	C367.185303,415.098389 370.273285,428.403381 366.423492,442.832886 
	C364.751068,449.101379 361.517395,454.953339 358.992828,460.994476 
z"/>
<path fill="#CCD5D9" opacity="1.000000" stroke="none" 
	d="
M359.391907,461.096436 
	C361.517395,454.953339 364.751068,449.101379 366.423492,442.832886 
	C370.273285,428.403381 367.185303,415.098389 357.983093,402.929199 
	C372.554810,403.484100 384.231781,415.630219 384.931000,430.723572 
	C385.625458,445.714111 374.931000,458.677948 359.391907,461.096436 
z"/>
</svg>