<svg version="1.1" id="Layer_1" xmlns="http://www.w3.org/2000/svg" xmlns:xlink="http://www.w3.org/1999/xlink" x="0px" y="0px"
	 width="100%" viewBox="0 0 512 512" xml:space="preserve">

<path fill="#3E3E3E" opacity="1.000000" stroke="none" 
	d="
M0.999997,251.468658 
	C1.960269,249.265671 3.319508,247.638657 3.819343,245.780472 
	C9.040473,226.370605 18.449713,209.673416 34.345089,196.885788 
	C36.185276,195.405396 37.381218,192.499374 37.863960,190.054504 
	C42.042072,168.894150 51.156406,150.462524 67.503448,136.072037 
	C78.852318,126.081497 92.439903,120.604675 106.988441,117.037476 
	C109.697739,116.373177 112.768867,114.436256 114.294342,112.161942 
	C121.376785,101.602768 129.197266,91.805984 139.387527,84.058899 
	C152.043777,74.437050 166.150314,68.780205 182.195663,69.070419 
	C192.386398,69.254738 201.521332,68.249260 210.917633,62.475361 
	C228.367569,51.752625 248.138138,49.643814 268.550537,51.758869 
	C284.310394,53.391842 298.504456,58.475677 311.640533,67.136162 
	C313.538300,68.387337 316.230682,68.855232 318.578979,68.928474 
	C329.174927,69.258972 339.793365,68.321075 350.226074,71.536972 
	C368.796356,77.261261 382.799469,88.901909 394.112793,104.243622 
	C395.490540,106.112007 396.886017,108.002808 397.972260,110.043449 
	C400.392792,114.590630 403.889282,116.922974 409.115997,117.993988 
	C432.224182,122.729080 450.627686,134.980438 462.554199,155.349487 
	C468.001251,164.652420 471.411865,175.256897 474.888702,185.560379 
	C476.759827,191.105392 478.328186,195.890717 483.191162,200.070480 
	C497.017609,211.954315 505.189148,227.604553 510.030640,245.066666 
	C510.586731,247.072357 511.505463,248.977463 512.628052,250.964600 
	C513.000000,263.354218 513.000000,275.708466 513.000000,288.531342 
	C512.290100,289.941711 511.174927,290.790009 510.933105,291.839569 
	C508.583710,302.036469 502.993927,309.448639 494.167267,315.420258 
	C473.852112,329.164429 454.416779,344.221802 433.946381,357.717865 
	C424.864014,363.705841 419.803101,371.155304 416.690399,381.187469 
	C411.380371,398.301331 405.275665,415.169250 399.466492,432.127411 
	C396.426544,441.001648 395.010681,441.993011 385.865753,441.994293 
	C365.199127,441.997223 344.531097,441.880737 323.867432,442.128967 
	C321.022949,442.163116 317.807861,443.434845 315.431824,445.091156 
	C301.500702,454.802368 286.201721,460.208313 269.300873,462.152802 
	C251.914124,464.153137 235.142426,462.362183 219.021271,455.957428 
	C211.841537,453.105011 205.350159,448.549774 198.441025,444.970734 
	C195.937897,443.674072 193.136841,442.155426 190.456116,442.125275 
	C169.625427,441.890808 148.790955,441.997589 127.957642,441.994171 
	C119.106209,441.992706 117.756798,441.092285 114.892799,432.857941 
	C108.238289,413.725494 101.296913,394.682312 95.189690,375.375854 
	C93.082733,368.715271 89.342491,364.284698 83.909142,360.485046 
	C65.282471,347.459137 46.764202,334.278198 28.208553,321.150787 
	C23.071535,317.516541 17.939547,313.875092 12.821040,310.214874 
	C7.564537,306.455994 6.239446,300.445984 4.097734,294.902954 
	C3.342309,292.947845 2.524177,291.016937 1.367338,289.037476 
	C1.000000,276.645782 1.000000,264.291534 0.999997,251.468658 
M400.459869,371.084564 
	C400.711273,370.902130 400.815826,370.657166 401.060394,369.619598 
	C401.835052,367.441010 402.810852,365.310516 403.345459,363.074524 
	C404.769470,357.118805 408.047760,352.800049 413.343933,349.591278 
	C417.839020,346.867828 421.875793,343.387939 426.779694,340.043030 
	C446.548798,325.990814 466.378662,312.022369 486.011017,297.781586 
	C488.496246,295.978882 490.784088,293.024506 491.737091,290.133514 
	C497.411163,272.920990 495.386108,255.999039 488.474365,239.580017 
	C483.854370,228.605225 477.594269,218.701904 467.193207,211.140488 
	C466.076935,210.376053 464.960663,209.611633 463.497253,208.287094 
	C462.012390,205.435471 460.062012,202.725342 459.142883,199.701736 
	C457.412384,194.008987 456.662079,188.010345 454.827881,182.358398 
	C446.150116,155.618530 428.033051,139.629974 399.376160,134.836304 
	C398.613342,134.718491 397.850494,134.600662 396.447510,134.196655 
	C391.875214,133.850677 388.962891,131.367065 386.719086,127.434784 
	C383.926514,122.540863 380.936218,117.705742 377.532928,113.223663 
	C362.290131,93.149399 342.417267,83.944305 316.431519,88.006241 
	C315.242737,88.209190 314.053986,88.412140 312.004150,88.619240 
	C309.046600,87.400162 305.904724,86.495018 303.172913,84.891403 
	C298.617554,82.217339 294.610443,78.479790 289.867035,76.280022 
	C276.237671,69.959343 261.654175,68.738319 246.921860,70.321198 
	C232.985428,71.818565 220.006424,75.915009 209.461319,86.017235 
	C207.617538,87.783569 204.037537,87.737564 200.729309,88.286720 
	C199.483734,88.216866 198.238159,88.147011 196.191940,87.815155 
	C180.610748,85.526230 166.058777,88.203751 152.944687,97.147072 
	C141.983627,104.622108 134.179031,114.923370 127.906952,126.421791 
	C125.512466,130.811539 122.454208,133.891098 116.739754,134.319168 
	C115.810898,134.579193 114.882034,134.839203 113.165695,135.025314 
	C91.883362,139.051544 74.595619,149.234924 64.946075,169.149811 
	C60.438000,178.453629 58.411293,188.942551 55.001534,198.805008 
	C53.797840,202.286606 51.825459,205.502441 49.567905,209.079636 
	C48.533859,209.949158 47.499813,210.818680 45.852188,211.915710 
	C24.088760,228.761185 13.275389,264.493317 22.236578,290.310944 
	C22.968332,292.419189 24.022053,294.903381 25.712797,296.116882 
	C46.356758,310.933594 67.148003,325.545074 88.254753,340.771301 
	C89.591583,341.738495 90.849144,342.846619 92.277924,343.650330 
	C102.889397,349.619751 110.966171,357.561768 113.273308,370.589539 
	C113.404144,370.926758 113.649773,371.078705 113.950378,371.050598 
	C113.950378,371.050598 113.951721,370.990570 113.874237,371.773315 
	C119.410858,388.133270 124.875839,404.518463 130.616272,420.806610 
	C131.089996,422.150787 133.425858,423.687134 134.907211,423.698212 
	C152.188965,423.827087 169.472778,423.680237 187.707977,423.769348 
	C191.200287,423.786530 194.752609,423.415131 198.166183,423.942169 
	C200.963730,424.374084 204.235016,425.185516 206.204071,427.008453 
	C228.886795,448.008240 274.227722,450.358063 300.002472,432.409943 
	C308.880219,426.227905 317.241943,422.605255 328.715881,423.744202 
	C345.306458,423.773834 361.897888,423.722473 378.486847,423.901398 
	C381.807953,423.937195 383.103516,422.513092 384.038483,419.608551 
	C386.629089,411.560638 389.533936,403.614594 392.208588,395.592957 
	C394.929901,387.431427 397.524902,379.227783 400.061401,371.023407 
	C400.061401,371.023407 400.042877,371.137299 400.459869,371.084564 
z"/>
<path fill="#EDDDBE" opacity="1.000000" stroke="none" 
	d="
M426.115356,340.242737 
	C421.875793,343.387939 417.839020,346.867828 413.343933,349.591278 
	C408.047760,352.800049 404.769470,357.118805 403.345459,363.074524 
	C402.810852,365.310516 401.835052,367.441010 400.735199,370.046692 
	C400.187012,370.639160 400.064636,370.860352 400.042877,371.137299 
	C400.042877,371.137299 400.061401,371.023407 399.780243,371.125305 
	C396.667542,373.258301 393.829620,375.280518 391.005493,377.321869 
	C373.664398,389.856781 356.326416,402.396088 338.833679,414.633209 
	C327.106140,395.818878 310.250732,384.188568 290.005188,376.658264 
	C290.020782,375.904419 290.032593,375.473755 290.177979,374.841492 
	C290.267639,374.102417 290.223724,373.564972 290.179810,373.027527 
	C289.966431,373.075684 289.753021,373.123810 289.539642,373.171967 
	C289.678986,373.768646 289.818329,374.365356 289.689850,375.048889 
	C288.948730,375.431580 288.475403,375.727386 287.630310,375.936340 
	C281.202209,374.566742 275.145844,373.283997 269.059814,371.593689 
	C274.514252,338.848206 279.962036,306.504028 285.497742,274.174957 
	C288.249817,258.102570 291.163177,242.057755 294.440247,225.997864 
	C300.172729,225.813339 305.485016,225.278412 310.760742,225.525024 
	C320.883728,225.998169 329.646332,230.344193 337.800354,236.384140 
	C322.006531,281.321747 306.238495,325.895599 290.470459,370.469421 
	C290.868896,370.641998 291.267365,370.814545 291.665802,370.987122 
	C293.468323,367.154175 295.294250,363.332031 297.069763,359.486633 
	C314.232635,322.315063 331.386993,285.139557 348.731995,248.336563 
	C350.497833,252.150223 353.036163,254.000839 356.926025,254.535370 
	C368.255768,256.092224 378.264221,260.784485 387.009521,268.357117 
	C375.552795,286.850830 364.165131,304.994568 352.820312,323.165100 
	C342.095306,340.342926 331.415375,357.548889 320.499817,374.897247 
	C320.032013,375.517639 319.780029,375.983307 319.300903,376.590698 
	C318.929596,377.060455 318.785400,377.388489 318.641205,377.716522 
	C319.150970,377.542328 319.660736,377.368134 320.414917,377.087830 
	C320.996399,376.574860 321.333496,376.168091 321.925903,375.545563 
	C334.490173,361.524567 346.776184,347.698822 359.114258,333.919678 
	C372.669830,318.780823 386.273346,303.684845 399.890076,289.001770 
	C400.958832,294.036560 400.934143,298.804901 405.552399,302.166290 
	C418.387634,311.508392 425.500336,324.181458 426.115356,340.242737 
z"/>
<path fill="#EDDDBE" opacity="1.000000" stroke="none" 
	d="
M113.207481,370.132874 
	C110.966171,357.561768 102.889397,349.619751 92.277924,343.650330 
	C90.849144,342.846619 89.591583,341.738495 88.095657,340.042297 
	C88.533638,325.162048 94.449196,313.308319 105.384193,304.776672 
	C111.182274,300.252899 113.636391,295.189453 114.469063,288.665222 
	C128.139984,303.854950 141.502686,318.862335 154.916489,333.823853 
	C167.876144,348.278809 180.888474,362.686493 193.911255,377.382965 
	C194.198227,377.865723 194.451584,378.080444 194.704941,378.295197 
	C194.678452,377.711792 194.651978,377.128357 194.482300,376.225891 
	C186.846085,363.931610 179.346817,351.960297 171.861389,339.980377 
	C157.157928,316.448456 142.462158,292.911713 127.877457,269.023407 
	C129.303391,267.245361 130.347855,265.212708 131.971893,264.499115 
	C140.073578,260.939209 148.159790,257.169250 156.598846,254.625900 
	C160.804642,253.358337 163.785080,251.845291 165.682281,248.226318 
	C183.931213,287.689331 201.972015,326.825531 220.106384,366.209167 
	C220.785324,366.711151 221.370682,366.965759 221.956055,367.220337 
	C221.619766,366.807129 221.283478,366.393951 220.981873,365.579590 
	C220.583847,363.249451 220.333878,361.256866 219.688187,359.401978 
	C216.021500,348.868744 212.241241,338.375122 208.534744,327.855652 
	C197.749863,297.246979 186.981659,266.632446 176.526123,235.920471 
	C182.570770,232.956696 188.098129,229.554031 194.069321,227.358368 
	C202.455643,224.274643 211.302872,224.842636 220.233963,226.341736 
	C225.934662,258.921570 231.492706,291.142670 236.962524,323.378754 
	C239.710022,339.570953 242.297058,355.790314 244.514999,371.997620 
	C238.051331,373.001129 232.029312,374.004395 225.760071,375.001587 
	C225.512863,374.995514 225.018509,374.981323 224.987900,374.713745 
	C224.616531,373.968445 224.275772,373.490692 223.935013,373.012970 
	C223.817200,373.118744 223.590225,373.309296 223.597168,373.318268 
	C224.043686,373.893433 224.509201,374.453827 224.825363,375.192932 
	C224.469406,375.598663 224.244400,375.809204 223.621002,376.035858 
	C211.954681,379.262726 201.518600,384.455017 192.755356,392.058990 
	C185.503632,398.351318 179.496948,406.078522 172.614990,413.053528 
	C165.819656,408.248169 159.364136,403.536743 152.872818,398.875122 
	C139.909515,389.565796 126.926552,380.283844 113.951721,370.990570 
	C113.951721,370.990570 113.950378,371.050598 113.939041,370.828094 
	C113.770744,370.321320 113.530670,370.163727 113.207481,370.132874 
M222.957138,369.713837 
	C223.107559,369.750580 223.257996,369.787323 223.408432,369.824066 
	C223.305923,369.747925 223.203400,369.671814 222.957138,369.713837 
z"/>
<path fill="#E8D5AA" opacity="1.000000" stroke="none" 
	d="
M201.259415,88.528587 
	C204.037537,87.737564 207.617538,87.783569 209.461319,86.017235 
	C220.006424,75.915009 232.985428,71.818565 246.921860,70.321198 
	C261.654175,68.738319 276.237671,69.959343 289.867035,76.280022 
	C294.610443,78.479790 298.617554,82.217339 303.172913,84.891403 
	C305.904724,86.495018 309.046600,87.400162 312.294128,89.009117 
	C304.708313,106.964310 296.770081,124.502159 289.017365,142.121658 
	C287.705658,145.102768 286.761200,148.386108 286.393036,151.614868 
	C285.378113,160.516052 284.818115,169.467972 283.968903,178.389420 
	C282.711853,191.595245 281.360565,204.792130 279.664551,217.914032 
	C264.175140,213.592041 249.087234,213.843872 233.893600,217.601303 
	C232.181396,200.008133 230.363129,182.833618 229.076813,165.619354 
	C228.216675,154.108368 226.348999,143.139740 221.071045,132.576630 
	C213.881088,118.186790 207.810165,103.237816 201.259415,88.528587 
z"/>
<path fill="#E8D5AA" opacity="1.000000" stroke="none" 
	d="
M220.054871,225.989197 
	C211.302872,224.842636 202.455643,224.274643 194.069321,227.358368 
	C188.098129,229.554031 182.570770,232.956696 176.350998,235.591568 
	C170.497879,220.307571 165.247879,205.212433 159.699707,190.227692 
	C158.400360,186.718369 156.496109,183.263351 154.179230,180.328857 
	C142.000366,164.903397 129.599792,149.652954 117.276192,134.341751 
	C122.454208,133.891098 125.512466,130.811539 127.906952,126.421791 
	C134.179031,114.923370 141.983627,104.622108 152.944687,97.147072 
	C166.058777,88.203751 180.610748,85.526230 196.617188,88.355576 
	C202.273575,119.514969 207.546646,150.126846 212.717926,180.755905 
	C215.260818,195.817245 217.615189,210.910431 220.054871,225.989197 
z"/>
<path fill="#E8D5AA" opacity="1.000000" stroke="none" 
	d="
M337.826141,236.020355 
	C329.646332,230.344193 320.883728,225.998169 310.760742,225.525024 
	C305.485016,225.278412 300.172729,225.813339 294.419830,225.576172 
	C296.486603,210.088425 298.996918,195.017456 301.537262,179.951523 
	C306.701202,149.325699 311.881378,118.702614 317.054840,88.078400 
	C342.417267,83.944305 362.290131,93.149399 377.532928,113.223663 
	C380.936218,117.705742 383.926514,122.540863 386.719086,127.434784 
	C388.962891,131.367065 391.875214,133.850677 396.489258,134.578522 
	C383.988495,150.442749 371.402924,165.890625 358.953430,181.447418 
	C357.234161,183.595856 355.840393,186.155502 354.888794,188.742859 
	C349.105835,204.466934 343.494659,220.254181 337.826141,236.020355 
z"/>
<path fill="#E8D9C6" opacity="1.000000" stroke="none" 
	d="
M172.938629,413.169983 
	C179.496948,406.078522 185.503632,398.351318 192.755356,392.058990 
	C201.518600,384.455017 211.954681,379.262726 223.824371,376.142914 
	C224.942078,375.813263 225.474670,375.410461 226.007263,375.007660 
	C232.029312,374.004395 238.051331,373.001129 244.666107,372.363678 
	C245.910477,375.788757 246.562119,378.847992 247.213776,381.907257 
	C247.389816,381.857452 247.565842,381.807678 247.741882,381.757874 
	C247.741882,378.191315 247.741882,374.624756 248.227600,371.047058 
	C254.557022,371.384766 260.400726,371.733673 266.284546,372.521179 
	C266.127625,376.177582 265.930664,379.395355 265.733673,382.613129 
	C266.039612,382.669281 266.345581,382.725433 266.651520,382.781586 
	C267.464172,379.188141 268.276825,375.594696 269.089478,372.001251 
	C275.145844,373.283997 281.202209,374.566742 287.848206,376.112061 
	C288.958984,376.576935 289.480194,376.779205 290.001373,376.981476 
	C310.250732,384.188568 327.106140,395.818878 338.638306,414.907471 
	C334.983917,418.185944 331.371155,420.889496 327.758362,423.593048 
	C317.241943,422.605255 308.880219,426.227905 300.002472,432.409943 
	C274.227722,450.358063 228.886795,448.008240 206.204071,427.008453 
	C204.235016,425.185516 200.963730,424.374084 198.166183,423.942169 
	C194.752609,423.415131 191.200287,423.786530 187.030640,423.469055 
	C181.881744,419.835815 177.410187,416.502899 172.938629,413.169983 
z"/>
<path fill="#E8D5AA" opacity="1.000000" stroke="none" 
	d="
M387.097290,268.018860 
	C378.264221,260.784485 368.255768,256.092224 356.926025,254.535370 
	C353.036163,254.000839 350.497833,252.150223 348.832092,248.032608 
	C349.613281,245.383255 350.457123,243.397568 351.355560,241.436920 
	C367.602936,205.981873 383.856934,170.529861 400.109497,135.077194 
	C428.033051,139.629974 446.150116,155.618530 454.827881,182.358398 
	C456.662079,188.010345 457.412384,194.008987 459.142883,199.701736 
	C460.062012,202.725342 462.012390,205.435471 463.351746,208.708679 
	C446.197418,217.444107 429.123322,225.629257 412.239685,234.190109 
	C409.190247,235.736343 406.357361,238.435928 404.400604,241.275635 
	C398.378632,250.014877 392.829926,259.080231 387.097290,268.018860 
z"/>
<path fill="#E8D5AA" opacity="1.000000" stroke="none" 
	d="
M165.474167,247.899551 
	C163.785080,251.845291 160.804642,253.358337 156.598846,254.625900 
	C148.159790,257.169250 140.073578,260.939209 131.971893,264.499115 
	C130.347855,265.212708 129.303391,267.245361 127.615860,268.796967 
	C121.213402,259.354950 115.316605,249.699692 109.068512,240.277405 
	C107.513893,237.933014 105.118126,235.753540 102.608742,234.498337 
	C85.214470,225.797562 67.688034,217.360992 50.204029,208.839615 
	C51.825459,205.502441 53.797840,202.286606 55.001534,198.805008 
	C58.411293,188.942551 60.438000,178.453629 64.946075,169.149811 
	C74.595619,149.234924 91.883362,139.051544 113.651581,135.405090 
	C118.582825,145.463806 123.039055,155.137787 127.471497,164.822662 
	C140.144241,192.512589 152.807297,220.206940 165.474167,247.899551 
z"/>
<path fill="#E7D5AA" opacity="1.000000" stroke="none" 
	d="
M114.183212,288.462769 
	C113.636391,295.189453 111.182274,300.252899 105.384193,304.776672 
	C94.449196,313.308319 88.533638,325.162048 87.918823,339.761536 
	C67.148003,325.545074 46.356758,310.933594 25.712797,296.116882 
	C24.022053,294.903381 22.968332,292.419189 22.236578,290.310944 
	C13.275389,264.493317 24.088760,228.761185 46.375114,212.111069 
	C54.607265,221.010483 62.326687,229.705536 70.023521,238.420517 
	C84.750206,255.095291 99.464043,271.781372 114.183212,288.462769 
z"/>
<path fill="#E7D5AA" opacity="1.000000" stroke="none" 
	d="
M426.447510,340.142883 
	C425.500336,324.181458 418.387634,311.508392 405.552399,302.166290 
	C400.934143,298.804901 400.958832,294.036560 400.008972,288.705933 
	C401.620026,286.222351 403.132111,284.453674 404.674500,282.711823 
	C425.627197,259.050598 446.584076,235.393066 467.539917,211.734619 
	C477.594269,218.701904 483.854370,228.605225 488.474365,239.580017 
	C495.386108,255.999039 497.411163,272.920990 491.737091,290.133514 
	C490.784088,293.024506 488.496246,295.978882 486.011017,297.781586 
	C466.378662,312.022369 446.548798,325.990814 426.447510,340.142883 
z"/>
<path fill="#C87A28" opacity="1.000000" stroke="none" 
	d="
M114.469055,288.665222 
	C99.464043,271.781372 84.750206,255.095291 70.023521,238.420517 
	C62.326687,229.705536 54.607265,221.010483 46.681908,211.997314 
	C47.499813,210.818680 48.533859,209.949158 49.885963,208.959625 
	C67.688034,217.360992 85.214470,225.797562 102.608742,234.498337 
	C105.118126,235.753540 107.513893,237.933014 109.068512,240.277405 
	C115.316605,249.699692 121.213402,259.354950 127.501625,269.150543 
	C142.462158,292.911713 157.157928,316.448456 171.861389,339.980377 
	C179.346817,351.960297 186.846085,363.931610 194.292068,376.364075 
	C194.245041,376.821381 193.877655,377.114960 193.877655,377.114960 
	C180.888474,362.686493 167.876144,348.278809 154.916489,333.823853 
	C141.502686,318.862335 128.139984,303.854950 114.469055,288.665222 
z"/>
<path fill="#C87928" opacity="1.000000" stroke="none" 
	d="
M467.366577,211.437561 
	C446.584076,235.393066 425.627197,259.050598 404.674500,282.711823 
	C403.132111,284.453674 401.620026,286.222351 399.974915,288.274353 
	C386.273346,303.684845 372.669830,318.780823 359.114258,333.919678 
	C346.776184,347.698822 334.490173,361.524567 321.690704,375.287537 
	C321.038666,375.077698 320.877167,374.910095 320.715637,374.742493 
	C331.415375,357.548889 342.095306,340.342926 352.820312,323.165100 
	C364.165131,304.994568 375.552795,286.850830 387.009521,268.357147 
	C392.829926,259.080231 398.378632,250.014877 404.400604,241.275635 
	C406.357361,238.435928 409.190247,235.736343 412.239685,234.190109 
	C429.123322,225.629257 446.197418,217.444107 463.525330,208.988739 
	C464.960663,209.611633 466.076935,210.376053 467.366577,211.437561 
z"/>
<path fill="#C87A29" opacity="1.000000" stroke="none" 
	d="
M247.741882,371.058197 
	C247.741882,374.624756 247.741882,378.191315 247.741882,381.757874 
	C247.565842,381.807678 247.389816,381.857452 247.213776,381.907257 
	C246.562119,378.847992 245.910477,375.788757 245.107727,372.363464 
	C242.297058,355.790314 239.710022,339.570953 236.962524,323.378754 
	C231.492706,291.142670 225.934662,258.921570 220.233948,226.341736 
	C217.615189,210.910431 215.260818,195.817245 212.717926,180.755905 
	C207.546646,150.126846 202.273575,119.514969 197.017517,88.486580 
	C198.238159,88.147011 199.483734,88.216866 200.994354,88.407654 
	C207.810165,103.237816 213.881088,118.186790 221.071045,132.576630 
	C226.348999,143.139740 228.216675,154.108368 229.076813,165.619354 
	C230.363129,182.833618 232.181396,200.008133 233.845184,218.050629 
	C234.076431,221.393784 234.180695,223.890839 234.403656,226.377243 
	C237.600479,262.028168 240.786011,297.680206 244.037033,333.326202 
	C245.184830,345.911469 246.502029,358.481323 247.741882,371.058197 
z"/>
<path fill="#C87A29" opacity="1.000000" stroke="none" 
	d="
M269.059814,371.593689 
	C268.276825,375.594696 267.464172,379.188141 266.651520,382.781586 
	C266.345581,382.725433 266.039612,382.669281 265.733673,382.613129 
	C265.930664,379.395355 266.127625,376.177582 266.447021,372.146729 
	C269.703094,336.765686 272.880035,302.201538 275.951538,267.628021 
	C277.420532,251.092117 278.689697,234.538437 280.049377,217.992813 
	C281.360565,204.792130 282.711853,191.595245 283.968903,178.389420 
	C284.818115,169.467972 285.378113,160.516052 286.393036,151.614868 
	C286.761200,148.386108 287.705658,145.102768 289.017365,142.121658 
	C296.770081,124.502159 304.708313,106.964310 312.724670,89.007034 
	C314.053986,88.412140 315.242737,88.209190 316.743164,88.042320 
	C311.881378,118.702614 306.701202,149.325699 301.537262,179.951523 
	C298.996918,195.017456 296.486603,210.088425 293.983154,225.578796 
	C291.163177,242.057755 288.249817,258.102570 285.497742,274.174957 
	C279.962036,306.504028 274.514252,338.848206 269.059814,371.593689 
z"/>
<path fill="#C87A29" opacity="1.000000" stroke="none" 
	d="
M399.742828,134.956757 
	C383.856934,170.529861 367.602936,205.981873 351.355560,241.436920 
	C350.457123,243.397568 349.613281,245.383255 348.643890,247.661224 
	C331.386993,285.139557 314.232635,322.315063 297.069763,359.486633 
	C295.294250,363.332031 293.468323,367.154175 291.665802,370.987122 
	C291.267365,370.814545 290.868896,370.641998 290.470459,370.469421 
	C306.238495,325.895599 322.006531,281.321747 337.800354,236.384140 
	C343.494659,220.254181 349.105835,204.466934 354.888794,188.742859 
	C355.840393,186.155502 357.234161,183.595856 358.953430,181.447418 
	C371.402924,165.890625 383.988495,150.442749 396.809326,134.721619 
	C397.850494,134.600662 398.613342,134.718491 399.742828,134.956757 
z"/>
<path fill="#C87A29" opacity="1.000000" stroke="none" 
	d="
M165.682281,248.226318 
	C152.807297,220.206940 140.144241,192.512589 127.471497,164.822662 
	C123.039055,155.137787 118.582825,145.463806 114.045319,135.442047 
	C114.882034,134.839203 115.810898,134.579193 117.007973,134.330460 
	C129.599792,149.652954 142.000366,164.903397 154.179230,180.328857 
	C156.496109,183.263351 158.400360,186.718369 159.699707,190.227692 
	C165.247879,205.212433 170.497879,220.307571 176.031799,235.691315 
	C186.981659,266.632446 197.749863,297.246979 208.534744,327.855652 
	C212.241241,338.375122 216.021500,348.868744 219.688187,359.401978 
	C220.333878,361.256866 220.583847,363.249451 220.748138,365.581848 
	C220.479721,365.985199 220.012817,365.961761 220.012817,365.961761 
	C201.972015,326.825531 183.931213,287.689331 165.682281,248.226318 
z"/>
<path fill="#C57828" opacity="1.000000" stroke="none" 
	d="
M172.614990,413.053528 
	C177.410187,416.502899 181.881744,419.835815 186.554688,423.387512 
	C169.472778,423.680237 152.188965,423.827087 134.907211,423.698212 
	C133.425858,423.687134 131.089996,422.150787 130.616272,420.806610 
	C124.875839,404.518463 119.410858,388.133270 113.912979,371.381958 
	C126.926552,380.283844 139.909515,389.565796 152.872818,398.875122 
	C159.364136,403.536743 165.819656,408.248169 172.614990,413.053528 
z"/>
<path fill="#C57828" opacity="1.000000" stroke="none" 
	d="
M328.237122,423.668640 
	C331.371155,420.889496 334.983917,418.185944 338.792023,415.208130 
	C356.326416,402.396088 373.664398,389.856781 391.005493,377.321869 
	C393.829620,375.280518 396.667542,373.258301 399.837158,371.134888 
	C397.524902,379.227783 394.929901,387.431427 392.208588,395.592957 
	C389.533936,403.614594 386.629089,411.560638 384.038483,419.608551 
	C383.103516,422.513092 381.807953,423.937195 378.486847,423.901398 
	C361.897888,423.722473 345.306458,423.773834 328.237122,423.668640 
z"/>
<path fill="#C57828" opacity="1.000000" stroke="none" 
	d="
M400.251373,371.110931 
	C400.064636,370.860352 400.187012,370.639160 400.591797,370.411682 
	C400.815826,370.657166 400.711273,370.902130 400.251373,371.110931 
z"/>
<path fill="#C57828" opacity="1.000000" stroke="none" 
	d="
M113.240395,370.361206 
	C113.530670,370.163727 113.770744,370.321320 113.968941,370.825500 
	C113.649773,371.078705 113.404144,370.926758 113.240395,370.361206 
z"/>
<path fill="#EDDDBE" opacity="1.000000" stroke="none" 
	d="
M289.957672,374.962036 
	C289.818329,374.365356 289.678986,373.768646 289.539642,373.171967 
	C289.753021,373.123810 289.966431,373.075684 290.179810,373.027527 
	C290.223724,373.564972 290.267639,374.102417 290.156250,374.820862 
	C290.000916,375.001862 289.957672,374.962036 289.957672,374.962036 
z"/>
<path fill="#EDDDBE" opacity="1.000000" stroke="none" 
	d="
M290.005188,376.658264 
	C289.480194,376.779205 288.958984,376.576935 288.219940,376.198914 
	C288.475403,375.727386 288.948730,375.431580 289.689850,375.048889 
	C289.957672,374.962036 290.000916,375.001862 290.022644,375.022491 
	C290.032593,375.473755 290.020782,375.904419 290.005188,376.658264 
z"/>
<path fill="#C87928" opacity="1.000000" stroke="none" 
	d="
M321.435364,375.503296 
	C321.333496,376.168091 320.996399,376.574860 320.255402,376.900635 
	C319.851471,376.819580 319.528046,376.448944 319.528046,376.448944 
	C319.780029,375.983307 320.032013,375.517639 320.499817,374.897247 
	C320.877167,374.910095 321.038666,375.077698 321.435364,375.503296 
z"/>
<path fill="#C87928" opacity="1.000000" stroke="none" 
	d="
M320.010986,377.006775 
	C319.660736,377.368134 319.150970,377.542328 318.641205,377.716522 
	C318.785400,377.388489 318.929596,377.060455 319.300903,376.590698 
	C319.528046,376.448944 319.851471,376.819580 320.010986,377.006775 
z"/>
<path fill="#EDDDBE" opacity="1.000000" stroke="none" 
	d="
M220.106384,366.209167 
	C220.012817,365.961761 220.479721,365.985199 220.713455,365.982971 
	C221.283478,366.393951 221.619766,366.807129 221.956055,367.220337 
	C221.370682,366.965759 220.785324,366.711151 220.106384,366.209167 
z"/>
<path fill="#EDDDBE" opacity="1.000000" stroke="none" 
	d="
M224.972992,375.015564 
	C224.509201,374.453827 224.043686,373.893433 223.597168,373.318268 
	C223.590225,373.309296 223.817200,373.118744 223.935013,373.012970 
	C224.275772,373.490692 224.616531,373.968445 224.977295,374.723419 
	C224.997314,375.000671 224.972992,375.015564 224.972992,375.015564 
z"/>
<path fill="#EDDDBE" opacity="1.000000" stroke="none" 
	d="
M223.029007,369.654755 
	C223.203400,369.671814 223.305923,369.747925 223.408432,369.824097 
	C223.257996,369.787323 223.107559,369.750580 223.029007,369.654755 
z"/>
<path fill="#EDDDBE" opacity="1.000000" stroke="none" 
	d="
M225.760071,375.001587 
	C225.474670,375.410461 224.942078,375.813263 224.206116,376.109009 
	C224.244400,375.809204 224.469406,375.598663 224.825363,375.192932 
	C224.972992,375.015564 224.997314,375.000671 225.007904,374.990997 
	C225.018509,374.981323 225.512863,374.995514 225.760071,375.001587 
z"/>
<path fill="#C87A28" opacity="1.000000" stroke="none" 
	d="
M194.435272,376.683167 
	C194.651978,377.128357 194.678452,377.711792 194.704941,378.295197 
	C194.451584,378.080444 194.198227,377.865723 193.911255,377.382965 
	C193.877655,377.114960 194.245041,376.821381 194.435272,376.683167 
z"/>
<path fill="#EDDDBE" opacity="1.000000" stroke="none" 
	d="
M279.664551,217.914032 
	C278.689697,234.538437 277.420532,251.092117 275.951538,267.628021 
	C272.880035,302.201538 269.703094,336.765686 266.406921,371.708130 
	C260.400726,371.733673 254.557022,371.384766 248.227600,371.047058 
	C246.502029,358.481323 245.184830,345.911469 244.037033,333.326202 
	C240.786011,297.680206 237.600479,262.028168 234.403656,226.377243 
	C234.180695,223.890839 234.076431,221.393784 233.965393,218.452362 
	C249.087234,213.843872 264.175140,213.592041 279.664551,217.914032 
z"/>
</svg>