<svg version="1.1" id="Layer_1" xmlns="http://www.w3.org/2000/svg" xmlns:xlink="http://www.w3.org/1999/xlink" x="0px" y="0px"
	 width="100%" viewBox="0 0 512 512" xml:space="preserve">

<path fill="#6C0988" opacity="1.000000" stroke="none" 
	d="
M133.641235,222.254333 
	C130.564774,212.048737 129.929443,201.946274 131.640244,191.940445 
	C134.403488,175.779480 144.829208,165.702515 159.707626,160.278564 
	C172.636597,155.565277 186.126740,154.743530 199.746780,156.866501 
	C202.103714,157.233887 203.753326,156.826355 204.939713,154.402573 
	C209.160156,145.780106 214.473999,137.770569 220.930969,130.736694 
	C230.506653,120.305466 242.400085,113.367065 256.803345,113.218353 
	C267.724976,113.105591 277.735077,117.172234 286.097107,124.592964 
	C289.286407,127.423256 292.957825,129.701401 295.191162,133.579453 
	C296.227509,135.378998 298.132233,135.089859 300.088196,134.497177 
	C315.855804,129.719421 330.782898,139.054138 334.412811,152.876099 
	C335.319305,156.327881 337.925385,156.608185 340.759583,157.029404 
	C356.017914,159.297180 369.342896,164.937042 377.520782,179.000092 
	C380.769775,184.587173 382.628540,190.586700 383.076569,197.180984 
	C384.419891,216.951279 377.361511,234.162201 367.009674,250.234390 
	C363.720093,255.341827 363.438629,258.734283 367.092346,263.967133 
	C375.065704,275.386536 380.918884,288.221191 382.665375,302.053558 
	C386.048523,328.847656 376.176483,349.465454 345.408813,356.100555 
	C334.762817,358.396393 324.142181,358.775665 313.424286,357.035980 
	C311.284271,356.688629 310.076996,357.600739 309.148804,359.461731 
	C304.788483,368.204193 299.465302,376.410919 292.830292,383.506989 
	C283.312012,393.686829 271.589264,400.562744 257.355347,400.805389 
	C246.937469,400.982971 237.323135,397.136749 229.119751,390.527313 
	C225.555710,387.655792 221.590942,385.144531 219.254623,380.901215 
	C218.174744,378.939911 216.274887,378.730743 214.041122,379.434723 
	C198.246536,384.412689 183.196121,375.010651 179.444855,360.835175 
	C178.488770,357.222229 175.611404,357.419464 172.916504,356.986877 
	C157.690323,354.542755 144.377197,348.836151 136.281693,334.744720 
	C133.151978,329.296997 131.397766,323.404480 130.928879,316.997559 
	C129.467209,297.025787 136.597992,279.688507 147.178894,263.510529 
	C150.266144,258.790192 150.545395,255.313202 147.268188,250.590942 
	C141.331863,242.036911 136.739105,232.694809 133.641235,222.254333 
z"/>
<path fill="#6A078A" opacity="1.000000" stroke="none" 
	d="
M509.686493,180.482071 
	C508.616760,186.851669 507.853302,192.730606 502.744904,197.180893 
	C496.701843,202.445465 489.728607,203.054413 482.354797,203.007339 
	C474.094788,202.954605 474.032288,203.252548 475.611359,211.389633 
	C476.842865,217.735931 476.167847,224.247009 476.770386,230.701706 
	C478.123566,245.198517 478.058411,259.821289 479.068604,274.358215 
	C480.273285,291.693481 481.092804,309.046295 482.145538,326.385193 
	C483.147919,342.895294 484.326569,359.390930 485.070465,375.921112 
	C485.746918,390.951569 487.842651,405.959595 487.782043,420.971344 
	C487.705505,439.906647 473.348663,453.545410 454.783264,452.867493 
	C433.554443,452.092316 421.307251,433.037750 424.610229,414.631531 
	C425.781494,408.104523 424.962433,401.444214 425.803558,394.813477 
	C426.925842,385.966400 426.247864,376.904419 427.092834,368.005951 
	C428.859131,349.404755 428.809692,330.692139 430.892578,312.111694 
	C431.572784,306.044037 431.345062,299.894531 431.832367,293.765259 
	C433.013153,278.912567 432.832733,263.946411 434.166321,249.112778 
	C435.305939,236.437241 435.052612,223.677353 436.929199,211.057693 
	C438.067902,203.400177 437.547729,202.856812 429.707001,203.030029 
	C419.786835,203.249191 410.987854,201.411087 405.371216,192.036087 
	C403.862457,189.517700 402.996338,187.033005 402.997223,184.147232 
	C403.008759,147.148148 402.988678,110.149055 403.018646,73.149994 
	C403.024567,65.839485 407.974243,60.955975 415.102814,61.012909 
	C421.651306,61.065208 426.984589,66.679428 426.989197,73.614082 
	C427.005524,98.280121 426.999237,122.946190 426.992981,147.612244 
	C426.992065,151.184921 427.276062,154.739731 430.658630,156.827759 
	C433.403107,158.521912 436.409729,159.105804 439.449524,157.224075 
	C442.904907,155.085037 444.006226,151.830612 444.005524,147.996719 
	C444.001007,123.164001 444.049194,98.331100 443.951935,73.498764 
	C443.938568,70.091011 444.917297,67.457642 447.354614,65.091148 
	C451.570831,60.997452 455.692230,59.911190 460.809235,62.079651 
	C465.727142,64.163757 468.042450,67.886078 468.026855,73.311417 
	C467.955383,98.143929 467.982239,122.976776 468.007202,147.809464 
	C468.013000,153.609512 470.533813,157.334702 474.704803,157.964493 
	C480.982300,158.912354 484.974884,155.545715 484.985992,149.075836 
	C485.027435,124.909843 485.002991,100.743736 485.004089,76.577667 
	C485.004150,75.244392 484.930054,73.904839 485.031158,72.578949 
	C485.418823,67.495140 488.150604,64.005257 492.709595,62.008083 
	C497.884399,59.741142 502.360016,61.465187 506.374939,64.898590 
	C508.905151,67.062325 509.206085,70.008957 509.029022,73.495941 
	C509.896362,75.649040 509.476074,77.508255 509.479034,79.307152 
	C509.534454,112.875595 509.445923,146.444153 509.686493,180.482071 
z"/>
<path fill="#6B088B" opacity="1.000000" stroke="none" 
	d="
M17.000174,94.025497 
	C25.155329,81.236679 35.495983,71.529198 49.953709,67.144394 
	C66.252052,62.201370 81.346001,65.215179 94.829353,75.417091 
	C111.536690,88.058365 119.895592,105.545418 123.009422,125.856949 
	C125.889999,144.646957 123.609428,162.777710 114.968452,179.763290 
	C108.657776,192.168213 99.834282,202.604111 87.070839,208.827515 
	C82.970222,210.826965 83.527313,213.989502 84.157814,216.687164 
	C85.877136,224.043472 84.987907,231.516693 85.746399,238.916885 
	C87.229622,253.387695 87.065186,268.018555 88.064796,282.550018 
	C89.256569,299.874817 90.259972,317.202515 91.153175,334.544952 
	C91.722672,345.602509 92.367622,356.671783 93.128334,367.719543 
	C94.298492,384.713745 95.943726,401.692474 95.911049,418.727478 
	C95.867218,441.572601 70.638039,455.372101 51.542320,446.227936 
	C38.967815,440.206543 32.732742,430.802185 32.863434,416.526306 
	C33.013885,400.091797 34.735584,383.762970 35.202007,367.352692 
	C35.511269,356.471802 36.474072,345.576569 37.136063,334.687347 
	C38.180012,317.515228 39.317898,300.353760 40.158142,283.166046 
	C40.682297,272.444305 41.654583,261.741882 42.108574,250.997910 
	C42.644543,238.313919 43.905052,225.659546 44.923393,212.998108 
	C45.061741,211.277985 44.609577,210.276306 43.013424,209.478104 
	C20.292709,198.115967 9.845436,178.358810 6.001801,154.404633 
	C2.888637,135.002869 5.236901,116.233131 14.219069,98.534981 
	C14.961041,97.073036 15.992229,95.757874 17.000174,94.025497 
z"/>
<path fill="#800080" opacity="1.000000" stroke="none" 
	d="
M509.894287,180.489639 
	C508.780762,179.292938 509.007355,177.428055 509.007294,175.613708 
	C509.006073,142.027878 509.016479,108.442062 509.036072,74.381958 
	C510.537231,75.025902 509.971558,76.656242 509.972412,78.067001 
	C509.992523,112.053902 509.970490,146.040833 509.894287,180.489639 
z"/>
<path fill="#FBC14C" opacity="1.000000" stroke="none" 
	d="
M274.183685,190.800705 
	C289.655975,199.448578 303.869049,209.268951 317.219360,220.367966 
	C319.579865,222.330399 320.709076,224.474686 321.001495,227.530624 
	C322.879059,247.151596 322.889709,266.752197 321.000763,286.372742 
	C320.708893,289.404541 319.660583,291.588715 317.283081,293.568573 
	C299.804413,308.123718 280.876587,320.398132 260.446869,330.397766 
	C257.953644,331.618103 255.985153,331.553467 253.505997,330.345917 
	C233.052551,320.383362 214.167664,308.044128 196.662949,293.529022 
	C194.273331,291.547546 193.274628,289.349182 192.982422,286.321106 
	C191.089066,266.700348 191.096115,247.099167 193.000031,227.481079 
	C193.274277,224.655212 194.166595,222.546570 196.425247,220.666351 
	C214.032715,206.008987 233.068527,193.601151 253.664520,183.548035 
	C256.225464,182.298004 258.226379,182.368591 260.601837,183.686020 
	C264.962830,186.104630 269.433472,188.325562 274.183685,190.800705 
z"/>
<path fill="#FAC04D" opacity="1.000000" stroke="none" 
	d="
M221.913986,142.948090 
	C226.132874,137.520950 230.577271,132.829285 235.951599,129.069839 
	C249.901413,119.311661 265.386414,119.496765 279.001678,129.762436 
	C281.779022,131.856476 284.167999,134.457779 286.851715,136.685852 
	C289.805359,139.138000 290.093597,141.159958 287.265625,144.269791 
	C283.227448,148.710403 281.495941,154.364319 281.763580,160.404877 
	C281.879333,163.017014 280.998779,164.163956 278.532135,165.019882 
	C271.475311,167.468643 264.562714,172.208649 257.532806,172.323029 
	C250.731110,172.433685 243.873657,167.858170 237.005020,165.442429 
	C229.014130,162.631943 220.770035,160.696976 212.285706,158.752579 
	C214.834961,152.998871 218.159698,148.052048 221.913986,142.948090 
z"/>
<path fill="#FAC04D" opacity="1.000000" stroke="none" 
	d="
M225.551270,375.474670 
	C223.520447,373.650085 224.503616,372.470520 225.714539,371.099548 
	C230.193375,366.028656 232.533188,360.070526 232.222580,353.292450 
	C232.107681,350.785370 232.991501,349.578064 235.273788,349.095428 
	C235.436356,349.061066 235.600876,349.025238 235.755768,348.966919 
	C242.745209,346.334778 249.710022,341.716125 256.729004,341.632416 
	C263.535919,341.551239 270.359619,346.240173 277.247192,348.628754 
	C284.312866,351.079132 291.529907,353.059265 298.874847,354.490601 
	C301.330292,354.969116 301.782715,355.717285 300.492096,358.004761 
	C295.556458,366.752716 289.951843,374.966766 282.297852,381.584076 
	C266.097229,395.590546 248.025558,395.625458 231.820190,381.686829 
	C229.683212,379.848724 227.790222,377.726959 225.551270,375.474670 
z"/>
<path fill="#FBC14C" opacity="1.000000" stroke="none" 
	d="
M346.274658,346.784027 
	C338.175751,349.689667 325.982147,350.329315 313.948395,348.591583 
	C315.402649,344.504242 316.862366,340.508179 318.248169,336.486603 
	C322.311462,324.695190 325.272461,312.625183 327.048096,300.284393 
	C327.564545,296.694946 328.761169,293.854401 331.665070,291.375580 
	C338.109344,285.874573 343.837036,279.608521 349.698853,273.042480 
	C352.107727,272.355743 353.624146,273.312103 354.519287,275.080872 
	C363.107910,292.051910 368.921387,309.510437 362.737579,328.699615 
	C360.074097,336.964844 354.983765,343.304504 346.274658,346.784027 
z"/>
<path fill="#FBC14D" opacity="1.000000" stroke="none" 
	d="
M167.755127,167.182602 
	C177.792618,163.779144 187.736801,164.288162 197.703156,164.964432 
	C201.435730,165.217697 199.439606,167.383316 198.911041,168.725754 
	C194.942673,178.804581 190.866043,189.040848 189.764664,199.735947 
	C188.313568,213.827118 182.537750,224.747147 171.478821,233.333023 
	C168.502335,235.643890 166.286758,238.934860 163.430298,241.936127 
	C161.731201,241.886322 160.650955,241.195663 159.983597,239.919373 
	C151.643417,223.969589 145.925613,207.386032 150.141220,189.143097 
	C152.386322,179.427460 157.363312,171.239563 167.755127,167.182602 
z"/>
<path fill="#FBC14C" opacity="1.000000" stroke="none" 
	d="
M350.397034,241.206268 
	C343.338104,234.143463 336.922089,226.917358 329.573730,220.637177 
	C327.815094,219.134171 327.660126,217.174606 327.373352,215.265137 
	C325.988281,206.042526 324.123688,196.919708 321.462646,187.989014 
	C320.652374,185.269608 321.166748,183.759476 323.534180,182.237549 
	C328.300293,179.173721 331.908081,174.848465 333.268097,169.383209 
	C334.383942,164.899277 336.687469,164.349625 340.422974,165.427505 
	C342.015869,165.887146 343.649902,166.204178 345.596497,166.781769 
	C362.353729,173.567337 366.656281,191.355865 365.027344,207.083786 
	C363.937744,217.604355 360.353607,227.449997 355.655579,236.885193 
	C354.629822,238.945282 353.710419,241.241196 350.397034,241.206268 
z"/>
<path fill="#FBC14C" opacity="1.000000" stroke="none" 
	d="
M162.749603,271.980103 
	C170.108002,279.243530 176.828079,286.835632 184.520248,293.449677 
	C186.278610,294.961609 186.328339,296.965118 186.617340,298.856079 
	C188.023605,308.057159 189.873596,317.165558 192.543839,326.074310 
	C193.373398,328.841980 192.712006,330.278534 190.399994,331.780304 
	C185.659225,334.859741 182.064133,339.178497 180.703506,344.630341 
	C179.585327,349.110626 177.302750,349.651917 173.558868,348.553619 
	C171.973709,348.088562 170.322632,347.848206 168.390961,347.277161 
	C152.192261,340.785858 147.613373,322.910431 148.848404,308.822601 
	C149.880920,297.045013 153.686615,286.088837 159.078186,275.643951 
	C159.830688,274.186157 160.529694,272.595001 162.749603,271.980103 
z"/>
<path fill="#FD4297" opacity="1.000000" stroke="none" 
	d="
M290.740448,154.202927 
	C295.336243,144.575974 303.200256,140.295639 312.238922,142.195847 
	C320.580048,143.949417 326.812836,151.512848 326.977539,160.081116 
	C327.143280,168.703522 321.405426,176.341919 312.956604,178.497635 
	C299.614838,181.901749 286.102661,170.107941 290.740448,154.202927 
z"/>
<path fill="#FD4297" opacity="1.000000" stroke="none" 
	d="
M224.050629,356.536865 
	C221.582291,365.781097 215.842987,371.200378 208.071136,372.011780 
	C200.111511,372.842834 192.914078,369.154785 189.267487,362.376648 
	C185.583710,355.529358 186.469177,347.317047 191.531250,341.381500 
	C196.595795,335.443054 205.109879,333.316376 212.432419,336.160706 
	C220.463928,339.280426 224.455765,346.107574 224.050629,356.536865 
z"/>
<path fill="#F9BF4D" opacity="1.000000" stroke="none" 
	d="
M207.167542,202.169922 
	C203.449936,204.919525 200.026108,207.466537 196.162460,210.340744 
	C195.785950,206.011993 197.109024,202.603424 197.859695,199.126251 
	C200.035629,189.047287 203.233841,179.286972 206.976944,169.684128 
	C207.941818,167.208740 209.235825,166.424026 211.835098,166.950867 
	C223.553375,169.326065 234.910873,172.819107 246.984940,177.710861 
	C232.847733,185.330536 219.696808,192.928421 207.167542,202.169922 
z"/>
<path fill="#F9BF4D" opacity="1.000000" stroke="none" 
	d="
M312.263885,329.276489 
	C310.419647,334.514069 308.626465,339.345917 307.010590,344.236389 
	C306.185883,346.732391 304.830933,347.587830 302.186523,347.041962 
	C290.469696,344.623322 279.069550,341.234619 266.979218,336.194122 
	C285.288757,326.721771 301.882294,316.192017 318.303528,303.096130 
	C317.047729,312.782532 314.789917,320.854126 312.263885,329.276489 
z"/>
<path fill="#FADC6A" opacity="1.000000" stroke="none" 
	d="
M167.691833,166.929901 
	C159.215561,174.010162 153.117401,182.736923 151.434631,194.235062 
	C150.152115,202.998367 151.892960,211.407761 154.120316,219.758621 
	C156.139755,227.329971 159.794754,234.263062 163.045624,241.741058 
	C156.950287,250.700531 156.931274,250.711441 151.738739,241.661697 
	C145.923096,231.526001 141.400681,220.932938 139.584442,209.256729 
	C136.321609,188.280945 146.571228,172.488617 167.691833,166.929901 
z"/>
<path fill="#FADD6A" opacity="1.000000" stroke="none" 
	d="
M163.022522,271.571472 
	C160.046326,279.575073 156.081741,286.909485 153.854828,294.957886 
	C149.712875,309.927490 149.151230,324.429657 158.839798,337.808258 
	C161.316910,341.228851 164.562241,343.776886 167.883652,346.769440 
	C148.458740,343.550842 136.431351,326.252960 139.351685,305.930450 
	C141.404465,291.645111 147.455643,279.013977 154.938995,266.911011 
	C156.372070,264.593262 157.464767,264.113068 159.156052,266.585480 
	C160.278091,268.225739 161.637878,269.703400 163.022522,271.571472 
z"/>
<path fill="#DCA230" opacity="1.000000" stroke="none" 
	d="
M346.317627,347.024109 
	C357.458679,338.072235 363.731079,326.482574 362.933899,311.725769 
	C362.186218,297.885376 358.031097,285.014832 350.263245,273.074188 
	C357.169098,263.203369 357.192596,263.190277 362.936127,273.488434 
	C368.388214,283.264038 372.633270,293.459473 374.387848,304.635559 
	C377.690094,325.669952 367.519836,341.384827 346.317627,347.024109 
z"/>
<path fill="#DDA230" opacity="1.000000" stroke="none" 
	d="
M350.105957,241.434204 
	C357.933502,230.001984 361.738525,217.330887 362.869263,203.947342 
	C363.926971,191.428131 360.205353,180.272171 350.868805,171.401398 
	C349.428192,170.032654 347.842651,168.816467 346.125916,167.253632 
	C365.085876,170.197189 377.216461,187.094528 374.727448,207.167801 
	C372.905334,221.863159 366.672119,234.829605 358.955414,247.219040 
	C357.640015,249.330978 356.562622,249.694305 354.963470,247.531067 
	C353.482178,245.527328 351.811157,243.663879 350.105957,241.434204 
z"/>
<path fill="#F8BD4E" opacity="1.000000" stroke="none" 
	d="
M197.889008,315.129089 
	C197.105469,311.337738 196.394684,307.956360 195.340210,302.939941 
	C212.058731,315.942596 228.421631,326.697571 246.612457,335.888794 
	C241.568985,338.991180 236.491776,340.145874 231.659195,341.858765 
	C229.992920,342.449310 229.384048,341.123413 228.645401,339.969208 
	C222.886398,330.970123 214.708832,326.450745 203.964355,327.009918 
	C201.695816,327.127991 200.604736,326.358368 200.126801,324.227020 
	C199.473907,321.315582 198.689682,318.433624 197.889008,315.129089 
z"/>
<path fill="#F8BD4E" opacity="1.000000" stroke="none" 
	d="
M313.738495,207.342575 
	C299.172821,196.031769 283.831146,186.589417 267.114532,177.843781 
	C269.772430,176.704636 271.511505,175.855881 273.322052,175.206284 
	C276.441956,174.086929 279.604309,172.272934 282.752563,172.265167 
	C286.170929,172.256729 286.652069,176.657333 288.857819,178.786591 
	C294.529388,184.261398 301.067841,187.397202 308.982758,186.987183 
	C311.999420,186.830933 313.441071,187.610870 314.109039,190.696472 
	C315.470032,196.983017 317.478973,203.133682 318.107117,209.634995 
	C316.095947,209.779236 315.266113,208.295303 313.738495,207.342575 
z"/>
<path fill="#F7BB4E" opacity="1.000000" stroke="none" 
	d="
M167.746048,250.115021 
	C172.350784,243.290970 178.046341,238.001511 184.454605,231.334900 
	C183.418076,248.781815 183.215393,264.923096 184.525543,282.496124 
	C178.063644,276.439270 172.972855,270.771027 167.969055,264.592743 
	C166.532639,259.721069 166.325439,255.140869 167.746048,250.115021 
z"/>
<path fill="#F6BB4E" opacity="1.000000" stroke="none" 
	d="
M346.262695,263.829407 
	C341.641327,270.654938 335.990753,276.014343 329.516083,282.684753 
	C330.577057,265.193848 330.763947,249.032013 329.453125,231.433167 
	C335.899933,237.553055 341.068359,243.185928 346.049561,249.435730 
	C347.436707,254.282074 347.700684,258.833954 346.262695,263.829407 
z"/>
<path fill="#F6D76B" opacity="1.000000" stroke="none" 
	d="
M167.563873,249.869995 
	C169.611633,254.251114 169.452820,258.855927 168.025665,263.885651 
	C161.227036,257.325287 161.227036,257.325287 167.563873,249.869995 
z"/>
<path fill="#DA9E32" opacity="1.000000" stroke="none" 
	d="
M346.449005,264.069092 
	C344.426910,259.719025 344.568237,255.142197 346.003845,250.141235 
	C352.847992,256.651886 352.847992,256.651886 346.449005,264.069092 
z"/>
<path fill="#F2ECEC" opacity="1.000000" stroke="none" 
	d="
M456.370270,443.784454 
	C442.655548,444.317017 432.412354,434.059326 432.885315,420.189697 
	C433.407410,404.878387 434.468597,389.584412 435.372375,374.287476 
	C437.219238,343.028778 439.117798,311.773132 440.995422,280.516235 
	C442.543488,254.746094 444.039886,228.972672 445.669922,203.207703 
	C446.209198,194.683929 445.798615,194.083633 437.138672,194.080856 
	C433.639954,194.079742 430.141205,194.087387 426.642517,194.078888 
	C415.502411,194.051804 411.072266,189.559494 411.066772,178.240265 
	C411.056274,156.581543 411.063477,134.922806 411.063446,113.264076 
	C411.063446,101.101868 411.040802,88.939583 411.080200,76.777504 
	C411.089691,73.850182 410.471985,70.039787 414.794220,69.915092 
	C419.250427,69.786530 418.669678,73.631348 418.673706,76.559288 
	C418.706177,100.217239 418.685822,123.875259 418.703003,147.533249 
	C418.705078,150.354980 418.640289,153.174805 419.666077,155.913208 
	C422.472992,163.406342 430.103943,168.041611 437.873230,166.871567 
	C446.129974,165.628113 452.116852,158.919998 452.163177,150.193298 
	C452.290497,126.202759 452.168823,102.210945 452.273163,78.220184 
	C452.287140,75.014557 450.834229,70.067780 456.044922,69.991623 
	C461.452484,69.912590 459.807068,74.938370 459.822144,78.087189 
	C459.936096,101.911247 459.902313,125.736107 459.879761,149.560669 
	C459.872711,156.981842 463.137238,162.463776 469.842407,165.472534 
	C476.561493,168.487564 482.835327,167.291901 488.571899,162.044128 
	C491.407104,161.766159 491.939178,163.602112 492.055511,165.445175 
	C492.502563,172.528900 492.844727,179.630814 490.986511,186.595078 
	C490.197205,189.553253 488.766693,192.098511 485.321533,193.583084 
	C480.541718,193.933029 476.140289,194.080521 471.739746,194.058060 
	C468.728241,194.042694 466.681763,195.078735 466.061218,198.623108 
	C457.384491,206.803909 457.498016,216.725204 458.943665,227.097610 
	C459.860535,233.676331 459.764740,240.363068 460.115906,246.987274 
	C461.170990,266.889648 462.498260,286.777222 463.536194,306.680939 
	C464.703552,329.066193 466.166382,351.441040 467.563416,373.814789 
	C468.401276,387.233093 468.805298,400.685760 470.149384,414.079651 
	C470.730560,419.871277 470.525604,425.659912 468.326355,431.281860 
	C466.086456,437.007782 462.652283,441.379578 456.370270,443.784454 
z"/>
<path fill="#D5CFCF" opacity="1.000000" stroke="none" 
	d="
M456.402893,444.126038 
	C458.306122,440.554901 462.052094,438.332764 464.135681,434.638245 
	C467.803711,428.134460 468.485687,421.137177 467.856567,413.859985 
	C467.184998,406.091492 466.498901,398.320129 466.060669,390.536407 
	C464.623596,365.011475 463.350006,339.477325 461.910248,313.952545 
	C460.667084,291.913086 459.398865,269.873749 457.913269,247.849731 
	C457.142303,236.419815 456.152039,225.008911 455.962433,213.545807 
	C455.847778,206.617096 458.799530,201.761261 465.620819,199.064728 
	C466.952484,213.595261 468.028839,228.197266 468.914581,242.810806 
	C471.542694,286.171814 474.110474,329.536438 476.670013,372.901581 
	C477.572296,388.187866 478.573792,403.471985 479.179199,418.770996 
	C479.747131,433.123260 470.594025,443.293488 456.402893,444.126038 
z"/>
<path fill="#D2C9CC" opacity="1.000000" stroke="none" 
	d="
M485.372955,193.950500 
	C491.347015,184.135376 490.406586,173.375488 489.120911,162.251358 
	C492.438751,157.772049 493.516632,152.930893 493.492096,147.569061 
	C493.391602,125.608223 493.451080,103.646660 493.451752,81.685356 
	C493.451813,80.187996 493.355408,78.682938 493.473358,77.194901 
	C493.709106,74.221535 492.569153,69.968216 497.273590,69.932800 
	C502.103973,69.896439 500.977020,74.173370 500.981537,77.125412 
	C501.033661,111.065521 501.024689,145.005737 501.008698,178.945938 
	C501.003693,189.548767 496.429504,194.056702 485.372955,193.950500 
z"/>
<path fill="#F3EEED" opacity="1.000000" stroke="none" 
	d="
M55.724216,74.930672 
	C72.754929,71.011528 86.360069,77.129135 97.497986,89.314835 
	C121.135399,115.175873 121.733498,161.747726 99.034103,188.464386 
	C93.781662,194.646378 87.661987,199.762329 80.054810,202.714020 
	C76.311890,204.166336 75.110374,206.333176 75.354904,210.297424 
	C78.021301,253.523590 80.528191,296.759583 83.102913,339.991425 
	C84.558624,364.434113 85.919540,388.883667 87.591614,413.311768 
	C88.631844,428.508789 80.182228,438.896912 64.495544,440.336212 
	C53.882145,435.761902 50.435707,427.398956 50.676651,416.947144 
	C51.115364,397.916534 51.808033,378.900330 54.381222,359.596100 
	C57.958126,354.979156 58.800106,350.033417 58.705616,344.773987 
	C58.646076,341.459778 58.463280,338.112732 59.047287,334.836914 
	C59.541416,332.065247 58.055752,330.070312 56.706284,327.536926 
	C55.379501,323.928955 55.605236,320.581421 55.888592,317.273468 
	C57.207584,301.875397 57.856346,286.438690 58.744858,271.014679 
	C59.776814,253.100555 61.078781,235.204086 61.852173,217.272049 
	C62.070927,212.200043 60.646114,208.482910 56.368435,205.898773 
	C42.433960,197.480972 32.865303,185.475784 27.508993,170.202316 
	C17.418755,141.430099 21.698257,104.547455 44.774876,82.369522 
	C47.976006,79.293053 51.817032,77.435097 55.724216,74.930672 
z"/>
<path fill="#FDFBFD" opacity="1.000000" stroke="none" 
	d="
M55.489777,74.585770 
	C55.748882,76.891930 53.797615,77.859276 52.281033,79.062080 
	C34.236862,93.372887 26.062067,112.459641 24.990688,135.045654 
	C24.113810,153.531418 27.786598,170.777664 38.477100,186.223358 
	C43.384132,193.313065 49.336773,199.200394 56.881607,203.459625 
	C62.389053,206.568695 65.004196,210.582184 64.290421,217.674042 
	C62.844765,232.037613 62.831783,246.539520 61.962128,260.968353 
	C60.813305,280.028900 59.392521,299.072937 58.133945,318.127045 
	C57.958549,320.782440 58.041363,323.454895 58.003273,326.582092 
	C53.748367,335.073486 55.975163,344.014038 54.453167,352.430725 
	C54.051571,354.651581 55.760368,356.506683 55.970310,359.049835 
	C55.046524,373.826447 53.991497,388.209808 53.230621,402.608704 
	C52.888962,409.074188 52.787064,415.593414 53.206627,422.047272 
	C53.693401,429.534943 58.911087,434.536224 63.906384,439.916260 
	C50.800114,440.091522 40.581440,430.055481 41.097000,416.652985 
	C41.845829,397.186615 43.223385,377.743927 44.379272,358.293854 
	C46.226719,327.207001 48.127384,296.123230 49.976070,265.036438 
	C51.063545,246.749924 52.073437,228.458786 53.170883,210.172882 
	C53.350170,207.185623 53.258057,204.636185 49.881001,203.227753 
	C30.703455,195.229645 20.432356,179.729401 15.788720,160.447250 
	C9.091679,132.638611 13.798146,107.203392 34.424465,86.097740 
	C40.092545,80.297935 47.056248,76.381615 55.489777,74.585770 
z"/>
<path fill="#6C0B87" opacity="1.000000" stroke="none" 
	d="
M282.658508,249.589523 
	C287.066223,265.845123 276.112732,280.597595 262.135132,283.159698 
	C248.367477,285.683319 234.901093,277.493134 231.241745,264.165436 
	C227.548126,250.712967 234.776840,236.704071 247.872375,231.936172 
	C261.011475,227.152359 275.370026,233.176041 281.264221,245.962311 
	C281.749176,247.014282 282.108795,248.124023 282.658508,249.589523 
z"/>
<path fill="#6E0E8D" opacity="1.000000" stroke="none" 
	d="
M56.359638,359.319214 
	C52.902725,358.620270 51.888050,356.550293 52.110176,353.494781 
	C52.611931,346.592712 52.997391,339.682129 53.408924,332.773712 
	C53.567562,330.110687 54.298225,327.889130 57.655430,327.153198 
	C60.782795,328.309845 61.740070,330.371094 61.466171,333.465973 
	C60.865101,340.257751 60.529331,347.074615 60.180431,353.886139 
	C60.051922,356.395020 59.599510,358.536957 56.359638,359.319214 
z"/>
<path fill="#7BA952" opacity="1.000000" stroke="none" 
	d="
M273.976654,249.317352 
	C278.036133,261.618011 272.589447,272.414642 261.294525,275.089355 
	C250.361450,277.678345 240.119598,270.533630 238.457275,259.158142 
	C237.251770,250.908829 242.540771,242.363708 250.643158,239.470062 
	C259.748260,236.218307 268.367035,239.744461 273.976654,249.317352 
z"/>
</svg>