<svg version="1.1" id="Layer_1" xmlns="http://www.w3.org/2000/svg" xmlns:xlink="http://www.w3.org/1999/xlink" x="0px" y="0px"
	 width="100%" viewBox="0 0 512 512" xml:space="preserve">

<path fill="#DF0909" opacity="1.000000" stroke="none" 
	d="
M1.000008,436.464630 
	C1.209620,436.192352 1.419223,436.384735 1.628818,436.577148 
	C6.310549,429.371094 13.704891,429.477997 21.122875,428.909210 
	C34.485153,427.884583 47.805279,426.310303 61.982407,424.950012 
	C67.017586,424.192139 71.213371,423.449951 75.818947,422.653717 
	C96.505035,418.481079 116.158989,412.335571 135.262085,404.414886 
	C160.143082,394.098450 183.470764,380.986115 204.754791,364.490265 
	C235.667786,340.531647 266.300079,316.210846 297.361633,291.915283 
	C302.489319,288.024445 307.379089,284.350159 312.103760,280.474609 
	C316.151947,277.153931 320.011139,273.602844 323.953918,270.153687 
	C334.483978,263.144745 345.488342,256.987732 358.030487,254.600159 
	C364.658630,253.338409 371.529266,253.350845 378.832642,253.264725 
	C393.548706,260.341949 398.933777,269.596497 395.675110,281.754364 
	C393.464691,290.001312 395.053741,292.797821 403.308777,295.188599 
	C414.882172,298.540405 422.132538,308.481781 421.788147,320.526672 
	C421.517334,329.998871 424.334869,332.980865 433.904327,333.349823 
	C445.784332,333.807892 454.301514,340.036072 458.340729,351.234741 
	C459.634644,354.822083 460.899719,358.419861 462.107208,362.413025 
	C462.015228,363.479279 462.154449,364.199799 461.949585,364.803619 
	C455.739716,383.106812 445.724274,398.790619 429.722992,410.037079 
	C416.073914,419.630249 402.591827,429.592041 388.214142,437.982697 
	C371.963593,447.466370 355.150970,456.185333 337.933777,463.762146 
	C318.025543,472.523224 297.292358,479.484863 275.830048,483.440277 
	C257.156952,486.881592 238.339996,489.819672 219.461548,491.768463 
	C207.548676,492.998169 195.390152,492.386475 183.370316,491.898499 
	C169.880905,491.350891 156.301849,490.822510 142.981766,488.821411 
	C124.414078,486.031952 105.957573,482.298401 87.627876,478.190735 
	C71.871696,474.659729 56.258316,470.380341 40.774025,465.784241 
	C29.387699,462.404449 18.279175,458.067139 7.125190,453.944580 
	C4.901296,453.122589 3.032517,451.339783 0.999996,450.000000 
	C1.000000,445.643097 1.000000,441.286194 1.000008,436.464630 
M358.637512,412.165588 
	C342.913025,419.009979 327.214050,425.913788 311.452972,432.672852 
	C303.964386,435.884308 300.373688,442.593292 302.822205,449.395599 
	C305.403625,456.567139 312.554840,459.767029 320.428802,456.944702 
	C352.443634,445.469513 382.631714,430.463806 410.032776,410.146271 
	C411.496490,409.060944 412.927307,407.861603 414.122650,406.495880 
	C419.984985,399.798004 417.372131,389.482574 409.089172,386.215027 
	C404.018463,384.214691 399.731140,385.889404 395.470764,388.653381 
	C383.456726,396.447601 371.359589,404.113678 358.637512,412.165588 
M443.943359,381.400269 
	C444.946289,380.079651 446.100098,378.846527 446.925293,377.422882 
	C450.039337,372.050323 448.999298,365.569183 444.487946,361.525574 
	C439.874695,357.390717 433.229767,356.707275 428.464478,360.595673 
	C425.034332,363.394623 421.867462,366.752045 419.365845,370.397430 
	C415.672150,375.779907 416.911743,382.496979 421.624664,386.635193 
	C426.553223,390.962646 433.330994,391.100800 438.501282,386.829529 
	C440.285980,385.355194 441.809875,383.565155 443.943359,381.400269 
z"/>

<path fill="#097609" opacity="1.000000" stroke="none" 
	d="
M513.000000,229.533142 
	C512.444946,230.272522 511.615509,230.395905 511.374634,230.839157 
	C503.230225,245.824402 494.832916,260.683472 487.122620,275.890564 
	C477.240540,295.381042 471.584137,316.268066 467.893280,337.756500 
	C466.525513,345.719879 464.411682,353.555145 462.408051,361.730835 
	C460.899719,358.419861 459.634644,354.822083 458.340729,351.234741 
	C454.301514,340.036072 445.784332,333.807892 433.904327,333.349823 
	C424.334869,332.980865 421.517334,329.998871 421.788147,320.526672 
	C422.132538,308.481781 414.882172,298.540405 403.308777,295.188599 
	C395.053741,292.797821 393.464691,290.001312 395.675110,281.754364 
	C398.933777,269.596497 393.548706,260.341949 379.202026,253.453308 
	C392.205750,250.561508 405.021454,253.997177 417.944336,255.528748 
	C429.709839,256.923157 441.284698,256.172485 451.963196,250.854523 
	C462.596222,245.559174 466.465607,235.823914 468.113525,224.500061 
	C470.450623,208.440567 485.961121,198.612381 500.382904,204.242767 
	C504.933289,206.019257 508.356018,210.684143 512.647461,214.013550 
	C513.000000,219.022095 513.000000,224.044189 513.000000,229.533142 
z"/>
<path fill="#F2CF1D" opacity="1.000000" stroke="none" 
	d="
M297.052094,292.044525 
	C266.300079,316.210846 235.667786,340.531647 204.754791,364.490265 
	C183.470764,380.986115 160.143082,394.098450 135.262085,404.414886 
	C116.158989,412.335571 96.505035,418.481079 75.556252,422.365082 
	C71.569809,416.188538 67.686325,410.487549 65.051064,404.258484 
	C57.790329,387.095947 54.031754,369.042450 52.717033,350.461456 
	C51.206722,329.116150 50.723873,307.789917 57.119167,287.073761 
	C59.556568,279.178314 63.281147,271.654907 66.793098,264.136658 
	C67.548004,262.520599 69.917671,261.658813 71.543495,260.449554 
	C72.829315,262.205597 74.196739,263.910095 75.356949,265.745514 
	C75.766205,266.392944 75.751053,267.356750 75.790504,268.182739 
	C76.565544,284.410736 82.835533,298.898804 90.188751,312.991974 
	C91.035301,314.614502 93.591118,316.744202 94.806107,316.441071 
	C96.542839,316.007751 98.407394,313.783295 99.107475,311.909088 
	C101.723412,304.906006 103.884178,297.733032 106.221947,290.625854 
	C107.149933,287.804626 108.094292,284.988739 109.031204,282.170441 
	C111.267097,278.374451 113.502983,274.578430 116.116867,270.227966 
	C126.497543,252.016113 137.472717,234.826645 146.252762,216.580872 
	C156.839752,194.580093 159.943542,171.452576 149.830154,147.935654 
	C149.076614,146.183456 149.458328,142.823456 150.685394,141.663849 
	C151.840225,140.572479 155.249023,140.604248 156.915466,141.515213 
	C170.618515,149.005997 184.673660,156.034576 197.589813,164.735550 
	C212.715378,174.924911 225.421753,188.016235 235.236557,203.578796 
	C248.273346,224.250153 255.118896,246.678650 254.128571,271.321899 
	C254.048065,273.325134 255.518448,275.390686 256.268188,277.427307 
	C258.014099,275.980011 260.650208,274.870392 261.349670,273.026215 
	C264.167419,265.597015 266.290649,257.907440 268.901306,250.394302 
	C269.488434,248.704636 270.729034,246.661407 272.193237,246.061966 
	C273.163696,245.664703 275.600708,247.186493 276.472473,248.467575 
	C285.613037,261.899597 292.933289,276.225433 297.052094,292.044525 
z"/>
<path fill="#F9A528" opacity="1.000000" stroke="none" 
	d="
M297.361633,291.915283 
	C292.933289,276.225433 285.613037,261.899597 276.472473,248.467575 
	C275.600708,247.186493 273.163696,245.664703 272.193237,246.061966 
	C270.729034,246.661407 269.488434,248.704636 268.901306,250.394302 
	C266.290649,257.907440 264.167419,265.597015 261.349670,273.026215 
	C260.650208,274.870392 258.014099,275.980011 256.268188,277.427307 
	C255.518448,275.390686 254.048065,273.325134 254.128571,271.321899 
	C255.118896,246.678650 248.273346,224.250153 235.236557,203.578796 
	C225.421753,188.016235 212.715378,174.924911 197.589813,164.735550 
	C184.673660,156.034576 170.618515,149.005997 156.915466,141.515213 
	C155.249023,140.604248 151.840225,140.572479 150.685394,141.663849 
	C149.458328,142.823456 149.076614,146.183456 149.830154,147.935654 
	C159.943542,171.452576 156.839752,194.580093 146.252762,216.580872 
	C137.472717,234.826645 126.497543,252.016113 116.239746,269.904907 
	C112.659889,258.542419 108.031540,247.134705 106.343430,235.307312 
	C104.276550,220.826248 103.293877,205.897614 104.309608,191.334564 
	C106.055191,166.307297 112.609482,142.144547 122.010750,118.809006 
	C130.743469,97.132942 141.837067,76.689034 156.417831,58.511635 
	C166.469574,45.980434 178.278488,34.853577 189.382675,23.175707 
	C191.833878,20.597870 195.553467,20.501240 197.659195,22.568415 
	C199.850998,24.720108 201.560654,28.310354 201.753571,31.380146 
	C202.440125,42.306011 201.297821,53.441475 202.904114,64.190315 
	C204.808212,76.932014 208.114685,89.591576 212.104477,101.867096 
	C219.911270,125.886543 231.298599,148.352783 245.279648,169.342407 
	C251.145706,178.149063 258.547272,185.968140 265.547516,193.976776 
	C280.244446,210.790802 296.757538,226.078140 309.147675,244.818604 
	C314.415039,252.785614 318.630371,261.448151 323.638855,269.974121 
	C320.011139,273.602844 316.151947,277.153931 312.103760,280.474609 
	C307.379089,284.350159 302.489319,288.024445 297.361633,291.915283 
z"/>
<path fill="#F9A528" opacity="1.000000" stroke="none" 
	d="
M108.708191,282.024414 
	C108.094292,284.988739 107.149933,287.804626 106.221947,290.625854 
	C103.884178,297.733032 101.723412,304.906006 99.107475,311.909088 
	C98.407394,313.783295 96.542839,316.007751 94.806107,316.441071 
	C93.591118,316.744202 91.035301,314.614502 90.188751,312.991974 
	C82.835533,298.898804 76.565544,284.410736 75.790504,268.182739 
	C75.751053,267.356750 75.766205,266.392944 75.356949,265.745514 
	C74.196739,263.910095 72.829315,262.205597 71.543495,260.449554 
	C69.917671,261.658813 67.548004,262.520599 66.793098,264.136658 
	C63.281147,271.654907 59.556568,279.178314 57.119167,287.073761 
	C50.723873,307.789917 51.206722,329.116150 52.717033,350.461456 
	C54.031754,369.042450 57.790329,387.095947 65.051064,404.258484 
	C67.686325,410.487549 71.569809,416.188538 75.146461,422.419128 
	C71.213371,423.449951 67.017586,424.192139 62.411301,424.883484 
	C54.395515,416.716888 46.890049,408.659271 41.661236,398.550568 
	C36.767452,389.089539 33.221218,379.325592 31.014877,368.996887 
	C27.584845,352.939636 28.185989,336.562256 29.325289,320.489746 
	C30.785927,299.884033 36.011292,279.755219 45.124630,261.050903 
	C51.149071,248.686295 58.324917,236.879532 65.076294,224.874191 
	C67.079529,221.311996 70.003662,219.213837 74.436928,219.993027 
	C78.777885,220.756027 80.153725,224.166275 80.927483,227.633499 
	C85.150261,246.555649 93.747643,263.279877 105.814102,278.328674 
	C106.726959,279.467163 107.530716,280.693085 108.708191,282.024414 
z"/>
<path fill="#F14242" opacity="1.000000" stroke="none" 
	d="
M358.966370,411.997925 
	C371.359589,404.113678 383.456726,396.447601 395.470764,388.653381 
	C399.731140,385.889404 404.018463,384.214691 409.089172,386.215027 
	C417.372131,389.482574 419.984985,399.798004 414.122650,406.495880 
	C412.927307,407.861603 411.496490,409.060944 410.032776,410.146271 
	C382.631714,430.463806 352.443634,445.469513 320.428802,456.944702 
	C312.554840,459.767029 305.403625,456.567139 302.822205,449.395599 
	C300.373688,442.593292 303.964386,435.884308 311.452972,432.672852 
	C327.214050,425.913788 342.913025,419.009979 358.966370,411.997925 
z"/>
<path fill="#F14242" opacity="1.000000" stroke="none" 
	d="
M443.698120,381.659790 
	C441.809875,383.565155 440.285980,385.355194 438.501282,386.829529 
	C433.330994,391.100800 426.553223,390.962646 421.624664,386.635193 
	C416.911743,382.496979 415.672150,375.779907 419.365845,370.397430 
	C421.867462,366.752045 425.034332,363.394623 428.464478,360.595673 
	C433.229767,356.707275 439.874695,357.390717 444.487946,361.525574 
	C448.999298,365.569183 450.039337,372.050323 446.925293,377.422882 
	C446.100098,378.846527 444.946289,380.079651 443.698120,381.659790 
z"/>
</svg>