<svg version="1.1" id="Layer_1" xmlns="http://www.w3.org/2000/svg" xmlns:xlink="http://www.w3.org/1999/xlink" x="0px" y="0px"
	 width="100%" viewBox="0 0 512 512" xml:space="preserve">
<path fill="#FA5744" opacity="1.000000" stroke="none" 
	d="
M225.000000,1.000000 
	C246.020889,1.000000 267.041779,1.000000 288.275208,1.377179 
	C289.333649,2.166062 290.138458,2.767480 291.031677,2.961078 
	C304.983429,5.984993 319.092926,8.406949 332.870300,12.077700 
	C350.362427,16.738173 366.789246,24.231495 382.570831,33.150608 
	C398.991791,42.431026 414.604706,52.972832 428.175964,65.986710 
	C439.954590,77.281570 451.102020,89.394035 461.332123,102.107758 
	C477.461365,122.152878 489.373016,144.762817 498.044098,169.020340 
	C504.355927,186.677963 509.377319,204.649414 511.103943,223.418839 
	C511.157349,223.999115 512.342468,224.475281 513.000000,225.000000 
	C513.000000,230.354935 513.000000,235.709854 512.700562,241.384521 
	C499.982117,229.399094 487.593781,217.062576 475.105896,204.827637 
	C473.510376,203.264420 471.396240,202.230515 469.236023,200.579330 
	C463.699432,199.884460 458.449219,199.561661 453.044281,198.973022 
	C436.380035,182.090256 419.882721,165.461090 403.326721,148.890564 
	C402.449829,148.012878 401.076660,147.630997 399.963867,147.010620 
	C399.993164,147.002930 399.981689,147.062424 399.933350,146.760544 
	C399.511139,145.990829 399.137329,145.522995 398.833862,145.033173 
	C398.904266,145.011215 398.947418,145.152206 398.799561,144.933472 
	C398.386841,144.485092 398.121979,144.255447 397.903748,144.004349 
	C397.950378,143.982895 397.993195,144.076172 397.781494,143.849701 
	C397.217377,143.407898 396.864990,143.192581 396.274841,142.777222 
	C390.908661,137.117828 386.080750,131.334564 380.602875,126.251823 
	C345.779327,93.940063 304.672363,77.263077 256.554871,77.105446 
	C249.277756,77.432304 242.381424,77.269180 235.662521,78.282425 
	C164.362289,89.034897 115.120674,127.912170 88.173065,194.798080 
	C86.631813,198.623596 84.805031,199.780136 80.919739,199.692917 
	C70.595985,199.461166 60.256832,199.833633 49.937714,199.515076 
	C45.402554,199.375061 44.333500,201.006775 44.350361,205.255905 
	C44.488487,240.073975 44.409798,274.892853 44.482803,309.711334 
	C44.486389,311.420929 45.288788,313.128784 45.901814,315.139404 
	C47.682552,317.135864 49.238762,318.872345 50.884880,320.518890 
	C112.357765,382.007690 173.846710,443.480469 235.290466,504.998352 
	C237.740982,507.451813 239.772995,510.323273 242.000000,513.000000 
	C236.645065,513.000000 231.290146,513.000000 225.722839,512.623413 
	C224.498230,511.832672 223.520203,511.211792 222.468201,511.037689 
	C215.388855,509.865814 208.184128,509.250610 201.223618,507.597656 
	C176.460602,501.717010 152.769928,493.050873 130.582794,480.319000 
	C114.932320,471.338104 99.915436,461.377899 86.885666,449.038544 
	C74.560684,437.366669 63.028553,424.699951 52.320244,411.518250 
	C38.828419,394.910156 28.294399,376.246979 20.264011,356.398071 
	C11.711039,335.257477 4.958727,313.536133 2.898043,290.621124 
	C2.844764,290.028625 1.658097,289.538086 0.999999,289.000000 
	C1.000000,267.645782 1.000000,246.291550 1.366866,224.744019 
	C2.815573,219.526596 4.033474,214.527328 4.956599,209.474213 
	C9.967711,182.043625 19.349545,156.238770 32.967865,131.885406 
	C47.968418,105.060219 67.301216,81.914536 90.548882,61.890358 
	C109.598976,45.481728 130.548950,32.137299 153.581451,22.108557 
	C175.763214,12.450231 198.736862,5.560922 222.883408,2.916971 
	C223.649719,2.833064 224.297150,1.663467 225.000000,1.000000 
z"/>
<path fill="#F32520" opacity="1.000000" stroke="none" 
	d="
M242.468658,513.000000 
	C239.772995,510.323273 237.740982,507.451813 235.290466,504.998352 
	C173.846710,443.480469 112.357765,382.007690 50.884880,320.518890 
	C49.238762,318.872345 47.682552,317.135864 46.394604,315.062469 
	C58.367004,314.658142 70.031723,314.760315 81.689926,314.531219 
	C85.292854,314.460419 86.879921,315.745148 88.115318,319.108765 
	C98.845055,348.322601 115.961121,373.239380 139.674042,393.391724 
	C173.449722,422.095947 212.540894,436.804291 257.462341,436.895477 
	C271.124878,435.437256 284.671143,435.318909 297.467255,432.160919 
	C359.832794,416.769684 402.564362,378.553955 425.972137,318.782959 
	C427.215179,315.608856 428.721405,314.453461 432.103027,314.519928 
	C442.425568,314.722870 452.763153,314.345551 463.077606,314.698944 
	C468.012329,314.868042 469.620483,313.595184 469.588806,308.379669 
	C469.371490,272.571442 469.503082,236.761078 469.522369,200.951401 
	C471.396240,202.230515 473.510376,203.264420 475.105896,204.827637 
	C487.593781,217.062576 499.982117,229.399094 512.700562,241.852142 
	C513.000000,257.354218 513.000000,272.708466 512.599487,288.348663 
	C511.810883,289.311890 511.220734,289.945679 511.064423,290.672760 
	C508.061249,304.641174 505.695648,318.777527 502.007141,332.560455 
	C496.634064,352.638275 487.678925,371.258453 477.045898,389.129456 
	C461.900635,414.584259 442.592407,436.505341 419.954254,455.313721 
	C401.740662,470.445984 381.665649,482.879608 359.687225,492.169525 
	C337.672272,501.474915 315.104065,508.426605 291.289001,511.089203 
	C290.465088,511.181305 289.760315,512.338989 289.000000,513.000000 
	C273.645782,513.000000 258.291534,513.000000 242.468658,513.000000 
z"/>

<path fill="#565A65" opacity="1.000000" stroke="none" 
	d="
M257.000305,436.834229 
	C212.540894,436.804291 173.449722,422.095947 139.674042,393.391724 
	C115.961121,373.239380 98.845055,348.322601 88.115318,319.108765 
	C86.879921,315.745148 85.292854,314.460419 81.689926,314.531219 
	C70.031723,314.760315 58.367004,314.658142 46.212006,314.760529 
	C45.288788,313.128784 44.486389,311.420929 44.482803,309.711334 
	C44.409798,274.892853 44.488487,240.073975 44.350361,205.255905 
	C44.333500,201.006775 45.402554,199.375061 49.937714,199.515076 
	C60.256832,199.833633 70.595985,199.461166 80.919739,199.692917 
	C84.805031,199.780136 86.631813,198.623596 88.173065,194.798080 
	C115.120674,127.912170 164.362289,89.034897 235.662521,78.282425 
	C242.381424,77.269180 249.277756,77.432304 256.550171,77.563393 
	C257.022980,87.670265 257.037262,97.263008 256.587738,106.915421 
	C250.068604,107.372009 244.013290,107.768921 237.563110,108.180931 
	C235.694672,108.465149 234.223770,108.749832 232.747208,109.001129 
	C199.432098,114.671089 170.854492,129.516052 147.880096,154.271866 
	C116.515083,188.068878 103.139534,228.261780 108.101585,274.113586 
	C111.956635,309.736023 127.206589,340.142944 153.036285,364.951294 
	C182.001694,392.771423 216.926041,406.377441 256.982941,407.551941 
	C256.990753,417.621429 256.995544,427.227814 257.000305,436.834229 
M77.143448,248.814087 
	C78.468445,237.617935 79.793434,226.421799 81.207611,214.472061 
	C75.659149,214.472061 69.888794,214.672852 64.140747,214.401306 
	C60.321934,214.220917 59.292057,215.683960 59.347717,219.320908 
	C59.528721,231.148178 59.412910,242.979965 59.412884,254.810013 
	C59.412853,268.139648 59.338833,281.470276 59.515419,294.797607 
	C59.536442,296.383972 60.852509,299.270782 61.697304,299.319519 
	C68.262489,299.698517 74.859352,299.528839 80.299477,299.528839 
	C79.209274,282.507446 78.160568,266.133911 77.143448,248.814087 
z"/>
<path fill="#353940" opacity="1.000000" stroke="none" 
	d="
M257.051575,106.855743 
	C257.037262,97.263008 257.022980,87.670265 257.013336,77.619583 
	C304.672363,77.263077 345.779327,93.940063 380.602875,126.251823 
	C386.080750,131.334564 390.908661,137.117828 396.453247,143.054550 
	C397.243988,143.713333 397.618591,143.894745 397.993195,144.076172 
	C397.993195,144.076172 397.950378,143.982895 397.934540,144.314529 
	C398.261597,144.814850 398.604523,144.983521 398.947418,145.152206 
	C398.947418,145.152206 398.904266,145.011215 398.807404,145.357422 
	C399.134247,146.156570 399.557983,146.609482 399.981689,147.062408 
	C399.981689,147.062424 399.993164,147.002930 400.041412,147.347534 
	C411.135193,162.558411 420.092957,178.547394 426.435028,195.996109 
	C426.971069,197.470932 428.970490,199.384964 430.338928,199.425064 
	C437.950623,199.648026 445.577393,199.355194 453.199005,199.238861 
	C458.449219,199.561661 463.699432,199.884460 469.236023,200.579330 
	C469.503082,236.761078 469.371490,272.571442 469.588806,308.379669 
	C469.620483,313.595184 468.012329,314.868042 463.077606,314.698944 
	C452.763153,314.345551 442.425568,314.722870 432.103027,314.519928 
	C428.721405,314.453461 427.215179,315.608856 425.972137,318.782959 
	C402.564362,378.553955 359.832794,416.769684 297.467255,432.160919 
	C284.671143,435.318909 271.124878,435.437256 257.462341,436.895477 
	C256.995544,427.227814 256.990753,417.621429 256.990631,407.503021 
	C256.995270,406.991028 257.005157,406.892456 257.460632,406.921936 
	C264.399536,406.483917 270.882935,406.016449 277.726959,405.486389 
	C279.901489,405.176117 281.730560,405.008575 283.527222,404.669342 
	C368.722900,388.582886 421.974213,307.489410 403.009186,222.736588 
	C388.012177,155.716614 324.404022,105.363663 257.038330,107.075104 
	C257.112396,107.024506 257.051605,106.855743 257.051575,106.855743 
M443.488129,299.615356 
	C445.317291,299.615204 447.170013,299.426941 448.970917,299.652466 
	C453.247803,300.188110 454.944977,298.713593 454.662811,294.169556 
	C454.282227,288.040527 454.569031,281.870117 454.568848,275.717468 
	C454.568237,256.926941 454.591125,238.136368 454.530792,219.346054 
	C454.524567,217.402863 455.434357,214.591553 451.911407,214.553223 
	C445.480072,214.483261 439.047424,214.533325 431.964539,214.533325 
	C438.626587,243.113174 438.582458,271.079315 431.928619,299.614929 
	C435.940094,299.614929 439.229950,299.614929 443.488129,299.615356 
z"/>
<path fill="#EE2621" opacity="1.000000" stroke="none" 
	d="
M453.044281,198.973022 
	C445.577393,199.355194 437.950623,199.648026 430.338928,199.425064 
	C428.970490,199.384964 426.971069,197.470932 426.435028,195.996109 
	C420.092957,178.547394 411.135193,162.558411 400.012085,147.355209 
	C401.076660,147.630997 402.449829,148.012878 403.326721,148.890564 
	C419.882721,165.461090 436.380035,182.090256 453.044281,198.973022 
z"/>
<path fill="#EE2621" opacity="1.000000" stroke="none" 
	d="
M399.933350,146.760529 
	C399.557983,146.609482 399.134247,146.156570 398.737000,145.379395 
	C399.137329,145.522995 399.511139,145.990829 399.933350,146.760529 
z"/>
<path fill="#EE2621" opacity="1.000000" stroke="none" 
	d="
M398.799561,144.933472 
	C398.604523,144.983521 398.261597,144.814850 397.887909,144.335983 
	C398.121979,144.255447 398.386841,144.485092 398.799561,144.933472 
z"/>
<path fill="#EE2621" opacity="1.000000" stroke="none" 
	d="
M397.781494,143.849701 
	C397.618591,143.894745 397.243988,143.713333 396.690979,143.254578 
	C396.864990,143.192581 397.217377,143.407898 397.781494,143.849701 
z"/>
<path fill="#C1877A" opacity="1.000000" stroke="none" 
	d="
M256.987579,407.039917 
	C216.926041,406.377441 182.001694,392.771423 153.036285,364.951294 
	C127.206589,340.142944 111.956635,309.736023 108.101585,274.113586 
	C103.139534,228.261780 116.515083,188.068878 147.880096,154.271866 
	C170.854492,129.516052 199.432098,114.671089 232.747208,109.001129 
	C234.223770,108.749832 235.694672,108.465149 237.497696,108.584152 
	C237.787292,115.459785 237.696976,121.947449 237.715759,128.434784 
	C237.835648,169.843384 243.840042,210.359955 256.223877,250.264893 
	C256.794586,252.441574 257.337280,254.262024 257.665222,256.428314 
	C257.299194,258.585999 257.016571,260.397797 257.015778,262.209717 
	C256.994537,310.437286 257.002319,358.664886 257.005157,406.892456 
	C257.005157,406.892456 256.995270,406.991028 256.987579,407.039917 
M172.988693,268.472778 
	C174.132339,266.652435 175.523254,264.940155 176.374847,262.992096 
	C179.330643,256.230652 177.772217,249.264328 172.299255,243.797180 
	C167.525070,239.028076 159.777206,237.484406 153.822296,240.115921 
	C147.105469,243.084106 142.894897,249.556320 143.000259,256.638153 
	C143.108353,263.902435 146.694702,268.869934 153.053757,272.018005 
	C160.227005,275.569092 166.599045,273.847809 172.988693,268.472778 
M190.411713,168.674881 
	C188.438644,168.451782 186.464478,168.030350 184.492691,168.041077 
	C177.298920,168.080276 171.477280,172.062469 169.007401,179.232727 
	C166.756851,185.766342 167.423630,192.002075 172.669281,197.205780 
	C178.047348,202.540833 185.001022,204.273926 191.384476,201.650375 
	C198.378922,198.775726 202.495148,193.373901 202.671890,185.989014 
	C202.863556,177.980453 198.774261,172.079346 190.411713,168.674881 
M230.697571,284.468719 
	C221.092728,283.143982 212.930313,287.783203 210.563263,295.912323 
	C208.053604,304.531219 211.462708,313.280914 218.725876,316.862244 
	C228.269043,321.567749 238.853180,318.223694 242.711380,308.976379 
	C246.081909,300.897919 244.196121,288.364777 230.697571,284.468719 
M175.480484,334.986542 
	C180.602234,334.656708 183.860840,331.949463 184.855042,326.983093 
	C185.710617,322.709229 184.212997,319.100464 180.435059,316.734619 
	C176.879944,314.508362 173.189804,314.450989 169.712326,316.891174 
	C166.325836,319.267487 164.582199,322.636993 165.398544,326.760712 
	C166.375870,331.697632 169.598358,334.475952 175.480484,334.986542 
M208.009872,136.573669 
	C201.905762,138.568634 199.166641,142.085236 199.667557,147.283844 
	C200.127930,152.061829 203.701126,155.682404 208.373642,156.105377 
	C214.098114,156.623581 218.631760,153.065674 219.293243,147.535873 
	C220.037384,141.315048 216.182434,137.258926 208.009872,136.573669 
M245.192551,357.480988 
	C246.702423,352.484894 245.096329,348.565643 240.756470,345.938721 
	C236.971878,343.647858 233.091019,343.908997 229.605850,346.759308 
	C226.316711,349.449341 225.180161,353.042969 226.292465,357.067627 
	C227.406219,361.097443 230.186172,363.609375 234.463638,364.084534 
	C239.319626,364.623932 242.884308,362.729736 245.192551,357.480988 
M223.237656,246.843033 
	C227.208725,243.793320 228.511276,239.445084 226.386292,235.333145 
	C224.994431,232.639908 221.679077,230.140442 218.715210,229.248001 
	C214.303955,227.919769 210.597672,230.443604 208.508911,234.557129 
	C206.474609,238.563400 207.270767,242.459152 210.304565,245.614105 
	C213.850021,249.301102 218.077942,249.789490 223.237656,246.843033 
M143.200241,212.881851 
	C146.163879,219.463074 151.469360,221.938141 157.110245,219.371033 
	C162.108215,217.096497 164.220169,210.765930 161.625595,205.836319 
	C159.482407,201.764374 154.699249,199.725525 150.160370,200.949173 
	C145.459457,202.216537 143.095428,205.930771 143.200241,212.881851 
z"/>
<path fill="#FDF6CE" opacity="1.000000" stroke="none" 
	d="
M256.195862,249.908661 
	C243.840042,210.359955 237.835648,169.843384 237.715759,128.434784 
	C237.696976,121.947449 237.787292,115.459785 237.892578,108.569061 
	C244.013290,107.768921 250.068604,107.372009 256.587769,106.915421 
	C257.051605,106.855743 257.112396,107.024506 257.045410,107.535629 
	C256.986725,153.377213 257.005066,198.707687 256.969025,244.038101 
	C256.967468,245.995163 256.464996,247.951813 256.195862,249.908661 
z"/>
<path fill="#EE2723" opacity="1.000000" stroke="none" 
	d="
M77.127655,249.287231 
	C78.160568,266.133911 79.209274,282.507446 80.299477,299.528839 
	C74.859352,299.528839 68.262489,299.698517 61.697304,299.319519 
	C60.852509,299.270782 59.536442,296.383972 59.515419,294.797607 
	C59.338833,281.470276 59.412853,268.139648 59.412884,254.810013 
	C59.412910,242.979965 59.528721,231.148178 59.347717,219.320908 
	C59.292057,215.683960 60.321934,214.220917 64.140747,214.401306 
	C69.888794,214.672852 75.659149,214.472061 81.207611,214.472061 
	C79.793434,226.421799 78.468445,237.617935 77.127655,249.287231 
z"/>
<path fill="#FDE5B6" opacity="1.000000" stroke="none" 
	d="
M256.223877,250.264893 
	C256.464996,247.951813 256.967468,245.995163 256.969025,244.038101 
	C257.005066,198.707687 256.986725,153.377213 256.971375,107.586227 
	C324.404022,105.363663 388.012177,155.716614 403.009186,222.736588 
	C421.974213,307.489410 368.722900,388.582886 283.527222,404.669342 
	C281.730560,405.008575 279.901489,405.176117 277.728546,405.048279 
	C277.381989,401.679901 277.363373,398.686584 277.411499,395.694275 
	C278.176697,348.138611 272.327545,301.509399 257.879974,256.082489 
	C257.337280,254.262024 256.794586,252.441574 256.223877,250.264893 
M362.329071,230.153427 
	C356.300476,220.983185 345.801239,218.592209 337.335907,224.461792 
	C329.272827,230.052460 327.426208,241.140717 333.219543,249.173691 
	C340.047852,258.641663 356.321960,259.320221 364.000641,246.285492 
	C367.994659,246.265671 371.990326,246.311493 375.982422,246.213669 
	C387.784241,245.924500 386.071503,248.553894 386.339722,235.512650 
	C386.405670,232.305588 385.333466,231.098038 382.040161,231.143295 
	C375.565857,231.232254 369.086426,230.947372 362.329071,230.153427 
M300.979797,193.732880 
	C303.619476,193.869324 306.294647,194.349121 308.892487,194.080673 
	C318.378998,193.100433 325.383514,183.216064 323.408142,173.890350 
	C321.872864,166.642410 316.265503,161.001175 309.554138,159.952652 
	C301.019867,158.619354 295.014862,161.793274 289.335785,170.013672 
	C285.555847,166.362015 281.775940,162.710373 278.370239,159.420242 
	C274.508301,162.938263 271.090759,166.051483 268.390472,168.511307 
	C277.777527,178.148911 286.877716,187.491989 296.110657,196.971344 
	C297.354156,195.890869 298.723236,194.701248 300.979797,193.732880 
M307.205017,322.532654 
	C305.100708,322.686249 302.996399,322.839874 300.403107,323.029205 
	C300.403107,333.043884 300.288635,342.665405 300.432037,352.283112 
	C300.612274,364.371765 298.150696,362.553070 311.492462,362.807251 
	C314.499237,362.864502 315.638489,361.776886 315.612396,358.761963 
	C315.550598,351.610413 315.718445,344.456879 316.529877,337.694855 
	C321.031982,338.291473 325.732666,340.006042 329.994263,339.248901 
	C338.525299,337.733246 344.008270,328.915527 342.854919,320.518341 
	C341.642517,311.691284 334.061218,305.027313 325.333740,305.117218 
	C315.983185,305.213562 309.026855,312.123901 307.205017,322.532654 
M324.364594,260.230469 
	C323.270752,259.278015 322.176941,258.325592 321.706940,257.916351 
	C312.100983,267.338837 302.784668,276.477203 293.833435,285.257446 
	C296.850800,288.599670 299.945496,292.027588 302.502899,294.860321 
	C312.155853,285.426147 321.481232,276.312103 331.676849,266.347565 
	C329.465607,264.523926 327.158569,262.621307 324.364594,260.230469 
M285.614441,227.264908 
	C283.410950,240.535629 284.841217,242.466843 296.240784,241.615646 
	C296.570892,241.591003 297.037262,241.715500 297.210388,241.541656 
	C298.215393,240.532745 299.846130,239.549103 300.003357,238.386307 
	C301.561829,226.862015 300.644928,225.903320 289.222382,226.308716 
	C288.242218,226.343521 287.269257,226.579208 285.614441,227.264908 
M365.334808,296.866608 
	C369.688690,297.532654 371.443695,295.704468 370.917633,291.328400 
	C370.662781,289.208282 371.005432,287.017334 370.764465,284.894012 
	C370.653870,283.919250 369.833801,282.259644 369.259064,282.226257 
	C365.322937,281.997681 361.365356,282.075958 357.418274,282.184998 
	C356.972504,282.197327 356.176727,283.015045 356.173309,283.464020 
	C356.142212,287.565979 355.727936,291.797882 356.685822,295.681000 
	C356.925385,296.652252 361.712067,296.501862 365.334808,296.866608 
M349.865784,194.414337 
	C349.184753,198.946899 351.100311,200.845993 355.650452,200.244125 
	C356.949066,200.072342 358.305603,200.083969 359.607849,200.241257 
	C363.721008,200.738068 365.101776,199.008682 364.965546,194.905838 
	C364.599976,183.896362 366.365387,185.318192 355.130676,185.184738 
	C354.635406,185.178848 354.137604,185.227554 353.644806,185.194183 
	C350.903961,185.008652 349.687653,186.264877 349.861694,189.011520 
	C349.955505,190.491669 349.869629,191.983231 349.865784,194.414337 
z"/>
<path fill="#A35E51" opacity="1.000000" stroke="none" 
	d="
M257.665222,256.428314 
	C272.327545,301.509399 278.176697,348.138611 277.411499,395.694275 
	C277.363373,398.686584 277.381989,401.679901 277.367950,405.110870 
	C270.882935,406.016449 264.399536,406.483917 257.460632,406.921936 
	C257.002319,358.664886 256.994537,310.437286 257.015778,262.209717 
	C257.016571,260.397797 257.299194,258.585999 257.665222,256.428314 
z"/>
<path fill="#ED2621" opacity="1.000000" stroke="none" 
	d="
M443.003967,299.615143 
	C439.229950,299.614929 435.940094,299.614929 431.928619,299.614929 
	C438.582458,271.079315 438.626587,243.113174 431.964539,214.533325 
	C439.047424,214.533325 445.480072,214.483261 451.911407,214.553223 
	C455.434357,214.591553 454.524567,217.402863 454.530792,219.346054 
	C454.591125,238.136368 454.568237,256.926941 454.568848,275.717468 
	C454.569031,281.870117 454.282227,288.040527 454.662811,294.169556 
	C454.944977,298.713593 453.247803,300.188110 448.970917,299.652466 
	C447.170013,299.426941 445.317291,299.615204 443.003967,299.615143 
z"/>
<path fill="#D59B8D" opacity="1.000000" stroke="none" 
	d="
M172.730194,268.731354 
	C166.599045,273.847809 160.227005,275.569092 153.053757,272.018005 
	C146.694702,268.869934 143.108353,263.902435 143.000259,256.638153 
	C142.894897,249.556320 147.105469,243.084106 153.822296,240.115921 
	C159.777206,237.484406 167.525070,239.028076 172.299255,243.797180 
	C177.772217,249.264328 179.330643,256.230652 176.374847,262.992096 
	C175.523254,264.940155 174.132339,266.652435 172.730194,268.731354 
z"/>
<path fill="#D59B8D" opacity="1.000000" stroke="none" 
	d="
M190.793030,168.801956 
	C198.774261,172.079346 202.863556,177.980453 202.671890,185.989014 
	C202.495148,193.373901 198.378922,198.775726 191.384476,201.650375 
	C185.001022,204.273926 178.047348,202.540833 172.669281,197.205780 
	C167.423630,192.002075 166.756851,185.766342 169.007401,179.232727 
	C171.477280,172.062469 177.298920,168.080276 184.492691,168.041077 
	C186.464478,168.030350 188.438644,168.451782 190.793030,168.801956 
z"/>
<path fill="#D59B8D" opacity="1.000000" stroke="none" 
	d="
M231.087662,284.584778 
	C244.196121,288.364777 246.081909,300.897919 242.711380,308.976379 
	C238.853180,318.223694 228.269043,321.567749 218.725876,316.862244 
	C211.462708,313.280914 208.053604,304.531219 210.563263,295.912323 
	C212.930313,287.783203 221.092728,283.143982 231.087662,284.584778 
z"/>
<path fill="#FCD239" opacity="1.000000" stroke="none" 
	d="
M175.076340,334.982941 
	C169.598358,334.475952 166.375870,331.697632 165.398544,326.760712 
	C164.582199,322.636993 166.325836,319.267487 169.712326,316.891174 
	C173.189804,314.450989 176.879944,314.508362 180.435059,316.734619 
	C184.212997,319.100464 185.710617,322.709229 184.855042,326.983093 
	C183.860840,331.949463 180.602234,334.656708 175.076340,334.982941 
z"/>
<path fill="#FCD239" opacity="1.000000" stroke="none" 
	d="
M208.382751,136.511002 
	C216.182434,137.258926 220.037384,141.315048 219.293243,147.535873 
	C218.631760,153.065674 214.098114,156.623581 208.373642,156.105377 
	C203.701126,155.682404 200.127930,152.061829 199.667557,147.283844 
	C199.166641,142.085236 201.905762,138.568634 208.382751,136.511002 
z"/>
<path fill="#FCD238" opacity="1.000000" stroke="none" 
	d="
M245.062683,357.842438 
	C242.884308,362.729736 239.319626,364.623932 234.463638,364.084534 
	C230.186172,363.609375 227.406219,361.097443 226.292465,357.067627 
	C225.180161,353.042969 226.316711,349.449341 229.605850,346.759308 
	C233.091019,343.908997 236.971878,343.647858 240.756470,345.938721 
	C245.096329,348.565643 246.702423,352.484894 245.062683,357.842438 
z"/>
<path fill="#FCD238" opacity="1.000000" stroke="none" 
	d="
M222.909271,247.043655 
	C218.077942,249.789490 213.850021,249.301102 210.304565,245.614105 
	C207.270767,242.459152 206.474609,238.563400 208.508911,234.557129 
	C210.597672,230.443604 214.303955,227.919769 218.715210,229.248001 
	C221.679077,230.140442 224.994431,232.639908 226.386292,235.333145 
	C228.511276,239.445084 227.208725,243.793320 222.909271,247.043655 
z"/>
<path fill="#FCD338" opacity="1.000000" stroke="none" 
	d="
M143.133896,212.487396 
	C143.095428,205.930771 145.459457,202.216537 150.160370,200.949173 
	C154.699249,199.725525 159.482407,201.764374 161.625595,205.836319 
	C164.220169,210.765930 162.108215,217.096497 157.110245,219.371033 
	C151.469360,221.938141 146.163879,219.463074 143.133896,212.487396 
z"/>
<path fill="#C18A7A" opacity="1.000000" stroke="none" 
	d="
M308.028168,322.308411 
	C309.026855,312.123901 315.983185,305.213562 325.333740,305.117218 
	C334.061218,305.027313 341.642517,311.691284 342.854919,320.518341 
	C344.008270,328.915527 338.525299,337.733246 329.994263,339.248901 
	C325.732666,340.006042 321.031982,338.291473 316.155792,337.089722 
	C315.787933,333.535767 315.708282,330.583527 315.823730,327.638947 
	C315.947357,324.485870 314.995453,322.564758 311.403229,322.805817 
	C310.294312,322.880219 309.154083,322.487335 308.028168,322.308411 
z"/>
<path fill="#C2887B" opacity="1.000000" stroke="none" 
	d="
M289.958405,170.309875 
	C295.014862,161.793274 301.019867,158.619354 309.554138,159.952652 
	C316.265503,161.001175 321.872864,166.642410 323.408142,173.890350 
	C325.383514,183.216064 318.378998,193.100433 308.892487,194.080673 
	C306.294647,194.349121 303.619476,193.869324 300.708923,193.381393 
	C301.017090,192.435791 301.523315,191.740143 302.187103,191.264175 
	C306.214569,188.376175 305.754547,185.869049 302.176147,182.703323 
	C297.841431,178.868484 294.008484,174.466461 289.958405,170.309875 
z"/>
<path fill="#C2897A" opacity="1.000000" stroke="none" 
	d="
M363.069733,246.400269 
	C356.321960,259.320221 340.047852,258.641663 333.219543,249.173691 
	C327.426208,241.140717 329.272827,230.052460 337.335907,224.461792 
	C345.801239,218.592209 356.300476,220.983185 361.950348,230.554260 
	C359.756104,231.004303 357.940704,231.089844 356.125031,231.096695 
	C345.433655,231.136993 345.499725,231.168732 346.089996,241.916870 
	C346.269379,245.183533 347.655273,246.209671 350.696075,246.164490 
	C354.818542,246.103195 358.945007,246.309021 363.069733,246.400269 
z"/>
<path fill="#8EAC40" opacity="1.000000" stroke="none" 
	d="
M307.616577,322.420532 
	C309.154083,322.487335 310.294312,322.880219 311.403229,322.805817 
	C314.995453,322.564758 315.947357,324.485870 315.823730,327.638947 
	C315.708282,330.583527 315.787933,333.535767 315.787598,336.894409 
	C315.718445,344.456879 315.550598,351.610413 315.612396,358.761963 
	C315.638489,361.776886 314.499237,362.864502 311.492462,362.807251 
	C298.150696,362.553070 300.612274,364.371765 300.432037,352.283112 
	C300.288635,342.665405 300.403107,333.043884 300.403107,323.029205 
	C302.996399,322.839874 305.100708,322.686249 307.616577,322.420532 
z"/>
<path fill="#8EAD41" opacity="1.000000" stroke="none" 
	d="
M324.608093,260.474579 
	C327.158569,262.621307 329.465607,264.523926 331.676849,266.347565 
	C321.481232,276.312103 312.155853,285.426147 302.502899,294.860321 
	C299.945496,292.027588 296.850800,288.599670 293.833435,285.257446 
	C302.784668,276.477203 312.100983,267.338837 321.706940,257.916351 
	C322.176941,258.325592 323.270752,259.278015 324.608093,260.474579 
z"/>
<path fill="#8DAB40" opacity="1.000000" stroke="none" 
	d="
M289.647095,170.161774 
	C294.008484,174.466461 297.841431,178.868484 302.176147,182.703323 
	C305.754547,185.869049 306.214569,188.376175 302.187103,191.264175 
	C301.523315,191.740143 301.017090,192.435791 300.265198,193.270767 
	C298.723236,194.701248 297.354156,195.890869 296.110657,196.971344 
	C286.877716,187.491989 277.777527,178.148911 268.390472,168.511307 
	C271.090759,166.051483 274.508301,162.938263 278.370239,159.420242 
	C281.775940,162.710373 285.555847,166.362015 289.647095,170.161774 
z"/>
<path fill="#8BAA3E" opacity="1.000000" stroke="none" 
	d="
M363.535187,246.342880 
	C358.945007,246.309021 354.818542,246.103195 350.696075,246.164490 
	C347.655273,246.209671 346.269379,245.183533 346.089996,241.916870 
	C345.499725,231.168732 345.433655,231.136993 356.125031,231.096695 
	C357.940704,231.089844 359.756104,231.004303 362.090363,230.886139 
	C369.086426,230.947372 375.565857,231.232254 382.040161,231.143295 
	C385.333466,231.098038 386.405670,232.305588 386.339722,235.512650 
	C386.071503,248.553894 387.784241,245.924500 375.982422,246.213669 
	C371.990326,246.311493 367.994659,246.265671 363.535187,246.342880 
z"/>
<path fill="#FABC3A" opacity="1.000000" stroke="none" 
	d="
M285.953674,226.993240 
	C287.269257,226.579208 288.242218,226.343521 289.222382,226.308716 
	C300.644928,225.903320 301.561829,226.862015 300.003357,238.386307 
	C299.846130,239.549103 298.215393,240.532745 297.210388,241.541656 
	C297.037262,241.715500 296.570892,241.591003 296.240784,241.615646 
	C284.841217,242.466843 283.410950,240.535629 285.953674,226.993240 
z"/>
<path fill="#FABB39" opacity="1.000000" stroke="none" 
	d="
M364.871857,296.866791 
	C361.712067,296.501862 356.925385,296.652252 356.685822,295.681000 
	C355.727936,291.797882 356.142212,287.565979 356.173309,283.464020 
	C356.176727,283.015045 356.972504,282.197327 357.418274,282.184998 
	C361.365356,282.075958 365.322937,281.997681 369.259064,282.226257 
	C369.833801,282.259644 370.653870,283.919250 370.764465,284.894012 
	C371.005432,287.017334 370.662781,289.208282 370.917633,291.328400 
	C371.443695,295.704468 369.688690,297.532654 364.871857,296.866791 
z"/>
<path fill="#FABC3A" opacity="1.000000" stroke="none" 
	d="
M349.865295,193.941986 
	C349.869629,191.983231 349.955505,190.491669 349.861694,189.011520 
	C349.687653,186.264877 350.903961,185.008652 353.644806,185.194183 
	C354.137604,185.227554 354.635406,185.178848 355.130676,185.184738 
	C366.365387,185.318192 364.599976,183.896362 364.965546,194.905838 
	C365.101776,199.008682 363.721008,200.738068 359.607849,200.241257 
	C358.305603,200.083969 356.949066,200.072342 355.650452,200.244125 
	C351.100311,200.845993 349.184753,198.946899 349.865295,193.941986 
z"/>
</svg>