<svg version="1.1" id="Layer_1" xmlns="http://www.w3.org/2000/svg" xmlns:xlink="http://www.w3.org/1999/xlink" x="0px" y="0px"
	 width="100%" viewBox="0 0 512 512" xml:space="preserve">

<path fill="#F34335" opacity="1.000000" stroke="none" 
	d="
M353.975220,457.105225 
	C340.137238,461.211945 326.518341,466.417572 312.421936,469.228210 
	C261.300873,479.421051 210.676651,476.161530 160.940216,460.815857 
	C144.080353,455.613922 129.013168,446.987366 116.435486,434.122742 
	C87.085190,404.103027 99.413559,339.347595 145.885864,328.531555 
	C161.518448,324.893188 176.875488,327.259277 191.716583,331.693390 
	C207.611725,336.442474 222.999176,342.887451 238.617966,348.565399 
	C283.735107,364.966980 330.008057,375.002258 378.302399,373.877289 
	C408.608459,373.171295 438.261932,368.411774 467.520386,359.815521 
	C467.341248,360.960052 467.015411,361.936157 466.440521,362.732391 
	C443.444489,394.582214 415.464478,421.120270 381.842163,441.530609 
	C372.751617,447.049042 363.274780,451.931091 353.975220,457.105225 
M157.223343,422.415863 
	C153.085251,419.647614 148.635803,417.244904 144.871033,414.038330 
	C135.829605,406.337463 132.305969,396.701813 136.088272,384.993805 
	C138.132187,378.666870 136.318970,373.875031 131.267639,372.275574 
	C126.409111,370.737183 122.021233,373.350128 120.000168,379.372559 
	C114.739082,395.049713 117.529289,409.277924 128.418869,421.694244 
	C137.431915,431.970886 149.216934,438.163971 161.770844,442.908112 
	C188.227066,452.905884 215.936005,456.088013 243.930344,457.499298 
	C249.160034,457.762970 252.820374,454.473602 253.144257,449.722839 
	C253.479706,444.802216 250.625488,441.251648 245.256378,440.668488 
	C238.313507,439.914368 231.311737,439.712585 224.362137,439.008484 
	C201.452957,436.687469 178.878967,432.924438 157.223343,422.415863 
z"/>
<path fill="#FE9701" opacity="1.000000" stroke="none" 
	d="
M331.110443,278.936554 
	C347.820892,292.711548 365.336578,290.706848 377.623535,272.800140 
	C382.248688,266.059509 385.040680,258.061066 389.091125,250.565063 
	C391.874756,255.057709 394.523987,259.497406 396.546936,264.206146 
	C405.795807,285.734222 409.112518,308.189331 406.126343,331.446686 
	C405.114777,339.325195 403.371368,347.109772 401.962402,354.937256 
	C387.846130,355.484161 373.708374,356.819061 359.617554,356.434357 
	C312.068573,355.136047 267.205505,341.962219 223.373154,324.490082 
	C202.909668,316.333099 182.118729,309.336273 159.634613,309.810242 
	C156.324234,309.880066 153.011124,309.819946 149.006424,309.819946 
	C143.160400,275.699219 144.924469,242.603821 164.108246,211.809570 
	C165.809875,220.719711 166.775665,229.280273 169.146164,237.432343 
	C173.564774,252.627640 182.351227,264.124451 198.573883,268.442993 
	C223.204224,274.999725 242.724075,262.103729 246.143982,236.879654 
	C248.869308,216.778427 244.596725,197.420486 239.469131,178.258682 
	C235.692093,164.143921 230.652954,150.365570 226.917572,136.241257 
	C220.971451,113.757629 223.892487,92.043045 234.652985,71.315475 
	C234.990479,75.300011 235.013214,79.242332 234.667664,83.152092 
	C233.421936,97.246689 233.044434,111.356522 236.395279,125.183472 
	C240.013245,140.112625 246.569687,151.565186 265.043976,149.977417 
	C275.846893,158.628052 287.668518,161.604156 300.910522,156.295609 
	C307.290741,153.737854 312.351868,149.575195 316.278687,143.408279 
	C317.736542,145.370193 319.019287,147.365967 319.557770,149.545624 
	C321.972137,159.318802 322.161102,169.211502 320.455994,179.121063 
	C316.151245,204.138290 311.219025,229.066528 307.715485,254.194565 
	C305.997345,266.517578 310.069397,275.318878 322.198547,278.439423 
	C325.024750,279.166534 328.132324,278.799927 331.110443,278.936554 
z"/>
<path fill="#F37B00" opacity="1.000000" stroke="none" 
	d="
M330.982971,278.613007 
	C328.132324,278.799927 325.024750,279.166534 322.198547,278.439423 
	C310.069397,275.318878 305.997345,266.517578 307.715485,254.194565 
	C311.219025,229.066528 316.151245,204.138290 320.455994,179.121063 
	C322.161102,169.211502 321.972137,159.318802 319.557770,149.545624 
	C319.019287,147.365967 317.736542,145.370193 316.489777,143.136414 
	C318.167175,136.905579 320.151276,130.828140 322.645264,123.188797 
	C323.328033,124.493103 323.826935,125.909317 324.697449,127.039207 
	C336.404083,142.233643 340.739227,159.349792 337.492096,178.174698 
	C333.738281,199.937088 329.361542,221.592667 325.677887,243.366119 
	C324.635620,249.526779 324.206696,256.061462 325.086029,262.196808 
	C325.878082,267.723145 328.846802,272.937500 330.982971,278.613007 
z"/>
<path fill="#5FA717" opacity="1.000000" stroke="none" 
	d="
M27.965977,304.585693 
	C33.076935,303.236572 37.387974,304.241455 40.824749,307.598602 
	C56.426533,322.838928 73.998566,335.234863 93.633629,344.720093 
	C94.198219,344.992798 94.669189,345.459290 95.169273,345.824799 
	C91.854584,354.107391 88.607307,362.221497 84.884628,371.523560 
	C73.934021,365.068909 62.542034,359.249908 52.164280,351.982605 
	C41.995159,344.861450 32.572044,336.582092 23.350851,328.226898 
	C14.493908,320.201721 16.651884,309.708282 27.965977,304.585693 
z"/>
<path fill="#F37B00" opacity="1.000000" stroke="none" 
	d="
M402.406189,355.006775 
	C403.371368,347.109772 405.114777,339.325195 406.126343,331.446686 
	C409.112518,308.189331 405.795807,285.734222 396.546936,264.206146 
	C394.523987,259.497406 391.874756,255.057709 389.280762,250.252640 
	C389.887085,244.323257 390.726562,238.635345 391.787201,231.449097 
	C396.541687,237.892838 401.108124,243.275406 404.790222,249.206924 
	C424.221954,280.509705 429.030334,313.988586 419.262512,349.577576 
	C418.461609,352.495575 417.145935,353.753937 414.241425,353.941254 
	C410.435699,354.186615 406.646393,354.686157 402.406189,355.006775 
z"/>
<path fill="#F37B00" opacity="1.000000" stroke="none" 
	d="
M264.901123,149.670563 
	C246.569687,151.565186 240.013245,140.112625 236.395279,125.183472 
	C233.044434,111.356522 233.421936,97.246689 234.667664,83.152092 
	C235.013214,79.242332 234.990479,75.300011 234.898102,71.072250 
	C239.691864,59.874809 247.280914,51.007706 256.926422,42.315266 
	C255.342804,53.153595 253.665665,62.864258 252.550980,72.639061 
	C250.410995,91.404594 249.557877,110.191368 254.130371,128.772949 
	C256.019440,136.449600 259.014160,143.637253 264.901123,149.670563 
z"/>
<path fill="#C51E1E" opacity="1.000000" stroke="none" 
	d="
M354.370605,457.153717 
	C363.274780,451.931091 372.751617,447.049042 381.842163,441.530609 
	C415.464478,421.120270 443.444489,394.582214 466.440521,362.732391 
	C467.015411,361.936157 467.341248,360.960052 467.921143,359.711426 
	C474.461090,357.197327 480.863129,355.039642 487.265137,352.881927 
	C487.575928,353.232147 487.886719,353.582336 488.197479,353.932556 
	C481.528748,362.309692 475.165405,370.952911 468.138458,379.017975 
	C437.724609,413.924896 400.803741,439.628815 357.615784,456.319458 
	C356.690369,456.677094 355.716980,456.910706 354.370605,457.153717 
z"/>
<path fill="#F5F2F2" opacity="1.000000" stroke="none" 
	d="
M157.544922,422.605469 
	C178.878967,432.924438 201.452957,436.687469 224.362137,439.008484 
	C231.311737,439.712585 238.313507,439.914368 245.256378,440.668488 
	C250.625488,441.251648 253.479706,444.802216 253.144257,449.722839 
	C252.820374,454.473602 249.160034,457.762970 243.930344,457.499298 
	C215.936005,456.088013 188.227066,452.905884 161.770844,442.908112 
	C149.216934,438.163971 137.431915,431.970886 128.418869,421.694244 
	C117.529289,409.277924 114.739082,395.049713 120.000168,379.372559 
	C122.021233,373.350128 126.409111,370.737183 131.267639,372.275574 
	C136.318970,373.875031 138.132187,378.666870 136.088272,384.993805 
	C132.305969,396.701813 135.829605,406.337463 144.871033,414.038330 
	C148.635803,417.244904 153.085251,419.647614 157.544922,422.605469 
z"/>
</svg>