<svg version="1.1" id="Layer_1" xmlns="http://www.w3.org/2000/svg" xmlns:xlink="http://www.w3.org/1999/xlink" x="0px" y="0px"
	 width="100%" viewBox="0 0 512 512" xml:space="preserve">

<path fill="#80B9F9" opacity="1.000000" stroke="none" 
	d="
M135.468658,513.000000 
	C122.590210,508.199402 120.144318,497.204407 117.981102,485.913239 
	C115.797829,474.517273 113.343452,463.173279 111.467758,451.341553 
	C130.379318,450.629517 148.830383,450.245850 167.282730,450.167084 
	C195.574814,450.046295 223.867783,450.146576 252.160385,450.132812 
	C296.429260,450.111267 340.698151,450.072845 384.982727,450.253113 
	C384.998413,450.464630 385.063995,450.883698 384.781128,451.147400 
	C381.691498,464.490234 378.449860,477.495422 376.211090,490.671021 
	C374.308441,501.868469 369.074738,509.632904 358.000000,513.000000 
	C283.979095,513.000000 209.958206,513.000000 135.468658,513.000000 
z"/>
<path fill="#F0B4A3" opacity="1.000000" stroke="none" 
	d="
M70.935036,72.066277 
	C63.804878,60.017899 56.577885,48.025387 49.582611,35.899200 
	C45.683231,29.139690 47.703331,20.953203 54.512672,16.857262 
	C63.396023,11.513760 72.573822,6.659762 81.812469,1.297572 
	C84.700012,1.000000 87.400032,1.000000 90.550018,1.000000 
	C96.997780,4.501279 99.995193,10.359395 102.703903,16.755844 
	C99.656151,21.985006 96.817635,26.663126 94.100288,31.410599 
	C86.352127,44.947372 78.653282,58.512379 70.935036,72.066277 
z"/>
<path fill="#3386DC" opacity="1.000000" stroke="none" 
	d="
M358.468658,513.000000 
	C369.074738,509.632904 374.308441,501.868469 376.211090,490.671021 
	C378.449860,477.495422 381.691498,464.490234 385.244568,451.151123 
	C394.289307,450.957458 402.587708,451.023804 410.886139,451.090149 
	C408.566498,461.805664 406.237091,472.519135 403.931549,483.237732 
	C402.862915,488.205963 402.242981,493.313110 400.700623,498.126923 
	C398.538818,504.874084 394.026215,509.795288 387.105591,512.662598 
	C377.645782,513.000000 368.291534,513.000000 358.468658,513.000000 
z"/>
<path fill="#B78358" opacity="1.000000" stroke="none" 
	d="
M80.098755,290.966248 
	C76.901207,279.058899 74.654488,267.005188 75.016426,254.614471 
	C75.671654,232.183456 82.856033,211.976532 96.426163,194.160873 
	C103.845848,184.419876 112.586678,175.971771 123.370186,169.882309 
	C125.700737,168.566254 125.980431,167.082047 124.455803,164.757339 
	C122.134789,161.218277 120.179115,157.439636 118.147995,153.093781 
	C127.875359,135.789825 137.492813,119.137138 147.225906,102.552292 
	C148.036484,101.171097 149.627319,100.247810 150.855637,99.111778 
	C153.199600,103.152954 155.543564,107.194130 157.992111,111.947922 
	C157.942352,113.299004 157.927689,114.017876 157.613220,114.564178 
	C149.672852,128.358017 141.685410,142.124756 133.745697,155.918976 
	C131.773163,159.346024 129.937241,162.851730 128.075989,166.252823 
	C138.767395,162.662079 148.924988,159.250595 159.495361,155.879822 
	C164.637924,155.364594 169.367691,154.808640 174.177277,154.600128 
	C180.146240,156.946259 186.253311,158.465729 191.886337,161.027557 
	C214.853836,171.472839 229.910568,189.371048 239.319901,212.428558 
	C241.043915,216.653244 243.019958,220.775070 244.872894,225.325012 
	C243.222107,235.450455 241.050507,245.142380 240.067200,254.953384 
	C238.829803,267.299561 241.315994,279.348969 244.640045,291.154541 
	C213.579132,291.176086 182.992447,291.164520 152.405807,291.122742 
	C128.303436,291.089844 104.201103,291.019775 80.098755,290.966248 
z"/>
<path fill="#FDEAAF" opacity="1.000000" stroke="none" 
	d="
M174.097473,154.252686 
	C169.367691,154.808640 164.637924,155.364594 159.476379,155.449417 
	C159.027435,140.666351 159.010239,126.354431 158.993042,112.042503 
	C161.760925,104.817856 164.270981,97.481247 167.349487,90.391479 
	C174.117691,74.804321 185.087433,62.416420 198.414078,52.231438 
	C215.034760,39.528961 233.899109,32.518951 255.806854,32.137032 
	C262.588196,33.631298 268.753326,34.375713 274.458771,36.409607 
	C315.151489,50.915871 337.612854,90.770386 338.910828,129.650528 
	C339.180878,137.740494 338.305664,145.868683 337.588501,154.149185 
	C336.585663,154.507019 335.960510,154.824799 335.318298,154.864136 
	C307.930756,156.541809 285.346100,168.179581 266.630371,187.893814 
	C264.617157,190.014420 262.466187,192.004196 260.146118,193.779053 
	C259.039032,192.500763 258.159943,191.502365 257.291565,190.494766 
	C235.375290,165.064835 207.289734,153.797806 174.097473,154.252686 
M212.608292,77.099564 
	C209.062943,81.850441 209.270813,87.232452 211.210953,92.225838 
	C212.019257,94.306175 215.222565,96.531006 217.466766,96.675743 
	C219.706924,96.820213 223.138840,94.998230 224.191452,93.040161 
	C225.644974,90.336296 225.862015,86.673859 225.715149,83.462837 
	C225.377472,76.080017 220.018005,73.291008 212.608292,77.099564 
M264.986542,95.667183 
	C269.820984,91.597603 269.155579,86.300034 268.066742,81.039421 
	C267.211975,76.909515 264.404694,74.739540 260.185791,75.086578 
	C255.977982,75.432701 253.666855,78.126518 253.159775,82.208229 
	C252.896042,84.331207 252.982132,86.515511 253.088577,88.663269 
	C253.415253,95.255119 257.733734,98.083374 264.986542,95.667183 
M274.836609,123.502731 
	C274.761139,127.710258 274.340637,132.552383 279.532806,133.733917 
	C282.076721,134.312820 285.858612,133.276962 287.860779,131.554474 
	C291.240448,128.646957 291.199341,118.144714 287.800507,115.323776 
	C285.765198,113.634537 282.012390,112.723053 279.421295,113.278885 
	C274.816437,114.266708 274.661743,118.610641 274.836609,123.502731 
M240.138214,134.404144 
	C247.222702,132.090027 249.928955,119.431938 244.410385,114.421692 
	C241.506607,111.785385 236.803589,111.857948 234.111984,114.580574 
	C228.783157,119.970779 232.131042,132.576096 240.138214,134.404144 
M310.163666,93.209198 
	C310.469757,89.613792 311.039307,86.016525 311.013794,82.423470 
	C310.983368,78.140900 307.777863,75.066711 303.895966,75.017151 
	C299.859283,74.965599 296.632782,77.730728 296.125488,81.952873 
	C295.869324,84.085144 296.030579,86.268433 296.016541,88.428726 
	C295.992767,92.079025 297.369568,94.929085 300.863617,96.394180 
	C304.428925,97.889160 307.336029,96.773727 310.163666,93.209198 
z"/>
<path fill="#EA6C9D" opacity="1.000000" stroke="none" 
	d="
M362.993713,155.893539 
	C377.945892,158.250900 391.282440,164.519196 403.526489,173.134888 
	C416.128906,182.002777 426.067932,193.371902 433.453186,206.906250 
	C440.789459,220.350983 445.128693,234.573502 446.160645,250.024124 
	C447.085846,263.875916 445.605621,277.190277 440.662689,290.671661 
	C436.023834,291.219513 431.982208,291.375122 427.493896,291.418640 
	C423.363922,291.208618 419.680603,291.110718 416.042603,290.624756 
	C417.724335,281.143555 420.358734,272.097870 420.794220,262.947571 
	C421.770660,242.430099 417.626434,222.806549 407.810455,204.508514 
	C396.509247,183.441895 380.681763,167.522675 357.785614,159.351303 
	C353.772491,157.919052 349.814301,156.332901 346.306152,154.801056 
	C352.185638,155.154022 357.589661,155.523788 362.993713,155.893539 
z"/>
<path fill="#F8CD7D" opacity="1.000000" stroke="none" 
	d="
M362.975769,155.462585 
	C357.589661,155.523788 352.185638,155.154022 345.938477,154.734619 
	C342.716309,154.449753 340.337250,154.214508 337.958221,153.979263 
	C338.305664,145.868683 339.180878,137.740494 338.910828,129.650528 
	C337.612854,90.770386 315.151489,50.915871 274.458771,36.409607 
	C268.753326,34.375713 262.588196,33.631298 256.255890,32.131584 
	C257.264526,31.663166 258.662994,31.044598 260.040344,31.088449 
	C291.471466,32.089157 318.527313,43.186138 339.347015,67.132477 
	C352.250397,81.973633 360.368011,99.290413 363.139587,119.102135 
	C364.828827,131.177139 364.280457,143.063126 362.975769,155.462585 
z"/>
<path fill="#CBD5DE" opacity="1.000000" stroke="none" 
	d="
M410.946289,450.671631 
	C402.587708,451.023804 394.289307,450.957458 385.527435,450.887390 
	C385.063995,450.883698 384.998413,450.464630 384.993835,449.826691 
	C386.831238,439.786560 388.712006,430.391724 390.505371,420.980255 
	C392.731293,409.298920 394.884796,397.603821 397.270813,385.813782 
	C397.751617,385.556671 397.934143,385.324219 398.484467,385.071228 
	C407.268646,385.053650 415.587982,384.980316 423.907349,384.906952 
	C422.105164,394.269043 420.341888,403.638794 418.491180,412.991302 
	C416.031952,425.418945 413.504578,437.833130 410.946289,450.671631 
z"/>
<path fill="#EFB4A2" opacity="1.000000" stroke="none" 
	d="
M150.823029,98.763199 
	C149.627319,100.247810 148.036484,101.171097 147.225906,102.552292 
	C137.492813,119.137138 127.875359,135.789825 118.072876,152.739868 
	C112.953552,144.632050 107.989037,136.209152 103.271759,127.242813 
	C114.030121,108.448959 124.541229,90.198540 135.052338,71.948112 
	C140.298355,80.770279 145.544388,89.592445 150.823029,98.763199 
z"/>
<path fill="#F0B4A2" opacity="1.000000" stroke="none" 
	d="
M94.043991,112.010605 
	C89.376190,103.878555 84.708405,95.746513 80.134132,86.926552 
	C87.604660,73.310692 94.905716,60.338512 102.397079,47.477180 
	C105.283783,42.521236 108.603142,37.817299 111.725372,32.998535 
	C114.844025,37.748116 118.055786,42.440018 121.046638,47.268749 
	C122.861046,50.198109 124.333794,53.339088 125.866760,57.071537 
	C121.347900,65.500618 116.989670,73.282646 112.480232,80.976044 
	C106.395729,91.356598 100.194901,101.668976 94.043991,112.010605 
z"/>
<path fill="#3286DC" opacity="1.000000" stroke="none" 
	d="
M424.069000,384.550049 
	C415.587982,384.980316 407.268646,385.053650 398.527405,384.675659 
	C399.063843,379.718658 400.010254,375.210358 400.982666,370.707672 
	C404.038116,356.559723 407.103333,342.413879 410.619843,328.223206 
	C416.718445,328.108124 422.362000,328.037018 428.415192,328.044617 
	C431.186279,328.413483 433.547668,328.703674 435.909088,328.993835 
	C432.016296,347.393616 428.123474,365.793365 424.069000,384.550049 
z"/>
<path fill="#B9845A" opacity="1.000000" stroke="none" 
	d="
M111.736984,32.640739 
	C108.603142,37.817299 105.283783,42.521236 102.397079,47.477180 
	C94.905716,60.338512 87.604660,73.310692 80.109634,86.557472 
	C77.025307,82.170494 74.059006,77.464684 71.013870,72.412575 
	C78.653282,58.512379 86.352127,44.947372 94.100288,31.410599 
	C96.817635,26.663126 99.656151,21.985006 102.744698,17.111492 
	C105.949570,22.059488 108.849091,27.171211 111.736984,32.640739 
z"/>
<path fill="#B9845A" opacity="1.000000" stroke="none" 
	d="
M94.175644,112.333649 
	C100.194901,101.668976 106.395729,91.356598 112.480232,80.976044 
	C116.989670,73.282646 121.347900,65.500618 125.890961,57.438778 
	C128.907364,61.859852 131.806274,66.600227 134.878769,71.644356 
	C124.541229,90.198540 114.030121,108.448959 103.229492,126.886467 
	C100.062416,122.267929 97.184860,117.462303 94.175644,112.333649 
z"/>
<path fill="#CFD6DE" opacity="1.000000" stroke="none" 
	d="
M436.382843,328.989075 
	C433.547668,328.703674 431.186279,328.413483 428.610870,327.776123 
	C440.988098,320.449524 444.064331,308.686340 435.779388,297.833557 
	C433.804016,295.245911 430.586670,293.606354 427.940552,291.530731 
	C431.982208,291.375122 436.023834,291.219513 440.528839,291.023987 
	C447.031128,291.169281 453.204651,290.113098 458.609833,294.295166 
	C464.814056,299.095490 467.995422,308.202637 465.616058,315.633057 
	C463.095276,323.505127 455.961243,328.863617 447.796173,328.968842 
	C444.150208,329.015839 440.503143,328.981628 436.382843,328.989075 
z"/>
<path fill="#EFB4A2" opacity="1.000000" stroke="none" 
	d="
M158.776428,111.993469 
	C159.010239,126.354431 159.027435,140.666351 159.063614,155.408691 
	C148.924988,159.250595 138.767395,162.662079 128.075989,166.252823 
	C129.937241,162.851730 131.773163,159.346024 133.745697,155.918976 
	C141.685410,142.124756 149.672852,128.358017 157.613220,114.564178 
	C157.927689,114.017876 157.942352,113.299004 158.107315,112.279846 
	C158.117935,111.899155 158.559799,111.944427 158.776428,111.993469 
z"/>
<path fill="#E6EFF5" opacity="1.000000" stroke="none" 
	d="
M397.069580,385.914642 
	C394.884796,397.603821 392.731293,409.298920 390.505371,420.980255 
	C388.712006,430.391724 386.831238,439.786560 384.978149,449.615173 
	C340.698151,450.072845 296.429260,450.111267 252.160385,450.132812 
	C223.867783,450.146576 195.574814,450.046295 167.282730,450.167084 
	C148.830383,450.245850 130.379318,450.629517 111.461716,450.932129 
	C109.299957,441.803070 107.787384,432.579834 105.861008,423.443817 
	C103.563454,412.547485 100.896942,401.729126 98.432037,390.867523 
	C98.143570,389.596375 98.119827,388.265167 98.436661,386.467346 
	C101.561470,385.948669 104.222969,385.904022 106.884476,385.903168 
	C189.575989,385.876740 272.267487,385.854614 355.044342,386.207153 
	C357.903809,395.573975 363.562775,400.386993 370.790497,399.902100 
	C378.540680,399.382172 383.333344,394.689819 385.611359,385.853058 
	C389.728027,385.890259 393.398773,385.902435 397.069580,385.914642 
z"/>
<path fill="#81BAF9" opacity="1.000000" stroke="none" 
	d="
M354.959015,385.831848 
	C272.267487,385.854614 189.575989,385.876740 106.884476,385.903168 
	C104.222969,385.904022 101.561470,385.948669 98.432968,386.049072 
	C95.646233,375.672180 93.265533,365.232056 91.026176,354.761749 
	C89.253601,346.473969 87.654488,338.149048 86.272514,329.152100 
	C87.548218,328.338684 88.529755,328.104462 89.511284,328.104523 
	C157.994873,328.107635 226.478470,328.129486 295.012573,328.602234 
	C295.348785,338.345764 294.988037,347.716217 296.116821,356.903717 
	C297.086670,364.797882 304.048187,368.895264 312.404633,368.051331 
	C319.181000,367.366943 324.753632,361.306915 325.036713,354.165100 
	C325.175079,350.675140 324.940277,347.167725 325.140625,343.683502 
	C325.678650,334.327667 331.824829,328.686432 341.068909,328.889374 
	C349.391449,329.072083 355.021637,335.221039 355.045990,344.395813 
	C355.082672,358.207642 354.994263,372.019806 354.959015,385.831848 
z"/>
<path fill="#E6EEF4" opacity="1.000000" stroke="none" 
	d="
M294.962067,328.149750 
	C226.478470,328.129486 157.994873,328.107635 89.511284,328.104523 
	C88.529755,328.104462 87.548218,328.338684 86.247498,328.738770 
	C81.772614,329.008606 77.613907,329.102936 73.461792,328.977966 
	C63.504402,328.678375 54.780739,319.542053 55.009747,309.764252 
	C55.250328,299.491974 63.621262,291.078949 73.683113,291.001953 
	C75.511543,290.987976 77.340111,290.992371 79.633682,290.977264 
	C104.201103,291.019775 128.303436,291.089844 152.405807,291.122742 
	C182.992447,291.164520 213.579132,291.176086 245.097076,291.192017 
	C262.239960,291.183319 278.451538,291.183319 294.962067,291.183319 
	C294.962067,303.955475 294.962067,316.052612 294.962067,328.149750 
z"/>
<path fill="#EE81A7" opacity="1.000000" stroke="none" 
	d="
M295.012573,328.602234 
	C294.962067,316.052612 294.962067,303.955475 294.962067,291.183319 
	C278.451538,291.183319 262.239960,291.183319 245.571350,291.145844 
	C241.315994,279.348969 238.829803,267.299561 240.067200,254.953384 
	C241.050507,245.142380 243.222107,235.450455 244.959625,224.969147 
	C248.193970,217.551865 251.233688,210.820877 254.516800,204.210754 
	C256.252197,200.716766 258.411316,197.433212 260.379120,194.054657 
	C262.466187,192.004196 264.617157,190.014420 266.630371,187.893814 
	C285.346100,168.179581 307.930756,156.541809 335.318298,154.864136 
	C335.960510,154.824799 336.585663,154.507019 337.588501,154.149185 
	C340.337250,154.214508 342.716309,154.449753 345.463013,154.751404 
	C349.814301,156.332901 353.772491,157.919052 357.785614,159.351303 
	C380.681763,167.522675 396.509247,183.441895 407.810455,204.508514 
	C417.626434,222.806549 421.770660,242.430099 420.794220,262.947571 
	C420.358734,272.097870 417.724335,281.143555 415.574951,290.655334 
	C405.181183,291.073944 395.300323,291.073944 385.245544,291.073944 
	C385.245544,303.982056 385.245544,316.065643 385.176025,328.599609 
	C385.126160,347.975983 385.145813,366.902008 385.165466,385.828064 
	C383.333344,394.689819 378.540680,399.382172 370.790497,399.902100 
	C363.562775,400.386993 357.903809,395.573975 355.044342,386.207153 
	C354.994263,372.019806 355.082672,358.207642 355.045990,344.395813 
	C355.021637,335.221039 349.391449,329.072083 341.068909,328.889374 
	C331.824829,328.686432 325.678650,334.327667 325.140625,343.683502 
	C324.940277,347.167725 325.175079,350.675140 325.036713,354.165100 
	C324.753632,361.306915 319.181000,367.366943 312.404633,368.051331 
	C304.048187,368.895264 297.086670,364.797882 296.116821,356.903717 
	C294.988037,347.716217 295.348785,338.345764 295.012573,328.602234 
z"/>
<path fill="#945E39" opacity="1.000000" stroke="none" 
	d="
M260.146118,193.779053 
	C258.411316,197.433212 256.252197,200.716766 254.516800,204.210754 
	C251.233688,210.820877 248.193970,217.551865 244.966385,224.588501 
	C243.019958,220.775070 241.043915,216.653244 239.319901,212.428558 
	C229.910568,189.371048 214.853836,171.472839 191.886337,161.027557 
	C186.253311,158.465729 180.146240,156.946259 174.177277,154.600128 
	C207.289734,153.797806 235.375290,165.064835 257.291565,190.494766 
	C258.159943,191.502365 259.039032,192.500763 260.146118,193.779053 
z"/>
<path fill="#BA875C" opacity="1.000000" stroke="none" 
	d="
M212.914261,76.849304 
	C220.018005,73.291008 225.377472,76.080017 225.715149,83.462837 
	C225.862015,86.673859 225.644974,90.336296 224.191452,93.040161 
	C223.138840,94.998230 219.706924,96.820213 217.466766,96.675743 
	C215.222565,96.531006 212.019257,94.306175 211.210953,92.225838 
	C209.270813,87.232452 209.062943,81.850441 212.914261,76.849304 
z"/>
<path fill="#B9865A" opacity="1.000000" stroke="none" 
	d="
M264.658478,95.884247 
	C257.733734,98.083374 253.415253,95.255119 253.088577,88.663269 
	C252.982132,86.515511 252.896042,84.331207 253.159775,82.208229 
	C253.666855,78.126518 255.977982,75.432701 260.185791,75.086578 
	C264.404694,74.739540 267.211975,76.909515 268.066742,81.039421 
	C269.155579,86.300034 269.820984,91.597603 264.658478,95.884247 
z"/>
<path fill="#B8855A" opacity="1.000000" stroke="none" 
	d="
M274.836426,123.047646 
	C274.661743,118.610641 274.816437,114.266708 279.421295,113.278885 
	C282.012390,112.723053 285.765198,113.634537 287.800507,115.323776 
	C291.199341,118.144714 291.240448,128.646957 287.860779,131.554474 
	C285.858612,133.276962 282.076721,134.312820 279.532806,133.733917 
	C274.340637,132.552383 274.761139,127.710258 274.836426,123.047646 
z"/>
<path fill="#B88559" opacity="1.000000" stroke="none" 
	d="
M239.782776,134.498978 
	C232.131042,132.576096 228.783157,119.970779 234.111984,114.580574 
	C236.803589,111.857948 241.506607,111.785385 244.410385,114.421692 
	C249.928955,119.431938 247.222702,132.090027 239.782776,134.498978 
z"/>
<path fill="#B9855A" opacity="1.000000" stroke="none" 
	d="
M309.927582,93.542007 
	C307.336029,96.773727 304.428925,97.889160 300.863617,96.394180 
	C297.369568,94.929085 295.992767,92.079025 296.016541,88.428726 
	C296.030579,86.268433 295.869324,84.085144 296.125488,81.952873 
	C296.632782,77.730728 299.859283,74.965599 303.895966,75.017151 
	C307.777863,75.066711 310.983368,78.140900 311.013794,82.423470 
	C311.039307,86.016525 310.469757,89.613792 309.927582,93.542007 
z"/>
<path fill="#E6EFF5" opacity="1.000000" stroke="none" 
	d="
M385.245544,328.149261 
	C385.245544,316.065643 385.245544,303.982056 385.245544,291.073944 
	C395.300323,291.073944 405.181183,291.073944 415.529663,291.043396 
	C419.680603,291.110718 423.363922,291.208618 427.493896,291.418640 
	C430.586670,293.606354 433.804016,295.245911 435.779388,297.833557 
	C444.064331,308.686340 440.988098,320.449524 428.201202,327.697449 
	C422.362000,328.037018 416.718445,328.108124 410.143341,328.149414 
	C401.223022,328.129486 393.234283,328.139374 385.245544,328.149261 
z"/>
<path fill="#80B8F8" opacity="1.000000" stroke="none" 
	d="
M385.176025,328.599609 
	C393.234283,328.139374 401.223022,328.129486 409.688263,328.193420 
	C407.103333,342.413879 404.038116,356.559723 400.982666,370.707672 
	C400.010254,375.210358 399.063843,379.718658 398.062561,384.619934 
	C397.934143,385.324219 397.751617,385.556671 397.270813,385.813782 
	C393.398773,385.902435 389.728027,385.890259 385.611359,385.853058 
	C385.145813,366.902008 385.126160,347.975983 385.176025,328.599609 
z"/>
</svg>