<svg version="1.1" id="Layer_1" xmlns="http://www.w3.org/2000/svg" xmlns:xlink="http://www.w3.org/1999/xlink" x="0px" y="0px"
	 width="100%" viewBox="0 0 512 512" xml:space="preserve">

<path fill="#E9E9FF" opacity="1.000000" stroke="none" 
	d="
M40.062733,393.382751 
	C42.056992,393.316345 44.051250,393.191925 46.045517,393.191803 
	C192.707184,393.182770 339.368835,393.183472 486.030518,393.183777 
	C496.365845,393.183807 497.997192,394.784790 497.998383,404.919647 
	C497.998779,408.419525 498.004944,411.919403 497.997375,415.419281 
	C497.957214,433.962860 486.735962,445.153717 468.068420,445.171478 
	C437.569489,445.200470 407.070465,445.195129 376.571564,445.163544 
	C371.556549,445.158356 367.653198,446.485443 366.299774,452.559570 
	C359.546112,452.939301 353.335846,452.956573 347.125549,452.973846 
	C345.347626,446.393585 343.624390,445.181885 335.913940,445.181610 
	C243.585953,445.178284 151.257950,445.179626 58.929958,445.177216 
	C56.930290,445.177155 54.930626,445.147278 52.416187,444.705322 
	C45.162727,437.275787 40.492069,429.166901 40.069412,419.304260 
	C39.699802,410.679535 40.037502,402.024445 40.062733,393.382751 
z"/>
<path fill="#FD405A" opacity="1.000000" stroke="none" 
	d="
M202.589935,220.048126 
	C202.674072,223.542053 202.694397,227.038895 202.853867,230.529358 
	C203.416519,242.844437 213.338409,252.315613 225.691513,252.382858 
	C238.181839,252.450867 248.533920,242.792419 248.924408,230.351105 
	C249.184235,222.072845 248.973694,213.779831 248.973694,205.262177 
	C252.782654,205.262177 256.056305,205.262177 259.340454,205.262177 
	C261.688568,212.365402 263.134399,213.273697 271.194153,213.888748 
	C278.964905,214.481705 286.711609,215.389389 294.871460,216.198746 
	C293.985931,235.476456 301.497803,249.023361 320.232452,254.428406 
	C334.277924,258.480591 345.833405,253.077118 358.407623,237.389313 
	C366.011963,240.711868 373.744080,244.080917 381.468292,247.467911 
	C388.778076,250.673172 396.136597,253.775040 403.368073,257.148743 
	C410.066498,260.273773 413.984100,265.427002 414.121948,273.665985 
	C411.143494,273.665985 408.374359,273.445709 405.651062,273.705566 
	C395.826538,274.643066 388.122620,279.335083 381.967834,287.005920 
	C380.750061,288.523682 378.365234,289.701813 376.402557,289.902740 
	C372.114868,290.341675 367.748138,289.927612 363.421753,290.084106 
	C351.930756,290.499878 343.343353,299.106018 343.073517,310.572205 
	C342.904999,317.732513 342.959778,324.900818 343.051636,332.063782 
	C343.141815,339.097351 340.314270,344.250671 333.324097,346.953674 
	C331.369049,343.400543 329.002686,340.214691 328.639832,336.815002 
	C327.872009,329.621185 328.149933,322.315735 327.999390,315.056091 
	C327.871643,308.892273 324.904358,304.484375 319.006042,302.978210 
	C315.558746,302.097992 311.840881,302.277557 308.244720,301.980347 
	C303.100311,296.599060 296.841461,294.619110 289.397461,294.736877 
	C271.797058,295.015381 254.189240,294.798981 236.584534,294.835205 
	C222.909393,294.863342 214.625031,303.060760 214.326477,316.772644 
	C214.286728,318.598724 214.341904,320.426758 214.310028,322.253174 
	C214.148773,331.488251 210.576950,336.468292 201.326630,339.459625 
	C196.024689,332.812439 195.825516,325.505310 195.923859,317.951599 
	C196.139694,301.372467 192.915009,298.192169 176.640747,297.955536 
	C176.475555,297.953125 176.310394,297.948456 176.145218,297.944824 
	C170.789352,292.030060 164.124268,289.760773 156.179337,289.960052 
	C144.776337,290.246033 133.360199,290.009369 121.429306,289.579712 
	C116.074814,281.649475 112.482742,273.939819 117.095047,264.938507 
	C126.025215,269.879913 135.378525,271.717468 145.338516,268.624146 
	C159.498596,264.226379 168.993973,251.039856 168.657150,235.752106 
	C168.584869,232.471756 169.581528,230.994308 172.528320,230.019531 
	C177.084213,228.512482 181.533203,226.682312 186.730469,224.945663 
	C187.851669,224.464035 188.269943,224.025909 188.688202,223.587784 
	C188.688202,223.587784 188.670166,223.871826 189.050903,223.844116 
	C193.817749,222.560333 198.203842,221.304230 202.589935,220.048126 
M298.075958,269.673096 
	C295.146851,273.213226 294.549316,277.391022 297.760590,280.480316 
	C299.776306,282.419434 303.828796,283.755310 306.427734,283.127502 
	C308.795258,282.555634 311.664886,279.158997 312.049225,276.659332 
	C312.433685,274.158905 310.666229,270.534851 308.667297,268.647736 
	C305.720642,265.865997 301.882477,266.566925 298.075958,269.673096 
M188.821747,268.019257 
	C185.356415,270.140198 183.585190,273.125916 184.482742,277.232208 
	C185.468277,281.740936 189.981796,284.659637 194.255615,283.731384 
	C198.893082,282.724152 201.914780,278.062988 200.857864,273.547058 
	C199.718536,268.679077 195.365433,266.437256 188.821747,268.019257 
M277.829468,227.782379 
	C272.161804,222.440262 264.887390,226.701096 263.891296,231.454025 
	C263.049255,235.471802 264.108856,238.778305 267.688049,240.882690 
	C271.241974,242.972183 274.853912,242.609116 277.727081,239.653137 
	C281.073639,236.210175 281.129242,232.293274 277.829468,227.782379 
M371.527832,273.139221 
	C376.040558,266.945984 374.017365,259.958771 367.378296,258.897186 
	C363.549896,258.285034 360.431610,259.541565 358.533295,262.968109 
	C356.654175,266.360016 356.976593,269.805847 359.663422,272.612427 
	C362.999329,276.097076 366.901154,276.187164 371.527832,273.139221 
z"/>
<path fill="#D4D4E8" opacity="1.000000" stroke="none" 
	d="
M434.290161,473.084595 
	C430.614594,478.421356 427.222900,483.984497 423.192749,489.038513 
	C417.970856,495.586914 410.744049,498.039642 402.433228,498.029724 
	C350.934814,497.968231 299.436340,498.002808 247.937866,497.997864 
	C205.272598,497.993774 162.607330,497.979187 119.426376,497.560242 
	C113.607719,489.646881 108.304764,482.142578 102.263733,473.593781 
	C105.780792,473.321564 107.842171,473.023285 109.903664,473.022552 
	C177.546951,472.998230 245.190231,472.992950 312.833527,473.006073 
	C353.319061,473.013916 393.804596,473.057190 434.290161,473.084595 
z"/>
<path fill="#E6E6FC" opacity="1.000000" stroke="none" 
	d="
M364.580017,61.503593 
	C374.584961,68.193192 385.295837,70.998283 396.947968,70.957237 
	C428.600830,70.845726 460.254883,71.012215 491.906921,70.819618 
	C496.719574,70.790344 498.194519,72.174988 498.111420,77.019913 
	C497.855682,91.924232 498.043762,91.927376 483.177277,91.927467 
	C454.189575,91.927650 425.201569,92.011101 396.214355,91.891060 
	C382.860077,91.835754 370.629639,95.372253 360.784851,104.321800 
	C349.556061,114.529488 336.827850,118.834396 321.911896,117.607040 
	C318.787964,117.349991 315.624817,117.569687 312.103027,117.569687 
	C312.103027,112.880974 312.103027,108.494606 312.103027,103.429916 
	C315.967255,103.429916 319.896759,103.464684 323.825439,103.421959 
	C330.098022,103.353752 333.657806,100.671173 333.718079,96.036125 
	C333.778687,91.374878 330.159424,88.525780 324.002960,88.458176 
	C320.039276,88.414642 316.074677,88.450005 311.993896,88.450005 
	C311.993896,83.541100 311.993896,79.118759 311.993896,74.242935 
	C316.547089,74.242935 320.844360,74.307198 325.138855,74.226357 
	C330.288940,74.129425 333.532745,71.379944 333.713989,67.118690 
	C333.899628,62.753941 330.449310,59.471317 325.204102,59.293961 
	C320.907288,59.148666 316.601654,59.264362 312.013123,59.264362 
	C312.013123,54.540257 312.013123,50.136639 312.013123,45.544174 
	C329.281891,44.262634 346.136292,44.007618 359.549530,57.627266 
	C360.936432,59.035534 362.705597,60.067314 364.580017,61.503593 
z"/>
<path fill="#C2C2DC" opacity="1.000000" stroke="none" 
	d="
M434.574310,472.922058 
	C393.804596,473.057190 353.319061,473.013916 312.833527,473.006073 
	C245.190231,472.992950 177.546951,472.998230 109.903664,473.022552 
	C107.842171,473.023285 105.780792,473.321564 102.263733,473.593781 
	C108.304764,482.142578 113.607719,489.646881 118.964012,497.486084 
	C113.890350,497.593262 108.522354,498.228638 103.707191,496.884125 
	C99.289413,495.650574 94.414940,493.143005 91.587967,489.686676 
	C84.157471,480.601898 77.732544,470.694641 70.235313,460.172272 
	C73.007256,460.172272 74.738274,460.172272 76.469299,460.172272 
	C163.055710,460.172119 249.642120,460.153229 336.228485,460.219391 
	C341.328857,460.223297 345.587524,459.531403 347.011292,453.325012 
	C353.335846,452.956573 359.546112,452.939301 366.202332,452.927582 
	C367.546112,458.328186 370.871613,460.249390 376.154633,460.221344 
	C398.252594,460.104034 420.351562,460.171906 443.494781,460.171906 
	C440.349884,464.755707 437.604187,468.757629 434.574310,472.922058 
z"/>
<path fill="#FCDC72" opacity="1.000000" stroke="none" 
	d="
M77.133385,323.125702 
	C82.061172,319.410095 86.503998,315.568268 91.444916,312.538849 
	C99.524818,307.584900 107.802429,303.979279 118.034348,304.781891 
	C131.120422,305.808380 144.348007,305.004791 157.514450,305.044525 
	C163.506012,305.062622 165.166061,306.767700 165.239700,312.783020 
	C165.280289,316.097778 165.246994,319.413422 165.246994,323.387207 
	C143.486084,314.262939 122.347511,314.321106 101.957504,325.621124 
	C81.534653,336.939362 70.121689,354.735748 66.334579,377.876801 
	C60.992180,377.876801 55.746014,377.876801 49.885586,377.876801 
	C52.132774,356.241394 61.266415,338.236938 77.133385,323.125702 
z"/>
<path fill="#FFDF74" opacity="1.000000" stroke="none" 
	d="
M225.995331,16.199657 
	C232.173523,17.254812 233.992813,19.550207 233.994583,26.500858 
	C234.005951,71.092812 234.000549,115.684761 234.000488,160.276718 
	C234.000458,182.739075 233.976669,205.201492 234.017563,227.663773 
	C234.026871,232.778442 232.289337,236.408859 226.235916,236.821014 
	C225.136108,233.659760 224.074570,230.944168 224.070877,228.227127 
	C223.978928,160.760971 223.971375,93.294624 224.083527,25.828533 
	C224.088867,22.617857 225.329819,19.409237 225.995331,16.199657 
z"/>
<path fill="#FBDB72" opacity="1.000000" stroke="none" 
	d="
M422.110321,378.189270 
	C419.659332,378.189270 417.684235,378.189270 415.866150,378.189270 
	C408.367126,358.235352 395.583954,348.354767 378.027832,348.653351 
	C360.719727,348.947693 347.729828,359.310577 341.653351,377.891602 
	C336.341827,377.891602 330.924286,377.891602 324.510559,377.891602 
	C325.889832,373.471191 327.015289,369.246552 328.606262,365.205170 
	C328.997650,364.210876 330.837585,363.435974 332.128387,363.200714 
	C345.687561,360.729187 354.166962,352.847900 357.267029,339.464203 
	C357.928223,336.609650 359.116608,334.894836 361.894104,334.571655 
	C369.446991,333.692902 377.004578,332.763855 384.587524,332.296783 
	C386.512665,332.178192 388.554016,333.673187 390.516266,334.488556 
	C394.177673,336.010040 397.701599,338.384247 401.497467,338.941895 
	C407.708282,339.854279 412.224762,343.097198 416.408081,347.213593 
	C424.959473,355.628235 430.409485,365.658539 432.311859,378.189270 
	C428.840881,378.189270 425.713531,378.189270 422.110321,378.189270 
z"/>
<path fill="#FADB72" opacity="1.000000" stroke="none" 
	d="
M102.589195,367.722107 
	C101.017082,371.218811 99.657219,374.409180 98.155312,377.932861 
	C93.046043,377.932861 87.617783,377.932861 81.587418,377.932861 
	C85.176476,359.052612 95.113075,345.204895 112.173172,337.201477 
	C130.755371,328.484009 148.886978,330.334747 166.219116,341.446747 
	C164.072342,346.886169 162.079712,351.935028 159.910919,357.430237 
	C149.481934,349.407715 138.059082,346.682129 125.538383,349.961273 
	C115.574287,352.570953 108.023743,358.527374 102.589195,367.722107 
z"/>
<path fill="#FBDB72" opacity="1.000000" stroke="none" 
	d="
M223.606979,368.764282 
	C222.223587,371.993042 221.048874,374.907623 219.822189,377.951172 
	C214.398010,377.951172 208.968582,377.951172 203.163727,377.951172 
	C207.040283,358.118439 217.732590,343.895905 236.066925,336.185699 
	C254.054886,328.621124 271.413269,330.879791 287.815887,341.406982 
	C285.692657,346.799103 283.693665,351.875854 281.501892,357.442078 
	C270.834381,349.094177 258.873444,346.478546 245.960144,350.262787 
	C236.138107,353.141113 228.721436,359.372498 223.606979,368.764282 
z"/>
<path fill="#F6CD5C" opacity="1.000000" stroke="none" 
	d="
M225.628082,16.128315 
	C225.329819,19.409237 224.088867,22.617857 224.083527,25.828533 
	C223.971375,93.294624 223.978928,160.760971 224.070877,228.227127 
	C224.074570,230.944168 225.136108,233.659760 225.856369,236.736481 
	C220.183060,236.651688 217.845703,234.266510 217.806870,228.246185 
	C217.724228,215.435272 217.777817,202.623489 217.777573,189.812057 
	C217.776901,156.202866 217.784988,122.593666 217.770935,88.984467 
	C217.768082,82.172234 216.479141,80.360229 210.221405,78.289871 
	C210.221405,72.747375 210.221405,67.127846 210.221405,61.492641 
	C216.847076,58.731625 217.764664,57.344994 217.774719,49.933220 
	C217.785767,41.780510 217.833435,33.627293 217.761078,25.475222 
	C217.714584,20.235292 219.876175,16.899977 225.628082,16.128315 
z"/>
<path fill="#F6D770" opacity="1.000000" stroke="none" 
	d="
M288.996704,16.178467 
	C294.890350,17.507837 296.723083,19.794432 296.735291,26.330828 
	C296.776581,48.429554 296.751282,70.528397 296.751282,92.627197 
	C296.751251,106.085869 296.795441,119.544746 296.731476,133.003113 
	C296.701019,139.408920 294.720734,141.781494 288.375916,142.535919 
	C287.638367,139.591400 287.020386,137.137512 287.016266,134.682602 
	C286.954407,97.864761 286.931366,61.046635 287.060699,24.229147 
	C287.070160,21.543352 288.322327,18.861925 288.996704,16.178467 
z"/>
<path fill="#FFDE73" opacity="1.000000" stroke="none" 
	d="
M257.025055,16.207115 
	C262.837219,16.955402 265.184509,19.165869 265.195496,24.742779 
	C265.267365,61.206039 265.239197,97.669502 265.233215,134.132904 
	C265.232391,139.167221 262.947845,142.326065 257.323608,142.560974 
	C256.262146,138.376663 255.101913,134.645630 255.086044,130.909744 
	C254.943878,97.412888 254.923767,63.914780 255.092941,30.418173 
	C255.116898,25.678022 256.351044,20.943983 257.025055,16.207115 
z"/>
<path fill="#C7C7DA" opacity="1.000000" stroke="none" 
	d="
M39.600853,393.278625 
	C40.037502,402.024445 39.699802,410.679535 40.069412,419.304260 
	C40.492069,429.166901 45.162727,437.275787 51.955360,444.617126 
	C42.518089,445.871490 33.363533,445.400726 25.685228,438.681732 
	C19.611479,433.366821 16.266563,426.705048 16.023855,418.634216 
	C15.853798,412.979218 15.917099,407.314545 15.990025,401.655640 
	C16.065010,395.836761 18.667927,393.280029 24.656879,393.166473 
	C29.482456,393.074951 34.311478,393.165009 39.600853,393.278625 
z"/>
<path fill="#3FBF7A" opacity="1.000000" stroke="none" 
	d="
M463.504517,252.452484 
	C468.580292,255.696854 473.402161,258.659088 478.121429,261.776581 
	C483.165466,265.108551 483.288818,268.561340 478.406586,271.786896 
	C472.716431,275.546204 466.986755,279.266571 461.092407,282.690857 
	C453.597839,287.044800 445.483124,288.304932 437.023621,286.185547 
	C431.644043,284.837769 428.580292,280.120819 429.493286,274.211945 
	C436.286743,274.211945 443.215607,274.214966 450.144501,274.210083 
	C452.142273,274.208649 454.147186,274.287292 456.136353,274.149323 
	C460.181488,273.868744 462.662872,271.655304 463.026398,267.617645 
	C463.407806,263.380981 461.400696,260.229614 457.138947,259.739624 
	C452.040894,259.153473 446.851410,259.332855 441.700439,259.247223 
	C438.038361,259.186310 434.354309,258.995697 430.716980,259.301727 
	C426.969818,259.617035 424.650085,258.316895 423.696014,254.649307 
	C432.103546,245.135941 449.010101,244.086823 463.504517,252.452484 
z"/>
<path fill="#FBDC72" opacity="1.000000" stroke="none" 
	d="
M432.410767,342.621490 
	C430.200653,340.118042 428.226776,337.881775 427.155151,336.667694 
	C431.154602,332.918549 435.076355,329.242249 439.131775,325.440613 
	C451.806763,335.965942 464.080048,361.006531 463.823303,377.922913 
	C458.576630,377.922913 453.321594,377.922913 447.624542,377.922913 
	C445.684540,365.019623 441.008270,353.143036 432.410767,342.621490 
z"/>
<path fill="#ECC559" opacity="1.000000" stroke="none" 
	d="
M288.622650,16.100044 
	C288.322327,18.861925 287.070160,21.543352 287.060699,24.229147 
	C286.931366,61.046635 286.954407,97.864761 287.016266,134.682602 
	C287.020386,137.137512 287.638367,139.591400 287.997681,142.459656 
	C282.229553,141.814270 280.242126,139.370514 280.229797,132.841049 
	C280.188721,111.053978 280.213928,89.266785 280.213928,67.479637 
	C280.213928,53.675568 280.171722,39.871307 280.233429,26.067513 
	C280.261719,19.743689 282.206055,17.429031 288.622650,16.100044 
z"/>
<path fill="#FDF1D5" opacity="1.000000" stroke="none" 
	d="
M131.013092,219.213715 
	C139.198364,217.368256 145.796600,219.903336 150.583084,226.703659 
	C154.837479,232.748032 154.743958,240.723022 150.697342,246.869415 
	C146.346115,253.478485 139.384216,256.114624 130.306686,253.863266 
	C124.593430,245.176132 122.116943,236.626831 126.098022,227.186172 
	C127.176323,224.629105 128.572128,222.205917 129.822205,219.721283 
	C129.822205,219.721283 129.868912,219.864502 130.064148,219.853333 
	C130.510620,219.632660 130.761856,219.423187 131.013092,219.213715 
z"/>
<path fill="#FDF1D5" opacity="1.000000" stroke="none" 
	d="
M323.005432,204.977753 
	C331.108612,201.355774 343.039581,206.692169 345.863556,217.530212 
	C348.542633,227.812149 341.861542,238.374588 331.645416,240.038940 
	C329.393524,240.405777 327.029602,240.084808 324.189331,239.761551 
	C323.340210,239.425323 323.019012,239.408112 322.697845,239.390900 
	C322.697845,239.390900 322.997559,239.021591 322.828064,238.847931 
	C321.117462,235.571030 319.218079,232.590591 318.103821,229.340973 
	C315.022614,220.354767 318.243042,212.473709 323.005432,204.977753 
z"/>
<path fill="#FDF1D5" opacity="1.000000" stroke="none" 
	d="
M404.981201,289.084808 
	C412.868622,287.477325 419.749756,290.173737 424.067200,296.563782 
	C428.155945,302.615356 428.314270,310.658356 424.127197,316.718170 
	C419.416412,323.535919 412.899933,326.260529 404.184326,323.941650 
	C395.867767,313.585815 395.506958,298.730743 404.981201,289.084808 
z"/>
<path fill="#40C07B" opacity="1.000000" stroke="none" 
	d="
M415.388794,230.939697 
	C415.318085,227.113129 415.309418,223.284164 415.161194,219.460602 
	C414.970001,214.527557 412.321259,211.683594 407.984100,211.589447 
	C403.722229,211.496933 400.521820,214.321640 400.322601,219.087204 
	C400.052185,225.555542 400.255280,232.043655 400.255280,239.199600 
	C396.359100,237.562454 392.847290,236.483673 389.813080,234.625183 
	C388.519165,233.832626 387.361572,231.257446 387.629425,229.758057 
	C388.554321,224.580841 389.385376,219.157043 391.644958,214.503387 
	C394.824738,207.954544 399.205872,201.982285 403.158936,195.818375 
	C405.209106,192.621613 408.819946,191.144073 410.973846,194.332260 
	C417.888153,204.566650 426.630280,213.995651 427.489502,227.582062 
	C423.165375,228.977051 419.277100,229.958374 415.388794,230.939697 
z"/>
<path fill="#F5CC5B" opacity="1.000000" stroke="none" 
	d="
M256.659851,16.143255 
	C256.351044,20.943983 255.116898,25.678022 255.092941,30.418173 
	C254.923767,63.914780 254.943878,97.412888 255.086044,130.909744 
	C255.101913,134.645630 256.262146,138.376663 256.951721,142.488525 
	C251.071716,142.008118 249.016129,139.586365 249.011154,133.113739 
	C248.986542,101.150703 248.999939,69.187637 248.999969,37.224579 
	C248.999969,33.395672 249.061081,29.565556 248.985275,25.738150 
	C248.882660,20.558315 250.953796,17.101585 256.659851,16.143255 
z"/>
<path fill="#FADB72" opacity="1.000000" stroke="none" 
	d="
M260.000061,309.810242 
	C270.494537,309.810638 280.489197,309.779602 290.483459,309.823517 
	C296.194153,309.848602 297.985931,311.565918 297.930359,317.244202 
	C297.894806,320.873199 297.446594,324.498169 297.092896,329.372437 
	C274.880463,315.566437 252.919678,313.342072 230.025696,322.201874 
	C227.772293,310.681641 231.712418,309.296021 239.016373,309.724915 
	C245.822479,310.124542 252.670502,309.810272 260.000061,309.810242 
z"/>
<path fill="#ED2B54" opacity="1.000000" stroke="none" 
	d="
M308.374207,302.292847 
	C311.840881,302.277557 315.558746,302.097992 319.006042,302.978210 
	C324.904358,304.484375 327.871643,308.892273 327.999390,315.056091 
	C328.149933,322.315735 327.872009,329.621185 328.639832,336.815002 
	C329.002686,340.214691 331.369049,343.400543 332.972137,347.029907 
	C324.573883,351.613007 312.595856,344.103516 312.942169,333.005829 
	C313.107971,327.692108 313.545929,322.285736 312.797638,317.073914 
	C312.090302,312.147095 309.990845,307.420166 308.374207,302.292847 
z"/>
<path fill="#EB2B54" opacity="1.000000" stroke="none" 
	d="
M176.247070,298.280090 
	C176.310394,297.948456 176.475555,297.953125 176.640747,297.955536 
	C192.915009,298.192169 196.139694,301.372467 195.923859,317.951599 
	C195.825516,325.505310 196.024689,332.812439 200.973724,339.448456 
	C189.101974,341.615082 180.576187,334.591980 180.238220,322.584229 
	C180.107956,317.956268 180.605591,313.257416 179.954330,308.714539 
	C179.457230,305.247101 177.600708,301.974579 176.247070,298.280090 
z"/>
<path fill="#FBDC72" opacity="1.000000" stroke="none" 
	d="
M141.194275,364.302429 
	C149.725143,367.423981 153.803696,371.216980 155.891769,377.911377 
	C142.255142,377.911377 128.700943,377.911377 115.145851,377.916931 
	C116.899086,368.330261 127.649361,362.569550 141.194275,364.302429 
z"/>
<path fill="#FCDC72" opacity="1.000000" stroke="none" 
	d="
M363.418976,369.399475 
	C376.873230,359.330536 394.004395,363.340973 399.176788,377.810120 
	C385.446167,377.810120 371.843201,377.810120 357.033936,377.810120 
	C359.345612,374.723480 361.248383,372.182861 363.418976,369.399475 
z"/>
<path fill="#FDDD73" opacity="1.000000" stroke="none" 
	d="
M251.008011,378.183563 
	C245.863297,378.183563 241.216843,378.183563 236.525925,378.183563 
	C238.391434,370.359863 246.236832,364.385071 255.244614,363.769104 
	C265.467377,363.070068 273.800781,368.208038 277.858704,378.183563 
	C268.912659,378.183563 260.209442,378.183563 251.008011,378.183563 
z"/>
<path fill="#FADB72" opacity="1.000000" stroke="none" 
	d="
M174.624817,361.713013 
	C176.124893,357.623566 177.471954,353.908081 178.780624,350.298492 
	C184.057907,352.231995 188.942917,354.021820 193.965942,355.862183 
	C191.888611,362.857635 189.664215,370.348236 187.381668,378.034729 
	C182.614609,378.034729 177.664749,378.034729 171.371033,378.034729 
	C172.443512,372.518799 173.457657,367.302856 174.624817,361.713013 
z"/>
<path fill="#EB2B54" opacity="1.000000" stroke="none" 
	d="
M116.916962,264.654175 
	C112.482742,273.939819 116.074814,281.649475 120.967537,289.505219 
	C107.051758,292.003662 98.968674,281.247955 99.871170,271.770508 
	C100.423576,265.969513 103.257126,261.518372 109.244095,258.082489 
	C111.723923,260.162811 114.231407,262.266357 116.916962,264.654175 
z"/>
<path fill="#F9DA71" opacity="1.000000" stroke="none" 
	d="
M313.910675,361.193909 
	C312.325775,366.810547 310.804749,372.046997 309.025635,378.172119 
	C305.036957,378.172119 300.270477,378.388550 295.561859,377.963745 
	C294.756653,377.891113 293.354797,374.880981 293.663696,373.564636 
	C295.620087,365.227051 297.980377,356.984192 300.345398,348.197418 
	C305.480743,352.951141 309.727661,356.882446 313.910675,361.193909 
z"/>
<path fill="#F7D870" opacity="1.000000" stroke="none" 
	d="
M362.740662,305.162109 
	C367.129089,305.088135 371.088348,305.088135 375.255524,305.088135 
	C375.769806,309.014557 376.257507,312.737854 376.746307,316.469421 
	C370.675354,317.485687 364.516357,318.516724 357.858765,319.631226 
	C359.128143,314.695618 355.130035,308.439331 362.740662,305.162109 
z"/>
<path fill="#F3D6A7" opacity="1.000000" stroke="none" 
	d="
M404.616241,289.048706 
	C395.506958,298.730743 395.867767,313.585815 403.847717,323.716919 
	C396.152130,322.010101 390.989136,315.634674 390.668610,307.566528 
	C390.319092,298.768768 394.935883,292.462219 404.616241,289.048706 
z"/>
<path fill="#F1D4A5" opacity="1.000000" stroke="none" 
	d="
M129.459198,219.733459 
	C128.572128,222.205917 127.176323,224.629105 126.098022,227.186172 
	C122.116943,236.626831 124.593430,245.176132 129.970718,253.635162 
	C122.529343,251.850464 117.478935,245.551270 117.060226,237.817413 
	C116.629524,229.861893 121.031708,223.252106 129.459198,219.733459 
z"/>
<path fill="#F3D6A7" opacity="1.000000" stroke="none" 
	d="
M322.640076,204.951569 
	C318.243042,212.473709 315.022614,220.354767 318.103821,229.340973 
	C319.218079,232.590591 321.117462,235.571030 322.678040,239.034409 
	C315.124268,236.951843 310.290924,230.884277 309.938171,223.377121 
	C309.532135,214.736298 313.669769,208.547607 322.640076,204.951569 
z"/>
<path fill="#38A76A" opacity="1.000000" stroke="none" 
	d="
M415.292236,231.381577 
	C419.277100,229.958374 423.165375,228.977051 427.444153,227.983795 
	C428.956024,232.538269 427.516541,235.471695 422.793701,236.953110 
	C420.353638,237.718521 418.197723,239.389755 415.195648,241.048264 
	C415.195648,237.596008 415.195648,234.709732 415.292236,231.381577 
z"/>
<path fill="#E22B50" opacity="1.000000" stroke="none" 
	d="
M202.689636,219.615997 
	C198.203842,221.304230 193.817749,222.560333 189.035370,223.702667 
	C189.062317,222.877487 189.853104,222.165848 189.852676,221.454666 
	C189.847870,213.153931 196.308014,213.282303 202.789352,211.946548 
	C202.789352,214.456238 202.789352,216.820038 202.689636,219.615997 
z"/>
<path fill="#E22B50" opacity="1.000000" stroke="none" 
	d="
M188.400330,223.673035 
	C188.269943,224.025909 187.851669,224.464035 187.093658,224.893433 
	C187.206741,224.509232 187.659592,224.133759 188.400330,223.673035 
z"/>
<path fill="#F3D6A7" opacity="1.000000" stroke="none" 
	d="
M322.850220,239.593384 
	C323.019012,239.408112 323.340210,239.425323 323.824890,239.637207 
	C323.659821,239.819870 323.331207,239.807877 322.850220,239.593384 
z"/>
<path fill="#F1D4A5" opacity="1.000000" stroke="none" 
	d="
M130.756622,219.174835 
	C130.761856,219.423187 130.510620,219.632660 130.009201,219.801819 
	C130.006058,219.552979 130.253113,219.344467 130.756622,219.174835 
z"/>
<path fill="#090203" opacity="1.000000" stroke="none" 
	d="
M298.354797,269.398438 
	C301.882477,266.566925 305.720642,265.865997 308.667297,268.647736 
	C310.666229,270.534851 312.433685,274.158905 312.049225,276.659332 
	C311.664886,279.158997 308.795258,282.555634 306.427734,283.127502 
	C303.828796,283.755310 299.776306,282.419434 297.760590,280.480316 
	C294.549316,277.391022 295.146851,273.213226 298.354797,269.398438 
z"/>
<path fill="#080203" opacity="1.000000" stroke="none" 
	d="
M189.183044,267.869934 
	C195.365433,266.437256 199.718536,268.679077 200.857864,273.547058 
	C201.914780,278.062988 198.893082,282.724152 194.255615,283.731384 
	C189.981796,284.659637 185.468277,281.740936 184.482742,277.232208 
	C183.585190,273.125916 185.356415,270.140198 189.183044,267.869934 
z"/>
<path fill="#080203" opacity="1.000000" stroke="none" 
	d="
M278.091064,228.072845 
	C281.129242,232.293274 281.073639,236.210175 277.727081,239.653137 
	C274.853912,242.609116 271.241974,242.972183 267.688049,240.882690 
	C264.108856,238.778305 263.049255,235.471802 263.891296,231.454025 
	C264.887390,226.701096 272.161804,222.440262 278.091064,228.072845 
z"/>
<path fill="#050102" opacity="1.000000" stroke="none" 
	d="
M371.228943,273.411194 
	C366.901154,276.187164 362.999329,276.097076 359.663422,272.612427 
	C356.976593,269.805847 356.654175,266.360016 358.533295,262.968109 
	C360.431610,259.541565 363.549896,258.285034 367.378296,258.897186 
	C374.017365,259.958771 376.040558,266.945984 371.228943,273.411194 
z"/>
</svg>