<svg version="1.1" id="Layer_1" xmlns="http://www.w3.org/2000/svg" xmlns:xlink="http://www.w3.org/1999/xlink" x="0px" y="0px"
	 width="100%" viewBox="0 0 512 512" enable-background="new 0 0 512 512" xml:space="preserve">
<path fill="#000000" opacity="1.000000" stroke="none" 
	d="
M274.000000,513.000000 
	C182.688828,513.000000 91.877655,513.000000 1.033240,513.000000 
	C1.033240,342.397125 1.033240,171.794266 1.033240,1.095694 
	C171.561188,1.095694 342.122467,1.095694 512.841858,1.095694 
	C512.841858,171.666550 512.841858,342.333252 512.841858,513.000000 
	C433.460907,513.000000 353.980438,513.000000 274.000000,513.000000 
M362.357056,96.840218 
	C355.455109,94.657417 348.657837,92.018967 341.625519,90.403679 
	C332.193115,88.237114 322.578918,86.861816 312.210266,84.969223 
	C310.623322,84.631966 309.049866,84.099442 307.447296,83.989059 
	C296.897217,83.262428 286.343170,82.587158 275.785706,81.976875 
	C269.856659,81.634140 263.918579,81.447868 257.056091,81.083801 
	C247.404922,81.378693 237.732025,81.369186 228.108917,82.056793 
	C219.054962,82.703735 210.053574,84.086067 200.162598,85.022026 
	C183.381897,87.510834 166.823425,90.899643 150.209610,97.054565 
	C144.831512,99.095161 139.453430,101.135750 133.336121,103.213509 
	C129.636459,104.812172 125.742859,106.073792 122.272400,108.070778 
	C110.401672,114.901505 98.679588,121.990570 86.208138,129.045578 
	C79.781425,134.331436 73.354721,139.617279 66.417732,145.075424 
	C66.253639,145.381760 66.089539,145.688080 65.986328,145.993759 
	C65.986328,145.993759 65.968559,145.935349 65.330986,146.175201 
	C59.837769,151.997681 54.022167,157.551727 48.909943,163.691437 
	C31.438477,184.674454 19.629807,208.577515 17.317949,235.870117 
	C15.686584,255.129166 15.788264,274.737976 22.972546,293.406738 
	C27.720798,305.745331 34.478752,316.090515 48.003994,321.072113 
	C48.060684,326.050964 48.117374,331.029846 48.030445,336.935089 
	C48.029266,343.758728 47.725677,350.599579 48.111877,357.401215 
	C48.498882,364.216949 48.981155,371.126068 50.462673,377.761841 
	C54.440002,395.576477 64.353851,409.842529 79.045631,420.390594 
	C88.781128,427.380280 99.908325,432.604980 112.024651,432.817871 
	C141.637390,433.338226 171.266556,432.924591 201.836990,432.970795 
	C228.217392,432.926514 254.597809,432.882233 281.912445,432.957245 
	C292.315826,432.935455 302.719238,432.913666 314.040131,432.987885 
	C334.690216,432.932404 355.340302,432.876923 376.916138,432.986176 
	C383.248016,432.991089 389.580902,432.923798 395.911530,433.014893 
	C412.552460,433.254364 427.126434,427.270050 439.482971,416.778107 
	C456.152771,402.623718 465.381531,384.462006 465.835938,361.677826 
	C465.890381,347.834229 465.944794,333.990631 466.748901,320.010132 
	C477.410095,316.498810 483.909851,308.751526 488.577087,298.954071 
	C492.979523,289.712433 495.606415,280.032806 496.033691,269.847992 
	C496.533905,257.923340 497.891022,245.853760 496.653168,234.080826 
	C494.935760,217.747192 489.523529,202.237061 481.401550,187.716156 
	C472.557678,171.904709 461.930267,157.644257 448.005737,146.003220 
	C448.005737,146.003220 448.065125,146.006180 447.954041,145.480942 
	C447.664215,145.292496 447.374390,145.104050 446.776611,144.318542 
	C440.241150,139.226990 433.705719,134.135437 426.865814,128.383041 
	C412.209015,118.104103 396.793854,109.238869 379.226410,102.821640 
	C373.835632,100.938087 368.444885,99.054535 362.357056,96.840218 
z"/>
<path fill="#5A626E" opacity="1.000000" stroke="none" 
	d="
M280.978210,432.837952 
	C254.597809,432.882233 228.217392,432.926514 201.407227,432.469391 
	C200.984131,383.311493 201.002319,334.654968 200.989868,285.998474 
	C200.986542,273.004364 200.889572,260.010284 200.902512,246.551880 
	C200.942459,240.889801 200.915497,235.692017 200.926651,230.058868 
	C200.986191,181.463974 201.007614,133.304413 201.029053,85.144859 
	C210.053574,84.086067 219.054962,82.703735 228.108917,82.056793 
	C237.732025,81.369186 247.404922,81.378693 257.645630,81.501938 
	C259.771149,82.279755 261.290070,82.768013 262.846344,82.974648 
	C267.270935,83.562111 271.699219,84.222656 276.148041,84.497406 
	C280.256592,84.751144 281.091888,86.711723 281.087952,90.587051 
	C280.972168,204.670593 280.985474,318.754272 280.978210,432.837952 
z"/>
<path fill="#E7EBEF" opacity="1.000000" stroke="none" 
	d="
M200.835602,247.016174 
	C200.889572,260.010284 200.986542,273.004364 200.989868,285.998474 
	C201.002319,334.654968 200.984131,383.311493 200.933273,432.427429 
	C171.266556,432.924591 141.637390,433.338226 112.024651,432.817871 
	C99.908325,432.604980 88.781128,427.380280 79.045631,420.390594 
	C64.353851,409.842529 54.440002,395.576477 50.462673,377.761841 
	C48.981155,371.126068 48.498882,364.216949 48.111877,357.401215 
	C47.725677,350.599579 48.029266,343.758728 48.512676,336.486389 
	C51.118866,336.358002 53.233891,336.866913 55.368229,336.968048 
	C69.292091,337.627625 80.565125,331.543915 90.105911,322.221954 
	C97.815002,314.689636 104.700371,306.320770 112.085411,298.448944 
	C126.145554,283.461945 141.493927,270.022797 159.981247,260.699554 
	C172.905151,254.181992 186.276443,248.764114 200.835602,247.016174 
M111.490639,362.990204 
	C117.006851,368.506287 122.489906,374.056213 128.058685,379.518738 
	C129.819183,381.245575 131.695389,382.902771 133.718430,384.303253 
	C137.422501,386.867432 141.532333,385.633850 143.264221,382.517151 
	C144.745041,379.852234 145.214478,374.466339 143.541367,372.574921 
	C135.530182,363.518433 126.765976,355.106812 117.991913,346.757568 
	C114.771500,343.693085 109.847664,344.416138 106.803574,347.754578 
	C103.683746,351.176056 104.530441,354.804779 106.857452,358.183441 
	C107.970367,359.799286 109.594360,361.063110 111.490639,362.990204 
M154.084488,320.964600 
	C155.571304,320.278595 157.387939,319.930542 158.492325,318.852661 
	C166.706207,310.836060 174.877518,302.769928 182.847229,294.511902 
	C186.047607,291.195740 185.711517,286.234741 182.679672,283.246368 
	C179.641296,280.251556 174.746246,279.994934 171.407288,283.219971 
	C163.271881,291.077759 155.087021,298.922333 147.549545,307.334442 
	C145.657578,309.445953 145.302673,313.793243 145.734451,316.905945 
	C146.247131,320.601807 149.909042,321.136108 154.084488,320.964600 
z"/>
<path fill="#E7EBEF" opacity="1.000000" stroke="none" 
	d="
M375.990387,432.821472 
	C355.340302,432.876923 334.690216,432.932404 313.535828,432.480194 
	C313.025299,382.648041 313.008118,333.323578 313.020447,283.999115 
	C313.023529,271.671234 313.121735,259.343353 313.584564,247.011536 
	C315.461975,247.219742 316.960938,247.310349 318.395569,247.662781 
	C333.311462,251.326981 347.532135,256.631073 360.913086,264.358582 
	C377.259827,273.798828 390.592072,286.653625 403.494324,300.121765 
	C412.317230,309.331604 421.357849,318.333466 430.135101,327.585876 
	C431.537659,329.064392 432.816833,331.349792 432.873016,333.299103 
	C433.151337,342.950836 433.358337,352.632996 432.873779,362.268372 
	C432.552002,368.666656 431.775726,375.234802 429.905701,381.328888 
	C422.150940,406.600250 405.147247,422.786102 379.963562,430.557831 
	C378.541748,430.996613 377.310394,432.052704 375.990387,432.821472 
M389.999390,375.500366 
	C395.527161,369.967010 401.149048,364.523560 406.548279,358.867493 
	C409.917236,355.338287 409.995697,350.553772 407.138306,347.657257 
	C403.931793,344.406952 399.161407,343.718933 395.891510,346.840912 
	C387.349274,354.996826 378.972900,363.340607 370.834564,371.898743 
	C367.361786,375.550690 367.696808,379.874603 370.739899,383.037231 
	C373.713470,386.127563 378.605774,386.228943 382.383759,382.999756 
	C384.906616,380.843414 387.137604,378.345581 389.999390,375.500366 
M360.501678,301.001709 
	C354.611359,295.118500 348.810150,289.142151 342.795990,283.388397 
	C339.399933,280.139343 334.623566,280.188141 331.498962,283.067108 
	C328.378052,285.942688 327.851318,291.051178 330.997131,294.325195 
	C339.070404,302.727539 347.324188,310.964325 355.719696,319.045074 
	C358.787506,321.997894 364.657684,321.698761 367.200409,319.073090 
	C369.744568,316.445923 369.724304,310.815643 366.948730,307.559692 
	C365.117737,305.411835 362.994690,303.512878 360.501678,301.001709 
z"/>
<path fill="#515763" opacity="1.000000" stroke="none" 
	d="
M313.176239,247.015472 
	C313.121735,259.343353 313.023529,271.671234 313.020447,283.999115 
	C313.008118,333.323578 313.025299,382.648041 313.077087,432.432190 
	C302.719238,432.913666 292.315826,432.935455 281.445312,432.897583 
	C280.985474,318.754272 280.972168,204.670593 281.087952,90.587051 
	C281.091888,86.711723 280.256592,84.751144 276.148041,84.497406 
	C271.699219,84.222656 267.270935,83.562111 262.846344,82.974648 
	C261.290070,82.768013 259.771149,82.279755 258.109863,81.555595 
	C263.918579,81.447868 269.856659,81.634140 275.785706,81.976875 
	C286.343170,82.587158 296.897217,83.262428 307.447296,83.989059 
	C309.049866,84.099442 310.623322,84.631966 312.613708,85.485008 
	C313.069641,88.002159 313.122162,90.003525 313.111664,92.469452 
	C313.034149,117.228920 312.990997,141.523865 313.013702,165.818726 
	C313.033783,187.281631 313.127289,208.744461 313.127716,230.658325 
	C313.103455,236.411362 313.139832,241.713425 313.176239,247.015472 
z"/>
<path fill="#FC6067" opacity="1.000000" stroke="none" 
	d="
M200.595825,85.083443 
	C201.007614,133.304413 200.986191,181.463974 200.507401,230.125946 
	C198.260117,230.962845 196.395508,231.080215 194.692078,231.666138 
	C180.777771,236.452271 166.893539,241.325836 152.955597,245.773041 
	C147.076279,225.208344 144.518707,204.535797 144.109695,183.636047 
	C143.866684,171.218567 144.436401,158.768539 145.082916,146.356171 
	C145.512054,138.117188 146.618011,129.906143 147.614059,121.706055 
	C148.609497,113.511154 149.845276,105.345436 150.975693,97.166931 
	C166.823425,90.899643 183.381897,87.510834 200.595825,85.083443 
z"/>
<path fill="#FC6067" opacity="1.000000" stroke="none" 
	d="
M86.900810,128.981110 
	C98.679588,121.990570 110.401672,114.901505 122.272400,108.070778 
	C125.742859,106.073792 129.636459,104.812172 133.681778,103.605003 
	C129.974930,128.763626 127.098938,153.669144 128.123306,178.786606 
	C128.777481,194.827332 130.267014,210.866974 132.183319,226.810806 
	C133.324402,236.304825 136.017609,245.612320 137.741180,255.202911 
	C123.513954,264.586914 111.344215,275.822723 99.731308,287.810944 
	C84.985565,262.123169 79.342323,234.255676 78.151344,205.420731 
	C77.083130,179.557892 80.563225,154.070297 86.900810,128.981110 
z"/>
<path fill="#FC6067" opacity="1.000000" stroke="none" 
	d="
M48.003365,320.165375 
	C34.478752,316.090515 27.720798,305.745331 22.972546,293.406738 
	C15.788264,274.737976 15.686584,255.129166 17.317949,235.870117 
	C19.629807,208.577515 31.438477,184.674454 48.909943,163.691437 
	C54.022167,157.551727 59.837769,151.997681 65.685051,146.500671 
	C64.980690,156.691330 63.868244,166.551071 62.875389,176.422836 
	C60.957607,195.490997 61.488159,214.529449 64.394958,233.445572 
	C68.083115,257.446442 75.690224,280.140656 87.972153,301.387787 
	C77.161057,313.489685 66.115280,324.432587 48.003365,320.165375 
z"/>
<path fill="#DBE1E7" opacity="1.000000" stroke="none" 
	d="
M313.584564,247.011536 
	C313.139832,241.713425 313.103455,236.411362 313.494873,230.707291 
	C330.265381,233.647598 345.885162,239.132538 361.153442,246.465912 
	C366.213867,249.504059 371.098145,252.257614 376.253235,255.212311 
	C390.477966,264.597748 402.633453,275.847687 414.115662,288.331390 
	C418.123871,292.794983 421.997711,296.952423 426.041504,301.396606 
	C431.816864,306.737213 437.422272,311.791077 443.324097,317.052002 
	C450.303986,321.563568 457.553101,321.742188 465.029480,320.650726 
	C465.033539,334.770416 465.046936,348.434448 465.060303,362.098511 
	C465.381531,384.462006 456.152771,402.623718 439.482971,416.778107 
	C427.126434,427.270050 412.552460,433.254364 395.911530,433.014893 
	C389.580902,432.923798 383.248016,432.991089 376.453247,432.903839 
	C377.310394,432.052704 378.541748,430.996613 379.963562,430.557831 
	C405.147247,422.786102 422.150940,406.600250 429.905701,381.328888 
	C431.775726,375.234802 432.552002,368.666656 432.873779,362.268372 
	C433.358337,352.632996 433.151337,342.950836 432.873016,333.299103 
	C432.816833,331.349792 431.537659,329.064392 430.135101,327.585876 
	C421.357849,318.333466 412.317230,309.331604 403.494324,300.121765 
	C390.592072,286.653625 377.259827,273.798828 360.913086,264.358582 
	C347.532135,256.631073 333.311462,251.326981 318.395569,247.662781 
	C316.960938,247.310349 315.461975,247.219742 313.584564,247.011536 
z"/>
<path fill="#FB4F56" opacity="1.000000" stroke="none" 
	d="
M465.038757,320.195099 
	C457.553101,321.742188 450.303986,321.563568 443.366272,316.720825 
	C446.133484,312.680084 449.504395,309.418457 452.113556,305.631927 
	C461.633423,291.816193 463.636841,275.686920 464.840576,259.637665 
	C466.220093,241.244415 463.574402,223.171875 457.020294,205.829788 
	C455.841370,202.710388 453.849152,199.898361 452.188873,196.481613 
	C451.889832,189.875137 451.867767,183.710831 451.327148,177.592346 
	C450.393677,167.028168 449.138062,156.492447 448.017609,145.944794 
	C461.930267,157.644257 472.557678,171.904709 481.401550,187.716156 
	C489.523529,202.237061 494.935760,217.747192 496.653168,234.080826 
	C497.891022,245.853760 496.533905,257.923340 496.033691,269.847992 
	C495.606415,280.032806 492.979523,289.712433 488.577087,298.954071 
	C483.909851,308.751526 477.410095,316.498810 466.131226,320.036682 
	C465.513580,320.063232 465.038757,320.195099 465.038757,320.195099 
z"/>
<path fill="#DBE0E6" opacity="1.000000" stroke="none" 
	d="
M48.003677,320.618744 
	C66.115280,324.432587 77.161057,313.489685 88.256500,301.221619 
	C92.476303,296.516632 96.241928,292.266022 100.007553,288.015442 
	C111.344215,275.822723 123.513954,264.586914 138.074417,255.106537 
	C143.453079,251.931549 148.226624,249.052200 153.000168,246.172836 
	C166.893539,241.325836 180.777771,236.452271 194.692078,231.666138 
	C196.395508,231.080215 198.260117,230.962845 200.469284,230.561279 
	C200.915497,235.692017 200.942459,240.889801 200.902512,246.551880 
	C186.276443,248.764114 172.905151,254.181992 159.981247,260.699554 
	C141.493927,270.022797 126.145554,283.461945 112.085411,298.448944 
	C104.700371,306.320770 97.815002,314.689636 90.105911,322.221954 
	C80.565125,331.543915 69.292091,337.627625 55.368229,336.968048 
	C53.233891,336.866913 51.118866,336.358002 48.584488,336.023193 
	C48.117374,331.029846 48.060684,326.050964 48.003677,320.618744 
z"/>
<path fill="#FD9499" opacity="1.000000" stroke="none" 
	d="
M448.011658,145.973999 
	C449.138062,156.492447 450.393677,167.028168 451.327148,177.592346 
	C451.867767,183.710831 451.889832,189.875137 452.115570,196.950836 
	C452.276733,234.559387 444.456726,269.201538 425.871521,301.109894 
	C421.997711,296.952423 418.123871,292.794983 414.393829,288.127441 
	C419.370972,275.636230 425.363495,263.969391 428.719452,251.587906 
	C432.244812,238.581207 433.630646,224.936523 435.249481,211.486130 
	C437.199066,195.287491 435.756012,179.115494 433.204224,162.595245 
	C431.171844,151.112991 429.171051,140.078445 427.170258,129.043884 
	C433.705719,134.135437 440.241150,139.226990 447.016632,144.861084 
	C447.526154,145.604477 447.795624,145.805328 448.065125,146.006180 
	C448.065125,146.006180 448.005737,146.003220 448.011658,145.973999 
z"/>
<path fill="#FD9499" opacity="1.000000" stroke="none" 
	d="
M99.731308,287.810944 
	C96.241928,292.266022 92.476303,296.516632 88.426331,300.933380 
	C75.690224,280.140656 68.083115,257.446442 64.394958,233.445572 
	C61.488159,214.529449 60.957607,195.490997 62.875389,176.422836 
	C63.868244,166.551071 64.980690,156.691330 66.003838,146.380753 
	C65.968559,145.935349 65.986328,145.993759 66.192520,145.885437 
	C66.575150,145.485794 66.751587,145.194458 66.928017,144.903122 
	C73.354721,139.617279 79.781425,134.331436 86.554474,129.013336 
	C80.563225,154.070297 77.083130,179.557892 78.151344,205.420731 
	C79.342323,234.255676 84.985565,262.123169 99.731308,287.810944 
z"/>
<path fill="#FD9499" opacity="1.000000" stroke="none" 
	d="
M152.955597,245.773056 
	C148.226624,249.052200 143.453079,251.931549 138.346283,254.907288 
	C136.017609,245.612320 133.324402,236.304825 132.183319,226.810806 
	C130.267014,210.866974 128.777481,194.827332 128.123306,178.786606 
	C127.098938,153.669144 129.974930,128.763626 134.051392,103.586418 
	C139.453430,101.135750 144.831512,99.095161 150.592651,97.110748 
	C149.845276,105.345436 148.609497,113.511154 147.614059,121.706055 
	C146.618011,129.906143 145.512054,138.117188 145.082916,146.356171 
	C144.436401,158.768539 143.866684,171.218567 144.109695,183.636047 
	C144.518707,204.535797 147.076279,225.208344 152.955597,245.773056 
z"/>
<path fill="#FD9499" opacity="1.000000" stroke="none" 
	d="
M375.982422,255.011154 
	C371.098145,252.257614 366.213867,249.504059 361.205109,246.065475 
	C366.878601,225.372406 369.478790,204.858490 369.879272,184.120132 
	C370.141632,170.534927 369.792542,156.893524 368.813660,143.342575 
	C368.007446,132.181580 365.872772,121.116531 364.282410,109.571159 
	C363.843323,105.145897 363.448730,101.158440 363.054108,97.170990 
	C368.444885,99.054535 373.835632,100.938087 379.590149,103.407722 
	C380.976532,109.993256 381.999115,115.992714 383.002258,122.436653 
	C383.990173,140.565735 385.900116,158.258194 385.745911,175.932663 
	C385.597626,192.923706 383.732178,209.943985 381.802185,226.857956 
	C380.720215,236.340256 377.977112,245.632996 375.982422,255.011154 
z"/>
<path fill="#FB5057" opacity="1.000000" stroke="none" 
	d="
M383.021729,121.992165 
	C381.999115,115.992714 380.976532,109.993256 379.914734,103.584763 
	C396.793854,109.238869 412.209015,118.104103 427.018005,128.713470 
	C429.171051,140.078445 431.171844,151.112991 432.874939,162.457794 
	C423.473511,154.102661 414.738159,144.999619 405.140656,136.920792 
	C398.373749,131.224594 390.436462,126.918755 383.021729,121.992165 
z"/>
<path fill="#FB5057" opacity="1.000000" stroke="none" 
	d="
M362.705566,97.005600 
	C363.448730,101.158440 363.843323,105.145897 363.870789,109.561005 
	C362.547485,109.756050 361.559387,109.611435 360.639923,109.277756 
	C344.813141,103.533966 328.994843,97.766876 313.174683,92.004890 
	C313.122162,90.003525 313.069641,88.002159 313.029968,85.573799 
	C322.578918,86.861816 332.193115,88.237114 341.625519,90.403679 
	C348.657837,92.018967 355.455109,94.657417 362.705566,97.005600 
z"/>
<path fill="#DCFFFF" opacity="1.000000" stroke="none" 
	d="
M465.029480,320.650726 
	C465.038757,320.195099 465.513580,320.063232 465.756409,320.105133 
	C465.944794,333.990631 465.890381,347.834229 465.448120,361.888184 
	C465.046936,348.434448 465.033539,334.770416 465.029480,320.650726 
z"/>
<path fill="#FB4F56" opacity="1.000000" stroke="none" 
	d="
M448.009583,145.743561 
	C447.795624,145.805328 447.526154,145.604477 447.170593,145.159607 
	C447.374390,145.104050 447.664215,145.292496 448.009583,145.743561 
z"/>
<path fill="#FC6067" opacity="1.000000" stroke="none" 
	d="
M66.672874,144.989273 
	C66.751587,145.194458 66.575150,145.485794 66.162079,145.885773 
	C66.089539,145.688080 66.253639,145.381760 66.672874,144.989273 
z"/>
<path fill="#DBE1E7" opacity="1.000000" stroke="none" 
	d="
M111.238754,362.738281 
	C109.594360,361.063110 107.970367,359.799286 106.857452,358.183441 
	C104.530441,354.804779 103.683746,351.176056 106.803574,347.754578 
	C109.847664,344.416138 114.771500,343.693085 117.991913,346.757568 
	C126.765976,355.106812 135.530182,363.518433 143.541367,372.574921 
	C145.214478,374.466339 144.745041,379.852234 143.264221,382.517151 
	C141.532333,385.633850 137.422501,386.867432 133.718430,384.303253 
	C131.695389,382.902771 129.819183,381.245575 128.058685,379.518738 
	C122.489906,374.056213 117.006851,368.506287 111.238754,362.738281 
z"/>
<path fill="#DBE1E7" opacity="1.000000" stroke="none" 
	d="
M153.680725,320.979034 
	C149.909042,321.136108 146.247131,320.601807 145.734451,316.905945 
	C145.302673,313.793243 145.657578,309.445953 147.549545,307.334442 
	C155.087021,298.922333 163.271881,291.077759 171.407288,283.219971 
	C174.746246,279.994934 179.641296,280.251556 182.679672,283.246368 
	C185.711517,286.234741 186.047607,291.195740 182.847229,294.511902 
	C174.877518,302.769928 166.706207,310.836060 158.492325,318.852661 
	C157.387939,319.930542 155.571304,320.278595 153.680725,320.979034 
z"/>
<path fill="#DBE1E7" opacity="1.000000" stroke="none" 
	d="
M389.749329,375.750488 
	C387.137604,378.345581 384.906616,380.843414 382.383759,382.999756 
	C378.605774,386.228943 373.713470,386.127563 370.739899,383.037231 
	C367.696808,379.874603 367.361786,375.550690 370.834564,371.898743 
	C378.972900,363.340607 387.349274,354.996826 395.891510,346.840912 
	C399.161407,343.718933 403.931793,344.406952 407.138306,347.657257 
	C409.995697,350.553772 409.917236,355.338287 406.548279,358.867493 
	C401.149048,364.523560 395.527161,369.967010 389.749329,375.750488 
z"/>
<path fill="#DBE1E7" opacity="1.000000" stroke="none" 
	d="
M360.752014,301.252075 
	C362.994690,303.512878 365.117737,305.411835 366.948730,307.559692 
	C369.724304,310.815643 369.744568,316.445923 367.200409,319.073090 
	C364.657684,321.698761 358.787506,321.997894 355.719696,319.045074 
	C347.324188,310.964325 339.070404,302.727539 330.997131,294.325195 
	C327.851318,291.051178 328.378052,285.942688 331.498962,283.067108 
	C334.623566,280.188141 339.399933,280.139343 342.795990,283.388397 
	C348.810150,289.142151 354.611359,295.118500 360.752014,301.252075 
z"/>
<path fill="#FC6067" opacity="1.000000" stroke="none" 
	d="
M313.111664,92.469452 
	C328.994843,97.766876 344.813141,103.533966 360.639923,109.277756 
	C361.559387,109.611435 362.547485,109.756050 363.915222,109.998810 
	C365.872772,121.116531 368.007446,132.181580 368.813660,143.342575 
	C369.792542,156.893524 370.141632,170.534927 369.879272,184.120132 
	C369.478790,204.858490 366.878601,225.372406 361.028992,245.780884 
	C345.885162,239.132538 330.265381,233.647598 313.555511,230.256287 
	C313.127289,208.744461 313.033783,187.281631 313.013702,165.818726 
	C312.990997,141.523865 313.034149,117.228920 313.111664,92.469452 
z"/>
<path fill="#FC6067" opacity="1.000000" stroke="none" 
	d="
M383.002258,122.436653 
	C390.436462,126.918755 398.373749,131.224594 405.140656,136.920792 
	C414.738159,144.999619 423.473511,154.102661 432.906555,162.905502 
	C435.756012,179.115494 437.199066,195.287491 435.249481,211.486130 
	C433.630646,224.936523 432.244812,238.581207 428.719452,251.587906 
	C425.363495,263.969391 419.370972,275.636230 414.259460,287.821289 
	C402.633453,275.847687 390.477966,264.597748 376.253235,255.212311 
	C377.977112,245.632996 380.720215,236.340256 381.802185,226.857956 
	C383.732178,209.943985 385.597626,192.923706 385.745911,175.932663 
	C385.900116,158.258194 383.990173,140.565735 383.002258,122.436653 
z"/>
<path fill="#FC6067" opacity="1.000000" stroke="none" 
	d="
M426.041504,301.396606 
	C444.456726,269.201538 452.276733,234.559387 452.159149,197.413635 
	C453.849152,199.898361 455.841370,202.710388 457.020294,205.829788 
	C463.574402,223.171875 466.220093,241.244415 464.840576,259.637665 
	C463.636841,275.686920 461.633423,291.816193 452.113556,305.631927 
	C449.504395,309.418457 446.133484,312.680084 443.069916,316.513763 
	C437.422272,311.791077 431.816864,306.737213 426.041504,301.396606 
z"/>
</svg>