<svg version="1.1" id="Layer_1" xmlns="http://www.w3.org/2000/svg" xmlns:xlink="http://www.w3.org/1999/xlink" x="0px" y="0px"
	 width="100%" viewBox="0 0 512 512" xml:space="preserve">

<path fill="#D9311B" opacity="1.000000" stroke="none" 
	d="
M310.979004,377.029083 
	C320.176147,372.992096 329.434052,369.086884 338.552673,364.879700 
	C347.055573,360.956604 355.142395,355.936066 363.931549,352.903076 
	C369.136292,351.107025 375.347107,352.226501 381.778473,352.390137 
	C398.578918,357.192719 410.014832,366.867584 414.455536,383.252472 
	C416.074371,389.225433 415.627838,395.758118 416.123596,402.035461 
	C413.303406,416.654480 405.283661,427.083282 392.000397,434.109955 
	C370.267059,445.606628 347.195099,453.046051 323.231354,457.762634 
	C313.770020,459.624847 304.032013,460.388733 294.380096,460.901489 
	C280.647461,461.631012 266.825531,462.570343 253.137619,461.773285 
	C235.811218,460.764343 218.568665,458.203674 201.316650,456.093903 
	C195.837646,455.423889 190.444000,454.055908 184.310455,452.739960 
	C163.398026,447.806763 143.668854,441.687225 124.754936,433.072662 
	C123.286491,432.403809 121.591438,432.232513 120.001709,431.829956 
	C106.343819,423.210815 92.003448,415.481964 79.239044,405.697205 
	C68.587189,397.531891 59.516617,387.204895 50.301285,377.317444 
	C47.026188,373.803497 44.379040,369.015259 43.225010,364.366852 
	C41.247154,356.400055 51.247845,352.124451 57.582718,355.109558 
	C70.440987,361.168701 83.325241,367.385406 96.720436,372.033997 
	C110.835197,376.932312 125.402641,380.862946 140.059189,383.769928 
	C155.130341,386.759094 170.549393,387.990601 185.811523,390.026459 
	C187.254333,390.218903 188.663696,390.662292 190.915375,391.079987 
	C220.730789,393.837769 249.633957,393.342468 278.165619,387.267944 
	C288.620575,385.042023 298.688965,381.000610 309.252869,377.862885 
	C310.070374,377.619812 310.568726,377.301208 311.033325,376.971985 
	C310.999573,376.961395 310.979004,377.029083 310.979004,377.029083 
z"/>
<path fill="#3F9109" opacity="1.000000" stroke="none" 
	d="
M308.933716,377.787354 
	C298.688965,381.000610 288.620575,385.042023 278.165619,387.267944 
	C249.633957,393.342468 220.730789,393.837769 191.334976,391.043945 
	C196.244751,386.494659 201.785187,382.311859 206.835297,377.603180 
	C220.124863,365.212128 233.349136,352.743195 246.322571,340.022919 
	C260.419434,326.201111 272.055878,310.349518 282.686005,293.788971 
	C297.282227,271.049591 309.053986,246.991867 316.275543,220.805771 
	C319.406372,209.452988 325.688080,200.143860 336.939209,194.006058 
	C338.835358,193.281601 340.085785,192.831635 341.305084,192.309128 
	C358.485168,184.946945 377.521637,188.894424 390.243805,202.436188 
	C392.052612,204.361542 393.973755,206.181381 395.842896,208.050064 
	C406.327179,225.946106 402.333740,243.364456 394.626862,260.972076 
	C384.044281,285.149597 370.586548,307.584167 354.640991,328.517395 
	C348.445190,336.651276 341.543121,344.280029 334.596161,351.800171 
	C326.851685,360.183685 318.690002,368.181824 310.844452,376.688416 
	C310.979004,377.029083 310.999573,376.961395 310.767914,376.747223 
	C310.002075,376.951141 309.467896,377.369263 308.933716,377.787354 
z"/>
<path fill="#276E04" opacity="1.000000" stroke="none" 
	d="
M395.937317,207.635864 
	C393.973755,206.181381 392.052612,204.361542 390.243805,202.436188 
	C377.521637,188.894424 358.485168,184.946945 341.305084,192.309128 
	C340.085785,192.831635 338.835358,193.281601 337.238068,193.841934 
	C337.882874,181.767700 347.646332,171.126755 360.320740,169.135178 
	C364.873688,168.419754 366.700806,166.094711 366.899689,162.061935 
	C368.232819,135.028931 365.826172,108.660011 352.642395,84.283142 
	C351.539154,82.243263 350.162476,80.343292 349.154755,78.261230 
	C345.818085,71.367287 348.184967,63.663399 354.551331,60.349834 
	C360.499359,57.254002 368.202576,59.345272 371.740448,65.717712 
	C379.857269,80.337776 384.980530,95.955421 387.085754,112.639679 
	C389.469482,131.531204 387.425079,149.998932 382.905121,168.305695 
	C382.242432,170.989700 382.865845,172.386475 385.058014,174.072845 
	C395.802704,182.338684 399.129364,191.714523 395.937317,207.635864 
z"/>
<path fill="#276E04" opacity="1.000000" stroke="none" 
	d="
M416.419434,401.880249 
	C415.627838,395.758118 416.074371,389.225433 414.455536,383.252472 
	C410.014832,366.867584 398.578918,357.192719 382.244507,352.458588 
	C391.961792,344.677551 402.730438,343.828125 413.938263,348.582489 
	C416.936432,349.854279 418.261719,348.385773 419.818604,346.663757 
	C434.611908,330.301117 445.880249,312.018311 450.842865,290.223236 
	C452.615204,282.439392 459.324707,278.411346 466.908234,280.168488 
	C473.628448,281.725586 477.763672,288.723633 475.679749,296.200806 
	C470.209808,315.827301 460.867798,333.448975 446.962158,348.433014 
	C442.229462,353.532776 436.679474,357.872223 431.918793,362.949066 
	C430.673157,364.277466 430.505676,367.105011 430.669434,369.178833 
	C431.249573,376.526550 432.176025,384.054749 427.645874,390.397339 
	C424.629150,394.620972 420.401123,397.979370 416.419434,401.880249 
z"/>
<path fill="#3F9109" opacity="1.000000" stroke="none" 
	d="
M119.682220,432.003021 
	C121.591438,432.232513 123.286491,432.403809 124.754936,433.072662 
	C143.668854,441.687225 163.398026,447.806763 183.921997,452.700256 
	C170.542221,456.940948 156.991974,461.557556 143.123001,464.818695 
	C124.575798,469.179810 105.613029,470.647552 86.538765,469.966187 
	C83.087196,469.842896 79.555153,469.654175 76.233032,468.813171 
	C72.092735,467.764984 69.373459,464.953400 69.015526,460.398773 
	C68.518013,454.068146 70.413193,450.169861 75.440636,448.329071 
	C80.058868,446.638153 84.944183,445.669250 89.543396,443.935425 
	C99.540154,440.166779 109.429489,436.113190 119.682220,432.003021 
z"/>
<path fill="#000000" opacity="1.000000" stroke="none" 
	d="
M309.252869,377.862885 
	C309.467896,377.369263 310.002075,376.951141 310.801666,376.757812 
	C310.568726,377.301208 310.070374,377.619812 309.252869,377.862885 
z"/>
</svg>