<svg version="1.1" id="Layer_1" xmlns="http://www.w3.org/2000/svg" xmlns:xlink="http://www.w3.org/1999/xlink" x="0px" y="0px"
	 width="100%" viewBox="0 0 512 512" xml:space="preserve">

<path fill="#DEF5FC" opacity="1.000000" stroke="none" 
	d="
M405.990417,473.950195 
	C393.504700,474.027710 381.017365,474.254547 368.534027,474.116791 
	C362.726807,474.052673 358.298676,475.388855 357.223389,481.858887 
	C350.628815,481.858887 344.339050,481.858887 338.109009,481.858887 
	C335.277039,475.086304 333.905426,474.185059 326.425964,474.184753 
	C247.637131,474.181702 168.847687,474.014191 90.059845,474.293823 
	C68.638954,474.369873 54.022717,465.227570 45.126347,445.905670 
	C37.349323,429.014832 29.081841,412.349854 21.044397,395.578705 
	C20.346075,394.121613 19.747427,392.616699 18.913855,390.700317 
	C163.633667,390.700317 307.866669,390.700317 452.417175,391.144348 
	C450.485840,396.554016 448.237030,401.519653 445.589111,406.591431 
	C436.867859,407.496002 434.414734,412.767944 438.876038,420.276978 
	C437.466858,423.310822 436.321472,426.084747 434.919037,428.722046 
	C428.612579,440.581360 422.522644,452.572266 415.716919,464.140533 
	C413.454224,467.986633 409.286987,470.712280 405.990417,473.950195 
M251.596313,406.734070 
	C250.099533,406.735443 248.600647,406.685822 247.106354,406.747620 
	C242.339661,406.944672 239.233917,409.692017 239.052460,413.819397 
	C238.872269,417.917999 241.832886,421.420654 246.451309,421.620697 
	C253.422150,421.922638 260.423981,421.916595 267.396271,421.635223 
	C272.111603,421.444946 275.043549,418.112579 274.947571,413.966919 
	C274.852234,409.848846 271.721802,406.887451 267.036835,406.766266 
	C262.217041,406.641571 257.391571,406.735718 251.596313,406.734070 
M415.792328,421.700958 
	C421.217621,420.142090 423.496399,417.463928 423.006042,413.222870 
	C422.517090,408.993774 419.486908,406.787842 413.938965,406.744659 
	C408.113861,406.699280 402.287903,406.702606 396.462738,406.744659 
	C390.657318,406.786560 387.176331,409.593445 387.175629,414.136566 
	C387.174927,418.644836 390.729156,421.656006 396.440063,421.744415 
	C402.596863,421.839722 408.756348,421.759033 415.792328,421.700958 
M314.145630,421.766052 
	C321.074768,421.467926 324.226868,419.062897 324.204285,414.091339 
	C324.181396,409.045258 321.030029,406.755920 314.038757,406.738220 
	C308.553894,406.724335 303.068665,406.698151 297.584198,406.746735 
	C291.737335,406.798553 288.405518,409.576019 288.476227,414.230988 
	C288.545776,418.812805 291.966919,421.649689 297.766144,421.747803 
	C302.917145,421.835052 308.070770,421.766479 314.145630,421.766052 
M355.502625,421.768372 
	C359.158264,421.738586 362.835022,421.944489 366.464203,421.619354 
	C370.990997,421.213745 374.036438,417.650970 373.745392,413.663330 
	C373.460083,409.754517 370.401276,406.862732 366.010315,406.778076 
	C359.198090,406.646698 352.379333,406.644501 345.567383,406.784576 
	C340.977539,406.878967 338.171631,409.566284 337.927856,413.643677 
	C337.672058,417.922302 340.387177,421.160950 345.057434,421.631195 
	C348.185486,421.946136 351.365936,421.740845 355.502625,421.768372 
M200.653259,406.735382 
	C199.988754,406.735565 199.323761,406.719391 198.659805,406.738556 
	C192.810028,406.907257 189.926651,409.234772 189.796738,413.884308 
	C189.662521,418.687897 192.838074,421.632812 198.640411,421.732758 
	C205.116257,421.844330 211.606079,421.933044 218.070892,421.629150 
	C222.720963,421.410522 225.646103,418.025909 225.507034,413.885071 
	C225.366547,409.700806 222.343292,406.881073 217.560379,406.771973 
	C212.247070,406.650787 206.929001,406.738617 200.653259,406.735382 
M108.503616,406.734100 
	C105.179153,406.740082 101.850098,406.637756 98.531349,406.778412 
	C94.024666,406.969452 91.090454,409.691650 90.981026,413.734772 
	C90.864861,418.027222 93.107010,421.140106 97.227303,421.377380 
	C104.998001,421.824799 112.835960,421.824005 120.602699,421.329681 
	C124.750458,421.065704 127.056595,417.716278 126.698563,413.569672 
	C126.346329,409.490295 123.813965,406.920013 119.465446,406.783020 
	C116.144096,406.678314 112.817375,406.744141 108.503616,406.734100 
M157.506958,406.734100 
	C154.183228,406.744781 150.856903,406.676788 147.536392,406.785767 
	C143.170029,406.929016 140.675125,409.562103 140.352158,413.620544 
	C140.023605,417.749359 142.339828,421.096588 146.501190,421.350067 
	C154.268860,421.823212 162.105072,421.826263 169.873581,421.364899 
	C174.003983,421.119598 176.302933,417.967499 176.024918,413.686493 
	C175.748718,409.433289 173.223633,407.027130 168.964340,406.803558 
	C165.483353,406.620880 161.986206,406.745667 157.506958,406.734100 
M41.576900,414.372375 
	C42.008408,419.202667 44.957787,421.544159 49.499096,421.685120 
	C56.152901,421.891663 62.824856,421.921906 69.475945,421.674316 
	C74.545593,421.485596 77.446060,418.268799 77.258476,413.784851 
	C77.077477,409.458191 74.242416,406.852966 69.253815,406.767700 
	C62.761570,406.656738 56.265961,406.755524 49.771904,406.733978 
	C45.072021,406.718384 42.226841,408.852875 41.576900,414.372375 
z"/>
<path fill="#FADCAE" opacity="1.000000" stroke="none" 
	d="
M381.881165,349.625031 
	C364.109100,347.256165 353.620056,355.122284 347.701019,375.441406 
	C323.991882,375.441406 300.212402,375.441406 275.666565,375.441406 
	C276.549683,368.434692 271.262360,364.717224 266.971527,360.393188 
	C262.158661,355.543060 257.366211,350.670166 252.455368,345.920349 
	C246.817886,340.467712 240.966614,340.459839 235.322830,345.957123 
	C228.876617,352.235931 222.352386,358.461456 216.317871,365.123016 
	C213.906540,367.784912 212.712845,371.549805 210.615982,375.463837 
	C200.967346,375.463837 190.183746,375.463837 179.094345,375.463837 
	C178.735168,374.304169 178.332764,373.062317 177.965469,371.810181 
	C174.443665,359.804291 163.722565,351.700531 151.241165,351.617157 
	C139.014862,351.535492 127.962753,359.283386 124.626289,371.128235 
	C123.499077,375.130005 121.787941,375.797607 118.118408,375.758850 
	C100.620987,375.574005 83.120544,375.676056 65.621170,375.676056 
	C63.985752,375.676056 62.350334,375.676056 60.826065,375.676056 
	C58.101013,364.182465 65.583595,354.026611 77.602325,352.309082 
	C86.515015,351.035431 88.065147,348.787964 86.007271,340.123413 
	C82.465431,325.210724 95.136932,312.611145 110.015381,316.251556 
	C118.387497,318.300018 120.354027,316.840118 122.296448,308.273773 
	C123.075409,304.838440 124.903603,301.641022 126.782387,297.042603 
	C131.016357,301.487732 134.198898,305.022888 137.589783,308.345398 
	C143.263306,313.904510 149.407913,313.883514 155.115707,308.307953 
	C160.718536,302.834900 166.204865,297.242615 171.742386,291.702728 
	C179.393524,284.048370 179.806229,280.878998 174.336899,271.777222 
	C182.595261,268.656372 191.073929,271.027924 196.400650,277.973450 
	C197.005951,278.762726 197.500717,279.637054 198.042557,280.474609 
	C200.056564,283.587799 202.817413,285.075531 206.536575,284.168152 
	C210.040405,283.313232 211.566360,280.874817 212.186996,277.397583 
	C214.035767,267.039368 219.984680,260.922729 229.073608,259.698669 
	C237.973969,258.500000 244.904297,262.849426 249.997711,271.823425 
	C251.320328,274.153687 254.617828,276.712372 257.005371,276.709595 
	C259.394745,276.706787 261.998352,273.855042 264.094330,271.824982 
	C265.591187,270.375214 266.404572,268.219727 268.145203,266.363281 
	C278.142334,270.546417 287.500610,274.783264 296.906952,278.910553 
	C298.656372,279.678162 300.599152,280.005005 302.452698,280.535278 
	C302.452698,280.535278 302.220612,280.488739 302.315308,280.821198 
	C302.689117,281.402802 302.968231,281.651947 303.247345,281.901093 
	C305.255920,282.790344 307.264496,283.679626 309.746796,285.000610 
	C316.518951,289.640137 323.091156,293.496094 329.053345,298.135925 
	C338.635437,305.592773 347.814362,313.567688 357.061005,321.656555 
	C353.697784,329.155853 356.696289,333.899872 364.564758,334.040680 
	C366.703430,334.078949 368.841370,334.159027 371.033783,334.549500 
	C374.685669,339.794373 378.283417,344.709686 381.881165,349.625031 
M309.357971,356.193909 
	C316.585144,349.061798 323.933319,342.046936 330.998047,334.757416 
	C335.919159,329.679749 335.762329,323.456360 330.797913,318.342285 
	C324.418793,311.770905 317.934418,305.297821 311.368927,298.912445 
	C305.806427,293.502594 299.872772,293.570221 294.246887,299.064423 
	C287.813324,305.347443 281.451782,311.707062 275.169128,318.140961 
	C269.727905,323.713165 269.711090,329.658661 275.157501,335.266174 
	C281.422699,341.716766 287.843231,348.016693 294.205109,354.373230 
	C298.493256,358.657745 303.346466,359.470184 309.357971,356.193909 
M199.028564,316.206390 
	C203.014038,320.100128 216.411804,321.585876 220.317139,317.971924 
	C222.072693,316.347351 223.577042,312.857391 223.037292,310.772552 
	C222.438522,308.459656 219.677216,305.779022 217.314865,305.072327 
	C213.948715,304.065277 210.085373,304.586792 206.439774,304.675812 
	C199.469925,304.846008 196.887772,308.508942 199.028564,316.206390 
M108.281075,340.684662 
	C112.008598,345.185791 125.853073,347.180389 130.086487,343.211243 
	C131.901443,341.509613 133.267227,337.745728 132.666626,335.499054 
	C132.073685,333.280914 128.997406,330.946838 126.544113,330.203918 
	C123.500458,329.282196 119.976761,329.894775 116.661385,329.931732 
	C109.720909,330.009094 107.214447,332.927704 108.281075,340.684662 
z"/>
<path fill="#FD7C43" opacity="1.000000" stroke="none" 
	d="
M301.946320,195.325089 
	C292.798157,195.444214 283.646484,195.767807 274.503052,195.611526 
	C268.269714,195.504959 262.958923,196.180618 262.153931,203.844116 
	C255.605118,203.844116 249.471771,203.844116 242.889587,203.844116 
	C242.028214,196.028687 236.441147,194.859451 230.126846,195.746140 
	C214.654907,197.918777 204.566254,191.759048 197.865768,177.640747 
	C192.914948,167.209106 186.143173,157.641663 179.723343,146.922256 
	C182.240356,146.922256 183.980576,146.922241 185.720779,146.922241 
	C229.367294,146.922226 273.014160,146.833786 316.660034,146.999054 
	C325.089264,147.030960 332.319580,144.869705 338.578735,139.145325 
	C342.506378,135.553238 346.746246,132.299332 350.888489,128.946198 
	C353.972931,126.449379 354.661804,123.429024 353.803223,119.588242 
	C353.496918,118.218063 354.311951,116.140396 355.323334,115.031754 
	C357.178558,112.998222 359.797424,111.664360 361.668304,109.641479 
	C364.827209,106.225853 367.632324,104.377670 372.558990,107.188942 
	C374.183990,108.116196 378.280029,106.192947 380.407837,104.511894 
	C391.773468,95.532578 402.873596,86.217232 414.434326,77.258995 
	C413.994415,78.705322 413.343536,80.062401 412.352814,81.092743 
	C402.109161,91.746376 391.861877,102.397484 381.516479,112.952164 
	C361.044189,133.838562 340.453400,154.609116 320.033783,175.546722 
	C313.799347,181.939301 307.964264,188.721375 301.946320,195.325089 
z"/>
<path fill="#FAD599" opacity="1.000000" stroke="none" 
	d="
M382.182739,349.777161 
	C378.283417,344.709686 374.685669,339.794373 371.438599,334.467041 
	C376.458313,334.237518 380.112030,332.751373 380.981750,327.678314 
	C381.664337,323.696747 379.833130,320.174774 376.002960,319.640717 
	C369.725525,318.765411 363.123566,317.379486 357.163605,321.323700 
	C347.814362,313.567688 338.635437,305.592773 329.053345,298.135925 
	C323.091156,293.496094 316.518951,289.640137 310.066528,285.113892 
	C312.165222,282.983521 314.908997,281.536804 316.578552,279.291351 
	C321.610748,272.523529 327.995789,269.175385 336.380615,270.614136 
	C344.822266,272.062561 350.401917,277.866791 352.205994,286.447083 
	C353.890747,294.459869 357.216461,296.249359 364.972046,293.316132 
	C377.339783,288.638611 389.757233,295.832825 391.879730,308.905518 
	C393.115540,316.517181 395.954132,318.316498 403.632782,316.355560 
	C418.965576,312.439850 431.746063,325.270081 427.868378,340.685547 
	C425.904144,348.494385 427.811432,351.228668 435.942474,352.260681 
	C447.968353,353.787048 455.065430,362.873260 453.586578,375.292969 
	C437.255066,375.292969 420.870941,375.292969 404.262238,375.292969 
	C402.285126,362.448547 395.602539,353.406158 382.182739,349.777161 
z"/>
<path fill="#F96830" opacity="1.000000" stroke="none" 
	d="
M302.394592,195.470627 
	C307.964264,188.721375 313.799347,181.939301 320.033783,175.546722 
	C340.453400,154.609116 361.044189,133.838562 381.516479,112.952164 
	C391.861877,102.397484 402.109161,91.746376 412.352814,81.092743 
	C413.343536,80.062401 413.994415,78.705322 414.747314,77.146545 
	C414.691589,76.793182 414.745392,76.822418 415.012695,76.767868 
	C415.500885,76.413383 415.721771,76.113449 415.942688,75.813507 
	C415.942688,75.813515 415.956512,75.950325 416.140686,75.840790 
	C416.542328,75.444817 416.759796,75.158379 416.977295,74.871933 
	C430.399384,63.709347 443.548279,52.186596 457.443085,41.647194 
	C460.757324,39.133327 466.561829,39.902565 471.220978,39.161758 
	C471.397247,39.565472 471.573517,39.969185 471.749786,40.372898 
	C470.867432,41.424347 470.047424,42.536308 469.093811,43.518600 
	C422.242493,91.781548 375.266418,139.924347 328.631927,188.395767 
	C321.041229,196.285446 312.166687,195.853897 302.394592,195.470627 
z"/>
<path fill="#C6EDFC" opacity="1.000000" stroke="none" 
	d="
M445.988251,406.485291 
	C448.237030,401.519653 450.485840,396.554016 452.873474,391.263519 
	C454.331818,390.845703 455.651215,390.674103 456.970886,390.671936 
	C469.431885,390.651398 481.892914,390.659760 494.897858,390.659760 
	C494.339447,392.184357 494.016693,393.355957 493.499542,394.434296 
	C484.823059,412.526337 476.199982,430.644562 467.404358,448.678619 
	C459.195526,465.509644 445.664917,474.094727 426.867188,474.180481 
	C420.214691,474.210846 413.561859,474.170135 406.449829,474.056030 
	C409.286987,470.712280 413.454224,467.986633 415.716919,464.140533 
	C422.522644,452.572266 428.612579,440.581360 434.919037,428.722046 
	C436.321472,426.084747 437.466858,423.310822 439.240845,420.393311 
	C447.920685,420.705933 456.084930,421.475586 464.261963,421.651978 
	C469.315857,421.760986 472.384003,418.515228 472.408875,414.178497 
	C472.435120,409.601685 469.311829,406.858002 463.837738,406.746063 
	C457.888641,406.624359 451.938141,406.569366 445.988251,406.485291 
z"/>
<path fill="#FADCAE" opacity="1.000000" stroke="none" 
	d="
M288.992493,131.748718 
	C279.628296,131.802429 270.264099,131.856125 260.344238,131.669922 
	C259.623291,131.234589 259.418701,131.097931 259.174835,131.020035 
	C257.955414,125.812302 254.618073,123.586273 249.357697,123.950760 
	C247.702652,124.065437 246.032928,123.966438 244.369934,123.968712 
	C236.404297,123.979614 235.397064,124.643013 232.545807,131.723846 
	C218.126877,131.723846 203.723785,131.723846 189.003082,131.723846 
	C190.427170,125.959175 193.897232,122.584045 199.199066,120.996613 
	C207.055603,118.644264 207.977051,117.127876 206.798187,108.780891 
	C206.534332,106.912613 206.759445,104.975273 206.759445,101.429794 
	C211.604645,106.511284 215.292725,110.552856 219.169067,114.405014 
	C225.397598,120.594711 231.198730,120.651543 237.375900,114.601517 
	C243.553574,108.550995 249.682190,102.446983 255.692154,96.230919 
	C257.269043,94.599960 258.326233,92.466553 260.114136,90.431503 
	C265.406464,95.536148 270.206726,100.773178 274.643463,106.109291 
	C268.609497,107.388184 265.818176,110.237961 266.222900,114.434258 
	C266.639954,118.758911 269.912384,121.176476 275.543274,121.255302 
	C279.020203,121.303986 282.498108,121.280945 285.988251,121.653275 
	C286.998108,125.260529 287.995300,128.504623 288.992493,131.748718 
z"/>
<path fill="#F7D298" opacity="1.000000" stroke="none" 
	d="
M289.454468,131.833710 
	C287.995300,128.504623 286.998108,125.260529 286.326599,121.514481 
	C290.757111,119.362259 292.833435,116.322502 291.759430,111.991737 
	C290.678101,107.631599 287.211823,106.201263 282.962860,106.225960 
	C280.311371,106.241379 277.658966,106.087891 275.006958,106.010208 
	C270.206726,100.773178 265.406464,95.536148 260.307617,90.149399 
	C259.810577,87.407959 259.612152,84.816231 259.378326,81.762413 
	C264.732758,82.508713 268.177185,85.560394 270.398041,90.313568 
	C274.029816,98.086380 277.387482,99.012749 284.638092,94.317390 
	C290.052521,90.811096 295.675842,90.617950 301.019104,94.160614 
	C306.169342,97.575279 308.260986,102.592842 307.254486,108.825356 
	C305.923431,117.067558 306.964386,118.645325 314.843903,120.993622 
	C319.784851,122.466148 323.186066,125.545052 325.096161,131.918701 
	C313.045197,131.918701 301.480835,131.918701 289.454468,131.833710 
z"/>
<path fill="#FAD599" opacity="1.000000" stroke="none" 
	d="
M302.355072,280.155579 
	C300.599152,280.005005 298.656372,279.678162 296.906952,278.910553 
	C287.500610,274.783264 278.142334,270.546417 268.447327,266.199158 
	C273.268372,259.894196 280.026733,258.319916 287.389313,260.195770 
	C294.655884,262.047180 299.389618,266.978638 301.208649,274.412537 
	C301.641144,276.180054 301.912170,277.987061 302.355072,280.155579 
z"/>
<path fill="#9DDE2D" opacity="1.000000" stroke="none" 
	d="
M223.931473,77.027946 
	C225.365280,75.484528 226.799072,73.941109 228.091415,72.549965 
	C233.167450,77.672050 237.940109,82.488007 242.541885,87.131508 
	C237.798355,91.756264 232.860809,96.570183 227.019943,102.264824 
	C226.351959,101.320633 225.200684,99.693275 224.070038,97.445267 
	C226.693802,93.703102 231.433975,90.510246 231.332748,87.479042 
	C231.218750,84.064812 226.742126,80.796791 224.167023,77.462151 
	C224.067657,77.333504 224.009064,77.173401 223.931473,77.027946 
z"/>
<path fill="#F99437" opacity="1.000000" stroke="none" 
	d="
M141.809357,270.577667 
	C143.236664,269.022675 144.663956,267.467651 146.119873,265.881470 
	C151.116180,270.989838 155.841614,275.821259 160.391968,280.473663 
	C155.662140,284.952820 150.681290,289.669708 145.303391,294.762604 
	C144.948410,294.423431 143.564957,293.101654 142.198044,291.149017 
	C144.056778,288.596466 145.802307,286.568909 147.764160,284.778320 
	C150.603317,282.187042 150.597443,279.869354 147.797195,277.212860 
	C145.642319,275.168640 143.793991,272.801331 141.809357,270.577667 
z"/>
<path fill="#B5E568" opacity="1.000000" stroke="none" 
	d="
M223.627121,77.148430 
	C224.009064,77.173401 224.067657,77.333504 224.167023,77.462151 
	C226.742126,80.796791 231.218750,84.064812 231.332748,87.479042 
	C231.433975,90.510246 226.693802,93.703102 223.929398,97.156136 
	C220.453018,94.089256 217.137924,90.690849 213.188721,86.642410 
	C216.555176,83.528603 219.938965,80.398758 223.627121,77.148430 
z"/>
<path fill="#FDA85B" opacity="1.000000" stroke="none" 
	d="
M141.504852,270.734924 
	C143.793991,272.801331 145.642319,275.168640 147.797195,277.212860 
	C150.597443,279.869354 150.603317,282.187042 147.764160,284.778320 
	C145.802307,286.568909 144.056778,288.596466 142.063446,290.826538 
	C138.456940,287.846558 135.001572,284.558136 131.117767,280.862030 
	C134.682755,277.336884 137.941544,274.114532 141.504852,270.734924 
z"/>
<path fill="#99D92E" opacity="1.000000" stroke="none" 
	d="
M404.875916,288.795166 
	C406.299835,287.202454 407.723785,285.609711 408.939270,284.250122 
	C413.925781,289.327850 418.746887,294.237183 423.869171,299.453156 
	C421.868683,304.657135 417.375610,301.050751 413.299561,300.439117 
	C412.233765,298.387268 411.800842,296.624756 410.787506,295.309296 
	C409.003937,292.993927 406.865692,290.951721 404.875916,288.795166 
z"/>
<path fill="#99D92E" opacity="1.000000" stroke="none" 
	d="
M238.859116,363.882751 
	C240.398270,362.207367 241.937408,360.532013 243.312302,359.035431 
	C248.373322,364.221680 253.238144,369.206879 259.111481,375.225586 
	C254.963165,375.383331 251.388672,375.519257 247.398743,375.170715 
	C247.066528,368.986023 242.037827,367.129974 238.859116,363.882751 
z"/>
<path fill="#B5E568" opacity="1.000000" stroke="none" 
	d="
M238.556213,364.023865 
	C242.037827,367.129974 247.066528,368.986023 246.960266,375.044250 
	C241.007721,375.533234 234.987640,376.709991 229.256348,374.552094 
	C228.939590,373.995514 228.622833,373.438904 228.306076,372.882294 
	C231.621826,369.976532 234.937576,367.070770 238.556213,364.023865 
z"/>
<path fill="#FD7C43" opacity="1.000000" stroke="none" 
	d="
M378.906464,375.433655 
	C375.282471,375.516571 371.658661,375.607239 368.034424,375.678345 
	C366.731201,375.703918 365.427032,375.682434 364.128815,375.682434 
	C364.046234,369.617493 366.906708,366.470490 374.652649,364.641113 
	C376.358368,368.475891 377.632416,371.954773 378.906464,375.433655 
z"/>
<path fill="#DF5E2C" opacity="1.000000" stroke="none" 
	d="
M379.345032,375.566101 
	C377.632416,371.954773 376.358368,368.475891 375.008209,364.663727 
	C382.689362,363.983429 387.509796,367.853821 388.598816,375.698547 
	C385.628021,375.698547 382.705811,375.698547 379.345032,375.566101 
z"/>
<path fill="#E36E3B" opacity="1.000000" stroke="none" 
	d="
M153.027115,375.454468 
	C148.553299,375.454468 144.079483,375.454468 138.957626,375.454468 
	C140.694427,370.338226 144.047348,367.582336 149.718750,367.174500 
	C151.169449,370.190918 152.098282,372.822693 153.027115,375.454468 
z"/>
<path fill="#B5E568" opacity="1.000000" stroke="none" 
	d="
M404.545410,288.955383 
	C406.865692,290.951721 409.003937,292.993927 410.787506,295.309296 
	C411.800842,296.624756 412.233765,298.387268 412.901642,300.308105 
	C410.577576,300.667725 408.279907,300.667725 405.629547,300.667725 
	C404.336365,298.067200 402.971497,295.322449 401.419250,292.200958 
	C402.282043,291.248749 403.248474,290.182159 404.545410,288.955383 
z"/>
<path fill="#F96830" opacity="1.000000" stroke="none" 
	d="
M153.464264,375.552734 
	C152.098282,372.822693 151.169449,370.190918 150.103226,367.230164 
	C157.056152,366.705048 160.820938,369.146545 162.824356,375.650970 
	C159.759476,375.650970 156.830429,375.650970 153.464264,375.552734 
z"/>
<path fill="#FAD599" opacity="1.000000" stroke="none" 
	d="
M303.186676,281.636902 
	C302.968231,281.651947 302.689117,281.402802 302.426636,280.859924 
	C302.670868,280.835022 302.898438,281.103882 303.186676,281.636902 
z"/>
<path fill="#FD7C43" opacity="1.000000" stroke="none" 
	d="
M416.710632,74.961029 
	C416.759796,75.158379 416.542328,75.444817 416.071899,75.839859 
	C416.027313,75.649017 416.235657,75.349579 416.710632,74.961029 
z"/>
<path fill="#F7D298" opacity="1.000000" stroke="none" 
	d="
M259.147247,131.270721 
	C259.418701,131.097931 259.623291,131.234589 259.879425,131.592773 
	C259.686707,131.677460 259.403198,131.599442 259.147247,131.270721 
z"/>
<path fill="#FD7C43" opacity="1.000000" stroke="none" 
	d="
M415.662811,75.891830 
	C415.721771,76.113449 415.500885,76.413383 415.005188,76.797546 
	C414.947906,76.577896 415.165436,76.274025 415.662811,75.891830 
z"/>
<path fill="#060707" opacity="1.000000" stroke="none" 
	d="
M252.082458,406.734070 
	C257.391571,406.735718 262.217041,406.641571 267.036835,406.766266 
	C271.721802,406.887451 274.852234,409.848846 274.947571,413.966919 
	C275.043549,418.112579 272.111603,421.444946 267.396271,421.635223 
	C260.423981,421.916595 253.422150,421.922638 246.451309,421.620697 
	C241.832886,421.420654 238.872269,417.917999 239.052460,413.819397 
	C239.233917,409.692017 242.339661,406.944672 247.106354,406.747620 
	C248.600647,406.685822 250.099533,406.735443 252.082458,406.734070 
z"/>
<path fill="#060707" opacity="1.000000" stroke="none" 
	d="
M415.353516,421.728027 
	C408.756348,421.759033 402.596863,421.839722 396.440063,421.744415 
	C390.729156,421.656006 387.174927,418.644836 387.175629,414.136566 
	C387.176331,409.593445 390.657318,406.786560 396.462738,406.744659 
	C402.287903,406.702606 408.113861,406.699280 413.938965,406.744659 
	C419.486908,406.787842 422.517090,408.993774 423.006042,413.222870 
	C423.496399,417.463928 421.217621,420.142090 415.353516,421.728027 
z"/>
<path fill="#060606" opacity="1.000000" stroke="none" 
	d="
M313.684448,421.766357 
	C308.070770,421.766479 302.917145,421.835052 297.766144,421.747803 
	C291.966919,421.649689 288.545776,418.812805 288.476227,414.230988 
	C288.405518,409.576019 291.737335,406.798553 297.584198,406.746735 
	C303.068665,406.698151 308.553894,406.724335 314.038757,406.738220 
	C321.030029,406.755920 324.181396,409.045258 324.204285,414.091339 
	C324.226868,419.062897 321.074768,421.467926 313.684448,421.766357 
z"/>
<path fill="#060707" opacity="1.000000" stroke="none" 
	d="
M355.012756,421.768372 
	C351.365936,421.740845 348.185486,421.946136 345.057434,421.631195 
	C340.387177,421.160950 337.672058,417.922302 337.927856,413.643677 
	C338.171631,409.566284 340.977539,406.878967 345.567383,406.784576 
	C352.379333,406.644501 359.198090,406.646698 366.010315,406.778076 
	C370.401276,406.862732 373.460083,409.754517 373.745392,413.663330 
	C374.036438,417.650970 370.990997,421.213745 366.464203,421.619354 
	C362.835022,421.944489 359.158264,421.738586 355.012756,421.768372 
z"/>
<path fill="#060606" opacity="1.000000" stroke="none" 
	d="
M201.133133,406.735413 
	C206.929001,406.738617 212.247070,406.650787 217.560379,406.771973 
	C222.343292,406.881073 225.366547,409.700806 225.507034,413.885071 
	C225.646103,418.025909 222.720963,421.410522 218.070892,421.629150 
	C211.606079,421.933044 205.116257,421.844330 198.640411,421.732758 
	C192.838074,421.632812 189.662521,418.687897 189.796738,413.884308 
	C189.926651,409.234772 192.810028,406.907257 198.659805,406.738556 
	C199.323761,406.719391 199.988754,406.735565 201.133133,406.735413 
z"/>
<path fill="#060707" opacity="1.000000" stroke="none" 
	d="
M108.998329,406.734100 
	C112.817375,406.744141 116.144096,406.678314 119.465446,406.783020 
	C123.813965,406.920013 126.346329,409.490295 126.698563,413.569672 
	C127.056595,417.716278 124.750458,421.065704 120.602699,421.329681 
	C112.835960,421.824005 104.998001,421.824799 97.227303,421.377380 
	C93.107010,421.140106 90.864861,418.027222 90.981026,413.734772 
	C91.090454,409.691650 94.024666,406.969452 98.531349,406.778412 
	C101.850098,406.637756 105.179153,406.740082 108.998329,406.734100 
z"/>
<path fill="#060606" opacity="1.000000" stroke="none" 
	d="
M445.589111,406.591431 
	C451.938141,406.569366 457.888641,406.624359 463.837738,406.746063 
	C469.311829,406.858002 472.435120,409.601685 472.408875,414.178497 
	C472.384003,418.515228 469.315857,421.760986 464.261963,421.651978 
	C456.084930,421.475586 447.920685,420.705933 439.386261,420.070465 
	C434.414734,412.767944 436.867859,407.496002 445.589111,406.591431 
z"/>
<path fill="#060707" opacity="1.000000" stroke="none" 
	d="
M158.001587,406.734100 
	C161.986206,406.745667 165.483353,406.620880 168.964340,406.803558 
	C173.223633,407.027130 175.748718,409.433289 176.024918,413.686493 
	C176.302933,417.967499 174.003983,421.119598 169.873581,421.364899 
	C162.105072,421.826263 154.268860,421.823212 146.501190,421.350067 
	C142.339828,421.096588 140.023605,417.749359 140.352158,413.620544 
	C140.675125,409.562103 143.170029,406.929016 147.536392,406.785767 
	C150.856903,406.676788 154.183228,406.744781 158.001587,406.734100 
z"/>
<path fill="#060606" opacity="1.000000" stroke="none" 
	d="
M41.586338,414.003510 
	C42.226841,408.852875 45.072021,406.718384 49.771904,406.733978 
	C56.265961,406.755524 62.761570,406.656738 69.253815,406.767700 
	C74.242416,406.852966 77.077477,409.458191 77.258476,413.784851 
	C77.446060,418.268799 74.545593,421.485596 69.475945,421.674316 
	C62.824856,421.921906 56.152901,421.891663 49.499096,421.685120 
	C44.957787,421.544159 42.008408,419.202667 41.586338,414.003510 
z"/>
<path fill="#040302" opacity="1.000000" stroke="none" 
	d="
M309.061615,356.442505 
	C303.346466,359.470184 298.493256,358.657745 294.205109,354.373230 
	C287.843231,348.016693 281.422699,341.716766 275.157501,335.266174 
	C269.711090,329.658661 269.727905,323.713165 275.169128,318.140961 
	C281.451782,311.707062 287.813324,305.347443 294.246887,299.064423 
	C299.872772,293.570221 305.806427,293.502594 311.368927,298.912445 
	C317.934418,305.297821 324.418793,311.770905 330.797913,318.342285 
	C335.762329,323.456360 335.919159,329.679749 330.998047,334.757416 
	C323.933319,342.046936 316.585144,349.061798 309.061615,356.442505 
M297.282288,317.200989 
	C294.119415,320.244843 290.956543,323.288727 287.549408,326.567719 
	C291.265015,330.104248 294.475128,333.159637 297.991699,336.834686 
	C299.295441,338.701294 300.599213,340.567902 301.707153,342.154175 
	C307.812469,336.097931 312.618073,331.330963 317.073883,326.910950 
	C312.265198,322.099274 307.394012,317.225067 302.299286,312.127197 
	C300.979675,313.567932 299.436493,315.252808 297.282288,317.200989 
z"/>
<path fill="#080705" opacity="1.000000" stroke="none" 
	d="
M198.838867,315.852539 
	C196.887772,308.508942 199.469925,304.846008 206.439774,304.675812 
	C210.085373,304.586792 213.948715,304.065277 217.314865,305.072327 
	C219.677216,305.779022 222.438522,308.459656 223.037292,310.772552 
	C223.577042,312.857391 222.072693,316.347351 220.317139,317.971924 
	C216.411804,321.585876 203.014038,320.100128 198.838867,315.852539 
z"/>
<path fill="#040302" opacity="1.000000" stroke="none" 
	d="
M357.061005,321.656555 
	C363.123566,317.379486 369.725525,318.765411 376.002960,319.640717 
	C379.833130,320.174774 381.664337,323.696747 380.981750,327.678314 
	C380.112030,332.751373 376.458313,334.237518 371.384460,334.137482 
	C368.841370,334.159027 366.703430,334.078949 364.564758,334.040680 
	C356.696289,333.899872 353.697784,329.155853 357.061005,321.656555 
z"/>
<path fill="#040302" opacity="1.000000" stroke="none" 
	d="
M108.148865,340.295258 
	C107.214447,332.927704 109.720909,330.009094 116.661385,329.931732 
	C119.976761,329.894775 123.500458,329.282196 126.544113,330.203918 
	C128.997406,330.946838 132.073685,333.280914 132.666626,335.499054 
	C133.267227,337.745728 131.901443,341.509613 130.086487,343.211243 
	C125.853073,347.180389 112.008598,345.185791 108.148865,340.295258 
z"/>
<path fill="#080705" opacity="1.000000" stroke="none" 
	d="
M274.643463,106.109283 
	C277.658966,106.087891 280.311371,106.241379 282.962860,106.225960 
	C287.211823,106.201263 290.678101,107.631599 291.759430,111.991737 
	C292.833435,116.322502 290.757111,119.362259 286.313904,121.151306 
	C282.498108,121.280945 279.020203,121.303986 275.543274,121.255302 
	C269.912384,121.176476 266.639954,118.758911 266.222900,114.434258 
	C265.818176,110.237961 268.609497,107.388184 274.643463,106.109283 
z"/>
<path fill="#F99437" opacity="1.000000" stroke="none" 
	d="
M297.893280,316.937653 
	C299.436493,315.252808 300.979675,313.567932 302.299286,312.127197 
	C307.394012,317.225067 312.265198,322.099274 317.073883,326.910950 
	C312.618073,331.330963 307.812469,336.097931 301.707153,342.154175 
	C300.599213,340.567902 299.295441,338.701294 298.157166,336.359436 
	C308.650970,326.888031 308.615509,325.323090 297.893280,316.937653 
z"/>
<path fill="#FDA85B" opacity="1.000000" stroke="none" 
	d="
M297.587769,317.069336 
	C308.615509,325.323090 308.650970,326.888031 298.003906,336.049591 
	C294.475128,333.159637 291.265015,330.104248 287.549408,326.567719 
	C290.956543,323.288727 294.119415,320.244843 297.587769,317.069336 
z"/>
</svg>