<svg version="1.1" id="Layer_1" xmlns="http://www.w3.org/2000/svg" xmlns:xlink="http://www.w3.org/1999/xlink" x="0px" y="0px"
	 width="100%" viewBox="0 0 512 512" xml:space="preserve">

<path fill="#D7EEF2" opacity="1.000000" stroke="none" 
	d="
M312.000000,513.000000 
	C274.645782,513.000000 237.291550,513.000000 199.773102,512.722839 
	C195.749954,508.668030 191.891022,504.890350 187.986496,500.752258 
	C187.150772,498.953918 186.364090,497.514099 185.569901,496.078369 
	C182.058960,489.731415 178.545883,483.385651 175.494507,476.971558 
	C215.669571,476.885468 255.383698,476.850403 295.097839,476.858368 
	C308.720093,476.861084 322.342346,476.971283 335.929138,477.387451 
	C334.942657,479.643799 334.066864,481.587311 333.026245,483.438202 
	C330.071960,488.692719 327.050323,493.909393 323.931274,499.452515 
	C319.880005,503.681549 315.938934,507.585541 312.056854,511.547394 
	C311.805542,511.803894 312.008392,512.505432 312.000000,513.000000 
z"/>
<path fill="#C4E1E8" opacity="1.000000" stroke="none" 
	d="
M324.055176,499.140930 
	C327.050323,493.909393 330.071960,488.692719 333.026245,483.438202 
	C334.066864,481.587311 334.942657,479.643799 336.174438,477.284119 
	C336.614716,476.748718 336.774323,476.671753 337.398376,476.683319 
	C378.776886,476.798645 419.690918,476.818207 460.604980,476.862518 
	C465.089233,476.867371 469.573364,477.014374 474.057556,477.095428 
	C467.966309,490.668121 460.278564,503.081879 448.696655,512.724243 
	C411.645782,513.000000 374.291534,513.000000 336.774414,512.733643 
	C332.426086,508.025177 328.240631,503.583038 324.055176,499.140930 
z"/>
<path fill="#EA9A04" opacity="1.000000" stroke="none" 
	d="
M199.962814,123.901199 
	C193.642487,97.614136 187.329025,71.325417 180.999054,45.040680 
	C177.702423,31.351700 174.376648,17.669743 171.036255,3.869919 
	C172.546921,3.142396 174.057190,2.415067 175.283722,1.343869 
	C177.700012,1.000000 180.400024,1.000000 183.550018,1.000000 
	C187.853683,17.030479 191.746964,33.051571 195.551880,49.093620 
	C201.413284,73.806282 207.214127,98.533310 213.137207,124.041153 
	C218.151840,144.923294 223.069916,165.018509 227.987885,185.503510 
	C229.428848,192.037659 230.832642,198.191071 232.316833,204.325043 
	C245.326950,258.094116 258.348022,311.860504 271.374359,365.625641 
	C274.161682,377.130127 274.693573,374.847565 263.928253,377.732178 
	C263.502411,377.846252 262.985962,377.622040 262.165039,377.506836 
	C261.763611,376.168610 261.277191,374.782532 260.932739,373.362030 
	C257.722748,360.125183 254.535156,346.882874 251.344879,333.641266 
	C244.107330,303.601135 236.926254,273.547211 229.616257,243.524750 
	C224.868774,224.026733 219.934494,204.574188 215.096802,184.685791 
	C212.238693,172.228989 209.454208,160.166138 206.466553,148.153839 
	C204.446716,140.032791 202.140793,131.982910 199.962814,123.901199 
z"/>
<path fill="#C4E0E7" opacity="1.000000" stroke="none" 
	d="
M175.033585,477.039459 
	C178.545883,483.385651 182.058960,489.731415 185.569901,496.078369 
	C186.364090,497.514099 187.150772,498.953918 187.864777,501.068115 
	C184.525757,505.496277 181.262878,509.248138 178.000000,513.000000 
	C140.645767,513.000000 103.291542,513.000000 65.468658,513.000000 
	C63.820953,511.649017 62.755299,510.175079 61.444702,508.966797 
	C51.939880,500.204010 45.748032,489.175537 40.431316,477.352661 
	C49.263809,476.767914 57.666569,476.664185 66.400566,476.695923 
	C67.818474,477.577515 68.982918,478.232666 69.979645,479.084167 
	C78.590912,486.440552 86.880341,494.208649 95.821556,501.136658 
	C115.556213,516.427673 136.566452,511.990234 148.659744,490.258789 
	C151.070236,485.927155 152.873444,481.257568 155.426697,476.775238 
	C161.953949,476.746918 168.011154,476.687164 174.310226,476.729126 
	C174.712585,476.900391 174.873077,476.969910 175.033585,477.039459 
z"/>
<path fill="#000000" opacity="1.000000" stroke="none" 
	d="
M323.931274,499.452515 
	C328.240631,503.583038 332.426086,508.025177 336.305786,512.733643 
	C328.312408,513.000000 320.624847,513.000000 312.468628,513.000000 
	C312.008392,512.505432 311.805542,511.803894 312.056854,511.547394 
	C315.938934,507.585541 319.880005,503.681549 323.931274,499.452515 
z"/>
<path fill="#000000" opacity="1.000000" stroke="none" 
	d="
M178.468536,513.000000 
	C181.262878,509.248138 184.525757,505.496277 187.910370,501.428528 
	C191.891022,504.890350 195.749954,508.668030 199.304443,512.722839 
	C192.312363,513.000000 185.624710,513.000000 178.468536,513.000000 
z"/>
<path fill="#A3C539" opacity="1.000000" stroke="none" 
	d="
M474.376587,476.927826 
	C469.573364,477.014374 465.089233,476.867371 460.604980,476.862518 
	C419.690918,476.818207 378.776886,476.798645 337.483337,476.357361 
	C339.449188,470.621796 342.109253,465.414185 344.077362,459.957001 
	C348.857086,446.703705 353.315125,433.334442 358.258942,420.137939 
	C371.376495,424.744720 384.350494,425.997284 397.848389,424.172180 
	C439.270966,418.571228 469.965576,378.095032 464.140961,337.175507 
	C459.675140,305.801697 442.466827,284.663940 413.476868,272.797302 
	C410.243317,271.473694 409.484436,269.808289 410.215820,266.799225 
	C416.843903,239.530487 423.464172,212.259842 430.545654,185.041290 
	C452.285431,185.106995 473.566315,185.121140 494.847198,185.135284 
	C498.228027,204.055679 502.062256,222.910065 504.830261,241.919693 
	C506.674286,254.583633 507.226471,267.456299 507.934540,280.258942 
	C508.583923,292.000427 508.734558,303.771790 508.985199,315.532532 
	C509.428619,336.341217 507.196564,356.914215 504.148376,377.486389 
	C500.652039,401.082977 495.207245,424.137451 487.080109,446.525543 
	C483.366913,456.754395 478.848694,466.691040 474.376587,476.927826 
M466.504242,410.085968 
	C465.231873,409.877899 463.959473,409.669861 462.151489,409.374207 
	C461.085236,414.105774 460.058533,418.661835 458.969879,423.492706 
	C463.060944,424.453308 466.533539,425.268738 470.414612,426.180023 
	C471.613708,421.316925 472.696655,416.924805 473.856934,412.219116 
	C471.323456,411.463806 469.293396,410.858582 466.504242,410.085968 
M405.096741,452.182831 
	C407.643402,453.434662 409.203979,452.638214 409.830292,449.903198 
	C410.310608,447.805756 411.057373,445.724213 411.185486,443.605347 
	C411.289215,441.889648 410.999329,438.809906 410.276245,438.617279 
	C407.213348,437.801544 402.066071,436.496002 401.096985,437.837433 
	C398.972931,440.777771 398.495300,445.200317 398.343201,449.056915 
	C398.307281,449.968689 402.214325,451.035950 405.096741,452.182831 
M471.394897,288.026855 
	C472.837952,290.049225 474.070526,292.284027 475.809814,294.007385 
	C476.726440,294.915649 478.983856,295.709198 479.844147,295.204590 
	C482.462006,293.669098 484.694794,291.476990 487.257965,289.393890 
	C485.084198,286.517365 483.196747,284.224670 481.547363,281.771912 
	C480.238617,279.825775 478.677338,277.712646 476.542267,279.897949 
	C474.399323,282.091309 468.675690,281.951782 471.394897,288.026855 
M469.238983,225.775192 
	C470.556152,222.507339 470.434753,220.375122 466.128052,219.419708 
	C459.006500,217.839767 459.068329,217.557724 457.294312,224.550568 
	C456.930298,225.985550 456.373962,227.409775 456.282074,228.862717 
	C456.218475,229.868774 456.568665,231.643112 457.132111,231.822296 
	C460.066345,232.755493 463.134552,233.726562 466.141785,233.683502 
	C467.010986,233.671066 467.867065,230.358963 468.656555,228.528275 
	C468.911652,227.936813 468.934753,227.245285 469.238983,225.775192 
z"/>
<path fill="#67A438" opacity="1.000000" stroke="none" 
	d="
M430.086731,184.989746 
	C423.464172,212.259842 416.843903,239.530487 410.215820,266.799225 
	C409.484436,269.808289 410.243317,271.473694 413.476868,272.797302 
	C442.466827,284.663940 459.675140,305.801697 464.140961,337.175507 
	C469.965576,378.095032 439.270966,418.571228 397.848389,424.172180 
	C384.350494,425.997284 371.376495,424.744720 358.261749,419.726593 
	C360.956818,404.140533 364.005249,389.091888 367.450043,374.041412 
	C386.040222,379.297913 403.189728,377.363739 419.155701,366.959625 
	C423.374969,370.569397 427.496216,373.823212 431.981384,377.364380 
	C434.527618,373.797058 436.691254,370.765747 439.103699,367.385895 
	C434.655182,364.345581 430.702820,361.644409 426.791626,358.553528 
	C429.654388,351.194977 431.267761,344.173920 428.139771,336.945557 
	C432.857910,333.977417 437.185242,330.995209 441.749054,327.849976 
	C439.278961,324.705566 437.865326,322.418091 435.950867,320.683380 
	C435.050690,319.867676 432.622711,319.399689 431.856964,320.003723 
	C428.379211,322.747040 425.246887,325.928253 421.693604,328.802734 
	C406.738281,315.961151 389.678955,314.232605 371.487244,317.263123 
	C371.014862,300.878906 370.532104,284.954895 370.484100,269.027618 
	C378.215454,268.683502 385.516815,268.023987 392.806763,268.132111 
	C396.626831,268.188751 397.978455,266.841064 398.792664,263.375610 
	C402.630096,247.042816 406.755524,230.777847 410.628113,214.453064 
	C412.925232,204.769669 414.943878,195.020218 417.344360,185.010452 
	C420.056641,174.774048 422.595703,164.847290 424.944763,154.875778 
	C427.365265,144.600723 429.600677,134.282059 431.917084,123.982475 
	C435.947205,107.285759 439.980927,90.589905 444.006592,73.892113 
	C449.336151,51.786007 454.659393,29.678370 460.046448,7.317743 
	C464.375885,8.378472 468.416046,9.368321 472.869476,10.459432 
	C463.673706,48.086872 454.490295,85.663727 445.045227,123.959801 
	C439.884613,144.782593 434.985657,164.886169 430.086731,184.989746 
M402.803528,380.641968 
	C404.656647,384.324860 406.509766,388.007721 408.584381,392.130798 
	C412.244965,390.291901 415.566315,388.623413 419.264343,386.765686 
	C417.467560,383.126068 416.135254,379.913300 414.332184,376.990997 
	C413.425140,375.520935 410.702606,373.371979 410.435944,373.584198 
	C407.778717,375.699097 402.221771,374.394043 402.803528,380.641968 
M380.020264,381.817078 
	C380.014313,384.130402 380.258575,386.477600 379.951080,388.750122 
	C379.282898,393.687897 381.016174,395.130096 386.141571,395.254120 
	C391.831299,395.391754 392.502594,392.870941 392.020081,388.465759 
	C391.894897,387.322784 392.171814,386.122650 391.963501,385.004791 
	C391.600555,383.057037 390.968506,379.485870 390.511017,379.495605 
	C387.028992,379.569733 383.561981,380.347107 380.020264,381.817078 
M389.026733,306.477295 
	C389.683716,308.965302 389.588654,312.523499 391.198883,313.654999 
	C392.983429,314.909027 396.591431,314.606476 398.885681,313.686096 
	C400.150879,313.178558 400.981476,309.982056 400.888733,308.051575 
	C400.728455,304.714478 400.677155,299.340912 398.854034,298.480957 
	C392.380157,295.427277 389.032501,298.291077 389.026733,306.477295 
M423.932739,307.597992 
	C417.155701,302.886536 418.429047,301.795258 412.658020,309.538055 
	C411.191315,311.505829 409.750702,313.493073 408.351044,315.399292 
	C415.500000,323.448792 417.017761,323.446136 422.900482,315.662659 
	C423.700623,314.603943 424.921265,313.606171 425.138306,312.430817 
	C425.391174,311.061676 424.754150,309.528137 423.932739,307.597992 
M439.437378,352.061462 
	C445.397125,353.138123 444.872375,349.254150 445.143433,345.241302 
	C445.468567,340.427338 443.189941,339.516724 439.270386,340.072601 
	C436.936768,340.403564 432.998688,340.288086 432.614838,341.374359 
	C431.633850,344.150604 431.716400,347.629730 432.501221,350.521698 
	C432.768127,351.505219 436.403717,351.574615 439.437378,352.061462 
z"/>
<path fill="#D7EEF1" opacity="1.000000" stroke="none" 
	d="
M227.987976,185.113739 
	C223.069916,165.018509 218.151840,144.923294 213.256149,124.447952 
	C233.208313,124.041237 253.138107,124.014641 273.846741,124.011963 
	C275.411407,124.377861 276.197235,124.719841 277.168762,125.381058 
	C278.068359,127.688087 278.782257,129.675873 279.563446,131.851013 
	C281.090515,131.968475 282.700348,132.092300 284.414124,132.224136 
	C284.863800,133.932571 285.269653,135.474533 285.686920,137.059967 
	C287.867371,137.059967 289.837799,137.059967 291.981934,137.354065 
	C294.083649,139.228455 296.000885,140.822250 297.941589,142.386902 
	C310.608215,152.599228 323.279938,162.805267 336.147705,173.283096 
	C340.876556,177.374710 345.407745,181.196594 349.474915,185.039368 
	C308.669922,185.078094 268.328949,185.095917 227.987976,185.113739 
z"/>
<path fill="#EA9904" opacity="1.000000" stroke="none" 
	d="
M349.938904,185.018463 
	C345.407745,181.196594 340.876556,177.374710 336.287079,172.966232 
	C344.410950,160.143738 349.390442,146.904755 349.111572,131.603485 
	C350.013153,126.901260 351.613617,122.369377 346.986603,118.637619 
	C344.124054,106.576378 339.126831,96.111031 329.939636,87.599495 
	C329.681458,81.804489 324.121185,77.644516 318.811920,78.751923 
	C308.519287,71.400734 297.078308,68.657906 284.710846,67.795090 
	C281.304504,65.710266 274.417267,66.543182 271.687622,69.042038 
	C268.573883,69.737259 265.826935,70.317200 263.154633,71.139832 
	C251.638535,74.684914 242.397919,81.766487 233.975433,90.092468 
	C229.229034,86.361572 224.482635,82.630676 219.395523,78.631966 
	C224.616760,70.779343 231.099350,65.124260 238.123138,59.966663 
	C254.099228,48.235359 272.375824,44.105701 291.537445,46.232330 
	C315.738037,48.918201 336.252167,59.386105 351.714661,79.022537 
	C359.209106,88.540031 364.625214,98.807594 367.184875,110.569374 
	C368.081604,114.689758 368.426361,118.930283 369.015594,124.016876 
	C369.756622,141.469849 366.073700,157.057465 358.850281,171.891495 
	C357.060608,175.566711 355.427643,179.318237 353.444946,183.156570 
	C352.091125,183.858444 351.015015,184.438446 349.938904,185.018463 
z"/>
<path fill="#C4E1E7" opacity="1.000000" stroke="none" 
	d="
M353.722687,183.034698 
	C355.427643,179.318237 357.060608,175.566711 358.850281,171.891495 
	C366.073700,157.057465 369.756622,141.469849 369.082428,124.455505 
	C389.770172,123.994949 410.383575,123.996681 431.457031,123.990440 
	C429.600677,134.282059 427.365265,144.600723 424.944763,154.875778 
	C422.595703,164.847290 420.056641,174.774048 416.870422,184.957886 
	C396.417480,185.268738 376.695068,185.342133 356.686035,185.233459 
	C355.507141,184.379166 354.614929,183.706940 353.722687,183.034698 
z"/>
<path fill="#C4E1E8" opacity="1.000000" stroke="none" 
	d="
M430.545654,185.041290 
	C434.985657,164.886169 439.884613,144.782593 444.932739,124.325394 
	C455.895874,123.971764 466.709839,123.971764 478.407349,123.971764 
	C483.875732,144.102386 489.336792,164.206070 494.822510,184.722519 
	C473.566315,185.121140 452.285431,185.106995 430.545654,185.041290 
z"/>
<path fill="#F0CE30" opacity="1.000000" stroke="none" 
	d="
M234.105301,90.400322 
	C242.397919,81.766487 251.638535,74.684914 263.154633,71.139832 
	C265.826935,70.317200 268.573883,69.737259 271.943237,69.345779 
	C273.067261,74.739937 273.475220,79.840271 274.015503,84.926544 
	C274.852386,92.805046 275.968048,100.658775 276.603729,108.552147 
	C277.044861,114.030022 276.878143,119.556862 276.983032,125.061821 
	C276.197235,124.719841 275.411407,124.377861 274.311768,123.950943 
	C265.785339,116.926643 257.597961,109.957153 249.350800,103.059135 
	C244.360153,98.884895 239.276840,94.821419 234.105301,90.400322 
z"/>
<path fill="#DB3644" opacity="1.000000" stroke="none" 
	d="
M66.069328,476.560486 
	C57.666569,476.664185 49.263809,476.767914 40.400261,476.984985 
	C33.982685,462.321411 27.337746,447.775146 22.283102,432.695801 
	C18.109892,420.245972 15.470430,407.237457 12.802343,394.341827 
	C10.687351,384.119507 9.658334,373.676819 7.972659,363.360474 
	C3.806856,337.865692 4.783782,312.157471 5.193516,286.528290 
	C5.405248,273.284393 7.247515,260.022308 9.021760,246.858582 
	C11.333533,229.706696 14.283797,212.640244 17.021473,195.546967 
	C17.534815,192.341797 18.340172,189.183365 19.541950,185.602173 
	C39.699245,185.112991 59.325359,185.025024 79.027039,185.323120 
	C87.741119,221.505692 96.378098,257.302612 105.018822,293.098633 
	C109.338646,310.994385 113.665306,328.888550 117.604187,346.817047 
	C106.809525,345.644379 98.601379,349.285583 92.420891,357.767700 
	C87.434608,346.033630 87.423149,335.026550 95.951630,325.067108 
	C93.771164,322.021820 91.774422,319.233124 89.520370,316.085083 
	C88.118683,317.119629 86.747330,317.793488 85.835365,318.860107 
	C80.140587,325.520691 76.733788,333.277588 77.139626,342.043640 
	C77.450653,348.762085 79.006516,355.422852 79.629089,362.017365 
	C71.783623,358.463440 64.184570,358.793884 57.278637,362.756622 
	C47.082512,368.607422 42.904255,379.130341 37.730255,389.790588 
	C44.304089,391.182526 50.234489,392.438232 56.023022,394.028503 
	C55.057159,395.603638 54.305241,396.899811 53.398380,398.076538 
	C39.571831,416.017761 39.608097,445.340607 53.740597,463.162506 
	C57.501392,467.905090 61.941242,472.109192 66.069328,476.560486 
M49.552830,305.767517 
	C52.755215,306.829407 55.957596,307.891327 59.086796,308.928955 
	C64.984573,295.750031 64.515228,294.623260 52.581459,292.240356 
	C52.317375,292.187653 51.987751,292.463165 51.222305,292.776520 
	C50.574253,296.688232 49.882252,300.865204 49.552830,305.767517 
M39.047527,339.510590 
	C36.989677,339.043701 34.931828,338.576813 32.913074,338.118805 
	C27.700399,353.404846 26.745575,352.275085 40.508446,354.244202 
	C41.294601,351.066589 42.168133,347.896362 42.844688,344.684692 
	C43.366924,342.205536 43.214344,339.940155 39.047527,339.510590 
M81.499725,256.853058 
	C78.120941,254.235504 74.840858,255.683685 70.627159,261.653351 
	C79.013893,274.785217 77.650185,274.099731 87.604324,265.396942 
	C85.732635,262.759888 83.841759,260.095795 81.499725,256.853058 
M46.836166,217.560822 
	C43.621712,219.402649 40.407253,221.244476 37.192802,223.086304 
	C39.560398,226.570480 41.260872,231.308228 44.550896,233.059067 
	C46.461903,234.076035 50.925228,230.296936 54.698856,228.451630 
	C51.732903,224.245926 49.549068,221.149277 46.836166,217.560822 
z"/>
<path fill="#C4E1E8" opacity="1.000000" stroke="none" 
	d="
M77.132225,123.986961 
	C108.117088,123.996552 139.101959,124.006149 170.535400,124.474464 
	C165.355896,144.941940 159.727783,164.950714 154.069351,185.075775 
	C154.039017,185.192093 153.990402,185.427521 153.529022,185.343170 
	C132.692337,185.279282 112.317009,185.299728 91.667099,185.037659 
	C88.597649,173.353043 85.726921,161.968857 83.032364,150.543121 
	C80.951141,141.718079 79.090775,132.840942 77.132225,123.986961 
z"/>
<path fill="#BE1F2E" opacity="1.000000" stroke="none" 
	d="
M77.075546,123.587357 
	C79.090775,132.840942 80.951141,141.718079 83.032364,150.543121 
	C85.726921,161.968857 88.597649,173.353043 91.671860,185.436951 
	C92.084923,187.272293 92.098709,188.454803 92.369873,189.575043 
	C99.479202,218.945511 106.633141,248.305206 113.740326,277.676208 
	C118.543709,297.526550 123.399857,317.365295 128.004333,337.262054 
	C129.911774,345.504425 129.640945,345.567108 120.350357,347.155914 
	C119.334618,347.038300 118.661751,346.910858 117.988876,346.783417 
	C113.665306,328.888550 109.338646,310.994385 105.018822,293.098633 
	C96.378098,257.302612 87.741119,221.505692 78.983780,184.941650 
	C77.570038,178.867630 76.299637,173.554947 74.975502,168.255722 
	C71.286934,153.493835 67.576065,138.737503 63.874008,123.978989 
	C59.268875,105.228127 54.638783,86.483353 50.065582,67.724701 
	C45.421642,48.675896 40.833836,29.613401 36.194378,10.445052 
	C40.324493,9.417865 44.429626,8.396891 48.908764,7.282899 
	C58.270493,45.883614 67.644676,84.535683 77.075546,123.587357 
z"/>
<path fill="#D7EEF1" opacity="1.000000" stroke="none" 
	d="
M154.099701,184.959473 
	C159.727783,164.950714 165.355896,144.941940 170.998962,124.553894 
	C180.354050,124.117180 189.694138,124.059746 199.498535,123.951752 
	C202.140793,131.982910 204.446716,140.032791 206.466553,148.153839 
	C209.454208,160.166138 212.238693,172.228989 214.624420,184.700867 
	C194.126022,185.074112 174.112854,185.016800 154.099701,184.959473 
z"/>
<path fill="#C4E0E7" opacity="1.000000" stroke="none" 
	d="
M63.415596,123.988403 
	C67.576065,138.737503 71.286934,153.493835 74.975502,168.255722 
	C76.299637,173.554947 77.570038,178.867630 78.908218,184.555618 
	C59.325359,185.025024 39.699245,185.112991 19.616798,185.208832 
	C24.607174,164.793991 30.053883,144.371277 35.487457,123.997818 
	C45.333740,123.997818 54.145462,123.997818 63.415596,123.988403 
z"/>
<path fill="#FCE148" opacity="1.000000" stroke="none" 
	d="
M154.069366,185.075775 
	C174.112854,185.016800 194.126022,185.074112 214.611542,185.116348 
	C219.934494,204.574188 224.868774,224.026733 229.616257,243.524750 
	C236.926254,273.547211 244.107330,303.601135 251.344879,333.641266 
	C254.535156,346.882874 257.722748,360.125183 260.932739,373.362030 
	C261.277191,374.782532 261.763611,376.168610 262.165039,377.506836 
	C262.985962,377.622040 263.502411,377.846252 263.928253,377.732178 
	C274.693573,374.847565 274.161682,377.130127 271.374359,365.625641 
	C258.348022,311.860504 245.326950,258.094116 232.316833,204.325043 
	C230.832642,198.191071 229.428848,192.037659 227.987885,185.503510 
	C268.328949,185.095917 308.669922,185.078094 349.474915,185.039368 
	C351.015015,184.438446 352.091125,183.858444 353.444946,183.156570 
	C354.614929,183.706940 355.507141,184.379166 356.729370,185.602844 
	C360.724792,208.708862 364.417755,231.259003 368.034332,253.821396 
	C368.843414,258.869202 369.384735,263.959930 370.049347,269.030884 
	C370.532104,284.954895 371.014862,300.878906 371.401276,317.585327 
	C369.887878,336.926270 368.470764,355.484741 367.053650,374.043243 
	C364.005249,389.091888 360.956818,404.140533 357.905579,419.600525 
	C353.315125,433.334442 348.857086,446.703705 344.077362,459.957001 
	C342.109253,465.414185 339.449188,470.621796 337.018860,476.268860 
	C336.774323,476.671753 336.614716,476.748718 336.209869,476.929016 
	C322.342346,476.971283 308.720093,476.861084 295.097839,476.858368 
	C255.383698,476.850403 215.669571,476.885468 175.494507,476.971558 
	C174.873077,476.969910 174.712585,476.900391 174.198730,476.410156 
	C170.071213,467.271393 166.297043,458.553375 162.422791,449.453156 
	C156.830200,428.382446 151.337677,407.693909 145.875885,386.590332 
	C144.551819,377.048920 143.196991,367.922546 141.854095,358.508118 
	C141.812241,357.840363 141.758423,357.460754 141.746948,356.658295 
	C140.955978,340.141022 139.277283,324.034302 139.510223,307.955292 
	C139.781876,289.202881 140.866257,270.368774 143.163132,251.763306 
	C145.906113,229.544449 150.307419,207.530334 153.990402,185.427521 
	C153.990402,185.427521 154.039017,185.192093 154.069366,185.075775 
M308.023651,300.585693 
	C310.086182,299.008881 312.148743,297.432068 314.543365,295.601379 
	C311.610138,291.523468 308.958282,287.836761 306.108887,283.875366 
	C302.782990,286.312195 299.902191,288.422882 296.588104,290.851044 
	C299.075073,294.401886 301.186646,297.730042 303.682983,300.738953 
	C304.238220,301.408173 306.148499,300.953186 308.023651,300.585693 
M200.760132,372.500488 
	C198.672089,372.026245 196.583160,371.204346 194.496323,371.209564 
	C193.265579,371.212616 191.314621,372.264801 190.940903,373.298370 
	C189.674286,376.801422 188.966324,380.506470 187.818192,385.027008 
	C192.190491,385.441742 196.007553,386.322723 199.681381,385.914581 
	C201.308456,385.733795 202.484299,374.751648 200.760132,372.500488 
M220.228653,310.421051 
	C219.551239,310.152710 218.585251,309.453796 218.241913,309.683929 
	C215.408875,311.582550 212.691269,313.653442 209.616074,315.908752 
	C212.084290,319.421967 214.116394,322.632294 216.528809,325.525482 
	C217.134857,326.252319 219.296463,326.536499 220.162598,326.030426 
	C222.673172,324.563446 224.888641,322.591431 227.543365,320.571472 
	C225.061203,317.117157 222.852188,314.042938 220.228653,310.421051 
M300.719055,372.316162 
	C297.854584,382.957825 297.854584,382.957825 309.959381,384.492188 
	C310.919434,380.782074 312.086487,377.024506 312.740143,373.179657 
	C312.890442,372.295441 311.488373,370.662567 310.429596,370.166809 
	C308.674866,369.345184 306.565002,369.323120 304.702576,368.680664 
	C301.857819,367.699402 301.151093,369.239777 300.719055,372.316162 
M298.558472,253.913574 
	C298.926971,252.467407 299.297974,251.021881 299.663513,249.574966 
	C301.429352,242.585052 301.081512,242.212036 294.059875,241.020645 
	C290.516022,240.419342 288.718872,241.615326 288.198914,245.105362 
	C287.930756,246.905289 287.111603,248.690109 287.187469,250.453964 
	C287.252533,251.968048 288.227112,254.717606 288.815247,254.721786 
	C291.957672,254.744278 295.260803,259.417358 298.558472,253.913574 
M251.058670,424.251678 
	C248.358398,424.067261 243.870071,422.864044 243.287552,423.886353 
	C241.415695,427.171478 240.565048,431.250702 240.311234,435.089142 
	C240.251389,435.994110 244.047684,437.217163 246.120392,438.186157 
	C249.844040,439.926971 251.615204,438.474091 252.136627,434.589966 
	C252.419250,432.484619 253.516266,430.456940 253.599701,428.368378 
	C253.649780,427.114685 252.454803,425.811249 251.058670,424.251678 
z"/>
<path fill="#BE1F2D" opacity="1.000000" stroke="none" 
	d="
M145.845154,387.005371 
	C151.337677,407.693909 156.830200,428.382446 162.072174,449.679474 
	C159.533310,459.106598 157.245010,467.925201 154.956696,476.743835 
	C152.873444,481.257568 151.070236,485.927155 148.659744,490.258789 
	C136.566452,511.990234 115.556213,516.427673 95.821556,501.136658 
	C86.880341,494.208649 78.590912,486.440552 69.979645,479.084167 
	C68.982918,478.232666 67.818474,477.577515 66.400566,476.695923 
	C61.941242,472.109192 57.501392,467.905090 53.740597,463.162506 
	C39.608097,445.340607 39.571831,416.017761 53.398380,398.076538 
	C54.305241,396.899811 55.057159,395.603638 56.451450,394.032593 
	C59.260315,393.806641 61.498875,393.911133 62.764980,393.970215 
	C63.311611,404.058167 63.815384,413.355255 64.366600,423.527924 
	C79.118263,417.383484 93.589828,413.561188 97.818459,396.540771 
	C111.154266,408.141235 125.054047,404.200043 139.979767,400.730255 
	C137.613342,395.893036 135.967392,391.902893 133.786865,388.230133 
	C131.080612,383.671875 127.931953,379.376312 125.338806,375.023926 
	C132.417191,379.055511 139.131180,383.030426 145.845154,387.005371 
M121.070747,433.090363 
	C122.807472,440.060455 123.899597,440.415436 133.646469,437.102814 
	C133.413940,433.536407 133.264572,429.924347 132.876556,426.338135 
	C132.792496,425.561218 132.003922,424.506958 131.280624,424.208405 
	C125.137466,421.672638 120.988342,424.543152 121.019295,431.188843 
	C121.020844,431.521515 121.026505,431.854156 121.070747,433.090363 
M90.188698,444.651337 
	C91.189995,443.232941 92.191299,441.814545 93.164597,440.435822 
	C80.113724,429.605316 83.365860,429.534027 75.750648,440.023590 
	C75.600227,440.230774 75.731804,440.642639 75.731804,441.317139 
	C77.581627,442.827057 79.785027,444.317169 81.606941,446.180298 
	C84.865768,449.512787 87.493958,449.252228 90.188698,444.651337 
M126.201775,466.637268 
	C125.211906,467.954010 123.949501,469.156219 123.330696,470.628876 
	C122.936562,471.566895 123.055603,473.419983 123.704659,473.976868 
	C126.662079,476.514465 129.888779,478.738190 133.469498,481.411316 
	C135.919785,477.987762 138.057327,475.001190 140.322006,471.836975 
	C137.158875,469.421387 134.441742,467.562225 131.985214,465.406189 
	C129.785095,463.475098 128.180283,463.990570 126.201775,466.637268 
M104.539856,454.995880 
	C100.233322,454.308990 98.287933,455.960541 98.992073,460.443359 
	C99.469704,463.484100 99.779465,466.551208 100.180717,469.736816 
	C104.388405,469.305725 107.931435,468.942719 111.591240,468.567749 
	C111.381233,465.632202 110.832603,462.992889 111.088852,460.434174 
	C111.537384,455.955444 109.788239,454.274231 104.539856,454.995880 
z"/>
<path fill="#DA3C47" opacity="1.000000" stroke="none" 
	d="
M155.426712,476.775238 
	C157.245010,467.925201 159.533310,459.106598 162.172241,450.061646 
	C166.297043,458.553375 170.071213,467.271393 173.956879,476.308441 
	C168.011154,476.687164 161.953949,476.746918 155.426712,476.775238 
z"/>
<path fill="#68A538" opacity="1.000000" stroke="none" 
	d="
M466.883789,410.169678 
	C469.293396,410.858582 471.323456,411.463806 473.856934,412.219116 
	C472.696655,416.924805 471.613708,421.316925 470.414612,426.180023 
	C466.533539,425.268738 463.060944,424.453308 458.969879,423.492706 
	C460.058533,418.661835 461.085236,414.105774 462.151489,409.374207 
	C463.959473,409.669861 465.231873,409.877899 466.883789,410.169678 
z"/>
<path fill="#68A538" opacity="1.000000" stroke="none" 
	d="
M404.702148,452.107269 
	C402.214325,451.035950 398.307281,449.968689 398.343201,449.056915 
	C398.495300,445.200317 398.972931,440.777771 401.096985,437.837433 
	C402.066071,436.496002 407.213348,437.801544 410.276245,438.617279 
	C410.999329,438.809906 411.289215,441.889648 411.185486,443.605347 
	C411.057373,445.724213 410.310608,447.805756 409.830292,449.903198 
	C409.203979,452.638214 407.643402,453.434662 404.702148,452.107269 
z"/>
<path fill="#68A538" opacity="1.000000" stroke="none" 
	d="
M471.178345,287.734497 
	C468.675690,281.951782 474.399323,282.091309 476.542267,279.897949 
	C478.677338,277.712646 480.238617,279.825775 481.547363,281.771912 
	C483.196747,284.224670 485.084198,286.517365 487.257965,289.393890 
	C484.694794,291.476990 482.462006,293.669098 479.844147,295.204590 
	C478.983856,295.709198 476.726440,294.915649 475.809814,294.007385 
	C474.070526,292.284027 472.837952,290.049225 471.178345,287.734497 
z"/>
<path fill="#68A538" opacity="1.000000" stroke="none" 
	d="
M469.151489,226.187378 
	C468.934753,227.245285 468.911652,227.936813 468.656555,228.528275 
	C467.867065,230.358963 467.010986,233.671066 466.141785,233.683502 
	C463.134552,233.726562 460.066345,232.755493 457.132111,231.822296 
	C456.568665,231.643112 456.218475,229.868774 456.282074,228.862717 
	C456.373962,227.409775 456.930298,225.985550 457.294312,224.550568 
	C459.068329,217.557724 459.006500,217.839767 466.128052,219.419708 
	C470.434753,220.375122 470.556152,222.507339 469.151489,226.187378 
z"/>
<path fill="#A3C53A" opacity="1.000000" stroke="none" 
	d="
M370.484100,269.027618 
	C369.384735,263.959930 368.843414,258.869202 368.034332,253.821396 
	C364.417755,231.259003 360.724792,208.708862 357.016052,185.784912 
	C376.695068,185.342133 396.417480,185.268738 416.613800,185.247894 
	C414.943878,195.020218 412.925232,204.769669 410.628113,214.453064 
	C406.755524,230.777847 402.630096,247.042816 398.792664,263.375610 
	C397.978455,266.841064 396.626831,268.188751 392.806763,268.132111 
	C385.516815,268.023987 378.215454,268.683502 370.484100,269.027618 
M389.397064,232.035324 
	C391.162598,230.618912 392.928162,229.202499 394.902618,227.618500 
	C392.532440,224.358582 390.544067,221.304108 388.184113,218.570389 
	C387.464844,217.737183 385.472015,217.149582 384.489105,217.535675 
	C377.848846,220.143997 377.037842,223.243607 381.205383,228.859955 
	C381.795654,229.655457 382.404205,230.458969 382.848022,231.337692 
	C384.369232,234.349655 386.406189,234.349487 389.397064,232.035324 
z"/>
<path fill="#C8C15C" opacity="1.000000" stroke="none" 
	d="
M367.450012,374.041412 
	C368.470764,355.484741 369.887878,336.926270 371.390930,318.045532 
	C389.678955,314.232605 406.738281,315.961151 421.836090,329.110046 
	C424.099792,332.021515 425.924347,334.476471 427.748932,336.931458 
	C431.267761,344.173920 429.654388,351.194977 426.475647,358.613007 
	C423.764862,361.575989 421.411255,364.089844 419.057678,366.603699 
	C403.189728,377.363739 386.040222,379.297913 367.450012,374.041412 
z"/>
<path fill="#A1C439" opacity="1.000000" stroke="none" 
	d="
M428.139771,336.945557 
	C425.924347,334.476471 424.099792,332.021515 422.132721,329.259216 
	C425.246887,325.928253 428.379211,322.747040 431.856964,320.003723 
	C432.622711,319.399689 435.050690,319.867676 435.950867,320.683380 
	C437.865326,322.418091 439.278961,324.705566 441.749054,327.849976 
	C437.185242,330.995209 432.857910,333.977417 428.139771,336.945557 
z"/>
<path fill="#A1C439" opacity="1.000000" stroke="none" 
	d="
M419.155670,366.959595 
	C421.411255,364.089844 423.764862,361.575989 426.434448,359.002686 
	C430.702820,361.644409 434.655182,364.345581 439.103699,367.385895 
	C436.691254,370.765747 434.527618,373.797058 431.981384,377.364380 
	C427.496216,373.823212 423.374969,370.569397 419.155670,366.959595 
z"/>
<path fill="#A1C439" opacity="1.000000" stroke="none" 
	d="
M402.637878,380.310333 
	C402.221771,374.394043 407.778717,375.699097 410.435944,373.584198 
	C410.702606,373.371979 413.425140,375.520935 414.332184,376.990997 
	C416.135254,379.913300 417.467560,383.126068 419.264343,386.765686 
	C415.566315,388.623413 412.244965,390.291901 408.584381,392.130798 
	C406.509766,388.007721 404.656647,384.324860 402.637878,380.310333 
z"/>
<path fill="#A2C539" opacity="1.000000" stroke="none" 
	d="
M380.055267,381.361267 
	C383.561981,380.347107 387.028992,379.569733 390.511017,379.495605 
	C390.968506,379.485870 391.600555,383.057037 391.963501,385.004791 
	C392.171814,386.122650 391.894897,387.322784 392.020081,388.465759 
	C392.502594,392.870941 391.831299,395.391754 386.141571,395.254120 
	C381.016174,395.130096 379.282898,393.687897 379.951080,388.750122 
	C380.258575,386.477600 380.014313,384.130402 380.055267,381.361267 
z"/>
<path fill="#A1C439" opacity="1.000000" stroke="none" 
	d="
M389.026733,306.002380 
	C389.032501,298.291077 392.380157,295.427277 398.854034,298.480957 
	C400.677155,299.340912 400.728455,304.714478 400.888733,308.051575 
	C400.981476,309.982056 400.150879,313.178558 398.885681,313.686096 
	C396.591431,314.606476 392.983429,314.909027 391.198883,313.654999 
	C389.588654,312.523499 389.683716,308.965302 389.026733,306.002380 
z"/>
<path fill="#A1C439" opacity="1.000000" stroke="none" 
	d="
M424.218018,307.831970 
	C424.754150,309.528137 425.391174,311.061676 425.138306,312.430817 
	C424.921265,313.606171 423.700623,314.603943 422.900482,315.662659 
	C417.017761,323.446136 415.500000,323.448792 408.351044,315.399292 
	C409.750702,313.493073 411.191315,311.505829 412.658020,309.538055 
	C418.429047,301.795258 417.155701,302.886536 424.218018,307.831970 
z"/>
<path fill="#A1C439" opacity="1.000000" stroke="none" 
	d="
M438.968689,352.061584 
	C436.403717,351.574615 432.768127,351.505219 432.501221,350.521698 
	C431.716400,347.629730 431.633850,344.150604 432.614838,341.374359 
	C432.998688,340.288086 436.936768,340.403564 439.270386,340.072601 
	C443.189941,339.516724 445.468567,340.427338 445.143433,345.241302 
	C444.872375,349.254150 445.397125,353.138123 438.968689,352.061584 
z"/>
<path fill="#FCE148" opacity="1.000000" stroke="none" 
	d="
M277.168762,125.381058 
	C276.878143,119.556862 277.044861,114.030022 276.603729,108.552147 
	C275.968048,100.658775 274.852386,92.805046 274.015503,84.926544 
	C273.475220,79.840271 273.067261,74.739937 272.344360,69.342178 
	C274.417267,66.543182 281.304504,65.710266 284.715637,68.247574 
	C286.345947,84.356750 287.705414,99.762512 289.191315,116.601288 
	C295.720947,108.712517 301.389191,102.060158 306.830627,95.227158 
	C311.036102,89.946198 314.957306,84.438866 319.004852,79.032166 
	C324.121185,77.644516 329.681458,81.804489 329.599121,87.638657 
	C325.516541,92.215652 321.625061,96.243034 318.033478,100.522102 
	C311.779846,107.972733 305.711212,115.578598 299.068542,123.728508 
	C301.023529,123.855667 302.135895,124.076447 303.218262,123.975540 
	C314.598541,122.914581 325.979645,121.855377 337.347412,120.670311 
	C340.582916,120.333008 343.775940,119.588394 346.988464,119.030571 
	C351.613617,122.369377 350.013153,126.901260 348.662506,131.615204 
	C341.728394,132.372559 335.448212,132.612259 329.201477,133.204590 
	C316.727356,134.387405 304.271606,135.763626 291.808258,137.059967 
	C289.837799,137.059967 287.867371,137.059967 285.686920,137.059967 
	C285.269653,135.474533 284.863800,133.932571 284.414124,132.224136 
	C282.700348,132.092300 281.090515,131.968475 279.563446,131.851013 
	C278.782257,129.675873 278.068359,127.688087 277.168762,125.381058 
z"/>
<path fill="#F0CF32" opacity="1.000000" stroke="none" 
	d="
M291.981934,137.354065 
	C304.271606,135.763626 316.727356,134.387405 329.201477,133.204590 
	C335.448212,132.612259 341.728394,132.372559 348.442535,131.961639 
	C349.390442,146.904755 344.410950,160.143738 336.089386,172.696487 
	C323.279938,162.805267 310.608215,152.599228 297.941589,142.386902 
	C296.000885,140.822250 294.083649,139.228455 291.981934,137.354065 
z"/>
<path fill="#F0CF31" opacity="1.000000" stroke="none" 
	d="
M346.986603,118.637619 
	C343.775940,119.588394 340.582916,120.333008 337.347412,120.670311 
	C325.979645,121.855377 314.598541,122.914581 303.218262,123.975540 
	C302.135895,124.076447 301.023529,123.855667 299.068542,123.728508 
	C305.711212,115.578598 311.779846,107.972733 318.033478,100.522102 
	C321.625061,96.243034 325.516541,92.215652 329.613556,88.035797 
	C339.126831,96.111031 344.124054,106.576378 346.986603,118.637619 
z"/>
<path fill="#F0CF31" opacity="1.000000" stroke="none" 
	d="
M318.811920,78.751930 
	C314.957306,84.438866 311.036102,89.946198 306.830627,95.227158 
	C301.389191,102.060158 295.720947,108.712517 289.191315,116.601288 
	C287.705414,99.762512 286.345947,84.356750 284.981689,68.498505 
	C297.078308,68.657906 308.519287,71.400734 318.811920,78.751930 
z"/>
<path fill="#67A338" opacity="1.000000" stroke="none" 
	d="
M124.974396,374.967255 
	C127.931953,379.376312 131.080612,383.671875 133.786865,388.230133 
	C135.967392,391.902893 137.613342,395.893036 139.979767,400.730255 
	C125.054047,404.200043 111.154266,408.141235 97.818459,396.540771 
	C93.589828,413.561188 79.118263,417.383484 64.366600,423.527924 
	C63.815384,413.355255 63.311611,404.058167 62.764980,393.970215 
	C61.498875,393.911133 59.260315,393.806641 56.593323,393.698059 
	C50.234489,392.438232 44.304089,391.182526 37.730255,389.790588 
	C42.904255,379.130341 47.082512,368.607422 57.278637,362.756622 
	C64.184570,358.793884 71.783623,358.463440 79.795425,362.302002 
	C81.757576,364.534912 83.173767,366.391296 84.770523,368.588135 
	C85.306465,370.973450 85.661850,373.018311 86.003777,375.423462 
	C88.155769,376.912567 90.321220,378.041382 92.939323,379.406189 
	C93.856018,377.194489 94.539154,375.546326 95.069748,373.588440 
	C93.616104,370.831085 92.314995,368.383453 91.196960,365.655609 
	C95.348717,363.541901 92.280586,360.456818 92.693420,357.990875 
	C98.601379,349.285583 106.809525,345.644379 117.604187,346.817047 
	C118.661751,346.910858 119.334618,347.038300 120.636116,347.393066 
	C128.078033,350.773926 134.891327,353.927521 141.704620,357.081116 
	C141.758423,357.460754 141.812241,357.840363 141.570282,358.686890 
	C135.841156,364.424927 130.407776,369.696106 124.974396,374.967255 
z"/>
<path fill="#BE1F2E" opacity="1.000000" stroke="none" 
	d="
M92.420891,357.767700 
	C92.280586,360.456818 95.348717,363.541901 90.830307,365.715607 
	C88.383698,366.786438 86.486832,367.517059 84.589966,368.247681 
	C83.173767,366.391296 81.757576,364.534912 80.175049,362.393921 
	C79.006516,355.422852 77.450653,348.762085 77.139626,342.043640 
	C76.733788,333.277588 80.140587,325.520691 85.835365,318.860107 
	C86.747330,317.793488 88.118683,317.119629 89.520370,316.085083 
	C91.774422,319.233124 93.771164,322.021820 95.951630,325.067108 
	C87.423149,335.026550 87.434608,346.033630 92.420891,357.767700 
z"/>
<path fill="#BF1F2E" opacity="1.000000" stroke="none" 
	d="
M49.371540,305.404846 
	C49.882252,300.865204 50.574253,296.688232 51.222305,292.776520 
	C51.987751,292.463165 52.317375,292.187653 52.581459,292.240356 
	C64.515228,294.623260 64.984573,295.750031 59.086796,308.928955 
	C55.957596,307.891327 52.755215,306.829407 49.371540,305.404846 
z"/>
<path fill="#BF1F2E" opacity="1.000000" stroke="none" 
	d="
M39.434074,339.645569 
	C43.214344,339.940155 43.366924,342.205536 42.844688,344.684692 
	C42.168133,347.896362 41.294601,351.066589 40.508446,354.244202 
	C26.745575,352.275085 27.700399,353.404846 32.913074,338.118805 
	C34.931828,338.576813 36.989677,339.043701 39.434074,339.645569 
z"/>
<path fill="#BF1F2E" opacity="1.000000" stroke="none" 
	d="
M81.725304,257.142395 
	C83.841759,260.095795 85.732635,262.759888 87.604324,265.396942 
	C77.650185,274.099731 79.013893,274.785217 70.627159,261.653351 
	C74.840858,255.683685 78.120941,254.235504 81.725304,257.142395 
z"/>
<path fill="#BF1F2E" opacity="1.000000" stroke="none" 
	d="
M47.100700,217.806717 
	C49.549068,221.149277 51.732903,224.245926 54.698856,228.451630 
	C50.925228,230.296936 46.461903,234.076035 44.550896,233.059067 
	C41.260872,231.308228 39.560398,226.570480 37.192799,223.086304 
	C40.407253,221.244476 43.621712,219.402649 47.100700,217.806717 
z"/>
<path fill="#DB3744" opacity="1.000000" stroke="none" 
	d="
M141.746948,356.658295 
	C134.891327,353.927521 128.078033,350.773926 120.978989,347.383179 
	C129.640945,345.567108 129.911774,345.504425 128.004333,337.262054 
	C123.399857,317.365295 118.543709,297.526550 113.740326,277.676208 
	C106.633141,248.305206 99.479202,218.945511 92.369873,189.575043 
	C92.098709,188.454803 92.084923,187.272293 91.946442,185.719482 
	C112.317009,185.299728 132.692337,185.279282 153.529022,185.343170 
	C150.307419,207.530334 145.906113,229.544449 143.163132,251.763306 
	C140.866257,270.368774 139.781876,289.202881 139.510223,307.955292 
	C139.277283,324.034302 140.955978,340.141022 141.746948,356.658295 
M114.039757,206.647720 
	C113.636322,208.423111 113.468307,210.296265 112.780083,211.953384 
	C111.379860,215.324860 112.978439,216.729828 115.967735,216.944977 
	C118.890671,217.155380 122.618027,220.843628 124.307503,214.799072 
	C127.124359,204.720993 127.314613,204.769211 117.378761,202.300781 
	C116.917976,202.186310 116.403946,202.286102 115.694054,202.286102 
	C115.199165,203.465973 114.696388,204.664642 114.039757,206.647720 
z"/>
<path fill="#D93A44" opacity="1.000000" stroke="none" 
	d="
M125.338806,375.023926 
	C130.407776,369.696106 135.841156,364.424927 141.558350,358.974976 
	C143.196991,367.922546 144.551819,377.048920 145.875900,386.590332 
	C139.131180,383.030426 132.417191,379.055511 125.338806,375.023926 
z"/>
<path fill="#EB9B05" opacity="1.000000" stroke="none" 
	d="
M307.729248,300.800781 
	C306.148499,300.953186 304.238220,301.408173 303.682983,300.738953 
	C301.186646,297.730042 299.075073,294.401886 296.588104,290.851044 
	C299.902191,288.422882 302.782990,286.312195 306.108887,283.875366 
	C308.958282,287.836761 311.610138,291.523468 314.543365,295.601379 
	C312.148743,297.432068 310.086182,299.008881 307.729248,300.800781 
z"/>
<path fill="#EB9B05" opacity="1.000000" stroke="none" 
	d="
M201.123627,372.661560 
	C202.484299,374.751648 201.308456,385.733795 199.681381,385.914581 
	C196.007553,386.322723 192.190491,385.441742 187.818192,385.027008 
	C188.966324,380.506470 189.674286,376.801422 190.940903,373.298370 
	C191.314621,372.264801 193.265579,371.212616 194.496323,371.209564 
	C196.583160,371.204346 198.672089,372.026245 201.123627,372.661560 
z"/>
<path fill="#EB9B05" opacity="1.000000" stroke="none" 
	d="
M220.435913,310.694885 
	C222.852188,314.042938 225.061203,317.117157 227.543365,320.571472 
	C224.888641,322.591431 222.673172,324.563446 220.162598,326.030426 
	C219.296463,326.536499 217.134857,326.252319 216.528809,325.525482 
	C214.116394,322.632294 212.084290,319.421967 209.616074,315.908752 
	C212.691269,313.653442 215.408875,311.582550 218.241913,309.683929 
	C218.585251,309.453796 219.551239,310.152710 220.435913,310.694885 
z"/>
<path fill="#EB9B05" opacity="1.000000" stroke="none" 
	d="
M300.807800,371.927155 
	C301.151093,369.239777 301.857819,367.699402 304.702576,368.680664 
	C306.565002,369.323120 308.674866,369.345184 310.429596,370.166809 
	C311.488373,370.662567 312.890442,372.295441 312.740143,373.179657 
	C312.086487,377.024506 310.919434,380.782074 309.959381,384.492188 
	C297.854584,382.957825 297.854584,382.957825 300.807800,371.927155 
z"/>
<path fill="#EB9B05" opacity="1.000000" stroke="none" 
	d="
M298.419312,254.286041 
	C295.260803,259.417358 291.957672,254.744278 288.815247,254.721786 
	C288.227112,254.717606 287.252533,251.968048 287.187469,250.453964 
	C287.111603,248.690109 287.930756,246.905289 288.198914,245.105362 
	C288.718872,241.615326 290.516022,240.419342 294.059875,241.020645 
	C301.081512,242.212036 301.429352,242.585052 299.663513,249.574966 
	C299.297974,251.021881 298.926971,252.467407 298.419312,254.286041 
z"/>
<path fill="#EA9B05" opacity="1.000000" stroke="none" 
	d="
M251.439026,424.390930 
	C252.454803,425.811249 253.649780,427.114685 253.599701,428.368378 
	C253.516266,430.456940 252.419250,432.484619 252.136627,434.589966 
	C251.615204,438.474091 249.844040,439.926971 246.120392,438.186157 
	C244.047684,437.217163 240.251389,435.994110 240.311234,435.089142 
	C240.565048,431.250702 241.415695,427.171478 243.287552,423.886353 
	C243.870071,422.864044 248.358398,424.067261 251.439026,424.390930 
z"/>
<path fill="#DA3543" opacity="1.000000" stroke="none" 
	d="
M121.050507,432.638611 
	C121.026505,431.854156 121.020844,431.521515 121.019295,431.188843 
	C120.988342,424.543152 125.137466,421.672638 131.280624,424.208405 
	C132.003922,424.506958 132.792496,425.561218 132.876556,426.338135 
	C133.264572,429.924347 133.413940,433.536407 133.646469,437.102814 
	C123.899597,440.415436 122.807472,440.060455 121.050507,432.638611 
z"/>
<path fill="#DA3543" opacity="1.000000" stroke="none" 
	d="
M90.013763,444.967316 
	C87.493958,449.252228 84.865768,449.512787 81.606941,446.180298 
	C79.785027,444.317169 77.581627,442.827057 75.731804,441.317139 
	C75.731804,440.642639 75.600227,440.230774 75.750648,440.023590 
	C83.365860,429.534027 80.113724,429.605316 93.164597,440.435822 
	C92.191299,441.814545 91.189995,443.232941 90.013763,444.967316 
z"/>
<path fill="#DA3543" opacity="1.000000" stroke="none" 
	d="
M126.402512,466.338226 
	C128.180283,463.990570 129.785095,463.475098 131.985214,465.406189 
	C134.441742,467.562225 137.158875,469.421387 140.322006,471.836975 
	C138.057327,475.001190 135.919785,477.987762 133.469498,481.411316 
	C129.888779,478.738190 126.662079,476.514465 123.704659,473.976868 
	C123.055603,473.419983 122.936562,471.566895 123.330696,470.628876 
	C123.949501,469.156219 125.211906,467.954010 126.402512,466.338226 
z"/>
<path fill="#DA3543" opacity="1.000000" stroke="none" 
	d="
M105.000687,454.994080 
	C109.788239,454.274231 111.537384,455.955444 111.088852,460.434174 
	C110.832603,462.992889 111.381233,465.632202 111.591240,468.567749 
	C107.931435,468.942719 104.388405,469.305725 100.180717,469.736816 
	C99.779465,466.551208 99.469704,463.484100 98.992073,460.443359 
	C98.287933,455.960541 100.233322,454.308990 105.000687,454.994080 
z"/>
<path fill="#68A538" opacity="1.000000" stroke="none" 
	d="
M389.112122,232.255035 
	C386.406189,234.349487 384.369232,234.349655 382.848022,231.337692 
	C382.404205,230.458969 381.795654,229.655457 381.205383,228.859955 
	C377.037842,223.243607 377.848846,220.143997 384.489105,217.535675 
	C385.472015,217.149582 387.464844,217.737183 388.184113,218.570389 
	C390.544067,221.304108 392.532440,224.358582 394.902618,227.618500 
	C392.928162,229.202499 391.162598,230.618912 389.112122,232.255035 
z"/>
<path fill="#D73843" opacity="1.000000" stroke="none" 
	d="
M84.770523,368.588135 
	C86.486832,367.517059 88.383698,366.786438 90.647232,365.995789 
	C92.314995,368.383453 93.616104,370.831085 94.634506,373.615723 
	C91.573616,374.322876 88.795418,374.693054 86.017227,375.063202 
	C85.661850,373.018311 85.306465,370.973450 84.770523,368.588135 
z"/>
<path fill="#BB252E" opacity="1.000000" stroke="none" 
	d="
M86.003769,375.423462 
	C88.795418,374.693054 91.573616,374.322876 94.787048,373.925415 
	C94.539154,375.546326 93.856018,377.194489 92.939323,379.406189 
	C90.321220,378.041382 88.155769,376.912567 86.003769,375.423462 
z"/>
<path fill="#BF1F2E" opacity="1.000000" stroke="none" 
	d="
M114.116684,206.255524 
	C114.696388,204.664642 115.199165,203.465973 115.694054,202.286102 
	C116.403946,202.286102 116.917976,202.186310 117.378761,202.300781 
	C127.314613,204.769211 127.124359,204.720993 124.307503,214.799072 
	C122.618027,220.843628 118.890671,217.155380 115.967735,216.944977 
	C112.978439,216.729828 111.379860,215.324860 112.780083,211.953384 
	C113.468307,210.296265 113.636322,208.423111 114.116684,206.255524 
z"/>
</svg>