<svg version="1.1" id="Layer_1" xmlns="http://www.w3.org/2000/svg" xmlns:xlink="http://www.w3.org/1999/xlink" x="0px" y="0px"
	 width="100%" viewBox="0 0 512 512" enable-background="new 0 0 512 512" xml:space="preserve">

<path fill="none" opacity="1.000000" stroke="none" 
	d="
M387.531342,1.000001 
	C384.187469,3.633575 380.504150,6.482482 376.539001,8.861704 
	C362.800537,17.105259 348.945221,25.153854 335.181885,33.356346 
	C332.630920,34.876614 330.588379,34.245476 327.855377,33.446747 
	C318.074158,30.588125 308.141693,28.178566 298.168732,26.058849 
	C278.840027,21.950594 259.160950,22.331842 239.635742,23.190229 
	C216.075104,24.226027 193.234756,29.594692 171.100632,37.916916 
	C153.177078,44.656006 136.160004,53.155468 120.402397,63.979771 
	C111.703377,69.955338 103.423149,76.586639 95.297905,83.336174 
	C89.310562,88.309776 83.879944,93.953583 77.759949,99.778473 
	C73.115135,105.161621 68.722862,109.916962 64.740234,114.993675 
	C45.705929,139.256897 31.293425,166.018982 22.333761,195.556808 
	C19.708189,204.212692 18.207136,213.209702 16.190681,222.050354 
	C15.160979,227.210617 13.360341,232.353134 13.241081,237.534348 
	C12.825269,255.599213 12.436692,273.697021 13.073705,291.745789 
	C13.905345,315.309021 20.394938,337.774628 29.092539,359.528900 
	C37.679100,381.005402 48.757980,401.178864 63.613365,419.039520 
	C71.127769,428.074097 78.603065,437.255951 87.057365,445.369537 
	C103.235283,460.895508 121.283974,474.066803 141.175507,484.573395 
	C142.632965,485.343262 144.246613,485.817413 146.345551,486.701172 
	C147.270844,487.301880 147.588409,487.727661 148.012711,487.945160 
	C171.077652,499.768066 195.575317,507.049469 221.113586,511.080048 
	C222.476105,511.295135 223.707535,512.340942 225.000000,513.000000 
	C150.362396,513.000000 75.724808,513.000000 1.043606,513.000000 
	C1.043606,342.428864 1.043606,171.857712 1.043606,1.000000 
	C129.687424,1.000000 258.375061,1.000000 387.531342,1.000001 
z"/>
<path fill="#FACB68" opacity="1.000000" stroke="none" 
	d="
M468.052002,142.852295 
	C480.511932,162.371887 488.785309,183.768875 494.845947,205.913818 
	C502.110992,232.459671 503.622681,259.824585 501.784149,287.121857 
	C499.989868,313.762360 493.592407,339.558502 483.018585,364.246735 
	C474.285828,384.636292 463.034515,403.521393 449.434143,420.944489 
	C435.706207,438.531036 419.559753,453.784302 401.455902,466.808777 
	C378.833710,483.083862 354.282776,495.739288 327.334351,503.113464 
	C315.032318,506.479767 302.337097,508.405518 289.832306,511.042206 
	C288.944061,511.229492 288.156128,511.892548 287.660767,512.667236 
	C286.933319,513.000000 285.866669,513.000000 284.830811,512.980408 
	C286.028259,511.919250 287.037903,510.569153 288.385590,509.883453 
	C303.472351,502.207550 318.996399,495.302582 333.639282,486.865112 
	C352.279297,476.124390 369.200745,462.870850 384.246674,447.368683 
	C419.648132,413.391388 445.383331,373.271790 460.209381,326.440674 
	C477.412842,272.100098 478.095764,217.771805 458.871429,163.660400 
	C458.334503,162.149124 458.287140,160.463882 458.373108,158.265701 
	C461.840485,152.731857 464.946228,147.792068 468.052002,142.852295 
z"/>
<path fill="#2C2C42" opacity="1.000000" stroke="none" 
	d="
M384.041626,447.049011 
	C369.200745,462.870850 352.279297,476.124390 333.639282,486.865112 
	C318.996399,495.302582 303.472351,502.207550 288.385590,509.883453 
	C287.037903,510.569153 286.028259,511.919250 284.430817,512.980408 
	C264.645782,513.000000 245.291550,513.000000 225.468658,513.000000 
	C223.707535,512.340942 222.476105,511.295135 221.113586,511.080048 
	C195.575317,507.049469 171.077652,499.768066 148.012711,487.945160 
	C147.588409,487.727661 147.270844,487.301880 146.715027,486.689636 
	C159.513138,487.881378 172.470398,489.786041 185.496979,490.674316 
	C193.557877,491.223969 201.768768,490.664185 209.834183,489.838898 
	C228.706329,487.907928 247.247849,484.194580 265.163116,477.788025 
	C293.753418,467.564056 319.951416,453.115509 343.144409,433.396515 
	C348.178497,429.116394 353.238434,424.866699 358.970856,420.024902 
	C359.764709,422.279541 360.718262,423.981903 360.935669,425.773590 
	C362.077301,435.182831 367.339081,440.687195 376.364258,443.141144 
	C378.986389,443.854095 381.352875,445.507233 384.041626,447.049011 
z"/>
<path fill="#545460" opacity="1.000000" stroke="none" 
	d="
M118.000702,136.980927 
	C116.619576,135.978439 115.377815,134.515945 113.834618,134.048370 
	C104.073563,131.090805 98.113167,123.990707 97.888321,114.185249 
	C97.858307,112.876778 99.212616,111.172684 100.394241,110.254700 
	C119.301880,95.565590 139.836945,83.671410 162.101700,74.826439 
	C178.547440,68.293152 195.480057,63.419659 212.994370,60.815582 
	C229.279938,58.394207 245.576172,57.222523 262.126495,58.742359 
	C277.095795,60.117008 291.755371,62.409779 306.143555,66.777512 
	C329.058258,73.733612 349.856049,84.686005 368.290283,99.878944 
	C402.698364,128.237076 423.310913,164.903381 431.503723,208.449631 
	C437.717255,241.475494 435.409302,274.239563 426.331665,306.609772 
	C419.942017,329.394897 410.510803,350.838959 397.921356,370.764374 
	C388.601562,385.514862 378.337921,399.693665 365.646729,411.881165 
	C363.293396,414.141113 360.930847,418.380768 358.673279,418.313751 
	C354.664734,418.194763 350.211853,416.162750 346.917480,413.653900 
	C343.675690,411.185089 341.404205,407.279633 339.165161,403.716614 
	C337.792816,401.532837 337.282471,398.807373 336.252441,395.799133 
	C337.225342,393.849823 338.330872,392.426544 339.733521,390.881989 
	C340.350769,390.486969 340.670868,390.213226 340.988953,389.971191 
	C340.986908,390.002899 340.927612,389.980194 341.233459,389.839539 
	C347.520782,382.803894 353.757355,376.109497 359.392426,368.942200 
	C363.043213,364.298737 365.815125,358.964264 368.995850,353.965393 
	C369.010895,353.991394 368.952576,354.005676 369.180847,353.870117 
	C369.611481,353.445770 369.813812,353.156952 370.189331,352.590729 
	C374.563324,347.554840 378.764099,342.796387 383.161774,337.748535 
	C388.396698,329.338623 390.251587,320.395905 390.423950,310.697021 
	C391.072845,309.532684 391.603149,308.666656 391.913757,307.727936 
	C403.140503,273.799957 405.905609,239.345749 397.225464,204.480301 
	C389.175110,172.144623 372.438904,144.974121 346.272522,124.105919 
	C339.443054,118.659256 331.497955,114.611488 323.868103,109.644623 
	C321.662231,108.210876 319.721344,106.911102 317.634430,105.918228 
	C290.328247,92.926880 261.360474,89.132172 231.549591,91.226761 
	C222.179169,91.885155 212.939255,94.401001 203.286560,96.016541 
	C199.480698,94.989082 196.082748,93.573196 192.562759,93.132935 
	C186.662231,92.394936 184.648224,94.485092 184.073181,100.803314 
	C181.155624,102.083061 178.512756,103.008392 175.998978,104.204926 
	C168.472427,107.787529 160.996368,111.476212 153.491333,115.328751 
	C153.121933,115.688797 152.761780,115.843575 152.130829,116.131538 
	C151.565796,116.530991 151.271561,116.797256 150.993378,117.028503 
	C151.009430,116.993484 151.079575,117.025398 150.701218,117.015694 
	C147.244476,118.647079 144.166077,120.288170 140.670074,121.921936 
	C138.623291,121.619179 137.005402,121.191238 135.362976,121.051102 
	C128.007980,120.423546 125.604225,123.680702 127.873978,130.759705 
	C124.352409,132.918320 121.176552,134.949631 118.000702,136.980927 
z"/>
<path fill="#545460" opacity="1.000000" stroke="none" 
	d="
M468.199219,142.552383 
	C464.946228,147.792068 461.840485,152.731857 458.457703,157.859985 
	C456.820496,156.091446 455.082001,154.297531 454.157867,152.152740 
	C443.641815,127.745522 429.079559,106.082748 410.569824,87.026711 
	C405.184174,81.482048 408.243713,75.204041 410.309540,69.750679 
	C415.851166,55.121822 427.714783,48.103390 442.443237,45.132458 
	C444.397339,44.738293 446.357513,44.374207 448.727844,43.959702 
	C461.900330,56.589870 474.916534,69.011940 487.316223,82.021584 
	C493.973541,89.006393 494.063324,98.022278 489.775574,106.084740 
	C483.202759,118.443909 475.544220,130.225662 468.199219,142.552383 
z"/>
<path fill="#FACB68" opacity="1.000000" stroke="none" 
	d="
M47.019127,360.980225 
	C41.921970,355.942444 39.048874,350.161316 41.071274,342.076233 
	C43.814514,334.269592 49.356926,330.765930 56.711792,329.016785 
	C60.539467,330.100647 63.940479,331.377655 67.448250,332.198364 
	C69.833664,332.756500 73.227104,333.785797 74.672691,332.668091 
	C78.702377,329.552460 83.057968,325.977844 85.248436,321.572021 
	C88.465637,315.100952 85.092712,306.653595 79.865295,303.610046 
	C82.687920,299.186005 85.387604,295.082672 88.431770,290.929504 
	C90.663933,289.879578 92.551613,288.879486 94.839149,287.875549 
	C99.364395,287.597809 103.489784,287.323975 107.670326,287.046478 
	C108.069237,288.145386 108.213264,290.519257 109.473236,291.653717 
	C113.784546,295.535522 115.965378,300.337860 116.737991,306.162231 
	C114.699471,318.227173 107.247002,323.334747 95.076691,323.367523 
	C96.756195,325.140808 97.774460,326.215942 98.873627,327.677612 
	C102.167427,340.151733 99.881096,345.927399 88.591133,353.205048 
	C83.835724,353.182129 79.482452,353.182129 74.510391,353.182129 
	C71.838364,359.590851 66.483986,363.721405 58.350327,364.584351 
	C54.299061,363.355499 50.659092,362.167877 47.019127,360.980225 
z"/>
<path fill="#2E2D42" opacity="1.000000" stroke="none" 
	d="
M46.795563,361.236816 
	C50.659092,362.167877 54.299061,363.355499 58.347900,364.970459 
	C58.701855,372.311707 61.098328,377.261200 66.288261,378.545074 
	C69.649704,379.376648 73.418327,378.562195 76.667938,378.831512 
	C73.521019,386.041443 74.853676,391.883026 80.041084,395.438904 
	C84.978043,398.823120 90.918533,398.056122 96.256683,393.360596 
	C97.920166,391.897430 99.609230,390.463348 101.760674,388.606842 
	C101.923271,391.381836 102.028778,393.182465 102.058983,395.448792 
	C101.979279,404.220520 101.902382,412.527344 101.994720,420.832336 
	C102.061661,426.853668 105.870277,431.647217 111.263039,432.846497 
	C117.211517,434.169373 122.433975,431.290558 125.479271,425.145264 
	C129.477890,429.329285 132.863037,433.759644 139.567780,433.046936 
	C145.353607,432.431885 147.754639,427.975189 150.907043,424.566956 
	C153.374649,427.443024 155.811981,429.967407 158.358734,432.808899 
	C159.060150,435.320404 158.972107,438.203979 160.369156,439.582520 
	C164.916870,444.070038 170.007446,448.007385 175.069336,452.420959 
	C176.562210,454.108398 177.874863,455.531372 179.187500,456.954346 
	C155.218369,456.549500 133.035980,449.586731 112.090729,438.368286 
	C98.349411,431.008362 86.221420,421.415771 75.609192,410.030273 
	C63.128342,396.639923 53.454479,381.391907 46.736851,364.327332 
	C46.407490,363.490692 46.614670,362.442841 46.795563,361.236816 
z"/>
<path fill="#FAD49E" opacity="1.000000" stroke="none" 
	d="
M51.041260,226.979019 
	C50.643436,219.350143 52.833096,212.950150 60.259468,208.412766 
	C73.077332,203.556137 81.980103,208.129074 86.211006,221.288361 
	C86.185493,221.467224 86.236610,221.827438 86.186142,222.264069 
	C86.187714,232.963303 80.784012,239.024139 70.332581,241.692566 
	C76.723518,245.156021 80.348206,249.601776 81.072769,256.475403 
	C81.614853,262.424774 79.170120,266.863770 75.564850,271.009247 
	C72.118385,271.050720 68.992119,270.721100 66.032555,271.277740 
	C63.198544,271.810822 60.537697,273.264496 57.443287,274.280487 
	C49.833782,271.229614 46.033062,265.595520 46.174671,257.941101 
	C46.352730,248.316620 52.157764,242.789566 59.846928,240.779541 
	C56.924530,236.199463 53.982895,231.589233 51.041260,226.979019 
z"/>
<path fill="#267C35" opacity="1.000000" stroke="none" 
	d="
M335.126099,395.975006 
	C331.199615,399.418304 327.273163,402.861603 322.859436,406.656281 
	C321.855255,407.324890 321.338409,407.642151 320.821564,407.959442 
	C320.821564,407.959442 320.389648,407.984802 319.960327,408.118103 
	C319.248566,408.426208 319.053925,408.670868 318.947021,408.985382 
	C318.947021,408.985382 319.003052,408.963104 318.591095,408.970947 
	C314.887909,409.654785 311.596680,410.330780 308.243835,410.612488 
	C308.104584,405.988953 306.002136,403.109497 302.365173,401.091736 
	C298.456757,398.923431 294.539001,396.740387 290.818604,394.272430 
	C285.728607,390.895905 280.932159,391.066986 276.055756,394.410339 
	C272.125305,387.715240 270.125153,380.033417 263.187988,375.729370 
	C263.194916,372.098114 263.558716,368.616425 262.675079,365.486969 
	C261.746887,362.199646 259.623901,359.249664 258.445007,356.065521 
	C264.907227,354.987732 270.947479,353.996735 277.188477,353.308594 
	C281.225037,354.451385 285.060852,355.291321 288.911133,356.498657 
	C288.592987,357.785126 288.333099,358.738739 287.916168,359.617859 
	C284.710907,366.376190 286.105042,373.443512 291.572266,377.985535 
	C297.005768,382.499512 304.594360,382.887146 310.349152,378.652496 
	C312.426849,377.123596 314.057617,374.987335 315.926910,373.516113 
	C317.862579,385.157227 323.950134,392.775299 335.126099,395.975006 
z"/>
<path fill="#2D2D43" opacity="1.000000" stroke="none" 
	d="
M16.502563,221.918991 
	C18.207136,213.209702 19.708189,204.212692 22.333761,195.556808 
	C31.293425,166.018982 45.705929,139.256897 64.740234,114.993675 
	C68.722862,109.916962 73.115135,105.161621 77.594078,100.067307 
	C81.678192,102.897659 85.389671,106.054588 89.337158,108.882027 
	C91.268051,110.265053 93.637978,111.035133 96.459030,112.396156 
	C93.089508,115.609047 90.494202,118.321724 87.656593,120.751434 
	C66.610535,138.772186 49.321579,159.956894 35.683472,183.971146 
	C29.133890,195.503799 23.984179,207.830994 18.177282,219.787094 
	C17.828520,220.505173 17.273491,221.123093 16.502563,221.918991 
z"/>
<path fill="#2E2E43" opacity="1.000000" stroke="none" 
	d="
M86.236519,221.109482 
	C81.980103,208.129074 73.077332,203.556137 60.445660,208.140182 
	C64.897034,200.121460 69.295784,191.717209 74.681396,184.001816 
	C80.643272,175.460876 87.507866,167.550079 94.426498,159.136810 
	C102.252357,160.212387 110.107948,159.545609 116.877068,164.461792 
	C120.655357,169.340378 124.235497,173.943619 127.419952,178.408813 
	C125.718475,177.564972 124.413628,176.857407 123.106735,176.153625 
	C112.037247,170.192780 97.127792,171.963135 89.073845,180.544388 
	C87.603264,182.111237 86.177536,185.334274 86.845024,186.879791 
	C87.655396,188.756088 90.568855,190.014893 92.823021,190.909225 
	C96.276657,192.279480 99.944405,193.110046 103.135437,194.294922 
	C97.041786,195.321548 92.478508,197.996002 89.438995,203.023376 
	C85.825516,209.000107 86.722931,215.064896 88.722321,221.153442 
	C87.856232,221.189331 87.362564,221.228317 86.721573,221.184631 
	C86.574265,221.101974 86.236519,221.109482 86.236519,221.109482 
z"/>
<path fill="#6BC874" opacity="1.000000" stroke="none" 
	d="
M288.896637,356.131256 
	C285.060852,355.291321 281.225037,354.451385 277.463806,353.085175 
	C285.288391,348.282623 293.038391,344.006348 300.876556,340.084167 
	C306.487183,345.547150 311.505768,351.395508 317.654602,355.585114 
	C326.102478,361.341217 336.215851,362.129150 346.269958,362.496094 
	C345.732239,368.400696 345.519318,373.900391 344.550812,379.263580 
	C343.887939,382.934174 342.172485,386.414703 340.927612,389.980194 
	C340.927612,389.980194 340.986908,390.002899 340.648193,389.984253 
	C340.018433,390.311493 339.727448,390.657410 339.436401,391.003296 
	C338.330872,392.426544 337.225342,393.849823 335.980103,395.541321 
	C335.840363,395.809570 335.480560,395.886810 335.303345,395.930908 
	C323.950134,392.775299 317.862579,385.157227 315.963196,373.045532 
	C315.996185,370.538086 316.047943,368.889191 316.055542,367.240112 
	C316.116333,354.005768 304.769348,347.360657 293.244812,353.864990 
	C291.822205,354.667877 290.347290,355.378082 288.896637,356.131256 
z"/>
<path fill="#AE5B5B" opacity="1.000000" stroke="none" 
	d="
M300.046661,426.015991 
	C297.293976,430.898865 294.830139,435.976715 291.704651,440.608002 
	C288.774445,444.949921 284.090057,445.781158 279.407928,443.423889 
	C277.046875,442.235229 274.824310,440.771484 271.942566,439.110291 
	C269.535980,437.678436 267.734650,436.553894 265.914307,435.461090 
	C259.289490,431.483856 258.051239,427.996887 260.890991,420.630371 
	C261.407593,419.662109 261.762604,418.871887 262.352539,417.845093 
	C264.381866,415.062164 266.176270,412.515808 268.363770,409.906799 
	C272.516022,410.359314 276.561584,410.172150 279.964691,411.560150 
	C284.645752,413.469391 289.007446,416.331726 293.182892,419.248260 
	C295.779602,421.062134 297.779114,423.730896 300.046661,426.015991 
z"/>
<path fill="#F9CA68" opacity="1.000000" stroke="none" 
	d="
M36.109661,317.493256 
	C29.086403,314.111206 24.843090,308.816071 24.937994,300.746368 
	C25.027241,293.157532 28.864281,287.941620 36.243519,284.442169 
	C42.608727,282.434021 47.890347,283.754028 52.995781,286.895508 
	C52.752064,293.693329 55.959599,298.499451 60.111740,303.180481 
	C57.007412,307.954590 54.025417,312.359344 50.615639,316.787354 
	C45.495121,317.038177 40.802391,317.265717 36.109661,317.493256 
z"/>
<path fill="#984F4F" opacity="1.000000" stroke="none" 
	d="
M234.939011,450.966278 
	C231.958221,453.449951 228.896744,455.673767 224.013641,453.958618 
	C219.258575,450.437439 215.162735,447.111603 211.051147,443.588074 
	C211.035385,443.390411 210.991745,442.996185 211.060120,442.635864 
	C212.684052,435.015869 218.565247,430.786407 223.004135,425.599640 
	C226.632767,421.359619 230.395279,416.873779 237.325165,418.110168 
	C240.930969,421.188049 244.250061,424.094025 247.626068,427.441162 
	C249.027344,433.039490 247.349854,437.163574 243.694839,440.888489 
	C240.583862,444.059021 237.843414,447.593079 234.939011,450.966278 
z"/>
<path fill="#6D2E2B" opacity="1.000000" stroke="none" 
	d="
M210.991745,442.996185 
	C210.991745,442.996185 211.035385,443.390411 210.764725,443.789490 
	C206.991745,448.463257 203.489410,452.737915 199.987091,457.012573 
	C192.669708,464.691772 189.726425,465.118530 179.506958,457.035645 
	C177.874863,455.531372 176.562210,454.108398 175.098175,451.968384 
	C174.510864,446.391632 175.818253,442.427673 179.474167,438.794159 
	C184.006165,434.289978 187.819122,429.062286 192.236816,424.254272 
	C193.708878,425.215363 194.886780,426.069305 196.063400,427.296631 
	C198.440186,435.309937 205.335464,438.549591 210.991745,442.996185 
z"/>
<path fill="#80DF85" opacity="1.000000" stroke="none" 
	d="
M116.678917,164.186417 
	C110.107948,159.545609 102.252357,160.212387 94.481972,158.773087 
	C91.216225,154.887863 92.187172,151.634048 95.295044,148.565781 
	C101.361488,142.576584 108.569214,139.485565 117.993530,139.787003 
	C123.555229,141.552780 128.271683,143.301529 132.983215,145.450729 
	C131.228043,157.502029 126.378433,162.957367 116.678917,164.186417 
z"/>
<path fill="#984F4F" opacity="1.000000" stroke="none" 
	d="
M300.279419,425.805054 
	C297.779114,423.730896 295.779602,421.062134 293.182892,419.248260 
	C289.007446,416.331726 284.645752,413.469391 279.964691,411.560150 
	C276.561584,410.172150 272.516022,410.359314 268.429443,409.558899 
	C270.786621,404.428314 273.471313,399.582947 276.156006,394.737549 
	C280.932159,391.066986 285.728607,390.895905 290.818604,394.272430 
	C294.539001,396.740387 298.456757,398.923431 302.365173,401.091736 
	C306.002136,403.109497 308.104584,405.988953 308.143433,410.972290 
	C306.622223,414.799988 305.139801,417.873596 303.657379,420.947174 
	C302.608978,422.496155 301.560608,424.045135 300.279419,425.805054 
z"/>
<path fill="#302F44" opacity="1.000000" stroke="none" 
	d="
M52.960121,286.519958 
	C47.890347,283.754028 42.608727,282.434021 36.475582,284.205383 
	C37.608253,264.481781 42.522316,245.576096 50.781769,227.217346 
	C53.982895,231.589233 56.924530,236.199463 59.846928,240.779541 
	C52.157764,242.789566 46.352730,248.316620 46.174671,257.941101 
	C46.033062,265.595520 49.833782,271.229614 57.535995,274.605164 
	C56.310814,278.815277 54.635468,282.667603 52.960121,286.519958 
z"/>
<path fill="#2E2D42" opacity="1.000000" stroke="none" 
	d="
M235.221100,451.201904 
	C237.843414,447.593079 240.583862,444.059021 243.694839,440.888489 
	C247.349854,437.163574 249.027344,433.039490 247.995850,427.328796 
	C252.448944,424.786316 256.589203,422.797394 260.729431,420.808441 
	C258.051239,427.996887 259.289490,431.483856 265.914307,435.461090 
	C267.734650,436.553894 269.535980,437.678436 271.624023,438.991974 
	C260.239777,443.424194 248.580322,447.660706 236.902512,451.846039 
	C236.532425,451.978699 235.973862,451.585541 235.221100,451.201904 
z"/>
<path fill="#323144" opacity="1.000000" stroke="none" 
	d="
M36.083824,317.975403 
	C40.802391,317.265717 45.495121,317.038177 50.647209,317.183228 
	C52.847916,321.375702 54.589268,325.195648 56.330612,329.015564 
	C49.356926,330.765930 43.814514,334.269592 41.053017,341.679749 
	C40.199852,340.991516 39.038395,340.059113 38.869450,338.972412 
	C37.809303,332.153259 36.970207,325.299713 36.083824,317.975403 
z"/>
<path fill="#2E2D42" opacity="1.000000" stroke="none" 
	d="
M200.450562,457.014313 
	C203.489410,452.737915 206.991745,448.463257 210.780487,443.987183 
	C215.162735,447.111603 219.258575,450.437439 223.647827,453.930969 
	C216.265503,455.071106 208.589752,456.043579 200.450562,457.014313 
z"/>
<path fill="#2E3044" opacity="1.000000" stroke="none" 
	d="
M132.988129,145.050262 
	C128.271683,143.301529 123.555229,141.552780 118.436157,139.708679 
	C118.023804,138.955551 118.014084,138.297760 118.002533,137.310455 
	C121.176552,134.949631 124.352409,132.918320 128.138931,130.986511 
	C132.489746,135.405334 135.569351,140.000015 134.758652,145.967743 
	C133.999023,145.566772 133.493576,145.308517 132.988129,145.050262 
z"/>
<path fill="#2E2D42" opacity="1.000000" stroke="none" 
	d="
M304.034027,420.916321 
	C305.139801,417.873596 306.622223,414.799988 308.205078,411.366608 
	C311.596680,410.330780 314.887909,409.654785 318.568237,408.951233 
	C314.108459,412.910980 309.259583,416.898193 304.034027,420.916321 
z"/>
<path fill="#2E2D42" opacity="1.000000" stroke="none" 
	d="
M321.139282,407.930481 
	C321.338409,407.642151 321.855255,407.324890 322.669617,406.927551 
	C322.463776,407.198792 321.960388,407.550140 321.139282,407.930481 
z"/>
<path fill="#2E2D42" opacity="1.000000" stroke="none" 
	d="
M319.151520,408.870880 
	C319.053925,408.670868 319.248566,408.426208 319.746826,408.152893 
	C319.818420,408.338440 319.616211,408.572449 319.151520,408.870880 
z"/>
<path fill="#2E2D42" opacity="1.000000" stroke="none" 
	d="
M324.065216,109.921257 
	C331.497955,114.611488 339.443054,118.659256 346.272522,124.105919 
	C372.438904,144.974121 389.175110,172.144623 397.225464,204.480301 
	C405.905609,239.345749 403.140503,273.799957 391.913757,307.727936 
	C391.603149,308.666656 391.072845,309.532684 390.368896,310.270874 
	C389.364410,295.917847 383.082184,284.447052 372.908569,274.536194 
	C373.440826,272.756409 374.151428,271.382996 374.348602,269.939423 
	C375.072083,264.643585 375.624939,259.324432 376.233582,253.569672 
	C376.277679,244.450531 373.052307,236.839798 368.894897,229.436646 
	C378.416779,225.154755 380.757690,217.362030 375.336945,209.028946 
	C374.560303,207.835098 374.147736,206.404419 373.943848,205.060715 
	C380.399536,201.672180 383.245636,196.612869 380.886292,190.735245 
	C375.212646,176.600876 369.079956,162.642273 362.780945,148.772400 
	C360.776001,144.357697 356.579590,142.446640 351.633026,142.819901 
	C346.967926,143.171906 343.449036,145.230164 341.482239,149.799438 
	C338.118744,146.114365 335.071594,142.479752 331.919678,138.527039 
	C329.712128,135.419525 327.609375,132.630112 325.634705,129.493347 
	C330.405548,121.076126 329.894409,117.126831 323.546509,110.492752 
	C323.834900,110.175491 323.950043,110.048370 324.065216,109.921257 
z"/>
<path fill="#6BC974" opacity="1.000000" stroke="none" 
	d="
M372.851318,274.910400 
	C383.082184,284.447052 389.364410,295.917847 390.147858,310.535309 
	C390.251587,320.395905 388.396698,329.338623 382.741943,337.740906 
	C380.159271,337.758789 378.160248,337.641479 376.232880,337.206573 
	C366.093994,334.918610 360.817078,327.486145 356.888031,318.324493 
	C356.991364,317.127655 357.008545,316.298950 357.138672,315.488403 
	C358.311615,308.182434 355.514587,302.401031 349.576599,298.525726 
	C343.860809,294.795441 337.742523,294.965210 331.902771,298.661865 
	C329.680786,297.236969 327.532227,296.138397 325.363770,294.626923 
	C327.391144,278.414093 323.993561,263.746704 316.444702,249.858398 
	C320.119598,246.776184 323.498108,243.840042 327.276825,240.863678 
	C336.055481,238.888214 341.360291,241.858902 346.121277,251.602097 
	C345.888824,255.765305 345.676636,259.489899 345.443542,263.581024 
	C355.668121,264.670593 364.721344,268.711243 372.851318,274.910400 
z"/>
<path fill="#49A354" opacity="1.000000" stroke="none" 
	d="
M135.012817,146.110474 
	C135.569351,140.000015 132.489746,135.405334 128.484650,130.859192 
	C125.604225,123.680702 128.007980,120.423546 135.362976,121.051102 
	C137.005402,121.191238 138.623291,121.619179 140.924835,122.147102 
	C145.751846,124.919579 149.906494,127.459564 154.028503,130.005524 
	C153.995895,130.011490 153.989365,129.945496 154.159119,130.231857 
	C154.736816,130.684540 155.144745,130.850876 155.799347,131.245300 
	C157.676498,136.697708 159.600311,140.983917 166.518707,141.186783 
	C173.228317,141.383530 177.961060,138.800568 182.259399,134.255249 
	C183.339188,137.002670 184.166656,139.495941 184.927979,142.359100 
	C183.558899,148.530716 185.337311,150.963287 191.106918,151.004196 
	C207.057755,151.117294 220.010971,137.942261 218.819687,121.478767 
	C218.183121,117.554939 217.490860,114.037796 217.155991,110.384750 
	C222.735672,107.405029 225.500214,108.131577 231.110901,114.166489 
	C222.592392,122.877235 225.023270,132.703827 236.118744,136.348145 
	C235.010406,137.724655 233.990112,138.792816 232.653946,139.988785 
	C226.247955,145.552505 220.149307,150.978912 214.070587,156.427536 
	C209.716721,160.330078 209.076065,165.054260 210.569336,170.531509 
	C211.221771,172.924576 210.891891,175.585449 210.728516,177.927765 
	C206.091812,171.880051 201.118149,166.787460 193.963867,163.958740 
	C192.455261,158.460419 189.198639,154.859207 184.306366,151.882629 
	C182.111145,156.128876 180.109512,160.000656 177.795135,164.030121 
	C173.753235,166.575668 169.853699,168.744598 166.373627,171.452560 
	C164.850632,172.637680 163.102814,175.152374 163.418121,176.650604 
	C163.771332,178.328949 166.121643,180.135559 167.995819,180.837601 
	C172.735352,182.612961 177.695084,183.800491 182.271912,185.468903 
	C174.325562,189.154419 166.673920,192.594513 159.015839,195.597107 
	C158.991455,193.999466 159.177277,192.792358 158.922333,191.686905 
	C157.334930,184.803864 156.309509,177.571457 149.112183,173.599884 
	C148.784607,167.447495 151.893707,163.076111 154.879883,158.486374 
	C157.754990,154.067368 158.861801,148.991898 158.411667,142.468979 
	C151.965393,148.168915 145.000656,148.301392 137.970032,148.008972 
	C137.993530,147.992615 138.004761,148.048767 137.914200,147.918884 
	C137.528610,147.598221 137.267426,147.658463 136.781006,147.854828 
	C136.018906,147.196793 135.515869,146.653625 135.012817,146.110474 
z"/>
<path fill="#49A355" opacity="1.000000" stroke="none" 
	d="
M356.854279,318.701050 
	C360.817078,327.486145 366.093994,334.918610 376.232880,337.206573 
	C378.160248,337.641479 380.159271,337.758789 382.545074,338.030273 
	C378.764099,342.796387 374.563324,347.554840 369.950836,352.720825 
	C369.343628,353.420807 369.148102,353.713257 368.952576,354.005676 
	C368.952576,354.005676 369.010895,353.991394 368.638794,354.016235 
	C360.935364,356.705078 353.604004,359.369019 346.272675,362.032959 
	C336.215851,362.129150 326.102478,361.341217 317.654602,355.585114 
	C311.505768,351.395508 306.487183,345.547150 301.062836,339.810974 
	C314.585480,327.404907 322.699799,312.712280 325.383667,295.039856 
	C327.532227,296.138397 329.680786,297.236969 331.612335,298.830322 
	C324.953491,305.143219 323.027771,311.981720 325.897308,318.849304 
	C328.709106,325.578705 335.271942,329.586670 342.522034,328.975128 
	C349.335083,328.400482 353.446686,324.036926 356.854279,318.701050 
z"/>
<path fill="#6BC874" opacity="1.000000" stroke="none" 
	d="
M182.007065,134.001083 
	C177.961060,138.800568 173.228317,141.383530 166.518707,141.186783 
	C159.600311,140.983917 157.676498,136.697708 155.603363,130.964722 
	C154.770233,130.285858 154.379807,130.115677 153.989365,129.945496 
	C153.989365,129.945496 153.995895,130.011490 154.141022,129.643692 
	C152.761383,125.311729 147.488983,122.328514 151.079575,117.025398 
	C151.079575,117.025398 151.009430,116.993484 151.269150,116.909798 
	C151.819778,116.550194 152.110703,116.274277 152.401627,115.998352 
	C152.761780,115.843575 153.121933,115.688797 153.945999,115.406631 
	C158.118027,115.945358 161.805054,116.830940 165.542664,117.190010 
	C167.576248,117.385376 170.106552,117.317383 171.703003,116.277962 
	C177.572510,112.456436 183.747589,110.280022 191.072906,111.196747 
	C191.833862,112.682915 192.500336,113.869659 192.775909,115.141121 
	C194.661087,123.839096 197.410461,126.482048 206.241928,125.820953 
	C210.490341,125.502922 214.594513,123.257866 218.763992,121.885452 
	C220.010971,137.942261 207.057755,151.117294 191.106918,151.004196 
	C185.337311,150.963287 183.558899,148.530716 185.218506,142.195251 
	C187.052780,139.798553 188.530380,137.935593 190.299133,135.705551 
	C188.070831,134.225113 186.401398,132.990814 184.614655,131.959839 
	C182.247604,130.593994 181.816696,131.962265 182.007065,134.001083 
z"/>
<path fill="#2E2D42" opacity="1.000000" stroke="none" 
	d="
M231.356857,113.887054 
	C225.500214,108.131577 222.735672,107.405029 216.942505,110.092743 
	C212.127640,105.313324 207.883636,100.690010 203.639618,96.066696 
	C212.939255,94.401001 222.179169,91.885155 231.549591,91.226761 
	C261.360474,89.132172 290.328247,92.926880 317.634430,105.918228 
	C319.721344,106.911102 321.662231,108.210876 323.868103,109.644623 
	C323.950043,110.048370 323.834900,110.175491 323.210815,110.339630 
	C307.674774,106.834007 292.675079,103.168571 277.608643,99.801964 
	C270.376556,98.185944 265.318756,101.621849 262.658417,109.228195 
	C260.661102,109.635620 259.018311,109.831337 257.381836,110.070183 
	C248.705963,111.336502 240.031693,112.613655 231.356857,113.887054 
z"/>
<path fill="#80E085" opacity="1.000000" stroke="none" 
	d="
M203.286560,96.016541 
	C207.883636,100.690010 212.127640,105.313324 216.585144,110.228645 
	C217.490860,114.037796 218.183121,117.554939 218.819687,121.478767 
	C214.594513,123.257866 210.490341,125.502922 206.241928,125.820953 
	C197.410461,126.482048 194.661087,123.839096 192.775909,115.141121 
	C192.500336,113.869659 191.833862,112.682915 191.095917,110.847618 
	C188.698013,107.016464 186.552460,103.794662 184.406906,100.572868 
	C184.648224,94.485092 186.662231,92.394936 192.562759,93.132935 
	C196.082748,93.573196 199.480698,94.989082 203.286560,96.016541 
z"/>
<path fill="#2E3044" opacity="1.000000" stroke="none" 
	d="
M346.269958,362.496094 
	C353.604004,359.369019 360.935364,356.705078 368.623779,353.990265 
	C365.815125,358.964264 363.043213,364.298737 359.392426,368.942200 
	C353.757355,376.109497 347.520782,382.803894 341.233459,389.839539 
	C342.172485,386.414703 343.887939,382.934174 344.550812,379.263580 
	C345.519318,373.900391 345.732239,368.400696 346.269958,362.496094 
z"/>
<path fill="#2E3044" opacity="1.000000" stroke="none" 
	d="
M184.073181,100.803314 
	C186.552460,103.794662 188.698013,107.016464 190.820557,110.587387 
	C183.747589,110.280022 177.572510,112.456436 171.703003,116.277962 
	C170.106552,117.317383 167.576248,117.385376 165.542664,117.190010 
	C161.805054,116.830940 158.118027,115.945358 153.955261,115.201355 
	C160.996368,111.476212 168.472427,107.787529 175.998978,104.204926 
	C178.512756,103.008392 181.155624,102.083061 184.073181,100.803314 
z"/>
<path fill="#323144" opacity="1.000000" stroke="none" 
	d="
M150.701218,117.015694 
	C147.488983,122.328514 152.761383,125.311729 154.173645,129.637726 
	C149.906494,127.459564 145.751846,124.919579 141.342438,122.154427 
	C144.166077,120.288170 147.244476,118.647079 150.701218,117.015694 
z"/>
<path fill="#2E3044" opacity="1.000000" stroke="none" 
	d="
M339.733521,390.881989 
	C339.727448,390.657410 340.018433,390.311493 340.650208,389.952576 
	C340.670868,390.213226 340.350769,390.486969 339.733521,390.881989 
z"/>
<path fill="#323144" opacity="1.000000" stroke="none" 
	d="
M152.130829,116.131546 
	C152.110703,116.274277 151.819778,116.550194 151.253082,116.944817 
	C151.271561,116.797256 151.565796,116.530991 152.130829,116.131546 
z"/>
<path fill="#2E3044" opacity="1.000000" stroke="none" 
	d="
M369.180847,353.870117 
	C369.148102,353.713257 369.343628,353.420807 369.777649,352.998230 
	C369.813812,353.156952 369.611481,353.445770 369.180847,353.870117 
z"/>
<path fill="#E1881D" opacity="1.000000" stroke="none" 
	d="
M98.792740,327.291077 
	C97.774460,326.215942 96.756195,325.140808 95.076691,323.367523 
	C107.247002,323.334747 114.699471,318.227173 117.094406,306.330811 
	C122.863182,308.462769 128.046417,309.316193 133.466888,306.325439 
	C145.125031,324.353882 160.764221,336.740509 180.988678,343.579468 
	C182.315292,347.629944 183.670944,351.275909 184.693909,355.049988 
	C178.114288,358.307770 171.537552,361.179504 172.421112,369.918945 
	C168.084503,364.840759 164.020477,359.941895 159.917053,354.695190 
	C154.907303,347.633179 149.936981,340.919037 144.976730,333.753967 
	C144.878510,331.088043 144.770218,328.872986 144.676819,326.962769 
	C133.287918,328.024536 122.583351,329.022491 111.559341,329.860657 
	C107.090843,328.897583 102.941788,328.094330 98.792740,327.291077 
z"/>
<path fill="#FCD69E" opacity="1.000000" stroke="none" 
	d="
M133.215195,306.143646 
	C128.046417,309.316193 122.863182,308.462769 117.318466,306.030945 
	C115.965378,300.337860 113.784546,295.535522 109.473236,291.653717 
	C108.213264,290.519257 108.069237,288.145386 107.670326,287.046478 
	C103.489784,287.323975 99.364395,287.597809 94.549660,287.642944 
	C91.906158,286.607910 89.951996,285.801605 87.845116,284.667725 
	C85.790909,280.876343 83.889420,277.412537 81.837273,273.764313 
	C81.484261,273.328064 81.238747,273.129639 80.979622,272.993103 
	C81.009163,273.001648 80.979095,273.055267 81.034058,272.640106 
	C81.032127,265.789703 83.603447,260.489563 88.479790,256.016052 
	C91.967026,254.959808 95.063957,253.903915 98.559685,252.878067 
	C101.970978,253.606552 104.983490,254.305008 108.217682,255.252625 
	C115.457352,260.005524 116.405243,267.233063 116.320358,274.874542 
	C118.946907,274.459808 120.857620,274.158112 122.842789,274.273132 
	C126.349899,285.174438 129.782547,295.659058 133.215195,306.143646 
z"/>
<path fill="#FFF0E0" opacity="1.000000" stroke="none" 
	d="
M81.987930,273.948761 
	C83.889420,277.412537 85.790909,280.876343 87.853256,285.095245 
	C88.038490,287.560028 88.062881,289.269684 88.087280,290.979340 
	C85.387604,295.082672 82.687920,299.186005 79.490540,303.630280 
	C72.553955,306.591431 66.314659,305.984344 60.234077,302.811066 
	C55.959599,298.499451 52.752064,293.693329 52.995781,286.895508 
	C54.635468,282.667603 56.310814,278.815277 57.893452,274.638245 
	C60.537697,273.264496 63.198544,271.810822 66.032555,271.277740 
	C68.992119,270.721100 72.118385,271.050720 75.840515,271.210632 
	C77.999199,271.970673 79.489151,272.512970 80.979095,273.055267 
	C80.979095,273.055267 81.009163,273.001648 81.051025,273.240906 
	C81.391228,273.636353 81.689575,273.792572 81.987930,273.948761 
z"/>
<path fill="#FBD69E" opacity="1.000000" stroke="none" 
	d="
M60.111740,303.180481 
	C66.314659,305.984344 72.553955,306.591431 79.367599,303.950989 
	C85.092712,306.653595 88.465637,315.100952 85.248436,321.572021 
	C83.057968,325.977844 78.702377,329.552460 74.672691,332.668091 
	C73.227104,333.785797 69.833664,332.756500 67.448250,332.198364 
	C63.940479,331.377655 60.539467,330.100647 56.711796,329.016785 
	C54.589268,325.195648 52.847916,321.375702 51.074997,317.159912 
	C54.025417,312.359344 57.007412,307.954590 60.111740,303.180481 
z"/>
<path fill="#E1881D" opacity="1.000000" stroke="none" 
	d="
M77.004486,378.485291 
	C73.418327,378.562195 69.649704,379.376648 66.288261,378.545074 
	C61.098328,377.261200 58.701855,372.311707 58.759201,365.011658 
	C66.483986,363.721405 71.838364,359.590851 74.510391,353.182129 
	C79.482452,353.182129 83.835724,353.182129 88.782501,353.482910 
	C92.925644,354.850525 96.475296,355.917358 99.849525,357.272644 
	C92.117561,364.535858 84.561028,371.510590 77.004486,378.485291 
z"/>
<path fill="#EFAA42" opacity="1.000000" stroke="none" 
	d="
M100.024948,356.984161 
	C96.475296,355.917358 92.925644,354.850525 89.184631,353.505859 
	C99.881096,345.927399 102.167427,340.151733 98.873627,327.677612 
	C102.941788,328.094330 107.090843,328.897583 111.663651,330.212860 
	C115.486092,335.128632 114.816772,340.075684 113.993713,345.017578 
	C113.987892,344.992645 114.039604,344.989777 113.822998,345.106445 
	C113.348648,345.435120 113.147041,345.691345 112.793747,346.249023 
	C108.751320,350.024261 104.916702,353.542175 101.017258,357.014465 
	C100.952415,356.968811 100.822517,356.877808 100.729218,356.776733 
	C100.336143,356.599091 100.114746,356.713959 99.984741,357.011169 
	C99.997742,357.002106 100.024948,356.984161 100.024948,356.984161 
z"/>
<path fill="#F0AE4A" opacity="1.000000" stroke="none" 
	d="
M88.431763,290.929504 
	C88.062881,289.269684 88.038490,287.560028 88.005966,285.422852 
	C89.951996,285.801605 91.906158,286.607910 94.149803,287.646790 
	C92.551613,288.879486 90.663933,289.879578 88.431763,290.929504 
z"/>
<path fill="#E1881B" opacity="1.000000" stroke="none" 
	d="
M158.249313,432.491791 
	C155.811981,429.967407 153.374649,427.443024 150.792603,424.156921 
	C150.647888,414.725159 150.647888,406.055023 150.647888,397.302582 
	C146.703156,399.528412 143.838913,402.135590 140.586487,402.778229 
	C133.294769,404.219025 130.106857,401.920593 126.029572,393.579468 
	C125.963249,386.797272 125.916199,380.486237 126.127899,373.933960 
	C129.474686,369.925781 132.224792,365.647705 138.301819,366.154907 
	C139.613541,367.275146 140.655487,368.234528 141.823944,369.513977 
	C144.690140,374.181488 147.429825,378.528931 150.118347,383.342438 
	C150.061325,386.466736 149.834000,389.147034 150.096207,391.778534 
	C150.623215,397.067383 153.652756,400.917572 158.528717,402.512573 
	C163.124542,404.015930 168.459305,403.791931 170.996216,399.132019 
	C172.710938,395.982239 172.208649,391.625519 172.800323,387.454895 
	C173.950348,383.675781 174.998093,380.250427 176.325989,377.037750 
	C177.489212,378.831909 178.164154,380.584534 179.296295,381.961151 
	C182.133286,385.410828 185.177292,388.690186 188.134949,392.367065 
	C188.082779,393.132690 188.033966,393.569183 187.734955,394.233398 
	C184.639740,400.191956 181.794693,405.922760 178.577240,411.721069 
	C176.332352,412.750610 173.957993,413.276550 172.676010,414.751801 
	C167.679230,420.501831 163.028656,426.552765 158.249313,432.491791 
z"/>
<path fill="#EEAA42" opacity="1.000000" stroke="none" 
	d="
M125.869148,374.175232 
	C125.916199,380.486237 125.963249,386.797272 125.990005,393.921021 
	C125.916229,395.421509 125.862755,396.109283 125.509872,396.940308 
	C118.514946,406.208130 106.490089,405.129364 102.134277,394.983093 
	C102.028778,393.182465 101.923271,391.381836 101.760674,388.606842 
	C99.609230,390.463348 97.920166,391.897430 96.256683,393.360596 
	C90.918533,398.056122 84.978043,398.823120 80.041084,395.438904 
	C74.853676,391.883026 73.521019,386.041443 76.667931,378.831543 
	C84.561028,371.510590 92.117561,364.535858 99.849525,357.272644 
	C100.024948,356.984161 99.997742,357.002106 100.198265,356.979675 
	C100.398788,356.957214 100.822517,356.877808 100.822517,356.877808 
	C100.822517,356.877808 100.952415,356.968811 100.968269,357.405823 
	C98.627174,368.193634 104.755371,375.355469 115.152061,373.863251 
	C117.839119,373.477600 120.267067,371.286743 123.023827,370.181396 
	C124.112129,371.683502 124.990639,372.929382 125.869148,374.175232 
z"/>
<path fill="#D2750E" opacity="1.000000" stroke="none" 
	d="
M125.809273,396.797058 
	C125.862755,396.109283 125.916229,395.421509 126.009277,394.392181 
	C130.106857,401.920593 133.294769,404.219025 140.586487,402.778229 
	C143.838913,402.135590 146.703156,399.528412 150.647888,397.302582 
	C150.647888,406.055023 150.647888,414.725159 150.762329,423.805298 
	C147.754639,427.975189 145.353607,432.431885 139.567780,433.046936 
	C132.863037,433.759644 129.477890,429.329285 125.593918,424.736267 
	C125.513199,415.186523 125.661240,405.991791 125.809273,396.797058 
z"/>
<path fill="#E1881B" opacity="1.000000" stroke="none" 
	d="
M125.509872,396.940308 
	C125.661240,405.991791 125.513199,415.186523 125.250504,424.790283 
	C122.433975,431.290558 117.211517,434.169373 111.263039,432.846497 
	C105.870277,431.647217 102.061661,426.853668 101.994720,420.832336 
	C101.902382,412.527344 101.979279,404.220520 102.058975,395.448792 
	C106.490089,405.129364 118.514946,406.208130 125.509872,396.940308 
z"/>
<path fill="#551F1A" opacity="1.000000" stroke="none" 
	d="
M158.358734,432.808899 
	C163.028656,426.552765 167.679230,420.501831 172.676010,414.751801 
	C173.957993,413.276550 176.332352,412.750610 178.710159,412.074249 
	C180.741104,419.222443 187.186661,420.772614 191.942688,424.147095 
	C187.819122,429.062286 184.006165,434.289978 179.474167,438.794159 
	C175.818253,442.427673 174.510864,446.391632 174.917969,451.703918 
	C170.007446,448.007385 164.916870,444.070038 160.369156,439.582520 
	C158.972107,438.203979 159.060150,435.320404 158.358734,432.808899 
z"/>
<path fill="#FBCC69" opacity="1.000000" stroke="none" 
	d="
M98.160896,252.848038 
	C95.063957,253.903915 91.967026,254.959808 88.036255,256.015564 
	C85.163902,256.026550 83.125389,256.037689 81.086876,256.048828 
	C80.348206,249.601776 76.723518,245.156021 70.332581,241.692566 
	C80.784012,239.024139 86.187714,232.963303 86.315491,222.201416 
	C86.672050,221.602081 86.796577,221.457153 86.868889,221.267288 
	C87.362564,221.228317 87.856232,221.189331 89.001762,221.368469 
	C93.728401,223.699219 97.803192,225.811890 101.850647,228.317017 
	C102.549965,233.124817 103.276611,237.540131 103.992455,242.330521 
	C102.041397,246.086395 100.101143,249.467224 98.160896,252.848038 
z"/>
<path fill="#F0AE4A" opacity="1.000000" stroke="none" 
	d="
M81.072769,256.475403 
	C83.125389,256.037689 85.163902,256.026550 87.645950,256.015930 
	C83.603447,260.489563 81.032127,265.789703 81.034058,272.640106 
	C79.489151,272.512970 77.999199,271.970673 76.233589,271.226990 
	C79.170120,266.863770 81.614853,262.424774 81.072769,256.475403 
z"/>
<path fill="#EDA943" opacity="1.000000" stroke="none" 
	d="
M86.721573,221.184631 
	C86.796577,221.457153 86.672050,221.602081 86.365952,221.764771 
	C86.236610,221.827438 86.185493,221.467224 86.211006,221.288361 
	C86.236519,221.109482 86.574265,221.101974 86.721573,221.184631 
z"/>
<path fill="#EBF0F1" opacity="1.000000" stroke="none" 
	d="
M325.363770,294.626923 
	C322.699799,312.712280 314.585480,327.404907 300.974670,339.456879 
	C293.038391,344.006348 285.288391,348.282623 277.263062,352.782318 
	C270.947479,353.996735 264.907227,354.987732 258.115356,355.997192 
	C256.920197,355.948608 256.476685,355.881561 255.832840,355.553375 
	C254.145630,354.231964 252.693008,353.119385 251.166534,352.119568 
	C236.005478,342.189056 223.641769,323.475708 231.579666,302.476776 
	C232.023056,301.303802 231.747650,299.859161 231.859741,298.385437 
	C231.912689,298.229889 232.055359,297.933929 232.363342,297.822174 
	C246.539551,287.407593 251.555817,272.107635 246.080917,256.810425 
	C240.993210,242.595047 227.240143,233.465836 211.739883,234.076263 
	C211.518402,233.990448 211.074203,233.821991 210.998032,233.494507 
	C209.184784,231.185135 207.536148,229.116714 205.696091,227.235519 
	C194.693558,215.986816 191.858261,203.127502 197.790451,188.421783 
	C198.457230,186.768890 198.633774,184.918228 199.495209,183.097794 
	C204.208817,183.031006 208.464874,183.025711 213.106995,183.160492 
	C217.668533,184.082962 221.844009,184.865402 226.318375,185.791504 
	C232.676392,188.321045 238.735504,190.706909 244.970398,193.383102 
	C252.728531,199.143387 260.310883,204.613342 268.047516,210.384949 
	C271.112183,212.561691 274.022522,214.436752 277.133942,216.569946 
	C283.872803,220.730942 290.410583,224.633789 297.153381,228.771317 
	C303.621674,236.005493 309.884979,243.004974 316.148285,250.004456 
	C323.993561,263.746704 327.391144,278.414093 325.363770,294.626923 
z"/>
<path fill="#873D3C" opacity="1.000000" stroke="none" 
	d="
M276.055786,394.410339 
	C273.471313,399.582947 270.786621,404.428314 268.036316,409.621582 
	C266.176270,412.515808 264.381866,415.062164 262.093140,417.610260 
	C259.320892,415.568390 256.521484,413.871765 254.879868,411.404755 
	C251.975311,407.039856 249.343689,402.377991 247.409225,397.517456 
	C245.698425,393.218994 245.092300,388.480835 244.232361,383.691589 
	C250.580902,380.820404 255.657486,375.599396 262.996399,376.033844 
	C270.125153,380.033417 272.125305,387.715240 276.055786,394.410339 
z"/>
<path fill="#984F4F" opacity="1.000000" stroke="none" 
	d="
M263.187988,375.729370 
	C255.657486,375.599396 250.580902,380.820404 243.901077,383.723145 
	C242.893295,384.028870 242.450653,384.057800 241.791199,383.822968 
	C238.804916,379.549469 235.896225,375.627380 233.303055,371.506683 
	C230.387085,366.873016 227.727341,362.122101 232.137146,356.751221 
	C232.872055,355.856110 232.736343,354.246216 233.406158,352.961975 
	C241.217316,353.909729 248.625229,354.862122 256.033142,355.814545 
	C256.476685,355.881561 256.920197,355.948608 257.693359,356.083954 
	C259.623901,359.249664 261.746887,362.199646 262.675079,365.486969 
	C263.558716,368.616425 263.194916,372.098114 263.187988,375.729370 
z"/>
<path fill="#48A354" opacity="1.000000" stroke="none" 
	d="
M288.911133,356.498657 
	C290.347290,355.378082 291.822205,354.667877 293.244812,353.864990 
	C304.769348,347.360657 316.116333,354.005768 316.055542,367.240112 
	C316.047943,368.889191 315.996185,370.538086 315.928589,372.657654 
	C314.057617,374.987335 312.426849,377.123596 310.349152,378.652496 
	C304.594360,382.887146 297.005768,382.499512 291.572266,377.985535 
	C286.105042,373.443512 284.710907,366.376190 287.916168,359.617859 
	C288.333099,358.738739 288.592987,357.785126 288.911133,356.498657 
z"/>
<path fill="#49A254" opacity="1.000000" stroke="none" 
	d="
M103.521278,194.169678 
	C99.944405,193.110046 96.276657,192.279480 92.823021,190.909225 
	C90.568855,190.014893 87.655396,188.756088 86.845024,186.879791 
	C86.177536,185.334274 87.603264,182.111237 89.073845,180.544388 
	C97.127792,171.963135 112.037247,170.192780 123.106735,176.153625 
	C124.413628,176.857407 125.718475,177.564972 127.507568,178.662231 
	C129.519684,182.235062 130.887161,185.508545 132.632553,188.566299 
	C133.850693,190.700378 136.322403,192.326859 136.962204,194.546692 
	C139.582809,203.638855 137.473343,211.938736 131.339935,219.156647 
	C127.348625,217.310730 123.650055,215.634842 119.896652,213.597275 
	C117.179962,204.502029 112.666908,197.353104 103.521278,194.169678 
z"/>
<path fill="#6BC974" opacity="1.000000" stroke="none" 
	d="
M131.632690,219.326675 
	C137.473343,211.938736 139.582809,203.638855 136.962204,194.546692 
	C136.322403,192.326859 133.850693,190.700378 132.632553,188.566299 
	C130.887161,185.508545 129.519684,182.235062 127.903259,178.800262 
	C124.235497,173.943619 120.655357,169.340378 116.877068,164.461792 
	C126.378433,162.957367 131.228043,157.502029 132.983215,145.450729 
	C133.493576,145.308517 133.999023,145.566772 134.758652,145.967743 
	C135.515869,146.653625 136.018906,147.196793 137.019257,147.909317 
	C137.516556,148.078690 138.004761,148.048767 138.004761,148.048767 
	C138.004761,148.048767 137.993530,147.992615 138.019730,148.354416 
	C144.104950,156.497742 147.082138,165.133850 144.881500,175.725922 
	C146.660797,174.935287 147.805450,174.426651 148.950119,173.918030 
	C156.309509,177.571457 157.334930,184.803864 158.922333,191.686905 
	C159.177277,192.792358 158.991455,193.999466 158.827942,195.873337 
	C148.629639,203.373291 140.760101,212.234329 133.708969,221.957367 
	C132.847229,220.964035 132.239960,220.145355 131.632690,219.326675 
z"/>
<path fill="#EDA943" opacity="1.000000" stroke="none" 
	d="
M103.135437,194.294922 
	C112.666908,197.353104 117.179962,204.502029 119.500015,213.638245 
	C110.309578,214.824631 104.131836,218.932663 101.877975,227.924545 
	C97.803192,225.811890 93.728401,223.699219 89.374176,221.371552 
	C86.722931,215.064896 85.825516,209.000107 89.438995,203.023376 
	C92.478508,197.996002 97.041786,195.321548 103.135437,194.294922 
z"/>
<path fill="#6E2E2B" opacity="1.000000" stroke="none" 
	d="
M242.008026,384.086700 
	C242.450653,384.057800 242.893295,384.028870 243.667206,383.968384 
	C245.092300,388.480835 245.698425,393.218994 247.409225,397.517456 
	C249.343689,402.377991 251.975311,407.039856 254.879868,411.404755 
	C256.521484,413.871765 259.320892,415.568390 261.858215,417.846832 
	C261.762604,418.871887 261.407593,419.662109 260.890991,420.630371 
	C256.589203,422.797394 252.448944,424.786316 247.938934,426.887634 
	C244.250061,424.094025 240.930969,421.188049 237.146515,417.831665 
	C232.466003,413.584259 228.250839,409.787262 224.163788,405.666626 
	C225.552216,400.911346 226.812531,396.479645 228.417938,391.972961 
	C233.178024,389.294220 237.593033,386.690460 242.008026,384.086700 
z"/>
<path fill="#873E3C" opacity="1.000000" stroke="none" 
	d="
M224.035675,405.990265 
	C228.250839,409.787262 232.466003,413.584259 236.859802,417.659729 
	C230.395279,416.873779 226.632767,421.359619 223.004135,425.599640 
	C218.565247,430.786407 212.684052,435.015869 211.060120,442.635864 
	C205.335464,438.549591 198.440186,435.309937 196.415131,427.382324 
	C204.793976,430.646118 208.703369,430.255890 212.248947,424.967468 
	C214.792877,421.173065 216.811050,417.026154 219.338242,412.848633 
	C221.087021,410.437317 222.561340,408.213776 224.035675,405.990265 
z"/>
<path fill="#AF5B5A" opacity="1.000000" stroke="none" 
	d="
M219.063782,413.036469 
	C216.811050,417.026154 214.792877,421.173065 212.248947,424.967468 
	C208.703369,430.255890 204.793976,430.646118 196.416412,427.008972 
	C194.886780,426.069305 193.708878,425.215363 192.236816,424.254272 
	C187.186661,420.772614 180.741104,419.222443 179.082565,412.006775 
	C181.794693,405.922760 184.639740,400.191956 188.134445,394.212402 
	C192.852646,392.397064 196.525177,393.346680 200.116852,395.535492 
	C204.502701,398.208252 209.093811,400.554047 213.401978,403.341370 
	C216.811096,405.546967 219.700455,408.336395 219.063782,413.036469 
z"/>
<path fill="#DB2625" opacity="1.000000" stroke="none" 
	d="
M341.798553,149.849899 
	C343.449036,145.230164 346.967926,143.171906 351.633026,142.819901 
	C356.579590,142.446640 360.776001,144.357697 362.780945,148.772400 
	C369.079956,162.642273 375.212646,176.600876 380.886292,190.735245 
	C383.245636,196.612869 380.399536,201.672180 373.645111,204.987869 
	C371.595947,203.528870 370.093353,202.223450 368.871216,200.693939 
	C362.564789,192.801163 356.330231,184.850967 349.982513,176.564575 
	C348.892517,173.477798 347.890625,170.747223 347.153137,167.718903 
	C348.782501,162.970322 347.839935,159.031723 345.027100,155.355713 
	C343.743958,153.678802 342.862305,151.694687 341.798553,149.849899 
z"/>
<path fill="#49A254" opacity="1.000000" stroke="none" 
	d="
M346.141479,251.163467 
	C341.360291,241.858902 336.055481,238.888214 327.071991,240.611328 
	C322.914185,237.371155 319.361420,234.343124 316.161621,231.172485 
	C320.929047,229.561630 323.906525,226.709198 325.296448,222.101440 
	C325.503326,222.074677 325.916077,222.136688 325.948059,222.491486 
	C328.646149,229.055145 333.417786,232.279968 338.822510,231.525543 
	C345.544708,230.587204 349.134003,226.244476 350.339539,218.104645 
	C351.759827,219.672043 352.979492,221.022278 353.981689,222.518219 
	C357.485596,227.748428 362.179749,230.435333 368.597809,229.628052 
	C373.052307,236.839798 376.277679,244.450531 375.831909,253.617294 
	C365.191315,257.917603 355.228088,258.899750 346.141479,251.163467 
z"/>
<path fill="#FF6666" opacity="1.000000" stroke="none" 
	d="
M325.506622,129.840729 
	C327.609375,132.630112 329.712128,135.419525 331.904846,138.948593 
	C331.168152,151.376938 323.334503,157.257004 312.658173,153.826004 
	C306.927460,146.844360 301.483826,140.023865 296.039886,132.746338 
	C296.027191,131.462204 296.005310,130.635086 296.003967,129.807953 
	C295.993774,123.569588 298.878204,118.720154 303.815948,116.665611 
	C308.644196,114.656624 313.743988,115.928452 318.059326,120.608269 
	C320.733826,123.508644 323.036835,126.751564 325.506622,129.840729 
z"/>
<path fill="#FD4848" opacity="1.000000" stroke="none" 
	d="
M368.894897,229.436646 
	C362.179749,230.435333 357.485596,227.748428 353.981689,222.518219 
	C352.979492,221.022278 351.759827,219.672043 350.332062,217.640808 
	C349.963745,210.321243 349.903198,203.615829 349.858704,196.448044 
	C349.940063,189.630707 350.005341,183.275742 350.070618,176.920792 
	C356.330231,184.850967 362.564789,192.801163 368.871216,200.693939 
	C370.093353,202.223450 371.595947,203.528870 373.267944,205.010498 
	C374.147736,206.404419 374.560303,207.835098 375.336945,209.028946 
	C380.757690,217.362030 378.416779,225.154755 368.894897,229.436646 
z"/>
<path fill="#FC4848" opacity="1.000000" stroke="none" 
	d="
M325.634705,129.493347 
	C323.036835,126.751564 320.733826,123.508644 318.059326,120.608269 
	C313.743988,115.928452 308.644196,114.656624 303.815948,116.665611 
	C298.878204,118.720154 295.993774,123.569588 296.003967,129.807953 
	C296.005310,130.635086 296.027191,131.462204 295.698029,132.559464 
	C292.529572,132.158096 289.702667,131.486572 287.080261,130.550934 
	C293.112427,124.297600 294.322632,120.068291 291.712891,114.811661 
	C289.100922,109.550522 284.079224,107.377579 276.405853,108.063942 
	C271.949188,108.462563 267.479614,108.717033 263.015869,109.036377 
	C265.318756,101.621849 270.376556,98.185944 277.608643,99.801964 
	C292.675079,103.168571 307.674774,106.834007 323.037537,110.529778 
	C329.894409,117.126831 330.405548,121.076126 325.634705,129.493347 
z"/>
<path fill="#FD4848" opacity="1.000000" stroke="none" 
	d="
M312.945312,153.987167 
	C323.334503,157.257004 331.168152,151.376938 332.009644,139.266693 
	C335.071594,142.479752 338.118744,146.114365 341.482239,149.799438 
	C342.862305,151.694687 343.743958,153.678802 345.027100,155.355713 
	C347.839935,159.031723 348.782501,162.970322 346.852417,167.553955 
	C337.765778,161.891235 332.254791,163.059967 325.743927,171.768555 
	C321.358398,166.357132 317.215088,161.169266 313.045349,155.649506 
	C312.994354,154.874130 312.969818,154.430649 312.945312,153.987167 
z"/>
<path fill="#277D36" opacity="1.000000" stroke="none" 
	d="
M346.121277,251.602097 
	C355.228088,258.899750 365.191315,257.917603 375.840363,254.061676 
	C375.624939,259.324432 375.072083,264.643585 374.348602,269.939423 
	C374.151428,271.382996 373.440826,272.756409 372.908569,274.536194 
	C364.721344,268.711243 355.668121,264.670593 345.443542,263.581024 
	C345.676636,259.489899 345.888824,255.765305 346.121277,251.602097 
z"/>
<path fill="#81E286" opacity="1.000000" stroke="none" 
	d="
M356.888031,318.324493 
	C353.446686,324.036926 349.335083,328.400482 342.522034,328.975128 
	C335.271942,329.586670 328.709106,325.578705 325.897308,318.849304 
	C323.027771,311.981720 324.953491,305.143219 331.685760,299.156647 
	C337.742523,294.965210 343.860809,294.795441 349.576599,298.525726 
	C355.514587,302.401031 358.311615,308.182434 357.138672,315.488403 
	C357.008545,316.298950 356.991364,317.127655 356.888031,318.324493 
z"/>
<path fill="#2B7D37" opacity="1.000000" stroke="none" 
	d="
M315.808624,231.315094 
	C319.361420,234.343124 322.914185,237.371155 326.671783,240.651550 
	C323.498108,243.840042 320.119598,246.776184 316.444702,249.858398 
	C309.884979,243.004974 303.621674,236.005493 297.458862,228.573349 
	C298.734161,226.128098 299.908905,224.115509 301.295685,222.073761 
	C301.507690,222.044617 301.927368,222.130676 301.960388,222.483612 
	C304.261993,229.469864 309.261963,231.652573 315.808624,231.315094 
z"/>
<path fill="#C2D4E5" opacity="1.000000" stroke="none" 
	d="
M133.963425,222.132034 
	C140.760101,212.234329 148.629639,203.373291 158.834381,196.310852 
	C166.673920,192.594513 174.325562,189.154419 182.651031,185.442673 
	C188.562454,184.500458 193.800064,183.829880 199.037659,183.159302 
	C198.633774,184.918228 198.457230,186.768890 197.790451,188.421783 
	C191.858261,203.127502 194.693558,215.986816 205.696091,227.235519 
	C207.536148,229.116714 209.184784,231.185135 210.579941,233.560822 
	C195.271667,235.841125 184.758698,243.789627 180.303818,258.130981 
	C175.948334,272.152405 179.191910,285.040680 190.517365,294.781403 
	C203.157913,305.653198 217.243317,306.050323 231.806808,298.540955 
	C231.747650,299.859161 232.023056,301.303802 231.579666,302.476776 
	C223.641769,323.475708 236.005478,342.189056 251.166534,352.119568 
	C252.693008,353.119385 254.145630,354.231964 255.832840,355.553375 
	C248.625229,354.862122 241.217316,353.909729 233.121307,352.720032 
	C227.477524,351.304474 222.567413,349.860596 217.557114,349.000580 
	C205.402145,346.914062 193.200546,345.099213 181.017731,343.174927 
	C160.764221,336.740509 145.125031,324.353882 133.466888,306.325439 
	C129.782547,295.659058 126.349899,285.174438 122.900024,273.855469 
	C123.211594,265.031525 123.540382,257.041931 123.935669,248.657837 
	C127.322578,239.552887 130.643005,230.842468 133.963425,222.132034 
z"/>
<path fill="#DB2725" opacity="1.000000" stroke="none" 
	d="
M262.658417,109.228195 
	C267.479614,108.717033 271.949188,108.462563 276.405853,108.063942 
	C284.079224,107.377579 289.100922,109.550522 291.712891,114.811661 
	C294.322632,120.068291 293.112427,124.297600 286.741455,130.647659 
	C284.847473,131.407974 283.496765,131.807434 281.707886,132.159622 
	C277.488495,132.412979 273.701111,132.986130 269.928802,132.899780 
	C268.029297,132.856293 265.435089,132.174515 264.391144,130.825073 
	C258.106110,122.700737 249.785049,123.771255 243.027679,130.445404 
	C240.944458,132.502975 238.490829,134.185532 236.206802,136.039810 
	C225.023270,132.703827 222.592392,122.877235 231.110901,114.166489 
	C240.031693,112.613655 248.705963,111.336502 257.381836,110.070183 
	C259.018311,109.831337 260.661102,109.635620 262.658417,109.228195 
z"/>
<path fill="#FE4848" opacity="1.000000" stroke="none" 
	d="
M236.118744,136.348145 
	C238.490829,134.185532 240.944458,132.502975 243.027679,130.445404 
	C249.785049,123.771255 258.106110,122.700737 264.391144,130.825073 
	C265.435089,132.174515 268.029297,132.856293 269.928802,132.899780 
	C273.701111,132.986130 277.488495,132.412979 281.497864,132.415817 
	C279.319519,136.128525 276.912964,139.537750 274.240143,143.324234 
	C267.174835,142.589310 266.717804,142.582352 260.328705,147.863266 
	C256.391785,151.117355 252.796799,154.785156 249.032242,158.168457 
	C249.016174,158.069672 248.996719,157.870499 248.694611,157.645752 
	C236.557953,155.575851 233.109970,151.650024 232.969818,139.860992 
	C233.990112,138.792816 235.010406,137.724655 236.118744,136.348145 
z"/>
<path fill="#DC2825" opacity="1.000000" stroke="none" 
	d="
M232.653946,139.988785 
	C233.109970,151.650024 236.557953,155.575851 248.420517,157.846558 
	C242.923508,163.298416 237.621521,168.603821 231.798370,173.257080 
	C227.620712,176.595413 225.523148,180.383667 226.019470,185.647827 
	C221.844009,184.865402 217.668533,184.082962 212.988190,182.858810 
	C211.991577,180.986298 211.499832,179.555496 211.008087,178.124710 
	C210.891891,175.585449 211.221771,172.924576 210.569336,170.531509 
	C209.076065,165.054260 209.716721,160.330078 214.070587,156.427536 
	C220.149307,150.978912 226.247955,145.552505 232.653946,139.988785 
z"/>
<path fill="#6BC874" opacity="1.000000" stroke="none" 
	d="
M210.728516,177.927765 
	C211.499832,179.555496 211.991577,180.986298 212.602127,182.718750 
	C208.464874,183.025711 204.208817,183.031006 199.495209,183.097809 
	C193.800064,183.829880 188.562454,184.500458 182.945740,185.197266 
	C177.695084,183.800491 172.735352,182.612961 167.995819,180.837601 
	C166.121643,180.135559 163.771332,178.328949 163.418121,176.650604 
	C163.102814,175.152374 164.850632,172.637680 166.373627,171.452560 
	C169.853699,168.744598 173.753235,166.575668 178.202408,164.053070 
	C183.944580,164.060760 188.966736,164.203201 193.988907,164.345627 
	C201.118149,166.787460 206.091812,171.880051 210.728516,177.927765 
z"/>
<path fill="#267E35" opacity="1.000000" stroke="none" 
	d="
M149.112183,173.599869 
	C147.805450,174.426651 146.660797,174.935287 144.881500,175.725922 
	C147.082138,165.133850 144.104950,156.497742 137.996231,148.370773 
	C145.000656,148.301392 151.965393,148.168915 158.411667,142.468979 
	C158.861801,148.991898 157.754990,154.067368 154.879883,158.486374 
	C151.893707,163.076111 148.784607,167.447495 149.112183,173.599869 
z"/>
<path fill="#267E35" opacity="1.000000" stroke="none" 
	d="
M193.963867,163.958740 
	C188.966736,164.203201 183.944580,164.060760 178.515137,163.895386 
	C180.109512,160.000656 182.111145,156.128876 184.306366,151.882629 
	C189.198639,154.859207 192.455261,158.460419 193.963867,163.958740 
z"/>
<path fill="#2B7D37" opacity="1.000000" stroke="none" 
	d="
M182.259399,134.255249 
	C181.816696,131.962265 182.247604,130.593994 184.614655,131.959839 
	C186.401398,132.990814 188.070831,134.225113 190.299133,135.705551 
	C188.530380,137.935593 187.052780,139.798553 185.284637,141.825363 
	C184.166656,139.495941 183.339188,137.002670 182.259399,134.255249 
z"/>
<path fill="#267E35" opacity="1.000000" stroke="none" 
	d="
M137.914200,147.918884 
	C138.004761,148.048767 137.516556,148.078690 137.278320,148.024200 
	C137.267426,147.658463 137.528610,147.598221 137.914200,147.918884 
z"/>
<path fill="#323144" opacity="1.000000" stroke="none" 
	d="
M154.159119,130.231857 
	C154.379807,130.115677 154.770233,130.285858 155.356674,130.736633 
	C155.144745,130.850876 154.736816,130.684540 154.159119,130.231857 
z"/>
<path fill="#873E3C" opacity="1.000000" stroke="none" 
	d="
M180.988678,343.579437 
	C193.200546,345.099213 205.402145,346.914062 217.557114,349.000580 
	C222.567413,349.860596 227.477524,351.304474 232.718079,352.724701 
	C232.736343,354.246216 232.872055,355.856110 232.137146,356.751221 
	C227.727341,362.122101 230.387085,366.873016 233.303055,371.506683 
	C235.896225,375.627380 238.804916,379.549469 241.791199,383.822968 
	C237.593033,386.690460 233.178024,389.294220 228.259827,391.662598 
	C226.551361,389.880066 225.594711,388.007599 224.087387,386.855743 
	C221.227905,384.670654 218.052902,382.898438 215.233154,380.709778 
	C217.566315,379.134521 220.280518,378.240112 221.631546,376.364014 
	C223.332916,374.001465 224.113800,370.886139 224.854340,367.983917 
	C225.042984,367.244690 223.752106,365.464905 222.847092,365.210968 
	C212.614731,362.340332 202.325104,359.673859 191.762146,356.733398 
	C189.324524,355.983429 187.175552,355.452637 185.026596,354.921875 
	C183.670944,351.275909 182.315292,347.629944 180.988678,343.579437 
z"/>
<path fill="#FACB67" opacity="1.000000" stroke="none" 
	d="
M150.169510,382.876343 
	C147.429825,378.528931 144.690140,374.181488 141.912476,369.108398 
	C143.510468,358.703491 148.562729,354.976288 159.956467,355.043060 
	C164.020477,359.941895 168.084503,364.840759 172.566376,370.234161 
	C174.004745,372.760834 175.025284,374.792938 176.045837,376.825043 
	C174.998093,380.250427 173.950348,383.675781 172.468674,387.568817 
	C163.087433,392.096191 160.621414,391.669556 153.432510,385.008881 
	C152.492859,384.138245 151.264267,383.579529 150.169510,382.876343 
z"/>
<path fill="#EFAA42" opacity="1.000000" stroke="none" 
	d="
M159.917053,354.695190 
	C148.562729,354.976288 143.510468,358.703491 141.785980,368.788300 
	C140.655487,368.234528 139.613541,367.275146 138.166580,365.842163 
	C135.527115,362.606934 133.292664,359.845245 131.034149,356.690399 
	C128.995926,352.821869 126.981750,349.346527 124.977173,345.481873 
	C126.840157,333.382996 133.163315,329.937286 144.966644,334.204895 
	C149.936981,340.919037 154.907303,347.633179 159.917053,354.695190 
z"/>
<path fill="#551F19" opacity="1.000000" stroke="none" 
	d="
M176.325989,377.037750 
	C175.025284,374.792938 174.004745,372.760834 172.838959,370.413513 
	C171.537552,361.179504 178.114288,358.307770 184.693909,355.049988 
	C187.175552,355.452637 189.324524,355.983429 191.809662,357.093811 
	C193.029480,359.629608 193.904343,361.589813 194.798553,363.541138 
	C196.843307,368.002991 198.897507,372.460510 200.611298,376.996002 
	C198.123322,379.228302 195.771225,381.223083 193.873947,383.583435 
	C191.747391,386.229034 190.032364,389.205414 188.138275,392.037872 
	C185.177292,388.690186 182.133286,385.410828 179.296295,381.961151 
	C178.164154,380.584534 177.489212,378.831909 176.325989,377.037750 
z"/>
<path fill="#D4770F" opacity="1.000000" stroke="none" 
	d="
M144.976730,333.753967 
	C133.163315,329.937286 126.840157,333.382996 124.585205,345.383301 
	C120.788940,345.463470 117.394234,345.252991 113.999535,345.042480 
	C114.816772,340.075684 115.486092,335.128632 111.983101,330.372681 
	C122.583351,329.022491 133.287918,328.024536 144.676819,326.962769 
	C144.770218,328.872986 144.878510,331.088043 144.976730,333.753967 
z"/>
<path fill="#FACC6A" opacity="1.000000" stroke="none" 
	d="
M123.869171,249.052338 
	C123.540382,257.041931 123.211594,265.031525 122.825569,273.438751 
	C120.857620,274.158112 118.946907,274.459808 116.320358,274.874542 
	C116.405243,267.233063 115.457352,260.005524 108.357620,254.931152 
	C109.212730,252.214294 110.149582,250.068054 111.494217,247.965530 
	C115.891052,248.356949 119.880112,248.704651 123.869171,249.052338 
z"/>
<path fill="#EFAB43" opacity="1.000000" stroke="none" 
	d="
M111.086433,247.921814 
	C110.149582,250.068054 109.212730,252.214294 108.135941,254.682007 
	C104.983490,254.305008 101.970978,253.606552 98.559685,252.878067 
	C100.101143,249.467224 102.041397,246.086395 104.279747,242.497314 
	C106.747375,244.166641 108.916901,246.044235 111.086433,247.921814 
z"/>
<path fill="#F0AE4A" opacity="1.000000" stroke="none" 
	d="
M81.837265,273.764313 
	C81.689575,273.792572 81.391228,273.636353 81.021484,273.232361 
	C81.238747,273.129639 81.484261,273.328064 81.837265,273.764313 
z"/>
<path fill="#FBCB67" opacity="1.000000" stroke="none" 
	d="
M113.993713,345.017578 
	C117.394234,345.252991 120.788940,345.463470 124.575607,345.772583 
	C126.981750,349.346527 128.995926,352.821869 130.979858,357.052429 
	C128.237762,361.846802 125.525894,365.885956 122.814026,369.925110 
	C120.267067,371.286743 117.839119,373.477600 115.152061,373.863251 
	C104.755371,375.355469 98.627174,368.193634 101.033112,357.451477 
	C104.916702,353.542175 108.751320,350.024261 113.022110,346.143005 
	C113.652054,345.516357 113.845825,345.253082 114.039597,344.989777 
	C114.039604,344.989777 113.987892,344.992645 113.993713,345.017578 
z"/>
<path fill="#D4770F" opacity="1.000000" stroke="none" 
	d="
M113.822998,345.106445 
	C113.845825,345.253082 113.652054,345.516357 113.229927,345.885681 
	C113.147041,345.691345 113.348648,345.435120 113.822998,345.106445 
z"/>
<path fill="#E1881D" opacity="1.000000" stroke="none" 
	d="
M100.729218,356.776733 
	C100.822517,356.877808 100.398788,356.957214 100.185265,356.988708 
	C100.114746,356.713959 100.336143,356.599091 100.729218,356.776733 
z"/>
<path fill="#994F4F" opacity="1.000000" stroke="none" 
	d="
M188.134949,392.367065 
	C190.032364,389.205414 191.747391,386.229034 193.873947,383.583435 
	C195.771225,381.223083 198.123322,379.228302 200.957184,376.899353 
	C203.347046,376.838257 205.184891,376.585968 206.733475,377.140869 
	C209.581772,378.161530 212.259903,379.657104 215.008957,380.954742 
	C218.052902,382.898438 221.227905,384.670654 224.087387,386.855743 
	C225.594711,388.007599 226.551361,389.880066 227.914734,391.737579 
	C226.812531,396.479645 225.552216,400.911346 224.163788,405.666626 
	C222.561340,408.213776 221.087021,410.437317 219.338226,412.848633 
	C219.700455,408.336395 216.811096,405.546967 213.401978,403.341370 
	C209.093811,400.554047 204.502701,398.208252 200.116852,395.535492 
	C196.525177,393.346680 192.852646,392.397064 188.384613,393.984650 
	C188.033966,393.569183 188.082779,393.132690 188.134949,392.367065 
z"/>
<path fill="#EFAA42" opacity="1.000000" stroke="none" 
	d="
M150.118347,383.342438 
	C151.264267,383.579529 152.492859,384.138245 153.432510,385.008881 
	C160.621414,391.669556 163.087433,392.096191 172.366394,387.922577 
	C172.208649,391.625519 172.710938,395.982239 170.996216,399.132019 
	C168.459305,403.791931 163.124542,404.015930 158.528717,402.512573 
	C153.652756,400.917572 150.623215,397.067383 150.096207,391.778534 
	C149.834000,389.147034 150.061325,386.466736 150.118347,383.342438 
z"/>
<path fill="#D4770F" opacity="1.000000" stroke="none" 
	d="
M123.023819,370.181366 
	C125.525894,365.885956 128.237762,361.846802 131.003906,357.445618 
	C133.292664,359.845245 135.527115,362.606934 137.896790,365.681305 
	C132.224792,365.647705 129.474686,369.925781 126.127899,373.933960 
	C124.990639,372.929382 124.112129,371.683502 123.023819,370.181366 
z"/>
<path fill="#FBD69E" opacity="1.000000" stroke="none" 
	d="
M111.494217,247.965530 
	C108.916901,246.044235 106.747375,244.166641 104.290550,242.122253 
	C103.276611,237.540131 102.549965,233.124817 101.850647,228.317017 
	C104.131836,218.932663 110.309578,214.824631 119.554848,213.999939 
	C123.650055,215.634842 127.348625,217.310730 131.339935,219.156647 
	C132.239960,220.145355 132.847229,220.964035 133.708969,221.957367 
	C130.643005,230.842468 127.322578,239.552887 123.935669,248.657837 
	C119.880112,248.704651 115.891052,248.356949 111.494217,247.965530 
z"/>
<path fill="#EFAB43" opacity="1.000000" stroke="none" 
	d="
M231.859741,298.385437 
	C217.243317,306.050323 203.157913,305.653198 190.517365,294.781403 
	C179.191910,285.040680 175.948334,272.152405 180.303818,258.130981 
	C184.758698,243.789627 195.271667,235.841125 210.656113,233.888306 
	C211.074203,233.821991 211.518402,233.990448 211.746185,234.480042 
	C211.566010,237.068710 211.040771,239.152893 210.771927,241.269623 
	C209.945297,247.778000 208.313126,254.344025 208.636139,260.805542 
	C209.332657,274.738220 217.182434,284.739655 228.246735,292.621399 
	C229.925735,293.817474 230.805771,296.135071 232.055359,297.933929 
	C232.055359,297.933929 231.912689,298.229889 231.859741,298.385437 
z"/>
<path fill="#FBCC69" opacity="1.000000" stroke="none" 
	d="
M232.363342,297.822174 
	C230.805771,296.135071 229.925735,293.817474 228.246735,292.621399 
	C217.182434,284.739655 209.332657,274.738220 208.636139,260.805542 
	C208.313126,254.344025 209.945297,247.778000 210.771927,241.269623 
	C211.040771,239.152893 211.566010,237.068710 211.967651,234.565857 
	C227.240143,233.465836 240.993210,242.595047 246.080917,256.810425 
	C251.555817,272.107635 246.539551,287.407593 232.363342,297.822174 
z"/>
<path fill="#FF6666" opacity="1.000000" stroke="none" 
	d="
M226.318375,185.791504 
	C225.523148,180.383667 227.620712,176.595413 231.798370,173.257080 
	C237.621521,168.603821 242.923508,163.298416 248.722626,158.071289 
	C248.996719,157.870499 249.016174,158.069672 249.022797,158.563965 
	C249.298950,169.594772 254.313080,174.604095 265.003479,175.440002 
	C262.593384,178.218765 260.294739,180.685883 257.690002,183.270737 
	C253.187500,186.623245 248.991058,189.858002 244.794617,193.092758 
	C238.735504,190.706909 232.676392,188.321045 226.318375,185.791504 
z"/>
<path fill="#FE6767" opacity="1.000000" stroke="none" 
	d="
M301.083679,222.102921 
	C299.908905,224.115509 298.734161,226.128098 297.253876,228.338654 
	C290.410583,224.633789 283.872803,220.730942 277.150513,216.080048 
	C277.031860,208.861969 277.097687,202.391937 277.468140,196.035461 
	C286.345459,204.802322 289.281952,205.004166 299.047272,197.667725 
	C299.552521,197.288147 300.241760,197.153549 300.894226,197.380768 
	C300.989960,205.938721 301.036804,214.020828 301.083679,222.102921 
z"/>
<path fill="#FF4848" opacity="1.000000" stroke="none" 
	d="
M277.163513,195.921890 
	C277.097687,202.391937 277.031860,208.861969 276.949463,215.821915 
	C274.022522,214.436752 271.112183,212.561691 268.212921,210.074707 
	C276.132294,200.569870 273.515778,191.554810 263.643219,187.017319 
	C261.600342,186.078400 259.870300,184.458847 257.996094,183.152985 
	C260.294739,180.685883 262.593384,178.218765 265.290924,175.270844 
	C268.457062,172.527267 271.224304,170.264496 274.161926,168.296570 
	C275.272034,170.192093 276.211761,171.792740 277.156982,173.793121 
	C277.139526,175.795334 277.116547,177.397797 277.057373,179.464417 
	C277.052032,184.620209 277.082825,189.311859 277.116089,194.323654 
	C277.133545,195.069824 277.148529,195.495865 277.163513,195.921890 
z"/>
<path fill="#DD2826" opacity="1.000000" stroke="none" 
	d="
M257.690002,183.270752 
	C259.870300,184.458847 261.600342,186.078400 263.643219,187.017319 
	C273.515778,191.554810 276.132294,200.569870 268.058624,209.773041 
	C260.310883,204.613342 252.728531,199.143387 244.970398,193.383102 
	C248.991058,189.858002 253.187500,186.623245 257.690002,183.270752 
z"/>
<path fill="#FC7D7D" opacity="1.000000" stroke="none" 
	d="
M325.986176,171.992126 
	C332.254791,163.059967 337.765778,161.891235 346.588013,167.851730 
	C347.890625,170.747223 348.892517,173.477798 349.982544,176.564575 
	C350.005341,183.275742 349.940063,189.630707 349.536255,196.539429 
	C346.944763,198.729095 344.879639,200.767288 342.402832,201.923630 
	C335.619781,205.090454 330.716064,201.184982 326.017639,196.528625 
	C325.686951,193.026810 325.358734,189.968246 325.028748,186.468140 
	C325.346741,181.348450 325.666443,176.670288 325.986176,171.992126 
z"/>
<path fill="#FF4848" opacity="1.000000" stroke="none" 
	d="
M316.161621,231.172485 
	C309.261963,231.652573 304.261993,229.469864 301.993591,222.007080 
	C301.994263,217.036545 302.109070,212.891495 301.966370,208.755356 
	C301.785645,203.517593 301.395508,198.287033 301.069550,192.591583 
	C301.059814,188.452682 301.076263,184.775574 301.370056,181.259949 
	C302.795807,182.815201 303.881622,184.266632 305.103027,185.593216 
	C311.989990,193.073196 316.551086,193.618835 324.936646,188.491928 
	C324.998596,200.015228 325.044098,211.071716 325.089600,222.128220 
	C323.906525,226.709198 320.929047,229.561630 316.161621,231.172485 
z"/>
<path fill="#FE6766" opacity="1.000000" stroke="none" 
	d="
M326.020172,196.971878 
	C330.716064,201.184982 335.619781,205.090454 342.402832,201.923630 
	C344.879639,200.767288 346.944763,198.729095 349.520172,197.001816 
	C349.903198,203.615829 349.963745,210.321243 350.031738,217.490479 
	C349.134003,226.244476 345.544708,230.587204 338.822510,231.525543 
	C333.417786,232.279968 328.646149,229.055145 325.976746,222.014160 
	C325.989014,213.111984 326.004608,205.041931 326.020172,196.971878 
z"/>
<path fill="#DD6664" opacity="1.000000" stroke="none" 
	d="
M326.017639,196.528625 
	C326.004608,205.041931 325.989014,213.111984 325.944763,221.659363 
	C325.916077,222.136688 325.503326,222.074677 325.296448,222.101440 
	C325.044098,211.071716 324.998596,200.015228 324.965393,188.213013 
	C324.995270,187.281433 325.012909,187.095551 325.030518,186.909668 
	C325.358734,189.968246 325.686951,193.026810 326.017639,196.528625 
z"/>
<path fill="#FC7D7D" opacity="1.000000" stroke="none" 
	d="
M301.092712,181.098480 
	C301.076263,184.775574 301.059814,188.452682 301.035217,192.975739 
	C300.966492,194.849426 300.905914,195.877151 300.845337,196.904907 
	C300.241760,197.153549 299.552521,197.288147 299.047272,197.667725 
	C289.281952,205.004166 286.345459,204.802322 277.468140,196.035461 
	C277.148529,195.495865 277.133545,195.069824 277.328705,193.977478 
	C277.390411,188.540848 277.242004,183.770569 277.093567,179.000275 
	C277.116547,177.397797 277.139526,175.795334 277.389709,173.513519 
	C280.614685,169.566895 283.612488,166.299606 287.057678,162.544647 
	C286.121796,161.386169 284.437927,159.301804 283.002014,157.524368 
	C279.765991,161.287201 276.878754,164.644470 273.991547,168.001740 
	C271.224304,170.264496 268.457062,172.527267 265.402405,174.959198 
	C254.313080,174.604095 249.298950,169.594772 249.038864,158.662750 
	C252.796799,154.785156 256.391785,151.117355 260.328705,147.863266 
	C266.717804,142.582352 267.174835,142.589310 274.240143,143.324234 
	C276.912964,139.537750 279.319519,136.128525 281.936066,132.463089 
	C283.496765,131.807434 284.847473,131.407974 286.536926,130.911789 
	C289.702667,131.486572 292.529572,132.158096 295.698364,133.016479 
	C301.483826,140.023865 306.927460,146.844360 312.658203,153.826004 
	C312.969818,154.430649 312.994354,154.874130 313.003174,156.028854 
	C310.375702,167.135544 306.674164,169.373596 292.349335,168.821732 
	C295.405701,173.113235 298.249207,177.105865 301.092712,181.098480 
z"/>
<path fill="#FF6666" opacity="1.000000" stroke="none" 
	d="
M301.370056,181.259949 
	C298.249207,177.105865 295.405701,173.113235 292.349335,168.821732 
	C306.674164,169.373596 310.375702,167.135544 313.029602,156.360748 
	C317.215088,161.169266 321.358398,166.357132 325.743927,171.768555 
	C325.666443,176.670288 325.346741,181.348450 325.028748,186.468140 
	C325.012909,187.095551 324.995270,187.281433 324.948944,187.746216 
	C316.551086,193.618835 311.989990,193.073196 305.103027,185.593216 
	C303.881622,184.266632 302.795807,182.815201 301.370056,181.259949 
z"/>
<path fill="#DD4D4F" opacity="1.000000" stroke="none" 
	d="
M300.894226,197.380768 
	C300.905914,195.877151 300.966492,194.849426 301.061401,193.437531 
	C301.395508,198.287033 301.785645,203.517593 301.966370,208.755356 
	C302.109070,212.891495 301.994263,217.036545 301.960571,221.654144 
	C301.927368,222.130676 301.507690,222.044617 301.295654,222.073761 
	C301.036804,214.020828 300.989960,205.938721 300.894226,197.380768 
z"/>
<path fill="#6E2E2B" opacity="1.000000" stroke="none" 
	d="
M215.233154,380.709778 
	C212.259903,379.657104 209.581772,378.161530 206.733475,377.140869 
	C205.184891,376.585968 203.347046,376.838257 201.293777,376.823120 
	C198.897507,372.460510 196.843307,368.002991 194.798553,363.541138 
	C193.904343,361.589813 193.029480,359.629608 192.098328,357.313049 
	C202.325104,359.673859 212.614731,362.340332 222.847092,365.210968 
	C223.752106,365.464905 225.042984,367.244690 224.854340,367.983917 
	C224.113800,370.886139 223.332916,374.001465 221.631546,376.364014 
	C220.280518,378.240112 217.566315,379.134521 215.233154,380.709778 
z"/>
<path fill="#DD2826" opacity="1.000000" stroke="none" 
	d="
M274.161926,168.296585 
	C276.878754,164.644470 279.765991,161.287201 283.002014,157.524368 
	C284.437927,159.301804 286.121796,161.386169 287.057678,162.544647 
	C283.612488,166.299606 280.614685,169.566895 277.384216,173.113800 
	C276.211761,171.792740 275.272034,170.192093 274.161926,168.296585 
z"/>
<path fill="#FE6767" opacity="1.000000" stroke="none" 
	d="
M277.057404,179.464417 
	C277.242004,183.770569 277.390411,188.540848 277.326233,193.657318 
	C277.082825,189.311859 277.052032,184.620209 277.057404,179.464417 
z"/>
</svg>