<svg version="1.1" id="Layer_1" xmlns="http://www.w3.org/2000/svg" xmlns:xlink="http://www.w3.org/1999/xlink" x="0px" y="0px"
	 width="100%" viewBox="0 0 512 512" enable-background="new 0 0 512 512" xml:space="preserve">
<path fill="none" opacity="1.000000" stroke="none" 
	d="
M293.000000,513.000000 
	C195.357040,513.000000 98.214073,513.000000 1.035558,513.000000 
	C1.035558,342.398682 1.035558,171.797348 1.035558,1.098012 
	C171.559647,1.098012 342.119354,1.098012 512.839539,1.098012 
	C512.839539,171.666550 512.839539,342.333252 512.839539,513.000000 
	C439.797333,513.000000 366.648651,513.000000 293.000000,513.000000 
M356.846069,206.772903 
	C362.089905,206.772903 367.333740,206.772903 372.699310,206.772903 
	C373.009735,200.359268 373.281158,194.751968 373.564545,188.897888 
	C367.838989,188.897888 362.403900,188.897888 356.053833,188.697968 
	C331.508606,188.697968 306.963379,188.697968 282.408875,188.697968 
	C282.408875,195.061798 282.408875,200.650116 282.408875,206.543137 
	C307.084045,206.543137 331.505188,206.543137 356.846069,206.772903 
M318.077728,486.942444 
	C271.168518,486.942444 224.259277,486.942444 177.141541,486.942444 
	C177.141541,490.740143 177.141541,494.144958 177.141541,497.998962 
	C184.900085,497.998962 192.512878,498.007233 200.125641,497.997589 
	C239.750153,497.947388 279.374664,497.892578 319.924072,497.989075 
	C325.507996,497.989075 331.091919,497.989075 336.703766,497.989075 
	C336.703766,494.054810 336.703766,490.553467 336.703766,487.108795 
	C330.560974,487.108795 324.781647,487.108795 318.077728,486.942444 
M354.076935,221.821350 
	C330.219574,221.821350 306.362183,221.821350 282.462097,221.821350 
	C282.462097,233.981705 282.462097,245.370483 282.462097,257.014618 
	C306.188812,257.014618 329.595978,257.014618 353.927734,257.174377 
	C359.045105,257.174377 364.162445,257.174377 369.664093,257.174377 
	C370.351959,245.249710 371.008698,233.865326 371.693512,221.993484 
	C365.876221,221.993484 360.438782,221.993484 354.076935,221.821350 
M343.830780,120.525841 
	C348.793365,120.525841 353.755981,120.525841 359.067322,120.525841 
	C358.969543,118.674057 359.033234,117.192726 358.793701,115.762161 
	C356.561798,102.432098 351.635651,90.213203 343.311493,79.507187 
	C331.386230,64.169655 316.286469,53.710659 296.797119,49.682575 
	C296.797119,49.682575 296.535553,49.778339 296.148956,49.340168 
	C295.768646,49.317093 295.388367,49.294018 294.203278,49.012379 
	C290.328796,48.547405 286.454285,48.082432 282.400146,47.595901 
	C282.400146,72.261147 282.400146,96.158028 282.400146,120.570999 
	C287.769318,120.570999 292.897278,120.483383 298.020874,120.594955 
	C303.444916,120.713089 306.835358,123.659714 306.848846,128.023453 
	C306.862366,132.404236 303.443573,135.421295 298.079773,135.531754 
	C292.947174,135.637451 287.810699,135.554565 282.415253,135.554565 
	C282.415253,148.375778 282.415253,160.767578 282.415253,173.671143 
	C291.766937,173.671143 300.885559,173.698410 310.003937,173.665649 
	C330.977692,173.590286 351.951324,173.485703 373.828583,173.669724 
	C377.307434,173.685425 380.787201,173.757538 384.264954,173.703308 
	C389.218140,173.626114 390.746155,171.814972 389.869049,166.833572 
	C389.037811,162.112549 387.927246,157.441406 387.034088,152.730423 
	C384.465088,139.180038 377.795868,134.285034 363.032288,135.617599 
	C353.759979,135.594788 344.485565,135.681412 335.216187,135.504532 
	C330.335663,135.411407 327.051971,132.084076 327.149719,127.896133 
	C327.244080,123.853729 330.346924,120.951973 335.032227,120.615974 
	C337.660950,120.427460 340.298004,120.354660 343.830780,120.525841 
M340.811340,471.869812 
	C342.475220,471.889130 344.139130,471.925598 345.803009,471.924927 
	C355.089539,471.921234 357.643494,469.413086 358.029083,460.236084 
	C358.350342,452.590332 358.958160,444.955322 359.201569,437.308014 
	C359.394135,431.257904 360.997864,426.468323 367.911682,425.736725 
	C368.304321,419.589142 368.811157,413.842926 368.926941,408.088837 
	C368.951721,406.859833 367.847961,404.973083 366.763275,404.470642 
	C362.818451,402.643372 361.562531,399.683075 361.821838,395.606598 
	C362.275879,388.467804 362.589935,381.320190 362.990967,374.177887 
	C364.744202,342.951202 366.505798,311.725037 368.270386,280.498993 
	C368.416565,277.911957 368.607483,275.327454 368.797363,272.441132 
	C362.788940,272.441132 357.340485,272.441132 350.983063,272.276184 
	C328.223785,272.276184 305.464508,272.276184 282.145477,272.276184 
	C282.145477,283.360046 282.004211,293.964050 282.212555,304.561188 
	C282.300201,309.018433 280.780945,312.074097 277.043793,314.545349 
	C266.364136,321.607422 255.810410,328.861938 245.273727,336.137177 
	C242.170395,338.279907 239.060089,339.380249 235.541565,337.434021 
	C232.127609,335.545624 231.812454,332.306274 231.825745,328.812836 
	C231.890228,311.834412 231.854462,294.855591 231.854218,277.876923 
	C231.854187,276.121796 231.854218,274.366669 231.854218,272.239716 
	C222.004730,272.239716 212.874176,272.146637 203.746780,272.276123 
	C198.621155,272.348846 195.510544,270.248169 194.862274,264.326172 
	C195.586136,258.908600 199.248810,257.260712 204.081604,257.241272 
	C213.183487,257.204651 222.285614,257.230713 231.576141,257.230713 
	C231.576141,245.150772 231.576141,233.745193 231.576141,222.107605 
	C201.747665,222.107605 172.203766,222.107605 142.312424,222.107605 
	C142.986374,233.851837 143.640030,245.242645 144.327774,257.227234 
	C151.287659,257.227234 157.900589,257.177887 164.512436,257.241211 
	C171.054031,257.303864 172.980881,258.855286 174.349991,265.841309 
	C173.399857,270.598846 170.297440,272.330658 165.684906,272.262970 
	C158.925781,272.163788 152.164108,272.237457 145.205505,272.237457 
	C146.284256,291.612274 147.289780,310.226318 148.363022,328.836456 
	C150.884995,372.567444 153.477158,416.294434 155.950851,460.028107 
	C156.490417,469.567078 158.779068,471.923553 168.494934,471.923889 
	C223.640533,471.925842 278.786133,471.927856 333.931732,471.912720 
	C335.923004,471.912170 337.914185,471.733185 340.811340,471.869812 
M231.856995,115.267975 
	C231.856995,92.845856 231.856995,70.423737 231.856995,48.002682 
	C186.990509,48.381992 154.920837,89.218491 155.556351,120.312943 
	C180.829147,120.312943 206.101562,120.312943 231.638611,120.312943 
	C231.720062,118.781349 231.788528,117.494080 231.856995,115.267975 
M124.329735,165.887024 
	C123.524521,172.845551 124.255386,173.673050 131.364227,173.674652 
	C163.171158,173.681839 194.978104,173.677826 226.785034,173.677872 
	C228.384476,173.677872 229.983932,173.677887 231.699310,173.677887 
	C231.699310,160.688705 231.699310,148.403610 231.699310,136.000275 
	C230.937073,135.835022 230.303879,135.577988 229.670563,135.577637 
	C201.027893,135.561783 172.384705,135.476654 143.742844,135.631851 
	C135.788239,135.674957 130.093552,140.503433 128.040558,148.475693 
	C126.633308,153.940384 125.719734,159.532227 124.329735,165.887024 
M165.499939,206.764587 
	C187.452454,206.764587 209.404968,206.764587 231.607239,206.764587 
	C231.607239,200.515350 231.607239,194.792084 231.607239,188.983749 
	C201.121796,188.983749 170.892014,188.983749 140.416138,188.983749 
	C140.769730,195.072464 141.102417,200.801392 141.448715,206.764587 
	C149.528183,206.764587 157.014084,206.764587 165.499939,206.764587 
M267.154419,87.500031 
	C267.154419,74.281250 267.154419,61.062473 267.154419,47.855576 
	C259.980408,47.855576 253.573746,47.855576 247.233826,47.855576 
	C247.233826,72.204948 247.233826,96.223091 247.233826,120.242271 
	C254.027939,120.242271 260.430573,120.242271 267.154419,120.242271 
	C267.154419,109.437492 267.154419,98.968765 267.154419,87.500031 
M267.156281,170.244858 
	C267.156281,158.807297 267.156281,147.369736 267.156281,135.780090 
	C260.126312,135.780090 253.690018,135.780090 247.166321,135.780090 
	C247.166321,148.443024 247.166321,160.845367 247.166321,173.664139 
	C253.278870,173.664139 259.082672,173.757309 264.876099,173.554291 
	C265.660950,173.526794 266.393738,172.013794 267.156281,170.244858 
M267.153900,279.585663 
	C267.153900,277.305511 267.153900,275.025360 267.153900,272.502960 
	C260.188263,272.502960 253.786392,272.502960 247.163025,272.502960 
	C247.163025,287.111145 247.163025,301.449982 247.163025,316.625641 
	C253.760712,312.149963 259.840698,308.192047 265.679840,303.906006 
	C266.693054,303.162323 267.054169,301.040405 267.089905,299.540100 
	C267.240540,293.217255 267.153870,286.888763 267.153900,279.585663 
M267.149506,235.506165 
	C267.149506,231.071243 267.149506,226.636322 267.149506,222.178619 
	C260.069122,222.178619 253.564865,222.178619 247.137421,222.178619 
	C247.137421,233.994659 247.137421,245.390335 247.137421,256.821594 
	C253.932617,256.821594 260.437500,256.821594 267.149536,256.821594 
	C267.149536,249.770767 267.149536,243.137100 267.149506,235.506165 
M246.843643,203.271317 
	C247.440125,204.420410 247.996002,206.540665 248.639404,206.567581 
	C254.712448,206.821503 260.800415,206.718613 266.953827,206.718613 
	C266.953827,200.352249 266.953827,194.724869 266.953827,188.989197 
	C260.205902,188.989197 253.667801,188.989197 246.842682,188.989197 
	C246.842682,193.689392 246.842682,198.004959 246.843643,203.271317 
M253.557037,15.987614 
	C251.447876,15.987614 249.338699,15.987614 247.101532,15.987614 
	C247.101532,21.694000 247.101532,26.907047 247.101532,32.201046 
	C253.881134,32.201046 260.387726,32.201046 266.801819,32.201046 
	C266.801819,26.594824 266.801819,21.391193 266.801819,15.987613 
	C262.474243,15.987613 258.508789,15.987613 253.557037,15.987614 
z"/>
<path fill="#E1A874" opacity="1.000000" stroke="none" 
	d="
M194.692551,265.079742 
	C195.510544,270.248169 198.621155,272.348846 203.746780,272.276123 
	C212.874176,272.146637 222.004730,272.239716 231.854218,272.239716 
	C231.854218,274.366669 231.854187,276.121796 231.854218,277.876923 
	C231.854462,294.855591 231.890228,311.834412 231.825745,328.812836 
	C231.812454,332.306274 232.127609,335.545624 235.541565,337.434021 
	C239.060089,339.380249 242.170395,338.279907 245.273727,336.137177 
	C255.810410,328.861938 266.364136,321.607422 277.043793,314.545349 
	C280.780945,312.074097 282.300201,309.018433 282.212555,304.561188 
	C282.004211,293.964050 282.145477,283.360046 282.145477,272.276184 
	C305.464508,272.276184 328.223785,272.276184 351.464233,272.795471 
	C351.315430,284.565460 350.628693,295.813354 350.067688,307.067535 
	C348.994263,328.602295 348.002625,350.141144 346.931122,371.675995 
	C346.876251,372.779510 346.390869,373.861603 345.775848,374.830505 
	C335.668152,368.284790 325.077728,369.225250 317.976776,377.146729 
	C311.263092,384.636169 311.138458,395.940643 317.685150,403.605530 
	C324.091705,411.106323 333.128754,412.512360 343.988312,408.178955 
	C342.650513,429.656036 341.277954,450.646729 339.905426,471.637390 
	C337.914185,471.733185 335.923004,471.912170 333.931732,471.912720 
	C278.786133,471.927856 223.640533,471.925842 168.494934,471.923889 
	C158.779068,471.923553 156.490417,469.567078 155.950851,460.028107 
	C153.477158,416.294434 150.884995,372.567444 148.363022,328.836456 
	C147.289780,310.226318 146.284256,291.612274 145.205505,272.237457 
	C152.164108,272.237457 158.925781,272.163788 165.684906,272.262970 
	C170.297440,272.330658 173.399857,270.598846 174.935730,265.446106 
	C181.911835,265.060516 188.302185,265.070129 194.692551,265.079742 
M172.841064,372.097931 
	C171.427505,372.968170 169.914795,373.711914 168.616806,374.729523 
	C161.304688,380.462219 158.860794,390.112793 162.513092,398.518768 
	C166.093735,406.759735 175.002655,411.859772 183.511169,410.539337 
	C195.480576,408.681824 203.291473,397.665833 200.744339,386.234802 
	C198.048813,374.137756 186.163574,367.848267 172.841064,372.097931 
M291.589417,372.692841 
	C283.161713,368.702087 275.367432,369.736023 268.487579,375.991699 
	C262.295502,381.622009 260.532013,390.226837 263.628082,397.977142 
	C266.810211,405.942902 275.024963,411.279846 283.278870,410.743896 
	C291.915192,410.183075 299.340759,404.321259 301.695923,396.205170 
	C304.286316,387.278564 300.836761,378.799835 291.589417,372.692841 
M235.597870,410.233002 
	C247.259018,407.223206 253.821350,397.238647 251.310852,386.325806 
	C248.814514,375.474487 238.922806,368.838531 228.138474,370.780365 
	C217.122208,372.763947 210.175156,382.630249 211.868851,393.886719 
	C213.490234,404.662537 223.307587,411.735107 235.597870,410.233002 
M289.091064,449.162292 
	C290.137054,450.856323 291.011810,452.689850 292.258453,454.220459 
	C297.912140,461.162079 308.123108,463.349976 316.271088,459.487762 
	C324.586548,455.546112 329.287781,446.348846 327.449188,437.619354 
	C324.985809,425.923553 314.010132,418.908539 302.733032,421.822266 
	C290.941284,424.868927 285.081543,436.110779 289.091064,449.162292 
M199.231598,422.421173 
	C187.510849,427.972748 182.916855,439.867889 188.397018,450.475006 
	C193.548691,460.446320 205.891113,464.313904 215.793015,459.059845 
	C224.699997,454.333618 228.713577,443.725647 225.168106,434.281281 
	C221.337830,424.078247 211.637375,419.401031 199.231598,422.421173 
M263.397675,460.348328 
	C273.089050,456.375977 277.937347,448.752594 276.998688,438.962280 
	C276.185303,430.477936 269.664764,423.445099 260.837250,421.531097 
	C252.500717,419.723541 243.431976,423.867950 239.346756,431.638153 
	C235.537872,438.882751 235.821381,446.188416 240.580948,452.854248 
	C246.005554,460.451599 253.652679,462.654266 263.397675,460.348328 
z"/>
<path fill="#D7EBFC" opacity="1.000000" stroke="none" 
	d="
M372.925018,173.392975 
	C351.951324,173.485703 330.977692,173.590286 310.003937,173.665649 
	C300.885559,173.698410 291.766937,173.671143 282.415253,173.671143 
	C282.415253,160.767578 282.415253,148.375778 282.415253,135.554565 
	C287.810699,135.554565 292.947174,135.637451 298.079773,135.531754 
	C303.443573,135.421295 306.862366,132.404236 306.848846,128.023453 
	C306.835358,123.659714 303.444916,120.713089 298.020874,120.594955 
	C292.897278,120.483383 287.769318,120.570999 282.400146,120.570999 
	C282.400146,96.158028 282.400146,72.261147 282.400146,47.595901 
	C286.454285,48.082432 290.328796,48.547405 294.809631,49.344856 
	C295.789154,49.711006 296.162354,49.744671 296.535553,49.778339 
	C296.535553,49.778339 296.797119,49.682575 297.077911,50.073895 
	C298.304077,51.144127 299.209503,51.888577 300.200623,52.492363 
	C325.658508,68.000687 339.469421,90.849297 342.931305,120.229736 
	C340.298004,120.354660 337.660950,120.427460 335.032227,120.615974 
	C330.346924,120.951973 327.244080,123.853729 327.149719,127.896133 
	C327.051971,132.084076 330.335663,135.411407 335.216187,135.504532 
	C344.485565,135.681412 353.759979,135.594788 363.647278,136.047760 
	C365.368103,138.331818 366.950287,140.056396 367.494843,142.062622 
	C369.530182,149.560776 371.410034,157.113815 372.951721,164.726578 
	C373.513336,167.499847 372.966278,170.497620 372.925018,173.392975 
z"/>
<path fill="#D5E8FA" opacity="1.000000" stroke="none" 
	d="
M231.856995,115.737389 
	C231.788528,117.494080 231.720062,118.781349 231.638611,120.312943 
	C206.101562,120.312943 180.829147,120.312943 155.556351,120.312943 
	C154.920837,89.218491 186.990509,48.381992 231.856995,48.002682 
	C231.856995,70.423737 231.856995,92.845856 231.856995,115.737389 
z"/>
<path fill="#D5E9FA" opacity="1.000000" stroke="none" 
	d="
M124.457611,165.477127 
	C125.719734,159.532227 126.633308,153.940384 128.040558,148.475693 
	C130.093552,140.503433 135.788239,135.674957 143.742844,135.631851 
	C172.384705,135.476654 201.027893,135.561783 229.670563,135.577637 
	C230.303879,135.577988 230.937073,135.835022 231.699310,136.000275 
	C231.699310,148.403610 231.699310,160.688705 231.699310,173.677887 
	C229.983932,173.677887 228.384476,173.677872 226.785034,173.677872 
	C194.978104,173.677826 163.171158,173.681839 131.364227,173.674652 
	C124.255386,173.673050 123.524521,172.845551 124.457611,165.477127 
z"/>
<path fill="#B47F5E" opacity="1.000000" stroke="none" 
	d="
M346.105957,374.953674 
	C346.390869,373.861603 346.876251,372.779510 346.931122,371.675995 
	C348.002625,350.141144 348.994263,328.602295 350.067688,307.067535 
	C350.628693,295.813354 351.315430,284.565460 351.918732,272.877930 
	C357.340485,272.441132 362.788940,272.441132 368.797363,272.441132 
	C368.607483,275.327454 368.416565,277.911957 368.270386,280.498993 
	C366.505798,311.725037 364.744202,342.951202 362.990967,374.177887 
	C362.589935,381.320190 362.275879,388.467804 361.821838,395.606598 
	C361.562531,399.683075 362.818451,402.643372 366.763275,404.470642 
	C367.847961,404.973083 368.951721,406.859833 368.926941,408.088837 
	C368.811157,413.842926 368.304321,419.589142 367.911682,425.736725 
	C360.997864,426.468323 359.394135,431.257904 359.201569,437.308014 
	C358.958160,444.955322 358.350342,452.590332 358.029083,460.236084 
	C357.643494,469.413086 355.089539,471.921234 345.803009,471.924927 
	C344.139130,471.925598 342.475220,471.889130 340.358398,471.753601 
	C341.277954,450.646729 342.650513,429.656036 344.159760,407.904602 
	C355.428650,398.574188 356.108215,386.484558 346.105957,374.953674 
z"/>
<path fill="#B47E5F" opacity="1.000000" stroke="none" 
	d="
M194.777405,264.702942 
	C188.302185,265.070129 181.911835,265.060516 175.102081,265.100769 
	C172.980881,258.855286 171.054031,257.303864 164.512436,257.241211 
	C157.900589,257.177887 151.287659,257.227234 144.327774,257.227234 
	C143.640030,245.242645 142.986374,233.851837 142.312424,222.107605 
	C172.203766,222.107605 201.747665,222.107605 231.576141,222.107605 
	C231.576141,233.745193 231.576141,245.150772 231.576141,257.230713 
	C222.285614,257.230713 213.183487,257.204651 204.081604,257.241272 
	C199.248810,257.260712 195.586136,258.908600 194.777405,264.702942 
z"/>
<path fill="#B47F5F" opacity="1.000000" stroke="none" 
	d="
M353.003143,257.014618 
	C329.595978,257.014618 306.188812,257.014618 282.462097,257.014618 
	C282.462097,245.370483 282.462097,233.981705 282.462097,221.821350 
	C306.362183,221.821350 330.219574,221.821350 354.539856,222.372406 
	C354.336212,234.287186 353.669678,245.650894 353.003143,257.014618 
z"/>
<path fill="#F8EBAA" opacity="1.000000" stroke="none" 
	d="
M164.999954,206.764587 
	C157.014084,206.764587 149.528183,206.764587 141.448715,206.764587 
	C141.102417,200.801392 140.769730,195.072464 140.416138,188.983749 
	C170.892014,188.983749 201.121796,188.983749 231.607239,188.983749 
	C231.607239,194.792084 231.607239,200.515350 231.607239,206.764587 
	C209.404968,206.764587 187.452454,206.764587 164.999954,206.764587 
z"/>
<path fill="#D8ECFE" opacity="1.000000" stroke="none" 
	d="
M318.999176,497.839417 
	C279.374664,497.892578 239.750153,497.947388 200.125641,497.997589 
	C192.512878,498.007233 184.900085,497.998962 177.141541,497.998962 
	C177.141541,494.144958 177.141541,490.740143 177.141541,486.942444 
	C224.259277,486.942444 271.168518,486.942444 318.543335,487.473389 
	C319.005646,491.282684 319.002411,494.561066 318.999176,497.839417 
z"/>
<path fill="#94D5A3" opacity="1.000000" stroke="none" 
	d="
M267.154419,88.000031 
	C267.154419,98.968765 267.154419,109.437492 267.154419,120.242271 
	C260.430573,120.242271 254.027939,120.242271 247.233826,120.242271 
	C247.233826,96.223091 247.233826,72.204948 247.233826,47.855576 
	C253.573746,47.855576 259.980408,47.855576 267.154419,47.855576 
	C267.154419,61.062473 267.154419,74.281250 267.154419,88.000031 
z"/>
<path fill="#FEF0AE" opacity="1.000000" stroke="none" 
	d="
M355.926331,206.543137 
	C331.505188,206.543137 307.084045,206.543137 282.408875,206.543137 
	C282.408875,200.650116 282.408875,195.061798 282.408875,188.697968 
	C306.963379,188.697968 331.508606,188.697968 356.534393,189.260773 
	C356.652069,195.396759 356.289185,200.969940 355.926331,206.543137 
z"/>
<path fill="#AFD5F8" opacity="1.000000" stroke="none" 
	d="
M343.381042,120.377792 
	C339.469421,90.849297 325.658508,68.000687 300.200623,52.492363 
	C299.209503,51.888577 298.304077,51.144127 297.163055,50.184120 
	C316.286469,53.710659 331.386230,64.169655 343.311493,79.507187 
	C351.635651,90.213203 356.561798,102.432098 358.793701,115.762161 
	C359.033234,117.192726 358.969543,118.674057 359.067322,120.525841 
	C353.755981,120.525841 348.793365,120.525841 343.381042,120.377792 
z"/>
<path fill="#93D4A2" opacity="1.000000" stroke="none" 
	d="
M267.153442,170.716736 
	C266.393738,172.013794 265.660950,173.526794 264.876099,173.554291 
	C259.082672,173.757309 253.278870,173.664139 247.166321,173.664139 
	C247.166321,160.845367 247.166321,148.443024 247.166321,135.780090 
	C253.690018,135.780090 260.126312,135.780090 267.156281,135.780090 
	C267.156281,147.369736 267.156281,158.807297 267.153442,170.716736 
z"/>
<path fill="#76BFA2" opacity="1.000000" stroke="none" 
	d="
M267.153931,280.073975 
	C267.153870,286.888763 267.240540,293.217255 267.089905,299.540100 
	C267.054169,301.040405 266.693054,303.162323 265.679840,303.906006 
	C259.840698,308.192047 253.760712,312.149963 247.163025,316.625641 
	C247.163025,301.449982 247.163025,287.111145 247.163025,272.502960 
	C253.786392,272.502960 260.188263,272.502960 267.153900,272.502960 
	C267.153900,275.025360 267.153900,277.305511 267.153931,280.073975 
z"/>
<path fill="#78C2A4" opacity="1.000000" stroke="none" 
	d="
M267.149536,236.004807 
	C267.149536,243.137100 267.149536,249.770767 267.149536,256.821594 
	C260.437500,256.821594 253.932617,256.821594 247.137421,256.821594 
	C247.137421,245.390335 247.137421,233.994659 247.137421,222.178619 
	C253.564865,222.178619 260.069122,222.178619 267.149506,222.178619 
	C267.149506,226.636322 267.149506,231.071243 267.149536,236.004807 
z"/>
<path fill="#AACCEC" opacity="1.000000" stroke="none" 
	d="
M373.376801,173.531342 
	C372.966278,170.497620 373.513336,167.499847 372.951721,164.726578 
	C371.410034,157.113815 369.530182,149.560776 367.494843,142.062622 
	C366.950287,140.056396 365.368103,138.331818 364.099854,136.162704 
	C377.795868,134.285034 384.465088,139.180038 387.034088,152.730423 
	C387.927246,157.441406 389.037811,162.112549 389.869049,166.833572 
	C390.746155,171.814972 389.218140,173.626114 384.264954,173.703308 
	C380.787201,173.757538 377.307434,173.685425 373.376801,173.531342 
z"/>
<path fill="#9E6D4F" opacity="1.000000" stroke="none" 
	d="
M353.465454,257.094482 
	C353.669678,245.650894 354.336212,234.287186 355.002045,222.458466 
	C360.438782,221.993484 365.876221,221.993484 371.693512,221.993484 
	C371.008698,233.865326 370.351959,245.249710 369.664093,257.174377 
	C364.162445,257.174377 359.045105,257.174377 353.465454,257.094482 
z"/>
<path fill="#76BEA1" opacity="1.000000" stroke="none" 
	d="
M246.843170,202.795929 
	C246.842682,198.004959 246.842682,193.689392 246.842682,188.989197 
	C253.667801,188.989197 260.205902,188.989197 266.953827,188.989197 
	C266.953827,194.724869 266.953827,200.352249 266.953827,206.718613 
	C260.800415,206.718613 254.712448,206.821503 248.639404,206.567581 
	C247.996002,206.540665 247.440125,204.420410 246.843170,202.795929 
z"/>
<path fill="#AEDF9B" opacity="1.000000" stroke="none" 
	d="
M254.050201,15.987614 
	C258.508789,15.987613 262.474243,15.987613 266.801819,15.987613 
	C266.801819,21.391193 266.801819,26.594824 266.801819,32.201046 
	C260.387726,32.201046 253.881134,32.201046 247.101532,32.201046 
	C247.101532,26.907047 247.101532,21.694000 247.101532,15.987614 
	C249.338699,15.987614 251.447876,15.987614 254.050201,15.987614 
z"/>
<path fill="#E6D479" opacity="1.000000" stroke="none" 
	d="
M356.386200,206.658020 
	C356.289185,200.969940 356.652069,195.396759 356.991882,189.360718 
	C362.403900,188.897888 367.838989,188.897888 373.564545,188.897888 
	C373.281158,194.751968 373.009735,200.359268 372.699310,206.772903 
	C367.333740,206.772903 362.089905,206.772903 356.386200,206.658020 
z"/>
<path fill="#B4DAFE" opacity="1.000000" stroke="none" 
	d="
M319.461609,497.914246 
	C319.002411,494.561066 319.005646,491.282684 319.005615,487.556580 
	C324.781647,487.108795 330.560974,487.108795 336.703766,487.108795 
	C336.703766,490.553467 336.703766,494.054810 336.703766,497.989075 
	C331.091919,497.989075 325.507996,497.989075 319.461609,497.914246 
z"/>
<path fill="#AFD5F8" opacity="1.000000" stroke="none" 
	d="
M296.342255,49.559254 
	C296.162354,49.744671 295.789154,49.711006 295.212006,49.474140 
	C295.388367,49.294018 295.768646,49.317093 296.342255,49.559254 
z"/>
<path fill="#040302" opacity="1.000000" stroke="none" 
	d="
M173.208984,371.978088 
	C186.163574,367.848267 198.048813,374.137756 200.744339,386.234802 
	C203.291473,397.665833 195.480576,408.681824 183.511169,410.539337 
	C175.002655,411.859772 166.093735,406.759735 162.513092,398.518768 
	C158.860794,390.112793 161.304688,380.462219 168.616806,374.729523 
	C169.914795,373.711914 171.427505,372.968170 173.208984,371.978088 
M177.886414,386.525604 
	C177.580521,388.880798 176.364761,391.717224 177.271271,393.431152 
	C177.935593,394.687164 181.797012,395.380219 183.465866,394.625916 
	C184.841553,394.004120 186.074905,390.633301 185.631409,388.935181 
	C184.748917,385.556335 181.847961,384.653046 177.886414,386.525604 
z"/>
<path fill="#040302" opacity="1.000000" stroke="none" 
	d="
M345.775848,374.830505 
	C356.108215,386.484558 355.428650,398.574188 344.125031,407.418182 
	C333.128754,412.512360 324.091705,411.106323 317.685150,403.605530 
	C311.138458,395.940643 311.263092,384.636169 317.976776,377.146729 
	C325.077728,369.225250 335.668152,368.284790 345.775848,374.830505 
M332.633514,385.408478 
	C331.072784,387.217834 328.827057,388.831421 328.231140,390.916504 
	C327.918213,392.011475 330.229248,394.672974 331.847107,395.251160 
	C333.201477,395.735229 335.764954,394.697083 336.922913,393.494904 
	C339.603180,390.712097 338.005676,387.407104 332.633514,385.408478 
z"/>
<path fill="#040302" opacity="1.000000" stroke="none" 
	d="
M291.926941,372.858215 
	C300.836761,378.799835 304.286316,387.278564 301.695923,396.205170 
	C299.340759,404.321259 291.915192,410.183075 283.278870,410.743896 
	C275.024963,411.279846 266.810211,405.942902 263.628082,397.977142 
	C260.532013,390.226837 262.295502,381.622009 268.487579,375.991699 
	C275.367432,369.736023 283.161713,368.702087 291.926941,372.858215 
M283.268677,385.488251 
	C278.503174,386.183990 275.995941,388.741150 277.542511,391.890503 
	C278.349121,393.532990 280.572876,395.399017 282.210968,395.451019 
	C283.799561,395.501465 286.190643,393.695160 286.921143,392.103821 
	C288.148804,389.429382 287.006378,386.923096 283.268677,385.488251 
z"/>
<path fill="#040302" opacity="1.000000" stroke="none" 
	d="
M235.198059,410.319214 
	C223.307587,411.735107 213.490234,404.662537 211.868851,393.886719 
	C210.175156,382.630249 217.122208,372.763947 228.138474,370.780365 
	C238.922806,368.838531 248.814514,375.474487 251.310852,386.325806 
	C253.821350,397.238647 247.259018,407.223206 235.198059,410.319214 
M236.872299,390.540924 
	C236.206116,386.853882 234.050659,384.426697 230.370865,385.845154 
	C228.692413,386.492157 227.090759,389.454529 227.017960,391.424500 
	C226.967453,392.791748 229.918610,395.639771 230.942245,395.393066 
	C233.104630,394.871918 234.882568,392.755768 236.872299,390.540924 
z"/>
<path fill="#040302" opacity="1.000000" stroke="none" 
	d="
M288.979828,448.791656 
	C285.081543,436.110779 290.941284,424.868927 302.733032,421.822266 
	C314.010132,418.908539 324.985809,425.923553 327.449188,437.619354 
	C329.287781,446.348846 324.586548,455.546112 316.271088,459.487762 
	C308.123108,463.349976 297.912140,461.162079 292.258453,454.220459 
	C291.011810,452.689850 290.137054,450.856323 288.979828,448.791656 
M312.343079,439.288971 
	C310.306671,438.318115 307.928986,436.213837 306.329834,436.695282 
	C304.731476,437.176514 302.786804,440.436493 303.074463,442.123627 
	C303.350006,443.740051 306.240356,445.938995 308.083435,446.041016 
	C311.674164,446.239807 313.123840,443.536224 312.343079,439.288971 
z"/>
<path fill="#040302" opacity="1.000000" stroke="none" 
	d="
M199.599365,422.275696 
	C211.637375,419.401031 221.337830,424.078247 225.168106,434.281281 
	C228.713577,443.725647 224.699997,454.333618 215.793015,459.059845 
	C205.891113,464.313904 193.548691,460.446320 188.397018,450.475006 
	C182.916855,439.867889 187.510849,427.972748 199.599365,422.275696 
M209.577988,445.164948 
	C209.904297,442.915619 210.785400,440.543213 210.325211,438.468292 
	C210.091614,437.415009 207.298523,436.100342 205.919144,436.345825 
	C204.294357,436.635040 202.338654,438.217896 201.668030,439.742126 
	C201.106689,441.017914 201.655167,443.879639 202.661652,444.500946 
	C204.344864,445.539948 206.785049,445.352539 209.577988,445.164948 
z"/>
<path fill="#030202" opacity="1.000000" stroke="none" 
	d="
M263.014221,460.513550 
	C253.652679,462.654266 246.005554,460.451599 240.580948,452.854248 
	C235.821381,446.188416 235.537872,438.882751 239.346756,431.638153 
	C243.431976,423.867950 252.500717,419.723541 260.837250,421.531097 
	C269.664764,423.445099 276.185303,430.477936 276.998688,438.962280 
	C277.937347,448.752594 273.089050,456.375977 263.014221,460.513550 
M258.145599,436.262726 
	C254.008163,435.956421 251.721024,437.947235 252.071198,442.018890 
	C252.366272,445.449829 254.986206,446.874146 258.126740,446.025940 
	C259.587433,445.631470 261.791748,443.683411 261.677216,442.661743 
	C261.440338,440.548340 259.876404,438.583679 258.145599,436.262726 
z"/>
<path fill="#AE7A5C" opacity="1.000000" stroke="none" 
	d="
M178.194244,386.309998 
	C181.847961,384.653046 184.748917,385.556335 185.631409,388.935181 
	C186.074905,390.633301 184.841553,394.004120 183.465866,394.625916 
	C181.797012,395.380219 177.935593,394.687164 177.271271,393.431152 
	C176.364761,391.717224 177.580521,388.880798 178.194244,386.309998 
z"/>
<path fill="#AE7A5C" opacity="1.000000" stroke="none" 
	d="
M333.001678,385.409363 
	C338.005676,387.407104 339.603180,390.712097 336.922913,393.494904 
	C335.764954,394.697083 333.201477,395.735229 331.847107,395.251160 
	C330.229248,394.672974 327.918213,392.011475 328.231140,390.916504 
	C328.827057,388.831421 331.072784,387.217834 333.001678,385.409363 
z"/>
<path fill="#AD795B" opacity="1.000000" stroke="none" 
	d="
M283.622345,385.613647 
	C287.006378,386.923096 288.148804,389.429382 286.921143,392.103821 
	C286.190643,393.695160 283.799561,395.501465 282.210968,395.451019 
	C280.572876,395.399017 278.349121,393.532990 277.542511,391.890503 
	C275.995941,388.741150 278.503174,386.183990 283.622345,385.613647 
z"/>
<path fill="#A97759" opacity="1.000000" stroke="none" 
	d="
M236.845261,390.917419 
	C234.882568,392.755768 233.104630,394.871918 230.942245,395.393066 
	C229.918610,395.639771 226.967453,392.791748 227.017960,391.424500 
	C227.090759,389.454529 228.692413,386.492157 230.370865,385.845154 
	C234.050659,384.426697 236.206116,386.853882 236.845261,390.917419 
z"/>
<path fill="#AD795B" opacity="1.000000" stroke="none" 
	d="
M312.498962,439.637390 
	C313.123840,443.536224 311.674164,446.239807 308.083435,446.041016 
	C306.240356,445.938995 303.350006,443.740051 303.074463,442.123627 
	C302.786804,440.436493 304.731476,437.176514 306.329834,436.695282 
	C307.928986,436.213837 310.306671,438.318115 312.498962,439.637390 
z"/>
<path fill="#AD795B" opacity="1.000000" stroke="none" 
	d="
M209.242310,445.423157 
	C206.785049,445.352539 204.344864,445.539948 202.661652,444.500946 
	C201.655167,443.879639 201.106689,441.017914 201.668030,439.742126 
	C202.338654,438.217896 204.294357,436.635040 205.919144,436.345825 
	C207.298523,436.100342 210.091614,437.415009 210.325211,438.468292 
	C210.785400,440.543213 209.904297,442.915619 209.242310,445.423157 
z"/>
<path fill="#AE7A5C" opacity="1.000000" stroke="none" 
	d="
M258.501892,436.410278 
	C259.876404,438.583679 261.440338,440.548340 261.677216,442.661743 
	C261.791748,443.683411 259.587433,445.631470 258.126740,446.025940 
	C254.986206,446.874146 252.366272,445.449829 252.071198,442.018890 
	C251.721024,437.947235 254.008163,435.956421 258.501892,436.410278 
z"/>
</svg>