<svg version="1.1" id="Layer_1" xmlns="http://www.w3.org/2000/svg" xmlns:xlink="http://www.w3.org/1999/xlink" x="0px" y="0px"
	 width="100%" viewBox="0 0 512 512" xml:space="preserve">

<path fill="#D4483F" opacity="1.000000" stroke="none" 
	d="
M168.983673,465.156372 
	C159.239441,459.179199 149.475021,453.234650 139.755737,447.217163 
	C125.338135,438.290924 112.188385,427.799957 99.644997,416.345886 
	C79.772308,398.199036 63.935703,377.067596 50.449287,353.959290 
	C37.048889,330.998352 28.299273,306.283966 22.306889,280.506958 
	C21.641369,277.644135 21.421780,274.677643 21.183395,271.553223 
	C25.499250,275.434540 29.243452,280.024994 33.824429,283.518036 
	C49.699123,295.622620 68.174004,302.361481 87.063637,307.957672 
	C135.900909,322.426086 186.109253,327.584015 236.760681,328.831879 
	C259.207794,329.384888 281.709015,328.645447 304.159790,327.802979 
	C317.253784,327.311615 330.312103,325.598480 343.357788,324.172363 
	C354.579590,322.945679 365.760681,321.346497 376.967316,320.340546 
	C376.942963,321.600037 377.019562,322.451935 376.863678,323.258942 
	C367.499634,371.731079 346.839722,414.591431 313.417114,451.141754 
	C309.411926,455.521729 305.771667,460.235443 301.622437,464.859741 
	C300.825562,464.997589 300.368561,465.070129 299.450653,465.095123 
	C255.654404,465.083832 212.319046,465.120087 168.983673,465.156372 
z"/>
<path fill="#C33F38" opacity="1.000000" stroke="none" 
	d="
M301.962280,464.794464 
	C305.771667,460.235443 309.411926,455.521729 313.417114,451.141754 
	C346.839722,414.591431 367.499634,371.731079 376.863678,323.258942 
	C377.019562,322.451935 376.942963,321.600037 377.118378,320.161652 
	C377.497528,319.349854 377.736023,319.148865 378.391388,318.963501 
	C401.451874,315.152618 423.715454,309.784943 445.217316,301.653992 
	C463.203674,294.852448 480.392059,286.633148 492.842834,271.117401 
	C491.064789,279.745972 489.701019,288.485657 487.422333,296.979919 
	C482.693268,314.608032 475.796173,331.429535 467.156006,347.518860 
	C458.438477,363.752258 448.171387,378.910156 436.443176,393.154236 
	C419.315887,413.955627 399.151306,431.227814 376.627930,445.824768 
	C366.460297,452.414246 356.047150,458.624786 344.923767,465.030029 
	C330.055511,464.966705 316.008881,464.880585 301.962280,464.794464 
z"/>
<path fill="#434242" opacity="1.000000" stroke="none" 
	d="
M493.016510,270.751556 
	C480.392059,286.633148 463.203674,294.852448 445.217316,301.653992 
	C423.715454,309.784943 401.451874,315.152618 378.396057,318.532532 
	C378.184265,316.295074 378.421570,314.504120 378.572723,312.705902 
	C379.300659,304.046509 380.005341,295.385132 380.748291,286.693512 
	C380.778290,286.662567 380.853455,286.702881 381.128845,286.768677 
	C381.911652,286.627197 382.419037,286.419952 383.328613,286.127319 
	C387.153870,285.364349 390.587585,284.736237 393.998230,284.001129 
	C418.256470,278.772858 442.318878,272.706543 464.329559,260.911133 
	C472.875641,256.331360 480.383514,249.797699 488.293091,244.055984 
	C490.903839,242.160797 490.778351,239.907944 488.301056,237.909164 
	C483.261261,233.842804 478.495239,229.323166 473.044739,225.900726 
	C455.285217,214.749283 435.554718,208.281113 415.426147,203.048676 
	C384.647705,195.047806 353.347107,189.839600 321.614380,188.040482 
	C294.702820,186.514709 267.725281,186.153580 240.491287,185.089676 
	C228.286484,170.802048 231.948929,163.438568 244.956772,152.937592 
	C255.278198,152.959503 265.619629,152.577560 275.916840,153.088379 
	C296.582153,154.113571 317.240906,155.399033 337.870087,156.994064 
	C364.960602,159.088684 391.589478,164.084671 417.843567,171.009674 
	C439.073578,176.609497 459.697693,183.886459 478.119659,196.123062 
	C486.011047,201.364838 492.891785,207.920029 496.123230,217.336990 
	C496.390442,218.115738 496.892151,218.901230 496.877869,219.676086 
	C496.698486,229.402863 496.756195,239.149216 496.105896,248.847137 
	C495.622284,256.059387 494.196381,263.208496 493.016510,270.751556 
z"/>
<path fill="#616060" opacity="1.000000" stroke="none" 
	d="
M380.718262,286.724457 
	C380.005341,295.385132 379.300659,304.046509 378.572723,312.705902 
	C378.421570,314.504120 378.184265,316.295074 377.981995,318.520325 
	C377.736023,319.148865 377.497528,319.349854 377.110840,319.733124 
	C365.760681,321.346497 354.579590,322.945679 343.357788,324.172363 
	C330.312103,325.598480 317.253784,327.311615 304.159790,327.802979 
	C281.709015,328.645447 259.207794,329.384888 236.760681,328.831879 
	C186.109253,327.584015 135.900909,322.426086 87.063637,307.957672 
	C68.174004,302.361481 49.699123,295.622620 33.824429,283.518036 
	C29.243452,280.024994 25.499250,275.434540 21.094252,271.129272 
	C19.568048,257.290985 18.319008,243.670624 17.300768,229.869064 
	C19.604420,233.127899 21.677273,236.567932 23.776443,240.369080 
	C25.935469,243.218918 27.791344,246.029434 30.247326,248.142395 
	C42.930340,259.053955 57.992756,265.604614 73.576515,271.042206 
	C120.872353,287.544952 170.057404,293.432953 219.691650,295.791504 
	C244.609085,296.975555 269.636902,296.366547 294.600037,295.852295 
	C308.703094,295.561737 322.812653,294.155670 336.852753,292.636902 
	C351.516205,291.050720 366.099762,288.726196 380.718262,286.724457 
z"/>
<path fill="#C33F38" opacity="1.000000" stroke="none" 
	d="
M306.006836,82.832214 
	C297.312622,84.059990 288.596100,85.149734 279.929443,86.548294 
	C267.331177,88.581299 254.770798,90.848610 242.189407,92.987503 
	C239.769714,93.398849 237.327713,93.678795 234.248932,93.814911 
	C234.521744,91.201385 235.077469,88.562515 236.426651,86.424324 
	C241.379272,78.575417 246.595474,70.892830 252.117157,63.050514 
	C258.857452,61.634682 265.200836,60.351971 271.526947,58.989239 
	C282.367706,56.653992 293.197662,54.268715 304.032166,51.904457 
	C325.497681,47.603573 346.964020,43.306667 368.428528,39.000702 
	C391.029236,34.466805 413.629364,29.930229 436.227448,25.383299 
	C450.011414,22.609840 463.774994,19.728741 477.595978,17.154945 
	C479.063629,16.881638 481.722992,17.889439 482.360138,19.085588 
	C487.383240,28.515871 492.055969,38.133060 496.799805,47.710922 
	C496.994720,48.104496 496.824677,48.678833 496.824677,49.631889 
	C486.314911,51.412533 475.733978,53.208626 465.151794,54.997314 
	C450.465363,57.479744 435.779144,59.963158 421.090698,62.433533 
	C411.566711,64.035324 402.038879,65.614639 391.837830,67.569328 
	C389.177765,68.026573 387.157837,67.912445 385.212952,68.241753 
	C360.754395,72.382973 336.302551,76.564339 311.863953,80.821396 
	C309.855743,81.171211 307.956635,82.147179 306.006836,82.832214 
z"/>
<path fill="#AC3028" opacity="1.000000" stroke="none" 
	d="
M306.416260,82.896355 
	C307.956635,82.147179 309.855743,81.171211 311.863953,80.821396 
	C336.302551,76.564339 360.754395,72.382973 385.212952,68.241753 
	C387.157837,67.912445 389.177765,68.026573 391.609192,67.893799 
	C400.218933,69.569778 408.366455,71.366913 416.548920,72.987488 
	C436.518311,76.942490 456.498169,80.845528 476.486176,84.705322 
	C483.230316,86.007652 490.011780,87.116837 497.328430,88.412048 
	C496.648407,90.158585 496.229858,91.539337 495.595734,92.812744 
	C491.473053,101.091660 487.110138,109.258385 483.250427,117.656937 
	C481.832855,120.741531 479.940948,121.525879 477.079498,120.889557 
	C457.571808,116.551544 438.083801,112.125122 418.574738,107.793282 
	C393.153778,102.148720 367.715546,96.582016 342.292175,90.948227 
	C330.460968,88.326439 318.647308,85.625542 306.416260,82.896355 
z"/>
<path fill="#434342" opacity="1.000000" stroke="none" 
	d="
M23.750126,240.007965 
	C21.677273,236.567932 19.604420,233.127899 17.336903,229.410309 
	C15.076540,213.405624 24.548948,203.978195 35.930332,196.154709 
	C52.059845,185.067398 70.232010,178.175659 88.993034,173.121460 
	C104.598099,168.917511 120.473557,165.717239 136.948914,162.154358 
	C141.609146,168.854065 145.747223,175.365219 149.401215,182.137589 
	C151.057938,185.208176 151.754257,188.796951 152.497894,192.181793 
	C151.148026,192.453354 150.199051,192.780884 149.223160,192.921494 
	C123.265106,196.661499 97.679169,202.045868 72.972237,210.980942 
	C54.785160,217.558136 37.083668,225.124023 23.750126,240.007965 
z"/>
<path fill="#AC3028" opacity="1.000000" stroke="none" 
	d="
M303.790344,51.593376 
	C293.197662,54.268715 282.367706,56.653992 271.526947,58.989239 
	C265.200836,60.351971 258.857452,61.634682 251.736664,63.056290 
	C243.959534,64.137955 236.967575,65.116722 229.620209,65.919304 
	C222.537292,64.187531 215.809784,62.631943 208.778107,60.840271 
	C202.646805,59.436642 196.819656,58.269093 190.587860,57.060013 
	C183.157211,55.356609 176.131226,53.694733 168.764587,51.844616 
	C162.614075,50.472679 156.804169,49.288982 150.994278,48.105286 
	C141.113922,45.965004 131.233566,43.824718 121.250389,41.662163 
	C121.250389,33.436981 121.250389,25.517576 121.250389,16.696171 
	C128.174820,17.893110 134.741455,18.929497 141.268234,20.174721 
	C161.714905,24.075676 182.149719,28.039137 202.583130,32.009174 
	C222.534180,35.885487 242.467682,39.852745 262.428284,43.678886 
	C276.117859,46.302971 289.840637,48.753948 303.790344,51.593376 
z"/>
<path fill="#F5B53F" opacity="1.000000" stroke="none" 
	d="
M150.991592,48.456398 
	C156.804169,49.288982 162.614075,50.472679 168.713989,52.202995 
	C168.812149,53.182564 168.654221,53.634575 168.423401,54.045666 
	C163.229355,63.296467 154.066650,70.375519 153.112671,82.358131 
	C154.909393,92.220520 161.126663,99.085510 166.999649,106.556877 
	C171.777145,121.746109 169.143433,134.619980 157.297058,145.230286 
	C153.064682,149.021042 153.814011,154.082031 154.353516,159.333771 
	C156.317398,162.913773 158.042801,166.293365 160.195969,169.373978 
	C164.589645,175.660156 168.391785,182.142273 169.069763,190.447403 
	C169.664200,199.599915 166.881683,207.236984 161.868439,214.215561 
	C159.930328,216.913452 158.129532,219.711639 156.311020,222.493454 
	C151.286530,230.179428 151.948196,236.416306 158.474197,243.061783 
	C160.453705,245.077545 162.592880,246.958267 164.378357,249.131363 
	C165.028885,249.923141 165.456070,251.921158 164.973877,252.454407 
	C161.918442,255.833328 158.579483,258.955902 155.160599,262.334412 
	C151.112244,258.259888 147.299728,254.997635 144.178467,251.171478 
	C135.450928,240.472992 134.590027,227.906693 141.584488,215.910385 
	C144.091629,211.610321 147.426422,207.757767 149.627197,203.325439 
	C151.325790,199.904495 151.843521,195.897232 152.886261,192.150650 
	C151.754257,188.796951 151.057938,185.208176 149.401215,182.137589 
	C145.747223,175.365219 141.609146,168.854065 137.348190,162.079926 
	C136.588608,152.386612 136.358887,142.888428 143.008774,134.933151 
	C144.375977,133.297562 145.825867,131.724121 147.319641,130.202545 
	C153.534958,123.871536 153.847214,116.814987 148.037079,109.042740 
	C143.745529,100.785355 137.825439,94.042961 136.855820,84.965698 
	C134.749374,70.248230 143.102921,59.619247 150.991592,48.456398 
z"/>
<path fill="#F5B540" opacity="1.000000" stroke="none" 
	d="
M229.975616,66.095490 
	C236.967575,65.116722 243.959534,64.137955 251.331970,63.153412 
	C246.595474,70.892830 241.379272,78.575417 236.426651,86.424324 
	C235.077469,88.562515 234.521744,91.201385 233.823181,93.849716 
	C232.878876,99.047104 234.274307,103.401558 237.014084,107.532845 
	C240.405762,112.647118 244.511444,117.509377 246.774826,123.101334 
	C250.704498,132.810104 250.397888,142.789627 244.979797,152.565735 
	C231.948929,163.438568 228.286484,170.802048 240.612564,185.417618 
	C241.555557,186.963242 242.011063,188.045731 242.639862,189.015884 
	C251.609131,202.854660 251.376709,216.517120 241.962585,230.057648 
	C239.679886,233.340912 237.410706,236.642853 235.328537,240.054153 
	C231.693832,246.008972 232.329834,252.397263 237.030090,257.552887 
	C239.273682,260.013855 241.839874,262.188873 243.990372,264.722229 
	C244.765366,265.635193 245.463501,267.846039 244.981445,268.392395 
	C241.960571,271.816376 238.596329,274.937378 234.292938,279.201965 
	C231.576981,275.910156 229.530060,273.042694 227.099609,270.549011 
	C215.241821,258.382446 213.705719,243.927689 222.935150,229.648071 
	C225.467911,225.729446 228.259872,221.968842 230.629211,217.956421 
	C234.025711,212.204498 234.184052,206.112518 230.803009,200.373642 
	C227.852737,195.365936 224.292511,190.717560 220.953156,185.548691 
	C214.967728,174.280792 216.327972,163.571136 221.946182,152.666382 
	C223.678116,150.476685 224.992386,148.299713 226.838730,146.761337 
	C232.781570,141.809845 233.704285,132.811340 228.766937,126.051666 
	C222.497513,117.468285 215.551895,108.859337 216.906387,96.606659 
	C216.873520,89.527359 219.031631,83.599075 222.621536,78.085457 
	C224.948608,74.511383 227.121979,70.837219 229.537827,67.065735 
	C229.935135,66.690796 230.023193,66.414772 229.975616,66.095490 
z"/>
<path fill="#606060" opacity="1.000000" stroke="none" 
	d="
M168.988312,465.613464 
	C212.319046,465.120087 255.654404,465.083832 299.274902,465.362366 
	C292.123993,471.952850 284.734222,478.284515 277.235718,484.484680 
	C272.198853,488.649445 267.008118,492.628052 261.886230,496.689972 
	C245.248123,496.793427 228.610123,496.919617 211.971893,496.991669 
	C202.318970,497.033478 192.664810,497.065338 183.012817,496.957642 
	C175.441620,496.873169 169.163925,490.582520 169.030563,483.046448 
	C168.930466,477.389404 168.999298,471.729309 168.988312,465.613464 
z"/>
<path fill="#424242" opacity="1.000000" stroke="none" 
	d="
M262.354614,496.786743 
	C267.008118,492.628052 272.198853,488.649445 277.235718,484.484680 
	C284.734222,478.284515 292.123993,471.952850 299.735779,465.409912 
	C300.368561,465.070129 300.825562,464.997589 301.622437,464.859741 
	C316.008881,464.880585 330.055511,464.966705 344.568726,465.103027 
	C345.020874,471.293457 345.114075,477.436340 344.963562,483.573181 
	C344.792206,490.561249 338.523956,496.930237 331.524200,496.951965 
	C308.624084,497.023132 285.723450,496.919800 262.354614,496.786743 
z"/>
<path fill="#C34038" opacity="1.000000" stroke="none" 
	d="
M136.512848,85.145065 
	C137.825439,94.042961 143.745529,100.785355 147.885757,108.716766 
	C139.177811,110.473167 130.475815,111.877220 121.348198,113.349937 
	C121.348198,104.690720 121.348198,96.621269 121.348198,88.509995 
	C126.345528,87.435936 131.257706,86.380180 136.512848,85.145065 
z"/>
<path fill="#FBDF8E" opacity="1.000000" stroke="none" 
	d="
M221.001785,185.910431 
	C224.292511,190.717560 227.852737,195.365936 230.803009,200.373642 
	C234.184052,206.112518 234.025711,212.204498 230.629211,217.956421 
	C228.259872,221.968842 225.467911,225.729446 222.935150,229.648071 
	C213.705719,243.927689 215.241821,258.382446 227.099609,270.549011 
	C229.530060,273.042694 231.576981,275.910156 234.292938,279.201965 
	C238.596329,274.937378 241.960571,271.816376 244.981445,268.392395 
	C245.463501,267.846039 244.765366,265.635193 243.990372,264.722229 
	C241.839874,262.188873 239.273682,260.013855 237.030090,257.552887 
	C232.329834,252.397263 231.693832,246.008972 235.328537,240.054153 
	C237.410706,236.642853 239.679886,233.340912 241.962585,230.057648 
	C251.376709,216.517120 251.609131,202.854660 242.639862,189.015884 
	C242.011063,188.045731 241.555557,186.963242 240.898193,185.605057 
	C267.725281,186.153580 294.702820,186.514709 321.614380,188.040482 
	C353.347107,189.839600 384.647705,195.047806 415.426147,203.048676 
	C435.554718,208.281113 455.285217,214.749283 473.044739,225.900726 
	C478.495239,229.323166 483.261261,233.842804 488.301056,237.909164 
	C490.778351,239.907944 490.903839,242.160797 488.293091,244.055984 
	C480.383514,249.797699 472.875641,256.331360 464.329559,260.911133 
	C442.318878,272.706543 418.256470,278.772858 393.998230,284.001129 
	C390.587585,284.736237 387.153870,285.364349 383.052917,286.069672 
	C381.867828,286.299194 381.360657,286.501038 380.853455,286.702881 
	C380.853455,286.702881 380.778290,286.662567 380.748291,286.693512 
	C366.099762,288.726196 351.516205,291.050720 336.852753,292.636902 
	C322.812653,294.155670 308.703094,295.561737 294.600037,295.852295 
	C269.636902,296.366547 244.609085,296.975555 219.691650,295.791504 
	C170.057404,293.432953 120.872353,287.544952 73.576515,271.042206 
	C57.992756,265.604614 42.930340,259.053955 30.247326,248.142395 
	C27.791344,246.029434 25.935469,243.218918 23.776447,240.369080 
	C37.083668,225.124023 54.785160,217.558136 72.972237,210.980942 
	C97.679169,202.045868 123.265106,196.661499 149.223160,192.921494 
	C150.199051,192.780884 151.148026,192.453354 152.497910,192.181793 
	C151.843521,195.897232 151.325790,199.904495 149.627197,203.325439 
	C147.426422,207.757767 144.091629,211.610321 141.584488,215.910385 
	C134.590027,227.906693 135.450928,240.472992 144.178467,251.171478 
	C147.299728,254.997635 151.112244,258.259888 155.160599,262.334412 
	C158.579483,258.955902 161.918442,255.833328 164.973877,252.454407 
	C165.456070,251.921158 165.028885,249.923141 164.378357,249.131363 
	C162.592880,246.958267 160.453705,245.077545 158.474197,243.061783 
	C151.948196,236.416306 151.286530,230.179428 156.311020,222.493454 
	C158.129532,219.711639 159.930328,216.913452 161.868439,214.215561 
	C166.881683,207.236984 169.664200,199.599915 169.495834,190.449463 
	C175.925735,189.311844 181.901230,188.625580 188.072281,188.230652 
	C194.739304,197.620041 194.875244,203.658112 188.811234,212.796753 
	C186.692337,215.990005 184.513184,219.144897 182.460419,222.380066 
	C178.908615,227.977737 176.772552,233.972595 176.983032,240.755249 
	C177.373718,253.345490 185.316040,261.360321 193.865448,269.010254 
	C194.368973,269.460815 195.989014,269.464233 196.466537,269.014435 
	C199.794128,265.879852 202.957199,262.570648 207.223083,258.255066 
	C204.145401,255.777420 201.494247,253.982101 199.249039,251.774017 
	C191.605896,244.257309 191.051636,238.448090 196.874741,229.657074 
	C197.794876,228.267960 198.626312,226.805527 199.668930,225.514374 
	C208.996155,213.963577 211.407898,201.165268 207.165466,186.970154 
	C212.073776,186.560364 216.537781,186.235397 221.001785,185.910431 
M376.887115,265.393799 
	C383.461975,258.748962 383.349762,260.022858 377.029755,253.620117 
	C376.561829,253.146027 376.087891,252.677795 375.616547,252.207031 
	C360.898041,237.506897 345.505463,237.406494 330.674561,251.913849 
	C323.821808,258.617096 317.964203,258.785004 311.303070,251.815887 
	C294.529846,234.267258 273.721527,239.554581 260.227661,259.611115 
	C262.731689,262.400635 265.297241,265.219971 267.817413,268.079346 
	C269.611023,270.114380 271.290039,270.270325 273.241211,268.197021 
	C275.750702,265.530426 278.309937,262.890320 281.044556,260.460266 
	C286.108307,255.960464 291.686554,255.957184 296.826172,260.326691 
	C298.344727,261.617676 299.680725,263.121796 301.119232,264.508759 
	C312.890350,275.858398 329.167694,275.830444 340.961517,264.445526 
	C351.355774,254.411652 355.050507,254.453125 365.315765,264.718994 
	C365.669037,265.072296 366.021973,265.425995 366.375458,265.779083 
	C371.414795,270.813324 371.414825,270.813293 376.887115,265.393799 
M361.582520,210.698425 
	C349.339203,206.800903 339.494659,210.919144 330.885345,219.659775 
	C323.906097,226.745483 318.215027,226.674088 311.148987,219.735855 
	C310.317413,218.919296 309.513306,218.074127 308.666931,217.273392 
	C298.654541,207.800873 284.145233,206.477234 272.968811,214.489807 
	C268.818268,217.465424 264.779449,221.002151 261.786163,225.086533 
	C257.830933,230.483414 265.246124,231.258255 266.879700,234.507660 
	C267.582001,235.904709 270.322784,236.435211 272.246857,236.952698 
	C272.751709,237.088501 273.678925,235.719467 274.388092,235.017181 
	C276.280914,233.142700 278.124817,231.217377 280.052338,229.379532 
	C286.096680,223.616287 291.930634,223.643890 298.024841,229.440659 
	C299.351562,230.702637 300.587372,232.061966 301.936951,233.297928 
	C312.946960,243.381149 328.363525,243.566452 339.600189,233.729935 
	C341.225861,232.306839 342.664398,230.672287 344.242310,229.191864 
	C350.121155,223.676254 355.952148,223.693329 361.852753,229.284485 
	C364.269135,231.574097 366.645844,233.913559 368.918701,236.344360 
	C370.987305,238.556641 373.002655,238.012192 374.262451,235.889267 
	C376.353851,232.364944 384.007751,230.763779 380.638641,225.831558 
	C376.241241,219.393890 370.363953,213.522141 361.582520,210.698425 
M102.434517,225.871109 
	C100.132835,225.628967 97.812210,225.064697 95.532639,225.198700 
	C83.640633,225.897751 76.147240,233.804535 68.947289,241.977432 
	C68.405220,242.592773 68.889526,244.841965 69.622375,245.738449 
	C77.358391,255.201965 78.150131,255.207504 86.735703,246.680695 
	C87.325249,246.095184 87.895988,245.488998 88.509041,244.929169 
	C94.073639,239.847626 99.843643,239.775574 105.372292,244.835419 
	C107.821922,247.077316 109.918938,249.742935 112.535515,251.746796 
	C113.733826,252.664459 116.694298,253.279343 117.320854,252.605194 
	C120.297821,249.402008 122.750854,245.710999 125.350578,242.164459 
	C125.402550,242.093552 124.992912,241.645554 124.760849,241.410828 
	C118.470848,235.049530 112.721176,227.930618 102.434517,225.871109 
M411.478943,242.702026 
	C418.180176,239.884064 421.203064,240.654373 427.337433,246.742981 
	C436.005432,255.346390 436.005371,255.346298 444.027252,246.245895 
	C444.137115,246.121292 444.358856,246.004700 444.357483,245.886337 
	C444.338257,244.207397 444.961426,241.981293 444.122772,240.951813 
	C441.512482,237.747498 438.513153,234.800613 435.363281,232.106277 
	C425.349091,223.540176 411.521423,222.817947 400.804169,230.601135 
	C396.675201,233.599731 393.080353,237.416290 389.643494,241.222519 
	C388.866028,242.083542 389.209381,245.560501 389.976349,245.941391 
	C393.796814,247.838791 394.708435,254.546768 400.680389,252.595566 
	C401.671692,252.271698 402.351288,251.020828 403.198120,250.222931 
	C405.734497,247.833160 408.282349,245.455627 411.478943,242.702026 
z"/>
<path fill="#616060" opacity="1.000000" stroke="none" 
	d="
M381.128845,286.768677 
	C381.360657,286.501038 381.867828,286.299194 382.650726,286.155029 
	C382.419037,286.419952 381.911652,286.627197 381.128845,286.768677 
z"/>
<path fill="#F5B53F" opacity="1.000000" stroke="none" 
	d="
M206.721146,187.054993 
	C211.407898,201.165268 208.996155,213.963577 199.668930,225.514374 
	C198.626312,226.805527 197.794876,228.267960 196.874741,229.657074 
	C191.051636,238.448090 191.605896,244.257309 199.249039,251.774017 
	C201.494247,253.982101 204.145401,255.777420 207.223083,258.255066 
	C202.957199,262.570648 199.794128,265.879852 196.466537,269.014435 
	C195.989014,269.464233 194.368973,269.460815 193.865448,269.010254 
	C185.316040,261.360321 177.373718,253.345490 176.983032,240.755249 
	C176.772552,233.972595 178.908615,227.977737 182.460419,222.380066 
	C184.513184,219.144897 186.692337,215.990005 188.811234,212.796753 
	C194.875244,203.658112 194.739304,197.620041 187.951599,187.920868 
	C180.779800,178.354172 175.789474,168.729385 176.944183,156.558319 
	C178.606888,149.156311 182.082642,143.248596 187.241989,138.213806 
	C193.186920,132.412384 193.743790,125.599899 189.213394,118.713318 
	C186.014725,113.851067 182.926620,108.916061 179.763794,103.645142 
	C178.828217,97.952599 177.616089,92.656509 177.117874,87.294090 
	C176.804947,83.925987 177.563492,80.458344 177.961365,76.694008 
	C182.385101,69.935623 186.688812,63.518578 190.992523,57.101540 
	C196.819656,58.269093 202.646805,59.436642 208.637878,61.160667 
	C206.538406,65.105705 204.275024,68.494255 201.711166,72.047829 
	C199.132065,75.247673 196.470871,78.071495 194.655930,81.362083 
	C191.084427,87.837440 192.780426,96.275078 197.978088,100.490021 
	C199.974777,103.802948 202.080841,106.687080 203.923615,109.730637 
	C210.692017,120.909462 211.532700,132.442352 204.896912,143.881302 
	C202.550049,147.926880 198.980591,151.263214 195.631058,155.077179 
	C191.822266,160.019821 192.347763,165.004120 195.190887,169.675644 
	C198.802490,175.609863 202.857376,181.274261 206.721146,187.054993 
z"/>
<path fill="#000000" opacity="1.000000" stroke="none" 
	d="
M190.587860,57.060013 
	C186.688812,63.518578 182.385101,69.935623 177.570724,76.706749 
	C169.090469,78.696396 161.120880,80.331947 153.151306,81.967499 
	C154.066650,70.375519 163.229355,63.296467 168.423401,54.045666 
	C168.654221,53.634575 168.812149,53.182564 169.054626,52.391235 
	C176.131226,53.694733 183.157211,55.356609 190.587860,57.060013 
z"/>
<path fill="#000000" opacity="1.000000" stroke="none" 
	d="
M202.011627,71.882812 
	C204.275024,68.494255 206.538406,65.105705 208.942047,61.396751 
	C215.809784,62.631943 222.537292,64.187531 229.620209,65.919304 
	C230.023193,66.414772 229.935135,66.690796 229.099579,66.988846 
	C219.662354,68.663681 210.836990,70.273247 202.011627,71.882812 
z"/>
<path fill="#000000" opacity="1.000000" stroke="none" 
	d="
M179.789154,104.013535 
	C182.926620,108.916061 186.014725,113.851067 189.213394,118.713318 
	C193.743790,125.599899 193.186920,132.412384 187.241989,138.213806 
	C182.082642,143.248596 178.606888,149.156311 176.502670,156.577087 
	C168.781738,157.656357 161.545181,158.327194 154.308640,158.998032 
	C153.814011,154.082031 153.064682,149.021042 157.297058,145.230286 
	C169.143433,134.619980 171.777145,121.746109 167.361404,106.364395 
	C171.744553,105.185112 175.766846,104.599319 179.789154,104.013535 
z"/>
<path fill="#444442" opacity="1.000000" stroke="none" 
	d="
M154.353516,159.333771 
	C161.545181,158.327194 168.781738,157.656357 176.459793,156.966736 
	C175.789474,168.729385 180.779800,178.354172 187.756042,187.629517 
	C181.901230,188.625580 175.925735,189.311844 169.524170,189.996063 
	C168.391785,182.142273 164.589645,175.660156 160.195969,169.373978 
	C158.042801,166.293365 156.317398,162.913773 154.353516,159.333771 
z"/>
<path fill="#C34038" opacity="1.000000" stroke="none" 
	d="
M179.763794,103.645134 
	C175.766846,104.599319 171.744553,105.185112 167.360489,105.963379 
	C161.126663,99.085510 154.909393,92.220520 153.112671,82.358131 
	C161.120880,80.331947 169.090469,78.696396 177.450684,77.048096 
	C177.563492,80.458344 176.804947,83.925987 177.117874,87.294090 
	C177.616089,92.656509 178.828217,97.952599 179.763794,103.645134 
z"/>
<path fill="#000000" opacity="1.000000" stroke="none" 
	d="
M195.969299,154.923355 
	C198.980591,151.263214 202.550049,147.926880 204.896912,143.881302 
	C211.532700,132.442352 210.692017,120.909462 203.923615,109.730637 
	C202.080841,106.687080 199.974777,103.802948 198.415619,100.435608 
	C204.847366,99.029999 210.853043,98.034431 216.858704,97.038864 
	C215.551895,108.859337 222.497513,117.468285 228.766937,126.051666 
	C233.704285,132.811340 232.781570,141.809845 226.838730,146.761337 
	C224.992386,148.299713 223.678116,150.476685 221.528961,152.662476 
	C212.614883,153.616882 204.292084,154.270126 195.969299,154.923355 
z"/>
<path fill="#C34038" opacity="1.000000" stroke="none" 
	d="
M216.906387,96.606659 
	C210.853043,98.034431 204.847366,99.029999 198.404175,100.079987 
	C192.780426,96.275078 191.084427,87.837440 194.655930,81.362083 
	C196.470871,78.071495 199.132065,75.247673 201.711166,72.047836 
	C210.836990,70.273247 219.662354,68.663681 228.925964,67.131012 
	C227.121979,70.837219 224.948608,74.511383 222.621536,78.085457 
	C219.031631,83.599075 216.873520,89.527359 216.906387,96.606659 
z"/>
<path fill="#444442" opacity="1.000000" stroke="none" 
	d="
M195.631058,155.077179 
	C204.292084,154.270126 212.614883,153.616882 221.354889,152.967560 
	C216.327972,163.571136 214.967728,174.280792 220.953156,185.548691 
	C216.537781,186.235397 212.073776,186.560364 207.165466,186.970154 
	C202.857376,181.274261 198.802490,175.609863 195.190887,169.675644 
	C192.347763,165.004120 191.822266,160.019821 195.631058,155.077179 
z"/>
<path fill="#F5B641" opacity="1.000000" stroke="none" 
	d="
M376.634399,265.646088 
	C371.414825,270.813293 371.414795,270.813324 366.375458,265.779083 
	C366.021973,265.425995 365.669037,265.072296 365.315765,264.718994 
	C355.050507,254.453125 351.355774,254.411652 340.961517,264.445526 
	C329.167694,275.830444 312.890350,275.858398 301.119232,264.508759 
	C299.680725,263.121796 298.344727,261.617676 296.826172,260.326691 
	C291.686554,255.957184 286.108307,255.960464 281.044556,260.460266 
	C278.309937,262.890320 275.750702,265.530426 273.241211,268.197021 
	C271.290039,270.270325 269.611023,270.114380 267.817413,268.079346 
	C265.297241,265.219971 262.731689,262.400635 260.227661,259.611115 
	C273.721527,239.554581 294.529846,234.267258 311.303070,251.815887 
	C317.964203,258.785004 323.821808,258.617096 330.674561,251.913849 
	C345.505463,237.406494 360.898041,237.506897 375.616547,252.207031 
	C376.087891,252.677795 376.561829,253.146027 377.029755,253.620117 
	C383.349762,260.022858 383.461975,258.748962 376.634399,265.646088 
z"/>
<path fill="#F5B641" opacity="1.000000" stroke="none" 
	d="
M361.958557,210.821869 
	C370.363953,213.522141 376.241241,219.393890 380.638641,225.831558 
	C384.007751,230.763779 376.353851,232.364944 374.262451,235.889267 
	C373.002655,238.012192 370.987305,238.556641 368.918701,236.344360 
	C366.645844,233.913559 364.269135,231.574097 361.852753,229.284485 
	C355.952148,223.693329 350.121155,223.676254 344.242310,229.191864 
	C342.664398,230.672287 341.225861,232.306839 339.600189,233.729935 
	C328.363525,243.566452 312.946960,243.381149 301.936951,233.297928 
	C300.587372,232.061966 299.351562,230.702637 298.024841,229.440659 
	C291.930634,223.643890 286.096680,223.616287 280.052338,229.379532 
	C278.124817,231.217377 276.280914,233.142700 274.388092,235.017181 
	C273.678925,235.719467 272.751709,237.088501 272.246857,236.952698 
	C270.322784,236.435211 267.582001,235.904709 266.879700,234.507660 
	C265.246124,231.258255 257.830933,230.483414 261.786163,225.086533 
	C264.779449,221.002151 268.818268,217.465424 272.968811,214.489807 
	C284.145233,206.477234 298.654541,207.800873 308.666931,217.273392 
	C309.513306,218.074127 310.317413,218.919296 311.148987,219.735855 
	C318.215027,226.674088 323.906097,226.745483 330.885345,219.659775 
	C339.494659,210.919144 349.339203,206.800903 361.958557,210.821869 
z"/>
<path fill="#F5B641" opacity="1.000000" stroke="none" 
	d="
M102.840698,225.945831 
	C112.721176,227.930618 118.470848,235.049530 124.760849,241.410828 
	C124.992912,241.645554 125.402550,242.093552 125.350578,242.164459 
	C122.750854,245.710999 120.297821,249.402008 117.320854,252.605194 
	C116.694298,253.279343 113.733826,252.664459 112.535515,251.746796 
	C109.918938,249.742935 107.821922,247.077316 105.372292,244.835419 
	C99.843643,239.775574 94.073639,239.847626 88.509041,244.929169 
	C87.895988,245.488998 87.325249,246.095184 86.735703,246.680695 
	C78.150131,255.207504 77.358391,255.201965 69.622375,245.738449 
	C68.889526,244.841965 68.405220,242.592773 68.947289,241.977432 
	C76.147240,233.804535 83.640633,225.897751 95.532639,225.198700 
	C97.812210,225.064697 100.132835,225.628967 102.840698,225.945831 
z"/>
<path fill="#F5B641" opacity="1.000000" stroke="none" 
	d="
M411.152344,242.887665 
	C408.282349,245.455627 405.734497,247.833160 403.198120,250.222931 
	C402.351288,251.020828 401.671692,252.271698 400.680389,252.595566 
	C394.708435,254.546768 393.796814,247.838791 389.976349,245.941391 
	C389.209381,245.560501 388.866028,242.083542 389.643494,241.222519 
	C393.080353,237.416290 396.675201,233.599731 400.804169,230.601135 
	C411.521423,222.817947 425.349091,223.540176 435.363281,232.106277 
	C438.513153,234.800613 441.512482,237.747498 444.122772,240.951813 
	C444.961426,241.981293 444.338257,244.207397 444.357483,245.886337 
	C444.358856,246.004700 444.137115,246.121292 444.027252,246.245895 
	C436.005371,255.346298 436.005432,255.346390 427.337433,246.742981 
	C421.203064,240.654373 418.180176,239.884064 411.152344,242.887665 
z"/>
</svg>