<svg version="1.1" id="Layer_1" xmlns="http://www.w3.org/2000/svg" xmlns:xlink="http://www.w3.org/1999/xlink" x="0px" y="0px"
	 width="100%" viewBox="0 0 512 512" xml:space="preserve">

<path fill="#E5D9BD" opacity="1.000000" stroke="none" 
	d="
M110.047516,81.175186 
	C121.596703,66.015091 135.187866,52.990379 150.772659,42.015450 
	C169.923721,28.529129 190.796539,18.736477 213.693954,13.834311 
	C224.794952,11.457668 236.170074,9.858643 247.498306,9.160714 
	C265.740387,8.036825 283.874634,9.410073 301.734467,13.939435 
	C325.977051,20.087492 348.049805,30.641964 368.043182,45.574337 
	C380.986877,55.241566 392.214539,66.720940 402.567413,79.077095 
	C402.961823,79.547798 403.082031,80.248260 403.713837,81.341995 
	C411.278442,94.319969 419.174011,106.448669 425.474792,119.355888 
	C435.258331,139.397644 439.977844,161.052261 440.818542,183.233093 
	C441.636414,204.810928 440.979675,226.444656 440.718018,248.359131 
	C439.632690,254.732101 439.052307,260.847107 437.925415,266.859680 
	C431.087341,303.343781 414.552002,334.913025 388.822510,361.540833 
	C371.886902,379.067688 352.035522,392.561340 329.587128,402.223663 
	C308.738251,411.197479 286.967529,416.252380 264.350555,416.834045 
	C253.115112,417.123047 241.791519,416.109680 230.585205,414.942413 
	C210.338654,412.833496 191.287460,406.245056 173.338181,396.958984 
	C152.220062,386.033478 133.538879,371.814880 117.948532,353.574890 
	C97.421448,329.559143 83.522224,302.367126 77.037064,271.453003 
	C75.413704,263.714539 74.352318,255.858231 73.024567,247.583969 
	C73.010986,233.462646 73.093605,219.812683 72.976776,206.164413 
	C72.843086,190.545776 72.934486,174.971924 75.961060,159.541733 
	C79.664307,140.661713 85.484955,122.554199 95.104439,105.822731 
	C99.891968,97.495636 105.054581,89.384186 110.047516,81.175186 
M369.145660,224.827332 
	C370.637024,224.884613 372.131683,225.036118 373.619171,224.983627 
	C382.116211,224.683685 388.106201,220.398773 391.443665,212.802979 
	C394.837036,205.079971 393.390686,197.656235 387.813599,191.505829 
	C382.379059,185.512634 375.337158,183.463181 367.424072,185.760406 
	C358.771149,188.272415 353.096191,195.803802 353.000519,204.495193 
	C352.892792,214.287186 358.112915,221.125748 369.145660,224.827332 
M342.893829,315.874634 
	C342.348358,315.041107 341.822571,314.193878 341.254395,313.376129 
	C335.742981,305.443695 325.121368,302.630493 316.497009,306.811401 
	C307.453125,311.195709 302.894745,321.219940 305.715363,330.521149 
	C309.076721,341.605560 320.588379,347.695221 331.291718,344.051056 
	C342.748901,340.150238 347.723450,328.685913 342.893829,315.874634 
M256.015198,277.640137 
	C267.441528,269.734222 268.210876,253.212097 257.520935,245.302948 
	C248.969543,238.976013 237.840836,239.603424 230.707901,246.814545 
	C223.555496,254.045349 223.008255,265.163971 229.387344,273.645538 
	C235.233536,281.418579 245.912262,283.237000 256.015198,277.640137 
M148.571381,167.212753 
	C149.503479,167.557831 150.419632,167.956482 151.370178,168.239594 
	C159.623291,170.697784 168.527222,167.570755 173.297623,160.559906 
	C178.698044,152.623108 178.376953,143.658325 172.421356,136.094513 
	C167.404068,129.722382 157.616821,127.093033 149.839417,130.241241 
	C142.664917,133.145401 138.110519,138.533569 137.138504,146.192734 
	C135.977234,155.343079 139.817184,162.315536 148.571381,167.212753 
M357.652893,120.027306 
	C363.795105,109.838463 361.371857,98.362915 351.769592,92.166145 
	C342.758514,86.350899 330.808533,88.602417 324.817535,97.244217 
	C318.467712,106.403564 320.168579,118.602684 328.662537,124.821289 
	C338.308685,131.883438 349.893921,130.190292 357.652893,120.027306 
M260.955902,166.526642 
	C254.936890,174.325668 255.741898,183.260284 263.026703,189.510056 
	C269.316711,194.906357 278.903473,194.049973 284.951599,187.551529 
	C290.728241,181.344803 290.367523,171.780640 284.124146,165.612930 
	C277.658813,159.225967 268.570007,159.381897 260.955902,166.526642 
M134.233841,217.911972 
	C124.534286,215.224548 116.144043,219.668762 113.541748,228.872330 
	C111.140724,237.364059 116.264931,246.120316 125.037651,248.516556 
	C132.563522,250.572235 140.931900,246.398819 143.800781,239.159119 
	C147.154816,230.695114 143.746063,222.556625 134.233841,217.911972 
M224.996765,80.574387 
	C224.065659,72.087448 218.910721,66.221237 211.393250,65.093872 
	C204.376953,64.041672 196.952301,68.050438 194.358032,74.487503 
	C191.858551,80.689430 192.503738,86.514938 197.110092,91.596832 
	C201.671341,96.628967 207.308197,98.289001 213.773117,96.193687 
	C220.843765,93.902046 224.503769,88.811325 224.996765,80.574387 
M184.237518,323.487549 
	C183.371307,324.259918 182.458572,324.986542 181.646530,325.812164 
	C176.846054,330.693054 175.638214,337.436340 178.405807,343.717682 
	C181.007980,349.623566 187.406769,353.394623 194.137909,352.989197 
	C200.529526,352.604218 206.120941,348.298218 208.141571,342.028046 
	C210.299210,335.332703 208.674438,329.543060 203.405884,324.942444 
	C197.734344,319.989868 191.445557,319.861511 184.237518,323.487549 
M192.765610,216.075287 
	C199.113678,217.849655 204.254288,216.023514 207.365417,210.888855 
	C209.922607,206.668350 209.396255,201.264297 206.062607,197.512650 
	C202.131790,193.088943 197.149460,191.751373 192.239410,194.136337 
	C188.123657,196.135483 185.426682,199.470352 185.088303,204.153519 
	C184.698669,209.546219 187.588531,213.200485 192.765610,216.075287 
M327.506592,242.679047 
	C327.851044,241.748108 328.276367,240.838333 328.526459,239.882706 
	C329.848846,234.829926 327.590302,229.525116 322.944763,226.664658 
	C318.597656,223.987976 313.078278,224.621643 309.204468,228.242157 
	C304.958588,232.210403 303.681946,237.477905 306.297363,242.163330 
	C311.253479,251.042068 321.857330,251.222870 327.506592,242.679047 
M277.011871,100.451439 
	C271.393677,94.773880 263.618256,96.995667 259.936829,101.438835 
	C255.970200,106.226242 256.057983,112.499550 260.542084,117.101318 
	C265.224670,121.906815 271.648895,122.142944 276.558350,118.066162 
	C281.026489,114.355850 283.199463,106.575829 277.011871,100.451439 
M369.020782,276.606720 
	C369.342743,278.216248 369.389679,279.947510 370.038269,281.412445 
	C371.988434,285.817139 375.418396,288.535217 380.287872,288.920990 
	C385.272308,289.315887 388.933655,286.723694 391.394653,282.713043 
	C393.731537,278.904785 393.671112,274.687592 391.181091,270.945251 
	C388.450653,266.841553 384.545349,264.263580 379.401825,265.188385 
	C373.587769,266.233826 370.170410,269.989014 369.020782,276.606720 
M158.986542,304.811249 
	C160.083817,304.440918 161.250305,304.204346 162.266998,303.678284 
	C168.286301,300.563934 170.673370,293.302704 167.624786,287.566620 
	C164.489777,281.667877 157.050568,279.319397 151.415054,282.449402 
	C146.765991,285.031525 144.149506,290.632141 145.327835,295.479187 
	C146.747421,301.318634 151.250259,304.627228 158.986542,304.811249 
M272.315704,376.493713 
	C273.932770,369.008240 270.363800,362.933929 263.389099,361.300751 
	C257.284241,359.871277 250.663574,364.310242 249.250305,370.780426 
	C248.064484,376.209320 251.539062,382.163025 257.066223,384.173096 
	C263.180328,386.396667 268.271729,384.043640 272.315704,376.493713 
M209.193542,146.954971 
	C210.646576,151.336563 213.708984,153.500214 218.262772,152.863602 
	C222.122101,152.324081 224.431320,149.806213 224.931915,145.903168 
	C225.519501,141.321777 222.182816,137.359848 217.607880,137.030411 
	C212.501450,136.662689 209.387558,139.996567 209.193542,146.954971 
M387.038025,147.587097 
	C386.422882,148.747620 385.495819,149.846008 385.250031,151.080093 
	C384.454865,155.072205 385.711823,158.333359 389.516541,160.163330 
	C393.060791,161.868011 396.424927,161.209778 398.983063,158.290222 
	C401.700562,155.188766 401.773743,151.623917 399.440063,148.227219 
	C396.848907,144.455765 392.671295,144.105881 387.038025,147.587097 
M273.193512,58.954994 
	C274.646606,63.336521 277.708923,65.500229 282.262756,64.863594 
	C286.122101,64.324051 288.431305,61.806229 288.931854,57.903133 
	C289.519440,53.321526 286.182953,49.359875 281.607819,49.030418 
	C276.501404,48.662701 273.387482,51.996628 273.193512,58.954994 
M258.953766,328.804016 
	C263.331177,327.348328 265.503540,324.291107 264.863770,319.734894 
	C264.322327,315.878540 261.813263,313.562592 257.904236,313.067291 
	C253.318283,312.486176 249.366425,315.813019 249.030838,320.392700 
	C248.656998,325.494293 251.997803,328.614441 258.953766,328.804016 
z"/>
<path fill="#CCCCCC" opacity="1.000000" stroke="none" 
	d="
M109.580078,81.096573 
	C105.054581,89.384186 99.891968,97.495636 95.104439,105.822731 
	C85.484955,122.554199 79.664307,140.661713 75.961060,159.541733 
	C72.934486,174.971924 72.843086,190.545776 72.976776,206.164413 
	C73.093605,219.812683 73.010986,233.462646 73.024872,248.046265 
	C73.031067,264.319275 73.028862,279.657867 73.020126,295.465332 
	C73.142357,315.509338 72.146355,335.108551 75.945786,354.537933 
	C81.190147,381.356415 91.029343,406.197449 107.546463,428.037811 
	C115.131584,438.067505 123.827202,447.257385 132.019226,456.828125 
	C109.534531,456.884918 86.953232,458.256622 64.593376,456.614044 
	C43.880985,455.092468 27.735811,443.748413 17.173719,425.462494 
	C11.100901,414.948761 8.812537,403.634949 8.853831,391.344849 
	C9.133691,308.053284 9.045835,224.760284 8.952653,141.467865 
	C8.938025,128.393478 13.605148,117.042114 20.928864,106.696350 
	C31.011829,92.452744 45.414890,84.748993 62.152748,81.106026 
	C64.699501,80.551735 67.466637,81.000961 70.131844,81.001495 
	C83.125443,81.004105 96.119041,81.011963 109.580078,81.096573 
z"/>
<path fill="#CCCCCC" opacity="1.000000" stroke="none" 
	d="
M440.970459,248.053833 
	C440.979675,226.444656 441.636414,204.810928 440.818542,183.233093 
	C439.977844,161.052261 435.258331,139.397644 425.474792,119.355888 
	C419.174011,106.448669 411.278442,94.319969 404.025604,81.508804 
	C419.108337,81.117264 434.299316,80.393852 449.406433,81.214432 
	C461.226776,81.856476 471.654541,87.190582 481.130829,94.509537 
	C494.467255,104.809837 501.511414,118.594261 504.808350,134.676468 
	C505.136627,136.277863 504.993347,137.985123 504.993500,139.643250 
	C505.000793,225.434677 504.974640,311.226135 505.026886,397.017487 
	C505.034821,410.065063 500.194916,421.344055 492.783508,431.640228 
	C482.460999,445.980743 467.888245,453.547058 450.886322,456.939728 
	C449.762970,457.163879 448.560059,456.998840 447.394135,456.998627 
	C425.904694,456.994629 404.415283,456.988251 382.638794,456.633789 
	C400.424469,438.375061 415.406006,418.342010 425.647247,394.854645 
	C434.567108,374.397736 439.611176,353.048767 440.875488,330.880463 
	C441.555878,318.951111 440.979126,306.950104 440.967499,294.514343 
	C440.967072,278.716095 440.968750,263.384979 440.970459,248.053833 
z"/>
<path fill="#E5D9BD" opacity="1.000000" stroke="none" 
	d="
M440.969604,294.981415 
	C440.979126,306.950104 441.555878,318.951111 440.875488,330.880463 
	C439.611176,353.048767 434.567108,374.397736 425.647247,394.854645 
	C415.406006,418.342010 400.424469,438.375061 382.175598,456.557617 
	C368.606049,469.335083 353.616089,479.559479 337.079926,487.375153 
	C320.832855,495.054199 303.955353,501.236603 285.948364,502.863861 
	C271.017029,504.213135 255.903305,505.564331 240.999084,504.698700 
	C220.957626,503.534729 201.631378,498.175415 183.055222,490.118683 
	C168.907776,483.982758 156.054504,475.838959 143.621750,466.936829 
	C139.651993,464.094360 136.283356,460.412354 132.329453,456.971313 
	C123.827202,447.257385 115.131584,438.067505 107.546463,428.037811 
	C91.029343,406.197449 81.190147,381.356415 75.945786,354.537933 
	C72.146355,335.108551 73.142357,315.509338 73.262405,295.788910 
	C73.980896,299.419312 74.418770,303.199280 74.925179,306.970001 
	C80.266525,346.742157 97.524788,380.777069 125.183525,409.513855 
	C141.596222,426.566315 160.890060,439.755646 182.617615,449.341339 
	C216.084381,464.106171 250.983002,468.660004 286.912140,462.653290 
	C329.882263,455.469482 366.030884,435.456726 395.007904,402.610413 
	C416.409851,378.350586 430.514862,350.546417 437.018188,318.906036 
	C438.644287,310.994690 439.668671,302.959625 440.969604,294.981415 
z"/>
<path fill="#D6B58E" opacity="1.000000" stroke="none" 
	d="
M440.967468,294.514343 
	C439.668671,302.959625 438.644287,310.994690 437.018188,318.906036 
	C430.514862,350.546417 416.409851,378.350586 395.007904,402.610413 
	C366.030884,435.456726 329.882263,455.469482 286.912140,462.653290 
	C250.983002,468.660004 216.084381,464.106171 182.617615,449.341339 
	C160.890060,439.755646 141.596222,426.566315 125.183525,409.513855 
	C97.524788,380.777069 80.266525,346.742157 74.925179,306.970001 
	C74.418770,303.199280 73.980896,299.419312 73.268929,295.320068 
	C73.028862,279.657867 73.031067,264.319275 73.032959,248.518372 
	C74.352318,255.858231 75.413704,263.714539 77.037064,271.453003 
	C83.522224,302.367126 97.421448,329.559143 117.948532,353.574890 
	C133.538879,371.814880 152.220062,386.033478 173.338181,396.958984 
	C191.287460,406.245056 210.338654,412.833496 230.585205,414.942413 
	C241.791519,416.109680 253.115112,417.123047 264.350555,416.834045 
	C286.967529,416.252380 308.738251,411.197479 329.587128,402.223663 
	C352.035522,392.561340 371.886902,379.067688 388.822510,361.540833 
	C414.552002,334.913025 431.087341,303.343781 437.925415,266.859680 
	C439.052307,260.847107 439.632690,254.732101 440.718048,248.359131 
	C440.968750,263.384979 440.967072,278.716095 440.967468,294.514343 
z"/>
<path fill="#D6B58E" opacity="1.000000" stroke="none" 
	d="
M368.744751,224.711426 
	C358.112915,221.125748 352.892792,214.287186 353.000519,204.495193 
	C353.096191,195.803802 358.771149,188.272415 367.424072,185.760406 
	C375.337158,183.463181 382.379059,185.512634 387.813599,191.505829 
	C393.390686,197.656235 394.837036,205.079971 391.443665,212.802979 
	C388.106201,220.398773 382.116211,224.683685 373.619171,224.983627 
	C372.131683,225.036118 370.637024,224.884613 368.744751,224.711426 
z"/>
<path fill="#C89E84" opacity="1.000000" stroke="none" 
	d="
M343.054688,316.223114 
	C347.723450,328.685913 342.748901,340.150238 331.291718,344.051056 
	C320.588379,347.695221 309.076721,341.605560 305.715363,330.521149 
	C302.894745,321.219940 307.453125,311.195709 316.497009,306.811401 
	C325.121368,302.630493 335.742981,305.443695 341.254395,313.376129 
	C341.822571,314.193878 342.348358,315.041107 343.054688,316.223114 
z"/>
<path fill="#D6B58E" opacity="1.000000" stroke="none" 
	d="
M255.709076,277.857849 
	C245.912262,283.237000 235.233536,281.418579 229.387344,273.645538 
	C223.008255,265.163971 223.555496,254.045349 230.707901,246.814545 
	C237.840836,239.603424 248.969543,238.976013 257.520935,245.302948 
	C268.210876,253.212097 267.441528,269.734222 255.709076,277.857849 
z"/>
<path fill="#C89E84" opacity="1.000000" stroke="none" 
	d="
M148.223969,167.052841 
	C139.817184,162.315536 135.977234,155.343079 137.138504,146.192734 
	C138.110519,138.533569 142.664917,133.145401 149.839417,130.241241 
	C157.616821,127.093033 167.404068,129.722382 172.421356,136.094513 
	C178.376953,143.658325 178.698044,152.623108 173.297623,160.559906 
	C168.527222,167.570755 159.623291,170.697784 151.370178,168.239594 
	C150.419632,167.956482 149.503479,167.557831 148.223969,167.052841 
z"/>
<path fill="#C89E84" opacity="1.000000" stroke="none" 
	d="
M357.448395,120.335739 
	C349.893921,130.190292 338.308685,131.883438 328.662537,124.821289 
	C320.168579,118.602684 318.467712,106.403564 324.817535,97.244217 
	C330.808533,88.602417 342.758514,86.350899 351.769592,92.166145 
	C361.371857,98.362915 363.795105,109.838463 357.448395,120.335739 
z"/>
<path fill="#D6B58E" opacity="1.000000" stroke="none" 
	d="
M261.215210,166.264069 
	C268.570007,159.381897 277.658813,159.225967 284.124146,165.612930 
	C290.367523,171.780640 290.728241,181.344803 284.951599,187.551529 
	C278.903473,194.049973 269.316711,194.906357 263.026703,189.510056 
	C255.741898,183.260284 254.936890,174.325668 261.215210,166.264069 
z"/>
<path fill="#D6B58E" opacity="1.000000" stroke="none" 
	d="
M134.614014,218.022552 
	C143.746063,222.556625 147.154816,230.695114 143.800781,239.159119 
	C140.931900,246.398819 132.563522,250.572235 125.037651,248.516556 
	C116.264931,246.120316 111.140724,237.364059 113.541748,228.872330 
	C116.144043,219.668762 124.534286,215.224548 134.614014,218.022552 
z"/>
<path fill="#D6B58E" opacity="1.000000" stroke="none" 
	d="
M224.996765,80.996323 
	C224.503769,88.811325 220.843765,93.902046 213.773117,96.193687 
	C207.308197,98.289001 201.671341,96.628967 197.110092,91.596832 
	C192.503738,86.514938 191.858551,80.689430 194.358032,74.487503 
	C196.952301,68.050438 204.376953,64.041672 211.393250,65.093872 
	C218.910721,66.221237 224.065659,72.087448 224.996765,80.996323 
z"/>
<path fill="#C89D84" opacity="1.000000" stroke="none" 
	d="
M184.563049,323.292175 
	C191.445557,319.861511 197.734344,319.989868 203.405884,324.942444 
	C208.674438,329.543060 210.299210,335.332703 208.141571,342.028046 
	C206.120941,348.298218 200.529526,352.604218 194.137909,352.989197 
	C187.406769,353.394623 181.007980,349.623566 178.405807,343.717682 
	C175.638214,337.436340 176.846054,330.693054 181.646530,325.812164 
	C182.458572,324.986542 183.371307,324.259918 184.563049,323.292175 
z"/>
<path fill="#D6B68F" opacity="1.000000" stroke="none" 
	d="
M192.395447,215.955017 
	C187.588531,213.200485 184.698669,209.546219 185.088303,204.153519 
	C185.426682,199.470352 188.123657,196.135483 192.239410,194.136337 
	C197.149460,191.751373 202.131790,193.088943 206.062607,197.512650 
	C209.396255,201.264297 209.922607,206.668350 207.365417,210.888855 
	C204.254288,216.023514 199.113678,217.849655 192.395447,215.955017 
z"/>
<path fill="#D6B68F" opacity="1.000000" stroke="none" 
	d="
M327.293030,242.997986 
	C321.857330,251.222870 311.253479,251.042068 306.297363,242.163330 
	C303.681946,237.477905 304.958588,232.210403 309.204468,228.242157 
	C313.078278,224.621643 318.597656,223.987976 322.944763,226.664658 
	C327.590302,229.525116 329.848846,234.829926 328.526459,239.882706 
	C328.276367,240.838333 327.851044,241.748108 327.293030,242.997986 
z"/>
<path fill="#D6B68F" opacity="1.000000" stroke="none" 
	d="
M277.280640,100.720047 
	C283.199463,106.575829 281.026489,114.355850 276.558350,118.066162 
	C271.648895,122.142944 265.224670,121.906815 260.542084,117.101318 
	C256.057983,112.499550 255.970200,106.226242 259.936829,101.438835 
	C263.618256,96.995667 271.393677,94.773880 277.280640,100.720047 
z"/>
<path fill="#D6B68F" opacity="1.000000" stroke="none" 
	d="
M369.041870,276.206970 
	C370.170410,269.989014 373.587769,266.233826 379.401825,265.188385 
	C384.545349,264.263580 388.450653,266.841553 391.181091,270.945251 
	C393.671112,274.687592 393.731537,278.904785 391.394653,282.713043 
	C388.933655,286.723694 385.272308,289.315887 380.287872,288.920990 
	C375.418396,288.535217 371.988434,285.817139 370.038269,281.412445 
	C369.389679,279.947510 369.342743,278.216248 369.041870,276.206970 
z"/>
<path fill="#D6B68F" opacity="1.000000" stroke="none" 
	d="
M158.589294,304.871399 
	C151.250259,304.627228 146.747421,301.318634 145.327835,295.479187 
	C144.149506,290.632141 146.765991,285.031525 151.415054,282.449402 
	C157.050568,279.319397 164.489777,281.667877 167.624786,287.566620 
	C170.673370,293.302704 168.286301,300.563934 162.266998,303.678284 
	C161.250305,304.204346 160.083817,304.440918 158.589294,304.871399 
z"/>
<path fill="#D6B68F" opacity="1.000000" stroke="none" 
	d="
M272.195801,376.864990 
	C268.271729,384.043640 263.180328,386.396667 257.066223,384.173096 
	C251.539062,382.163025 248.064484,376.209320 249.250305,370.780426 
	C250.663574,364.310242 257.284241,359.871277 263.389099,361.300751 
	C270.363800,362.933929 273.932770,369.008240 272.195801,376.864990 
z"/>
<path fill="#D7B790" opacity="1.000000" stroke="none" 
	d="
M209.128220,146.567017 
	C209.387558,139.996567 212.501450,136.662689 217.607880,137.030411 
	C222.182816,137.359848 225.519501,141.321777 224.931915,145.903168 
	C224.431320,149.806213 222.122101,152.324081 218.262772,152.863602 
	C213.708984,153.500214 210.646576,151.336563 209.128220,146.567017 
z"/>
<path fill="#D7B790" opacity="1.000000" stroke="none" 
	d="
M387.314301,147.311432 
	C392.671295,144.105881 396.848907,144.455765 399.440063,148.227219 
	C401.773743,151.623917 401.700562,155.188766 398.983063,158.290222 
	C396.424927,161.209778 393.060791,161.868011 389.516541,160.163330 
	C385.711823,158.333359 384.454865,155.072205 385.250031,151.080093 
	C385.495819,149.846008 386.422882,148.747620 387.314301,147.311432 
z"/>
<path fill="#D7B790" opacity="1.000000" stroke="none" 
	d="
M273.128235,58.567047 
	C273.387482,51.996628 276.501404,48.662701 281.607819,49.030418 
	C286.182953,49.359875 289.519440,53.321526 288.931854,57.903133 
	C288.431305,61.806229 286.122101,64.324051 282.262756,64.863594 
	C277.708923,65.500229 274.646606,63.336521 273.128235,58.567047 
z"/>
<path fill="#D7B790" opacity="1.000000" stroke="none" 
	d="
M258.566040,328.869995 
	C251.997803,328.614441 248.656998,325.494293 249.030838,320.392700 
	C249.366425,315.813019 253.318283,312.486176 257.904236,313.067291 
	C261.813263,313.562592 264.322327,315.878540 264.863770,319.734894 
	C265.503540,324.291107 263.331177,327.348328 258.566040,328.869995 
z"/>
</svg>