<svg version="1.1" id="Layer_1" xmlns="http://www.w3.org/2000/svg" xmlns:xlink="http://www.w3.org/1999/xlink" x="0px" y="0px"
	 width="100%" viewBox="0 0 512 512" enable-background="new 0 0 512 512" xml:space="preserve">
<path fill="none" opacity="1.000000" stroke="none" 
	d="
M291.000000,513.000000 
	C194.023544,513.000000 97.547081,513.000000 1.035313,513.000000 
	C1.035313,342.398529 1.035313,171.797028 1.035313,1.097768 
	C171.559799,1.097768 342.119690,1.097768 512.839783,1.097768 
	C512.839783,171.666550 512.839783,342.333252 512.839783,513.000000 
	C439.130341,513.000000 365.315155,513.000000 291.000000,513.000000 
M116.756073,96.664452 
	C116.148705,97.419640 115.541344,98.174835 114.081329,98.997658 
	C106.739235,98.306862 99.396889,97.618721 92.055107,96.924606 
	C81.766190,95.951859 71.478851,94.962067 61.188148,94.008614 
	C58.738522,93.781647 56.382591,94.446487 57.165920,97.365913 
	C57.639454,99.130753 59.549473,101.602608 61.087124,101.819313 
	C75.336647,103.827583 89.645622,105.413918 103.626709,107.705620 
	C96.288826,115.095856 88.297356,121.953621 81.751205,129.988861 
	C68.731735,145.969955 58.135471,163.549896 50.595921,182.848984 
	C42.266682,204.169403 36.991711,226.112000 36.999199,249.140457 
	C37.001442,256.035187 36.584404,262.961182 37.100609,269.817017 
	C37.804016,279.159210 38.567799,288.582031 40.455833,297.732971 
	C45.067432,320.084564 53.411053,341.094025 65.280724,360.626556 
	C77.043427,379.983093 91.501297,397.134583 109.087723,411.391449 
	C124.862457,424.179626 142.205856,434.538971 161.164139,442.060913 
	C182.761581,450.629974 205.031265,455.889465 228.373672,455.995453 
	C235.265823,456.026733 242.192001,456.431549 249.042267,455.895020 
	C258.375458,455.164062 267.768036,454.274414 276.926514,452.421509 
	C296.042419,448.554077 314.080353,441.580902 331.322296,432.372986 
	C354.206390,420.151978 373.777039,403.879669 390.240479,384.040009 
	C403.305084,368.296112 413.600677,350.712036 421.138214,331.593445 
	C429.594360,310.144897 434.968109,288.071320 434.998718,264.880737 
	C435.008453,257.506561 435.337463,250.112442 434.902954,242.763947 
	C434.486938,235.727524 433.817322,228.615814 432.282349,221.755753 
	C429.604218,209.786469 426.176422,197.984894 423.828430,186.058441 
	C439.120514,190.668777 454.353607,195.488373 469.723267,199.823730 
	C482.184143,203.338608 481.410767,204.224075 484.927765,192.026749 
	C485.018860,191.710846 484.939575,191.332611 485.071655,191.043747 
	C487.029633,186.761719 485.043335,184.601212 481.047241,183.517624 
	C473.020447,181.341110 464.988098,179.184921 456.964935,176.995193 
	C442.353394,173.007355 427.746826,169.001175 412.822388,164.361023 
	C408.903748,157.614563 404.985138,150.868103 401.932190,144.023361 
	C407.618347,144.682816 413.302856,145.357086 418.991058,145.998398 
	C428.431519,147.062805 437.890350,147.981689 447.312134,149.190048 
	C458.804077,150.663925 470.252014,152.493866 481.760132,153.810104 
	C483.023560,153.954620 485.481445,151.943451 485.788940,150.573746 
	C486.642761,146.770401 486.970154,142.765961 486.822510,138.866852 
	C486.772644,137.549133 484.899292,135.682800 483.466156,135.173645 
	C481.057404,134.317886 478.341156,134.276917 475.741913,134.016479 
	C462.203522,132.659973 448.668610,131.260300 435.118286,130.032410 
	C418.765533,128.550583 402.398529,127.226006 385.745789,125.247032 
	C377.176422,117.009056 368.984772,108.327454 359.950592,100.635399 
	C345.825592,88.608818 329.592987,79.918709 312.511932,72.732475 
	C295.275482,65.480858 277.495850,60.261757 258.812866,59.078758 
	C244.858658,58.195175 230.740601,57.179504 216.877380,58.359379 
	C203.574692,59.491547 190.298340,62.629711 177.385300,66.230659 
	C159.769867,71.142914 143.303787,79.023834 127.200813,89.028297 
	C109.202393,84.334244 91.184273,79.713348 73.224594,74.875450 
	C70.164207,74.051056 67.989182,74.313278 67.091812,77.451508 
	C66.110687,80.882637 68.502304,82.140709 71.283539,82.941574 
	C86.500069,87.323227 101.713043,91.717216 116.756073,96.664452 
z"/>
<path fill="#955D43" opacity="1.000000" stroke="none" 
	d="
M423.062836,186.113007 
	C426.176422,197.984894 429.604218,209.786469 432.282349,221.755753 
	C433.817322,228.615814 434.486938,235.727524 434.902954,242.763947 
	C435.337463,250.112442 435.008453,257.506561 434.998718,264.880737 
	C434.968109,288.071320 429.594360,310.144897 421.138214,331.593445 
	C413.600677,350.712036 403.305084,368.296112 390.240479,384.040009 
	C373.777039,403.879669 354.206390,420.151978 331.322296,432.372986 
	C314.080353,441.580902 296.042419,448.554077 276.926514,452.421509 
	C267.768036,454.274414 258.375458,455.164062 249.042267,455.895020 
	C242.192001,456.431549 235.265823,456.026733 228.373672,455.995453 
	C205.031265,455.889465 182.761581,450.629974 161.164139,442.060913 
	C142.205856,434.538971 124.862457,424.179626 109.087723,411.391449 
	C91.501297,397.134583 77.043427,379.983093 65.280724,360.626556 
	C53.411053,341.094025 45.067432,320.084564 40.455833,297.732971 
	C38.567799,288.582031 37.804016,279.159210 37.100609,269.817017 
	C36.584404,262.961182 37.001442,256.035187 36.999199,249.140457 
	C36.991711,226.112000 42.266682,204.169403 50.595921,182.848984 
	C58.135471,163.549896 68.731735,145.969955 81.751205,129.988861 
	C88.297356,121.953621 96.288826,115.095856 104.229797,107.373901 
	C113.226280,108.034286 121.619675,109.026398 129.802933,110.249153 
	C128.384506,111.615028 127.176208,112.750259 125.637482,113.985275 
	C120.175835,118.700981 115.044632,123.316910 109.638290,128.117065 
	C104.126389,134.047104 98.204468,139.316422 93.804024,145.643860 
	C86.066521,156.769669 79.259476,168.542587 71.909523,180.366898 
	C69.116135,188.441208 66.475998,196.193115 63.608604,204.216919 
	C62.622662,206.495148 61.636150,208.446991 61.141102,210.516418 
	C56.928898,228.124542 54.379761,245.930466 55.077538,264.537170 
	C56.748711,276.294403 58.440144,287.613678 60.169849,299.312439 
	C70.725540,340.778503 92.404068,374.656250 126.097420,400.510010 
	C159.060440,425.803375 196.628006,437.750214 238.522736,437.890991 
	C248.634796,436.934296 258.292084,435.947998 268.340942,434.902405 
	C270.022949,434.559509 271.311676,434.267975 272.604034,433.993530 
	C293.821747,429.487518 313.825317,421.988068 332.319855,409.862793 
	C339.783569,404.544220 346.903839,399.282379 354.309296,393.850586 
	C360.028564,388.317169 365.920074,383.334290 370.779388,377.492737 
	C376.670654,370.410645 381.690002,362.603210 387.367249,354.920959 
	C390.808167,349.168243 393.968475,343.604218 397.357422,337.789307 
	C408.634033,316.381561 414.600861,293.835327 416.252808,269.694031 
	C416.265381,258.916992 416.064484,248.496872 415.828735,237.665375 
	C412.290039,222.638596 408.936401,207.984619 405.198730,193.429260 
	C403.933136,188.500656 401.696564,183.821381 400.300476,179.036682 
	C408.152435,181.401123 415.607635,183.757065 423.062836,186.113007 
z"/>
<path fill="#E63F46" opacity="1.000000" stroke="none" 
	d="
M130.013062,110.018509 
	C121.619675,109.026398 113.226280,108.034286 104.385117,107.082474 
	C89.645622,105.413918 75.336647,103.827583 61.087124,101.819313 
	C59.549473,101.602608 57.639454,99.130753 57.165920,97.365913 
	C56.382591,94.446487 58.738522,93.781647 61.188148,94.008614 
	C71.478851,94.962067 81.766190,95.951859 92.055107,96.924606 
	C99.396889,97.618721 106.739235,98.306862 114.858246,99.177826 
	C121.750816,99.891273 127.866486,100.424538 134.319550,101.197372 
	C143.987137,102.290123 153.313919,103.183395 162.648636,103.983879 
	C170.180832,104.629791 177.722610,105.163734 185.663818,105.789902 
	C191.727966,106.483383 197.388443,107.134331 203.477066,107.855667 
	C217.584564,109.249168 231.263947,110.572273 245.365982,111.963150 
	C251.902390,112.685432 258.012390,113.377739 264.130585,113.987396 
	C282.815552,115.849236 301.500641,117.710716 320.191620,119.510490 
	C332.426697,120.688622 344.672119,121.759460 357.338867,122.938324 
	C367.189117,123.943321 376.613403,124.888336 386.037689,125.833359 
	C402.398529,127.226006 418.765533,128.550583 435.118286,130.032410 
	C448.668610,131.260300 462.203522,132.659973 475.741913,134.016479 
	C478.341156,134.276917 481.057404,134.317886 483.466156,135.173645 
	C484.899292,135.682800 486.772644,137.549133 486.822510,138.866852 
	C486.970154,142.765961 486.642761,146.770401 485.788940,150.573746 
	C485.481445,151.943451 483.023560,153.954620 481.760132,153.810104 
	C470.252014,152.493866 458.804077,150.663925 447.312134,149.190048 
	C437.890350,147.981689 428.431519,147.062805 418.991058,145.998398 
	C413.302856,145.357086 407.618347,144.682816 401.141418,143.897827 
	C391.571991,142.550201 382.793335,141.328125 373.605286,140.026245 
	C347.454773,136.749100 321.713715,133.551743 295.646515,130.280823 
	C294.875732,130.197922 294.431122,130.188614 293.743652,130.137390 
	C293.500854,130.095490 293.008881,130.124207 292.603394,130.041000 
	C285.837097,129.323044 279.476288,128.688309 272.709625,128.030914 
	C270.122772,127.343651 267.983154,126.341148 265.754150,126.068184 
	C248.875031,124.001137 231.985992,122.008003 215.082764,120.148941 
	C209.744293,119.561813 204.353256,119.452751 198.654984,119.083458 
	C197.883499,118.976112 197.443298,118.910202 196.821228,118.681061 
	C196.368622,118.320389 196.067886,118.194672 195.327789,118.125854 
	C186.084061,116.871880 177.264664,115.510757 168.411743,114.422539 
	C155.624939,112.850754 142.813812,111.476852 130.013062,110.018509 
z"/>
<path fill="#955D43" opacity="1.000000" stroke="none" 
	d="
M385.891724,125.540192 
	C376.613403,124.888336 367.189117,123.943321 357.172821,122.663620 
	C354.090637,120.142456 351.699768,117.829231 349.095276,115.788635 
	C314.277069,88.508682 274.621307,75.464493 230.512207,76.143066 
	C222.661819,76.263840 214.837387,78.070267 206.564545,79.069984 
	C197.738693,81.017891 189.349258,82.994141 180.594208,85.042343 
	C171.134460,88.762985 162.040329,92.411674 152.540482,96.054337 
	C144.090210,93.754311 136.045654,91.460312 128.001099,89.166313 
	C143.303787,79.023834 159.769867,71.142914 177.385300,66.230659 
	C190.298340,62.629711 203.574692,59.491547 216.877380,58.359379 
	C230.740601,57.179504 244.858658,58.195175 258.812866,59.078758 
	C277.495850,60.261757 295.275482,65.480858 312.511932,72.732475 
	C329.592987,79.918709 345.825592,88.608818 359.950592,100.635399 
	C368.984772,108.327454 377.176422,117.009056 385.891724,125.540192 
z"/>
<path fill="#CB3745" opacity="1.000000" stroke="none" 
	d="
M198.986267,119.124893 
	C204.353256,119.452751 209.744293,119.561813 215.082764,120.148941 
	C231.985992,122.008003 248.875031,124.001137 265.754150,126.068184 
	C267.983154,126.341148 270.122772,127.343651 272.933319,128.308273 
	C289.376526,132.779297 305.190186,136.950317 321.302979,141.333130 
	C326.079254,142.747421 330.549438,143.976486 335.034729,145.147766 
	C352.657532,149.749802 370.285095,154.333633 388.260498,159.085663 
	C396.786133,161.165634 404.962158,163.084137 413.138184,165.002655 
	C427.746826,169.001175 442.353394,173.007355 456.964935,176.995193 
	C464.988098,179.184921 473.020447,181.341110 481.047241,183.517624 
	C485.043335,184.601212 487.029633,186.761719 485.071655,191.043747 
	C484.939575,191.332611 485.018860,191.710846 484.927765,192.026749 
	C481.410767,204.224075 482.184143,203.338608 469.723267,199.823730 
	C454.353607,195.488373 439.120514,190.668777 423.445618,186.085724 
	C415.607635,183.757065 408.152435,181.401123 399.985657,178.863403 
	C388.169220,175.482315 377.064331,172.283020 365.606201,168.976364 
	C348.171967,163.821030 331.090973,158.773041 313.718170,153.526184 
	C285.882996,145.212128 258.327576,137.137375 230.802292,128.961319 
	C220.161850,125.800713 209.589584,122.410507 198.986267,119.124893 
z"/>
<path fill="#CB3745" opacity="1.000000" stroke="none" 
	d="
M127.600952,89.097305 
	C136.045654,91.460312 144.090210,93.754311 152.826172,96.281403 
	C155.245392,97.049469 156.964905,97.613281 158.702454,98.114548 
	C167.552444,100.667725 176.407120,103.204712 185.260147,105.747360 
	C177.722610,105.163734 170.180832,104.629791 162.648636,103.983879 
	C153.313919,103.183395 143.987137,102.290123 134.037735,100.977676 
	C127.921432,99.047935 122.424332,97.577454 116.927238,96.106979 
	C101.713043,91.717216 86.500069,87.323227 71.283539,82.941574 
	C68.502304,82.140709 66.110687,80.882637 67.091812,77.451508 
	C67.989182,74.313278 70.164207,74.051056 73.224594,74.875450 
	C91.184273,79.713348 109.202393,84.334244 127.600952,89.097305 
z"/>
<path fill="#955D43" opacity="1.000000" stroke="none" 
	d="
M412.980286,164.681839 
	C404.962158,163.084137 396.786133,161.165634 388.102295,158.801025 
	C383.067871,152.271973 378.541290,146.189011 374.014709,140.106033 
	C382.793335,141.328125 391.571991,142.550201 400.708557,143.946960 
	C404.985138,150.868103 408.903748,157.614563 412.980286,164.681839 
z"/>
<path fill="#955D43" opacity="1.000000" stroke="none" 
	d="
M116.841660,96.385712 
	C122.424332,97.577454 127.921432,99.047935 133.700348,100.738113 
	C127.866486,100.424538 121.750816,99.891273 115.284569,99.144012 
	C115.541344,98.174835 116.148705,97.419640 116.841660,96.385712 
z"/>
<path fill="#844B28" opacity="1.000000" stroke="none" 
	d="
M198.654984,119.083466 
	C209.589584,122.410507 220.161850,125.800713 230.802292,128.961319 
	C258.327576,137.137375 285.882996,145.212128 313.870178,153.847946 
	C320.796936,160.788559 328.272614,166.487961 333.561584,173.774582 
	C345.544281,190.283218 356.883820,207.303223 367.677368,224.618652 
	C379.851562,244.148941 395.526794,259.580231 416.039368,270.050934 
	C414.600861,293.835327 408.634033,316.381561 397.046753,337.619873 
	C390.322662,333.275269 384.154846,328.825287 377.946655,324.432343 
	C374.376495,321.906128 370.740936,319.472351 367.128784,316.628632 
	C371.905762,298.091248 382.218262,284.488068 399.458160,276.304169 
	C401.457489,275.355042 403.848572,272.281586 403.650146,270.454529 
	C403.437836,268.499512 400.668518,265.959229 398.498871,265.246735 
	C392.731598,263.352814 386.707275,261.271759 380.747040,261.151123 
	C370.501678,260.943756 361.359924,258.854767 352.665344,253.105469 
	C343.257629,246.884567 332.734894,246.503906 321.863098,250.301605 
	C321.428192,250.219009 321.251801,250.200485 320.910339,249.886200 
	C319.438568,248.370651 318.131927,247.150879 316.864258,245.546677 
	C318.580322,240.101837 320.257385,235.041412 322.130035,229.698456 
	C326.987732,224.337219 331.428833,219.027710 336.397614,214.269241 
	C339.227570,211.559097 343.119629,209.987579 346.149353,207.445587 
	C348.021973,205.874435 350.521606,203.264938 350.281403,201.446274 
	C350.023529,199.494019 347.108124,196.806839 344.966614,196.381149 
	C336.592834,194.716644 328.054962,193.895309 319.601715,192.605621 
	C315.279266,191.946152 310.897430,191.307159 306.747772,190.004776 
	C303.642578,189.030228 300.915222,186.906570 297.933563,185.473633 
	C288.514954,180.947205 278.883606,180.370239 268.699890,184.141693 
	C260.839142,186.773682 253.349960,189.431885 244.630692,192.526688 
	C245.446732,187.962204 245.956268,185.112183 246.638275,181.956238 
	C248.077011,178.962326 248.809448,175.794647 250.711502,173.677994 
	C256.014923,167.776291 261.932251,162.429764 267.326630,156.604279 
	C269.097412,154.692001 271.556580,151.379318 270.934845,149.787323 
	C270.091858,147.628815 266.660675,145.310593 264.211334,145.160843 
	C255.497437,144.628082 246.727585,145.087814 237.982056,144.959030 
	C234.110001,144.902008 230.176620,144.672150 226.398560,143.898361 
	C223.195053,143.242264 220.206024,141.597214 217.067764,140.553085 
	C207.870529,137.493073 198.826508,137.806412 189.722870,142.027527 
	C189.175400,142.291534 188.913467,142.546051 188.489349,142.847656 
	C188.327164,142.894730 188.064133,143.106613 187.704468,143.100677 
	C178.892029,147.063507 170.439255,151.032242 161.621185,155.014221 
	C159.838516,155.323349 158.421127,155.619263 156.934021,155.580811 
	C146.565491,141.459457 136.266693,127.672485 125.967911,113.885498 
	C127.176208,112.750259 128.384506,111.615028 129.802933,110.249153 
	C142.813812,111.476852 155.624939,112.850754 168.411743,114.422539 
	C177.264664,115.510757 186.084061,116.871880 195.506958,118.298492 
	C196.365036,118.689003 196.667572,118.808449 197.003098,118.844284 
	C197.443298,118.910202 197.883499,118.976112 198.654984,119.083466 
z"/>
<path fill="#834A27" opacity="1.000000" stroke="none" 
	d="
M238.067978,437.861389 
	C196.628006,437.750214 159.060440,425.803375 126.097420,400.510010 
	C92.404068,374.656250 70.725540,340.778503 60.494362,299.403442 
	C62.708351,300.406860 64.686150,301.630554 66.555771,303.001740 
	C79.371857,312.400970 93.298424,319.128021 109.585686,321.070923 
	C112.345543,324.315826 114.663002,327.926514 119.621361,324.030975 
	C135.244507,327.165558 148.774261,333.881714 160.997620,343.414459 
	C162.082260,344.260376 163.686371,344.440216 165.320450,345.145233 
	C166.476212,347.123016 167.242676,348.957672 168.272614,350.630096 
	C169.863541,353.213501 170.930222,356.552399 175.080719,356.471802 
	C185.827881,372.780731 196.668671,388.652161 207.111115,404.781464 
	C213.672028,414.915405 221.318619,423.924896 230.834747,431.368347 
	C233.380936,433.359955 235.664078,435.687866 238.067978,437.861389 
z"/>
<path fill="#6E3D1E" opacity="1.000000" stroke="none" 
	d="
M416.252808,269.694031 
	C395.526794,259.580231 379.851562,244.148941 367.677368,224.618652 
	C356.883820,207.303223 345.544281,190.283218 333.561584,173.774582 
	C328.272614,166.487961 320.796936,160.788559 314.161987,154.046814 
	C331.090973,158.773041 348.171967,163.821030 365.686646,169.306686 
	C371.669983,177.994080 377.360504,186.153427 382.727539,194.520309 
	C387.566040,202.063278 391.452118,210.289490 396.855316,217.378113 
	C402.510162,224.796906 409.472656,231.218994 415.863586,238.076752 
	C416.064484,248.496872 416.265381,258.916992 416.252808,269.694031 
z"/>
<path fill="#834A28" opacity="1.000000" stroke="none" 
	d="
M72.062775,180.044510 
	C79.259476,168.542587 86.066521,156.769669 93.804024,145.643860 
	C98.204468,139.316422 104.126389,134.047104 109.803467,128.429138 
	C115.341103,136.306000 120.100098,144.308502 125.651276,151.717484 
	C129.537292,156.904007 134.505432,161.279755 138.876511,166.334686 
	C135.172607,171.121460 131.582458,175.591141 127.652191,180.143372 
	C124.813972,181.483963 122.288200,182.690247 119.822960,184.009628 
	C112.228714,188.074020 107.207008,193.992126 106.553825,202.915970 
	C106.181824,207.998154 105.940079,213.089874 105.283058,218.048340 
	C103.660698,217.139252 102.097084,216.614014 101.176659,215.538406 
	C94.188148,207.371613 87.285957,199.129761 80.442345,190.840729 
	C77.543304,187.329391 74.849731,183.648392 72.062775,180.044510 
z"/>
<path fill="#834A28" opacity="1.000000" stroke="none" 
	d="
M55.097805,264.099213 
	C54.379761,245.930466 56.928898,228.124542 61.141102,210.516418 
	C61.636150,208.446991 62.622662,206.495148 63.919262,204.386780 
	C71.408501,211.793884 78.156654,219.507095 85.402756,226.720093 
	C88.688446,229.990784 92.961906,232.269165 96.795029,235.413696 
	C94.536980,245.637894 96.251022,255.089172 100.501122,263.874725 
	C105.724373,274.671967 107.537468,285.501862 103.331505,297.004456 
	C94.321396,292.494995 85.145020,288.782104 77.178406,283.308441 
	C69.189949,277.819763 62.408356,270.574554 55.097805,264.099213 
z"/>
<path fill="#834A28" opacity="1.000000" stroke="none" 
	d="
M331.976410,409.919495 
	C313.825317,421.988068 293.821747,429.487518 272.604034,433.993530 
	C271.311676,434.267975 270.022949,434.559509 268.113586,434.662720 
	C261.303040,430.305267 254.810272,426.502228 249.013321,421.834991 
	C244.210083,417.967743 240.227295,413.081512 236.066040,408.372131 
	C242.847885,405.111664 249.223648,401.406250 256.089722,399.296661 
	C268.578796,395.459442 281.359161,392.570160 294.229248,389.529175 
	C298.369812,392.221771 302.165649,394.925598 306.256287,397.066101 
	C314.746796,401.508942 323.393768,405.652740 331.976410,409.919495 
z"/>
<path fill="#6F3E1F" opacity="1.000000" stroke="none" 
	d="
M235.881012,408.646759 
	C240.227295,413.081512 244.210083,417.967743 249.013321,421.834991 
	C254.810272,426.502228 261.303040,430.305267 267.722015,434.722046 
	C258.292084,435.947998 248.634796,436.934296 238.522736,437.890991 
	C235.664078,435.687866 233.380936,433.359955 230.834747,431.368347 
	C221.318619,423.924896 213.672028,414.915405 207.111115,404.781464 
	C196.668671,388.652161 185.827881,372.780731 175.374237,356.297668 
	C177.527222,354.252930 179.405289,352.633026 181.406860,351.183716 
	C186.580170,347.437683 191.808014,343.766998 197.186615,340.350525 
	C204.954300,350.165588 211.357605,360.330780 214.743073,372.206177 
	C215.244278,373.964264 216.769623,375.430359 217.845856,377.405212 
	C216.753662,380.894287 215.782486,384.071472 214.492920,387.113739 
	C210.391495,396.789612 211.594772,405.870148 217.124649,414.626526 
	C219.737350,418.763611 221.502884,419.293823 225.544022,416.417480 
	C229.054764,413.918671 232.440201,411.243805 235.881012,408.646759 
z"/>
<path fill="#834A28" opacity="1.000000" stroke="none" 
	d="
M387.086639,355.109619 
	C381.690002,362.603210 376.670654,370.410645 370.779388,377.492737 
	C365.920074,383.334290 360.028564,388.317169 354.207825,393.519043 
	C353.110321,392.691498 352.511322,391.781372 351.671600,391.396667 
	C341.698730,386.827728 331.689941,382.337158 321.890778,377.546387 
	C324.413513,375.682678 326.780334,374.159332 329.051178,372.504303 
	C340.907379,363.863434 349.341827,352.284912 357.251709,340.018921 
	C367.436951,345.092194 377.261780,350.100922 387.086639,355.109619 
z"/>
<path fill="#6E3D1F" opacity="1.000000" stroke="none" 
	d="
M55.077545,264.537170 
	C62.408356,270.574554 69.189949,277.819763 77.178406,283.308441 
	C85.145020,288.782104 94.321396,292.494995 103.370636,297.411133 
	C101.426048,306.535065 104.420288,313.947235 109.302391,320.906921 
	C93.298424,319.128021 79.371857,312.400970 66.555771,303.001740 
	C64.686150,301.630554 62.708351,300.406860 60.456093,299.023926 
	C58.440144,287.613678 56.748711,276.294403 55.077545,264.537170 
z"/>
<path fill="#834A27" opacity="1.000000" stroke="none" 
	d="
M415.828735,237.665359 
	C409.472656,231.218994 402.510162,224.796906 396.855316,217.378113 
	C391.452118,210.289490 387.566040,202.063278 382.727539,194.520309 
	C377.360504,186.153427 371.669983,177.994080 366.039886,169.414032 
	C377.064331,172.283020 388.169220,175.482315 399.588928,178.854889 
	C401.696564,183.821381 403.933136,188.500656 405.198730,193.429260 
	C408.936401,207.984619 412.290039,222.638596 415.828735,237.665359 
z"/>
<path fill="#6E3D1F" opacity="1.000000" stroke="none" 
	d="
M138.990280,166.017609 
	C134.505432,161.279755 129.537292,156.904007 125.651276,151.717484 
	C120.100098,144.308502 115.341103,136.306000 110.078613,128.244904 
	C115.044632,123.316910 120.175835,118.700981 125.637482,113.985275 
	C136.266693,127.672485 146.565491,141.459457 156.625183,155.783340 
	C150.301346,158.467957 144.036026,160.304642 139.695038,165.879730 
	C139.454407,165.888931 138.990280,166.017609 138.990280,166.017609 
z"/>
<path fill="#6F3E1F" opacity="1.000000" stroke="none" 
	d="
M321.690582,377.826019 
	C331.689941,382.337158 341.698730,386.827728 351.671600,391.396667 
	C352.511322,391.781372 353.110321,392.691498 353.922638,393.689056 
	C346.903839,399.282379 339.783569,404.544220 332.319855,409.862793 
	C323.393768,405.652740 314.746796,401.508942 306.256287,397.066101 
	C302.165649,394.925598 298.369812,392.221771 294.582642,389.384583 
	C303.713379,385.272736 312.701965,381.549377 321.690582,377.826019 
z"/>
<path fill="#6E3D1F" opacity="1.000000" stroke="none" 
	d="
M96.787277,234.997696 
	C92.961906,232.269165 88.688446,229.990784 85.402756,226.720093 
	C78.156654,219.507095 71.408501,211.793884 64.146515,204.114899 
	C66.475998,196.193115 69.116135,188.441208 71.909523,180.366898 
	C74.849731,183.648392 77.543304,187.329391 80.442345,190.840729 
	C87.285957,199.129761 94.188148,207.371613 101.176659,215.538406 
	C102.097084,216.614014 103.660698,217.139252 105.254929,218.431839 
	C102.651382,224.295425 99.719330,229.646561 96.787277,234.997696 
z"/>
<path fill="#6F3E1F" opacity="1.000000" stroke="none" 
	d="
M387.367249,354.920959 
	C377.261780,350.100922 367.436951,345.092194 357.310730,339.661011 
	C360.384521,331.824677 363.759674,324.410828 367.134796,316.996948 
	C370.740936,319.472351 374.376495,321.906128 377.946655,324.432343 
	C384.154846,328.825287 390.322662,333.275269 396.818085,337.870728 
	C393.968475,343.604218 390.808167,349.168243 387.367249,354.920959 
z"/>
<path fill="#834A27" opacity="1.000000" stroke="none" 
	d="
M207.000961,79.098328 
	C214.837387,78.070267 222.661819,76.263840 230.512207,76.143066 
	C274.621307,75.464493 314.277069,88.508682 349.095276,115.788635 
	C351.699768,117.829231 354.090637,120.142456 356.746857,122.603638 
	C344.672119,121.759460 332.426697,120.688622 320.191620,119.510490 
	C301.500641,117.710716 282.815552,115.849236 264.130585,113.987396 
	C258.012390,113.377739 251.902390,112.685432 245.183319,111.690720 
	C237.328949,106.196327 229.702560,101.486809 222.945435,95.752922 
	C217.116791,90.806931 212.277588,84.694878 207.000961,79.098328 
z"/>
<path fill="#6F3D1E" opacity="1.000000" stroke="none" 
	d="
M206.564545,79.069992 
	C212.277588,84.694878 217.116791,90.806931 222.945435,95.752922 
	C229.702560,101.486809 237.328949,106.196327 244.760651,111.622940 
	C231.263947,110.572273 217.584564,109.249168 203.384003,107.542404 
	C195.561798,99.762627 188.260818,92.366508 180.959839,84.970398 
	C189.349258,82.994141 197.738693,81.017891 206.564545,79.069992 
z"/>
<path fill="#854A28" opacity="1.000000" stroke="none" 
	d="
M373.605286,140.026245 
	C378.541290,146.189011 383.067871,152.271973 387.752686,158.639572 
	C370.285095,154.333633 352.657532,149.749802 335.034729,145.147766 
	C330.549438,143.976486 326.079254,142.747421 321.071198,141.060440 
	C318.589355,139.694550 316.662354,138.754791 314.683044,137.942535 
	C308.456787,135.387405 302.210938,132.880173 295.972656,130.354401 
	C321.713715,133.551743 347.454773,136.749100 373.605286,140.026245 
z"/>
<path fill="#834A27" opacity="1.000000" stroke="none" 
	d="
M180.594208,85.042343 
	C188.260818,92.366508 195.561798,99.762627 202.955872,107.472008 
	C197.388443,107.134331 191.727966,106.483383 185.663818,105.789902 
	C176.407120,103.204712 167.552444,100.667725 158.702454,98.114548 
	C156.964905,97.613281 155.245392,97.049469 153.231873,96.287437 
	C162.040329,92.411674 171.134460,88.762985 180.594208,85.042343 
z"/>
<path fill="#753D21" opacity="1.000000" stroke="none" 
	d="
M295.646515,130.280823 
	C302.210938,132.880173 308.456787,135.387405 314.683044,137.942535 
	C316.662354,138.754791 318.589355,139.694550 320.772095,140.848663 
	C305.190186,136.950317 289.376526,132.779297 273.339142,128.330933 
	C279.476288,128.688309 285.837097,129.323044 292.708527,130.134705 
	C293.219116,130.311630 293.621033,130.374374 293.621033,130.374374 
	C293.621033,130.374374 293.986481,130.179306 293.986481,130.179306 
	C294.431122,130.188614 294.875732,130.197922 295.646515,130.280823 
z"/>
<path fill="#CB3745" opacity="1.000000" stroke="none" 
	d="
M196.821228,118.681061 
	C196.667572,118.808449 196.365036,118.689003 195.916321,118.313301 
	C196.067886,118.194672 196.368622,118.320389 196.821228,118.681061 
z"/>
<path fill="#854A28" opacity="1.000000" stroke="none" 
	d="
M293.743652,130.137390 
	C293.986481,130.179306 293.621033,130.374374 293.621033,130.374374 
	C293.621033,130.374374 293.219116,130.311630 293.114014,130.217926 
	C293.008881,130.124207 293.500854,130.095490 293.743652,130.137390 
z"/>
<path fill="#EAEAE9" opacity="1.000000" stroke="none" 
	d="
M367.128784,316.628632 
	C363.759674,324.410828 360.384521,331.824677 356.950378,339.596466 
	C349.341827,352.284912 340.907379,363.863434 329.051178,372.504303 
	C326.780334,374.159332 324.413513,375.682678 321.890778,377.546387 
	C312.701965,381.549377 303.713379,385.272736 294.371399,389.140717 
	C281.359161,392.570160 268.578796,395.459442 256.089722,399.296661 
	C249.223648,401.406250 242.847885,405.111664 236.066025,408.372131 
	C232.440201,411.243805 229.054764,413.918671 225.544022,416.417480 
	C221.502884,419.293823 219.737350,418.763611 217.124649,414.626526 
	C211.594772,405.870148 210.391495,396.789612 214.492920,387.113739 
	C215.782486,384.071472 216.753662,380.894287 218.014877,377.019470 
	C218.233795,372.003479 219.065125,367.592041 218.232239,363.521088 
	C216.234512,353.756622 214.145096,344.071320 215.175781,333.739685 
	C217.672165,328.752533 219.019577,323.215302 222.394714,319.540436 
	C227.243149,314.261353 230.348602,308.886688 231.214584,301.719940 
	C232.906342,287.719025 242.156219,276.433044 260.602234,278.439240 
	C262.593170,278.655762 265.332275,276.953583 266.846649,275.325195 
	C268.707123,273.324707 269.244507,270.107056 271.076782,268.063873 
	C273.729187,265.106140 276.651703,261.929016 280.137726,260.282227 
	C286.278290,257.381439 292.972473,257.154175 299.594666,259.389374 
	C307.552399,262.075378 320.206024,256.994751 322.121643,250.365677 
	C332.734894,246.503906 343.257629,246.884567 352.665344,253.105469 
	C361.359924,258.854767 370.501678,260.943756 380.747040,261.151123 
	C386.707275,261.271759 392.731598,263.352814 398.498871,265.246735 
	C400.668518,265.959229 403.437836,268.499512 403.650146,270.454529 
	C403.848572,272.281586 401.457489,275.355042 399.458160,276.304169 
	C382.218262,284.488068 371.905762,298.091248 367.128784,316.628632 
M230.069580,359.132050 
	C234.658035,360.100555 235.868103,357.426147 236.645599,353.307343 
	C232.624146,353.469971 230.500778,354.956268 230.069580,359.132050 
M283.531677,271.363495 
	C283.814178,273.567963 284.096680,275.772461 284.379181,277.976929 
	C285.177765,277.943115 285.976318,277.909302 286.774902,277.875488 
	C286.847290,275.512390 286.919647,273.149323 286.992004,270.786255 
	C285.939331,270.755371 284.886658,270.724518 283.531677,271.363495 
M247.286804,292.976074 
	C246.746399,293.882721 245.643921,295.509918 245.747665,295.590851 
	C248.452957,297.701202 251.080383,297.578674 254.656723,294.140564 
	C251.757477,293.582764 249.866104,293.218872 247.286804,292.976074 
M267.579590,305.627289 
	C270.051086,309.871582 272.877228,308.391876 276.323914,306.195343 
	C273.508942,303.471558 270.925537,303.181152 267.579590,305.627289 
M305.215729,276.114258 
	C305.539673,277.084503 305.977539,278.921326 306.170593,278.895905 
	C309.417480,278.469025 311.241486,276.672424 311.400482,271.686951 
	C308.823059,273.379242 307.236176,274.421143 305.215729,276.114258 
M242.102661,331.128357 
	C240.284515,331.534576 238.466370,331.940765 236.648239,332.346985 
	C236.747925,332.994751 236.847626,333.642487 236.947327,334.290222 
	C239.634720,334.290222 242.322113,334.290222 245.009506,334.290222 
	C245.061050,333.847504 245.112579,333.404785 245.164124,332.962067 
	C244.393478,332.430206 243.622833,331.898346 242.102661,331.128357 
z"/>
<path fill="#EAE9E9" opacity="1.000000" stroke="none" 
	d="
M197.014069,340.066223 
	C191.808014,343.766998 186.580170,347.437683 181.406860,351.183716 
	C179.405289,352.633026 177.527222,354.252930 175.299377,355.969238 
	C170.930222,356.552399 169.863541,353.213501 168.272614,350.630096 
	C167.242676,348.957672 166.476212,347.123016 165.286758,344.727539 
	C164.648285,340.331360 163.659821,336.482574 164.140457,332.826996 
	C164.799591,327.813599 166.573059,322.946686 168.061203,317.670410 
	C171.076797,308.905884 169.263275,300.921936 165.985901,292.655365 
	C165.527847,289.619019 164.949280,287.016937 164.628677,284.383423 
	C163.317429,273.612671 164.530731,263.838959 172.658569,255.298584 
	C176.022171,251.764282 177.152267,245.978210 178.886993,241.070862 
	C179.811935,238.454285 179.679871,235.484543 180.337173,232.749237 
	C182.695435,222.935303 193.728928,213.092621 202.760757,214.600769 
	C210.923370,215.963776 214.276398,212.383789 216.474060,205.965607 
	C219.006821,198.568680 224.588593,195.071106 231.772430,194.217697 
	C236.429886,193.664383 241.320938,193.827957 245.954285,194.594879 
	C254.273331,195.971909 264.736084,191.569931 269.071503,184.167908 
	C278.883606,180.370239 288.514954,180.947205 297.933563,185.473633 
	C300.915222,186.906570 303.642578,189.030228 306.747772,190.004776 
	C310.897430,191.307159 315.279266,191.946152 319.601715,192.605621 
	C328.054962,193.895309 336.592834,194.716644 344.966614,196.381149 
	C347.108124,196.806839 350.023529,199.494019 350.281403,201.446274 
	C350.521606,203.264938 348.021973,205.874435 346.149353,207.445587 
	C343.119629,209.987579 339.227570,211.559097 336.397614,214.269241 
	C331.428833,219.027710 326.987732,224.337219 321.665771,229.701202 
	C310.919006,230.643250 300.620239,230.233124 290.790405,232.184753 
	C271.853699,235.944489 256.352386,244.819458 246.959808,263.227051 
	C242.868683,271.244934 235.724808,277.926239 229.185638,284.428406 
	C215.072052,298.462158 206.928452,314.470642 209.614441,335.037109 
	C205.182693,336.809113 201.098389,338.437683 197.014069,340.066223 
M203.529877,230.132675 
	C204.643188,228.595230 205.756485,227.057785 206.869797,225.520340 
	C206.321030,225.011871 205.772263,224.503418 205.223495,223.994949 
	C203.512299,225.411377 201.170883,226.504517 200.239197,228.320801 
	C198.876465,230.977371 200.617996,231.454544 203.529877,230.132675 
M194.729843,277.704895 
	C198.329254,274.851685 197.552078,272.101013 194.563248,268.791626 
	C192.249969,271.937653 191.995529,274.581604 194.729843,277.704895 
M236.336929,217.284027 
	C231.587952,216.111862 230.608002,219.076508 229.502884,223.017456 
	C233.764633,222.937042 235.832642,221.305176 236.336929,217.284027 
M221.836700,242.383545 
	C220.865753,242.019363 219.166855,241.166214 219.033539,241.364655 
	C217.167526,244.142685 217.455490,246.718002 220.980988,249.964645 
	C221.429504,247.000580 221.722977,245.061050 221.836700,242.383545 
M193.741333,256.929749 
	C195.565338,256.471832 197.389328,256.013885 199.213333,255.555939 
	C199.154694,254.889328 199.096054,254.222733 199.037415,253.556122 
	C197.111877,253.326492 195.173050,252.864502 193.266937,252.973679 
	C192.422928,253.022018 191.645142,254.226379 190.837311,254.905960 
	C191.548813,255.514374 192.260315,256.122772 193.741333,256.929749 
z"/>
<path fill="#EAE9E9" opacity="1.000000" stroke="none" 
	d="
M96.795029,235.413696 
	C99.719330,229.646561 102.651382,224.295425 105.611557,218.560791 
	C105.940079,213.089874 106.181824,207.998154 106.553825,202.915970 
	C107.207008,193.992126 112.228714,188.074020 119.822960,184.009628 
	C122.288200,182.690247 124.813972,181.483963 127.950951,180.383484 
	C131.804886,181.447525 135.149292,181.660065 136.576202,178.061172 
	C138.120605,174.165970 138.850525,169.947815 139.935669,165.870514 
	C144.036026,160.304642 150.301346,158.467957 156.694931,156.117706 
	C158.421127,155.619263 159.838516,155.323349 161.960602,155.242950 
	C174.645935,157.460037 182.803772,153.492752 188.064133,143.106613 
	C188.064133,143.106613 188.327164,142.894730 188.756897,142.801498 
	C189.460556,142.478195 189.734482,142.248123 190.008392,142.018036 
	C198.826508,137.806412 207.870529,137.493073 217.067764,140.553085 
	C220.206024,141.597214 223.195053,143.242264 226.398560,143.898361 
	C230.176620,144.672150 234.110001,144.902008 237.982056,144.959030 
	C246.727585,145.087814 255.497437,144.628082 264.211334,145.160843 
	C266.660675,145.310593 270.091858,147.628815 270.934845,149.787323 
	C271.556580,151.379318 269.097412,154.692001 267.326630,156.604279 
	C261.932251,162.429764 256.014923,167.776291 250.711502,173.677994 
	C248.809448,175.794647 248.077011,178.962326 246.158142,181.881989 
	C230.359192,182.077759 216.211746,186.101410 203.090439,193.387344 
	C191.184372,199.998428 181.954254,208.899185 177.301712,222.501831 
	C174.781403,229.870483 169.657043,236.399078 165.392471,243.106415 
	C161.041779,249.949249 155.628937,256.192719 151.891022,263.332062 
	C145.778549,275.006775 146.212616,287.711304 148.018066,300.606384 
	C144.130264,302.806915 140.516159,304.791351 136.568726,306.870636 
	C130.566971,312.659027 124.898514,318.352539 119.230057,324.046051 
	C114.663002,327.926514 112.345543,324.315826 109.585686,321.070923 
	C104.420288,313.947235 101.426048,306.535065 103.734764,297.435669 
	C107.537468,285.501862 105.724373,274.671967 100.501122,263.874725 
	C96.251022,255.089172 94.536980,245.637894 96.795029,235.413696 
M152.266037,200.799805 
	C151.822632,201.813034 150.867767,203.629410 151.011383,203.720856 
	C153.847351,205.526855 156.517853,205.440414 159.426529,201.698532 
	C156.874298,201.263519 154.922409,200.930832 152.266037,200.799805 
M131.688797,198.244110 
	C130.637390,197.842163 128.692688,197.032059 128.663040,197.096954 
	C127.360382,199.948013 127.040405,202.665436 131.068649,205.100266 
	C131.403381,202.654984 131.655991,200.809708 131.688797,198.244110 
M156.756912,177.724899 
	C154.700958,177.933029 152.645004,178.141159 149.662872,178.443039 
	C152.708649,182.293350 155.237991,182.486176 157.910629,180.760056 
	C158.231522,180.552811 157.642853,178.937195 156.756912,177.724899 
M177.950958,179.287338 
	C176.877090,179.949402 175.803238,180.611465 174.729385,181.273529 
	C174.898056,181.920731 175.066742,182.567932 175.235428,183.215134 
	C177.951904,183.064560 180.668381,182.913986 183.384857,182.763412 
	C183.425735,182.099548 183.466614,181.435684 183.507507,180.771820 
	C181.913193,180.234650 180.318893,179.697479 177.950958,179.287338 
M194.839508,164.870987 
	C195.253220,163.939880 196.155792,162.284592 196.008224,162.184937 
	C193.252289,160.324585 190.616135,160.299789 187.194611,164.020004 
	C190.213669,164.477432 192.144211,164.769928 194.839508,164.870987 
M132.711670,228.433273 
	C130.027802,227.579742 127.428879,227.026581 125.715622,230.218704 
	C130.352905,233.147720 132.767319,232.684860 132.711670,228.433273 
z"/>
<path fill="#C6C6C6" opacity="1.000000" stroke="none" 
	d="
M209.961884,334.893646 
	C206.928452,314.470642 215.072052,298.462158 229.185638,284.428406 
	C235.724808,277.926239 242.868683,271.244934 246.959808,263.227051 
	C256.352386,244.819458 271.853699,235.944489 290.790405,232.184753 
	C300.620239,230.233124 310.919006,230.643250 321.470184,229.983734 
	C320.257385,235.041412 318.580322,240.101837 316.640442,245.792725 
	C315.759491,248.352173 315.141327,250.281158 314.211151,253.183777 
	C317.234039,251.861847 319.154724,251.021912 321.075409,250.181976 
	C321.251801,250.200485 321.428192,250.219009 321.863098,250.301605 
	C320.206024,256.994751 307.552399,262.075378 299.594666,259.389374 
	C292.972473,257.154175 286.278290,257.381439 280.137726,260.282227 
	C276.651703,261.929016 273.729187,265.106140 271.076782,268.063873 
	C269.244507,270.107056 268.707123,273.324707 266.846649,275.325195 
	C265.332275,276.953583 262.593170,278.655762 260.602234,278.439240 
	C242.156219,276.433044 232.906342,287.719025 231.214584,301.719940 
	C230.348602,308.886688 227.243149,314.261353 222.394714,319.540436 
	C219.019577,323.215302 217.672165,328.752533 214.822128,333.825745 
	C212.804184,334.426971 211.383041,334.660309 209.961884,334.893646 
z"/>
<path fill="#C6C6C6" opacity="1.000000" stroke="none" 
	d="
M148.291763,300.390289 
	C146.212616,287.711304 145.778549,275.006775 151.891022,263.332062 
	C155.628937,256.192719 161.041779,249.949249 165.392471,243.106415 
	C169.657043,236.399078 174.781403,229.870483 177.301712,222.501831 
	C181.954254,208.899185 191.184372,199.998428 203.090439,193.387344 
	C216.211746,186.101410 230.359192,182.077759 245.985657,182.187897 
	C245.956268,185.112183 245.446732,187.962204 244.630692,192.526688 
	C253.349960,189.431885 260.839142,186.773682 268.699890,184.141693 
	C264.736084,191.569931 254.273331,195.971909 245.954285,194.594879 
	C241.320938,193.827957 236.429886,193.664383 231.772430,194.217697 
	C224.588593,195.071106 219.006821,198.568680 216.474060,205.965607 
	C214.276398,212.383789 210.923370,215.963776 202.760757,214.600769 
	C193.728928,213.092621 182.695435,222.935303 180.337173,232.749237 
	C179.679871,235.484543 179.811935,238.454285 178.886993,241.070862 
	C177.152267,245.978210 176.022171,251.764282 172.658569,255.298584 
	C164.530731,263.838959 163.317429,273.612671 164.628677,284.383423 
	C164.949280,287.016937 165.527847,289.619019 165.699326,292.857849 
	C159.704468,295.783508 153.998123,298.086914 148.291763,300.390289 
z"/>
<path fill="#C4C1BF" opacity="1.000000" stroke="none" 
	d="
M187.704468,143.100677 
	C182.803772,153.492752 174.645935,157.460037 162.325912,155.229721 
	C170.439255,151.032242 178.892029,147.063507 187.704468,143.100677 
z"/>
<path fill="#834A28" opacity="1.000000" stroke="none" 
	d="
M320.910339,249.886200 
	C319.154724,251.021912 317.234039,251.861847 314.211151,253.183777 
	C315.141327,250.281158 315.759491,248.352173 316.601440,246.177139 
	C318.131927,247.150879 319.438568,248.370651 320.910339,249.886200 
z"/>
<path fill="#C4C1BF" opacity="1.000000" stroke="none" 
	d="
M189.722870,142.027527 
	C189.734482,142.248123 189.460556,142.478195 188.919083,142.754425 
	C188.913467,142.546051 189.175400,142.291534 189.722870,142.027527 
z"/>
<path fill="#6F3E1F" opacity="1.000000" stroke="none" 
	d="
M119.621368,324.030975 
	C124.898514,318.352539 130.566971,312.659027 136.849091,307.126099 
	C147.598190,310.863464 157.733597,314.440216 167.868988,318.016998 
	C166.573059,322.946686 164.799591,327.813599 164.140457,332.826996 
	C163.659821,336.482574 164.648285,340.331360 165.015518,344.511719 
	C163.686371,344.440216 162.082260,344.260376 160.997620,343.414459 
	C148.774261,333.881714 135.244507,327.165558 119.621368,324.030975 
z"/>
<path fill="#C4C1BF" opacity="1.000000" stroke="none" 
	d="
M139.695038,165.879730 
	C138.850525,169.947815 138.120605,174.165970 136.576202,178.061172 
	C135.149292,181.660065 131.804886,181.447525 128.291077,180.300903 
	C131.582458,175.591141 135.172607,171.121460 138.876511,166.334686 
	C138.990280,166.017609 139.454407,165.888931 139.695038,165.879730 
z"/>
<path fill="#844C2A" opacity="1.000000" stroke="none" 
	d="
M209.614441,335.037109 
	C211.383041,334.660309 212.804184,334.426971 214.578979,334.107605 
	C214.145096,344.071320 216.234512,353.756622 218.232239,363.521088 
	C219.065125,367.592041 218.233795,372.003479 217.990158,376.645813 
	C216.769623,375.430359 215.244278,373.964264 214.743073,372.206177 
	C211.357605,360.330780 204.954300,350.165588 197.186615,340.350525 
	C201.098389,338.437683 205.182693,336.809113 209.614441,335.037109 
z"/>
<path fill="#3F2D3C" opacity="1.000000" stroke="none" 
	d="
M229.987549,358.764130 
	C230.500778,354.956268 232.624146,353.469971 236.645599,353.307343 
	C235.868103,357.426147 234.658035,360.100555 229.987549,358.764130 
z"/>
<path fill="#443341" opacity="1.000000" stroke="none" 
	d="
M283.682831,271.028564 
	C284.886658,270.724518 285.939331,270.755371 286.992004,270.786255 
	C286.919647,273.149323 286.847290,275.512390 286.774902,277.875488 
	C285.976318,277.909302 285.177765,277.943115 284.379181,277.976929 
	C284.096680,275.772461 283.814178,273.567963 283.682831,271.028564 
z"/>
<path fill="#392635" opacity="1.000000" stroke="none" 
	d="
M247.630768,292.915527 
	C249.866104,293.218872 251.757477,293.582764 254.656723,294.140564 
	C251.080383,297.578674 248.452957,297.701202 245.747665,295.590851 
	C245.643921,295.509918 246.746399,293.882721 247.630768,292.915527 
z"/>
<path fill="#3F2D3C" opacity="1.000000" stroke="none" 
	d="
M267.807556,305.326111 
	C270.925537,303.181152 273.508942,303.471558 276.323914,306.195343 
	C272.877228,308.391876 270.051086,309.871582 267.807556,305.326111 
z"/>
<path fill="#392635" opacity="1.000000" stroke="none" 
	d="
M305.432526,275.788666 
	C307.236176,274.421143 308.823059,273.379242 311.400482,271.686951 
	C311.241486,276.672424 309.417480,278.469025 306.170593,278.895905 
	C305.977539,278.921326 305.539673,277.084503 305.432526,275.788666 
z"/>
<path fill="#392635" opacity="1.000000" stroke="none" 
	d="
M242.477417,331.247437 
	C243.622833,331.898346 244.393478,332.430206 245.164124,332.962067 
	C245.112579,333.404785 245.061050,333.847504 245.009506,334.290222 
	C242.322113,334.290222 239.634720,334.290222 236.947327,334.290222 
	C236.847626,333.642487 236.747925,332.994751 236.648239,332.346985 
	C238.466370,331.940765 240.284515,331.534576 242.477417,331.247437 
z"/>
<path fill="#844C2A" opacity="1.000000" stroke="none" 
	d="
M168.061218,317.670410 
	C157.733597,314.440216 147.598190,310.863464 137.182404,307.031250 
	C140.516159,304.791351 144.130264,302.806915 148.018066,300.606384 
	C153.998123,298.086914 159.704468,295.783508 165.697388,293.277649 
	C169.263275,300.921936 171.076797,308.905884 168.061218,317.670410 
z"/>
<path fill="#3F2D3C" opacity="1.000000" stroke="none" 
	d="
M203.223236,230.285004 
	C200.617996,231.454544 198.876465,230.977371 200.239197,228.320801 
	C201.170883,226.504517 203.512299,225.411377 205.223495,223.994949 
	C205.772263,224.503418 206.321030,225.011871 206.869797,225.520340 
	C205.756485,227.057785 204.643188,228.595230 203.223236,230.285004 
z"/>
<path fill="#3F2D3C" opacity="1.000000" stroke="none" 
	d="
M194.419006,277.528839 
	C191.995529,274.581604 192.249969,271.937653 194.563248,268.791626 
	C197.552078,272.101013 198.329254,274.851685 194.419006,277.528839 
z"/>
<path fill="#3F2D3C" opacity="1.000000" stroke="none" 
	d="
M236.435730,217.602814 
	C235.832642,221.305176 233.764633,222.937042 229.502884,223.017456 
	C230.608002,219.076508 231.587952,216.111862 236.435730,217.602814 
z"/>
<path fill="#392635" opacity="1.000000" stroke="none" 
	d="
M221.926575,242.752533 
	C221.722977,245.061050 221.429504,247.000580 220.980988,249.964645 
	C217.455490,246.718002 217.167526,244.142685 219.033539,241.364655 
	C219.166855,241.166214 220.865753,242.019363 221.926575,242.752533 
z"/>
<path fill="#392635" opacity="1.000000" stroke="none" 
	d="
M193.356567,256.830475 
	C192.260315,256.122772 191.548813,255.514374 190.837311,254.905960 
	C191.645142,254.226379 192.422928,253.022018 193.266937,252.973679 
	C195.173050,252.864502 197.111877,253.326492 199.037415,253.556122 
	C199.096054,254.222733 199.154694,254.889328 199.213333,255.555939 
	C197.389328,256.013885 195.565338,256.471832 193.356567,256.830475 
z"/>
<path fill="#443341" opacity="1.000000" stroke="none" 
	d="
M152.618286,200.698975 
	C154.922409,200.930832 156.874298,201.263519 159.426529,201.698532 
	C156.517853,205.440414 153.847351,205.526855 151.011383,203.720856 
	C150.867767,203.629410 151.822632,201.813034 152.618286,200.698975 
z"/>
<path fill="#392635" opacity="1.000000" stroke="none" 
	d="
M131.798691,198.604279 
	C131.655991,200.809708 131.403381,202.654984 131.068649,205.100266 
	C127.040405,202.665436 127.360382,199.948013 128.663040,197.096954 
	C128.692688,197.032059 130.637390,197.842163 131.798691,198.604279 
z"/>
<path fill="#443341" opacity="1.000000" stroke="none" 
	d="
M157.116333,177.849625 
	C157.642853,178.937195 158.231522,180.552811 157.910629,180.760056 
	C155.237991,182.486176 152.708649,182.293350 149.662872,178.443039 
	C152.645004,178.141159 154.700958,177.933029 157.116333,177.849625 
z"/>
<path fill="#443341" opacity="1.000000" stroke="none" 
	d="
M178.337769,179.223816 
	C180.318893,179.697479 181.913193,180.234650 183.507507,180.771820 
	C183.466614,181.435684 183.425735,182.099548 183.384857,182.763412 
	C180.668381,182.913986 177.951904,183.064560 175.235428,183.215134 
	C175.066742,182.567932 174.898056,181.920731 174.729385,181.273529 
	C175.803238,180.611465 176.877090,179.949402 178.337769,179.223816 
z"/>
<path fill="#3F2D3C" opacity="1.000000" stroke="none" 
	d="
M194.457123,164.966705 
	C192.144211,164.769928 190.213669,164.477432 187.194611,164.020004 
	C190.616135,160.299789 193.252289,160.324585 196.008224,162.184937 
	C196.155792,162.284592 195.253220,163.939880 194.457123,164.966705 
z"/>
<path fill="#392635" opacity="1.000000" stroke="none" 
	d="
M133.044067,228.678711 
	C132.767319,232.684860 130.352905,233.147720 125.715622,230.218704 
	C127.428879,227.026581 130.027802,227.579742 133.044067,228.678711 
z"/>
</svg>