<svg version="1.1" id="Layer_1" xmlns="http://www.w3.org/2000/svg" xmlns:xlink="http://www.w3.org/1999/xlink" x="0px" y="0px"
	 width="100%" viewBox="0 0 512 512" enable-background="new 0 0 512 512" xml:space="preserve">
<path fill="none" opacity="1.000000" stroke="none" 
	d="
M301.000000,513.000000 
	C200.691025,513.000000 100.882042,513.000000 1.036533,513.000000 
	C1.036533,342.399323 1.036533,171.798660 1.036533,1.098988 
	C171.558990,1.098988 342.118042,1.098988 512.838562,1.098988 
	C512.838562,171.666550 512.838562,342.333252 512.838562,513.000000 
	C442.465302,513.000000 371.982635,513.000000 301.000000,513.000000 
M267.808044,75.259422 
	C264.478760,71.473007 261.149475,67.686600 257.126587,63.111355 
	C250.690475,69.933563 245.395889,75.545761 239.168549,81.021271 
	C230.317535,81.679688 221.436844,82.072762 212.622543,83.059212 
	C199.656647,84.510269 186.557312,85.541801 173.840363,88.269669 
	C152.969025,92.746704 132.363113,98.244186 112.536110,106.617088 
	C87.066666,117.372787 63.409077,130.466965 44.893326,151.565369 
	C31.442001,166.892929 23.226866,184.064224 25.021938,205.951859 
	C25.069132,228.314957 25.116323,250.678070 25.017155,273.963104 
	C25.011065,293.955963 24.969929,313.948914 25.013016,333.941681 
	C25.036097,344.650208 28.794722,354.322723 34.001595,363.414978 
	C39.814705,373.565857 46.910908,382.809814 56.397419,389.821533 
	C66.599190,397.361847 76.524780,405.540222 87.575157,411.612640 
	C110.081627,423.980438 134.212234,432.307068 159.285767,438.300507 
	C182.869110,443.937714 206.710953,447.604889 230.788879,448.736633 
	C250.460403,449.661255 270.242767,448.227753 290.880920,447.979828 
	C297.560364,447.321808 304.292389,446.994049 310.908752,445.939972 
	C326.785828,443.410645 342.836884,441.460815 358.401733,437.599976 
	C384.214447,431.197266 409.227112,422.256805 432.146515,408.362976 
	C450.285645,397.366943 466.974518,384.719788 478.278320,366.214081 
	C483.727020,357.293884 488.512604,347.797180 488.800323,337.354279 
	C489.400269,315.577576 488.888123,293.770264 488.966034,271.051056 
	C488.923462,250.026566 488.880890,229.002090 488.995789,207.060547 
	C488.206879,198.419220 488.911896,189.301514 486.337921,181.229401 
	C479.668457,160.313736 465.351532,144.785599 447.852905,131.969864 
	C432.279877,120.564400 415.379944,111.549713 397.335236,104.953049 
	C383.699921,99.968338 369.767944,95.541222 355.653595,92.190109 
	C340.651764,88.628281 325.340729,86.178123 310.049103,84.088432 
	C298.043121,82.447739 285.861145,82.094933 273.220978,80.810944 
	C271.492432,79.168793 269.763916,77.526642 267.808044,75.259422 
z"/>
<path fill="#FCA529" opacity="1.000000" stroke="none" 
	d="
M289.976013,447.839752 
	C270.242767,448.227753 250.460403,449.661255 230.788879,448.736633 
	C206.710953,447.604889 182.869110,443.937714 159.285767,438.300507 
	C134.212234,432.307068 110.081627,423.980438 87.575157,411.612640 
	C76.524780,405.540222 66.599190,397.361847 56.397419,389.821533 
	C46.910908,382.809814 39.814705,373.565857 34.001595,363.414978 
	C28.794722,354.322723 25.036097,344.650208 25.013016,333.941681 
	C24.969929,313.948914 25.011065,293.955963 25.274521,273.829498 
	C27.319012,279.725494 28.506136,286.016968 31.002756,291.736877 
	C39.385612,310.942535 53.846703,324.887604 70.849289,336.586212 
	C92.605743,351.555664 116.557632,361.569946 141.723587,369.127472 
	C174.727615,379.038727 208.559433,383.661896 242.850739,384.846069 
	C258.268951,385.378479 273.744263,384.257263 289.487213,383.920135 
	C290.174408,384.003235 290.568085,384.052612 291.033386,384.441956 
	C292.399811,386.678558 293.469147,388.789551 295.031464,390.431519 
	C299.729401,395.368835 304.635651,400.107361 309.430237,404.953491 
	C314.613586,410.192566 314.640594,422.801971 309.516296,428.001068 
	C303.000641,434.611786 296.489258,441.226685 289.976013,447.839752 
M242.190247,423.625183 
	C243.444809,421.107452 244.779297,418.624939 245.913773,416.054199 
	C246.354340,415.055878 246.829727,413.105621 246.462463,412.868195 
	C242.907120,410.570282 239.308212,408.190094 235.388351,406.726013 
	C234.556763,406.415436 231.898636,409.484894 230.887238,411.418304 
	C225.524048,421.670654 225.670258,421.598602 235.738007,426.453796 
	C238.912094,427.984528 240.686813,427.439941 242.190247,423.625183 
M276.615814,410.845428 
	C273.952667,409.512451 271.378021,407.916168 268.582672,406.976532 
	C267.469177,406.602234 265.151672,407.256500 264.611237,408.169739 
	C262.196808,412.249847 260.226013,416.592499 258.160400,420.709930 
	C269.652008,429.865448 271.526093,429.488190 277.322418,417.360352 
	C277.679077,416.614197 278.366119,415.831421 278.301178,415.120300 
	C278.180664,413.800140 277.618134,412.520355 276.615814,410.845428 
z"/>
<path fill="#FAB53F" opacity="1.000000" stroke="none" 
	d="
M289.193665,383.886414 
	C273.744263,384.257263 258.268951,385.378479 242.850739,384.846069 
	C208.559433,383.661896 174.727615,379.038727 141.723587,369.127472 
	C116.557632,361.569946 92.605743,351.555664 70.849289,336.586212 
	C53.846703,324.887604 39.385612,310.942535 31.002756,291.736877 
	C28.506136,286.016968 27.319012,279.725494 25.347702,273.368530 
	C25.116323,250.678070 25.069132,228.314957 25.281277,205.832611 
	C25.703091,207.011597 25.836531,208.314194 26.032553,209.607330 
	C27.920633,222.062851 32.547607,233.311188 40.841064,243.323792 
	C49.020451,256.142761 60.236012,265.280182 72.789612,273.494293 
	C81.211586,278.515106 89.160660,283.766693 97.639961,287.941345 
	C131.769089,304.744354 168.230957,313.419342 205.793381,317.899689 
	C211.162003,318.540039 216.655594,318.132446 222.398163,318.417236 
	C224.293854,319.065704 225.871246,319.839722 227.473480,319.895050 
	C240.049454,320.329498 252.629044,320.821747 265.209869,320.896301 
	C273.474976,320.945282 281.743988,320.330048 290.186859,320.295227 
	C295.882233,324.587280 301.354767,328.663483 306.933746,332.588440 
	C313.825989,337.437347 315.624023,349.490204 310.458466,356.149139 
	C303.317749,365.354218 296.277130,374.636932 289.193665,383.886414 
M246.959641,348.264526 
	C230.701691,339.685974 235.273758,339.633484 227.461212,354.070709 
	C227.225357,354.506561 226.812134,355.018402 226.888229,355.417236 
	C227.079239,356.418213 227.213821,357.875885 227.884033,358.263550 
	C231.032288,360.084595 234.277222,361.804688 237.661911,363.108398 
	C238.608673,363.473083 240.827850,362.656311 241.301910,361.764252 
	C243.529648,357.572296 245.352905,353.165405 246.959641,348.264526 
M277.474426,354.023834 
	C277.872925,351.891022 281.206665,350.069336 278.037903,347.559875 
	C269.178223,340.543701 265.884369,341.204987 260.948822,351.084991 
	C260.431091,352.121399 259.976135,353.195160 259.384155,354.187195 
	C258.111267,356.320374 258.428284,357.787415 260.804413,358.928192 
	C273.492157,365.019684 271.265045,366.222748 277.474426,354.023834 
z"/>
<path fill="#FAB53F" opacity="1.000000" stroke="none" 
	d="
M290.428467,447.909790 
	C296.489258,441.226685 303.000641,434.611786 309.516296,428.001068 
	C314.640594,422.801971 314.613586,410.192566 309.430237,404.953491 
	C304.635651,400.107361 299.729401,395.368835 295.031464,390.431519 
	C293.469147,388.789551 292.399811,386.678558 291.411285,384.260010 
	C301.583038,382.518433 311.469879,381.449127 321.310303,380.052612 
	C359.151154,374.682465 395.392212,364.213104 428.914154,345.457031 
	C444.680847,336.635284 458.950348,325.819946 470.575439,311.829315 
	C480.235138,300.204041 486.245789,286.862976 488.832886,271.975525 
	C488.888123,293.770264 489.400269,315.577576 488.800323,337.354279 
	C488.512604,347.797180 483.727020,357.293884 478.278320,366.214081 
	C466.974518,384.719788 450.285645,397.366943 432.146515,408.362976 
	C409.227112,422.256805 384.214447,431.197266 358.401733,437.599976 
	C342.836884,441.460815 326.785828,443.410645 310.908752,445.939972 
	C304.292389,446.994049 297.560364,447.321808 290.428467,447.909790 
z"/>
<path fill="#FDCA77" opacity="1.000000" stroke="none" 
	d="
M488.899475,271.513306 
	C486.245789,286.862976 480.235138,300.204041 470.575439,311.829315 
	C458.950348,325.819946 444.680847,336.635284 428.914154,345.457031 
	C395.392212,364.213104 359.151154,374.682465 321.310303,380.052612 
	C311.469879,381.449127 301.583038,382.518433 291.339600,383.919983 
	C290.568085,384.052612 290.174408,384.003235 289.487213,383.920135 
	C296.277130,374.636932 303.317749,365.354218 310.458466,356.149139 
	C315.624023,349.490204 313.825989,337.437347 306.933746,332.588440 
	C301.354767,328.663483 295.882233,324.587280 290.439087,320.174805 
	C291.007355,319.509552 291.499023,319.247711 292.453125,318.998993 
	C323.689667,317.787872 353.526855,311.453949 382.661957,301.856506 
	C410.659607,292.633698 437.025513,280.094391 458.955475,259.868896 
	C464.333832,254.908585 468.454895,248.585068 473.468811,242.804382 
	C475.016785,241.183624 476.369293,239.726852 477.463287,238.096619 
	C483.600555,228.951019 486.725281,218.651810 488.838287,207.977600 
	C488.880890,229.002090 488.923462,250.026566 488.899475,271.513306 
z"/>
<path fill="#FCA529" opacity="1.000000" stroke="none" 
	d="
M40.769844,242.969986 
	C32.547607,233.311188 27.920633,222.062851 26.032553,209.607330 
	C25.836531,208.314194 25.703091,207.011597 25.352276,205.370453 
	C23.226866,184.064224 31.442001,166.892929 44.893326,151.565369 
	C63.409077,130.466965 87.066666,117.372787 112.536110,106.617088 
	C132.363113,98.244186 152.969025,92.746704 173.840363,88.269669 
	C186.557312,85.541801 199.656647,84.510269 212.622543,83.059212 
	C221.436844,82.072762 230.317535,81.679688 239.480896,81.383392 
	C231.877930,87.825523 223.962616,93.905540 215.826813,100.125671 
	C215.628204,100.438583 215.650116,100.611366 215.664398,100.754990 
	C215.656784,100.725838 215.598129,100.712051 215.230286,100.633560 
	C211.016541,102.119354 207.122604,103.575935 203.332840,105.266075 
	C184.165451,113.814285 169.277512,126.977005 159.528992,146.125427 
	C158.189056,148.943253 157.104980,151.541901 155.662491,154.142609 
	C151.866302,151.142532 148.428543,148.140396 144.771652,144.946899 
	C131.756393,157.549759 120.167809,171.435501 103.825195,180.127335 
	C103.627663,180.443085 103.651360,180.616760 103.667709,180.760803 
	C103.660362,180.731155 103.600975,180.716812 103.233322,180.636200 
	C71.960175,191.205597 50.313091,211.066757 40.769844,242.969986 
z"/>
<path fill="#FCA529" opacity="1.000000" stroke="none" 
	d="
M488.917053,207.519073 
	C486.725281,218.651810 483.600555,228.951019 477.463287,238.096619 
	C476.369293,239.726852 475.016785,241.183624 473.402344,242.428650 
	C465.471527,216.878983 449.803955,198.509537 426.283630,186.656494 
	C415.508911,181.226578 404.915497,175.436752 394.215942,169.821899 
	C394.191986,169.833618 394.197754,169.885757 394.084656,169.639862 
	C393.642853,169.293869 393.314209,169.193756 392.705383,168.902740 
	C388.562378,164.825699 384.699524,160.939545 380.691498,156.760986 
	C376.815460,152.614105 373.084656,148.759644 369.551300,145.109207 
	C365.347198,148.350037 361.678009,151.178513 357.984833,153.642166 
	C356.717621,150.760620 355.474365,148.243927 354.145325,145.389740 
	C345.238983,128.120346 332.010315,115.732941 315.115326,107.048592 
	C304.088257,101.380470 293.150604,95.538376 282.149475,89.808678 
	C282.126068,89.843147 282.198090,89.885109 282.084839,89.639221 
	C281.642792,89.293190 281.314026,89.193047 280.706207,88.903397 
	C278.203888,86.199257 275.980621,83.684624 273.757355,81.169998 
	C285.861145,82.094933 298.043121,82.447739 310.049103,84.088432 
	C325.340729,86.178123 340.651764,88.628281 355.653595,92.190109 
	C369.767944,95.541222 383.699921,99.968338 397.335236,104.953049 
	C415.379944,111.549713 432.279877,120.564400 447.852905,131.969864 
	C465.351532,144.785599 479.668457,160.313736 486.337921,181.229401 
	C488.911896,189.301514 488.206879,198.419220 488.917053,207.519073 
z"/>
<path fill="#FFEFD6" opacity="1.000000" stroke="none" 
	d="
M273.489166,80.990471 
	C275.980621,83.684624 278.203888,86.199257 280.878418,89.077850 
	C281.583008,89.660339 281.872498,89.808098 282.198090,89.885109 
	C282.198090,89.885109 282.126068,89.843147 282.166870,90.165962 
	C282.567719,91.222794 282.785095,92.083939 283.309082,92.671898 
	C292.236847,102.690056 301.083221,112.784836 310.193756,122.634933 
	C319.248749,132.425003 326.551422,142.958923 324.873474,157.103867 
	C324.237701,162.463867 322.282928,167.667389 320.679626,173.107330 
	C319.635590,173.875580 318.841278,174.478714 317.682007,175.129822 
	C315.312347,175.935059 313.221222,176.520645 311.317810,177.479065 
	C302.685638,181.825653 293.344299,185.074081 286.551147,192.923920 
	C285.483978,193.007584 284.772858,193.067657 283.588440,193.090698 
	C265.390717,193.075760 247.666336,193.097839 229.603241,193.035095 
	C220.233719,187.717651 211.642303,181.414520 202.075485,177.487778 
	C185.097015,170.518936 171.584137,159.505402 159.784866,145.906250 
	C169.277512,126.977005 184.165451,113.814285 203.332840,105.266075 
	C207.122604,103.575935 211.016541,102.119354 215.249725,101.009872 
	C214.402649,104.355782 213.196701,107.259422 211.929138,110.135918 
	C205.002853,125.854065 201.159958,142.263077 201.032669,159.468338 
	C200.988068,165.499100 203.972382,168.899170 208.917892,168.948792 
	C213.885025,168.998627 216.895294,165.593842 216.984802,159.633041 
	C217.231171,143.228287 221.038986,127.639473 228.170593,112.937370 
	C230.759476,107.600273 234.338791,102.743622 237.466202,97.667755 
	C237.986053,97.878372 238.505890,98.088989 239.025742,98.299606 
	C239.025742,108.888680 237.680084,119.700264 239.384491,130.007492 
	C241.287521,141.516006 245.619171,152.688171 249.573441,163.764099 
	C251.488708,169.128769 257.230255,170.460281 261.499115,167.608246 
	C265.149933,165.169144 265.932098,161.068954 263.505707,156.054565 
	C255.309052,139.115494 252.898071,121.161736 254.115051,102.589622 
	C254.287125,99.963394 255.048553,97.375786 255.608582,94.389709 
	C256.618103,95.149620 256.980011,95.289886 257.121826,95.550095 
	C258.076691,97.302444 259.065430,99.043335 259.895782,100.855476 
	C268.871033,120.442970 281.998657,136.751465 298.736053,150.234802 
	C303.180023,153.814804 308.081299,153.824890 311.136536,150.142105 
	C314.243317,146.397186 313.055786,141.782593 309.061493,137.925552 
	C301.438751,130.564713 293.578156,123.301132 286.978760,115.065636 
	C277.767395,103.570686 271.070770,90.529007 268.035400,75.884491 
	C269.763916,77.526642 271.492432,79.168793 273.489166,80.990471 
z"/>
<path fill="#ECD9C2" opacity="1.000000" stroke="none" 
	d="
M267.921722,75.571953 
	C271.070770,90.529007 277.767395,103.570686 286.978760,115.065636 
	C293.578156,123.301132 301.438751,130.564713 309.061493,137.925552 
	C313.055786,141.782593 314.243317,146.397186 311.136536,150.142105 
	C308.081299,153.824890 303.180023,153.814804 298.736053,150.234802 
	C281.998657,136.751465 268.871033,120.442970 259.895782,100.855476 
	C259.065430,99.043335 258.076691,97.302444 257.121826,95.550095 
	C256.980011,95.289886 256.618103,95.149620 255.608582,94.389709 
	C255.048553,97.375786 254.287125,99.963394 254.115051,102.589622 
	C252.898071,121.161736 255.309052,139.115494 263.505707,156.054565 
	C265.932098,161.068954 265.149933,165.169144 261.499115,167.608246 
	C257.230255,170.460281 251.488708,169.128769 249.573441,163.764099 
	C245.619171,152.688171 241.287521,141.516006 239.384491,130.007492 
	C237.680084,119.700264 239.025742,108.888680 239.025742,98.299606 
	C238.505890,98.088989 237.986053,97.878372 237.466202,97.667755 
	C234.338791,102.743622 230.759476,107.600273 228.170593,112.937370 
	C221.038986,127.639473 217.231171,143.228287 216.984802,159.633041 
	C216.895294,165.593842 213.885025,168.998627 208.917892,168.948792 
	C203.972382,168.899170 200.988068,165.499100 201.032669,159.468338 
	C201.159958,142.263077 205.002853,125.854065 211.929138,110.135918 
	C213.196701,107.259422 214.402649,104.355782 215.617584,101.088364 
	C215.598129,100.712051 215.656784,100.725838 215.810883,100.729584 
	C216.217331,100.530266 216.244766,100.281013 216.047302,99.985558 
	C223.962616,93.905540 231.877930,87.825523 239.947266,81.451736 
	C245.395889,75.545761 250.690475,69.933563 257.126587,63.111355 
	C261.149475,67.686600 264.478760,71.473007 267.921722,75.571953 
z"/>
<path fill="#F09B22" opacity="1.000000" stroke="none" 
	d="
M242.028015,423.949799 
	C240.686813,427.439941 238.912094,427.984528 235.738007,426.453796 
	C225.670258,421.598602 225.524048,421.670654 230.887238,411.418304 
	C231.898636,409.484894 234.556763,406.415436 235.388351,406.726013 
	C239.308212,408.190094 242.907120,410.570282 246.462463,412.868195 
	C246.829727,413.105621 246.354340,415.055878 245.913773,416.054199 
	C244.779297,418.624939 243.444809,421.107452 242.028015,423.949799 
z"/>
<path fill="#F09B22" opacity="1.000000" stroke="none" 
	d="
M276.927734,411.034607 
	C277.618134,412.520355 278.180664,413.800140 278.301178,415.120300 
	C278.366119,415.831421 277.679077,416.614197 277.322418,417.360352 
	C271.526093,429.488190 269.652008,429.865448 258.160400,420.709930 
	C260.226013,416.592499 262.196808,412.249847 264.611237,408.169739 
	C265.151672,407.256500 267.469177,406.602234 268.582672,406.976532 
	C271.378021,407.916168 273.952667,409.512451 276.927734,411.034607 
z"/>
<path fill="#FFEFD6" opacity="1.000000" stroke="none" 
	d="
M40.841064,243.323792 
	C50.313091,211.066757 71.960175,191.205597 103.252029,181.012222 
	C102.403061,184.359787 101.195328,187.262894 99.927826,190.139664 
	C93.002304,205.858170 89.159180,222.267334 89.032959,239.472794 
	C88.988724,245.501648 91.976433,248.901855 96.922920,248.948532 
	C101.889885,248.995407 104.894806,245.591507 104.984901,239.627502 
	C105.232712,223.222900 109.040222,207.633820 116.173004,192.932053 
	C118.761131,187.597504 122.340042,182.743652 125.466888,177.670456 
	C125.986671,177.881744 126.506454,178.093033 127.026237,178.304321 
	C127.026237,188.893646 125.680229,199.705597 127.385040,210.012955 
	C129.288513,221.521439 133.621292,232.693436 137.576431,243.769165 
	C139.491257,249.131271 145.237869,250.460098 149.504410,247.604553 
	C153.152542,245.162903 153.930267,241.066132 151.502441,236.048401 
	C143.306290,219.108795 140.897095,201.154541 142.115448,182.582352 
	C142.287567,179.958710 143.050018,177.373795 143.539230,174.770950 
	C145.971329,177.078705 147.238190,179.379990 148.342056,181.756943 
	C157.198441,200.827728 170.059601,216.718124 186.371262,229.904251 
	C191.160706,233.775940 195.995850,233.934952 199.141098,230.135941 
	C202.340363,226.271667 201.284286,221.526733 196.583893,217.697845 
	C176.821457,201.599594 162.864044,181.606750 156.330017,156.988800 
	C160.752457,161.074768 164.843628,165.062485 169.023224,169.379883 
	C169.541260,170.414474 169.875412,171.204147 170.414627,171.811890 
	C181.330032,184.114761 192.318817,196.352844 203.189255,208.695190 
	C214.263092,221.268478 216.104019,235.671234 209.414474,250.547531 
	C202.919113,264.992004 190.766251,272.247742 174.945374,272.952148 
	C168.464798,273.240662 161.960663,272.986938 155.467300,273.003540 
	C127.831673,273.074219 100.196053,273.153778 72.560432,273.230042 
	C60.236012,265.280182 49.020451,256.142761 40.841064,243.323792 
z"/>
<path fill="#ECD9C2" opacity="1.000000" stroke="none" 
	d="
M72.789612,273.494263 
	C100.196053,273.153778 127.831673,273.074219 155.467300,273.003540 
	C161.960663,272.986938 168.464798,273.240662 174.945374,272.952148 
	C190.766251,272.247742 202.919113,264.992004 209.414474,250.547531 
	C216.104019,235.671234 214.263092,221.268478 203.189255,208.695190 
	C192.318817,196.352844 181.330032,184.114761 170.414627,171.811890 
	C169.875412,171.204147 169.541260,170.414474 169.370468,169.435150 
	C180.558151,175.010208 191.645538,180.586426 202.360657,186.804169 
	C209.631271,191.023132 216.873825,195.560486 223.256317,200.982590 
	C235.813248,211.650024 244.014008,225.427292 249.057037,241.477356 
	C250.290924,247.366959 251.626785,252.844299 252.745529,258.365601 
	C258.332886,285.940826 247.023056,307.974335 222.091354,318.209839 
	C216.655594,318.132446 211.162003,318.540039 205.793381,317.899689 
	C168.230957,313.419342 131.769089,304.744354 97.639961,287.941345 
	C89.160660,283.766693 81.211586,278.515106 72.789612,273.494263 
z"/>
<path fill="#F09C24" opacity="1.000000" stroke="none" 
	d="
M222.398163,318.417236 
	C247.023056,307.974335 258.332886,285.940826 252.745529,258.365601 
	C251.626785,252.844299 250.290924,247.366959 249.518753,241.445419 
	C254.999054,241.016235 260.015778,241.010986 265.048248,241.410202 
	C263.388519,252.207916 261.713074,262.601166 259.969116,273.435089 
	C260.701263,293.431610 270.375702,307.220032 287.405640,316.247589 
	C288.976440,317.080231 290.464294,318.069366 291.990662,318.985840 
	C291.499023,319.247711 291.007355,319.509552 290.263489,319.891846 
	C281.743988,320.330048 273.474976,320.945282 265.209869,320.896301 
	C252.629044,320.821747 240.049454,320.329498 227.473480,319.895050 
	C225.871246,319.839722 224.293854,319.065704 222.398163,318.417236 
z"/>
<path fill="#FCA529" opacity="1.000000" stroke="none" 
	d="
M247.140091,348.549896 
	C245.352905,353.165405 243.529648,357.572296 241.301910,361.764252 
	C240.827850,362.656311 238.608673,363.473083 237.661911,363.108398 
	C234.277222,361.804688 231.032288,360.084595 227.884033,358.263550 
	C227.213821,357.875885 227.079239,356.418213 226.888229,355.417236 
	C226.812134,355.018402 227.225357,354.506561 227.461212,354.070709 
	C235.273758,339.633484 230.701691,339.685974 247.140091,348.549896 
z"/>
<path fill="#FCA529" opacity="1.000000" stroke="none" 
	d="
M277.310181,354.353790 
	C271.265045,366.222748 273.492157,365.019684 260.804413,358.928192 
	C258.428284,357.787415 258.111267,356.320374 259.384155,354.187195 
	C259.976135,353.195160 260.431091,352.121399 260.948822,351.084991 
	C265.884369,341.204987 269.178223,340.543701 278.037903,347.559875 
	C281.206665,350.069336 277.872925,351.891022 277.310181,354.353790 
z"/>
<path fill="#ECD9C2" opacity="1.000000" stroke="none" 
	d="
M292.453125,318.998993 
	C290.464294,318.069366 288.976440,317.080231 287.405640,316.247589 
	C270.375702,307.220032 260.701263,293.431610 260.435150,273.436584 
	C306.928741,272.998260 352.889160,273.201691 398.846100,272.888641 
	C414.670898,272.780884 426.849396,265.068420 433.378021,250.634949 
	C440.099701,235.774689 438.286133,221.364761 427.249969,208.760757 
	C419.040894,199.385452 410.608246,190.205231 402.444305,180.791458 
	C399.458557,177.348602 396.960419,173.482956 394.239868,169.810181 
	C404.915497,175.436752 415.508911,181.226578 426.283630,186.656494 
	C449.803955,198.509537 465.471527,216.878983 473.087524,242.512527 
	C468.454895,248.585068 464.333832,254.908585 458.955475,259.868896 
	C437.025513,280.094391 410.659607,292.633698 382.661957,301.856506 
	C353.526855,311.453949 323.689667,317.787872 292.453125,318.998993 
z"/>
<path fill="#ECD9C2" opacity="1.000000" stroke="none" 
	d="
M155.998779,156.890579 
	C162.864044,181.606750 176.821457,201.599594 196.583893,217.697845 
	C201.284286,221.526733 202.340363,226.271667 199.141098,230.135941 
	C195.995850,233.934952 191.160706,233.775940 186.371262,229.904251 
	C170.059601,216.718124 157.198441,200.827728 148.342056,181.756943 
	C147.238190,179.379990 145.971329,177.078705 143.539230,174.770950 
	C143.050018,177.373795 142.287567,179.958710 142.115448,182.582352 
	C140.897095,201.154541 143.306290,219.108795 151.502441,236.048401 
	C153.930267,241.066132 153.152542,245.162903 149.504410,247.604553 
	C145.237869,250.460098 139.491257,249.131271 137.576431,243.769165 
	C133.621292,232.693436 129.288513,221.521439 127.385040,210.012955 
	C125.680229,199.705597 127.026237,188.893646 127.026237,178.304321 
	C126.506454,178.093033 125.986671,177.881744 125.466888,177.670456 
	C122.340042,182.743652 118.761131,187.597504 116.173004,192.932053 
	C109.040222,207.633820 105.232712,223.222900 104.984901,239.627502 
	C104.894806,245.591507 101.889885,248.995407 96.922920,248.948532 
	C91.976433,248.901855 88.988724,245.501648 89.032959,239.472794 
	C89.159180,222.267334 93.002304,205.858170 99.927826,190.139664 
	C101.195328,187.262894 102.403061,184.359787 103.619682,181.092834 
	C103.600975,180.716812 103.660362,180.731155 103.813843,180.733154 
	C104.218086,180.530136 104.244453,180.280182 104.046432,179.985260 
	C120.167809,171.435501 131.756393,157.549759 144.771652,144.946899 
	C148.428543,148.140396 151.866302,151.142532 155.651459,154.486725 
	C155.998810,155.516052 155.998795,156.203308 155.998779,156.890579 
z"/>
<path fill="#E1CBB4" opacity="1.000000" stroke="none" 
	d="
M156.330017,156.988800 
	C155.998795,156.203308 155.998810,155.516052 156.009857,154.484665 
	C157.104980,151.541901 158.189056,148.943253 159.528992,146.125427 
	C171.584137,159.505402 185.097015,170.518936 202.075485,177.487778 
	C211.642303,181.414520 220.233719,187.717651 229.695801,193.354538 
	C231.137085,195.055191 232.003693,196.501801 233.179611,197.624405 
	C243.508148,207.484894 250.441513,219.404053 254.827774,232.904175 
	C255.308975,234.385284 255.978149,235.805328 256.908203,238.119873 
	C257.832214,236.184692 258.429382,235.233383 258.759735,234.197021 
	C263.330078,219.858521 270.777344,207.300461 281.633423,196.798279 
	C282.662964,195.802292 283.262543,194.361832 284.061768,193.127731 
	C284.772858,193.067657 285.483978,193.007584 286.981323,192.949646 
	C290.524933,192.549118 293.429932,192.569153 296.013062,191.667358 
	C305.077606,188.502914 313.998199,184.977310 318.046967,175.081863 
	C318.841278,174.478714 319.635590,173.875580 321.037964,173.058136 
	C334.937744,166.725037 344.702057,156.367477 354.231110,145.727234 
	C355.474365,148.243927 356.717621,150.760620 357.914673,153.977142 
	C351.578644,160.668747 345.399994,166.783813 338.950165,172.598083 
	C335.915039,175.334106 332.358612,177.491821 328.661133,179.946014 
	C324.762573,181.412415 321.235748,182.830841 317.721039,184.278732 
	C302.555786,190.526138 289.166168,199.462524 279.908264,213.085358 
	C274.015137,221.757034 269.928955,231.656708 265.032501,241.005737 
	C260.015778,241.010986 254.999054,241.016235 249.520630,241.053421 
	C244.014008,225.427292 235.813248,211.650024 223.256317,200.982590 
	C216.873825,195.560486 209.631271,191.023132 202.360657,186.804169 
	C191.645538,180.586426 180.558151,175.010208 169.282074,169.105499 
	C164.843628,165.062485 160.752457,161.074768 156.330017,156.988800 
z"/>
<path fill="#FFEFD6" opacity="1.000000" stroke="none" 
	d="
M103.825195,180.127335 
	C104.244453,180.280182 104.218086,180.530136 103.821190,180.762787 
	C103.651360,180.616760 103.627663,180.443085 103.825195,180.127335 
z"/>
<path fill="#FFEFD6" opacity="1.000000" stroke="none" 
	d="
M215.826813,100.125671 
	C216.244766,100.281013 216.217331,100.530266 215.818481,100.758728 
	C215.650116,100.611366 215.628204,100.438583 215.826813,100.125671 
z"/>
<path fill="#FFEFD6" opacity="1.000000" stroke="none" 
	d="
M265.048248,241.410187 
	C269.928955,231.656708 274.015137,221.757034 279.908264,213.085358 
	C289.166168,199.462524 302.555786,190.526138 317.721039,184.278732 
	C321.235748,182.830841 324.762573,181.412415 328.506165,180.270691 
	C318.722839,198.850937 313.301941,218.381561 313.032898,239.260025 
	C312.951782,245.553268 316.097443,249.078262 321.211334,248.948776 
	C326.122894,248.824417 328.894135,245.426315 328.994446,239.337509 
	C329.264648,222.930466 333.133972,207.352875 340.300385,192.663651 
	C342.859070,187.419022 346.375885,182.641830 349.455353,177.651276 
	C349.975647,177.832474 350.495941,178.013687 351.016235,178.194901 
	C351.016235,188.755981 349.624939,199.555283 351.381653,209.815582 
	C353.405914,221.638199 357.924927,233.085678 361.952057,244.487122 
	C363.502899,248.877869 368.481964,250.063873 372.467926,248.180573 
	C376.411957,246.317093 377.929993,242.052017 376.216492,237.573654 
	C375.919800,236.798279 375.509766,236.066360 375.153442,235.313705 
	C367.181519,218.474182 364.867767,200.659760 366.142059,182.261765 
	C366.316833,179.738525 367.089691,177.256729 367.585663,174.755753 
	C370.076050,177.415756 371.609467,180.129623 372.931732,182.942749 
	C381.812408,201.836823 394.841705,217.394928 410.992859,230.458405 
	C415.157288,233.826691 420.026306,233.747269 423.038269,230.263824 
	C426.101227,226.721344 425.549469,221.484985 421.515533,218.388229 
	C407.972260,207.991287 397.135010,195.207748 389.345245,180.132172 
	C385.610199,172.903687 383.618134,164.774597 380.836731,157.053391 
	C384.699524,160.939545 388.562378,164.825699 392.877502,169.077148 
	C393.583008,169.660904 393.872345,169.808670 394.197754,169.885757 
	C394.197754,169.885757 394.191986,169.833618 394.215942,169.821899 
	C396.960419,173.482956 399.458557,177.348602 402.444305,180.791458 
	C410.608246,190.205231 419.040894,199.385452 427.249969,208.760757 
	C438.286133,221.364761 440.099701,235.774689 433.378021,250.634949 
	C426.849396,265.068420 414.670898,272.780884 398.846100,272.888641 
	C352.889160,273.201691 306.928741,272.998260 260.503662,272.995972 
	C261.713074,262.601166 263.388519,252.207916 265.048248,241.410187 
z"/>
<path fill="#ECD9C2" opacity="1.000000" stroke="none" 
	d="
M380.691528,156.760986 
	C383.618134,164.774597 385.610199,172.903687 389.345245,180.132172 
	C397.135010,195.207748 407.972260,207.991287 421.515533,218.388229 
	C425.549469,221.484985 426.101227,226.721344 423.038269,230.263824 
	C420.026306,233.747269 415.157288,233.826691 410.992859,230.458405 
	C394.841705,217.394928 381.812408,201.836823 372.931732,182.942749 
	C371.609467,180.129623 370.076050,177.415756 367.585663,174.755753 
	C367.089691,177.256729 366.316833,179.738525 366.142059,182.261765 
	C364.867767,200.659760 367.181519,218.474182 375.153442,235.313705 
	C375.509766,236.066360 375.919800,236.798279 376.216492,237.573654 
	C377.929993,242.052017 376.411957,246.317093 372.467926,248.180573 
	C368.481964,250.063873 363.502899,248.877869 361.952057,244.487122 
	C357.924927,233.085678 353.405914,221.638199 351.381653,209.815582 
	C349.624939,199.555283 351.016235,188.755981 351.016235,178.194901 
	C350.495941,178.013687 349.975647,177.832474 349.455353,177.651276 
	C346.375885,182.641830 342.859070,187.419022 340.300385,192.663651 
	C333.133972,207.352875 329.264648,222.930466 328.994446,239.337509 
	C328.894135,245.426315 326.122894,248.824417 321.211334,248.948776 
	C316.097443,249.078262 312.951782,245.553268 313.032898,239.260025 
	C313.301941,218.381561 318.722839,198.850937 328.883423,180.236267 
	C332.358612,177.491821 335.915039,175.334106 338.950165,172.598083 
	C345.399994,166.783813 351.578644,160.668747 357.938629,154.341980 
	C361.678009,151.178513 365.347198,148.350037 369.551300,145.109207 
	C373.084656,148.759644 376.815460,152.614105 380.691528,156.760986 
z"/>
<path fill="#ECD9C1" opacity="1.000000" stroke="none" 
	d="
M354.145325,145.389740 
	C344.702057,156.367477 334.937744,166.725037 321.287720,172.893036 
	C322.282928,167.667389 324.237701,162.463867 324.873474,157.103867 
	C326.551422,142.958923 319.248749,132.425003 310.193756,122.634933 
	C301.083221,112.784836 292.236847,102.690056 283.309082,92.671898 
	C282.785095,92.083939 282.567719,91.222794 282.190277,90.131493 
	C293.150604,95.538376 304.088257,101.380470 315.115326,107.048592 
	C332.010315,115.732941 345.238983,128.120346 354.145325,145.389740 
z"/>
<path fill="#ECD9C1" opacity="1.000000" stroke="none" 
	d="
M282.084839,89.639221 
	C281.872498,89.808098 281.583008,89.660339 281.157471,89.267365 
	C281.314026,89.193047 281.642792,89.293190 282.084839,89.639221 
z"/>
<path fill="#ECD9C2" opacity="1.000000" stroke="none" 
	d="
M394.084656,169.639862 
	C393.872345,169.808670 393.583008,169.660904 393.157654,169.268051 
	C393.314209,169.193756 393.642853,169.293869 394.084656,169.639862 
z"/>
<path fill="#ECD9C2" opacity="1.000000" stroke="none" 
	d="
M283.588440,193.090698 
	C283.262543,194.361832 282.662964,195.802292 281.633423,196.798279 
	C270.777344,207.300461 263.330078,219.858521 258.759735,234.197021 
	C258.429382,235.233383 257.832214,236.184692 256.908203,238.119873 
	C255.978149,235.805328 255.308975,234.385284 254.827774,232.904175 
	C250.441513,219.404053 243.508148,207.484894 233.179611,197.624405 
	C232.003693,196.501801 231.137085,195.055191 230.034500,193.439377 
	C247.666336,193.097839 265.390717,193.075760 283.588440,193.090698 
z"/>
<path fill="#ECD9C2" opacity="1.000000" stroke="none" 
	d="
M317.682007,175.129822 
	C313.998199,184.977310 305.077606,188.502914 296.013062,191.667358 
	C293.429932,192.569153 290.524933,192.549118 287.337372,192.926056 
	C293.344299,185.074081 302.685638,181.825653 311.317810,177.479065 
	C313.221222,176.520645 315.312347,175.935059 317.682007,175.129822 
z"/>
</svg>