<svg version="1.1" id="Layer_1" xmlns="http://www.w3.org/2000/svg" xmlns:xlink="http://www.w3.org/1999/xlink" x="0px" y="0px"
	 width="100%" viewBox="0 0 512 512" xml:space="preserve">

<path fill="#32394C" opacity="1.000000" stroke="none" 
	d="
M48.321892,265.676208 
	C40.097069,253.407578 32.320602,241.267487 23.959917,229.544037 
	C7.915949,207.047073 12.124777,181.314896 29.944578,162.369080 
	C44.767593,146.609406 62.897175,135.770142 81.399529,125.354736 
	C94.567528,117.942169 107.784325,110.549240 121.383522,103.984901 
	C143.568604,93.276169 166.836533,86.478302 191.827286,86.972572 
	C202.488831,87.183449 213.159531,86.894295 223.823395,87.034599 
	C242.120209,87.275314 260.414673,87.914642 278.710663,87.934830 
	C294.501709,87.952255 310.293762,87.355011 326.084839,87.004517 
	C348.612885,86.504494 369.872803,92.033913 390.200806,101.173981 
	C416.876373,113.168121 442.227570,127.673103 466.555023,143.861771 
	C479.644592,152.572159 490.751892,163.494400 498.661774,177.375519 
	C507.123962,192.225922 505.405518,215.462509 493.773132,229.554031 
	C477.696594,249.029236 466.379883,271.439758 453.586884,292.941925 
	C443.573975,309.771332 433.667267,326.672516 424.131531,343.774994 
	C414.265472,361.469849 404.751770,379.366547 395.373444,397.326111 
	C388.852997,409.812836 380.151520,420.348846 368.494843,428.160950 
	C355.864838,436.625366 341.801727,440.702789 326.551910,442.216034 
	C299.898315,444.860992 273.225891,446.645386 246.479034,445.847626 
	C228.437561,445.309509 210.445801,443.255646 192.414673,442.162109 
	C181.685379,441.511414 171.358673,439.400513 161.578247,434.984253 
	C145.820267,427.868866 133.411850,416.844727 124.975571,401.760254 
	C109.908852,374.820374 95.314636,347.616028 80.220375,320.691803 
	C69.915031,302.309753 59.095825,284.215729 48.321892,265.676208 
M422.603058,315.058868 
	C422.762665,314.697632 422.922272,314.336395 423.621887,313.564545 
	C424.908203,311.238281 426.144287,308.882538 427.489136,306.590637 
	C435.390167,293.125244 443.316559,279.674713 451.603424,265.926056 
	C451.234802,265.743408 450.866180,265.560760 449.863251,265.671356 
	C435.907806,273.464081 422.008301,281.359100 407.985413,289.028534 
	C377.667664,305.610046 345.439697,314.217468 310.654907,312.188416 
	C300.015076,311.567749 289.347198,311.004578 278.696625,311.076294 
	C253.050720,311.248932 227.402817,311.626678 201.764481,312.270477 
	C175.847321,312.921326 150.843979,308.693085 127.539795,297.362946 
	C107.947746,287.837585 89.015259,276.955963 69.782471,266.690338 
	C68.752457,266.140564 67.645294,265.735321 65.756866,264.902374 
	C75.747215,281.860992 85.197151,297.902313 94.894928,314.636200 
	C107.630486,339.879242 120.452240,365.079315 133.068390,390.381897 
	C140.311218,404.907928 150.964661,415.826813 165.541016,423.036499 
	C177.680862,429.041016 190.875961,429.714722 203.934723,430.901978 
	C244.195969,434.562561 284.413971,433.871552 324.655304,429.973602 
	C353.774078,427.153046 374.177704,413.149170 386.652344,386.487000 
	C397.290497,363.749939 409.162872,341.590454 420.469421,319.165436 
	C421.131958,317.851379 421.617096,316.447876 422.077637,315.012878 
	C422.077637,315.012878 422.002502,315.119110 422.603058,315.058868 
M369.251953,292.828949 
	C402.574860,280.512939 433.016785,262.742615 462.175232,242.783676 
	C469.883392,237.507446 476.822784,230.583038 482.710815,223.282730 
	C494.806183,208.286194 494.948456,191.003387 482.706390,176.108994 
	C475.925049,167.858444 467.857788,160.098434 458.958191,154.275192 
	C441.301453,142.721909 422.743317,132.529770 404.419281,122.016342 
	C372.252319,103.560478 337.643585,97.138863 300.671234,99.116531 
	C272.951660,100.599266 245.071075,100.036163 217.295425,99.233643 
	C189.902084,98.442162 162.967194,99.434853 137.453201,110.680214 
	C108.449608,123.463638 80.752686,138.711975 54.903793,157.046280 
	C47.406921,162.363693 40.574055,169.119705 34.858368,176.341370 
	C22.939352,191.400787 23.003065,208.123108 34.923508,223.136887 
	C40.449295,230.096619 46.836338,237.011948 54.249981,241.712418 
	C75.725609,255.328659 97.583954,268.429169 119.921936,280.573608 
	C144.083740,293.709564 170.077393,301.283905 197.935043,300.197327 
	C238.570023,298.612457 279.186707,298.630859 319.822723,300.172516 
	C336.413452,300.801941 352.694366,298.348358 369.251953,292.828949 
z"/>
<path fill="#F9BE6F" opacity="1.000000" stroke="none" 
	d="
M368.867615,292.928741 
	C352.694366,298.348358 336.413452,300.801941 319.822723,300.172516 
	C279.186707,298.630859 238.570023,298.612457 197.935043,300.197327 
	C170.077393,301.283905 144.083740,293.709564 119.921936,280.573608 
	C97.583954,268.429169 75.725609,255.328659 54.249981,241.712418 
	C46.836338,237.011948 40.449295,230.096619 34.923508,223.136887 
	C23.003065,208.123108 22.939352,191.400787 34.858368,176.341370 
	C40.574055,169.119705 47.406921,162.363693 54.903793,157.046280 
	C80.752686,138.711975 108.449608,123.463638 137.453201,110.680214 
	C162.967194,99.434853 189.902084,98.442162 217.295425,99.233643 
	C245.071075,100.036163 272.951660,100.599266 300.671234,99.116531 
	C337.643585,97.138863 372.252319,103.560478 404.419281,122.016342 
	C422.743317,132.529770 441.301453,142.721909 458.958191,154.275192 
	C467.857788,160.098434 475.925049,167.858444 482.706390,176.108994 
	C494.948456,191.003387 494.806183,208.286194 482.710815,223.282730 
	C476.822784,230.583038 469.883392,237.507446 462.175232,242.783676 
	C433.016785,262.742615 402.574860,280.512939 368.867615,292.928741 
M179.085358,260.871094 
	C178.723236,265.084442 180.708069,267.452576 184.800659,268.223663 
	C186.923264,268.623566 189.049545,269.034668 191.137787,269.580048 
	C195.555466,270.733734 198.641769,269.394653 201.029327,265.001251 
	C216.252487,266.345551 231.475647,267.689850 246.843796,269.784698 
	C247.293091,274.503967 250.457611,275.880890 254.540756,275.728027 
	C268.185608,275.217224 281.870483,275.093903 295.459015,273.899902 
	C323.947021,271.396698 351.765869,265.681122 378.131409,254.169098 
	C393.057739,247.651810 406.980652,239.557693 417.656708,226.886612 
	C431.919434,209.958572 432.177551,190.342667 418.190308,173.173477 
	C414.851074,169.074631 410.946136,165.308411 406.804596,162.013641 
	C388.717590,147.624603 367.595703,139.544907 345.500366,134.034378 
	C291.432678,120.550018 237.043976,120.206398 182.597351,131.572372 
	C158.667755,136.567810 135.717178,144.400192 115.460907,158.623856 
	C111.392487,161.480637 107.527206,164.736237 104.009605,168.249802 
	C84.173592,188.063126 84.299744,211.875839 104.274193,231.599533 
	C115.368690,242.554718 128.919052,249.592911 143.055328,255.723450 
	C146.974548,257.423126 150.091370,257.085785 153.697006,253.945892 
	C155.457901,254.354248 157.222824,254.746094 158.978973,255.173904 
	C165.679840,256.806396 172.377899,258.450409 179.085358,260.871094 
M448.806671,181.767105 
	C449.131256,182.348907 449.470001,182.923340 449.778320,183.513626 
	C455.409271,194.295273 458.148285,204.961502 449.344635,215.642899 
	C447.015442,218.468933 448.263306,221.342361 450.971252,223.458237 
	C453.725067,225.609985 456.408783,224.895798 458.570526,222.615433 
	C463.797577,217.101608 466.863556,210.543900 466.966431,202.860413 
	C467.169983,187.655731 460.280640,175.312286 450.958130,164.014969 
	C448.421112,160.940506 445.069824,159.613571 441.796356,162.303497 
	C438.723907,164.828186 439.495789,168.266144 441.566162,171.310532 
	C443.812927,174.614288 446.131226,177.869385 448.806671,181.767105 
M69.527428,179.997894 
	C70.433525,178.813339 72.004753,177.679977 72.100716,176.433075 
	C72.275146,174.166702 72.361984,170.820450 71.034660,169.785675 
	C69.407417,168.517075 65.794678,168.185913 63.907612,169.148941 
	C57.087822,172.629288 51.625103,186.132523 53.381069,193.527435 
	C54.267899,197.262146 56.286747,199.492340 60.392124,198.981186 
	C64.225800,198.503845 64.567780,195.713776 65.176773,192.521408 
	C65.955597,188.438797 67.712791,184.542801 69.527428,179.997894 
z"/>
<path fill="#F9BF6F" opacity="1.000000" stroke="none" 
	d="
M422.184814,315.085999 
	C421.617096,316.447876 421.131958,317.851379 420.469421,319.165436 
	C409.162872,341.590454 397.290497,363.749939 386.652344,386.487000 
	C374.177704,413.149170 353.774078,427.153046 324.655304,429.973602 
	C284.413971,433.871552 244.195969,434.562561 203.934723,430.901978 
	C190.875961,429.714722 177.680862,429.041016 165.541016,423.036499 
	C150.964661,415.826813 140.311218,404.907928 133.068390,390.381897 
	C120.452240,365.079315 107.630486,339.879242 95.144302,314.373596 
	C97.027504,314.906647 98.709671,315.616913 100.287971,316.510620 
	C125.132126,330.578644 150.851654,342.209991 179.748688,345.592896 
	C181.913086,356.087341 183.957535,366.186798 186.165527,376.250397 
	C188.339020,386.156860 190.648346,396.033936 192.959930,405.909454 
	C193.863480,409.769592 195.970520,412.438110 200.360474,411.259338 
	C204.607574,410.118835 205.375046,406.867432 204.469727,402.971283 
	C204.206238,401.837402 203.941330,400.703766 203.692093,399.566681 
	C199.776886,381.703125 195.864120,363.839020 192.422043,345.951508 
	C215.453293,345.285126 238.012741,344.165802 260.573456,344.138794 
	C281.472107,344.113739 302.372131,345.256836 323.235291,346.314880 
	C322.628510,349.509674 322.181305,352.307312 321.467102,355.035095 
	C317.296082,370.965210 313.013580,386.866241 308.881927,402.806458 
	C307.742981,407.200500 309.635773,410.761292 313.313538,411.390869 
	C317.453857,412.099640 319.486176,409.537079 320.416290,405.991272 
	C325.733337,385.722046 330.981079,365.434631 336.674866,345.122375 
	C362.398956,343.011566 385.337982,333.753387 407.494873,322.040405 
	C412.279755,319.510895 417.282440,317.393311 422.184814,315.085999 
z"/>
<path fill="#CD8B49" opacity="1.000000" stroke="none" 
	d="
M323.271545,345.885498 
	C302.372131,345.256836 281.472107,344.113739 260.573456,344.138794 
	C238.012741,344.165802 215.453293,345.285126 191.993866,345.952484 
	C187.296417,345.712067 183.498367,345.447144 179.700333,345.182220 
	C150.851654,342.209991 125.132126,330.578644 100.287971,316.510620 
	C98.709671,315.616913 97.027504,314.906647 95.020386,314.027283 
	C85.197151,297.902313 75.747215,281.860992 65.756866,264.902374 
	C67.645294,265.735321 68.752457,266.140564 69.782471,266.690338 
	C89.015259,276.955963 107.947746,287.837585 127.539795,297.362946 
	C150.843979,308.693085 175.847321,312.921326 201.764481,312.270477 
	C227.402817,311.626678 253.050720,311.248932 278.696625,311.076294 
	C289.347198,311.004578 300.015076,311.567749 310.654907,312.188416 
	C345.439697,314.217468 377.667664,305.610046 407.985413,289.028534 
	C422.008301,281.359100 435.907806,273.464081 450.362000,265.737305 
	C450.985291,265.941895 451.109863,266.080566 451.234436,266.219177 
	C443.316559,279.674713 435.390167,293.125244 427.489136,306.590637 
	C426.144287,308.882538 424.908203,311.238281 423.156830,313.947357 
	C422.462006,314.593140 422.232239,314.856140 422.002502,315.119110 
	C422.002502,315.119110 422.077637,315.012878 422.131226,315.049438 
	C417.282440,317.393311 412.279755,319.510895 407.494873,322.040405 
	C385.337982,333.753387 362.398956,343.011566 336.224792,345.095032 
	C331.325348,345.360962 327.298431,345.623230 323.271545,345.885498 
z"/>
<path fill="#CD8B49" opacity="1.000000" stroke="none" 
	d="
M450.679138,265.590698 
	C450.866180,265.560760 451.234802,265.743408 451.418945,266.072632 
	C451.109863,266.080566 450.985291,265.941895 450.679138,265.590698 
z"/>
<path fill="#F9BF6F" opacity="1.000000" stroke="none" 
	d="
M422.302795,315.088989 
	C422.232239,314.856140 422.462006,314.593140 422.886841,314.152649 
	C422.922272,314.336395 422.762665,314.697632 422.302795,315.088989 
z"/>
<path fill="#F3D764" opacity="1.000000" stroke="none" 
	d="
M246.698807,269.034180 
	C231.475647,267.689850 216.252487,266.345551 200.561157,264.610535 
	C199.927536,260.178497 197.531021,258.347076 193.785019,257.858948 
	C188.669022,257.192352 183.095001,253.515808 179.076996,260.090118 
	C172.377899,258.450409 165.679840,256.806396 158.978973,255.173904 
	C157.222824,254.746094 155.457901,254.354248 153.333954,253.509155 
	C154.044556,248.378998 151.549698,246.112167 147.546875,244.433792 
	C135.431000,239.353592 123.709961,233.566315 114.441338,223.877777 
	C120.012009,213.374619 127.753227,207.045242 140.018127,207.554581 
	C144.662430,207.747437 149.364838,207.482727 153.992050,206.979080 
	C171.944916,205.025024 188.481354,199.418732 201.999054,186.929764 
	C215.135742,174.792801 220.587189,152.641586 214.720001,138.368073 
	C250.652725,134.158798 285.999634,134.724686 321.150146,141.075455 
	C345.487701,145.472595 369.357819,151.741104 390.421295,165.215363 
	C398.111237,170.134598 405.254639,176.622772 410.969330,183.742172 
	C418.882996,193.601166 418.614624,205.536392 411.006226,215.681946 
	C406.689728,221.437897 401.234802,226.651489 395.413696,230.907043 
	C380.302521,241.954056 362.837006,248.071762 344.947418,252.927002 
	C315.838654,260.827087 286.098572,263.776154 256.015991,263.715454 
	C251.767181,263.706848 247.885849,263.890015 246.698807,269.034180 
M294.186340,188.474838 
	C295.023651,194.234909 298.045624,198.706558 302.563995,202.167038 
	C313.052368,210.199722 325.023010,213.815262 338.108093,212.722092 
	C349.530426,211.767838 359.060486,207.016556 363.914551,195.879135 
	C368.432739,185.512375 362.990601,177.701111 351.821991,178.074921 
	C349.995361,178.136047 348.103271,178.795242 346.366272,178.483200 
	C341.913086,177.683182 337.537262,176.460571 333.117096,175.466492 
	C328.997070,174.539932 324.725098,172.581100 320.761139,173.062485 
	C314.573792,173.813858 308.497009,175.975357 302.550751,178.048096 
	C298.142731,179.584595 294.781555,182.583206 294.186340,188.474838 
M251.717926,238.312576 
	C252.610825,237.336197 253.628464,236.446426 254.376328,235.369354 
	C259.112244,228.548920 257.951324,217.948929 246.921494,217.504227 
	C241.193710,217.273285 237.568207,213.864243 233.793289,210.268890 
	C228.880066,205.589371 224.005676,205.981049 219.681656,211.185974 
	C216.669037,214.812332 215.585831,219.158218 217.743073,223.267746 
	C220.170761,227.892456 223.070084,232.497025 226.677979,236.226364 
	C233.705170,243.490082 242.398117,244.075867 251.717926,238.312576 
z"/>
<path fill="#343B4C" opacity="1.000000" stroke="none" 
	d="
M114.226517,224.138626 
	C123.709961,233.566315 135.431000,239.353592 147.546875,244.433792 
	C151.549698,246.112167 154.044556,248.378998 152.927383,253.476425 
	C150.091370,257.085785 146.974548,257.423126 143.055328,255.723450 
	C128.919052,249.592911 115.368690,242.554718 104.274193,231.599533 
	C84.299744,211.875839 84.173592,188.063126 104.009605,168.249802 
	C107.527206,164.736237 111.392487,161.480637 115.460907,158.623856 
	C135.717178,144.400192 158.667755,136.567810 182.597351,131.572372 
	C237.043976,120.206398 291.432678,120.550018 345.500366,134.034378 
	C367.595703,139.544907 388.717590,147.624603 406.804596,162.013641 
	C410.946136,165.308411 414.851074,169.074631 418.190308,173.173477 
	C432.177551,190.342667 431.919434,209.958572 417.656708,226.886612 
	C406.980652,239.557693 393.057739,247.651810 378.131409,254.169098 
	C351.765869,265.681122 323.947021,271.396698 295.459015,273.899902 
	C281.870483,275.093903 268.185608,275.217224 254.540756,275.728027 
	C250.457611,275.880890 247.293091,274.503967 246.771301,269.409424 
	C247.885849,263.890015 251.767181,263.706848 256.015991,263.715454 
	C286.098572,263.776154 315.838654,260.827087 344.947418,252.927002 
	C362.837006,248.071762 380.302521,241.954056 395.413696,230.907043 
	C401.234802,226.651489 406.689728,221.437897 411.006226,215.681946 
	C418.614624,205.536392 418.882996,193.601166 410.969330,183.742172 
	C405.254639,176.622772 398.111237,170.134598 390.421295,165.215363 
	C369.357819,151.741104 345.487701,145.472595 321.150146,141.075455 
	C285.999634,134.724686 250.652725,134.158798 214.393127,138.381241 
	C197.960251,141.712769 182.133148,144.158798 166.764374,148.304123 
	C147.225067,153.574371 128.700562,161.489502 113.452095,175.469513 
	C97.103508,190.458115 97.430450,209.894394 114.226517,224.138626 
z"/>
<path fill="#D9974F" opacity="1.000000" stroke="none" 
	d="
M448.612488,181.456421 
	C446.131226,177.869385 443.812927,174.614288 441.566162,171.310532 
	C439.495789,168.266144 438.723907,164.828186 441.796356,162.303497 
	C445.069824,159.613571 448.421112,160.940506 450.958130,164.014969 
	C460.280640,175.312286 467.169983,187.655731 466.966431,202.860413 
	C466.863556,210.543900 463.797577,217.101608 458.570526,222.615433 
	C456.408783,224.895798 453.725067,225.609985 450.971252,223.458237 
	C448.263306,221.342361 447.015442,218.468933 449.344635,215.642899 
	C458.148285,204.961502 455.409271,194.295273 449.778320,183.513626 
	C449.470001,182.923340 449.131256,182.348907 448.612488,181.456421 
z"/>
<path fill="#D9974F" opacity="1.000000" stroke="none" 
	d="
M69.287888,180.282135 
	C67.712791,184.542801 65.955597,188.438797 65.176773,192.521408 
	C64.567780,195.713776 64.225800,198.503845 60.392124,198.981186 
	C56.286747,199.492340 54.267899,197.262146 53.381069,193.527435 
	C51.625103,186.132523 57.087822,172.629288 63.907612,169.148941 
	C65.794678,168.185913 69.407417,168.517075 71.034660,169.785675 
	C72.361984,170.820450 72.275146,174.166702 72.100716,176.433075 
	C72.004753,177.679977 70.433525,178.813339 69.287888,180.282135 
z"/>
<path fill="#373D4D" opacity="1.000000" stroke="none" 
	d="
M179.081177,260.480591 
	C183.095001,253.515808 188.669022,257.192352 193.785019,257.858948 
	C197.531021,258.347076 199.927536,260.178497 200.146957,264.600067 
	C198.641769,269.394653 195.555466,270.733734 191.137787,269.580048 
	C189.049545,269.034668 186.923264,268.623566 184.800659,268.223663 
	C180.708069,267.452576 178.723236,265.084442 179.081177,260.480591 
z"/>
<path fill="#D9974F" opacity="1.000000" stroke="none" 
	d="
M323.235291,346.314880 
	C327.298431,345.623230 331.325348,345.360962 335.802307,345.126038 
	C330.981079,365.434631 325.733337,385.722046 320.416290,405.991272 
	C319.486176,409.537079 317.453857,412.099640 313.313538,411.390869 
	C309.635773,410.761292 307.742981,407.200500 308.881927,402.806458 
	C313.013580,386.866241 317.296082,370.965210 321.467102,355.035095 
	C322.181305,352.307312 322.628510,349.509674 323.235291,346.314880 
z"/>
<path fill="#D9974F" opacity="1.000000" stroke="none" 
	d="
M179.748688,345.592896 
	C183.498367,345.447144 187.296417,345.712067 191.522614,345.976013 
	C195.864120,363.839020 199.776886,381.703125 203.692093,399.566681 
	C203.941330,400.703766 204.206238,401.837402 204.469727,402.971283 
	C205.375046,406.867432 204.607574,410.118835 200.360474,411.259338 
	C195.970520,412.438110 193.863480,409.769592 192.959930,405.909454 
	C190.648346,396.033936 188.339020,386.156860 186.165527,376.250397 
	C183.957535,366.186798 181.913086,356.087341 179.748688,345.592896 
z"/>
<path fill="#894201" opacity="1.000000" stroke="none" 
	d="
M114.441338,223.877777 
	C97.430450,209.894394 97.103508,190.458115 113.452095,175.469513 
	C128.700562,161.489502 147.225067,153.574371 166.764374,148.304123 
	C182.133148,144.158798 197.960251,141.712769 213.910660,138.498749 
	C220.587189,152.641586 215.135742,174.792801 201.999054,186.929764 
	C188.481354,199.418732 171.944916,205.025024 153.992050,206.979080 
	C149.364838,207.482727 144.662430,207.747437 140.018127,207.554581 
	C127.753227,207.045242 120.012009,213.374619 114.441338,223.877777 
z"/>
<path fill="#8A4301" opacity="1.000000" stroke="none" 
	d="
M294.190094,188.087433 
	C294.781555,182.583206 298.142731,179.584595 302.550751,178.048096 
	C308.497009,175.975357 314.573792,173.813858 320.761139,173.062485 
	C324.725098,172.581100 328.997070,174.539932 333.117096,175.466492 
	C337.537262,176.460571 341.913086,177.683182 346.366272,178.483200 
	C348.103271,178.795242 349.995361,178.136047 351.821991,178.074921 
	C362.990601,177.701111 368.432739,185.512375 363.914551,195.879135 
	C359.060486,207.016556 349.530426,211.767838 338.108093,212.722092 
	C325.023010,213.815262 313.052368,210.199722 302.563995,202.167038 
	C298.045624,198.706558 295.023651,194.234909 294.190094,188.087433 
z"/>
<path fill="#8A4301" opacity="1.000000" stroke="none" 
	d="
M251.430603,238.548431 
	C242.398117,244.075867 233.705170,243.490082 226.677979,236.226364 
	C223.070084,232.497025 220.170761,227.892456 217.743073,223.267746 
	C215.585831,219.158218 216.669037,214.812332 219.681656,211.185974 
	C224.005676,205.981049 228.880066,205.589371 233.793289,210.268890 
	C237.568207,213.864243 241.193710,217.273285 246.921494,217.504227 
	C257.951324,217.948929 259.112244,228.548920 254.376328,235.369354 
	C253.628464,236.446426 252.610825,237.336197 251.430603,238.548431 
z"/>
</svg>