<svg version="1.1" id="Layer_1" xmlns="http://www.w3.org/2000/svg" xmlns:xlink="http://www.w3.org/1999/xlink" x="0px" y="0px"
	 width="100%" viewBox="0 0 512 512" xml:space="preserve">

<path fill="#67C8D0" opacity="1.000000" stroke="none" 
	d="
M12.947418,240.907501 
	C13.568710,215.228699 19.744053,190.742691 28.975601,166.939774 
	C36.798908,146.767929 47.138245,127.882927 60.171551,110.674881 
	C69.987236,97.715096 80.429329,85.162689 93.403450,75.025658 
	C102.265381,68.101593 110.395996,60.118160 119.751465,53.975964 
	C136.882339,42.728939 154.525772,32.224152 174.598831,26.700310 
	C185.138794,23.799854 195.485260,20.154736 206.093430,17.558071 
	C213.499390,15.745246 221.191193,15.068769 228.774841,14.026731 
	C232.503662,13.514366 236.276794,13.324341 240.942612,12.986338 
	C252.267120,12.969833 262.678894,12.955435 273.090668,12.941035 
	C286.433685,14.981512 299.943176,16.280577 313.082092,19.230251 
	C334.645905,24.071310 355.825592,30.579298 374.910339,42.077831 
	C385.917755,48.709816 396.401031,56.292683 406.671082,64.042740 
	C415.235748,70.505844 423.713593,77.274330 431.244080,84.883232 
	C457.547394,111.460365 477.200684,142.300369 488.969482,177.971298 
	C494.374146,194.352631 498.386444,211.028778 500.015747,228.232468 
	C500.387115,232.153854 500.681824,236.082520 501.013336,240.934998 
	C501.025299,252.270645 501.035767,262.679108 501.046234,273.087585 
	C500.322876,298.598846 494.287354,322.923828 485.160583,346.657654 
	C477.313721,367.063110 466.707947,385.943909 453.754242,403.392334 
	C441.757660,419.551483 427.722809,433.844208 412.073242,446.725220 
	C395.358643,460.482788 377.184082,471.642242 357.680817,480.635376 
	C341.229034,488.221375 324.081268,494.127991 306.083008,496.942688 
	C295.435822,498.607758 284.695221,499.675232 273.067383,501.012573 
	C261.731262,501.028442 251.324356,501.043152 240.917450,501.057831 
	C222.667282,500.762421 204.978226,497.135071 187.540070,492.041718 
	C162.647644,484.771088 139.583420,473.695038 118.157753,459.075348 
	C102.447830,448.355743 88.216835,435.897186 75.497185,421.885681 
	C58.592796,403.264404 44.628983,382.486053 34.195446,359.540558 
	C24.770145,338.812439 17.938807,317.231812 15.008726,294.559937 
	C14.126677,287.734955 13.650769,280.857483 12.986752,273.074707 
	C12.972267,261.732727 12.959843,251.320114 12.947418,240.907501 
M185.683990,465.874969 
	C217.268112,476.490234 249.562378,480.132202 282.721710,476.159851 
	C334.305267,469.980316 378.710388,448.615479 414.615753,411.324371 
	C462.957092,361.117279 483.733795,300.718018 476.002838,231.245377 
	C470.181152,178.929932 447.977661,134.026550 409.829559,97.933594 
	C359.777679,50.578110 299.834625,30.371841 231.157242,37.968220 
	C179.546478,43.676861 135.148346,65.436806 99.295593,102.768188 
	C49.069969,155.065201 27.675224,218.053421 39.154633,289.754242 
	C53.007301,376.278564 103.198746,434.472260 185.683990,465.874969 
z"/>
<path fill="#97D3D9" opacity="1.000000" stroke="none" 
	d="
M241.140244,501.435730 
	C251.324356,501.043152 261.731262,501.028442 272.610687,501.035706 
	C271.912811,501.374084 270.742767,501.962494 269.571899,501.964020 
	C260.169006,501.976410 250.766006,501.878052 241.140244,501.435730 
z"/>
<path fill="#97D3D9" opacity="1.000000" stroke="none" 
	d="
M501.424622,272.863831 
	C501.035767,262.679108 501.025299,252.270645 501.036621,241.389694 
	C501.375092,242.088013 501.964325,243.258560 501.965393,244.429657 
	C501.973938,253.833084 501.871490,263.236603 501.424622,272.863831 
z"/>
<path fill="#96D3D8" opacity="1.000000" stroke="none" 
	d="
M12.567647,241.129517 
	C12.959843,251.320114 12.972267,261.732727 12.963187,272.618469 
	C12.626622,271.920959 12.040886,270.750671 12.039305,269.579590 
	C12.026606,260.170288 12.124084,250.760895 12.567647,241.129517 
z"/>
<path fill="#96D3D8" opacity="1.000000" stroke="none" 
	d="
M272.869080,12.561596 
	C262.678894,12.955435 252.267120,12.969833 241.382294,12.962561 
	C242.079849,12.626078 243.250046,12.040995 244.421143,12.039194 
	C253.829834,12.024716 263.238678,12.120257 272.869080,12.561596 
z"/>
<path fill="#E5E5E5" opacity="1.000000" stroke="none" 
	d="
M185.310944,465.750244 
	C103.198746,434.472260 53.007301,376.278564 39.154633,289.754242 
	C27.675224,218.053421 49.069969,155.065201 99.295593,102.768188 
	C135.148346,65.436806 179.546478,43.676861 231.157242,37.968220 
	C299.834625,30.371841 359.777679,50.578110 409.829559,97.933594 
	C447.977661,134.026550 470.181152,178.929932 476.002838,231.245377 
	C483.733795,300.718018 462.957092,361.117279 414.615753,411.324371 
	C378.710388,448.615479 334.305267,469.980316 282.721710,476.159851 
	C249.562378,480.132202 217.268112,476.490234 185.310944,465.750244 
M351.673218,429.205048 
	C356.715118,426.284607 361.851257,423.514465 366.784698,420.421051 
	C435.040802,377.622284 469.960754,298.382599 454.749847,220.855682 
	C435.168701,121.054390 345.275024,63.058033 262.438171,61.080009 
	C216.020752,59.971626 173.650467,73.182922 136.712692,100.982994 
	C72.450340,149.348068 45.342796,214.161850 59.705166,293.460266 
	C77.539803,391.929962 167.455978,450.850128 251.951141,452.943939 
	C286.996613,453.812378 319.957092,445.644318 351.673218,429.205048 
z"/>
<path fill="#CD4C4E" opacity="1.000000" stroke="none" 
	d="
M351.353455,429.393738 
	C319.957092,445.644318 286.996613,453.812378 251.951141,452.943939 
	C167.455978,450.850128 77.539803,391.929962 59.705166,293.460266 
	C45.342796,214.161850 72.450340,149.348068 136.712692,100.982994 
	C173.650467,73.182922 216.020752,59.971626 262.438171,61.080009 
	C345.275024,63.058033 435.168701,121.054390 454.749847,220.855682 
	C469.960754,298.382599 435.040802,377.622284 366.784698,420.421051 
	C361.851257,423.514465 356.715118,426.284607 351.353455,429.393738 
M202.774719,385.916046 
	C208.371384,379.772369 216.977158,375.989136 218.922729,366.981445 
	C218.306396,366.488739 217.690063,365.996033 217.073730,365.503326 
	C211.912750,372.206482 206.751770,378.909668 201.317505,385.941711 
	C201.384979,386.182678 201.452438,386.423676 201.519882,386.664642 
	C201.731689,386.499451 201.943481,386.334290 202.774719,385.916046 
M327.398499,223.307281 
	C327.545746,222.981964 327.692963,222.656647 328.240051,221.680481 
	C329.843994,218.677002 330.170013,214.592178 335.137054,214.500168 
	C335.745239,214.488892 336.289673,211.037598 336.863647,209.180496 
	C335.323792,208.971222 333.591309,208.220856 332.290771,208.683823 
	C330.494507,209.323227 329.023865,210.877350 327.161835,211.199509 
	C324.394073,201.708847 319.046661,193.644180 310.565308,188.939392 
	C303.957489,185.273849 300.251465,180.278961 297.225647,173.824951 
	C292.383392,163.496597 283.623657,158.085068 272.470032,158.429703 
	C264.258514,158.683426 257.646088,155.770081 250.752640,151.308655 
	C248.757904,150.234421 246.846863,148.948654 244.754639,148.120850 
	C232.697174,143.350311 229.690353,144.425629 223.763062,156.139771 
	C222.789566,158.063721 223.232971,160.704620 222.760437,163.646378 
	C219.256516,168.357956 215.035080,169.736145 209.038406,168.332977 
	C204.667252,167.310165 199.819107,168.325790 195.102341,167.442749 
	C195.831161,159.883667 195.533920,152.043610 197.510315,144.826157 
	C201.204315,131.336349 211.746582,116.379379 228.163010,119.220177 
	C233.998413,120.229973 239.411163,123.682205 244.747070,126.641319 
	C243.361053,128.691666 241.975037,130.742004 240.589020,132.792358 
	C241.040695,133.135117 241.492371,133.477859 241.944046,133.820618 
	C244.214874,132.060104 246.485687,130.299591 249.202866,129.107040 
	C254.798309,134.568192 260.231110,140.211243 266.054047,145.417999 
	C269.231903,148.259598 272.863403,150.768097 276.658417,152.705826 
	C282.867554,155.876175 289.887421,153.832153 293.878723,148.165894 
	C300.792206,138.351181 301.492401,127.788925 296.898315,116.946930 
	C292.401398,106.334099 283.785461,100.010651 273.342194,95.974152 
	C262.855469,91.920860 251.955780,91.691353 240.973663,93.052933 
	C226.644333,94.829506 213.736740,100.354774 203.985535,110.927681 
	C184.552658,131.998093 178.340088,157.755539 180.223083,185.723450 
	C180.615860,191.557083 182.765305,197.272461 184.250626,203.944901 
	C183.403839,225.547638 192.383942,245.263596 196.037872,266.791962 
	C197.733627,277.528168 200.939896,287.650909 207.658661,296.442352 
	C209.962524,299.456940 211.930405,302.728271 213.751297,306.567078 
	C210.631302,316.523407 206.885406,326.334961 204.540985,336.470673 
	C201.193298,350.943939 214.810440,363.707886 229.094147,360.210876 
	C238.342209,357.946747 243.841583,351.144073 249.646240,344.215149 
	C261.371704,353.917847 270.119751,355.046783 283.101074,347.447693 
	C289.749268,343.555908 295.710144,338.489868 302.573761,334.396088 
	C305.705322,333.716919 309.269012,333.760345 311.874786,332.202026 
	C316.690155,329.322266 321.267487,325.849701 325.371918,322.012238 
	C338.079346,310.131439 352.741516,304.667603 370.132660,307.299774 
	C378.306305,308.536865 384.866455,304.741699 386.696594,296.661743 
	C387.854889,291.547913 388.002228,286.112854 387.929688,280.831116 
	C387.762482,268.652191 383.927032,257.971558 373.828766,250.319748 
	C357.456940,237.914276 345.198059,238.746841 336.692352,257.581421 
	C335.390747,260.463715 333.980072,263.303406 332.470764,266.081787 
	C331.876587,267.175568 330.873962,268.047455 329.899719,268.118866 
	C328.573181,260.420197 327.246674,252.721542 325.904938,244.232819 
	C323.944885,238.464569 322.929688,232.769653 326.368896,227.086700 
	C327.041138,225.975922 326.861938,224.349854 327.005615,223.007843 
	C327.005615,223.007843 326.926666,223.035934 327.398499,223.307281 
M165.988739,158.760117 
	C166.310806,158.552002 166.632874,158.343887 167.616058,157.831635 
	C169.789474,156.442001 172.844360,155.531631 173.923401,153.546997 
	C175.427124,150.781219 176.516403,148.686707 179.963043,147.927902 
	C181.013809,147.696579 181.379761,144.354767 182.059341,142.437485 
	C180.351028,142.323990 178.608261,141.960052 176.947006,142.188583 
	C175.909729,142.331314 174.995422,143.367813 174.017563,143.088104 
	C174.557022,128.150497 171.169312,124.125183 157.875748,121.432907 
	C157.713760,121.400101 157.560257,121.327362 157.400864,121.279633 
	C151.289062,119.449486 149.058823,120.361076 146.706100,126.480591 
	C143.543823,134.705750 139.897232,142.878738 138.020981,151.417450 
	C136.758255,157.164108 137.311081,163.709503 138.655838,169.526749 
	C140.287445,176.584976 145.525589,177.480804 150.950058,172.565643 
	C152.055161,171.564301 153.344833,170.757904 154.397858,169.709412 
	C157.985825,166.136887 161.506073,162.496338 165.269852,158.816330 
	C165.269852,158.816330 165.444992,158.961227 165.988739,158.760117 
M155.006241,269.711365 
	C152.382416,257.380859 154.662445,246.255844 161.537430,235.472580 
	C167.462234,226.179611 166.375122,215.975266 161.152252,206.458664 
	C156.533905,198.043549 147.515976,195.862473 141.129501,201.452011 
	C127.154709,213.682968 117.107811,228.359833 115.351021,247.293961 
	C114.329414,258.304504 117.815674,272.209930 131.110611,275.799164 
	C135.046219,276.861664 138.428207,279.974884 141.797180,282.764313 
	C140.427826,284.596924 138.817352,286.305542 137.785614,288.311798 
	C137.226913,289.398224 137.655212,290.992249 137.638260,292.357269 
	C138.809998,292.153534 140.095779,292.187073 141.127090,291.691284 
	C142.726395,290.922394 144.152206,289.792603 146.200684,289.372314 
	C146.800781,291.080963 147.831619,292.764587 147.932648,294.502258 
	C148.722610,308.087799 149.111267,321.699738 150.089188,335.270020 
	C150.623825,342.688751 151.496765,350.177734 153.224274,357.393951 
	C155.864792,368.423981 164.781128,374.338959 176.696869,374.006226 
	C184.330566,373.793060 189.178192,368.855438 191.298920,357.102142 
	C192.673508,349.484039 193.172531,341.552460 192.830811,333.815765 
	C192.284088,321.437775 188.544693,309.665710 180.403152,300.207794 
	C172.978485,291.582672 164.342697,284.000061 156.207840,275.142029 
	C155.812820,273.599762 155.417801,272.057495 155.006241,269.711365 
M394.934387,187.822098 
	C391.341858,184.229248 388.324646,179.566742 384.039368,177.261887 
	C374.550507,172.158264 370.447601,164.547852 368.739624,154.272247 
	C367.146790,144.689270 364.834625,135.016068 361.212677,126.038780 
	C357.538818,116.932854 348.921021,113.754738 342.814850,118.434105 
	C338.619934,121.648827 334.973938,126.159988 332.441223,130.828690 
	C328.571442,137.962173 329.137360,146.154282 330.588287,153.814728 
	C333.911377,171.359848 341.802124,176.036728 358.977875,171.542007 
	C359.138885,171.499878 359.295929,171.442032 359.457794,171.404099 
	C364.933136,170.120605 368.669342,171.688904 370.800018,176.824677 
	C371.982239,179.674301 373.208862,183.002762 372.833374,185.911118 
	C371.541687,195.915283 369.537354,205.826813 367.834290,215.778717 
	C366.531250,223.393158 366.019409,230.996353 368.994629,238.374390 
	C372.524170,247.127045 379.998535,250.027084 388.347534,245.783783 
	C394.489899,242.661987 398.137573,237.361053 399.993958,230.885437 
	C403.701202,217.953278 402.635406,205.230759 398.051422,192.047287 
	C398.380371,190.289688 398.709320,188.532089 399.250488,185.640503 
	C397.227875,187.086319 396.240845,187.791885 394.934387,187.822098 
M424.996704,259.709747 
	C424.994354,262.875549 425.601990,266.199249 424.833923,269.166870 
	C423.892242,272.805450 422.700867,277.560669 419.994171,279.284973 
	C415.912079,281.885468 413.778229,276.485046 410.871063,274.311890 
	C408.387085,272.455078 405.629730,270.964020 402.993286,269.311188 
	C401.358673,272.232941 399.637695,275.111664 398.146271,278.104767 
	C397.741638,278.916840 397.893188,280.092468 398.022186,281.070526 
	C399.171967,289.787384 400.020111,298.564240 401.652252,307.191925 
	C403.587280,317.420624 405.249634,327.499451 401.627899,337.691559 
	C398.568542,346.301178 393.325928,348.317383 385.397339,343.535889 
	C381.984192,341.477478 378.887909,338.900665 375.533569,336.736115 
	C371.013123,333.818970 367.321442,334.471466 364.454041,338.922089 
	C357.981049,348.969147 357.168335,359.654938 362.851746,370.115204 
	C364.507874,373.163330 368.509613,376.030548 371.932617,376.815216 
	C381.304413,378.963593 390.480957,376.593903 398.948151,372.447449 
	C423.159149,360.591156 437.432251,340.146362 446.197144,315.549347 
	C454.297272,292.817749 456.914764,269.256073 453.851624,245.253113 
	C452.394897,233.838501 450.211182,222.533798 443.482025,212.724854 
	C438.112183,204.897446 431.044647,204.833405 427.064392,213.451401 
	C424.343628,219.342422 422.422974,226.130417 422.291870,232.561172 
	C422.114136,241.276169 423.991547,250.033081 424.996704,259.709747 
M75.478462,203.040009 
	C73.971802,207.090637 72.348236,211.102173 70.978546,215.198608 
	C64.763504,233.786362 64.639977,252.909683 67.253815,271.974945 
	C69.571434,288.879578 74.246323,305.229523 84.083916,319.604828 
	C87.457916,324.535095 91.540085,329.830231 97.891701,328.612152 
	C104.452591,327.353943 107.199257,321.114349 108.757301,314.907928 
	C111.359474,304.542206 109.517395,294.815582 104.394775,285.564789 
	C100.852730,279.168304 96.509598,273.032562 94.109222,266.221741 
	C87.446655,247.317444 89.665138,228.636353 97.268227,210.342300 
	C99.481583,205.016663 101.736160,199.565414 102.807037,193.949615 
	C103.791130,188.788925 100.282745,184.000259 95.830093,182.550415 
	C91.035904,180.989395 87.562119,183.752029 85.121414,187.097824 
	C81.621216,191.895996 78.880737,197.248367 75.478462,203.040009 
M284.244751,363.758881 
	C278.046539,365.700958 271.868958,367.712128 265.645172,369.568420 
	C256.971344,372.155365 254.350052,378.465912 258.974579,386.336945 
	C260.739258,389.340485 262.770508,392.234009 265.005127,394.905975 
	C271.252899,402.376373 275.428558,412.083435 286.761566,414.065033 
	C289.940155,414.620789 291.685272,414.485352 294.101166,412.109802 
	C300.721283,405.600281 301.282990,397.059265 303.158905,388.831940 
	C304.808167,381.598846 303.744507,375.280670 299.736481,368.880951 
	C293.398560,358.761139 294.591827,360.554077 284.244751,363.758881 
M309.767334,364.596039 
	C308.252625,364.794159 306.737915,364.992279 303.972870,365.353912 
	C309.002167,371.173370 312.948273,375.839386 317.040100,380.373962 
	C317.708405,381.114594 319.376129,381.921967 319.972900,381.593140 
	C322.749939,380.062988 323.768829,381.670807 325.019226,383.674255 
	C325.710236,384.781494 326.983826,385.525146 328.393890,386.790955 
	C330.673920,381.167023 328.121613,378.300781 324.569580,375.690216 
	C319.794067,372.180450 315.118134,368.535217 309.767334,364.596039 
z"/>
<path fill="#F2F2F1" opacity="1.000000" stroke="none" 
	d="
M195.183609,168.432678 
	C199.819107,168.325790 204.667252,167.310165 209.038406,168.332977 
	C215.035080,169.736145 219.256516,168.357956 223.185532,163.174744 
	C230.991074,154.665283 238.893921,147.957397 250.998077,151.945282 
	C257.646088,155.770081 264.258514,158.683426 272.470032,158.429703 
	C283.623657,158.085068 292.383392,163.496597 297.225647,173.824951 
	C300.251465,180.278961 303.957489,185.273849 310.565308,188.939392 
	C319.046661,193.644180 324.394073,201.708847 327.141510,211.867706 
	C324.407288,214.373138 321.846008,216.514374 318.941620,217.972046 
	C315.152893,219.873520 313.297302,222.646255 312.850800,227.523422 
	C318.032379,225.861649 322.553925,224.411560 327.075439,222.961456 
	C326.861938,224.349854 327.041138,225.975922 326.368896,227.086700 
	C322.929688,232.769653 323.944885,238.464569 325.706329,244.960037 
	C325.000427,249.946350 324.757172,254.258514 323.914612,258.450226 
	C322.996155,263.019562 321.522064,267.477264 320.152557,271.618347 
	C318.097992,265.709290 316.181091,260.165558 314.264160,254.621811 
	C313.869568,254.750153 313.475006,254.878479 313.080414,255.006821 
	C315.584534,263.960419 318.088623,272.914001 320.219910,281.958832 
	C318.978333,282.985992 317.720367,283.773682 317.299042,284.879974 
	C310.509430,302.709473 296.749603,314.351318 281.538361,324.409851 
	C276.716431,327.598358 270.763947,330.039459 265.071411,330.744751 
	C253.893005,332.129761 246.172897,325.154938 239.250000,317.389557 
	C235.846832,313.572235 232.404358,309.789917 229.027832,305.607666 
	C231.324677,297.196106 232.971786,289.142029 230.817734,280.919891 
	C230.376541,280.877045 229.935333,280.834198 229.494125,280.791351 
	C228.595779,288.188568 227.697449,295.585815 226.535461,302.795441 
	C219.518387,294.912476 212.634537,287.326294 206.063614,279.478149 
	C202.488419,275.208008 199.444717,270.492889 196.161316,265.978485 
	C192.383942,245.263596 183.403839,225.547638 184.322968,203.112976 
	C184.598724,200.476089 184.766647,198.666260 185.011459,196.866928 
	C186.398331,186.673798 188.278915,176.653336 195.183609,168.432678 
M258.457123,247.414597 
	C262.162659,238.304794 263.433105,229.006454 261.667419,219.473038 
	C261.073669,219.423538 260.479889,219.374039 259.886108,219.324554 
	C259.179504,228.844025 258.472870,238.363510 258.133026,248.035538 
	C258.022949,248.230682 257.912872,248.425842 257.802795,248.620987 
	C257.697388,248.533829 257.488922,248.397690 257.503296,248.367432 
	C257.597260,248.169724 257.739471,247.994934 258.457123,247.414597 
M208.504639,236.925217 
	C206.960693,239.359604 205.416748,241.793991 203.872803,244.228378 
	C204.283600,244.551498 204.694412,244.874619 205.105209,245.197739 
	C206.970917,244.583099 208.841904,243.983948 210.701309,243.350830 
	C215.490891,241.720062 221.049423,241.119339 221.999771,234.462708 
	C222.083420,233.876907 223.852921,233.628693 224.708069,233.034622 
	C226.198303,231.999390 228.009995,231.059174 228.845596,229.598007 
	C229.291061,228.819031 228.041351,225.947601 227.441635,225.911072 
	C225.840424,225.813553 223.971756,226.419434 222.575897,227.316223 
	C218.006592,230.251907 213.600281,233.441330 208.504639,236.925217 
M274.502380,288.926300 
	C269.367920,295.172211 264.233459,301.418121 259.098999,307.664032 
	C259.503845,308.020721 259.908691,308.377441 260.313538,308.734131 
	C264.691040,304.578094 269.225861,300.570709 273.366302,296.190552 
	C274.955841,294.509003 275.691986,291.997528 276.660065,289.795258 
	C276.738617,289.616547 275.599792,288.902740 274.502380,288.926300 
M289.106354,220.464691 
	C289.569061,222.390656 290.031738,224.316635 290.494415,226.242599 
	C291.201202,217.988815 290.055573,210.255295 283.961853,204.206223 
	C283.054565,203.305603 281.095734,203.464340 279.623352,203.132996 
	C280.051178,204.495895 280.066895,206.585999 280.975342,207.100784 
	C285.963257,209.927338 287.690887,214.620895 289.106354,220.464691 
M273.536499,248.158478 
	C272.608490,249.702484 271.680511,251.246475 270.214325,253.685883 
	C278.013763,250.540192 281.113312,246.501816 279.522034,241.701324 
	C277.531830,243.823090 275.763672,245.708160 273.536499,248.158478 
z"/>
<path fill="#C13D43" opacity="1.000000" stroke="none" 
	d="
M424.992035,259.240875 
	C423.991547,250.033081 422.114136,241.276169 422.291870,232.561172 
	C422.422974,226.130417 424.343628,219.342422 427.064392,213.451401 
	C431.044647,204.833405 438.112183,204.897446 443.482025,212.724854 
	C450.211182,222.533798 452.394897,233.838501 453.851624,245.253113 
	C456.914764,269.256073 454.297272,292.817749 446.197144,315.549347 
	C437.432251,340.146362 423.159149,360.591156 398.948151,372.447449 
	C390.480957,376.593903 381.304413,378.963593 371.932617,376.815216 
	C368.509613,376.030548 364.507874,373.163330 362.851746,370.115204 
	C357.168335,359.654938 357.981049,348.969147 364.454041,338.922089 
	C367.321442,334.471466 371.013123,333.818970 375.533569,336.736115 
	C378.887909,338.900665 381.984192,341.477478 385.397339,343.535889 
	C393.325928,348.317383 398.568542,346.301178 401.627899,337.691559 
	C405.249634,327.499451 403.587280,317.420624 401.652252,307.191925 
	C400.020111,298.564240 399.171967,289.787384 398.022186,281.070526 
	C397.893188,280.092468 397.741638,278.916840 398.146271,278.104767 
	C399.637695,275.111664 401.358673,272.232941 402.993286,269.311188 
	C405.629730,270.964020 408.387085,272.455078 410.871063,274.311890 
	C413.778229,276.485046 415.912079,281.885468 419.994171,279.284973 
	C422.700867,277.560669 423.892242,272.805450 424.833923,269.166870 
	C425.601990,266.199249 424.994354,262.875549 424.992035,259.240875 
z"/>
<path fill="#C13D43" opacity="1.000000" stroke="none" 
	d="
M195.142975,167.937714 
	C188.278915,176.653336 186.398331,186.673798 185.011459,196.866928 
	C184.766647,198.666260 184.598724,200.476089 184.250244,202.661697 
	C182.765305,197.272461 180.615860,191.557083 180.223083,185.723450 
	C178.340088,157.755539 184.552658,131.998093 203.985535,110.927681 
	C213.736740,100.354774 226.644333,94.829506 240.973663,93.052933 
	C251.955780,91.691353 262.855469,91.920860 273.342194,95.974152 
	C283.785461,100.010651 292.401398,106.334099 296.898315,116.946930 
	C301.492401,127.788925 300.792206,138.351181 293.878723,148.165894 
	C289.887421,153.832153 282.867554,155.876175 276.658417,152.705826 
	C272.863403,150.768097 269.231903,148.259598 266.054047,145.417999 
	C260.231110,140.211243 254.798309,134.568192 249.109848,128.528137 
	C249.535583,126.420410 250.054321,124.891579 250.573074,123.362755 
	C250.198425,123.109192 249.823761,122.855621 249.449097,122.602058 
	C247.971695,123.741203 246.494278,124.880341 245.016861,126.019485 
	C239.411163,123.682205 233.998413,120.229973 228.163010,119.220177 
	C211.746582,116.379379 201.204315,131.336349 197.510315,144.826157 
	C195.533920,152.043610 195.831161,159.883667 195.142975,167.937714 
z"/>
<path fill="#C13D43" opacity="1.000000" stroke="none" 
	d="
M75.647186,202.702057 
	C78.880737,197.248367 81.621216,191.895996 85.121414,187.097824 
	C87.562119,183.752029 91.035904,180.989395 95.830093,182.550415 
	C100.282745,184.000259 103.791130,188.788925 102.807037,193.949615 
	C101.736160,199.565414 99.481583,205.016663 97.268227,210.342300 
	C89.665138,228.636353 87.446655,247.317444 94.109222,266.221741 
	C96.509598,273.032562 100.852730,279.168304 104.394775,285.564789 
	C109.517395,294.815582 111.359474,304.542206 108.757301,314.907928 
	C107.199257,321.114349 104.452591,327.353943 97.891701,328.612152 
	C91.540085,329.830231 87.457916,324.535095 84.083916,319.604828 
	C74.246323,305.229523 69.571434,288.879578 67.253815,271.974945 
	C64.639977,252.909683 64.763504,233.786362 70.978546,215.198608 
	C72.348236,211.102173 73.971802,207.090637 75.647186,202.702057 
z"/>
<path fill="#C13D43" opacity="1.000000" stroke="none" 
	d="
M397.878326,192.740082 
	C402.635406,205.230759 403.701202,217.953278 399.993958,230.885437 
	C398.137573,237.361053 394.489899,242.661987 388.347534,245.783783 
	C379.998535,250.027084 372.524170,247.127045 368.994629,238.374390 
	C366.019409,230.996353 366.531250,223.393158 367.834290,215.778717 
	C369.537354,205.826813 371.541687,195.915283 372.833374,185.911118 
	C373.208862,183.002762 371.982239,179.674301 370.800018,176.824677 
	C368.669342,171.688904 364.933136,170.120605 359.457794,171.404099 
	C359.295929,171.442032 359.138885,171.499878 358.977875,171.542007 
	C341.802124,176.036728 333.911377,171.359848 330.588287,153.814728 
	C329.137360,146.154282 328.571442,137.962173 332.441223,130.828690 
	C334.973938,126.159988 338.619934,121.648827 342.814850,118.434105 
	C348.921021,113.754738 357.538818,116.932854 361.212677,126.038780 
	C364.834625,135.016068 367.146790,144.689270 368.739624,154.272247 
	C370.447601,164.547852 374.550507,172.158264 384.039368,177.261887 
	C388.324646,179.566742 391.341858,184.229248 394.950378,188.440857 
	C390.511353,194.912476 386.056305,200.765335 381.467621,206.774399 
	C381.398224,207.161987 381.462524,207.393372 381.526794,207.624756 
	C381.724701,207.461029 381.922607,207.297302 382.419250,206.982895 
	C387.771454,202.134842 392.824890,197.437469 397.878326,192.740082 
z"/>
<path fill="#C13D43" opacity="1.000000" stroke="none" 
	d="
M330.057373,269.020386 
	C330.873962,268.047455 331.876587,267.175568 332.470764,266.081787 
	C333.980072,263.303406 335.390747,260.463715 336.692352,257.581421 
	C345.198059,238.746841 357.456940,237.914276 373.828766,250.319748 
	C383.927032,257.971558 387.762482,268.652191 387.929688,280.831116 
	C388.002228,286.112854 387.854889,291.547913 386.696594,296.661743 
	C384.866455,304.741699 378.306305,308.536865 370.132660,307.299774 
	C352.741516,304.667603 338.079346,310.131439 325.371918,322.012238 
	C321.267487,325.849701 316.690155,329.322266 311.874786,332.202026 
	C309.269012,333.760345 305.705322,333.716919 302.442322,333.887726 
	C313.110138,324.219116 321.054718,313.024750 324.514893,299.270264 
	C327.010498,289.350037 328.254913,279.115021 330.057373,269.020386 
z"/>
<path fill="#C13D43" opacity="1.000000" stroke="none" 
	d="
M156.240707,275.957977 
	C164.342697,284.000061 172.978485,291.582672 180.403152,300.207794 
	C188.544693,309.665710 192.284088,321.437775 192.830811,333.815765 
	C193.172531,341.552460 192.673508,349.484039 191.298920,357.102142 
	C189.178192,368.855438 184.330566,373.793060 176.696869,374.006226 
	C164.781128,374.338959 155.864792,368.423981 153.224274,357.393951 
	C151.496765,350.177734 150.623825,342.688751 150.089188,335.270020 
	C149.111267,321.699738 148.722610,308.087799 147.932648,294.502258 
	C147.831619,292.764587 146.800781,291.080963 146.129639,288.821960 
	C149.452621,284.167084 152.846664,280.062531 156.240707,275.957977 
z"/>
<path fill="#E6E5E5" opacity="1.000000" stroke="none" 
	d="
M329.978546,268.569641 
	C328.254913,279.115021 327.010498,289.350037 324.514893,299.270264 
	C321.054718,313.024750 313.110138,324.219116 302.146240,333.666931 
	C295.710144,338.489868 289.749268,343.555908 283.101074,347.447693 
	C270.119751,355.046783 261.371704,353.917847 249.191589,343.777405 
	C237.175232,330.853912 225.613510,318.368103 214.051788,305.882324 
	C211.930405,302.728271 209.962524,299.456940 207.658661,296.442352 
	C200.939896,287.650909 197.733627,277.528168 196.099594,266.385223 
	C199.444717,270.492889 202.488419,275.208008 206.063614,279.478149 
	C212.634537,287.326294 219.518387,294.912476 226.596161,303.164368 
	C227.606918,304.477875 228.293289,305.234833 228.979660,305.991791 
	C232.404358,309.789917 235.846832,313.572235 239.250000,317.389557 
	C246.172897,325.154938 253.893005,332.129761 265.071411,330.744751 
	C270.763947,330.039459 276.716431,327.598358 281.538361,324.409851 
	C296.749603,314.351318 310.509430,302.709473 317.299042,284.879974 
	C317.720367,283.773682 318.978333,282.985992 320.366180,282.228790 
	C321.180115,282.649475 321.474915,282.891449 321.769775,283.133423 
	C321.852417,282.992218 322.024353,282.837006 322.004761,282.711792 
	C321.445038,279.133881 320.866089,275.559021 320.290222,271.983643 
	C321.522064,267.477264 322.996155,263.019562 323.914612,258.450226 
	C324.757172,254.258514 325.000427,249.946350 325.713928,245.355072 
	C327.246674,252.721542 328.573181,260.420197 329.978546,268.569641 
z"/>
<path fill="#C13D43" opacity="1.000000" stroke="none" 
	d="
M142.063889,282.148346 
	C138.428207,279.974884 135.046219,276.861664 131.110611,275.799164 
	C117.815674,272.209930 114.329414,258.304504 115.351021,247.293961 
	C117.107811,228.359833 127.154709,213.682968 141.129501,201.452011 
	C147.515976,195.862473 156.533905,198.043549 161.152252,206.458664 
	C166.375122,215.975266 167.462234,226.179611 161.537430,235.472580 
	C154.662445,246.255844 152.382416,257.380859 154.655975,270.213928 
	C150.225113,274.527130 146.144501,278.337738 142.063889,282.148346 
z"/>
<path fill="#C13D43" opacity="1.000000" stroke="none" 
	d="
M284.619934,363.628326 
	C294.591827,360.554077 293.398560,358.761139 299.736481,368.880951 
	C303.744507,375.280670 304.808167,381.598846 303.158905,388.831940 
	C301.282990,397.059265 300.721283,405.600281 294.101166,412.109802 
	C291.685272,414.485352 289.940155,414.620789 286.761566,414.065033 
	C275.428558,412.083435 271.252899,402.376373 265.005127,394.905975 
	C262.770508,392.234009 260.739258,389.340485 258.974579,386.336945 
	C254.350052,378.465912 256.971344,372.155365 265.645172,369.568420 
	C271.868958,367.712128 278.046539,365.700958 284.619934,363.628326 
z"/>
<path fill="#C13E43" opacity="1.000000" stroke="none" 
	d="
M213.901550,306.224701 
	C225.613510,318.368103 237.175232,330.853912 248.883636,343.637604 
	C243.841583,351.144073 238.342209,357.946747 229.094147,360.210876 
	C214.810440,363.707886 201.193298,350.943939 204.540985,336.470673 
	C206.885406,326.334961 210.631302,316.523407 213.901550,306.224701 
z"/>
<path fill="#C13D43" opacity="1.000000" stroke="none" 
	d="
M165.052170,158.881760 
	C161.506073,162.496338 157.985825,166.136887 154.397858,169.709412 
	C153.344833,170.757904 152.055161,171.564301 150.950058,172.565643 
	C145.525589,177.480804 140.287445,176.584976 138.655838,169.526749 
	C137.311081,163.709503 136.758255,157.164108 138.020981,151.417450 
	C139.897232,142.878738 143.543823,134.705750 146.706100,126.480591 
	C149.058823,120.361076 151.289062,119.449486 157.400864,121.279633 
	C157.560257,121.327362 157.713760,121.400101 157.875748,121.432907 
	C171.169312,124.125183 174.557022,128.150497 173.852875,143.837906 
	C170.346390,146.885468 167.076935,149.298950 163.641647,151.447189 
	C160.448196,153.444229 158.083054,155.736435 158.533310,160.240204 
	C160.938049,159.739090 162.995102,159.310425 165.052170,158.881760 
z"/>
<path fill="#73B018" opacity="1.000000" stroke="none" 
	d="
M165.161011,158.849045 
	C162.995102,159.310425 160.938049,159.739090 158.533310,160.240204 
	C158.083054,155.736435 160.448196,153.444229 163.641647,151.447189 
	C167.076935,149.298950 170.346390,146.885468 173.857071,144.295471 
	C174.995422,143.367813 175.909729,142.331314 176.947006,142.188583 
	C178.608261,141.960052 180.351028,142.323990 182.059341,142.437485 
	C181.379761,144.354767 181.013809,147.696579 179.963043,147.927902 
	C176.516403,148.686707 175.427124,150.781219 173.923401,153.546997 
	C172.844360,155.531631 169.789474,156.442001 166.987457,158.024139 
	C166.054245,158.464844 165.749619,158.713028 165.444992,158.961227 
	C165.444992,158.961227 165.269852,158.816330 165.161011,158.849045 
z"/>
<path fill="#74B019" opacity="1.000000" stroke="none" 
	d="
M310.083374,364.772095 
	C315.118134,368.535217 319.794067,372.180450 324.569580,375.690216 
	C328.121613,378.300781 330.673920,381.167023 328.393890,386.790955 
	C326.983826,385.525146 325.710236,384.781494 325.019226,383.674255 
	C323.768829,381.670807 322.749939,380.062988 319.972900,381.593140 
	C319.376129,381.921967 317.708405,381.114594 317.040100,380.373962 
	C312.948273,375.839386 309.002167,371.173370 303.972870,365.353912 
	C306.737915,364.992279 308.252625,364.794159 310.083374,364.772095 
z"/>
<path fill="#74B41C" opacity="1.000000" stroke="none" 
	d="
M327.040527,222.984650 
	C322.553925,224.411560 318.032379,225.861649 312.850800,227.523422 
	C313.297302,222.646255 315.152893,219.873520 318.941620,217.972046 
	C321.846008,216.514374 324.407288,214.373138 327.267456,212.287796 
	C329.023865,210.877350 330.494507,209.323227 332.290771,208.683823 
	C333.591309,208.220856 335.323792,208.971222 336.863647,209.180496 
	C336.289673,211.037598 335.745239,214.488892 335.137054,214.500168 
	C330.170013,214.592178 329.843994,218.677002 327.844360,222.054245 
	C327.227448,222.590073 327.053436,222.792709 326.926666,223.035934 
	C326.926666,223.035934 327.005615,223.007843 327.040527,222.984650 
z"/>
<path fill="#72B118" opacity="1.000000" stroke="none" 
	d="
M141.930542,282.456329 
	C146.144501,278.337738 150.225113,274.527130 154.664246,270.615875 
	C155.417801,272.057495 155.812820,273.599762 156.224274,275.549988 
	C152.846664,280.062531 149.452621,284.167084 145.855072,288.543762 
	C144.152206,289.792603 142.726395,290.922394 141.127090,291.691284 
	C140.095779,292.187073 138.809998,292.153534 137.638260,292.357269 
	C137.655212,290.992249 137.226913,289.398224 137.785614,288.311798 
	C138.817352,286.305542 140.427826,284.596924 141.930542,282.456329 
z"/>
<path fill="#C24147" opacity="1.000000" stroke="none" 
	d="
M250.875366,151.626968 
	C238.893921,147.957397 230.991074,154.665283 223.316071,162.858643 
	C223.232971,160.704620 222.789566,158.063721 223.763062,156.139771 
	C229.690353,144.425629 232.697174,143.350311 244.754639,148.120850 
	C246.846863,148.948654 248.757904,150.234421 250.875366,151.626968 
z"/>
<path fill="#77AA1A" opacity="1.000000" stroke="none" 
	d="
M381.601288,206.618195 
	C386.056305,200.765335 390.511353,194.912476 395.110077,188.778534 
	C396.240845,187.791885 397.227875,187.086319 399.250488,185.640503 
	C398.709320,188.532089 398.380371,190.289688 397.964874,192.393692 
	C392.824890,197.437469 387.771454,202.134842 382.290588,206.852905 
	C381.863190,206.873581 381.601288,206.618195 381.601288,206.618195 
z"/>
<path fill="#78AB1C" opacity="1.000000" stroke="none" 
	d="
M201.590790,385.612823 
	C206.751770,378.909668 211.912750,372.206482 217.073730,365.503326 
	C217.690063,365.996033 218.306396,366.488739 218.922729,366.981445 
	C216.977158,375.989136 208.371384,379.772369 202.325104,385.902283 
	C201.875473,385.888519 201.590805,385.612823 201.590790,385.612823 
z"/>
<path fill="#75AD1A" opacity="1.000000" stroke="none" 
	d="
M244.881958,126.330399 
	C246.494278,124.880341 247.971695,123.741203 249.449097,122.602058 
	C249.823761,122.855621 250.198425,123.109192 250.573074,123.362755 
	C250.054321,124.891579 249.535583,126.420410 248.886673,128.244156 
	C246.485687,130.299591 244.214874,132.060104 241.944046,133.820618 
	C241.492371,133.477859 241.040695,133.135117 240.589020,132.792358 
	C241.975037,130.742004 243.361053,128.691666 244.881958,126.330399 
z"/>
<path fill="#F2F2F1" opacity="1.000000" stroke="none" 
	d="
M327.162598,223.171600 
	C327.053436,222.792709 327.227448,222.590073 327.644470,222.379669 
	C327.692963,222.656647 327.545746,222.981964 327.162598,223.171600 
z"/>
<path fill="#C13D43" opacity="1.000000" stroke="none" 
	d="
M165.716858,158.860672 
	C165.749619,158.713028 166.054245,158.464844 166.656906,158.176224 
	C166.632874,158.343887 166.310806,158.552002 165.716858,158.860672 
z"/>
<path fill="#78AB1C" opacity="1.000000" stroke="none" 
	d="
M202.015381,386.028809 
	C201.943481,386.334290 201.731689,386.499451 201.519897,386.664642 
	C201.452438,386.423676 201.384979,386.182678 201.454163,385.777283 
	C201.590805,385.612823 201.875473,385.888519 202.015381,386.028809 
z"/>
<path fill="#74B71F" opacity="1.000000" stroke="none" 
	d="
M208.817963,236.729218 
	C213.600281,233.441330 218.006592,230.251907 222.575897,227.316223 
	C223.971756,226.419434 225.840424,225.813553 227.441635,225.911072 
	C228.041351,225.947601 229.291061,228.819031 228.845596,229.598007 
	C228.009995,231.059174 226.198303,231.999390 224.708069,233.034622 
	C223.852921,233.628693 222.083420,233.876907 221.999771,234.462708 
	C221.049423,241.119339 215.490891,241.720062 210.701309,243.350830 
	C208.841904,243.983948 206.970917,244.583099 205.105209,245.197739 
	C204.694412,244.874619 204.283600,244.551498 203.872803,244.228378 
	C205.416748,241.793991 206.960693,239.359604 208.817963,236.729218 
z"/>
<path fill="#7DBB2D" opacity="1.000000" stroke="none" 
	d="
M257.766266,247.882996 
	C258.472870,238.363510 259.179504,228.844025 259.886108,219.324554 
	C260.479889,219.374039 261.073669,219.423538 261.667419,219.473038 
	C263.433105,229.006454 262.162659,238.304794 258.144043,247.641724 
	C257.830933,247.868835 257.766266,247.882996 257.766266,247.882996 
z"/>
<path fill="#7CBB2C" opacity="1.000000" stroke="none" 
	d="
M274.764526,288.681946 
	C275.599792,288.902740 276.738617,289.616547 276.660065,289.795258 
	C275.691986,291.997528 274.955841,294.509003 273.366302,296.190552 
	C269.225861,300.570709 264.691040,304.578094 260.313538,308.734131 
	C259.908691,308.377441 259.503845,308.020721 259.098999,307.664032 
	C264.233459,301.418121 269.367920,295.172211 274.764526,288.681946 
z"/>
<path fill="#7EBC2F" opacity="1.000000" stroke="none" 
	d="
M229.027832,305.607666 
	C228.293289,305.234833 227.606918,304.477875 226.859818,303.351990 
	C227.697449,295.585815 228.595779,288.188568 229.494125,280.791351 
	C229.935333,280.834198 230.376541,280.877045 230.817734,280.919891 
	C232.971786,289.142029 231.324677,297.196106 229.027832,305.607666 
z"/>
<path fill="#7CBB2C" opacity="1.000000" stroke="none" 
	d="
M289.041626,220.074463 
	C287.690887,214.620895 285.963257,209.927338 280.975342,207.100784 
	C280.066895,206.585999 280.051178,204.495895 279.623352,203.132996 
	C281.095734,203.464340 283.054565,203.305603 283.961853,204.206223 
	C290.055573,210.255295 291.201202,217.988815 290.494415,226.242599 
	C290.031738,224.316635 289.569061,222.390656 289.041626,220.074463 
z"/>
<path fill="#85BF3B" opacity="1.000000" stroke="none" 
	d="
M320.152588,271.618347 
	C320.866089,275.559021 321.445038,279.133881 322.004761,282.711792 
	C322.024353,282.837006 321.852417,282.992218 321.769775,283.133423 
	C321.474915,282.891449 321.180115,282.649475 320.739014,282.137543 
	C318.088623,272.914001 315.584534,263.960419 313.080414,255.006821 
	C313.475006,254.878479 313.869568,254.750153 314.264160,254.621811 
	C316.181091,260.165558 318.097992,265.709290 320.152588,271.618347 
z"/>
<path fill="#79BA27" opacity="1.000000" stroke="none" 
	d="
M273.765991,247.875854 
	C275.763672,245.708160 277.531830,243.823090 279.522034,241.701324 
	C281.113312,246.501816 278.013763,250.540192 270.214325,253.685883 
	C271.680511,251.246475 272.608490,249.702484 273.765991,247.875854 
z"/>
<path fill="#7DBB2D" opacity="1.000000" stroke="none" 
	d="
M257.848419,247.840744 
	C257.739471,247.994934 257.597260,248.169724 257.503296,248.367432 
	C257.488922,248.397690 257.697388,248.533829 257.802795,248.620987 
	C257.912872,248.425842 258.022949,248.230682 257.949646,247.959259 
	C257.766266,247.882996 257.830933,247.868835 257.848419,247.840744 
z"/>
<path fill="#77AA1A" opacity="1.000000" stroke="none" 
	d="
M381.991852,207.003571 
	C381.922607,207.297302 381.724701,207.461029 381.526794,207.624756 
	C381.462524,207.393372 381.398224,207.161987 381.467621,206.774399 
	C381.601288,206.618195 381.863190,206.873581 381.991852,207.003571 
z"/>
</svg>