<svg version="1.1" id="Layer_1" xmlns="http://www.w3.org/2000/svg" xmlns:xlink="http://www.w3.org/1999/xlink" x="0px" y="0px"
	 width="100%" viewBox="0 0 512 512" enable-background="new 0 0 512 512" xml:space="preserve">
<path fill="none" opacity="1.000000" stroke="none" 
	d="
M290.000000,513.000000 
	C193.356796,513.000000 97.213585,513.000000 1.035192,513.000000 
	C1.035192,342.398438 1.035192,171.796860 1.035192,1.097646 
	C171.559891,1.097646 342.119843,1.097646 512.839905,1.097646 
	C512.839905,171.666550 512.839905,342.333252 512.839905,513.000000 
	C438.796844,513.000000 364.648407,513.000000 290.000000,513.000000 
M476.589996,185.718155 
	C476.723785,178.232208 477.080566,170.741531 476.921234,163.261826 
	C476.792023,157.197784 476.968628,152.796738 483.941925,149.185410 
	C496.134186,142.871277 497.433563,131.105927 495.050171,118.474586 
	C490.884155,96.395218 471.664276,79.523300 450.621368,80.088692 
	C448.840027,80.136551 445.630219,81.191193 445.593079,81.908173 
	C445.477844,84.130989 446.082794,86.739632 447.309875,88.605568 
	C449.389771,91.768333 452.489990,94.261429 454.560303,97.428848 
	C457.593048,102.068588 456.462738,108.796234 452.296448,111.812492 
	C451.459290,110.388504 450.565094,109.036240 449.836670,107.599907 
	C446.222565,100.473495 442.652313,93.324844 439.066345,86.184158 
	C438.543549,85.143074 438.278534,83.748543 437.441589,83.136345 
	C435.759491,81.905861 433.751678,80.379242 431.905029,80.413544 
	C430.913452,80.431953 429.008026,83.533485 429.165497,85.075150 
	C430.815460,101.224106 432.587219,117.367805 434.774933,133.451797 
	C435.999878,142.457626 441.862976,148.043762 450.000000,151.660248 
	C451.370209,152.269226 452.765778,154.457474 452.863739,155.997818 
	C453.212097,161.474808 453.320038,167.008759 452.944550,172.481735 
	C452.057526,185.410675 451.637054,187.061447 437.382294,192.073700 
	C436.475647,190.983200 435.537872,189.855286 434.591766,188.717331 
	C437.529358,183.469528 438.373230,178.191101 435.226349,173.009567 
	C432.468201,168.468170 427.901215,167.630020 423.010529,168.094177 
	C416.643127,168.698456 415.804993,167.549835 418.280975,161.354141 
	C421.673126,152.865784 425.207489,144.430511 428.392578,135.865265 
	C429.404144,133.145020 430.269714,129.706039 426.206970,128.344910 
	C422.695526,127.168472 421.133545,129.365921 420.015930,132.387299 
	C417.939880,137.999710 415.105438,143.384583 413.554352,149.125626 
	C411.286804,157.518372 407.232330,162.370804 397.828827,160.031372 
	C397.516663,159.953690 397.143066,159.960526 396.835388,160.052612 
	C394.080902,160.876953 392.827362,159.871841 391.807739,157.104507 
	C388.707733,148.690887 385.129089,140.454956 381.889954,132.090515 
	C380.677429,128.959290 378.500336,126.924332 375.536072,128.441513 
	C374.079437,129.187042 373.740936,132.401825 373.237488,134.578094 
	C373.049408,135.391068 373.806885,136.438171 374.174866,137.361908 
	C377.434326,145.544052 380.722900,153.714630 383.962250,161.904709 
	C386.117065,167.352844 385.019348,168.812820 379.383453,168.120621 
	C368.569000,166.792358 361.488617,175.703476 365.978394,185.490372 
	C367.566986,188.953171 366.776917,190.563461 363.904053,192.292130 
	C362.049316,191.410812 360.298950,190.450241 358.455353,189.727509 
	C353.206848,187.669983 349.800018,184.346619 349.702393,178.293228 
	C349.576660,170.494415 349.116486,162.696945 349.197601,154.903046 
	C349.210236,153.689545 351.114960,152.015152 352.518860,151.377167 
	C359.888367,148.028198 365.283630,142.944000 366.942291,134.845917 
	C368.169464,128.854401 368.844238,122.740486 369.571808,116.657974 
	C370.792206,106.455383 371.944489,96.242607 372.924042,86.014824 
	C373.144012,83.718033 373.761078,80.775406 370.060669,80.104134 
	C366.759857,79.505348 365.261902,81.401024 363.980682,84.013557 
	C360.095978,91.934776 356.126190,99.814850 352.116577,107.673729 
	C351.351685,109.172867 350.253662,110.502029 349.216217,112.048416 
	C344.420563,106.750771 344.859619,99.712975 349.979950,93.627548 
	C351.691437,91.593491 354.068604,90.031227 355.422913,87.814339 
	C356.414978,86.190361 356.710999,83.760429 356.357697,81.868935 
	C356.200165,81.025368 353.607880,79.973991 352.252502,80.134041 
	C347.029419,80.750824 341.548706,81.009567 336.725220,82.862556 
	C318.442963,89.885818 308.421509,103.689301 306.160767,122.987808 
	C304.820038,134.432846 308.147797,145.731918 322.363312,151.827789 
	C323.656799,152.382462 324.832367,154.799850 324.885193,156.391296 
	C325.144806,164.214584 324.400543,172.114548 325.211914,179.861633 
	C325.797882,185.456223 327.586487,191.193024 330.105774,196.233063 
	C332.162964,200.348587 336.094788,203.527054 338.928802,206.811905 
	C336.884583,208.091019 333.681885,208.929901 332.931976,210.768951 
	C329.925903,218.140823 327.398254,225.744003 325.254669,233.418320 
	C323.867188,238.385574 325.638184,240.240234 330.811829,241.060242 
	C339.165466,242.384262 347.503082,243.809128 355.851501,245.166779 
	C361.044495,246.011276 360.981110,249.785873 361.072754,253.834000 
	C361.170349,258.144440 358.389618,258.553162 355.281677,258.992706 
	C346.584137,260.222839 337.886047,261.454071 329.205475,262.796783 
	C325.969330,263.297363 323.807556,262.698792 322.801270,259.114014 
	C321.454132,254.314758 319.523804,249.680908 318.124237,244.894073 
	C317.080719,241.324997 314.979645,238.711700 311.474335,240.434036 
	C309.972717,241.171860 308.994659,245.329498 309.551422,247.472855 
	C311.428345,254.698608 314.011230,261.749451 316.509766,268.801453 
	C317.635773,271.979523 319.649933,273.114197 323.487946,272.477295 
	C336.013672,270.398651 348.638397,268.916412 361.060791,267.227051 
	C363.871643,273.299652 363.866180,278.612183 360.923737,280.463501 
	C354.312134,284.623413 347.647369,288.722198 340.782501,292.435944 
	C339.449738,293.156891 336.595123,292.644745 335.332764,291.612579 
	C331.867371,288.779175 328.842743,285.398529 325.706818,282.173035 
	C323.307098,279.704742 320.235901,278.744873 317.828613,281.108582 
	C315.507538,283.387604 316.660858,286.257111 319.009247,288.530579 
	C323.438385,292.818420 327.946228,297.053345 332.040344,301.649658 
	C335.206665,305.204346 337.933868,305.425995 341.902527,302.813507 
	C348.763824,298.296844 355.983704,294.324982 363.418060,289.907745 
	C364.082336,292.126099 364.776550,293.522156 364.889191,294.963623 
	C365.986420,309.006287 366.901703,323.063416 368.044067,337.102173 
	C368.795990,346.342987 369.901154,355.554535 370.721130,364.790497 
	C371.216217,370.366455 371.646637,375.698883 367.670746,380.785095 
	C361.035675,389.273071 355.402161,398.539795 348.848267,407.096680 
	C343.311432,414.325623 347.244049,424.638977 358.033234,424.950195 
	C362.695282,425.084686 367.364227,425.014435 372.029755,424.988007 
	C381.584869,424.933868 389.990814,422.089569 396.636383,414.887573 
	C397.941772,413.472870 399.493103,412.285065 400.889557,411.029816 
	C404.733643,414.271576 407.843445,417.683289 411.652832,419.884033 
	C415.440491,422.072235 419.840088,423.899323 424.134064,424.356506 
	C431.372192,425.127106 438.831604,425.450378 446.028198,424.571594 
	C455.292389,423.440338 458.557037,413.985016 453.063629,406.523590 
	C446.672638,397.843048 440.653107,388.882233 434.073578,380.350586 
	C431.269318,376.714264 430.662964,372.978668 431.002228,368.752106 
	C431.360046,364.294342 431.692200,359.834442 432.064453,355.377930 
	C433.705811,335.728180 435.332581,316.077057 437.043488,296.433350 
	C437.219910,294.408020 437.921326,292.428436 438.514587,289.835510 
	C446.477753,294.622131 453.718842,298.947174 460.928955,303.323212 
	C463.560181,304.920197 465.943817,305.694855 468.511871,303.018585 
	C473.356476,297.969910 478.348907,293.061310 483.340973,288.156647 
	C485.576721,285.960022 486.405609,282.860870 484.119049,281.248383 
	C482.563751,280.151550 478.678864,280.766693 476.815765,282.044830 
	C473.437225,284.362671 470.529541,287.533569 467.908539,290.743042 
	C465.157318,294.112030 462.633423,293.812134 459.369049,291.701782 
	C454.483673,288.543427 449.409576,285.677673 444.426147,282.670258 
	C438.714722,279.223511 437.525635,275.933899 440.118683,269.549988 
	C440.538757,268.515717 442.502991,267.324524 443.590088,267.465546 
	C455.422882,268.999969 467.242706,270.665344 479.018707,272.585449 
	C482.050232,273.079773 484.090454,272.339600 485.030823,269.664032 
	C487.784302,261.829773 490.514099,253.971786 492.739777,245.980103 
	C493.192383,244.354996 491.910889,241.007874 490.538208,240.369446 
	C487.610687,239.007858 485.194885,240.639420 484.146332,243.948502 
	C482.589386,248.861908 480.664032,253.669342 479.324951,258.637634 
	C478.244812,262.645050 476.050415,263.324982 472.287994,262.678741 
	C463.960632,261.248505 455.572205,260.167145 447.198669,259.016113 
	C443.983978,258.574219 440.758942,258.491638 440.958282,253.817673 
	C441.138000,249.603058 441.485229,245.846848 446.815369,245.040588 
	C454.848511,243.825424 462.847137,242.383820 470.867310,241.080765 
	C476.727509,240.128616 478.179932,238.065063 476.483063,232.240814 
	C474.994781,227.132599 473.226959,222.102051 471.464355,217.078659 
	C469.883331,212.572708 469.811218,206.689713 461.210510,207.894592 
	C468.834686,201.144836 474.579285,195.178467 476.589996,185.718155 
M196.927017,274.592285 
	C198.014694,280.262543 198.308685,286.174255 202.873352,290.647125 
	C203.613708,291.372589 203.525681,293.461060 203.154663,294.723907 
	C198.984985,308.916229 194.688004,323.071136 190.418808,337.234161 
	C187.652985,346.409821 181.404877,350.984894 171.954300,352.254150 
	C169.596664,352.570801 166.498703,355.253693 165.789795,357.496552 
	C165.213516,359.319763 167.071548,363.003540 168.938217,364.324799 
	C178.623718,371.180420 189.219666,372.524689 199.895615,366.883911 
	C204.534637,364.432831 208.497437,360.701965 213.157227,357.264801 
	C212.480301,366.389008 210.101349,374.940338 206.413864,383.148254 
	C200.616669,396.052063 192.524811,407.217773 181.436722,416.166321 
	C178.373016,418.638855 176.953476,421.892792 179.016159,425.909393 
	C181.155991,430.076202 185.032593,429.628052 188.164642,428.577667 
	C194.080292,426.593750 199.991989,424.235779 205.389481,421.135223 
	C223.556335,410.699554 235.038345,394.906189 240.467941,374.810486 
	C242.530518,367.176605 243.685959,359.297577 245.501846,350.307587 
	C246.499161,355.946320 247.312332,360.326691 248.044617,364.720551 
	C251.825394,387.406372 262.039551,406.301910 281.704987,418.879547 
	C288.559113,423.263306 296.553741,426.021088 304.289124,428.790741 
	C307.301819,429.869446 310.772827,428.888123 312.262909,424.730804 
	C313.670715,420.803040 312.069824,418.218842 309.351746,416.018921 
	C295.089355,404.475433 285.780548,389.678680 280.648285,372.210571 
	C279.257843,367.478149 278.604126,362.529297 277.612274,357.679779 
	C278.134216,357.462433 278.656158,357.245087 279.178070,357.027771 
	C280.470123,358.530151 281.670746,360.124115 283.068909,361.520233 
	C293.078094,371.514740 309.406616,373.032928 321.169891,365.312103 
	C324.435181,363.168945 326.074982,360.075043 324.639618,356.917755 
	C323.652313,354.746124 320.544647,352.614655 318.090942,352.198914 
	C309.106445,350.676575 303.168793,345.767548 300.371063,337.375000 
	C297.011047,327.295624 294.364563,316.979858 291.082306,306.872559 
	C288.363007,298.498657 287.424957,291.001556 290.918671,281.903961 
	C294.681458,272.105652 295.303986,260.817993 295.804718,250.110382 
	C296.791168,229.017090 296.046753,207.937759 291.153717,187.205734 
	C290.863373,185.975479 291.811157,183.598892 292.867523,183.032150 
	C310.614990,173.510971 314.193268,155.899826 301.995789,139.475601 
	C290.614471,124.150299 279.477020,108.632164 268.639008,92.918335 
	C257.269714,76.434219 235.900421,74.948570 223.954575,90.856567 
	C210.794937,108.380920 198.253891,126.385117 185.879440,144.478516 
	C177.331940,156.976288 182.195618,174.797302 195.702393,181.737335 
	C198.982651,183.422806 199.912598,185.044708 198.985825,188.637512 
	C193.442200,210.128189 193.536285,232.095520 194.164185,254.040207 
	C194.352631,260.625793 195.879318,267.173065 196.927017,274.592285 
M150.173904,307.700470 
	C151.141647,304.523224 152.096298,301.341888 153.079208,298.169342 
	C161.629318,270.571747 165.627365,242.168320 166.773285,213.441345 
	C167.326843,199.563736 165.893433,185.585709 165.000900,171.676178 
	C163.386810,146.521790 157.529236,122.230896 150.014755,98.232437 
	C145.355774,83.353401 129.184769,76.141960 116.252342,81.563744 
	C99.339767,88.654175 86.241692,100.898941 74.984550,115.126152 
	C63.694572,129.394897 56.147675,145.529388 51.344086,163.053558 
	C50.820229,164.964661 48.587902,167.481750 46.803898,167.802231 
	C33.211369,170.244064 16.991993,184.892059 17.897663,203.567535 
	C18.518290,216.365219 17.998449,229.217392 18.026655,242.045120 
	C18.036169,246.372498 17.534939,250.820511 18.340588,255.006821 
	C22.846804,278.421997 35.687805,296.456665 58.250565,303.906403 
	C70.372467,307.908783 74.167831,315.056244 77.346870,325.191956 
	C78.718086,329.563782 78.762245,333.457947 77.657417,337.788239 
	C73.471130,354.196167 69.422058,370.640900 65.522964,387.119507 
	C63.490589,395.708923 70.168602,408.244781 78.241745,411.579315 
	C98.660263,420.012848 119.290276,420.132843 139.990219,412.808929 
	C151.697098,408.666870 157.997452,397.538116 155.270554,385.562317 
	C151.821442,370.414642 148.118958,355.319763 144.212006,340.283630 
	C142.622726,334.167297 142.185989,328.442352 144.900513,322.496002 
	C146.958267,317.988342 148.306900,313.156952 150.173904,307.700470 
z"/>
<path fill="#353434" opacity="1.000000" stroke="none" 
	d="
M476.433899,186.117508 
	C474.579285,195.178467 468.834686,201.144836 461.210510,207.894592 
	C469.811218,206.689713 469.883331,212.572708 471.464355,217.078659 
	C473.226959,222.102051 474.994781,227.132599 476.483063,232.240814 
	C478.179932,238.065063 476.727509,240.128616 470.867310,241.080765 
	C462.847137,242.383820 454.848511,243.825424 446.815369,245.040588 
	C441.485229,245.846848 441.138000,249.603058 440.958282,253.817673 
	C440.758942,258.491638 443.983978,258.574219 447.198669,259.016113 
	C455.572205,260.167145 463.960632,261.248505 472.287994,262.678741 
	C476.050415,263.324982 478.244812,262.645050 479.324951,258.637634 
	C480.664032,253.669342 482.589386,248.861908 484.146332,243.948502 
	C485.194885,240.639420 487.610687,239.007858 490.538208,240.369446 
	C491.910889,241.007874 493.192383,244.354996 492.739777,245.980103 
	C490.514099,253.971786 487.784302,261.829773 485.030823,269.664032 
	C484.090454,272.339600 482.050232,273.079773 479.018707,272.585449 
	C467.242706,270.665344 455.422882,268.999969 443.590088,267.465546 
	C442.502991,267.324524 440.538757,268.515717 440.118683,269.549988 
	C437.525635,275.933899 438.714722,279.223511 444.426147,282.670258 
	C449.409576,285.677673 454.483673,288.543427 459.369049,291.701782 
	C462.633423,293.812134 465.157318,294.112030 467.908539,290.743042 
	C470.529541,287.533569 473.437225,284.362671 476.815765,282.044830 
	C478.678864,280.766693 482.563751,280.151550 484.119049,281.248383 
	C486.405609,282.860870 485.576721,285.960022 483.340973,288.156647 
	C478.348907,293.061310 473.356476,297.969910 468.511871,303.018585 
	C465.943817,305.694855 463.560181,304.920197 460.928955,303.323212 
	C453.718842,298.947174 446.477753,294.622131 438.514587,289.835510 
	C437.921326,292.428436 437.219910,294.408020 437.043488,296.433350 
	C435.332581,316.077057 433.705811,335.728180 432.064453,355.377930 
	C431.692200,359.834442 431.360046,364.294342 431.002228,368.752106 
	C430.662964,372.978668 431.269318,376.714264 434.073578,380.350586 
	C440.653107,388.882233 446.672638,397.843048 453.063629,406.523590 
	C458.557037,413.985016 455.292389,423.440338 446.028198,424.571594 
	C438.831604,425.450378 431.372192,425.127106 424.134064,424.356506 
	C419.840088,423.899323 415.440491,422.072235 411.652832,419.884033 
	C407.843445,417.683289 404.733643,414.271576 400.889557,411.029816 
	C399.493103,412.285065 397.941772,413.472870 396.636383,414.887573 
	C389.990814,422.089569 381.584869,424.933868 372.029755,424.988007 
	C367.364227,425.014435 362.695282,425.084686 358.033234,424.950195 
	C347.244049,424.638977 343.311432,414.325623 348.848267,407.096680 
	C355.402161,398.539795 361.035675,389.273071 367.670746,380.785095 
	C371.646637,375.698883 371.216217,370.366455 370.721130,364.790497 
	C369.901154,355.554535 368.795990,346.342987 368.044067,337.102173 
	C366.901703,323.063416 365.986420,309.006287 364.889191,294.963623 
	C364.776550,293.522156 364.082336,292.126099 363.418060,289.907745 
	C355.983704,294.324982 348.763824,298.296844 341.902527,302.813507 
	C337.933868,305.425995 335.206665,305.204346 332.040344,301.649658 
	C327.946228,297.053345 323.438385,292.818420 319.009247,288.530579 
	C316.660858,286.257111 315.507538,283.387604 317.828613,281.108582 
	C320.235901,278.744873 323.307098,279.704742 325.706818,282.173035 
	C328.842743,285.398529 331.867371,288.779175 335.332764,291.612579 
	C336.595123,292.644745 339.449738,293.156891 340.782501,292.435944 
	C347.647369,288.722198 354.312134,284.623413 360.923737,280.463501 
	C363.866180,278.612183 363.871643,273.299652 361.060791,267.227051 
	C348.638397,268.916412 336.013672,270.398651 323.487946,272.477295 
	C319.649933,273.114197 317.635773,271.979523 316.509766,268.801453 
	C314.011230,261.749451 311.428345,254.698608 309.551422,247.472855 
	C308.994659,245.329498 309.972717,241.171860 311.474335,240.434036 
	C314.979645,238.711700 317.080719,241.324997 318.124237,244.894073 
	C319.523804,249.680908 321.454132,254.314758 322.801270,259.114014 
	C323.807556,262.698792 325.969330,263.297363 329.205475,262.796783 
	C337.886047,261.454071 346.584137,260.222839 355.281677,258.992706 
	C358.389618,258.553162 361.170349,258.144440 361.072754,253.834000 
	C360.981110,249.785873 361.044495,246.011276 355.851501,245.166779 
	C347.503082,243.809128 339.165466,242.384262 330.811829,241.060242 
	C325.638184,240.240234 323.867188,238.385574 325.254669,233.418320 
	C327.398254,225.744003 329.925903,218.140823 332.931976,210.768951 
	C333.681885,208.929901 336.884583,208.091019 338.928802,206.811905 
	C336.094788,203.527054 332.162964,200.348587 330.105774,196.233063 
	C327.586487,191.193024 325.797882,185.456223 325.211914,179.861633 
	C324.400543,172.114548 325.144806,164.214584 324.885193,156.391296 
	C324.832367,154.799850 323.656799,152.382462 322.363312,151.827789 
	C308.147797,145.731918 304.820038,134.432846 306.160767,122.987808 
	C308.421509,103.689301 318.442963,89.885818 336.725220,82.862556 
	C341.548706,81.009567 347.029419,80.750824 352.252502,80.134041 
	C353.607880,79.973991 356.200165,81.025368 356.357697,81.868935 
	C356.710999,83.760429 356.414978,86.190361 355.422913,87.814339 
	C354.068604,90.031227 351.691437,91.593491 349.979950,93.627548 
	C344.859619,99.712975 344.420563,106.750771 349.216217,112.048416 
	C350.253662,110.502029 351.351685,109.172867 352.116577,107.673729 
	C356.126190,99.814850 360.095978,91.934776 363.980682,84.013557 
	C365.261902,81.401024 366.759857,79.505348 370.060669,80.104134 
	C373.761078,80.775406 373.144012,83.718033 372.924042,86.014824 
	C371.944489,96.242607 370.792206,106.455383 369.571808,116.657974 
	C368.844238,122.740486 368.169464,128.854401 366.942291,134.845917 
	C365.283630,142.944000 359.888367,148.028198 352.518860,151.377167 
	C351.114960,152.015152 349.210236,153.689545 349.197601,154.903046 
	C349.116486,162.696945 349.576660,170.494415 349.702393,178.293228 
	C349.800018,184.346619 353.206848,187.669983 358.455353,189.727509 
	C360.298950,190.450241 362.049316,191.410812 363.904053,192.292130 
	C366.776917,190.563461 367.566986,188.953171 365.978394,185.490372 
	C361.488617,175.703476 368.569000,166.792358 379.383453,168.120621 
	C385.019348,168.812820 386.117065,167.352844 383.962250,161.904709 
	C380.722900,153.714630 377.434326,145.544052 374.174866,137.361908 
	C373.806885,136.438171 373.049408,135.391068 373.237488,134.578094 
	C373.740936,132.401825 374.079437,129.187042 375.536072,128.441513 
	C378.500336,126.924332 380.677429,128.959290 381.889954,132.090515 
	C385.129089,140.454956 388.707733,148.690887 391.807739,157.104507 
	C392.827362,159.871841 394.080902,160.876953 396.835388,160.052612 
	C397.143066,159.960526 397.516663,159.953690 397.828827,160.031372 
	C407.232330,162.370804 411.286804,157.518372 413.554352,149.125626 
	C415.105438,143.384583 417.939880,137.999710 420.015930,132.387299 
	C421.133545,129.365921 422.695526,127.168472 426.206970,128.344910 
	C430.269714,129.706039 429.404144,133.145020 428.392578,135.865265 
	C425.207489,144.430511 421.673126,152.865784 418.280975,161.354141 
	C415.804993,167.549835 416.643127,168.698456 423.010529,168.094177 
	C427.901215,167.630020 432.468201,168.468170 435.226349,173.009567 
	C438.373230,178.191101 437.529358,183.469528 434.591766,188.717331 
	C435.537872,189.855286 436.475647,190.983200 437.382294,192.073700 
	C451.637054,187.061447 452.057526,185.410675 452.944550,172.481735 
	C453.320038,167.008759 453.212097,161.474808 452.863739,155.997818 
	C452.765778,154.457474 451.370209,152.269226 450.000000,151.660248 
	C441.862976,148.043762 435.999878,142.457626 434.774933,133.451797 
	C432.587219,117.367805 430.815460,101.224106 429.165497,85.075150 
	C429.008026,83.533485 430.913452,80.431953 431.905029,80.413544 
	C433.751678,80.379242 435.759491,81.905861 437.441589,83.136345 
	C438.278534,83.748543 438.543549,85.143074 439.066345,86.184158 
	C442.652313,93.324844 446.222565,100.473495 449.836670,107.599907 
	C450.565094,109.036240 451.459290,110.388504 452.296448,111.812492 
	C456.462738,108.796234 457.593048,102.068588 454.560303,97.428848 
	C452.489990,94.261429 449.389771,91.768333 447.309875,88.605568 
	C446.082794,86.739632 445.477844,84.130989 445.593079,81.908173 
	C445.630219,81.191193 448.840027,80.136551 450.621368,80.088692 
	C471.664276,79.523300 490.884155,96.395218 495.050171,118.474586 
	C497.433563,131.105927 496.134186,142.871277 483.941925,149.185410 
	C476.968628,152.796738 476.792023,157.197784 476.921234,163.261826 
	C477.080566,170.741531 476.723785,178.232208 476.433899,186.117508 
M397.932312,384.096893 
	C401.751099,384.115112 405.573029,384.041656 409.388062,384.170807 
	C417.199463,384.435181 424.122681,376.180420 421.703522,368.388184 
	C411.898041,368.388184 401.974152,368.388184 391.135437,368.217133 
	C387.387878,368.217133 383.640320,368.217133 379.944000,368.217133 
	C379.194702,379.625153 385.146454,384.891388 397.932312,384.096893 
M392.930725,360.120575 
	C402.849396,360.120575 412.768066,360.120575 423.321136,360.120575 
	C423.697388,354.773071 424.048218,349.786499 424.427917,344.389648 
	C412.501465,344.389648 401.276123,344.389648 389.135895,344.218048 
	C385.374725,344.218048 381.613556,344.218048 377.420044,344.218048 
	C377.854767,349.841705 378.234558,354.754852 378.638184,359.976532 
	C383.429047,359.976532 387.716156,359.976532 392.930725,360.120575 
M390.930817,336.120605 
	C402.180878,336.120605 413.430939,336.120605 425.320038,336.120605 
	C425.696381,330.774536 426.047516,325.786804 426.427521,320.388641 
	C413.167480,320.388641 400.609680,320.388641 387.136932,320.216583 
	C383.374908,320.216583 379.612885,320.216583 375.418091,320.216583 
	C375.852875,325.840271 376.232758,330.754089 376.636597,335.977478 
	C381.428009,335.977478 385.715637,335.977478 390.930817,336.120605 
M388.930878,312.120697 
	C401.620758,312.120697 414.310638,312.120697 427.397614,312.120697 
	C427.782776,306.525116 428.117920,301.656433 428.480560,296.388367 
	C413.832092,296.388367 399.942596,296.388367 385.138092,296.215118 
	C381.375214,296.215118 377.612335,296.215118 373.416321,296.215118 
	C373.851227,301.838867 374.231262,306.753326 374.635345,311.978424 
	C379.426971,311.978424 383.715088,311.978424 388.930878,312.120697 
M336.320770,92.183624 
	C321.302094,99.976929 313.358185,114.096161 314.933655,130.433578 
	C315.541321,136.734787 318.492920,141.358597 325.640228,143.614761 
	C332.757324,143.738174 339.993652,144.674500 346.943054,143.654953 
	C350.625397,143.114700 355.192841,139.911133 356.939240,136.623550 
	C360.979279,129.018250 360.321411,120.217514 361.356598,111.193405 
	C360.146332,111.884636 359.752472,111.968826 359.648163,112.189758 
	C357.070770,117.647743 353.235779,121.261223 346.766998,119.921120 
	C340.312744,118.584030 337.937592,113.285736 337.699707,107.690033 
	C337.464600,102.159492 338.855469,96.559837 339.531036,91.007286 
	C339.050079,91.220863 338.031433,91.673203 336.320770,92.183624 
M460.596527,91.263374 
	C460.596527,91.263374 460.780914,91.228149 460.780914,91.228149 
	C460.780914,91.228149 460.571594,91.274223 461.113617,91.744606 
	C465.403778,98.519760 465.986755,105.651169 462.953430,113.023819 
	C459.782928,120.729965 451.852570,122.533005 444.998779,116.581978 
	C443.734375,114.660080 442.469971,112.738174 441.205566,110.816277 
	C441.244598,118.439842 441.625885,125.709145 443.403229,132.619385 
	C444.282288,136.037354 447.733826,138.793686 450.613708,142.359467 
	C459.490601,145.534683 468.621674,144.877472 477.501556,143.094162 
	C483.100525,141.969757 486.169281,137.208817 486.979767,131.471130 
	C489.248016,115.413300 480.396790,99.052238 465.676849,92.201813 
	C464.191071,91.510368 462.327209,91.631424 460.596527,91.263374 
M385.931946,288.099426 
	C400.205170,288.099426 414.478424,288.099426 429.029510,288.099426 
	C429.342255,286.328094 429.700897,284.900757 429.833954,283.452728 
	C431.840637,261.609131 433.795776,239.760788 435.812469,217.918137 
	C436.621918,209.151428 434.146759,201.453674 428.287231,194.953415 
	C427.090118,193.625381 425.183899,192.559296 423.429596,192.178345 
	C417.037476,190.790329 412.717163,186.376266 413.123016,180.087463 
	C413.477142,174.600723 410.551178,171.933548 405.752441,169.317032 
	C395.997711,166.589462 389.764923,170.967728 388.951294,181.119156 
	C388.536316,186.296448 384.948822,191.177292 379.917236,191.721786 
	C376.020203,192.143494 374.045563,194.245102 372.011780,196.940735 
	C367.028931,203.545135 365.454590,210.944351 366.265778,219.091324 
	C367.651978,233.014099 368.818787,246.958618 370.107147,260.891266 
	C370.932739,269.819305 371.811127,278.742462 372.691528,287.935791 
	C377.089539,287.935791 381.048706,287.935791 385.931946,288.099426 
M432.554352,392.935699 
	C430.523285,390.149872 428.492218,387.364044 426.471527,384.592468 
	C411.509888,395.395325 391.415924,395.395660 375.414490,384.617188 
	C368.865295,393.792755 362.265717,402.953613 355.775940,412.191620 
	C354.175415,414.469910 354.960266,416.049927 357.812744,416.123566 
	C361.975677,416.231079 366.157745,415.948700 370.305420,416.225403 
	C379.257843,416.822662 386.427734,413.680359 392.566833,407.154816 
	C401.270630,397.903137 400.658966,397.997864 409.754517,407.400940 
	C414.428009,412.232422 419.642090,415.882874 426.594299,416.091125 
	C432.088165,416.255707 437.591187,416.223724 443.087280,416.123199 
	C444.293884,416.101105 446.427124,415.549042 446.500854,415.015381 
	C446.675873,413.748627 446.173859,412.139526 445.414062,411.033905 
	C441.358368,405.132172 437.139374,399.342651 432.554352,392.935699 
M460.994568,166.502579 
	C460.994568,167.665421 460.887390,168.839752 461.010864,169.989334 
	C462.491211,183.772812 458.105499,194.101013 444.272675,199.164215 
	C439.946960,200.747559 442.428375,203.545227 443.571594,206.536591 
	C448.034363,204.246277 452.395721,202.251923 456.511688,199.839035 
	C462.844330,196.126663 467.562653,190.584000 468.119415,183.306488 
	C468.896362,173.150620 468.315155,162.890839 468.315155,152.625931 
	C465.962250,152.625931 463.612854,152.625931 460.994568,152.625931 
	C460.994568,157.220459 460.994568,161.364944 460.994568,166.502579 
M332.994690,173.437988 
	C332.099365,191.603897 341.012939,199.750397 358.454620,205.952789 
	C361.348816,202.161011 360.228485,199.844833 355.958466,198.173172 
	C344.974548,193.873062 340.228790,185.724426 340.928284,173.950867 
	C341.347992,166.886200 341.005371,159.776245 341.005371,152.612396 
	C337.996857,152.612396 335.640259,152.612396 332.994690,152.612396 
	C332.994690,159.517502 332.994690,165.986496 332.994690,173.437988 
M461.978699,217.353867 
	C461.458344,214.475067 460.937988,211.596268 460.269043,207.895416 
	C455.116608,210.492676 450.284332,212.898712 445.494171,215.385864 
	C444.972229,215.656876 444.395905,216.369705 444.347137,216.921951 
	C443.788635,223.245270 443.327637,229.577179 442.779724,236.698135 
	C451.449493,235.217178 458.989807,233.929138 466.974335,232.565231 
	C465.200684,227.229218 463.691742,222.689636 461.978699,217.353867 
M351.026855,212.482788 
	C347.977478,211.025772 344.928101,209.568756 342.244781,208.286667 
	C339.857483,216.747620 337.675873,224.479507 335.349579,232.724258 
	C343.232880,234.001740 350.801208,235.228195 359.348083,236.613220 
	C358.841797,231.193527 357.827454,226.751099 358.174591,222.417740 
	C358.602905,217.072021 356.313293,214.364624 351.026855,212.482788 
M379.410767,177.210495 
	C377.447723,177.662582 375.354950,177.862823 373.619659,178.756958 
	C373.222534,178.961578 373.564941,182.260910 374.447235,182.878510 
	C375.608276,183.691223 378.673828,183.899048 379.084717,183.233521 
	C379.981689,181.780792 379.719055,179.612091 379.410767,177.210495 
M423.921631,176.555130 
	C423.005127,178.096039 421.526154,179.591599 421.396790,181.195969 
	C421.326569,182.067352 423.450989,183.681030 424.774200,183.921463 
	C425.843475,184.115753 427.839111,183.049698 428.304199,182.031403 
	C429.870941,178.600830 428.140167,176.790649 423.921631,176.555130 
z"/>
<path fill="#353535" opacity="1.000000" stroke="none" 
	d="
M196.859955,274.165100 
	C195.879318,267.173065 194.352631,260.625793 194.164185,254.040207 
	C193.536285,232.095520 193.442200,210.128189 198.985825,188.637512 
	C199.912598,185.044708 198.982651,183.422806 195.702393,181.737335 
	C182.195618,174.797302 177.331940,156.976288 185.879440,144.478516 
	C198.253891,126.385117 210.794937,108.380920 223.954575,90.856567 
	C235.900421,74.948570 257.269714,76.434219 268.639008,92.918335 
	C279.477020,108.632164 290.614471,124.150299 301.995789,139.475601 
	C314.193268,155.899826 310.614990,173.510971 292.867523,183.032150 
	C291.811157,183.598892 290.863373,185.975479 291.153717,187.205734 
	C296.046753,207.937759 296.791168,229.017090 295.804718,250.110382 
	C295.303986,260.817993 294.681458,272.105652 290.918671,281.903961 
	C287.424957,291.001556 288.363007,298.498657 291.082306,306.872559 
	C294.364563,316.979858 297.011047,327.295624 300.371063,337.375000 
	C303.168793,345.767548 309.106445,350.676575 318.090942,352.198914 
	C320.544647,352.614655 323.652313,354.746124 324.639618,356.917755 
	C326.074982,360.075043 324.435181,363.168945 321.169891,365.312103 
	C309.406616,373.032928 293.078094,371.514740 283.068909,361.520233 
	C281.670746,360.124115 280.470123,358.530151 279.178070,357.027771 
	C278.656158,357.245087 278.134216,357.462433 277.612274,357.679779 
	C278.604126,362.529297 279.257843,367.478149 280.648285,372.210571 
	C285.780548,389.678680 295.089355,404.475433 309.351746,416.018921 
	C312.069824,418.218842 313.670715,420.803040 312.262909,424.730804 
	C310.772827,428.888123 307.301819,429.869446 304.289124,428.790741 
	C296.553741,426.021088 288.559113,423.263306 281.704987,418.879547 
	C262.039551,406.301910 251.825394,387.406372 248.044617,364.720551 
	C247.312332,360.326691 246.499161,355.946320 245.501846,350.307587 
	C243.685959,359.297577 242.530518,367.176605 240.467941,374.810486 
	C235.038345,394.906189 223.556335,410.699554 205.389481,421.135223 
	C199.991989,424.235779 194.080292,426.593750 188.164642,428.577667 
	C185.032593,429.628052 181.155991,430.076202 179.016159,425.909393 
	C176.953476,421.892792 178.373016,418.638855 181.436722,416.166321 
	C192.524811,407.217773 200.616669,396.052063 206.413864,383.148254 
	C210.101349,374.940338 212.480301,366.389008 213.157227,357.264801 
	C208.497437,360.701965 204.534637,364.432831 199.895615,366.883911 
	C189.219666,372.524689 178.623718,371.180420 168.938217,364.324799 
	C167.071548,363.003540 165.213516,359.319763 165.789795,357.496552 
	C166.498703,355.253693 169.596664,352.570801 171.954300,352.254150 
	C181.404877,350.984894 187.652985,346.409821 190.418808,337.234161 
	C194.688004,323.071136 198.984985,308.916229 203.154663,294.723907 
	C203.525681,293.461060 203.613708,291.372589 202.873352,290.647125 
	C198.308685,286.174255 198.014694,280.262543 196.859955,274.165100 
M296.953217,417.281769 
	C297.142365,417.336914 297.331512,417.392029 297.520630,417.447144 
	C297.343628,417.295380 297.166626,417.143616 296.778259,416.356415 
	C290.637604,407.707001 283.573456,399.559357 278.545197,390.305511 
	C267.475677,369.933411 268.357513,346.867310 265.658722,324.662659 
	C265.519257,323.515137 267.132324,321.279907 268.216614,321.075714 
	C269.631256,320.809265 271.503174,321.821686 272.847595,322.758545 
	C273.666199,323.328918 273.873627,324.788208 274.335541,325.856873 
	C277.701141,333.642883 280.841980,341.535370 284.476624,349.193573 
	C289.571472,359.928375 302.184906,364.833191 311.684692,359.614166 
	C299.002777,355.946289 293.767822,346.541870 290.713379,334.936371 
	C287.583069,323.042694 283.637573,311.365234 280.187927,299.552551 
	C279.444672,297.007355 278.670898,295.899170 275.523987,295.948425 
	C255.717545,296.258484 235.903076,296.369934 216.097046,296.108734 
	C212.408737,296.060089 211.247452,297.131500 210.331924,300.323608 
	C206.572617,313.430847 202.544708,326.460815 198.690079,339.541107 
	C195.974701,348.755463 190.384888,355.319794 181.377197,358.869049 
	C180.718277,359.128662 180.120316,359.543060 179.154709,360.070984 
	C190.315445,364.230865 201.521011,359.575500 206.534958,348.800964 
	C210.252441,340.812408 213.571793,332.637482 217.013672,324.522339 
	C218.079758,322.008789 219.674225,319.591522 222.470520,321.046326 
	C223.924332,321.802673 225.068314,324.733398 224.970566,326.609924 
	C224.616165,333.414124 223.427734,340.172333 223.003052,346.975922 
	C221.385666,372.887817 213.452148,396.177887 194.782074,415.681763 
	C194.648209,416.042450 194.514343,416.403107 194.380493,416.763794 
	C195.010590,416.606567 195.640671,416.449371 196.951172,416.119995 
	C216.152496,406.208374 228.289200,390.653442 232.924698,369.643799 
	C236.108429,355.214111 238.251801,340.557068 241.175674,326.065308 
	C241.576340,324.079468 243.537186,321.314178 245.244217,320.915466 
	C248.730423,320.101105 249.319168,323.465851 249.800888,326.100739 
	C251.922180,337.703369 254.257156,349.276123 256.003052,360.936279 
	C259.507935,384.343933 270.307465,402.852325 291.184723,414.811859 
	C292.969238,415.834137 295.113464,416.228363 296.953217,417.281769 
M224.907776,288.298065 
	C240.234100,288.334808 255.560745,288.442627 270.886597,288.374573 
	C277.325165,288.346008 282.523773,283.966980 283.799561,277.323853 
	C288.455383,253.079865 288.942505,228.757263 285.530853,204.263885 
	C280.794373,170.258804 265.757690,139.922180 252.177261,108.347794 
	C246.813019,102.426079 240.589279,103.300285 237.368744,110.648766 
	C230.629028,126.027191 223.682358,141.330399 217.490372,156.930298 
	C202.334229,195.114273 198.259705,234.534363 205.605774,275.020325 
	C207.752045,286.848907 211.592163,289.433319 224.907776,288.298065 
M278.340851,149.140961 
	C281.539398,157.817184 284.737976,166.493408 287.925995,175.141006 
	C299.675140,171.991653 304.509094,158.577332 297.340698,148.228439 
	C285.106323,130.565872 272.600189,113.084976 259.892670,95.759201 
	C252.393433,85.534523 238.630005,85.739189 230.827545,95.823288 
	C227.771667,99.772781 224.980331,103.927246 222.076736,107.994225 
	C212.591415,121.279945 202.966019,134.468735 193.673126,147.887756 
	C186.446518,158.323090 190.825012,171.670700 202.418259,174.998154 
	C202.685806,174.469803 203.012604,173.924515 203.249283,173.342575 
	C212.084000,151.620911 220.943085,129.909042 229.719437,108.163773 
	C232.621338,100.973694 237.567688,96.542679 245.520248,96.598480 
	C253.488449,96.654411 258.217773,101.259605 261.153107,108.414703 
	C266.648071,121.809242 272.410278,135.094147 278.340851,149.140961 
z"/>
<path fill="#363635" opacity="1.000000" stroke="none" 
	d="
M150.072495,308.085052 
	C148.306900,313.156952 146.958267,317.988342 144.900513,322.496002 
	C142.185989,328.442352 142.622726,334.167297 144.212006,340.283630 
	C148.118958,355.319763 151.821442,370.414642 155.270554,385.562317 
	C157.997452,397.538116 151.697098,408.666870 139.990219,412.808929 
	C119.290276,420.132843 98.660263,420.012848 78.241745,411.579315 
	C70.168602,408.244781 63.490589,395.708923 65.522964,387.119507 
	C69.422058,370.640900 73.471130,354.196167 77.657417,337.788239 
	C78.762245,333.457947 78.718086,329.563782 77.346870,325.191956 
	C74.167831,315.056244 70.372467,307.908783 58.250565,303.906403 
	C35.687805,296.456665 22.846804,278.421997 18.340588,255.006821 
	C17.534939,250.820511 18.036169,246.372498 18.026655,242.045120 
	C17.998449,229.217392 18.518290,216.365219 17.897663,203.567535 
	C16.991993,184.892059 33.211369,170.244064 46.803898,167.802231 
	C48.587902,167.481750 50.820229,164.964661 51.344086,163.053558 
	C56.147675,145.529388 63.694572,129.394897 74.984550,115.126152 
	C86.241692,100.898941 99.339767,88.654175 116.252342,81.563744 
	C129.184769,76.141960 145.355774,83.353401 150.014755,98.232437 
	C157.529236,122.230896 163.386810,146.521790 165.000900,171.676178 
	C165.893433,185.585709 167.326843,199.563736 166.773285,213.441345 
	C165.627365,242.168320 161.629318,270.571747 153.079208,298.169342 
	C152.096298,301.341888 151.141647,304.523224 150.072495,308.085052 
M47.024109,176.756104 
	C34.449142,180.403091 26.174566,190.959824 26.044056,203.969635 
	C25.903704,217.960434 25.839834,231.956909 26.071371,245.945465 
	C26.449522,268.791687 41.412445,289.378937 62.900955,297.007660 
	C64.357605,297.524750 65.907181,297.780121 68.793655,298.502716 
	C51.828163,258.981506 40.463238,219.767715 48.685883,177.112885 
	C48.383762,176.997894 48.081642,176.882889 47.024109,176.756104 
M103.837585,409.108002 
	C114.449791,410.432831 124.743462,408.914856 134.781937,405.476135 
	C145.566864,401.781738 149.076340,395.266418 146.348755,384.231842 
	C142.878464,370.192596 139.372421,356.162170 135.890228,342.125854 
	C133.850357,333.903412 133.723251,333.820160 124.830200,335.728027 
	C127.071091,344.747467 129.345596,353.750183 131.528137,362.775146 
	C132.223129,365.649017 133.478699,369.073914 129.095673,370.047760 
	C125.197876,370.913849 124.553947,367.809875 123.846268,364.935211 
	C121.621231,355.896942 119.332397,346.874207 117.006683,337.861298 
	C116.769272,336.941254 116.116760,336.128326 115.656876,335.265656 
	C114.683968,337.350281 114.684486,339.157104 114.683891,340.963898 
	C114.680328,351.782013 114.686348,362.600128 114.666092,373.418213 
	C114.660797,376.245453 114.305588,379.029968 110.600761,379.034882 
	C106.802391,379.039917 106.687111,376.173340 106.685898,373.382568 
	C106.681129,362.398010 106.691864,351.413452 106.664581,340.428955 
	C106.660339,338.719452 106.488441,337.010345 106.394073,335.301056 
	C105.873901,335.244598 105.353722,335.188171 104.833549,335.131714 
	C102.195465,346.021881 99.557381,356.912048 96.351074,368.303497 
	C94.458115,368.722839 92.214653,369.932404 90.788277,369.299774 
	C89.736038,368.833038 89.062012,365.815948 89.407967,364.187744 
	C90.925354,357.046478 92.906319,350.004700 94.651611,342.910217 
	C95.258110,340.444824 95.669617,337.931458 96.432579,334.134003 
	C92.444611,336.424988 87.746117,332.193726 86.229637,338.411560 
	C82.334770,354.381165 78.205643,370.293884 74.354942,386.273895 
	C72.521759,393.881409 75.483864,401.080963 82.403687,403.679840 
	C88.994606,406.155212 96.116623,407.216461 103.837585,409.108002 
M130.522995,89.245041 
	C124.706688,87.325272 119.466255,88.629311 114.334145,91.716507 
	C99.243958,100.793961 86.412842,112.351608 76.910797,127.157112 
	C54.393288,162.242554 48.292652,200.856125 58.078117,240.719635 
	C65.066994,269.190521 76.463623,296.582977 86.070091,324.395630 
	C86.478134,325.576965 88.636368,326.804474 90.036667,326.875305 
	C95.017426,327.127136 100.023041,326.887268 105.945244,326.970703 
	C113.937614,326.978668 121.937263,326.790466 129.918961,327.086395 
	C133.349152,327.213562 134.763535,326.072296 135.946457,322.890320 
	C147.605331,291.528931 155.397552,259.311920 157.554428,225.865784 
	C158.926941,204.582123 158.622665,183.316101 155.596375,161.538544 
	C153.492599,162.302917 151.670441,162.966583 149.847153,163.627182 
	C129.818069,170.884003 110.657700,169.097473 92.360680,158.141205 
	C89.881439,156.656647 87.714149,154.931412 89.591896,151.815399 
	C91.454498,148.724533 93.996574,149.749496 96.491280,151.254471 
	C114.057060,161.851440 132.216721,162.523621 150.976761,154.646286 
	C153.608582,153.541168 154.640518,152.263992 153.938110,149.460205 
	C149.821930,133.029816 145.966339,116.530518 141.573029,100.175293 
	C140.200500,95.065659 136.581345,91.200096 130.522995,89.245041 
z"/>
<path fill="#EF8977" opacity="1.000000" stroke="none" 
	d="
M406.321808,169.814575 
	C410.551178,171.933548 413.477142,174.600723 413.123016,180.087463 
	C412.717163,186.376266 417.037476,190.790329 423.429596,192.178345 
	C425.183899,192.559296 427.090118,193.625381 428.287231,194.953415 
	C434.146759,201.453674 436.621918,209.151428 435.812469,217.918137 
	C433.795776,239.760788 431.840637,261.609131 429.833954,283.452728 
	C429.700897,284.900757 429.342255,286.328094 429.029510,288.099426 
	C414.478424,288.099426 400.205170,288.099426 385.468994,287.559814 
	C384.671173,281.725403 384.444000,276.421082 383.980255,271.137573 
	C382.806274,257.762329 381.333069,244.410522 380.351898,231.022064 
	C379.619232,221.024033 376.182373,210.319366 382.162231,201.258545 
	C389.424164,190.255020 398.200592,180.251007 406.321808,169.814575 
z"/>
<path fill="#ED8876" opacity="1.000000" stroke="none" 
	d="
M432.765625,393.225006 
	C437.139374,399.342651 441.358368,405.132172 445.414062,411.033905 
	C446.173859,412.139526 446.675873,413.748627 446.500854,415.015381 
	C446.427124,415.549042 444.293884,416.101105 443.087280,416.123199 
	C437.591187,416.223724 432.088165,416.255707 426.594299,416.091125 
	C419.642090,415.882874 414.428009,412.232422 409.754517,407.400940 
	C400.658966,397.997864 401.270630,397.903137 392.566833,407.154816 
	C386.427734,413.680359 379.257843,416.822662 370.305420,416.225403 
	C366.157745,415.948700 361.975677,416.231079 357.812744,416.123566 
	C354.960266,416.049927 354.175415,414.469910 355.775940,412.191620 
	C362.265717,402.953613 368.865295,393.792755 375.414490,384.617188 
	C391.415924,395.395660 411.509888,395.395325 426.471527,384.592468 
	C428.492218,387.364044 430.523285,390.149872 432.765625,393.225006 
z"/>
<path fill="#E37F72" opacity="1.000000" stroke="none" 
	d="
M406.037109,169.565796 
	C398.200592,180.251007 389.424164,190.255020 382.162231,201.258545 
	C376.182373,210.319366 379.619232,221.024033 380.351898,231.022064 
	C381.333069,244.410522 382.806274,257.762329 383.980255,271.137573 
	C384.444000,276.421082 384.671173,281.725403 385.006927,287.478027 
	C381.048706,287.935791 377.089539,287.935791 372.691528,287.935791 
	C371.811127,278.742462 370.932739,269.819305 370.107147,260.891266 
	C368.818787,246.958618 367.651978,233.014099 366.265778,219.091324 
	C365.454590,210.944351 367.028931,203.545135 372.011780,196.940735 
	C374.045563,194.245102 376.020203,192.143494 379.917236,191.721786 
	C384.948822,191.177292 388.536316,186.296448 388.951294,181.119156 
	C389.764923,170.967728 395.997711,166.589462 406.037109,169.565796 
z"/>
<path fill="#EE8876" opacity="1.000000" stroke="none" 
	d="
M445.271484,117.145599 
	C451.852570,122.533005 459.782928,120.729965 462.953430,113.023819 
	C465.986755,105.651169 465.403778,98.519760 460.879883,91.521133 
	C460.646118,91.297653 460.638794,91.375427 460.638794,91.375427 
	C462.327209,91.631424 464.191071,91.510368 465.676849,92.201813 
	C480.396790,99.052238 489.248016,115.413300 486.979767,131.471130 
	C486.169281,137.208817 483.100525,141.969757 477.501556,143.094162 
	C468.621674,144.877472 459.490601,145.534683 450.282288,141.734802 
	C448.391052,133.121948 446.831268,125.133774 445.271484,117.145599 
z"/>
<path fill="#EE8876" opacity="1.000000" stroke="none" 
	d="
M337.012817,92.125542 
	C338.031433,91.673203 339.050079,91.220863 339.531036,91.007286 
	C338.855469,96.559837 337.464600,102.159492 337.699707,107.690033 
	C337.937592,113.285736 340.312744,118.584030 346.766998,119.921120 
	C353.235779,121.261223 357.070770,117.647743 359.648163,112.189758 
	C359.752472,111.968826 360.146332,111.884636 361.356598,111.193405 
	C360.321411,120.217514 360.979279,129.018250 356.939240,136.623550 
	C355.192841,139.911133 350.625397,143.114700 346.943054,143.654953 
	C339.993652,144.674500 332.757324,143.738174 325.272888,142.997528 
	C323.902771,139.773239 322.526489,137.244598 321.960114,134.545975 
	C319.103760,120.937309 322.655853,109.011566 331.820038,98.642525 
	C333.657074,96.563965 335.287262,94.302612 337.012817,92.125542 
z"/>
<path fill="#EF8977" opacity="1.000000" stroke="none" 
	d="
M386.053101,296.388367 
	C399.942596,296.388367 413.832092,296.388367 428.480560,296.388367 
	C428.117920,301.656433 427.782776,306.525116 427.397614,312.120697 
	C414.310638,312.120697 401.620758,312.120697 388.373169,311.648132 
	C387.228027,306.246490 386.640564,301.317444 386.053101,296.388367 
z"/>
<path fill="#EF8977" opacity="1.000000" stroke="none" 
	d="
M388.051910,320.388641 
	C400.609680,320.388641 413.167480,320.388641 426.427521,320.388641 
	C426.047516,325.786804 425.696381,330.774536 425.320038,336.120605 
	C413.430939,336.120605 402.180878,336.120605 390.373444,335.647644 
	C389.228027,330.245972 388.639954,325.317322 388.051910,320.388641 
z"/>
<path fill="#EF8977" opacity="1.000000" stroke="none" 
	d="
M390.050781,344.389648 
	C401.276123,344.389648 412.501465,344.389648 424.427917,344.389648 
	C424.048218,349.786499 423.697388,354.773071 423.321136,360.120575 
	C412.768066,360.120575 402.849396,360.120575 392.373657,359.647156 
	C391.227997,354.245697 390.639374,349.317657 390.050781,344.389648 
z"/>
<path fill="#E17E71" opacity="1.000000" stroke="none" 
	d="
M460.994568,166.006012 
	C460.994568,161.364944 460.994568,157.220459 460.994568,152.625931 
	C463.612854,152.625931 465.962250,152.625931 468.315155,152.625931 
	C468.315155,162.890839 468.896362,173.150620 468.119415,183.306488 
	C467.562653,190.584000 462.844330,196.126663 456.511688,199.839035 
	C452.395721,202.251923 448.034363,204.246277 443.571594,206.536591 
	C442.428375,203.545227 439.946960,200.747559 444.272675,199.164215 
	C458.105499,194.101013 462.491211,183.772812 461.010864,169.989334 
	C460.887390,168.839752 460.994568,167.665421 460.994568,166.006012 
z"/>
<path fill="#E17E71" opacity="1.000000" stroke="none" 
	d="
M332.994690,172.946747 
	C332.994690,165.986496 332.994690,159.517502 332.994690,152.612396 
	C335.640259,152.612396 337.996857,152.612396 341.005371,152.612396 
	C341.005371,159.776245 341.347992,166.886200 340.928284,173.950867 
	C340.228790,185.724426 344.974548,193.873062 355.958466,198.173172 
	C360.228485,199.844833 361.348816,202.161011 358.455566,205.952484 
	C341.012939,199.750397 332.099365,191.603897 332.994690,172.946747 
z"/>
<path fill="#000000" opacity="1.000000" stroke="none" 
	d="
M462.080750,217.751953 
	C463.691742,222.689636 465.200684,227.229218 466.974335,232.565231 
	C458.989807,233.929138 451.449493,235.217178 442.779724,236.698135 
	C443.327637,229.577179 443.788635,223.245270 444.347137,216.921951 
	C444.395905,216.369705 444.972229,215.656876 445.494171,215.385864 
	C450.284332,212.898712 455.116608,210.492676 460.269043,207.895416 
	C460.937988,211.596268 461.458344,214.475067 462.080750,217.751953 
z"/>
<path fill="#000000" opacity="1.000000" stroke="none" 
	d="
M351.358826,212.660202 
	C356.313293,214.364624 358.602905,217.072021 358.174591,222.417740 
	C357.827454,226.751099 358.841797,231.193527 359.348083,236.613220 
	C350.801208,235.228195 343.232880,234.001740 335.349579,232.724258 
	C337.675873,224.479507 339.857483,216.747620 342.244781,208.286667 
	C344.928101,209.568756 347.977478,211.025772 351.358826,212.660202 
z"/>
<path fill="#EF8877" opacity="1.000000" stroke="none" 
	d="
M392.050262,368.388184 
	C401.974152,368.388184 411.898041,368.388184 421.703522,368.388184 
	C424.122681,376.180420 417.199463,384.435181 409.388062,384.170807 
	C405.573029,384.041656 401.751099,384.115112 397.376465,383.681641 
	C395.230530,378.306976 393.640381,373.347595 392.050262,368.388184 
z"/>
<path fill="#E27F72" opacity="1.000000" stroke="none" 
	d="
M336.666809,92.154587 
	C335.287262,94.302612 333.657074,96.563965 331.820038,98.642525 
	C322.655853,109.011566 319.103760,120.937309 321.960114,134.545975 
	C322.526489,137.244598 323.902771,139.773239 324.924194,142.760925 
	C318.492920,141.358597 315.541321,136.734787 314.933655,130.433578 
	C313.358185,114.096161 321.302094,99.976929 336.666809,92.154587 
z"/>
<path fill="#DC7D70" opacity="1.000000" stroke="none" 
	d="
M389.593323,344.303833 
	C390.639374,349.317657 391.227997,354.245697 391.909912,359.575134 
	C387.716156,359.976532 383.429047,359.976532 378.638184,359.976532 
	C378.234558,354.754852 377.854767,349.841705 377.420044,344.218048 
	C381.613556,344.218048 385.374725,344.218048 389.593323,344.303833 
z"/>
<path fill="#DB7C70" opacity="1.000000" stroke="none" 
	d="
M387.594421,320.302612 
	C388.639954,325.317322 389.228027,330.245972 389.909668,335.576050 
	C385.715637,335.977478 381.428009,335.977478 376.636597,335.977478 
	C376.232758,330.754089 375.852875,325.840271 375.418091,320.216583 
	C379.612885,320.216583 383.374908,320.216583 387.594421,320.302612 
z"/>
<path fill="#DB7C6F" opacity="1.000000" stroke="none" 
	d="
M385.595581,296.301758 
	C386.640564,301.317444 387.228027,306.246490 387.909332,311.576996 
	C383.715088,311.978424 379.426971,311.978424 374.635345,311.978424 
	C374.231262,306.753326 373.851227,301.838867 373.416321,296.215118 
	C377.612335,296.215118 381.375214,296.215118 385.595581,296.301758 
z"/>
<path fill="#DC7C70" opacity="1.000000" stroke="none" 
	d="
M391.592834,368.302673 
	C393.640381,373.347595 395.230530,378.306976 396.914734,383.605896 
	C385.146454,384.891388 379.194702,379.625153 379.944000,368.217133 
	C383.640320,368.217133 387.387878,368.217133 391.592834,368.302673 
z"/>
<path fill="#DF7D71" opacity="1.000000" stroke="none" 
	d="
M445.135132,116.863785 
	C446.831268,125.133774 448.391052,133.121948 449.986145,141.479736 
	C447.733826,138.793686 444.282288,136.037354 443.403229,132.619385 
	C441.625885,125.709145 441.244598,118.439842 441.205566,110.816277 
	C442.469971,112.738174 443.734375,114.660080 445.135132,116.863785 
z"/>
<path fill="#DA616B" opacity="1.000000" stroke="none" 
	d="
M379.670471,177.473206 
	C379.719055,179.612091 379.981689,181.780792 379.084717,183.233521 
	C378.673828,183.899048 375.608276,183.691223 374.447235,182.878510 
	C373.564941,182.260910 373.222534,178.961578 373.619659,178.756958 
	C375.354950,177.862823 377.447723,177.662582 379.670471,177.473206 
z"/>
<path fill="#DA616B" opacity="1.000000" stroke="none" 
	d="
M424.281189,176.458862 
	C428.140167,176.790649 429.870941,178.600830 428.304199,182.031403 
	C427.839111,183.049698 425.843475,184.115753 424.774200,183.921463 
	C423.450989,183.681030 421.326569,182.067352 421.396790,181.195969 
	C421.526154,179.591599 423.005127,178.096039 424.281189,176.458862 
z"/>
<path fill="#EE8876" opacity="1.000000" stroke="none" 
	d="
M460.608856,91.285934 
	C460.571594,91.274223 460.780914,91.228149 460.780914,91.228149 
	C460.780914,91.228149 460.596527,91.263374 460.617676,91.319397 
	C460.638794,91.375427 460.646118,91.297653 460.608856,91.285934 
z"/>
<path fill="#CCCCCC" opacity="1.000000" stroke="none" 
	d="
M252.370453,108.973663 
	C265.757690,139.922180 280.794373,170.258804 285.530853,204.263885 
	C288.942505,228.757263 288.455383,253.079865 283.799561,277.323853 
	C282.523773,283.966980 277.325165,288.346008 270.886597,288.374573 
	C255.560745,288.442627 240.234100,288.334808 224.376251,287.818359 
	C222.885925,284.334503 221.595840,281.392120 221.022263,278.316132 
	C217.380798,258.788086 216.123138,239.186646 217.795532,219.281815 
	C219.766769,195.820129 225.237213,173.340469 234.183487,151.662964 
	C240.083694,137.366287 246.297211,123.198921 252.370453,108.973663 
z"/>
<path fill="#B0B0B0" opacity="1.000000" stroke="none" 
	d="
M195.238571,415.321136 
	C213.452148,396.177887 221.385666,372.887817 223.003052,346.975922 
	C223.427734,340.172333 224.616165,333.414124 224.970566,326.609924 
	C225.068314,324.733398 223.924332,321.802673 222.470520,321.046326 
	C219.674225,319.591522 218.079758,322.008789 217.013672,324.522339 
	C213.571793,332.637482 210.252441,340.812408 206.534958,348.800964 
	C201.521011,359.575500 190.315445,364.230865 179.154709,360.070984 
	C180.120316,359.543060 180.718277,359.128662 181.377197,358.869049 
	C190.384888,355.319794 195.974701,348.755463 198.690079,339.541107 
	C202.544708,326.460815 206.572617,313.430847 210.331924,300.323608 
	C211.247452,297.131500 212.408737,296.060089 216.097046,296.108734 
	C235.903076,296.369934 255.717545,296.258484 275.523987,295.948425 
	C278.670898,295.899170 279.444672,297.007355 280.187927,299.552551 
	C283.637573,311.365234 287.583069,323.042694 290.713379,334.936371 
	C293.767822,346.541870 299.002777,355.946289 311.684692,359.614166 
	C302.184906,364.833191 289.571472,359.928375 284.476624,349.193573 
	C280.841980,341.535370 277.701141,333.642883 274.335541,325.856873 
	C273.873627,324.788208 273.666199,323.328918 272.847595,322.758545 
	C271.503174,321.821686 269.631256,320.809265 268.216614,321.075714 
	C267.132324,321.279907 265.519257,323.515137 265.658722,324.662659 
	C268.357513,346.867310 267.475677,369.933411 278.545197,390.305511 
	C283.573456,399.559357 290.637604,407.707001 296.909698,416.655457 
	C297.041138,416.954468 297.090607,416.914368 297.090607,416.914368 
	C295.113464,416.228363 292.969238,415.834137 291.184723,414.811859 
	C270.307465,402.852325 259.507935,384.343933 256.003052,360.936279 
	C254.257156,349.276123 251.922180,337.703369 249.800888,326.100739 
	C249.319168,323.465851 248.730423,320.101105 245.244217,320.915466 
	C243.537186,321.314178 241.576340,324.079468 241.175674,326.065308 
	C238.251801,340.557068 236.108429,355.214111 232.924698,369.643799 
	C228.289200,390.653442 216.152496,406.208374 196.354935,415.961182 
	C195.585327,415.641968 195.411957,415.481567 195.238571,415.321136 
z"/>
<path fill="#C0C0C0" opacity="1.000000" stroke="none" 
	d="
M252.273865,108.660728 
	C246.297211,123.198921 240.083694,137.366287 234.183487,151.662964 
	C225.237213,173.340469 219.766769,195.820129 217.795532,219.281815 
	C216.123138,239.186646 217.380798,258.788086 221.022263,278.316132 
	C221.595840,281.392120 222.885925,284.334503 223.918121,287.707642 
	C211.592163,289.433319 207.752045,286.848907 205.605774,275.020325 
	C198.259705,234.534363 202.334229,195.114273 217.490372,156.930298 
	C223.682358,141.330399 230.629028,126.027191 237.368744,110.648766 
	C240.589279,103.300285 246.813019,102.426079 252.273865,108.660728 
z"/>
<path fill="#B0B0B0" opacity="1.000000" stroke="none" 
	d="
M278.201080,148.782806 
	C272.410278,135.094147 266.648071,121.809242 261.153107,108.414703 
	C258.217773,101.259605 253.488449,96.654411 245.520248,96.598480 
	C237.567688,96.542679 232.621338,100.973694 229.719437,108.163773 
	C220.943085,129.909042 212.084000,151.620911 203.249283,173.342575 
	C203.012604,173.924515 202.685806,174.469803 202.418259,174.998154 
	C190.825012,171.670700 186.446518,158.323090 193.673126,147.887756 
	C202.966019,134.468735 212.591415,121.279945 222.076736,107.994225 
	C224.980331,103.927246 227.771667,99.772781 230.827545,95.823288 
	C238.630005,85.739189 252.393433,85.534523 259.892670,95.759201 
	C272.600189,113.084976 285.106323,130.565872 297.340698,148.228439 
	C304.509094,158.577332 299.675140,171.991653 287.925995,175.141006 
	C284.737976,166.493408 281.539398,157.817184 278.201080,148.782806 
z"/>
<path fill="#B0B0B0" opacity="1.000000" stroke="none" 
	d="
M196.014740,416.047241 
	C195.640671,416.449371 195.010590,416.606567 194.380493,416.763794 
	C194.514343,416.403107 194.648209,416.042450 195.010315,415.501465 
	C195.411957,415.481567 195.585327,415.641968 196.014740,416.047241 
z"/>
<path fill="#B0B0B0" opacity="1.000000" stroke="none" 
	d="
M297.015381,416.973145 
	C297.166626,417.143616 297.343628,417.295380 297.520630,417.447144 
	C297.331512,417.392029 297.142365,417.336914 297.021912,417.098083 
	C297.090607,416.914368 297.041138,416.954468 297.015381,416.973145 
z"/>
<path fill="#F3DAB3" opacity="1.000000" stroke="none" 
	d="
M131.071045,89.747437 
	C136.581345,91.200096 140.200500,95.065659 141.573029,100.175293 
	C145.966339,116.530518 149.821930,133.029816 153.938110,149.460205 
	C154.640518,152.263992 153.608582,153.541168 150.976761,154.646286 
	C132.216721,162.523621 114.057060,161.851440 96.491280,151.254471 
	C93.996574,149.749496 91.454498,148.724533 89.591896,151.815399 
	C87.714149,154.931412 89.881439,156.656647 92.360680,158.141205 
	C110.657700,169.097473 129.818069,170.884003 149.847153,163.627182 
	C151.670441,162.966583 153.492599,162.302917 155.596375,161.538544 
	C158.622665,183.316101 158.926941,204.582123 157.554428,225.865784 
	C155.397552,259.311920 147.605331,291.528931 135.946457,322.890320 
	C134.763535,326.072296 133.349152,327.213562 129.918961,327.086395 
	C121.937263,326.790466 113.937614,326.978668 105.389221,326.555664 
	C99.480110,311.254303 94.376701,296.272369 88.718994,281.502777 
	C78.694672,255.333969 71.491623,228.805252 72.830467,200.300385 
	C73.995430,175.497299 80.110939,152.356216 92.256233,130.789886 
	C93.673943,128.272461 95.986839,126.259186 97.936234,124.410568 
	C98.874268,133.010437 103.640549,137.918167 110.790489,137.991623 
	C117.137947,138.056824 122.507935,133.419785 123.589294,126.939690 
	C125.150627,117.583359 116.911201,111.045631 106.082520,112.652802 
	C109.107086,109.213905 111.849121,105.879745 115.038155,103.049217 
	C120.228752,98.442123 125.711555,94.164246 131.071045,89.747437 
M124.320244,192.347107 
	C122.820152,187.642960 119.486931,185.066925 114.668213,185.246246 
	C109.564583,185.436203 106.571388,188.641251 105.363754,193.525284 
	C103.530846,200.938034 101.536278,208.316681 99.938675,215.780075 
	C98.360825,223.151169 102.286301,228.183685 109.793823,228.699310 
	C113.104752,228.926712 116.450470,228.892624 119.768112,228.728653 
	C127.843796,228.329544 131.822815,223.217941 130.059097,215.324890 
	C128.394257,207.874298 126.438347,200.488739 124.320244,192.347107 
z"/>
<path fill="#E1CAAB" opacity="1.000000" stroke="none" 
	d="
M97.884735,124.012184 
	C95.986839,126.259186 93.673943,128.272461 92.256233,130.789886 
	C80.110939,152.356216 73.995430,175.497299 72.830467,200.300385 
	C71.491623,228.805252 78.694672,255.333969 88.718994,281.502777 
	C94.376701,296.272369 99.480110,311.254303 104.926224,326.487122 
	C100.023041,326.887268 95.017426,327.127136 90.036667,326.875305 
	C88.636368,326.804474 86.478134,325.576965 86.070091,324.395630 
	C76.463623,296.582977 65.066994,269.190521 58.078117,240.719635 
	C48.292652,200.856125 54.393288,162.242554 76.910797,127.157112 
	C86.412842,112.351608 99.243958,100.793961 114.334145,91.716507 
	C119.466255,88.629311 124.706688,87.325272 130.797028,89.496239 
	C125.711555,94.164246 120.228752,98.442123 115.038155,103.049217 
	C111.849121,105.879745 109.107086,109.213905 105.842194,112.889954 
	C101.028999,115.568275 98.845139,119.347679 97.884735,124.012184 
z"/>
<path fill="#CFAD8B" opacity="1.000000" stroke="none" 
	d="
M96.919296,367.802216 
	C99.557381,356.912048 102.195465,346.021881 104.833549,335.131714 
	C105.353722,335.188171 105.873901,335.244598 106.394073,335.301056 
	C106.488441,337.010345 106.660339,338.719452 106.664581,340.428955 
	C106.691864,351.413452 106.681129,362.398010 106.685898,373.382568 
	C106.687111,376.173340 106.802391,379.039917 110.600761,379.034882 
	C114.305588,379.029968 114.660797,376.245453 114.666092,373.418213 
	C114.686348,362.600128 114.680328,351.782013 114.683891,340.963898 
	C114.684486,339.157104 114.683968,337.350281 115.656876,335.265656 
	C116.116760,336.128326 116.769272,336.941254 117.006683,337.861298 
	C119.332397,346.874207 121.621231,355.896942 123.846268,364.935211 
	C124.553947,367.809875 125.197876,370.913849 129.095673,370.047760 
	C133.478699,369.073914 132.223129,365.649017 131.528137,362.775146 
	C129.345596,353.750183 127.071091,344.747467 124.830200,335.728027 
	C133.723251,333.820160 133.850357,333.903412 135.890228,342.125854 
	C139.372421,356.162170 142.878464,370.192596 146.348755,384.231842 
	C149.076340,395.266418 145.566864,401.781738 134.781937,405.476135 
	C124.743462,408.914856 114.449791,410.432831 103.296371,408.697968 
	C102.070557,407.581238 101.454109,406.788940 100.690750,406.181152 
	C93.520340,400.472168 90.543953,393.422943 93.114372,384.264282 
	C94.634583,378.847626 95.667343,373.294159 96.919296,367.802216 
z"/>
<path fill="#D0AE8B" opacity="1.000000" stroke="none" 
	d="
M48.537674,177.471359 
	C40.463238,219.767715 51.828163,258.981506 68.793655,298.502716 
	C65.907181,297.780121 64.357605,297.524750 62.900955,297.007660 
	C41.412445,289.378937 26.449522,268.791687 26.071371,245.945465 
	C25.839834,231.956909 25.903704,217.960434 26.044056,203.969635 
	C26.174566,190.959824 34.449142,180.403091 47.588894,176.940521 
	C48.281677,177.240417 48.409676,177.355896 48.537674,177.471359 
z"/>
<path fill="#C7A688" opacity="1.000000" stroke="none" 
	d="
M96.635193,368.052856 
	C95.667343,373.294159 94.634583,378.847626 93.114372,384.264282 
	C90.543953,393.422943 93.520340,400.472168 100.690750,406.181152 
	C101.454109,406.788940 102.070557,407.581238 102.880157,408.593658 
	C96.116623,407.216461 88.994606,406.155212 82.403687,403.679840 
	C75.483864,401.080963 72.521759,393.881409 74.354942,386.273895 
	C78.205643,370.293884 82.334770,354.381165 86.229637,338.411560 
	C87.746117,332.193726 92.444611,336.424988 96.432579,334.134003 
	C95.669617,337.931458 95.258110,340.444824 94.651611,342.910217 
	C92.906319,350.004700 90.925354,357.046478 89.407967,364.187744 
	C89.062012,365.815948 89.736038,368.833038 90.788277,369.299774 
	C92.214653,369.932404 94.458115,368.722839 96.635193,368.052856 
z"/>
<path fill="#D0AE8B" opacity="1.000000" stroke="none" 
	d="
M47.966599,176.946411 
	C48.081642,176.882889 48.383762,176.997894 48.611778,177.292114 
	C48.409676,177.355896 48.281677,177.240417 47.966599,176.946411 
z"/>
<path fill="#393837" opacity="1.000000" stroke="none" 
	d="
M124.465363,192.710846 
	C126.438347,200.488739 128.394257,207.874298 130.059097,215.324890 
	C131.822815,223.217941 127.843796,228.329544 119.768112,228.728653 
	C116.450470,228.892624 113.104752,228.926712 109.793823,228.699310 
	C102.286301,228.183685 98.360825,223.151169 99.938675,215.780075 
	C101.536278,208.316681 103.530846,200.938034 105.363754,193.525284 
	C106.571388,188.641251 109.564583,185.436203 114.668213,185.246246 
	C119.486931,185.066925 122.820152,187.642960 124.465363,192.710846 
M121.994339,215.813156 
	C120.070488,208.247238 118.146637,200.681305 116.183456,192.960739 
	C114.726173,193.565186 114.219315,193.629593 114.168373,193.817551 
	C112.003105,201.807877 109.809219,209.792496 107.866463,217.837616 
	C107.691200,218.563400 109.107628,220.435364 109.888893,220.499054 
	C113.356659,220.781754 116.889359,220.822815 120.332977,220.407501 
	C121.076233,220.317856 121.548065,217.977783 121.994339,215.813156 
z"/>
<path fill="#393837" opacity="1.000000" stroke="none" 
	d="
M97.936234,124.410568 
	C98.845139,119.347679 101.028999,115.568275 105.760384,113.220840 
	C116.911201,111.045631 125.150627,117.583359 123.589294,126.939690 
	C122.507935,133.419785 117.137947,138.056824 110.790489,137.991623 
	C103.640549,137.918167 98.874268,133.010437 97.936234,124.410568 
M106.064323,124.683296 
	C107.222183,129.155792 109.846359,131.213516 112.668404,129.410217 
	C114.083107,128.506195 115.548439,126.264984 115.420570,124.762146 
	C115.292915,123.261948 113.076363,120.681053 112.001862,120.790733 
	C109.976990,120.997421 108.114677,122.796722 106.064323,124.683296 
z"/>
<path fill="#CBAA88" opacity="1.000000" stroke="none" 
	d="
M122.069626,216.243744 
	C121.548065,217.977783 121.076233,220.317856 120.332977,220.407501 
	C116.889359,220.822815 113.356659,220.781754 109.888893,220.499054 
	C109.107628,220.435364 107.691200,218.563400 107.866463,217.837616 
	C109.809219,209.792496 112.003105,201.807877 114.168373,193.817551 
	C114.219315,193.629593 114.726173,193.565186 116.183456,192.960739 
	C118.146637,200.681305 120.070488,208.247238 122.069626,216.243744 
z"/>
<path fill="#E58473" opacity="1.000000" stroke="none" 
	d="
M106.124557,124.308647 
	C108.114677,122.796722 109.976990,120.997421 112.001862,120.790733 
	C113.076363,120.681053 115.292915,123.261948 115.420570,124.762146 
	C115.548439,126.264984 114.083107,128.506195 112.668404,129.410217 
	C109.846359,131.213516 107.222183,129.155792 106.124557,124.308647 
z"/>
</svg>