<svg version="1.1" id="Layer_1" xmlns="http://www.w3.org/2000/svg" xmlns:xlink="http://www.w3.org/1999/xlink" x="0px" y="0px"
	 width="100%" viewBox="0 0 512 512" xml:space="preserve">

<path fill="#99D53C" opacity="1.000000" stroke="none" 
	d="
M336.690186,106.677780 
	C346.284637,95.102722 355.815125,83.473869 365.491699,71.967888 
	C374.986847,60.677696 384.627472,49.509819 394.210419,38.293560 
	C398.263092,33.550194 402.443268,28.910669 406.365143,24.061911 
	C411.414764,17.818935 417.570374,17.296335 423.657684,23.414879 
	C425.239441,28.536934 425.092224,32.804523 421.799774,36.641342 
	C416.274384,43.080360 410.856934,49.612114 405.400208,56.109997 
	C389.030670,75.602821 372.665527,95.099327 356.295990,114.592125 
	C342.923096,130.516449 329.651428,146.527481 316.128693,162.323563 
	C308.925812,170.737320 302.465942,179.506134 298.795044,190.427795 
	C289.695740,206.772141 280.789734,222.853622 271.911499,238.958252 
	C271.939240,238.981369 271.985260,238.925705 271.742767,239.021637 
	C271.343384,239.420166 271.186493,239.722778 270.800354,240.272491 
	C251.745728,271.628143 231.553787,301.804382 209.235443,330.534302 
	C208.672424,331.259033 208.523041,332.305145 208.180756,333.201355 
	C208.180756,333.201355 208.125778,333.158142 207.863708,333.179932 
	C207.471756,333.543182 207.341888,333.884644 207.212036,334.226105 
	C207.212036,334.226105 207.174149,334.157928 206.860718,334.236938 
	C206.014954,335.545227 205.482620,336.774445 204.950287,338.003662 
	C204.950272,338.003662 204.947968,337.945679 204.594223,337.871918 
	C203.766449,338.010529 203.292419,338.222900 202.498352,338.297485 
	C195.785629,332.772583 189.392944,327.385406 183.181244,321.717224 
	C200.343628,296.971527 218.242523,273.086121 234.126755,247.928635 
	C274.507904,183.972885 306.321228,115.979706 326.354706,42.830650 
	C330.082245,29.220238 334.984589,15.602621 333.000000,1.000000 
	C333.750000,1.000000 334.500000,1.000000 335.625000,1.000002 
	C336.882355,1.656151 337.678833,2.673281 338.661652,2.907080 
	C343.369934,4.027088 348.202515,4.672666 352.851593,5.981669 
	C359.336700,7.807622 361.166840,12.002321 360.173035,18.836430 
	C356.564392,43.653069 348.954285,67.382492 341.057953,91.046104 
	C339.475037,95.789726 337.718170,100.475304 335.720825,105.680389 
	C335.351654,106.622429 335.303192,107.071732 335.254761,107.521034 
	C335.733246,107.239944 336.211700,106.958862 336.690186,106.677780 
z"/>
<path fill="#BCEA73" opacity="1.000000" stroke="none" 
	d="
M332.533875,1.000000 
	C334.984589,15.602621 330.082245,29.220238 326.354706,42.830650 
	C306.321228,115.979706 274.507904,183.972885 234.126755,247.928635 
	C218.242523,273.086121 200.343628,296.971527 182.946014,321.704956 
	C182.529800,321.973663 182.059692,321.942261 181.852264,321.682434 
	C176.738586,316.921326 171.832321,312.420044 166.926056,307.918732 
	C179.228653,291.122742 192.332672,274.846252 203.638916,257.404358 
	C219.123093,233.517288 233.844711,209.084015 247.794266,184.267151 
	C265.426941,152.897934 280.319580,120.155792 291.945099,86.047668 
	C298.136810,67.881744 303.775055,49.520615 309.317200,31.143278 
	C311.365631,24.350817 312.151093,17.183918 314.053070,10.337960 
	C314.926605,7.193855 317.103912,4.411967 318.344971,1.232911 
	C322.689240,1.000000 327.378510,1.000000 332.533875,1.000000 
z"/>
<path fill="#DBF2B5" opacity="1.000000" stroke="none" 
	d="
M182.059692,321.942261 
	C182.059692,321.942261 182.529800,321.973663 182.765030,321.985931 
	C189.392944,327.385406 195.785629,332.772583 202.627960,338.496887 
	C203.265610,339.116516 203.524048,339.299774 203.852951,339.383820 
	C198.874084,346.124176 194.005188,352.949249 188.891495,359.585724 
	C180.484451,370.496277 171.853989,381.234558 163.436996,392.137573 
	C153.743301,404.694366 144.171829,417.345581 134.560623,429.965973 
	C123.978523,443.861176 113.454453,457.800812 102.825050,471.659668 
	C93.661858,483.606903 84.438683,495.509308 75.109634,507.326996 
	C73.529037,509.329224 71.279434,510.803314 69.669464,512.760742 
	C64.645073,513.000000 59.290142,513.000000 53.467606,513.000000 
	C53.004219,512.529236 53.181019,511.737793 52.987846,511.633820 
	C44.275692,506.945038 41.876476,498.224060 39.317902,489.507294 
	C48.179127,491.336395 54.614052,488.018097 59.698109,481.411774 
	C83.628738,450.316040 107.546898,419.210632 131.435516,388.082611 
	C148.338364,366.057404 165.186905,343.990540 182.059692,321.942261 
z"/>
<path fill="#1DA56F" opacity="1.000000" stroke="none" 
	d="
M208.526733,333.271484 
	C208.523041,332.305145 208.672424,331.259033 209.235443,330.534302 
	C231.553787,301.804382 251.745728,271.628143 270.979736,240.107254 
	C271.615784,239.460571 271.814728,239.204163 271.985260,238.925705 
	C271.985260,238.925705 271.939240,238.981369 272.255829,238.891541 
	C273.551849,238.197006 274.596283,237.676132 275.500946,236.974960 
	C288.776733,226.685364 301.809174,216.066086 315.336639,206.119736 
	C360.057159,173.238007 407.656799,145.416580 459.586853,125.401138 
	C464.701691,123.429733 468.101562,120.370193 469.069672,114.884666 
	C471.682526,121.197342 474.402130,127.468460 476.880798,133.833405 
	C479.854858,141.470352 476.880463,146.819870 468.845612,150.021713 
	C456.829193,154.810181 444.781128,159.589569 433.076935,165.077515 
	C401.666321,179.805542 371.613647,197.029617 343.309906,217.067963 
	C324.045593,230.706635 305.290497,245.112640 286.864838,259.871155 
	C274.265076,269.963257 262.507294,281.125122 250.594254,292.049927 
	C241.538696,300.354248 232.756180,308.961914 223.997345,317.582123 
	C218.810120,322.687256 213.904800,328.078827 208.526733,333.271484 
z"/>
<path fill="#82B732" opacity="1.000000" stroke="none" 
	d="
M298.988373,190.164917 
	C302.465942,179.506134 308.925812,170.737320 316.128693,162.323563 
	C329.651428,146.527481 342.923096,130.516449 356.295990,114.592125 
	C372.665527,95.099327 389.030670,75.602821 405.400208,56.109997 
	C410.856934,49.612114 416.274384,43.080360 421.799774,36.641342 
	C425.092224,32.804523 425.239441,28.536934 423.980957,23.575523 
	C430.075684,28.373627 436.115753,33.654041 442.316803,38.738113 
	C447.959412,43.364346 446.771027,49.988079 442.647430,54.867050 
	C429.506226,70.415504 416.226227,85.847130 403.143341,101.444260 
	C391.446838,115.388542 379.940674,129.492508 368.710327,143.771881 
	C369.070099,144.017731 369.042389,143.929962 368.810760,143.624817 
	C368.109253,143.872452 367.639374,144.425217 366.992157,145.274536 
	C361.272552,149.205338 355.725952,152.832993 350.188843,156.475037 
	C333.120056,167.702026 316.054901,178.934540 298.988373,190.164917 
z"/>
<path fill="#2DB181" opacity="1.000000" stroke="none" 
	d="
M298.795044,190.427795 
	C316.054901,178.934540 333.120056,167.702026 350.188843,156.475037 
	C355.725952,152.832993 361.272552,149.205338 367.295837,145.272278 
	C368.198700,144.625610 368.620544,144.277771 369.042358,143.929962 
	C369.042389,143.929962 369.070099,144.017731 369.026489,144.032074 
	C375.834869,140.623886 382.606903,137.028702 389.553864,133.811188 
	C410.450653,124.132790 431.317200,114.377106 452.404388,105.127747 
	C460.385315,101.627121 465.387604,104.825356 469.025055,114.515991 
	C468.101562,120.370193 464.701691,123.429733 459.586853,125.401138 
	C407.656799,145.416580 360.057159,173.238007 315.336639,206.119736 
	C301.809174,216.066086 288.776733,226.685364 275.500946,236.974960 
	C274.596283,237.676132 273.551849,238.197006 272.228088,238.868423 
	C280.789734,222.853622 289.695740,206.772141 298.795044,190.427795 
z"/>
<path fill="#1DA56F" opacity="1.000000" stroke="none" 
	d="
M205.289841,337.917053 
	C205.482620,336.774445 206.014954,335.545227 206.899658,334.239288 
	C206.711136,335.385223 206.170258,336.607819 205.289841,337.917053 
z"/>
<path fill="#1DA56F" opacity="1.000000" stroke="none" 
	d="
M204.120911,339.206787 
	C203.524048,339.299774 203.265610,339.116516 202.947998,338.634644 
	C203.292419,338.222900 203.766449,338.010529 204.623047,337.875305 
	C204.800034,338.311584 204.594452,338.670654 204.120911,339.206787 
z"/>
<path fill="#1DA56F" opacity="1.000000" stroke="none" 
	d="
M207.554199,334.237305 
	C207.341888,333.884644 207.471756,333.543182 207.887848,333.154633 
	C208.081512,333.487854 207.988937,333.868164 207.554199,334.237305 
z"/>
<path fill="#ECF8D9" opacity="1.000000" stroke="none" 
	d="
M181.852264,321.682434 
	C165.186905,343.990540 148.338364,366.057404 131.435516,388.082611 
	C107.546898,419.210632 83.628738,450.316040 59.698109,481.411774 
	C54.614052,488.018097 48.179127,491.336395 39.256760,489.117004 
	C32.500282,467.159302 36.948380,447.569427 51.982815,430.629761 
	C62.157341,419.165833 72.941063,408.242920 83.439888,397.066345 
	C93.597397,386.253113 103.732040,375.418396 113.889511,364.605103 
	C124.388161,353.428619 134.949890,342.310944 145.392838,331.082764 
	C152.436157,323.509857 159.321381,315.789917 166.601685,308.027222 
	C171.832321,312.420044 176.738586,316.921326 181.852264,321.682434 
z"/>
<path fill="#000000" opacity="1.000000" stroke="none" 
	d="
M336.504089,106.495239 
	C336.211700,106.958862 335.733246,107.239944 335.254761,107.521034 
	C335.303192,107.071732 335.351654,106.622429 335.670776,106.062607 
	C336.066986,106.072296 336.192474,106.192505 336.504089,106.495239 
z"/>
<path fill="#2DB181" opacity="1.000000" stroke="none" 
	d="
M271.742767,239.021637 
	C271.814728,239.204163 271.615784,239.460571 271.209045,239.860168 
	C271.186493,239.722778 271.343384,239.420166 271.742767,239.021637 
z"/>
<path fill="#000000" opacity="1.000000" stroke="none" 
	d="
M368.810730,143.624817 
	C368.620544,144.277771 368.198700,144.625610 367.473175,144.975708 
	C367.639374,144.425217 368.109253,143.872452 368.810730,143.624817 
z"/>
</svg>