<svg version="1.1" id="Layer_1" xmlns="http://www.w3.org/2000/svg" xmlns:xlink="http://www.w3.org/1999/xlink" x="0px" y="0px"
	 width="100%" viewBox="0 0 512 512" xml:space="preserve">

<path fill="#F99631" opacity="1.000000" stroke="none" 
	d="
M145.870972,157.962433 
	C149.876755,149.265671 160.084885,145.976486 169.775940,150.748489 
	C196.715286,164.013779 224.109344,176.355957 251.329849,189.049774 
	C262.639160,194.323669 273.963867,199.564529 285.679443,205.005188 
	C285.226593,206.364090 284.751556,207.789505 283.871002,209.753265 
	C282.968994,210.953262 282.338745,211.552322 281.995544,212.285690 
	C272.397797,232.795044 262.766968,253.289352 253.289154,273.854156 
	C249.955399,281.087677 247.008408,288.499420 243.884827,295.829803 
	C242.845367,299.944244 240.418076,300.784058 236.754730,298.922089 
	C222.820435,291.839722 208.846161,285.086090 196.817917,274.585052 
	C178.871155,258.916931 164.727249,240.492706 154.859802,219.062683 
	C150.244781,209.039825 148.180344,197.838760 145.018829,187.154266 
	C144.516266,185.455826 144.325363,183.665161 144.171509,181.186676 
	C144.212479,177.607040 144.072296,174.757858 143.961151,171.532349 
	C143.995544,170.156342 144.000900,169.156662 144.246643,167.849289 
	C144.948334,164.348557 145.409653,161.155487 145.870972,157.962433 
M202.320480,193.332413 
	C204.147446,188.474640 203.408234,184.111298 199.481323,180.619324 
	C196.230545,177.728638 192.378952,177.073807 188.306396,178.681259 
	C183.596924,180.540100 181.316391,184.243484 181.252899,189.165955 
	C181.191803,193.904709 184.590958,198.032700 189.291824,199.460739 
	C194.113052,200.925323 198.177826,199.199646 202.320480,193.332413 
z"/>
<path fill="#FA5B00" opacity="1.000000" stroke="none" 
	d="
M145.494537,157.976608 
	C145.409653,161.155487 144.948334,164.348557 143.859421,167.782669 
	C142.449020,167.832642 141.625870,167.739410 140.889420,167.435867 
	C129.201004,162.618576 117.431923,157.981827 105.873215,152.869843 
	C96.797371,148.855972 87.749092,144.529800 81.683533,136.134079 
	C77.650291,130.551437 73.882629,124.776932 69.964447,119.041992 
	C70.336235,131.832825 74.545700,143.297668 83.375923,152.798584 
	C94.336472,164.591614 108.944603,167.562836 124.143021,169.053131 
	C130.769012,169.702850 137.337524,170.938904 143.932129,171.908676 
	C144.072296,174.757858 144.212479,177.607040 144.139755,180.766998 
	C127.578560,179.124832 110.726944,179.284195 95.318275,172.826004 
	C75.562408,164.545792 64.384399,149.167175 60.899040,127.890244 
	C58.810905,115.142860 62.760525,103.936989 66.879128,92.242653 
	C69.602615,84.509583 70.633705,76.085281 75.060753,68.978355 
	C85.258110,52.608082 99.549126,42.836468 119.243942,40.857399 
	C134.610474,39.313259 147.861237,45.042419 161.335770,50.712914 
	C179.617264,58.406319 197.846252,66.238625 216.293961,73.513840 
	C221.504044,75.568550 227.366028,76.109085 232.987778,76.952408 
	C244.950714,78.746986 256.944305,80.345039 268.940186,81.909843 
	C279.983063,83.350349 291.050934,84.598816 302.097870,86.009438 
	C317.323303,87.953621 332.539429,89.970718 347.757477,91.956314 
	C347.288696,95.465965 346.893188,98.426857 346.480103,101.519493 
	C331.299713,99.640877 316.571503,97.893150 301.865234,95.977203 
	C287.145172,94.059464 272.447021,91.973640 257.593048,90.530602 
	C286.647400,102.585831 315.701752,114.641052 344.910278,126.760254 
	C343.458954,130.085556 342.252777,132.849152 340.900421,135.947693 
	C312.550049,124.136230 284.406219,112.408852 256.260681,100.685654 
	C244.705063,95.872498 233.355927,90.439041 221.513550,86.483124 
	C213.728836,83.882668 205.252869,83.267876 197.045578,82.036423 
	C185.567932,80.314285 174.056610,78.812668 162.551239,77.280357 
	C153.951187,76.134987 145.345551,75.022865 136.727737,74.022369 
	C130.048584,73.246933 123.314972,71.886658 116.661369,72.157440 
	C101.304916,72.782417 88.778015,79.290154 79.465828,91.871498 
	C74.915825,98.018837 77.103569,104.183846 78.744080,110.202477 
	C83.189461,126.511429 93.699226,137.289734 109.523155,143.307022 
	C121.515289,147.867218 133.262115,153.072540 145.494537,157.976608 
M92.012939,63.481781 
	C90.043762,65.748924 88.074585,68.016068 86.105408,70.283211 
	C89.415871,69.784271 91.825508,68.425697 94.341011,67.304688 
	C102.662292,63.596401 111.451805,61.834919 120.510674,62.097393 
	C125.544388,62.243237 130.552048,63.325230 135.569031,64.003120 
	C144.466019,65.205269 153.358475,66.441269 162.258041,67.623932 
	C168.197845,68.413277 174.146667,69.134766 180.091461,69.886627 
	C167.459625,64.069427 154.801971,58.660515 142.025620,53.548210 
	C124.489975,46.531525 106.070854,50.667809 92.012939,63.481781 
z"/>
<path fill="#F99631" opacity="1.000000" stroke="none" 
	d="
M450.070801,361.909119 
	C452.456055,361.496063 454.841309,361.083038 457.271484,360.662201 
	C459.646515,395.901489 438.074402,449.739044 384.492981,470.974762 
	C383.665497,469.253937 382.830750,467.517944 381.947937,465.036469 
	C381.771271,463.643188 381.722717,462.966766 381.502563,462.351746 
	C374.010437,441.420776 366.548462,420.478821 358.972321,399.578247 
	C356.095947,391.643097 352.951447,383.805176 349.929138,375.922943 
	C350.712891,374.947540 351.496643,373.972168 352.907104,373.163361 
	C354.506012,373.347321 355.492126,373.479828 356.448425,373.364716 
	C368.442474,371.921295 380.432159,370.441467 392.423065,368.972076 
	C411.638947,366.617310 430.854889,364.263367 450.070801,361.909119 
z"/>
<path fill="#F99631" opacity="1.000000" stroke="none" 
	d="
M377.890320,253.942581 
	C378.479950,252.458710 379.069611,250.974854 379.805115,249.123962 
	C414.861389,263.605835 438.149719,288.496674 450.314819,324.276733 
	C448.758698,325.056488 447.478210,325.698151 445.631714,326.661499 
	C443.476257,327.420013 441.815277,327.686584 440.308167,328.319550 
	C421.143707,336.368103 401.979828,344.418793 382.863037,352.579651 
	C374.168793,356.291260 365.578888,360.247375 356.941650,364.092529 
	C353.094513,366.207520 350.337982,364.130280 350.218689,360.772705 
	C349.947449,353.137482 345.757843,349.181335 339.315735,346.723053 
	C336.233368,345.546814 335.051514,343.816772 337.362061,340.208130 
	C338.439545,338.538666 339.312744,337.506073 339.869110,336.324341 
	C348.510284,317.970398 357.163940,299.621979 365.697174,281.217773 
	C369.885895,272.183685 373.833557,263.037842 377.890320,253.942581 
z"/>
<path fill="#F99631" opacity="1.000000" stroke="none" 
	d="
M301.885529,217.948822 
	C302.475616,216.663712 303.065674,215.378586 303.833649,213.705963 
	C310.302551,216.686203 316.748962,219.613205 323.158722,222.618378 
	C334.734741,228.045776 346.248291,233.608932 357.881714,238.909576 
	C360.664154,240.177368 361.791107,241.458847 359.648682,244.811218 
	C358.668365,246.354584 357.897522,247.258560 357.412354,248.296127 
	C347.259979,270.007538 337.094727,291.713226 327.044128,313.471771 
	C324.404510,319.186310 322.139954,325.074097 319.703186,330.882324 
	C318.753845,332.546478 317.804535,334.210602 316.727112,336.099304 
	C310.952454,333.455475 305.375610,330.960602 299.848633,328.359802 
	C287.646423,322.617737 275.537933,316.669617 263.238464,311.145691 
	C259.749756,309.578857 259.270355,307.860504 261.287781,304.357483 
	C262.311707,302.950470 263.225494,302.161438 263.694550,301.163422 
	C272.872864,281.634552 282.057404,262.108185 291.108704,242.520279 
	C294.859558,234.403061 298.302521,226.143600 301.885529,217.948822 
z"/>
<path fill="#F99631" opacity="1.000000" stroke="none" 
	d="
M300.885742,366.948578 
	C302.025360,364.459137 303.244019,363.355194 306.451965,364.629547 
	C313.587891,367.464203 321.103363,369.353485 328.199829,372.271057 
	C330.257690,373.117065 331.419037,376.143646 333.005676,378.955658 
	C333.320740,381.368378 333.509186,383.026367 333.939392,384.619080 
	C338.663422,402.108032 343.378204,419.599823 348.193054,437.063934 
	C351.415283,448.751404 354.794250,460.395660 358.103088,472.059235 
	C360.155304,475.230469 358.319763,476.463348 355.514282,476.960663 
	C342.394836,479.286255 329.332520,478.161926 316.662109,474.722748 
	C297.661163,469.565247 281.160400,459.673431 267.313324,445.622375 
	C266.080231,444.371155 266.212280,441.774658 266.128235,439.262878 
	C267.196503,437.769775 267.980011,436.881226 268.477386,435.854126 
	C278.539307,415.076447 288.588348,394.292419 298.572906,373.477478 
	C299.565765,371.407623 300.125153,369.129852 300.885742,366.948578 
z"/>
<path fill="#FA5B00" opacity="1.000000" stroke="none" 
	d="
M148.896271,364.055206 
	C142.948761,360.895172 136.971405,357.789764 131.062454,354.559204 
	C125.581467,351.562561 122.976128,346.418121 120.455322,339.428284 
	C128.558746,337.563995 136.317856,335.778931 144.964508,333.984375 
	C163.191132,335.333740 180.577209,336.278503 197.848099,338.238281 
	C205.679001,339.126892 213.281433,342.028992 221.022522,344.075867 
	C221.057541,344.134033 221.224136,344.134369 221.224136,344.134369 
	C221.224136,344.134369 221.018997,343.986145 220.944763,343.651733 
	C219.763824,341.890778 218.782394,340.342255 217.530853,339.056671 
	C206.016296,327.228699 191.093079,320.958221 176.578598,314.016693 
	C170.339905,311.033081 164.148972,307.949585 157.936340,304.911499 
	C152.019196,295.554993 149.202286,285.475952 151.064606,274.394012 
	C151.547150,271.522614 152.890869,270.540771 156.267212,271.517365 
	C166.258759,274.407349 174.267334,280.505493 182.142288,286.769897 
	C187.166458,290.766510 191.619156,295.479309 196.350403,299.846802 
	C208.603622,311.157928 219.094406,323.908295 227.680328,338.777222 
	C228.158615,343.261169 228.680069,347.151672 228.745224,351.031433 
	C224.660233,350.681488 220.944016,349.666840 217.418503,350.123718 
	C204.463516,351.802612 191.485062,353.535614 178.684021,356.092316 
	C168.625870,358.101227 158.816284,361.354645 148.896271,364.055206 
z"/>
<path fill="#F99631" opacity="1.000000" stroke="none" 
	d="
M229.201508,351.042145 
	C228.680069,347.151672 228.158615,343.261169 227.821960,339.084137 
	C241.467514,342.897400 254.935928,346.972290 268.385071,351.109833 
	C273.474213,352.675446 278.518921,354.385590 283.753357,356.084930 
	C283.206177,357.610718 282.736908,358.919281 281.868103,360.764954 
	C280.971558,361.961884 280.337799,362.558228 279.997772,363.290894 
	C273.276794,377.772034 266.537628,392.245148 259.921082,406.774048 
	C257.175385,412.803131 254.706436,418.958221 252.111633,425.056000 
	C251.378174,426.298431 250.644699,427.540833 249.825806,428.927948 
	C244.919815,423.474457 240.171112,418.201477 235.428635,412.922852 
	C226.442764,402.921021 217.455093,392.920776 208.493668,382.897064 
	C208.078217,382.432373 207.911377,381.745422 207.429138,380.691711 
	C208.791565,379.053314 210.473831,378.014435 211.894058,376.693756 
	C217.037964,371.910400 222.646103,367.466766 226.943588,362.001984 
	C229.006302,359.378967 228.528687,354.758179 229.201508,351.042145 
z"/>
<path fill="#F77900" opacity="1.000000" stroke="none" 
	d="
M228.745209,351.031433 
	C228.528687,354.758179 229.006302,359.378967 226.943588,362.001984 
	C222.646103,367.466766 217.037964,371.910400 211.894058,376.693756 
	C210.473831,378.014435 208.791565,379.053314 207.117706,380.531708 
	C199.979614,383.247192 193.100433,386.328308 185.892105,387.897034 
	C175.441589,390.171326 164.799866,392.123535 154.152206,392.768188 
	C144.810471,393.333801 135.909744,390.136169 128.138504,384.574402 
	C123.923187,381.557556 123.880676,379.765778 128.278946,376.995758 
	C134.993484,372.766907 141.874146,368.801849 148.790268,364.389984 
	C158.816284,361.354645 168.625870,358.101227 178.684021,356.092316 
	C191.485062,353.535614 204.463516,351.802612 217.418503,350.123718 
	C220.944016,349.666840 224.660233,350.681488 228.745209,351.031433 
z"/>
<path fill="#F56901" opacity="1.000000" stroke="none" 
	d="
M356.955566,364.462219 
	C365.578888,360.247375 374.168793,356.291260 382.863037,352.579651 
	C401.979828,344.418793 421.143707,336.368103 440.308167,328.319550 
	C441.815277,327.686584 443.476257,327.420013 445.449646,326.985718 
	C448.716858,338.139374 450.608124,349.412415 450.041077,361.450104 
	C430.854889,364.263367 411.638947,366.617310 392.423065,368.972076 
	C380.432159,370.441467 368.442474,371.921295 356.448425,373.364716 
	C355.492126,373.479828 354.506012,373.347321 353.229950,373.126953 
	C354.273926,370.226624 355.621704,367.529266 356.955566,364.462219 
z"/>
<path fill="#F56901" opacity="1.000000" stroke="none" 
	d="
M358.452209,471.886353 
	C354.794250,460.395660 351.415283,448.751404 348.193054,437.063934 
	C343.378204,419.599823 338.663422,402.108032 333.939392,384.619080 
	C333.509186,383.026367 333.320740,381.368378 333.048645,379.329346 
	C339.048218,381.477509 344.218323,379.218140 349.598022,376.075195 
	C352.951447,383.805176 356.095947,391.643097 358.972321,399.578247 
	C366.548462,420.478821 374.010437,441.420776 381.502563,462.351746 
	C381.722717,462.966766 381.771271,463.643188 381.892456,464.670837 
	C376.041809,466.801849 370.203949,468.571198 364.352173,470.293304 
	C362.521149,470.832184 360.652649,471.243713 358.452209,471.886353 
z"/>
<path fill="#F56900" opacity="1.000000" stroke="none" 
	d="
M319.905548,331.211792 
	C322.139954,325.074097 324.404510,319.186310 327.044128,313.471771 
	C337.094727,291.713226 347.259979,270.007538 357.412354,248.296127 
	C357.897522,247.258560 358.668365,246.354584 359.573608,245.185120 
	C365.635376,247.893188 371.429718,250.804535 377.557190,253.829224 
	C373.833557,263.037842 369.885895,272.183685 365.697174,281.217773 
	C357.163940,299.621979 348.510284,317.970398 339.869110,336.324341 
	C339.312744,337.506073 338.439545,338.538666 337.439850,339.838074 
	C331.480011,337.204102 325.793976,334.372681 319.905548,331.211792 
z"/>
<path fill="#F56901" opacity="1.000000" stroke="none" 
	d="
M301.517212,217.958954 
	C298.302521,226.143600 294.859558,234.403061 291.108704,242.520279 
	C282.057404,262.108185 272.872864,281.634552 263.694550,301.163422 
	C263.225494,302.161438 262.311707,302.950470 261.282349,303.972046 
	C255.498474,301.440796 250.037201,298.774323 244.230362,295.968842 
	C247.008408,288.499420 249.955399,281.087677 253.289154,273.854156 
	C262.766968,253.289352 272.397797,232.795044 281.995544,212.285690 
	C282.338745,211.552322 282.968994,210.953262 283.747070,210.081207 
	C289.735413,212.570221 295.442169,215.269653 301.517212,217.958954 
z"/>
<path fill="#F77900" opacity="1.000000" stroke="none" 
	d="
M220.987503,344.017700 
	C213.281433,342.028992 205.679001,339.126892 197.848099,338.238281 
	C180.577209,336.278503 163.191132,335.333740 145.379303,333.959900 
	C138.045532,327.693604 130.877090,321.695160 127.314346,312.713989 
	C126.839020,311.515778 126.310722,310.317963 126.020309,309.070312 
	C124.089951,300.777466 126.411240,298.367004 134.897278,300.085846 
	C142.338455,301.593079 149.730865,303.341003 157.540573,304.947083 
	C164.148972,307.949585 170.339905,311.033081 176.578598,314.016693 
	C191.093079,320.958221 206.016296,327.228699 217.530853,339.056671 
	C218.782394,340.342255 219.763824,341.890778 220.935791,343.658691 
	C221.001038,344.000000 220.987503,344.017700 220.987503,344.017700 
z"/>
<path fill="#F56901" opacity="1.000000" stroke="none" 
	d="
M252.426453,425.157227 
	C254.706436,418.958221 257.175385,412.803131 259.921082,406.774048 
	C266.537628,392.245148 273.276794,377.772034 279.997772,363.290894 
	C280.337799,362.558228 280.971558,361.961884 281.754089,361.098267 
	C288.065063,362.925964 294.090546,364.957520 300.500885,366.968811 
	C300.125153,369.129852 299.565765,371.407623 298.572906,373.477478 
	C288.588348,394.292419 278.539307,415.076447 268.477386,435.854126 
	C267.980011,436.881226 267.196503,437.769775 266.265930,438.927338 
	C261.570862,434.507385 257.156036,429.882935 252.426453,425.157227 
z"/>
<path fill="#000000" opacity="1.000000" stroke="none" 
	d="
M143.961151,171.532349 
	C137.337524,170.938904 130.769012,169.702850 124.143021,169.053131 
	C108.944603,167.562836 94.336472,164.591614 83.375923,152.798584 
	C74.545700,143.297668 70.336235,131.832825 69.964447,119.041992 
	C73.882629,124.776932 77.650291,130.551437 81.683533,136.134079 
	C87.749092,144.529800 96.797371,148.855972 105.873215,152.869843 
	C117.431923,157.981827 129.201004,162.618576 140.889420,167.435867 
	C141.625870,167.739410 142.449020,167.832642 143.619049,168.090347 
	C144.000900,169.156662 143.995544,170.156342 143.961151,171.532349 
z"/>
<path fill="#050301" opacity="1.000000" stroke="none" 
	d="
M202.161774,193.698303 
	C198.177826,199.199646 194.113052,200.925323 189.291824,199.460739 
	C184.590958,198.032700 181.191803,193.904709 181.252899,189.165955 
	C181.316391,184.243484 183.596924,180.540100 188.306396,178.681259 
	C192.378952,177.073807 196.230545,177.728638 199.481323,180.619324 
	C203.408234,184.111298 204.147446,188.474640 202.161774,193.698303 
z"/>
<path fill="#000000" opacity="1.000000" stroke="none" 
	d="
M92.267654,63.232620 
	C106.070854,50.667809 124.489975,46.531525 142.025620,53.548210 
	C154.801971,58.660515 167.459625,64.069427 180.091461,69.886627 
	C174.146667,69.134766 168.197845,68.413277 162.258041,67.623932 
	C153.358475,66.441269 144.466019,65.205269 135.569031,64.003120 
	C130.552048,63.325230 125.544388,62.243237 120.510674,62.097393 
	C111.451805,61.834919 102.662292,63.596401 94.341011,67.304688 
	C91.825508,68.425697 89.415871,69.784271 86.105408,70.283211 
	C88.074585,68.016068 90.043762,65.748924 92.267654,63.232620 
z"/>
<path fill="#F77900" opacity="1.000000" stroke="none" 
	d="
M221.010010,343.993073 
	C221.018997,343.986145 221.224136,344.134369 221.224136,344.134369 
	C221.224136,344.134369 221.057541,344.134033 221.022522,344.075867 
	C220.987503,344.017700 221.001038,344.000000 221.010010,343.993073 
z"/>
</svg>