<svg version="1.1" id="Layer_1" xmlns="http://www.w3.org/2000/svg" xmlns:xlink="http://www.w3.org/1999/xlink" x="0px" y="0px"
	 width="100%" viewBox="0 0 512 512" xml:space="preserve">

<path fill="#E64C49" opacity="1.000000" stroke="none" 
	d="
M125.433952,466.433899 
	C106.735138,470.296692 88.284668,472.612183 69.567528,471.955383 
	C51.688934,471.328064 34.274235,468.184509 17.511646,461.783539 
	C16.738777,461.488403 15.849901,461.230316 15.297170,460.674438 
	C13.485893,458.852997 11.804951,456.901886 10.073935,455.000610 
	C12.008434,453.616699 13.783193,451.891815 15.901165,450.899536 
	C52.849834,433.589020 90.195145,417.080811 126.712967,398.908600 
	C157.431793,383.622162 184.916473,363.430420 207.877991,337.552002 
	C227.788177,315.112549 243.728165,289.939148 256.728241,263.112976 
	C275.751190,223.858398 293.358521,183.920258 312.016052,144.484848 
	C319.021149,129.678543 330.934448,120.268829 347.537933,117.843246 
	C350.199799,117.454384 353.207947,117.889847 355.789948,118.746277 
	C375.598083,125.316406 393.807465,135.100525 411.565887,145.995041 
	C421.843079,152.299957 424.617798,161.269318 425.079773,172.356094 
	C426.462372,205.538116 416.139679,235.518585 400.550873,264.063751 
	C381.432617,299.071747 355.748962,328.899384 326.586578,355.787750 
	C283.408142,395.599121 235.058182,427.600281 180.315979,449.195526 
	C162.654999,456.162628 144.017883,460.655365 125.433952,466.433899 
M355.248444,280.187927 
	C358.774078,284.566040 361.644318,284.545441 364.170105,279.478546 
	C370.899048,265.979889 378.168640,252.657349 383.636353,238.645538 
	C391.537354,218.398148 395.992249,197.314224 393.269348,175.276794 
	C392.858307,171.950180 392.206238,169.069061 388.109650,169.681046 
	C384.311035,170.248505 384.743286,173.249100 384.678680,176.252640 
	C384.460968,186.370071 384.740112,196.606171 383.270233,206.566803 
	C379.934937,229.168198 370.723999,249.770706 359.793732,269.654236 
	C358.053314,272.820221 356.638580,276.165192 355.248444,280.187927 
z"/>
<path fill="#60F889" opacity="1.000000" stroke="none" 
	d="
M427.190430,59.191353 
	C448.133087,41.931278 470.981171,37.342297 496.301270,46.935024 
	C497.537079,47.403217 498.775787,47.891819 499.945862,48.500301 
	C503.550323,50.374741 504.978851,53.285488 503.505798,57.168346 
	C502.152740,60.734928 498.476868,61.978073 494.343262,60.200363 
	C485.968536,56.598747 477.372528,54.780766 468.185974,55.629715 
	C451.865906,57.137894 438.821960,64.997063 428.382599,76.964722 
	C421.226257,85.168709 415.288574,94.435745 408.541412,103.586624 
	C405.573975,102.119347 401.798828,100.252686 397.709473,98.230675 
	C405.264984,83.537773 414.453766,70.264107 427.190430,59.191353 
z"/>
<path fill="#60F889" opacity="1.000000" stroke="none" 
	d="
M414.960327,133.340591 
	C414.601044,134.676529 414.268738,135.604645 414.022430,136.292648 
	C398.875031,128.569992 383.798370,120.883423 368.784760,113.229012 
	C374.941772,105.787361 385.567108,103.292145 396.159637,107.271019 
	C407.169342,111.406624 416.344086,120.999115 414.960327,133.340591 
z"/>
<path fill="#040101" opacity="1.000000" stroke="none" 
	d="
M355.160858,279.807678 
	C356.638580,276.165192 358.053314,272.820221 359.793732,269.654236 
	C370.723999,249.770706 379.934937,229.168198 383.270233,206.566803 
	C384.740112,196.606171 384.460968,186.370071 384.678680,176.252640 
	C384.743286,173.249100 384.311035,170.248505 388.109650,169.681046 
	C392.206238,169.069061 392.858307,171.950180 393.269348,175.276794 
	C395.992249,197.314224 391.537354,218.398148 383.636353,238.645538 
	C378.168640,252.657349 370.899048,265.979889 364.170105,279.478546 
	C361.644318,284.545441 358.774078,284.566040 355.160858,279.807678 
z"/>
</svg>