<svg version="1.1" id="Layer_1" xmlns="http://www.w3.org/2000/svg" xmlns:xlink="http://www.w3.org/1999/xlink" x="0px" y="0px"
	 width="100%" viewBox="0 0 512 512" enable-background="new 0 0 512 512" xml:space="preserve">
<path fill="none" opacity="1.000000" stroke="none" 
	d="
M513.000000,175.000000 
	C513.000000,287.972534 513.000000,400.445068 513.000000,512.958801 
	C342.402466,512.958801 171.804901,512.958801 1.103673,512.958801 
	C1.103673,342.444153 1.103673,171.888245 1.103673,1.166158 
	C171.666534,1.166158 342.333252,1.166158 513.000000,1.166158 
	C513.000000,58.861729 513.000000,116.680862 513.000000,175.000000 
M186.404633,449.000549 
	C188.501236,449.000549 190.597839,449.000549 192.659729,449.000549 
	C192.659729,416.273804 192.659729,384.210205 192.659729,352.104340 
	C188.340012,352.417419 184.361115,352.948364 180.385162,352.927185 
	C176.237579,352.905121 171.881165,353.057861 167.987961,351.892120 
	C157.808350,348.843994 147.995438,349.475647 137.435715,350.696594 
	C104.532463,354.500885 72.547272,330.751434 64.977417,298.420898 
	C59.953693,276.964691 64.138924,258.009460 81.306549,243.145660 
	C89.747307,235.837601 99.684090,233.410294 110.706734,235.914185 
	C120.723686,238.189606 129.653290,243.027679 136.738525,250.069061 
	C144.333817,257.617371 151.949249,260.053223 162.679901,258.132660 
	C172.320602,256.407135 182.513901,257.769043 192.709564,257.769043 
	C192.709564,235.047333 192.709564,213.310745 192.709564,191.540161 
	C163.980026,194.926559 144.243042,191.936020 129.476807,187.981888 
	C115.177071,184.152649 101.658386,178.643433 91.070801,167.765427 
	C77.609932,153.935303 77.306053,135.944916 91.119102,122.464676 
	C96.722679,116.996117 103.575005,112.248627 110.690247,108.985054 
	C140.223770,95.438850 171.166672,94.179535 202.587692,100.595413 
	C218.754181,103.896446 234.019608,109.599098 246.130539,121.443581 
	C260.654022,135.647522 260.686127,153.955338 246.340714,168.248428 
	C243.382812,171.195557 240.046844,173.763229 236.772324,176.603622 
	C258.400818,176.603622 279.628326,176.603622 301.438324,176.603622 
	C297.685577,139.237762 293.978210,102.323685 290.253998,65.241806 
	C209.203659,65.241806 128.785202,65.241806 49.145866,65.241806 
	C28.707876,193.199280 28.764805,320.906342 49.165432,449.000549 
	C94.154785,449.000549 139.788986,449.000549 186.404633,449.000549 
M416.999786,361.500000 
	C416.999786,305.427887 416.999786,249.355759 416.999786,193.311798 
	C347.349915,193.311798 278.311066,193.311798 209.305496,193.311798 
	C209.305496,289.320740 209.305496,385.017792 209.305496,480.688232 
	C278.650055,480.688232 347.688873,480.688232 416.999786,480.688232 
	C416.999786,441.084900 416.999786,401.792450 416.999786,361.500000 
M480.999237,232.500000 
	C480.999237,219.410294 480.999237,206.320587 480.999237,193.396683 
	C464.580811,193.396683 448.857574,193.396683 433.258545,193.396683 
	C433.258545,289.388794 433.258545,384.984863 433.258545,480.691742 
	C449.239410,480.691742 464.960815,480.691742 480.999237,480.691742 
	C480.999237,398.089783 480.999237,315.794891 480.999237,232.500000 
M110.550194,126.988213 
	C107.833549,129.171616 104.841476,131.091354 102.451813,133.587753 
	C95.234352,141.127609 94.844757,148.693207 102.257629,155.971924 
	C106.787056,160.419388 112.299805,164.482376 118.126289,166.890076 
	C151.653229,180.744522 185.529129,180.698883 219.159546,167.263153 
	C225.023987,164.920258 230.575623,160.929947 235.213455,156.573822 
	C243.136688,149.131866 243.215698,140.967957 235.310150,133.551895 
	C230.438171,128.981567 224.456909,125.267372 218.403961,122.351440 
	C206.432098,116.584160 193.419250,114.263443 180.234131,113.450356 
	C156.131882,111.964035 132.684708,114.319633 110.550194,126.988213 
M120.097481,257.346161 
	C101.249329,245.808716 85.895576,251.880234 80.281075,273.100372 
	C80.069061,273.901672 79.988419,274.737091 79.830391,275.553467 
	C73.582802,307.829407 106.563614,340.921631 138.876770,334.797882 
	C162.252426,330.367889 169.596558,312.795990 156.253281,293.221008 
	C155.972198,292.808624 155.698227,292.390350 155.397720,291.992371 
	C145.502396,278.887756 134.112991,267.298584 120.097481,257.346161 
M197.500000,33.000721 
	C144.614807,33.000721 91.729630,33.000721 38.010715,33.000721 
	C40.131500,37.284115 42.152409,40.717289 43.557808,44.386234 
	C44.970398,48.073959 47.166538,49.104450 51.085320,49.096004 
	C114.533096,48.959194 177.981247,48.999279 241.429321,48.999264 
	C256.916656,48.999256 272.404114,49.029472 287.891052,48.951694 
	C289.432892,48.943951 291.816833,48.773602 292.368347,47.833252 
	C295.065765,43.233780 297.274353,38.347607 299.935516,33.000721 
	C265.427460,33.000721 231.963730,33.000721 197.500000,33.000721 
M184.439896,465.000671 
	C182.274902,465.000671 180.109909,465.000641 177.944916,465.000671 
	C135.477646,465.000763 93.010345,464.981903 50.543251,465.066742 
	C48.755276,465.070312 46.071365,465.481903 45.342892,466.656952 
	C42.664104,470.977783 40.634285,475.700958 38.209621,480.575653 
	C90.166359,480.575653 141.472107,480.575653 192.659515,480.575653 
	C192.659515,475.226257 192.659515,470.306091 192.659515,465.496643 
	C192.018234,465.284241 191.715500,465.103363 191.408234,465.095276 
	C189.411758,465.042786 187.414307,465.027893 184.439896,465.000671 
M173.695572,290.929688 
	C181.926910,306.630371 182.154251,321.710236 169.183441,335.979095 
	C177.712616,335.979095 185.204880,335.979095 193.007202,335.979095 
	C193.007202,324.809906 193.007187,314.664154 193.007187,304.518433 
	C193.007187,294.252380 193.007202,283.986298 193.007202,273.594818 
	C182.442657,273.594818 172.524017,273.594818 162.187698,273.594818 
	C166.159546,279.571533 169.725571,284.937561 173.695572,290.929688 
z"/>
<path fill="#EA423F" opacity="1.000000" stroke="none" 
	d="
M185.913910,449.000549 
	C139.788986,449.000549 94.154785,449.000549 49.165432,449.000549 
	C28.764805,320.906342 28.707876,193.199280 49.145866,65.241806 
	C128.785202,65.241806 209.203659,65.241806 290.253998,65.241806 
	C293.978210,102.323685 297.685577,139.237762 301.438324,176.603622 
	C279.628326,176.603622 258.400818,176.603622 236.772324,176.603622 
	C240.046844,173.763229 243.382812,171.195557 246.340714,168.248428 
	C260.686127,153.955338 260.654022,135.647522 246.130539,121.443581 
	C234.019608,109.599098 218.754181,103.896446 202.587692,100.595413 
	C171.166672,94.179535 140.223770,95.438850 110.690247,108.985054 
	C103.575005,112.248627 96.722679,116.996117 91.119102,122.464676 
	C77.306053,135.944916 77.609932,153.935303 91.070801,167.765427 
	C101.658386,178.643433 115.177071,184.152649 129.476807,187.981888 
	C144.243042,191.936020 163.980026,194.926559 192.709564,191.540161 
	C192.709564,213.310745 192.709564,235.047333 192.709564,257.769043 
	C182.513901,257.769043 172.320602,256.407135 162.679901,258.132660 
	C151.949249,260.053223 144.333817,257.617371 136.738525,250.069061 
	C129.653290,243.027679 120.723686,238.189606 110.706734,235.914185 
	C99.684090,233.410294 89.747307,235.837601 81.306549,243.145660 
	C64.138924,258.009460 59.953693,276.964691 64.977417,298.420898 
	C72.547272,330.751434 104.532463,354.500885 137.435715,350.696594 
	C147.995438,349.475647 157.808350,348.843994 167.987961,351.892120 
	C171.881165,353.057861 176.237579,352.905121 180.385162,352.927185 
	C184.361115,352.948364 188.340012,352.417419 192.659729,352.104340 
	C192.659729,384.210205 192.659729,416.273804 192.659729,449.000549 
	C190.597839,449.000549 188.501236,449.000549 185.913910,449.000549 
M152.459045,411.675751 
	C153.549179,404.762543 150.643326,401.071136 143.782547,401.022827 
	C131.310745,400.934967 118.837685,400.956268 106.365555,401.015900 
	C100.554787,401.043671 96.970955,404.243408 97.035271,409.095520 
	C97.097160,413.765503 100.587463,416.943237 106.067467,416.976837 
	C118.705711,417.054291 131.354935,417.269989 143.975525,416.791534 
	C146.747620,416.686432 149.419067,413.925629 152.459045,411.675751 
M65.219139,410.939972 
	C68.535988,417.547424 74.916733,419.066956 79.019142,414.164978 
	C81.402275,411.317322 82.178368,407.642029 79.665222,405.063599 
	C77.653458,402.999573 74.011070,401.210693 71.285301,401.454742 
	C66.830101,401.853607 64.742050,405.526367 65.219139,410.939972 
z"/>
<path fill="#F7B030" opacity="1.000000" stroke="none" 
	d="
M416.999786,362.000000 
	C416.999786,401.792450 416.999786,441.084900 416.999786,480.688232 
	C347.688873,480.688232 278.650055,480.688232 209.305496,480.688232 
	C209.305496,385.017792 209.305496,289.320740 209.305496,193.311798 
	C278.311066,193.311798 347.349915,193.311798 416.999786,193.311798 
	C416.999786,249.355759 416.999786,305.427887 416.999786,362.000000 
M354.839996,304.646973 
	C339.683044,291.994202 322.410431,286.931122 302.787598,289.866730 
	C270.690369,294.668549 247.205246,323.991028 249.082077,357.084656 
	C250.910980,389.333527 278.290466,416.070251 310.402710,416.965698 
	C337.834412,417.730621 361.951019,402.181854 372.233124,377.101654 
	C382.553833,351.927307 376.070465,324.255066 354.839996,304.646973 
M339.500000,265.000427 
	C351.484680,265.000183 363.469604,265.041412 375.453979,264.983154 
	C381.994385,264.951355 384.933838,262.046295 384.981079,255.563904 
	C385.051392,245.910065 385.044312,236.255051 384.984406,226.601059 
	C384.942566,219.855118 382.032104,217.015411 375.128204,217.011475 
	C333.681061,216.987839 292.233917,216.986801 250.786789,217.012650 
	C243.899734,217.016953 241.054337,219.855087 241.013321,226.675659 
	C240.959259,235.663879 240.993729,244.652649 241.001221,253.641190 
	C241.008789,262.712646 243.342911,264.997864 252.609528,264.999054 
	C281.239685,265.002777 309.869843,265.000427 339.500000,265.000427 
M352.964600,448.605103 
	C352.178009,443.220062 348.893677,440.975464 343.634979,440.984070 
	C323.161713,441.017578 302.688293,440.967499 282.215088,441.018066 
	C276.659180,441.031769 273.183868,444.075867 273.032074,448.744873 
	C272.874115,453.603119 276.481659,456.965515 282.214264,456.980743 
	C302.687439,457.035126 323.160919,456.984467 343.634186,457.014526 
	C348.888702,457.022217 352.175720,454.769928 352.964600,448.605103 
z"/>
<path fill="#E09F2C" opacity="1.000000" stroke="none" 
	d="
M480.999237,233.000000 
	C480.999237,315.794891 480.999237,398.089783 480.999237,480.691742 
	C464.960815,480.691742 449.239410,480.691742 433.258545,480.691742 
	C433.258545,384.984863 433.258545,289.388794 433.258545,193.396683 
	C448.857574,193.396683 464.580811,193.396683 480.999237,193.396683 
	C480.999237,206.320587 480.999237,219.410294 480.999237,233.000000 
z"/>
<path fill="#A72A27" opacity="1.000000" stroke="none" 
	d="
M110.860275,126.797836 
	C132.684708,114.319633 156.131882,111.964035 180.234131,113.450356 
	C193.419250,114.263443 206.432098,116.584160 218.403961,122.351440 
	C224.456909,125.267372 230.438171,128.981567 235.310150,133.551895 
	C243.215698,140.967957 243.136688,149.131866 235.213455,156.573822 
	C230.575623,160.929947 225.023987,164.920258 219.159546,167.263153 
	C185.529129,180.698883 151.653229,180.744522 118.126289,166.890076 
	C112.299805,164.482376 106.787056,160.419388 102.257629,155.971924 
	C94.844757,148.693207 95.234352,141.127609 102.451813,133.587753 
	C104.841476,131.091354 107.833549,129.171616 110.860275,126.797836 
M206.245026,152.999268 
	C207.739426,152.923340 209.279648,153.052994 210.719452,152.732086 
	C214.687378,151.847672 217.315781,148.118011 216.913986,144.223633 
	C216.472214,139.941467 213.194885,137.049072 208.195877,137.036865 
	C182.037277,136.973068 155.878433,137.006714 129.719681,137.013687 
	C129.055588,137.013855 128.370331,137.006165 127.730919,137.155853 
	C123.689407,138.101868 121.189087,140.616623 121.108849,144.799545 
	C121.023880,149.229019 123.554985,151.948120 127.840767,152.825302 
	C129.446320,153.153931 131.159454,152.993515 132.823563,152.994064 
	C156.982941,153.002090 181.142319,152.999573 206.245026,152.999268 
z"/>
<path fill="#F6AF30" opacity="1.000000" stroke="none" 
	d="
M120.390060,257.563416 
	C134.112991,267.298584 145.502396,278.887756 155.397720,291.992371 
	C155.698227,292.390350 155.972198,292.808624 156.253281,293.221008 
	C169.596558,312.795990 162.252426,330.367889 138.876770,334.797882 
	C106.563614,340.921631 73.582802,307.829407 79.830391,275.553467 
	C79.988419,274.737091 80.069061,273.901672 80.281075,273.100372 
	C85.895576,251.880234 101.249329,245.808716 120.390060,257.563416 
z"/>
<path fill="#C7312E" opacity="1.000000" stroke="none" 
	d="
M198.000000,33.000721 
	C231.963730,33.000721 265.427460,33.000721 299.935516,33.000721 
	C297.274353,38.347607 295.065765,43.233780 292.368347,47.833252 
	C291.816833,48.773602 289.432892,48.943951 287.891052,48.951694 
	C272.404114,49.029472 256.916656,48.999256 241.429321,48.999264 
	C177.981247,48.999279 114.533096,48.959194 51.085320,49.096004 
	C47.166538,49.104450 44.970398,48.073959 43.557808,44.386234 
	C42.152409,40.717289 40.131500,37.284115 38.010715,33.000721 
	C91.729630,33.000721 144.614807,33.000721 198.000000,33.000721 
z"/>
<path fill="#C7312E" opacity="1.000000" stroke="none" 
	d="
M184.928528,465.000671 
	C187.414307,465.027893 189.411758,465.042786 191.408234,465.095276 
	C191.715500,465.103363 192.018234,465.284241 192.659515,465.496643 
	C192.659515,470.306091 192.659515,475.226257 192.659515,480.575653 
	C141.472107,480.575653 90.166359,480.575653 38.209621,480.575653 
	C40.634285,475.700958 42.664104,470.977783 45.342892,466.656952 
	C46.071365,465.481903 48.755276,465.070312 50.543251,465.066742 
	C93.010345,464.981903 135.477646,465.000763 177.944916,465.000671 
	C180.109909,465.000641 182.274902,465.000671 184.928528,465.000671 
z"/>
<path fill="#DC9C2B" opacity="1.000000" stroke="none" 
	d="
M173.493591,290.616638 
	C169.725571,284.937561 166.159546,279.571533 162.187698,273.594818 
	C172.524017,273.594818 182.442657,273.594818 193.007202,273.594818 
	C193.007202,283.986298 193.007187,294.252380 193.007187,304.518433 
	C193.007187,314.664154 193.007202,324.809906 193.007202,335.979095 
	C185.204880,335.979095 177.712616,335.979095 169.183441,335.979095 
	C182.154251,321.710236 181.926910,306.630371 173.493591,290.616638 
z"/>
<path fill="#030101" opacity="1.000000" stroke="none" 
	d="
M152.297958,412.031769 
	C149.419067,413.925629 146.747620,416.686432 143.975525,416.791534 
	C131.354935,417.269989 118.705711,417.054291 106.067467,416.976837 
	C100.587463,416.943237 97.097160,413.765503 97.035271,409.095520 
	C96.970955,404.243408 100.554787,401.043671 106.365555,401.015900 
	C118.837685,400.956268 131.310745,400.934967 143.782547,401.022827 
	C150.643326,401.071136 153.549179,404.762543 152.297958,412.031769 
z"/>
<path fill="#0B0303" opacity="1.000000" stroke="none" 
	d="
M65.146896,410.555389 
	C64.742050,405.526367 66.830101,401.853607 71.285301,401.454742 
	C74.011070,401.210693 77.653458,402.999573 79.665222,405.063599 
	C82.178368,407.642029 81.402275,411.317322 79.019142,414.164978 
	C74.916733,419.066956 68.535988,417.547424 65.146896,410.555389 
z"/>
<path fill="#040301" opacity="1.000000" stroke="none" 
	d="
M355.104553,304.884796 
	C376.070465,324.255066 382.553833,351.927307 372.233124,377.101654 
	C361.951019,402.181854 337.834412,417.730621 310.402710,416.965698 
	C278.290466,416.070251 250.910980,389.333527 249.082077,357.084656 
	C247.205246,323.991028 270.690369,294.668549 302.787598,289.866730 
	C322.410431,286.931122 339.683044,291.994202 355.104553,304.884796 
M359.920288,348.632965 
	C360.109833,348.892151 360.299377,349.151337 360.488922,349.410522 
	C360.496002,348.794037 360.503113,348.177582 360.540283,346.754608 
	C357.489105,327.699585 346.830811,314.887817 329.116180,307.774292 
	C322.226013,315.610718 317.144104,314.703430 312.057678,304.964539 
	C298.633026,305.591919 287.170959,310.455261 277.493713,320.852478 
	C285.110016,321.167236 288.455811,323.448059 288.965240,328.155853 
	C289.389496,332.076385 286.802948,336.324951 282.953735,336.674866 
	C280.561340,336.892334 277.565582,336.114471 275.685272,334.677826 
	C273.932556,333.338684 273.296967,330.537445 272.160034,328.361481 
	C255.658203,354.186951 270.371552,385.673218 288.749512,393.580078 
	C290.227264,386.955566 294.306458,383.780182 299.311066,385.358582 
	C304.774261,387.081635 305.888855,391.743805 302.745361,399.723663 
	C331.041260,405.652893 357.968628,386.342072 360.705231,357.934784 
	C360.662231,357.528381 360.619232,357.122009 360.576263,356.715607 
	C360.341156,357.103333 360.106049,357.491058 359.192902,358.095428 
	C354.418121,361.739288 350.528137,361.875916 347.281433,358.513794 
	C344.354828,355.483124 344.266663,350.815674 347.076996,347.685394 
	C350.216492,344.188446 354.229736,344.190063 358.992310,347.680084 
	C359.251312,347.869904 359.561554,347.989777 359.920288,348.632965 
z"/>
<path fill="#000000" opacity="1.000000" stroke="none" 
	d="
M339.000000,265.000427 
	C309.869843,265.000427 281.239685,265.002777 252.609528,264.999054 
	C243.342911,264.997864 241.008789,262.712646 241.001221,253.641190 
	C240.993729,244.652649 240.959259,235.663879 241.013321,226.675659 
	C241.054337,219.855087 243.899734,217.016953 250.786789,217.012650 
	C292.233917,216.986801 333.681061,216.987839 375.128204,217.011475 
	C382.032104,217.015411 384.942566,219.855118 384.984406,226.601059 
	C385.044312,236.255051 385.051392,245.910065 384.981079,255.563904 
	C384.933838,262.046295 381.994385,264.951355 375.453979,264.983154 
	C363.469604,265.041412 351.484680,265.000183 339.000000,265.000427 
M257.010162,246.248978 
	C256.903961,250.398956 260.091766,248.936218 262.017853,248.940720 
	C296.013336,249.020401 330.009064,248.998413 364.004730,248.998398 
	C365.585815,248.998398 367.166931,248.998398 368.676331,248.998398 
	C368.676331,243.261734 368.676331,238.339279 368.676331,233.413513 
	C331.314880,233.413513 294.277344,233.413513 257.003082,233.413513 
	C257.003082,237.647888 257.003082,241.471512 257.010162,246.248978 
z"/>
<path fill="#020100" opacity="1.000000" stroke="none" 
	d="
M352.964600,448.996277 
	C352.175720,454.769928 348.888702,457.022217 343.634186,457.014526 
	C323.160919,456.984467 302.687439,457.035126 282.214264,456.980743 
	C276.481659,456.965515 272.874115,453.603119 273.032074,448.744873 
	C273.183868,444.075867 276.659180,441.031769 282.215088,441.018066 
	C302.688293,440.967499 323.161713,441.017578 343.634979,440.984070 
	C348.893677,440.975464 352.178009,443.220062 352.964600,448.996277 
z"/>
<path fill="#010000" opacity="1.000000" stroke="none" 
	d="
M205.773361,152.999420 
	C181.142319,152.999573 156.982941,153.002090 132.823563,152.994064 
	C131.159454,152.993515 129.446320,153.153931 127.840767,152.825302 
	C123.554985,151.948120 121.023880,149.229019 121.108849,144.799545 
	C121.189087,140.616623 123.689407,138.101868 127.730919,137.155853 
	C128.370331,137.006165 129.055588,137.013855 129.719681,137.013687 
	C155.878433,137.006714 182.037277,136.973068 208.195877,137.036865 
	C213.194885,137.049072 216.472214,139.941467 216.913986,144.223633 
	C217.315781,148.118011 214.687378,151.847672 210.719452,152.732086 
	C209.279648,153.052994 207.739426,152.923340 205.773361,152.999420 
z"/>
<path fill="#D38F72" opacity="1.000000" stroke="none" 
	d="
M360.417084,358.364716 
	C357.968628,386.342072 331.041260,405.652893 302.745361,399.723663 
	C305.888855,391.743805 304.774261,387.081635 299.311066,385.358582 
	C294.306458,383.780182 290.227264,386.955566 288.749512,393.580078 
	C270.371552,385.673218 255.658203,354.186951 272.160034,328.361481 
	C273.296967,330.537445 273.932556,333.338684 275.685272,334.677826 
	C277.565582,336.114471 280.561340,336.892334 282.953735,336.674866 
	C286.802948,336.324951 289.389496,332.076385 288.965240,328.155853 
	C288.455811,323.448059 285.110016,321.167236 277.493713,320.852478 
	C287.170959,310.455261 298.633026,305.591919 312.057678,304.964539 
	C317.144104,314.703430 322.226013,315.610718 329.116180,307.774292 
	C346.830811,314.887817 357.489105,327.699585 360.358093,347.301300 
	C360.175873,347.847992 359.847931,348.142212 359.847931,348.142212 
	C359.561554,347.989777 359.251312,347.869904 358.992310,347.680084 
	C354.229736,344.190063 350.216492,344.188446 347.076996,347.685394 
	C344.266663,350.815674 344.354828,355.483124 347.281433,358.513794 
	C350.528137,361.875916 354.418121,361.739288 359.667847,358.109253 
	C360.142792,358.123047 360.417084,358.364716 360.417084,358.364716 
M328.777130,335.059814 
	C325.473999,328.456238 319.077911,326.924255 314.974243,331.816528 
	C312.587494,334.661926 311.812469,338.340668 314.319031,340.921509 
	C316.327850,342.989868 319.972687,344.787537 322.697601,344.543243 
	C327.146515,344.144348 329.249695,340.476013 328.777130,335.059814 
M293.107819,354.154572 
	C287.410339,352.081787 282.937683,353.791382 281.372192,358.640320 
	C280.046722,362.745789 282.344788,367.242859 286.584656,368.570709 
	C290.400970,369.765900 293.602020,368.531891 295.664185,365.246521 
	C298.152771,361.281799 297.234619,357.637573 293.107819,354.154572 
M336.775726,378.941101 
	C337.530426,374.363190 335.800079,371.040710 331.456512,369.468964 
	C327.710724,368.113556 324.551636,369.470337 322.335663,372.672913 
	C319.834259,376.288025 320.928802,381.201233 324.600372,383.634521 
	C328.890137,386.477386 333.280914,385.015228 336.775726,378.941101 
z"/>
<path fill="#D38F72" opacity="1.000000" stroke="none" 
	d="
M360.343018,347.704529 
	C360.503113,348.177582 360.496002,348.794037 360.488922,349.410522 
	C360.299377,349.151337 360.109833,348.892151 359.884094,348.387573 
	C359.847931,348.142212 360.175873,347.847992 360.343018,347.704529 
z"/>
<path fill="#D38F72" opacity="1.000000" stroke="none" 
	d="
M360.006836,358.000916 
	C360.106049,357.491058 360.341156,357.103333 360.576263,356.715607 
	C360.619232,357.122009 360.662231,357.528381 360.561157,358.149750 
	C360.417084,358.364716 360.142792,358.123047 360.006836,358.000916 
z"/>
<path fill="#AD6643" opacity="1.000000" stroke="none" 
	d="
M257.006622,245.772049 
	C257.003082,241.471512 257.003082,237.647888 257.003082,233.413513 
	C294.277344,233.413513 331.314880,233.413513 368.676331,233.413513 
	C368.676331,238.339279 368.676331,243.261734 368.676331,248.998398 
	C367.166931,248.998398 365.585815,248.998398 364.004730,248.998398 
	C330.009064,248.998413 296.013336,249.020401 262.017853,248.940720 
	C260.091766,248.936218 256.903961,250.398956 257.006622,245.772049 
z"/>
<path fill="#0A0705" opacity="1.000000" stroke="none" 
	d="
M328.849915,335.444092 
	C329.249695,340.476013 327.146515,344.144348 322.697601,344.543243 
	C319.972687,344.787537 316.327850,342.989868 314.319031,340.921509 
	C311.812469,338.340668 312.587494,334.661926 314.974243,331.816528 
	C319.077911,326.924255 325.473999,328.456238 328.849915,335.444092 
z"/>
<path fill="#0A0705" opacity="1.000000" stroke="none" 
	d="
M293.425751,354.378296 
	C297.234619,357.637573 298.152771,361.281799 295.664185,365.246521 
	C293.602020,368.531891 290.400970,369.765900 286.584656,368.570709 
	C282.344788,367.242859 280.046722,362.745789 281.372192,358.640320 
	C282.937683,353.791382 287.410339,352.081787 293.425751,354.378296 
z"/>
<path fill="#0A0705" opacity="1.000000" stroke="none" 
	d="
M336.632751,379.308105 
	C333.280914,385.015228 328.890137,386.477386 324.600372,383.634521 
	C320.928802,381.201233 319.834259,376.288025 322.335663,372.672913 
	C324.551636,369.470337 327.710724,368.113556 331.456512,369.468964 
	C335.800079,371.040710 337.530426,374.363190 336.632751,379.308105 
z"/>
</svg>