<svg version="1.1" id="Layer_1" xmlns="http://www.w3.org/2000/svg" xmlns:xlink="http://www.w3.org/1999/xlink" x="0px" y="0px"
	 width="100%" viewBox="0 0 512 512" enable-background="new 0 0 512 512" xml:space="preserve">
<path fill="#000000" opacity="1.000000" stroke="none" 
	d="
M292.000000,513.000000 
	C194.690292,513.000000 97.880577,513.000000 1.035435,513.000000 
	C1.035435,342.398590 1.035435,171.797195 1.035435,1.097890 
	C171.559723,1.097890 342.119537,1.097890 512.839661,1.097890 
	C512.839661,171.666550 512.839661,342.333252 512.839661,513.000000 
	C439.463837,513.000000 365.981903,513.000000 292.000000,513.000000 
M279.050110,504.048004 
	C279.050110,504.048004 279.013977,504.127991 279.920441,504.020538 
	C297.557007,503.468262 314.521362,499.319458 331.287231,494.247742 
	C356.327118,486.673126 379.266693,474.846375 400.677460,459.877106 
	C418.524292,447.399506 434.451324,432.775726 448.230896,416.035431 
	C462.786346,398.352570 474.745941,378.976746 484.160614,357.931152 
	C495.835327,331.833405 503.046295,304.600830 504.717224,276.264435 
	C506.007294,254.387085 505.520782,232.403458 501.199646,210.585770 
	C495.954193,184.101227 487.105438,159.106186 473.909088,135.625107 
	C458.348145,107.936493 438.308319,84.052475 413.598450,63.980541 
	C391.037476,45.654106 366.032745,31.830126 338.769409,22.076258 
	C318.703735,14.897455 297.875061,10.151169 276.664062,9.313116 
	C257.525665,8.556952 238.090210,8.942942 219.148331,11.505399 
	C202.525421,13.754146 186.194565,19.062866 170.118469,24.217024 
	C151.398041,30.218985 134.150726,39.745300 117.950218,50.772125 
	C99.936600,63.033047 83.648827,77.364029 69.342278,93.990562 
	C56.345806,109.094551 44.709805,125.136353 36.218487,143.053772 
	C28.992281,158.301682 22.420486,174.080002 17.753557,190.256744 
	C13.348277,205.526489 10.668201,221.526077 9.334152,237.381729 
	C8.102758,252.017242 9.463250,266.895844 10.050255,281.652771 
	C10.729699,298.733551 14.812273,315.215393 19.816315,331.471649 
	C27.507336,356.456940 39.234577,379.426239 54.240818,400.820099 
	C67.996193,420.430603 84.268097,437.701385 103.073875,452.363770 
	C127.729980,471.587463 155.003845,486.113831 185.146240,494.980133 
	C208.600540,501.879150 232.415863,505.981201 257.892120,504.991669 
	C263.275360,504.939789 268.658569,504.887939 274.817139,504.959167 
	C276.256592,504.662140 277.696045,504.365143 279.050110,504.048004 
z"/>
<path fill="#B5966A" opacity="1.000000" stroke="none" 
	d="
M256.962677,504.843750 
	C232.415863,505.981201 208.600540,501.879150 185.146240,494.980133 
	C155.003845,486.113831 127.729980,471.587463 103.073875,452.363770 
	C84.268097,437.701385 67.996193,420.430603 54.240818,400.820099 
	C39.234577,379.426239 27.507336,356.456940 19.816315,331.471649 
	C14.812273,315.215393 10.729699,298.733551 10.050255,281.652771 
	C9.463250,266.895844 8.102758,252.017242 9.334152,237.381729 
	C10.668201,221.526077 13.348277,205.526489 17.753557,190.256744 
	C22.420486,174.080002 28.992281,158.301682 36.218487,143.053772 
	C44.709805,125.136353 56.345806,109.094551 69.342278,93.990562 
	C83.648827,77.364029 99.936600,63.033047 117.950218,50.772125 
	C134.150726,39.745300 151.398041,30.218985 170.118469,24.217024 
	C186.194565,19.062866 202.525421,13.754146 219.148331,11.505399 
	C238.090210,8.942942 257.525665,8.556952 276.664062,9.313116 
	C297.875061,10.151169 318.703735,14.897455 338.769409,22.076258 
	C366.032745,31.830126 391.037476,45.654106 413.598450,63.980541 
	C438.308319,84.052475 458.348145,107.936493 473.909088,135.625107 
	C487.105438,159.106186 495.954193,184.101227 501.199646,210.585770 
	C505.520782,232.403458 506.007294,254.387085 504.717224,276.264435 
	C503.046295,304.600830 495.835327,331.833405 484.160614,357.931152 
	C474.745941,378.976746 462.786346,398.352570 448.230896,416.035431 
	C434.451324,432.775726 418.524292,447.399506 400.677460,459.877106 
	C379.266693,474.846375 356.327118,486.673126 331.287231,494.247742 
	C314.521362,499.319458 297.557007,503.468262 279.758545,503.865234 
	C280.177826,503.389771 280.727875,502.982422 281.344757,502.762207 
	C295.495941,497.710754 306.810730,489.298370 314.288422,475.933685 
	C315.195648,474.312286 318.337006,473.180664 320.471222,473.134705 
	C331.005280,472.908020 339.555756,468.865784 345.942352,460.580353 
	C348.065887,457.825439 349.884338,457.580872 353.098846,458.729004 
	C373.397339,465.979126 391.984924,455.593658 396.264832,434.628601 
	C397.044586,430.809174 398.621124,429.080383 402.516510,428.284210 
	C423.562561,423.982483 434.027985,405.428040 426.744904,385.214905 
	C425.468811,381.673248 426.132568,379.889832 428.899475,377.718353 
	C445.000458,365.082397 445.027740,340.817566 428.981476,328.335663 
	C426.278015,326.232758 425.372498,324.506042 426.704803,320.873688 
	C432.664795,304.625122 427.312164,289.989105 412.574432,280.831696 
	C411.624298,280.241333 410.755280,279.520447 409.625824,278.698059 
	C410.276276,277.823334 410.639893,277.062256 411.230804,276.579346 
	C427.131165,263.586060 436.627686,246.719727 440.358704,226.756363 
	C441.615723,220.030594 440.976654,212.950439 441.168732,205.612061 
	C441.348480,198.216064 442.311401,191.169800 441.661682,184.275528 
	C435.993286,124.127228 382.978363,75.008308 322.562561,73.612175 
	C284.634644,72.735710 251.934387,93.294350 238.376328,126.537216 
	C231.854691,142.527542 230.670334,159.113831 232.659866,176.439880 
	C230.785126,189.412308 233.771744,201.444519 238.210098,212.928757 
	C241.586014,221.663971 246.735565,229.713745 251.040283,238.249481 
	C250.984589,238.430481 250.915085,238.802811 250.548401,238.853622 
	C236.165359,243.969315 230.194565,254.933624 228.705917,268.809143 
	C205.521957,270.213409 189.136261,292.146149 200.896347,317.387665 
	C192.606750,322.682709 186.786392,330.044250 185.564743,340.021729 
	C184.951614,345.029327 185.853577,350.222473 185.647736,355.257538 
	C183.923950,354.914795 182.622543,354.647461 181.321686,354.377441 
	C139.630264,345.722076 104.162628,382.727356 114.972969,423.618042 
	C118.235794,435.959869 125.453506,445.699738 135.222961,454.069885 
	C135.709671,454.506073 136.011124,454.730835 136.541473,455.033966 
	C137.160126,455.393616 137.549911,455.674896 138.044373,456.284760 
	C141.980057,459.684509 145.466782,463.378387 149.701401,465.719482 
	C168.530457,476.128967 187.405991,475.265015 206.283768,465.209930 
	C211.085266,474.610870 217.913086,481.811127 226.118347,488.152649 
	C226.530441,488.565247 226.785660,488.781158 227.016663,488.973999 
	C226.992432,488.950928 227.039841,488.903595 227.146286,489.223083 
	C229.283005,491.433014 231.006332,493.992828 233.400101,495.090546 
	C241.121429,498.631348 249.089630,501.633789 256.962677,504.843750 
M183.023148,134.982941 
	C183.023148,134.982941 183.030960,134.997833 182.840164,134.428741 
	C182.485062,133.947983 182.129944,133.467224 181.264145,132.591995 
	C170.246780,117.971359 154.863770,110.366753 137.578156,106.559700 
	C116.495682,101.916412 98.118347,106.942009 84.643448,124.681046 
	C77.101524,134.609604 70.181297,145.024246 63.247562,155.398071 
	C49.086273,176.585327 39.327744,199.271439 41.039108,225.471130 
	C41.992527,240.067230 43.081753,254.666718 44.663383,269.204437 
	C45.466568,276.586975 47.495811,283.836090 49.074593,291.712494 
	C49.282722,292.441895 49.490856,293.171295 49.849640,294.670776 
	C53.475258,300.896454 56.624928,307.473663 60.880024,313.234375 
	C64.167892,317.685608 68.841202,321.113525 73.377708,325.357391 
	C73.930969,325.571228 74.484230,325.785065 74.986137,326.009064 
	C74.986137,326.009064 75.001419,325.958984 75.155479,326.634125 
	C78.897476,329.524048 82.319588,333.024994 86.444061,335.184387 
	C96.972580,340.696625 108.149315,344.495300 120.184685,344.985504 
	C138.283051,345.722626 152.454330,338.172852 163.031342,323.843628 
	C169.841629,314.617401 176.174225,305.034485 182.603363,295.531891 
	C196.880905,274.429016 206.772034,251.901413 205.055893,225.638321 
	C204.254654,213.376236 203.963638,201.065491 202.698364,188.853775 
	C201.639465,178.633926 200.167923,168.355850 197.636642,158.420105 
	C195.442856,149.809082 191.876297,141.411957 184.006454,135.977814 
	C184.006454,135.977814 184.014816,136.037308 183.717834,135.647903 
	C183.505676,135.397873 183.269424,135.173187 183.023148,134.982941 
z"/>
<path fill="#A77D53" opacity="1.000000" stroke="none" 
	d="
M257.427399,504.917725 
	C249.089630,501.633789 241.121429,498.631348 233.400101,495.090546 
	C231.006332,493.992828 229.283005,491.433014 227.501740,489.296021 
	C240.156891,495.544617 253.062363,498.487946 267.191437,496.072784 
	C296.133240,491.125580 317.343994,462.002594 312.148254,433.002411 
	C310.792755,425.436523 307.522278,418.213684 305.467010,410.892639 
	C318.980896,424.956451 322.914429,441.677368 321.091888,461.155640 
	C325.162354,457.219208 329.232849,453.282806 333.530518,449.126648 
	C343.862793,454.425110 354.640778,454.813873 365.129791,448.744965 
	C375.633057,442.667786 380.267151,432.852142 381.117523,421.209656 
	C405.815887,419.504791 420.490021,396.590088 409.201324,373.010529 
	C431.361542,357.535126 429.102325,330.227081 409.015686,316.972290 
	C414.958344,304.454285 414.926361,292.332550 405.834686,280.703613 
	C401.888031,277.567230 398.044708,274.750244 394.340820,271.633057 
	C421.048309,257.432007 436.564056,235.622986 441.204163,206.032257 
	C440.976654,212.950439 441.615723,220.030594 440.358704,226.756363 
	C436.627686,246.719727 427.131165,263.586060 411.230804,276.579346 
	C410.639893,277.062256 410.276276,277.823334 409.625824,278.698059 
	C410.755280,279.520447 411.624298,280.241333 412.574432,280.831696 
	C427.312164,289.989105 432.664795,304.625122 426.704803,320.873688 
	C425.372498,324.506042 426.278015,326.232758 428.981476,328.335663 
	C445.027740,340.817566 445.000458,365.082397 428.899475,377.718353 
	C426.132568,379.889832 425.468811,381.673248 426.744904,385.214905 
	C434.027985,405.428040 423.562561,423.982483 402.516510,428.284210 
	C398.621124,429.080383 397.044586,430.809174 396.264832,434.628601 
	C391.984924,455.593658 373.397339,465.979126 353.098846,458.729004 
	C349.884338,457.580872 348.065887,457.825439 345.942352,460.580353 
	C339.555756,468.865784 331.005280,472.908020 320.471222,473.134705 
	C318.337006,473.180664 315.195648,474.312286 314.288422,475.933685 
	C306.810730,489.298370 295.495941,497.710754 281.344757,502.762207 
	C280.727875,502.982422 280.177826,503.389771 279.305328,503.918976 
	C279.013977,504.127991 279.050110,504.048004 278.714172,504.036255 
	C276.932739,504.295044 275.487274,504.565552 274.041809,504.836060 
	C268.658569,504.887939 263.275360,504.939789 257.427399,504.917725 
z"/>
<path fill="#B5966A" opacity="1.000000" stroke="none" 
	d="
M274.429474,504.897614 
	C275.487274,504.565552 276.932739,504.295044 278.756866,504.046326 
	C277.696045,504.365143 276.256592,504.662140 274.429474,504.897614 
z"/>
<path fill="#F4F4F4" opacity="1.000000" stroke="none" 
	d="
M405.937988,281.023010 
	C414.926361,292.332550 414.958344,304.454285 409.015686,316.972290 
	C429.102325,330.227081 431.361542,357.535126 409.201324,373.010529 
	C420.490021,396.590088 405.815887,419.504791 381.117523,421.209656 
	C380.267151,432.852142 375.633057,442.667786 365.129791,448.744965 
	C354.640778,454.813873 343.862793,454.425110 333.530518,449.126648 
	C329.232849,453.282806 325.162354,457.219208 321.091888,461.155640 
	C322.914429,441.677368 318.980896,424.956451 305.438293,410.929443 
	C305.073853,410.906952 305.146729,410.965973 305.153015,410.648621 
	C304.818054,410.116272 304.476807,409.901337 304.106262,409.782227 
	C304.076996,409.878113 304.269012,409.935699 304.245819,409.602509 
	C303.709167,408.851257 303.195709,408.433167 302.511108,407.744659 
	C281.490417,382.340881 251.357285,379.419220 227.615707,392.836609 
	C223.682388,387.610443 219.966034,382.640167 216.204468,377.738708 
	C216.159256,377.807526 216.297729,377.896698 216.272018,377.586151 
	C215.784180,376.881104 215.322037,376.486633 214.917450,376.045502 
	C214.974976,375.998871 214.872696,376.104858 214.792969,375.890961 
	C214.535721,375.402161 214.284439,375.246002 213.750763,374.940125 
	C206.128342,365.748474 196.855301,359.466309 186.070358,355.331696 
	C185.853577,350.222473 184.951614,345.029327 185.564743,340.021729 
	C186.786392,330.044250 192.606750,322.682709 200.896347,317.387665 
	C189.136261,292.146149 205.521957,270.213409 228.705917,268.809143 
	C230.194565,254.933624 236.165359,243.969315 250.731766,239.150650 
	C267.481079,262.997345 288.578278,280.433533 315.791565,289.851532 
	C340.356750,298.353119 365.048889,299.025482 389.491608,289.285461 
	C395.169617,287.022888 400.466003,283.802612 405.937988,281.023010 
z"/>
<path fill="#F4F4F4" opacity="1.000000" stroke="none" 
	d="
M441.168762,205.612061 
	C436.564056,235.622986 421.048309,257.432007 393.952026,271.674561 
	C385.816437,274.320282 378.354309,277.560883 370.576691,278.766754 
	C336.492157,284.051422 306.123596,274.757141 279.244934,253.645279 
	C272.746460,248.541031 266.954041,242.537857 260.771851,236.622391 
	C246.313034,218.584641 236.304916,198.842743 232.833664,176.075287 
	C230.670334,159.113831 231.854691,142.527542 238.376328,126.537216 
	C251.934387,93.294350 284.634644,72.735710 322.562561,73.612175 
	C382.978363,75.008308 435.993286,124.127228 441.661682,184.275528 
	C442.311401,191.169800 441.348480,198.216064 441.168762,205.612061 
M287.597382,185.009155 
	C287.597382,185.009155 287.489899,185.418930 287.822693,186.005997 
	C289.170563,187.469696 290.435242,189.021606 291.879150,190.383499 
	C306.920349,204.570419 330.925812,204.639725 346.199493,190.573181 
	C361.605560,176.384705 363.685272,153.131744 350.801758,136.348160 
	C348.815979,134.346756 346.960052,132.193298 344.823547,130.368362 
	C329.626343,117.387398 306.693451,117.965317 292.011627,131.627151 
	C277.151550,145.454849 274.847046,168.020767 286.924225,184.685242 
	C287.285309,184.828537 287.646423,184.971848 287.597382,185.009155 
z"/>
<path fill="#E6A237" opacity="1.000000" stroke="none" 
	d="
M48.970787,291.145538 
	C47.495811,283.836090 45.466568,276.586975 44.663383,269.204437 
	C43.081753,254.666718 41.992527,240.067230 41.039108,225.471130 
	C39.327744,199.271439 49.086273,176.585327 63.247562,155.398071 
	C70.181297,145.024246 77.101524,134.609604 84.643448,124.681046 
	C98.118347,106.942009 116.495682,101.916412 137.578156,106.559700 
	C154.863770,110.366753 170.246780,117.971359 181.641144,133.064209 
	C182.355759,134.023575 182.693359,134.510696 183.030960,134.997833 
	C183.030960,134.997833 183.023148,134.982941 183.148804,135.187012 
	C183.474426,135.660110 183.721222,135.875519 184.014816,136.037308 
	C184.014816,136.037308 184.006454,135.977814 184.065338,136.341522 
	C186.323990,142.445496 189.395065,148.013138 190.572510,153.955948 
	C195.635330,179.509293 198.288193,205.367172 196.680328,231.417114 
	C196.186203,239.422409 194.089447,247.553345 191.397629,255.156250 
	C183.393890,277.762268 168.817444,296.609497 155.048767,315.818848 
	C139.621170,337.342621 115.912201,340.649017 95.933472,334.069275 
	C88.835632,331.731720 81.971977,328.683044 75.001419,325.958984 
	C75.001419,325.958984 74.986137,326.009064 74.794617,325.791809 
	C74.034912,325.381866 73.466736,325.189117 72.898560,324.996399 
	C68.841202,321.113525 64.167892,317.685608 60.880024,313.234375 
	C56.624928,307.473663 53.475258,300.896454 50.139664,294.417114 
	C51.558636,294.857117 52.624062,295.697784 53.827972,296.217957 
	C58.117096,298.071167 62.818718,296.039825 64.432755,291.733673 
	C66.033127,287.463989 63.684544,282.762787 59.273762,281.406769 
	C54.939217,280.074188 50.416729,282.641541 49.296360,287.190002 
	C48.983963,288.458313 49.068401,289.824341 48.970787,291.145538 
M152.536713,257.009491 
	C152.536713,257.009491 152.908997,256.882263 153.708649,256.916840 
	C162.010666,255.804321 167.507675,250.941879 168.774033,243.590576 
	C169.949738,236.765579 166.679733,230.530548 159.698044,226.336258 
	C152.481949,215.231445 139.793671,213.810791 132.337677,223.272827 
	C125.951141,231.377655 128.675110,241.627594 139.071808,248.603516 
	C139.381256,249.332306 139.690720,250.061111 139.136169,250.855499 
	C125.637520,251.499039 119.013725,258.247467 120.342354,270.796448 
	C120.978493,273.690277 120.656013,277.577972 122.431549,279.290466 
	C127.637337,284.311462 136.203796,284.270844 141.597504,279.373688 
	C145.223709,276.081329 147.997223,271.834778 151.061005,267.943359 
	C153.043167,265.425690 152.653931,263.075653 150.592514,260.611206 
	C151.114456,259.446594 151.636414,258.282013 152.536713,257.009491 
M106.780754,162.626526 
	C106.573235,162.373566 106.316216,162.189880 105.667198,161.496704 
	C102.551613,158.517838 99.634346,155.288773 96.270905,152.622589 
	C91.934662,149.185257 90.709892,149.626709 87.860573,154.514236 
	C81.723434,165.041382 84.390907,176.411331 94.845520,183.750320 
	C96.888496,185.839279 98.614540,188.453842 101.036514,189.914246 
	C107.201981,193.631897 111.005089,192.247025 114.119591,185.806290 
	C118.130714,177.511353 115.811356,170.065247 106.983063,163.014191 
	C106.983063,163.014191 107.048744,163.023712 106.780754,162.626526 
M99.419624,313.569458 
	C101.436424,314.721313 103.389137,316.720673 105.481094,316.878876 
	C114.694656,317.575745 120.437805,313.091522 122.858223,302.579498 
	C126.219223,287.982544 124.176018,287.301788 110.918976,289.346802 
	C108.623238,287.201935 106.327499,285.057068 103.698204,282.332245 
	C96.471626,271.230347 83.791298,269.812714 76.337227,279.273346 
	C69.952072,287.377350 72.674103,297.622253 83.132553,304.680359 
	C86.631401,310.868408 92.109917,313.275482 99.419624,313.569458 
M145.892380,149.944489 
	C144.832748,156.466141 148.234818,161.639145 150.345123,166.922150 
	C149.142776,166.071762 147.914459,165.255585 146.742386,164.365356 
	C140.172318,159.375000 131.280014,160.022308 125.548355,165.927216 
	C117.712410,174.000015 120.019798,185.220383 131.132874,192.680405 
	C135.522446,199.316940 141.674484,202.142303 148.392670,200.607071 
	C154.927032,199.113861 159.870804,193.799240 160.835556,187.230789 
	C161.823212,180.506378 158.568939,174.477631 151.714584,170.298004 
	C151.482040,169.186615 151.249496,168.075226 151.658188,167.198685 
	C155.963394,171.046799 160.715576,174.049713 166.766266,172.851822 
	C174.593292,171.302277 177.140549,168.030167 175.071487,161.044083 
	C175.740707,154.645645 175.302139,148.079514 169.479202,144.499542 
	C165.307053,141.934479 159.939453,140.660934 154.973373,140.184082 
	C146.227203,139.344223 145.568024,140.412277 145.892380,149.944489 
M88.820053,255.208191 
	C88.219154,252.278671 88.572754,248.456970 86.831123,246.593704 
	C82.333328,241.781830 73.099220,241.563095 68.072998,245.930267 
	C64.500511,249.034363 61.638901,252.993134 58.656723,256.727539 
	C56.589378,259.316376 56.561382,262.199036 58.090668,265.684937 
	C58.266788,267.704010 57.700912,270.897034 58.738621,271.552917 
	C65.839745,276.041077 73.523773,276.297180 80.949371,272.400604 
	C87.389977,269.020874 89.713364,263.240143 88.820053,255.208191 
M95.698006,194.335114 
	C88.479332,183.231155 75.793022,181.811325 68.337547,191.272949 
	C61.951496,199.377380 64.674599,209.625122 75.132874,216.680420 
	C79.522545,223.317047 85.674477,226.142334 92.392799,224.607056 
	C98.927177,223.113815 103.870895,217.799118 104.835564,211.230591 
	C105.823006,204.507004 102.570038,198.479965 95.698006,194.335114 
M145.538666,286.320129 
	C144.242355,291.029449 145.788818,294.544769 150.280609,296.374420 
	C153.933334,297.862244 157.140701,296.666473 159.458557,293.535339 
	C162.060623,290.020233 161.158508,285.082947 157.609604,282.554321 
	C153.638062,279.724548 149.402786,280.823242 145.538666,286.320129 
M141.083939,122.203857 
	C135.356598,120.148766 130.949356,121.831940 129.428940,126.655037 
	C128.124405,130.793381 130.392960,135.243698 134.598740,136.523849 
	C138.376373,137.673721 141.580780,136.533905 143.629456,133.227478 
	C146.075745,129.279327 145.195435,125.656548 141.083939,122.203857 
M112.456161,139.676300 
	C113.284615,134.176773 111.563965,130.627975 107.264023,129.434143 
	C103.254501,128.320938 100.071175,129.695343 98.029533,133.300186 
	C95.967018,136.941879 97.255409,141.507156 100.795746,143.714783 
	C104.762505,146.188309 108.686829,145.038635 112.456161,139.676300 
M120.936981,225.378372 
	C120.662766,224.101242 120.640610,222.695877 120.068123,221.570480 
	C118.185760,217.870193 115.009827,216.318649 111.011444,217.368530 
	C107.024139,218.415497 104.879341,221.322876 105.125572,225.456039 
	C105.371414,229.582703 107.830299,232.303558 111.913963,232.796494 
	C116.741600,233.379242 119.714279,230.853302 120.936981,225.378372 
M57.542847,227.666321 
	C59.414860,231.876022 62.875427,234.220871 67.023621,232.396469 
	C69.536316,231.291367 71.990837,228.057953 72.693291,225.323868 
	C73.630959,221.674393 71.101677,218.731323 67.388123,217.469208 
	C61.618042,215.508163 56.991909,219.882812 57.542847,227.666321 
M175.072067,208.705826 
	C179.883789,209.506668 183.258453,207.603867 184.620255,202.974350 
	C185.722198,199.228195 184.241623,196.118591 180.872940,194.122345 
	C177.098206,191.885498 172.310242,193.248810 170.131561,197.042679 
	C167.708694,201.261780 169.223480,205.379684 175.072067,208.705826 
z"/>
<path fill="#73B231" opacity="1.000000" stroke="none" 
	d="
M227.832687,393.092560 
	C251.357285,379.419220 281.490417,382.340881 302.651306,408.038452 
	C303.398102,409.047028 303.833557,409.491364 304.269012,409.935699 
	C304.269012,409.935699 304.076996,409.878113 304.204773,410.046906 
	C304.603912,410.465790 304.875336,410.715881 305.146729,410.965973 
	C305.146729,410.965973 305.073853,410.906952 305.102600,410.870117 
	C307.522278,418.213684 310.792755,425.436523 312.148254,433.002411 
	C317.343994,462.002594 296.133240,491.125580 267.191437,496.072784 
	C253.062363,498.487946 240.156891,495.544617 227.395294,488.976532 
	C227.039841,488.903595 226.992432,488.950928 226.887833,488.753387 
	C226.509323,488.355865 226.235413,488.155914 225.961487,487.955963 
	C217.913086,481.811127 211.085266,474.610870 206.215179,464.845154 
	C204.744415,461.051514 203.569504,457.874634 202.307098,454.461182 
	C200.639648,455.390350 199.622757,455.931458 198.630173,456.513977 
	C186.086456,463.875519 172.622086,467.139160 158.345978,463.753296 
	C151.322540,462.087524 144.728210,458.612457 137.939697,455.956146 
	C137.549911,455.674896 137.160126,455.393616 136.354431,454.819733 
	C135.638245,454.304230 135.337982,454.081360 135.037704,453.858490 
	C125.453506,445.699738 118.235794,435.959869 114.972969,423.618042 
	C104.162628,382.727356 139.630264,345.722076 181.321686,354.377441 
	C182.622543,354.647461 183.923950,354.914795 185.647736,355.257538 
	C196.855301,359.466309 206.128342,365.748474 213.846283,375.141296 
	C214.326874,375.869598 214.567642,376.034210 214.872696,376.104858 
	C214.872696,376.104858 214.974976,375.998871 215.005966,376.332367 
	C215.457214,377.076141 215.877472,377.486420 216.297729,377.896698 
	C216.297729,377.896698 216.159256,377.807526 216.221069,378.108032 
	C218.862488,384.273499 221.442108,390.138428 224.015625,396.409058 
	C224.321838,399.144897 224.634140,401.475067 225.026672,404.403961 
	C227.567245,402.925537 229.246536,401.948303 230.979279,401.375366 
	C231.925064,407.303558 232.817383,412.827423 233.451080,416.750397 
	C238.950363,418.587708 244.118103,419.449371 248.233002,422.005768 
	C250.798996,423.599854 253.091522,427.777710 253.036560,430.750366 
	C252.994629,433.017944 249.442886,436.238129 246.788727,437.196869 
	C242.990433,438.568848 239.830780,435.865326 237.830948,432.484711 
	C236.257675,429.825165 234.944626,427.011749 233.113892,423.494049 
	C232.562073,425.077789 232.189407,425.782074 232.076599,426.525787 
	C230.343933,437.948486 225.256409,447.890594 217.196945,455.866974 
	C213.172302,459.850220 213.917328,462.554077 216.307266,466.475891 
	C232.311142,492.737915 269.069244,496.569336 291.306976,474.219910 
	C305.956299,459.497009 309.085297,437.452332 299.226746,418.422913 
	C290.022125,400.655701 269.465637,390.145386 249.904800,393.858948 
	C243.460342,395.082428 237.322800,397.922577 230.838043,399.750610 
	C229.701370,397.601624 228.771576,395.725525 227.841400,393.660217 
	C227.841034,393.470978 227.832687,393.092560 227.832687,393.092560 
M200.491821,445.015228 
	C210.969543,435.858246 216.421326,424.192078 216.926010,410.419250 
	C217.690842,389.547394 204.337433,370.558380 184.515167,363.669525 
	C165.023026,356.895386 143.061783,363.658386 130.505234,380.302002 
	C115.694916,399.932953 118.434647,426.959015 137.015549,444.522980 
	C154.079254,460.652832 181.859360,461.090393 200.491821,445.015228 
z"/>
<path fill="#A77D52" opacity="1.000000" stroke="none" 
	d="
M75.078445,326.296570 
	C81.971977,328.683044 88.835632,331.731720 95.933472,334.069275 
	C115.912201,340.649017 139.621170,337.342621 155.048767,315.818848 
	C168.817444,296.609497 183.393890,277.762268 191.397629,255.156250 
	C194.089447,247.553345 196.186203,239.422409 196.680328,231.417114 
	C198.288193,205.367172 195.635330,179.509293 190.572510,153.955948 
	C189.395065,148.013138 186.323990,142.445496 184.038025,136.354065 
	C191.876297,141.411957 195.442856,149.809082 197.636642,158.420105 
	C200.167923,168.355850 201.639465,178.633926 202.698364,188.853775 
	C203.963638,201.065491 204.254654,213.376236 205.055893,225.638321 
	C206.772034,251.901413 196.880905,274.429016 182.603363,295.531891 
	C176.174225,305.034485 169.841629,314.617401 163.031342,323.843628 
	C152.454330,338.172852 138.283051,345.722626 120.184685,344.985504 
	C108.149315,344.495300 96.972580,340.696625 86.444061,335.184387 
	C82.319588,333.024994 78.897476,329.524048 75.078445,326.296570 
z"/>
<path fill="#E6E6E6" opacity="1.000000" stroke="none" 
	d="
M260.836945,236.948090 
	C266.954041,242.537857 272.746460,248.541031 279.244934,253.645279 
	C306.123596,274.757141 336.492157,284.051422 370.576691,278.766754 
	C378.354309,277.560883 385.816437,274.320282 393.812561,271.974701 
	C398.044708,274.750244 401.888031,277.567230 405.834686,280.703613 
	C400.466003,283.802612 395.169617,287.022888 389.491608,289.285461 
	C365.048889,299.025482 340.356750,298.353119 315.791565,289.851532 
	C288.578278,280.433533 267.481079,262.997345 251.098450,239.099838 
	C250.915085,238.802811 250.984589,238.430481 251.442169,238.219086 
	C254.878799,237.654480 257.857880,237.301285 260.836945,236.948090 
z"/>
<path fill="#A57D52" opacity="1.000000" stroke="none" 
	d="
M138.044373,456.284760 
	C144.728210,458.612457 151.322540,462.087524 158.345978,463.753296 
	C172.622086,467.139160 186.086456,463.875519 198.630173,456.513977 
	C199.622757,455.931458 200.639648,455.390350 202.307098,454.461182 
	C203.569504,457.874634 204.744415,461.051514 205.987915,464.593140 
	C187.405991,475.265015 168.530457,476.128967 149.701401,465.719482 
	C145.466782,463.378387 141.980057,459.684509 138.044373,456.284760 
z"/>
<path fill="#A87F56" opacity="1.000000" stroke="none" 
	d="
M260.771851,236.622406 
	C257.857880,237.301285 254.878799,237.654480 251.497864,238.038086 
	C246.735565,229.713745 241.586014,221.663971 238.210098,212.928757 
	C233.771744,201.444519 230.785126,189.412308 232.659866,176.439880 
	C236.304916,198.842743 246.313034,218.584641 260.771851,236.622406 
z"/>
<path fill="#D5442D" opacity="1.000000" stroke="none" 
	d="
M49.022690,291.429016 
	C49.068401,289.824341 48.983963,288.458313 49.296360,287.190002 
	C50.416729,282.641541 54.939217,280.074188 59.273762,281.406769 
	C63.684544,282.762787 66.033127,287.463989 64.432755,291.733673 
	C62.818718,296.039825 58.117096,298.071167 53.827972,296.217957 
	C52.624062,295.697784 51.558636,294.857117 50.064339,294.032074 
	C49.490856,293.171295 49.282722,292.441895 49.022690,291.429016 
z"/>
<path fill="#A77D52" opacity="1.000000" stroke="none" 
	d="
M182.935562,134.713287 
	C182.693359,134.510696 182.355759,134.023575 181.896484,133.261444 
	C182.129944,133.467224 182.485062,133.947983 182.935562,134.713287 
z"/>
<path fill="#A77D52" opacity="1.000000" stroke="none" 
	d="
M73.138138,325.176880 
	C73.466736,325.189117 74.034912,325.381866 74.820282,325.786743 
	C74.484230,325.785065 73.930969,325.571228 73.138138,325.176880 
z"/>
<path fill="#A77D52" opacity="1.000000" stroke="none" 
	d="
M183.866333,135.842606 
	C183.721222,135.875519 183.474426,135.660110 183.141769,135.182465 
	C183.269424,135.173187 183.505676,135.397873 183.866333,135.842606 
z"/>
<path fill="#A57D52" opacity="1.000000" stroke="none" 
	d="
M135.222961,454.069885 
	C135.337982,454.081360 135.638245,454.304230 136.125549,454.741333 
	C136.011124,454.730835 135.709671,454.506073 135.222961,454.069885 
z"/>
<path fill="#A77D53" opacity="1.000000" stroke="none" 
	d="
M226.118347,488.152649 
	C226.235413,488.155914 226.509323,488.355865 226.912048,488.776459 
	C226.785660,488.781158 226.530441,488.565247 226.118347,488.152649 
z"/>
<path fill="#A8865A" opacity="1.000000" stroke="none" 
	d="
M224.021713,396.003357 
	C221.442108,390.138428 218.862488,384.273499 216.266281,378.039215 
	C219.966034,382.640167 223.682388,387.610443 227.615707,392.836609 
	C227.832687,393.092560 227.841034,393.470978 227.544434,393.752563 
	C226.172455,394.690582 225.097076,395.346985 224.021713,396.003357 
z"/>
<path fill="#A8865A" opacity="1.000000" stroke="none" 
	d="
M216.272018,377.586151 
	C215.877472,377.486420 215.457214,377.076141 214.948425,376.378998 
	C215.322037,376.486633 215.784180,376.881104 216.272018,377.586151 
z"/>
<path fill="#A77D53" opacity="1.000000" stroke="none" 
	d="
M304.245819,409.602509 
	C303.833557,409.491364 303.398102,409.047028 302.822449,408.308899 
	C303.195709,408.433167 303.709167,408.851257 304.245819,409.602509 
z"/>
<path fill="#A77D53" opacity="1.000000" stroke="none" 
	d="
M305.153015,410.648621 
	C304.875336,410.715881 304.603912,410.465790 304.234009,409.951050 
	C304.476807,409.901337 304.818054,410.116272 305.153015,410.648621 
z"/>
<path fill="#A8865A" opacity="1.000000" stroke="none" 
	d="
M214.792969,375.890961 
	C214.567642,376.034210 214.326874,375.869598 214.054886,375.409790 
	C214.284439,375.246002 214.535721,375.402161 214.792969,375.890961 
z"/>
<path fill="#F7931F" opacity="1.000000" stroke="none" 
	d="
M286.654205,184.086990 
	C274.847046,168.020767 277.151550,145.454849 292.011627,131.627151 
	C306.693451,117.965317 329.626343,117.387398 344.823547,130.368362 
	C346.960052,132.193298 348.815979,134.346756 350.769226,136.968353 
	C351.014862,139.204758 351.205566,140.841812 351.584686,142.433990 
	C355.560516,159.132523 351.163147,173.535919 337.900452,184.084381 
	C324.503815,194.739334 309.407532,196.130890 293.875183,187.972321 
	C291.856598,186.912048 289.623596,186.260040 287.489899,185.418930 
	C287.489899,185.418930 287.597382,185.009155 287.569214,184.901367 
	C287.245422,184.558060 286.949829,184.322525 286.654205,184.086990 
z"/>
<path fill="#F08215" opacity="1.000000" stroke="none" 
	d="
M287.656311,185.712463 
	C289.623596,186.260040 291.856598,186.912048 293.875183,187.972321 
	C309.407532,196.130890 324.503815,194.739334 337.900452,184.084381 
	C351.163147,173.535919 355.560516,159.132523 351.584686,142.433990 
	C351.205566,140.841812 351.014862,139.204758 350.864075,137.291122 
	C363.685272,153.131744 361.605560,176.384705 346.199493,190.573181 
	C330.925812,204.639725 306.920349,204.570419 291.879150,190.383499 
	C290.435242,189.021606 289.170563,187.469696 287.656311,185.712463 
z"/>
<path fill="#F08215" opacity="1.000000" stroke="none" 
	d="
M286.789215,184.386108 
	C286.949829,184.322525 287.245422,184.558060 287.774292,184.954376 
	C287.646423,184.971848 287.285309,184.828537 286.789215,184.386108 
z"/>
<path fill="#B59669" opacity="1.000000" stroke="none" 
	d="
M130.916306,192.030441 
	C120.019798,185.220383 117.712410,174.000015 125.548355,165.927216 
	C131.280014,160.022308 140.172318,159.375000 146.742386,164.365356 
	C147.914459,165.255585 149.142776,166.071762 150.672974,166.964874 
	C151.000824,167.007614 151.016953,166.963837 151.016953,166.963837 
	C151.249496,168.075226 151.482040,169.186615 151.948639,171.013779 
	C155.257629,186.238220 145.824768,195.242828 130.916306,192.030441 
z"/>
<path fill="#B59669" opacity="1.000000" stroke="none" 
	d="
M74.916298,216.030441 
	C64.674599,209.625122 61.951496,199.377380 68.337547,191.272949 
	C75.793022,181.811325 88.479332,183.231155 95.940353,195.031677 
	C99.257172,210.239441 89.825874,219.243134 74.916298,216.030441 
z"/>
<path fill="#B59669" opacity="1.000000" stroke="none" 
	d="
M82.915176,304.030579 
	C72.674103,297.622253 69.952072,287.377350 76.337227,279.273346 
	C83.791298,269.812714 96.471626,271.230347 103.941483,283.032349 
	C104.462624,286.925690 104.740486,290.118866 104.837212,293.581207 
	C102.427155,296.833710 100.198219,299.817108 97.598816,302.928009 
	C92.457298,303.380554 87.686241,303.705566 82.915176,304.030579 
z"/>
<path fill="#B59669" opacity="1.000000" stroke="none" 
	d="
M138.917068,248.030182 
	C128.675110,241.627594 125.951141,231.377655 132.337677,223.272827 
	C139.793671,213.810791 152.481949,215.231445 159.940369,227.032837 
	C163.258682,242.237671 153.823364,251.244873 138.917068,248.030182 
z"/>
<path fill="#8DC53F" opacity="1.000000" stroke="none" 
	d="
M58.492134,264.995026 
	C56.561382,262.199036 56.589378,259.316376 58.656723,256.727539 
	C61.638901,252.993134 64.500511,249.034363 68.072998,245.930267 
	C73.099220,241.563095 82.333328,241.781830 86.831123,246.593704 
	C88.572754,248.456970 88.219154,252.278671 88.597900,255.906128 
	C84.948570,263.552002 78.989716,266.734436 71.612823,266.824371 
	C67.247345,266.877594 62.866222,265.647858 58.492134,264.995026 
z"/>
<path fill="#73B230" opacity="1.000000" stroke="none" 
	d="
M150.151581,261.078278 
	C152.653931,263.075653 153.043167,265.425690 151.061005,267.943359 
	C147.997223,271.834778 145.223709,276.081329 141.597504,279.373688 
	C136.203796,284.270844 127.637337,284.311462 122.431549,279.290466 
	C120.656013,277.577972 120.978493,273.690277 120.546120,270.094757 
	C124.011864,262.550385 129.698196,259.164093 137.013290,259.140869 
	C141.390625,259.127014 145.772018,260.389496 150.151581,261.078278 
z"/>
<path fill="#8DC63F" opacity="1.000000" stroke="none" 
	d="
M94.562836,183.082199 
	C84.390907,176.411331 81.723434,165.041382 87.860573,154.514236 
	C90.709892,149.626709 91.934662,149.185257 96.270905,152.622589 
	C99.634346,155.288773 102.551613,158.517838 106.006287,161.949158 
	C106.573425,162.616226 106.807877,162.823593 107.048744,163.023712 
	C107.048744,163.023712 106.983063,163.014191 107.028778,163.397339 
	C107.330544,166.569855 108.056969,169.411011 107.756485,172.139084 
	C106.764420,181.145905 102.516884,184.510025 94.562836,183.082199 
z"/>
<path fill="#8DC53F" opacity="1.000000" stroke="none" 
	d="
M146.085571,149.086533 
	C145.568024,140.412277 146.227203,139.344223 154.973373,140.184082 
	C159.939453,140.660934 165.307053,141.934479 169.479202,144.499542 
	C175.302139,148.079514 175.740707,154.645645 174.656647,161.588196 
	C167.207657,166.051636 160.005539,166.532379 153.948532,160.916580 
	C150.573074,157.786972 148.658508,153.081711 146.085571,149.086533 
z"/>
<path fill="#83BD3A" opacity="1.000000" stroke="none" 
	d="
M97.969284,302.800476 
	C100.198219,299.817108 102.427155,296.833710 105.166710,293.439545 
	C107.515640,292.014893 109.353943,291.001038 111.192245,289.987183 
	C124.176018,287.301788 126.219223,287.982544 122.858223,302.579498 
	C120.437805,313.091522 114.694656,317.575745 105.481094,316.878876 
	C103.389137,316.720673 101.436424,314.721313 99.145241,312.875916 
	C98.570335,309.055054 98.269814,305.927765 97.969284,302.800476 
z"/>
<path fill="#A87D51" opacity="1.000000" stroke="none" 
	d="
M131.024597,192.355423 
	C145.824768,195.242828 155.257629,186.238220 152.106354,171.323730 
	C158.568939,174.477631 161.823212,180.506378 160.835556,187.230789 
	C159.870804,193.799240 154.927032,199.113861 148.392670,200.607071 
	C141.674484,202.142303 135.522446,199.316940 131.024597,192.355423 
z"/>
<path fill="#A87D51" opacity="1.000000" stroke="none" 
	d="
M75.024582,216.355438 
	C89.825874,219.243134 99.257172,210.239441 96.106483,195.322235 
	C102.570038,198.479965 105.823006,204.507004 104.835564,211.230591 
	C103.870895,217.799118 98.927177,223.113815 92.392799,224.607056 
	C85.674477,226.142334 79.522545,223.317047 75.024582,216.355438 
z"/>
<path fill="#A77D51" opacity="1.000000" stroke="none" 
	d="
M138.994446,248.316849 
	C153.823364,251.244873 163.258682,242.237671 160.106293,227.323608 
	C166.679733,230.530548 169.949738,236.765579 168.774033,243.590576 
	C167.507675,250.941879 162.010666,255.804321 153.204163,256.586426 
	C148.817398,254.564117 144.935150,252.872223 140.788086,251.087128 
	C140.348907,250.925903 140.174530,250.857910 140.000168,250.789902 
	C139.690720,250.061111 139.381256,249.332306 138.994446,248.316849 
z"/>
<path fill="#75B230" opacity="1.000000" stroke="none" 
	d="
M94.704178,183.416260 
	C102.516884,184.510025 106.764420,181.145905 107.756485,172.139084 
	C108.056969,169.411011 107.330544,166.569855 107.037338,163.365280 
	C115.811356,170.065247 118.130714,177.511353 114.119591,185.806290 
	C111.005089,192.247025 107.201981,193.631897 101.036514,189.914246 
	C98.614540,188.453842 96.888496,185.839279 94.704178,183.416260 
z"/>
<path fill="#75B230" opacity="1.000000" stroke="none" 
	d="
M58.291401,265.339966 
	C62.866222,265.647858 67.247345,266.877594 71.612823,266.824371 
	C78.989716,266.734436 84.948570,263.552002 88.572006,256.352600 
	C89.713364,263.240143 87.389977,269.020874 80.949371,272.400604 
	C73.523773,276.297180 65.839745,276.041077 58.738621,271.552917 
	C57.700912,270.897034 58.266788,267.704010 58.291401,265.339966 
z"/>
<path fill="#74B230" opacity="1.000000" stroke="none" 
	d="
M145.988983,149.515503 
	C148.658508,153.081711 150.573074,157.786972 153.948532,160.916580 
	C160.005539,166.532379 167.207657,166.051636 174.598099,162.037689 
	C177.140549,168.030167 174.593292,171.302277 166.766266,172.851822 
	C160.715576,174.049713 155.963394,171.046799 151.337570,167.081268 
	C151.016953,166.963837 151.000824,167.007614 151.022949,166.999329 
	C148.234818,161.639145 144.832748,156.466141 145.988983,149.515503 
z"/>
<path fill="#8DC53E" opacity="1.000000" stroke="none" 
	d="
M139.568176,250.822693 
	C140.174530,250.857910 140.348907,250.925903 140.973419,251.350647 
	C145.001831,253.510712 148.580109,255.314056 152.158371,257.117401 
	C151.636414,258.282013 151.114456,259.446594 150.372040,260.844727 
	C145.772018,260.389496 141.390625,259.127014 137.013290,259.140869 
	C129.698196,259.164093 124.011864,262.550385 120.586227,269.657104 
	C119.013725,258.247467 125.637520,251.499039 139.568176,250.822693 
z"/>
<path fill="#D5442D" opacity="1.000000" stroke="none" 
	d="
M145.691330,285.963318 
	C149.402786,280.823242 153.638062,279.724548 157.609604,282.554321 
	C161.158508,285.082947 162.060623,290.020233 159.458557,293.535339 
	C157.140701,296.666473 153.933334,297.862244 150.280609,296.374420 
	C145.788818,294.544769 144.242355,291.029449 145.691330,285.963318 
z"/>
<path fill="#D5442D" opacity="1.000000" stroke="none" 
	d="
M141.404907,122.418419 
	C145.195435,125.656548 146.075745,129.279327 143.629456,133.227478 
	C141.580780,136.533905 138.376373,137.673721 134.598740,136.523849 
	C130.392960,135.243698 128.124405,130.793381 129.428940,126.655037 
	C130.949356,121.831940 135.356598,120.148766 141.404907,122.418419 
z"/>
<path fill="#D5442D" opacity="1.000000" stroke="none" 
	d="
M112.302673,140.032486 
	C108.686829,145.038635 104.762505,146.188309 100.795746,143.714783 
	C97.255409,141.507156 95.967018,136.941879 98.029533,133.300186 
	C100.071175,129.695343 103.254501,128.320938 107.264023,129.434143 
	C111.563965,130.627975 113.284615,134.176773 112.302673,140.032486 
z"/>
<path fill="#D5442D" opacity="1.000000" stroke="none" 
	d="
M120.899872,225.771027 
	C119.714279,230.853302 116.741600,233.379242 111.913963,232.796494 
	C107.830299,232.303558 105.371414,229.582703 105.125572,225.456039 
	C104.879341,221.322876 107.024139,218.415497 111.011444,217.368530 
	C115.009827,216.318649 118.185760,217.870193 120.068123,221.570480 
	C120.640610,222.695877 120.662766,224.101242 120.899872,225.771027 
z"/>
<path fill="#D5442D" opacity="1.000000" stroke="none" 
	d="
M57.418518,227.292633 
	C56.991909,219.882812 61.618042,215.508163 67.388123,217.469208 
	C71.101677,218.731323 73.630959,221.674393 72.693291,225.323868 
	C71.990837,228.057953 69.536316,231.291367 67.023621,232.396469 
	C62.875427,234.220871 59.414860,231.876022 57.418518,227.292633 
z"/>
<path fill="#D5442D" opacity="1.000000" stroke="none" 
	d="
M174.700928,208.580627 
	C169.223480,205.379684 167.708694,201.261780 170.131561,197.042679 
	C172.310242,193.248810 177.098206,191.885498 180.872940,194.122345 
	C184.241623,196.118591 185.722198,199.228195 184.620255,202.974350 
	C183.258453,207.603867 179.883789,209.506668 174.700928,208.580627 
z"/>
<path fill="#A87D51" opacity="1.000000" stroke="none" 
	d="
M97.598824,302.928009 
	C98.269814,305.927765 98.570335,309.055054 98.935074,312.585144 
	C92.109917,313.275482 86.631401,310.868408 83.023865,304.355469 
	C87.686241,303.705566 92.457298,303.380554 97.598824,302.928009 
z"/>
<path fill="#A77F50" opacity="1.000000" stroke="none" 
	d="
M111.055611,289.666992 
	C109.353943,291.001038 107.515640,292.014893 105.347839,293.170410 
	C104.740486,290.118866 104.462624,286.925690 104.108261,283.322327 
	C106.327499,285.057068 108.623238,287.201935 111.055611,289.666992 
z"/>
<path fill="#79AC34" opacity="1.000000" stroke="none" 
	d="
M152.347534,257.063446 
	C148.580109,255.314056 145.001831,253.510712 141.238235,251.443848 
	C144.935150,252.872223 148.817398,254.564117 152.804321,256.569153 
	C152.908997,256.882263 152.536713,257.009491 152.347534,257.063446 
z"/>
<path fill="#75B230" opacity="1.000000" stroke="none" 
	d="
M106.914749,162.825119 
	C106.807877,162.823593 106.573425,162.616226 106.177536,162.238541 
	C106.316216,162.189880 106.573235,162.373566 106.914749,162.825119 
z"/>
<path fill="#8CC63F" opacity="1.000000" stroke="none" 
	d="
M200.236938,445.265015 
	C181.859360,461.090393 154.079254,460.652832 137.015549,444.522980 
	C118.434647,426.959015 115.694916,399.932953 130.505234,380.302002 
	C143.061783,363.658386 165.023026,356.895386 184.515167,363.669525 
	C204.337433,370.558380 217.690842,389.547394 216.926010,410.419250 
	C216.421326,424.192078 210.969543,435.858246 200.236938,445.265015 
M190.248306,421.465729 
	C189.390366,419.859497 188.703949,418.127625 187.638641,416.673279 
	C185.443649,413.676727 182.370316,411.439789 178.733246,413.035736 
	C176.329926,414.090302 173.089279,416.743011 173.019913,418.775635 
	C172.919769,421.710785 174.816254,425.199982 176.875549,427.571747 
	C178.576416,429.530670 181.640335,430.620697 184.304123,431.327484 
	C186.361084,431.873260 189.511917,432.049011 190.744949,430.879730 
	C191.949402,429.737610 191.433426,426.683990 191.474518,424.465820 
	C191.488617,423.704926 190.903854,422.932983 190.248306,421.465729 
M151.611298,415.106445 
	C150.850098,416.188324 149.928772,417.192200 149.356918,418.366302 
	C147.430206,422.322144 143.541992,427.052704 147.114883,430.681244 
	C150.932297,434.558075 155.790833,430.625153 159.804779,428.530731 
	C164.610352,426.023254 166.479507,420.557129 164.292389,416.332855 
	C162.263733,412.414612 157.352402,411.727905 151.611298,415.106445 
M173.709976,401.754852 
	C175.790344,405.194305 179.027924,405.020081 182.485657,404.877380 
	C187.761337,404.659607 193.386429,391.847290 191.722717,388.337860 
	C191.293076,387.431580 190.271835,386.467224 189.330154,386.195404 
	C181.405533,383.908295 171.475204,393.234924 173.709976,401.754852 
M158.393707,405.003296 
	C163.783356,403.895844 165.550568,401.580353 164.940582,396.425354 
	C164.306198,391.064178 153.088272,384.187195 148.205490,386.337891 
	C147.240585,386.762909 146.321854,388.207886 146.126831,389.313873 
	C145.037811,395.489105 151.397842,404.064880 158.393707,405.003296 
z"/>
<path fill="#8CC63F" opacity="1.000000" stroke="none" 
	d="
M231.044922,400.023499 
	C237.322800,397.922577 243.460342,395.082428 249.904800,393.858948 
	C269.465637,390.145386 290.022125,400.655701 299.226746,418.422913 
	C309.085297,437.452332 305.956299,459.497009 291.306976,474.219910 
	C269.069244,496.569336 232.311142,492.737915 216.307266,466.475891 
	C213.917328,462.554077 213.172302,459.850220 217.196945,455.866974 
	C225.256409,447.890594 230.343933,437.948486 232.076599,426.525787 
	C232.189407,425.782074 232.562073,425.077789 233.113892,423.494049 
	C234.944626,427.011749 236.257675,429.825165 237.830948,432.484711 
	C239.830780,435.865326 242.990433,438.568848 246.788727,437.196869 
	C249.442886,436.238129 252.994629,433.017944 253.036560,430.750366 
	C253.091522,427.777710 250.798996,423.599854 248.233002,422.005768 
	C244.118103,419.449371 238.950363,418.587708 233.451080,416.750397 
	C232.817383,412.827423 231.925064,407.303558 231.012375,401.138947 
	C230.992004,400.498230 231.044922,400.023499 231.044922,400.023499 
M268.524506,444.556732 
	C260.569275,446.237793 257.552826,453.006042 263.085144,457.985535 
	C266.330231,460.906342 271.050323,462.467712 275.362854,463.830872 
	C278.555298,464.840057 280.144928,462.673492 279.998077,459.272614 
	C279.743591,453.379578 274.836914,446.554016 268.524506,444.556732 
M235.236343,463.310455 
	C241.900925,465.290039 246.850708,461.772430 251.247284,457.726685 
	C254.115051,455.087769 253.614853,449.239075 251.103333,446.751068 
	C248.329956,444.003723 243.160858,443.583038 240.282913,446.710510 
	C236.236969,451.107178 232.737839,456.071838 235.236343,463.310455 
M262.628174,434.985352 
	C263.936523,435.632965 265.184509,436.631836 266.563446,436.868927 
	C273.491821,438.060303 282.274414,426.971039 279.722931,420.291687 
	C279.413635,419.481903 278.538208,418.456970 277.781067,418.318268 
	C271.995514,417.258453 267.375702,420.158051 263.326294,423.574310 
	C259.886383,426.476471 259.696960,430.475311 262.628174,434.985352 
z"/>
<path fill="#65A81D" opacity="1.000000" stroke="none" 
	d="
M230.838043,399.750610 
	C231.044922,400.023499 230.992004,400.498230 230.958923,400.734650 
	C229.246536,401.948303 227.567245,402.925537 225.026672,404.403961 
	C224.634140,401.475067 224.321838,399.144897 224.015625,396.409027 
	C225.097076,395.346985 226.172455,394.690582 227.544800,393.941833 
	C228.771576,395.725525 229.701370,397.601624 230.838043,399.750610 
z"/>
<path fill="#73B230" opacity="1.000000" stroke="none" 
	d="
M190.420502,421.815918 
	C190.903854,422.932983 191.488617,423.704926 191.474518,424.465820 
	C191.433426,426.683990 191.949402,429.737610 190.744949,430.879730 
	C189.511917,432.049011 186.361084,431.873260 184.304123,431.327484 
	C181.640335,430.620697 178.576416,429.530670 176.875549,427.571747 
	C174.816254,425.199982 172.919769,421.710785 173.019913,418.775635 
	C173.089279,416.743011 176.329926,414.090302 178.733246,413.035736 
	C182.370316,411.439789 185.443649,413.676727 187.638641,416.673279 
	C188.703949,418.127625 189.390366,419.859497 190.420502,421.815918 
z"/>
<path fill="#73B230" opacity="1.000000" stroke="none" 
	d="
M151.889954,414.872070 
	C157.352402,411.727905 162.263733,412.414612 164.292389,416.332855 
	C166.479507,420.557129 164.610352,426.023254 159.804779,428.530731 
	C155.790833,430.625153 150.932297,434.558075 147.114883,430.681244 
	C143.541992,427.052704 147.430206,422.322144 149.356918,418.366302 
	C149.928772,417.192200 150.850098,416.188324 151.889954,414.872070 
z"/>
<path fill="#73B230" opacity="1.000000" stroke="none" 
	d="
M173.544067,401.416412 
	C171.475204,393.234924 181.405533,383.908295 189.330154,386.195404 
	C190.271835,386.467224 191.293076,387.431580 191.722717,388.337860 
	C193.386429,391.847290 187.761337,404.659607 182.485657,404.877380 
	C179.027924,405.020081 175.790344,405.194305 173.544067,401.416412 
z"/>
<path fill="#72B230" opacity="1.000000" stroke="none" 
	d="
M157.985779,405.005371 
	C151.397842,404.064880 145.037811,395.489105 146.126831,389.313873 
	C146.321854,388.207886 147.240585,386.762909 148.205490,386.337891 
	C153.088272,384.187195 164.306198,391.064178 164.940582,396.425354 
	C165.550568,401.580353 163.783356,403.895844 157.985779,405.005371 
z"/>
<path fill="#73B230" opacity="1.000000" stroke="none" 
	d="
M268.886475,444.565308 
	C274.836914,446.554016 279.743591,453.379578 279.998077,459.272614 
	C280.144928,462.673492 278.555298,464.840057 275.362854,463.830872 
	C271.050323,462.467712 266.330231,460.906342 263.085144,457.985535 
	C257.552826,453.006042 260.569275,446.237793 268.886475,444.565308 
z"/>
<path fill="#73B230" opacity="1.000000" stroke="none" 
	d="
M234.954163,463.022095 
	C232.737839,456.071838 236.236969,451.107178 240.282913,446.710510 
	C243.160858,443.583038 248.329956,444.003723 251.103333,446.751068 
	C253.614853,449.239075 254.115051,455.087769 251.247284,457.726685 
	C246.850708,461.772430 241.900925,465.290039 234.954163,463.022095 
z"/>
<path fill="#73B230" opacity="1.000000" stroke="none" 
	d="
M262.381226,434.693787 
	C259.696960,430.475311 259.886383,426.476471 263.326294,423.574310 
	C267.375702,420.158051 271.995514,417.258453 277.781067,418.318268 
	C278.538208,418.456970 279.413635,419.481903 279.722931,420.291687 
	C282.274414,426.971039 273.491821,438.060303 266.563446,436.868927 
	C265.184509,436.631836 263.936523,435.632965 262.381226,434.693787 
z"/>
</svg>