<svg version="1.1" id="Layer_1" xmlns="http://www.w3.org/2000/svg" xmlns:xlink="http://www.w3.org/1999/xlink" x="0px" y="0px"
	 width="100%" viewBox="0 0 512 512" xml:space="preserve">

<path fill="#EEE2D4" opacity="1.000000" stroke="none" 
	d="
M88.975830,63.041725 
	C94.723946,69.192299 100.405724,75.409042 106.347435,81.366539 
	C106.817451,81.837799 109.358749,80.850090 110.487663,79.966049 
	C126.512596,67.417061 143.462433,56.336201 162.071701,48.019684 
	C182.173141,39.036312 202.969299,31.950878 225.017075,30.105013 
	C241.989273,28.684080 259.151001,27.369665 276.097992,28.324223 
	C299.877197,29.663618 322.925537,35.675331 344.954193,45.002338 
	C367.759888,54.658352 388.607849,67.417076 407.354218,83.734749 
	C442.214264,114.078568 465.669861,151.502350 478.139709,195.903610 
	C483.275574,214.190842 485.638306,232.795212 486.168701,251.845398 
	C487.306152,292.701569 477.825897,330.821289 458.631531,366.654022 
	C446.277618,389.716766 430.277618,410.103027 410.814209,427.520813 
	C382.723328,452.659302 350.271118,470.117065 313.721588,479.471252 
	C297.663422,483.581085 281.282196,485.811371 264.566833,486.160461 
	C243.222672,486.606232 222.148193,485.076202 201.503479,479.807159 
	C181.297089,474.650024 162.026733,466.999664 143.823563,456.594696 
	C123.745773,445.118103 105.696037,431.170685 89.888008,414.347137 
	C68.569794,391.659485 52.585373,365.644867 41.664886,336.476868 
	C34.461159,317.236115 29.648640,297.338196 28.282888,276.960266 
	C26.685295,253.123093 27.574703,229.253021 33.170925,205.760406 
	C39.556061,178.955963 50.139194,153.976410 65.156395,130.933472 
	C70.219582,123.164337 76.192772,115.988274 82.243378,108.300140 
	C86.816650,112.320686 90.896614,116.582253 94.704330,121.051872 
	C74.096069,146.058685 59.197796,173.713898 51.711823,204.983963 
	C48.724430,217.462753 46.339966,230.218964 45.265713,242.982269 
	C44.338871,253.994171 45.474937,265.204498 46.030891,276.310516 
	C46.830143,292.276733 50.649841,307.646149 55.694862,322.765350 
	C71.983925,371.581299 102.179642,409.429504 145.514053,436.950134 
	C175.257507,455.839478 207.972824,466.046753 242.873917,468.839996 
	C265.138000,470.621857 287.291779,468.113220 308.905853,462.405304 
	C363.845123,447.896759 406.372192,416.355530 436.981415,368.510376 
	C454.991638,340.358704 465.079803,309.368683 467.657135,276.409515 
	C469.711975,250.131653 467.790497,223.905151 460.333649,198.100616 
	C448.184875,156.059631 424.925598,121.555519 391.779938,93.698601 
	C358.554260,65.774445 319.769318,49.796066 276.609589,46.367489 
	C254.387085,44.602150 231.887634,44.982929 209.761597,50.395924 
	C184.253235,56.636391 160.542358,66.675644 138.764725,81.245483 
	C132.469131,85.457413 126.627930,90.348518 121.074982,94.552322 
	C127.387772,101.321190 133.267441,107.625648 139.282211,114.231583 
	C147.938461,120.722687 156.105530,127.493286 165.069290,132.956741 
	C176.600800,139.985260 189.850616,142.519882 202.853546,145.323608 
	C190.048706,152.589066 178.301758,160.806091 167.685074,170.994751 
	C166.217590,169.789551 165.021378,168.698441 163.994019,167.466537 
	C157.523544,159.707718 151.642212,151.370361 144.555313,144.227051 
	C99.994751,99.311859 55.171143,54.657612 10.419871,9.931722 
	C9.016768,8.529414 7.454845,7.286015 6.133276,5.673690 
	C8.533059,3.919231 10.766530,2.459615 13.000000,1.000000 
	C16.692909,1.000000 20.385818,1.000000 24.734657,1.271828 
	C27.741159,3.343576 30.310020,4.921460 32.405144,6.981218 
	C42.347675,16.755934 52.133003,26.690289 62.028732,36.512970 
	C70.974533,45.392727 79.990700,54.201595 88.975830,63.041725 
z"/>
<path fill="#E0D0BB" opacity="1.000000" stroke="none" 
	d="
M63.353832,89.095009 
	C47.468304,73.199028 31.872112,57.466766 16.269890,41.740494 
	C13.101180,38.546593 9.737891,35.525078 6.788040,32.141827 
	C4.756723,29.812067 3.283784,26.995462 1.280644,24.198223 
	C1.000000,20.638712 1.000000,17.277426 1.278617,13.260365 
	C3.027144,10.392571 4.497054,8.180552 5.966964,5.968534 
	C7.454845,7.286015 9.016768,8.529414 10.419871,9.931722 
	C55.171143,54.657612 99.994751,99.311859 144.555313,144.227051 
	C151.642212,151.370361 157.523544,159.707718 163.994019,167.466537 
	C165.021378,168.698441 166.217590,169.789551 167.537292,171.291718 
	C160.747406,181.576004 153.763580,191.519684 146.754349,201.445450 
	C145.928650,202.614746 144.963486,203.685593 144.065979,204.379074 
	C143.376892,199.399368 142.968201,194.777847 141.943710,190.297134 
	C137.501221,170.867630 129.219666,153.503998 113.962509,139.638641 
	C107.522766,133.180008 101.249672,127.011909 94.976578,120.843811 
	C90.896614,116.582253 86.816650,112.320686 82.402557,107.997757 
	C75.925964,101.711212 69.783501,95.486031 63.353832,89.095009 
z"/>
<path fill="#FFBE64" opacity="1.000000" stroke="none" 
	d="
M114.129150,139.929153 
	C129.219666,153.503998 137.501221,170.867630 141.943710,190.297134 
	C142.968201,194.777847 143.376892,199.399368 144.040680,204.787033 
	C141.471359,213.854034 138.730667,222.035309 136.451782,230.343277 
	C134.588089,237.137619 139.400116,243.757370 145.259186,242.695831 
	C150.435211,241.758041 152.873383,238.078461 154.039932,233.073074 
	C160.881470,203.717560 177.324539,181.097778 203.333603,166.092804 
	C212.696579,160.691193 223.370178,157.462875 233.635010,153.768936 
	C238.065567,152.174515 240.516022,149.248169 240.746246,145.186035 
	C240.974991,141.150360 238.433624,137.922363 234.279556,136.746674 
	C232.799332,136.327744 230.988525,136.302292 229.520813,136.740677 
	C220.643616,139.392212 211.822067,142.230118 202.981918,145.005722 
	C189.850616,142.519882 176.600800,139.985260 165.069290,132.956741 
	C156.105530,127.493286 147.938461,120.722687 139.565079,114.079147 
	C158.055145,98.588470 178.576675,87.397079 201.115799,80.244186 
	C226.091614,72.317993 251.739182,70.106201 277.850006,72.939804 
	C294.468384,74.743271 310.532532,78.713005 325.918884,85.050743 
	C351.242096,95.481529 373.533569,110.340523 392.303253,130.588882 
	C403.597595,142.773010 413.026459,156.091568 420.791779,170.647385 
	C430.884186,189.565231 437.318726,209.637314 440.302917,230.960159 
	C442.999512,250.228210 442.798340,269.362061 439.609894,288.441925 
	C436.386353,307.732025 430.013702,326.020416 420.876373,343.370331 
	C412.137146,359.964294 401.477661,375.308929 387.952087,388.112518 
	C377.423645,398.078979 365.547546,406.848480 353.406464,414.837006 
	C328.788635,431.034882 301.142151,439.483795 271.975281,441.794128 
	C244.042023,444.006714 216.616837,440.248596 190.329422,429.946411 
	C165.867783,420.359772 143.936829,406.537048 125.696548,387.759827 
	C115.724915,377.494751 106.981224,365.714996 99.323540,353.583252 
	C74.606232,314.424713 67.163391,271.466766 74.295647,226.008545 
	C77.854034,203.328796 85.713768,181.955170 97.923737,162.424820 
	C102.812279,154.605392 108.697563,147.409088 114.129150,139.929153 
M155.706146,279.344421 
	C153.646805,278.974182 150.777191,277.608551 149.719864,278.469208 
	C148.170975,279.730011 146.944839,282.741241 147.263855,284.737610 
	C151.360138,310.371521 162.239197,332.402924 182.646942,349.087769 
	C199.900864,363.194061 219.728043,370.867340 241.984161,371.843170 
	C244.543381,371.955353 247.197556,369.902252 249.807709,368.853119 
	C248.418808,366.051270 247.132965,363.190002 245.573715,360.486389 
	C245.145996,359.744751 243.899704,359.475220 242.718811,358.395416 
	C241.445328,357.084595 240.237747,355.701355 238.888397,354.473969 
	C220.850357,338.066010 202.830185,321.638062 184.724213,305.305267 
	C175.246857,296.756073 165.610245,288.383423 155.706146,279.344421 
M330.674011,372.733948 
	C334.453888,363.931976 339.087372,355.386627 341.827454,346.272095 
	C346.796600,329.742706 346.241760,312.839722 341.927765,296.169647 
	C337.998169,280.984955 330.771301,267.498840 319.710205,255.399231 
	C318.229126,253.825867 316.974792,251.897491 315.209076,250.769760 
	C313.044495,249.387283 310.106903,247.407867 308.120117,247.949265 
	C304.537720,248.925476 304.773407,252.711121 305.138031,255.992722 
	C306.140686,265.016937 307.135864,274.043121 307.997406,283.081573 
	C308.829681,291.812744 309.420654,300.566864 310.245331,309.298859 
	C311.442657,321.976501 312.772949,334.641571 314.011444,347.315430 
	C314.831451,355.706665 315.249329,364.156769 316.540955,372.472809 
	C317.068817,375.871429 315.360504,381.461609 321.422882,381.890320 
	C327.267609,382.303589 328.104828,376.959442 330.674011,372.733948 
M244.725372,209.879013 
	C265.201782,203.062424 285.676880,196.242004 306.155060,189.430756 
	C317.812317,185.553436 329.524719,181.831192 341.085968,177.686630 
	C343.057465,176.979889 345.316101,174.685211 345.712555,172.766724 
	C346.004120,171.355835 343.785156,168.274734 342.149200,167.805420 
	C332.170624,164.942703 322.038788,162.614319 311.031067,160.044281 
	C303.744537,160.362930 296.358185,160.024643 289.188782,161.114105 
	C258.396606,165.793289 235.211304,182.122223 218.990585,208.473404 
	C217.916489,210.218307 217.504166,213.814621 218.551422,215.042923 
	C219.764481,216.465698 223.186356,217.109726 225.206635,216.535156 
	C231.573074,214.724548 237.732224,212.185059 244.725372,209.879013 
M333.551422,183.966553 
	C330.708618,192.080841 327.688232,200.139343 325.112061,208.337402 
	C324.109467,211.527893 325.598022,214.280701 328.960144,215.476089 
	C336.002899,217.980133 342.998383,220.668884 350.170044,222.738571 
	C354.350250,223.944931 357.584595,222.145309 358.993134,217.623169 
	C360.970062,211.276154 363.182556,205.002884 365.200165,198.668076 
	C366.877502,193.401672 365.625488,190.786972 360.528992,189.026688 
	C354.244537,186.856125 347.975159,184.585327 341.560944,182.877228 
	C339.286896,182.271652 336.606934,183.190430 333.551422,183.966553 
M111.296318,312.205048 
	C115.878922,313.644897 120.439285,315.161163 125.050453,316.502899 
	C129.562500,317.815765 132.309921,316.369904 133.900620,311.779968 
	C136.127060,305.355621 138.253052,298.894592 140.304398,292.412048 
	C141.872772,287.455780 140.580276,284.762085 135.781876,283.094482 
	C129.359558,280.862610 122.861580,278.849304 116.426071,276.654266 
	C112.045013,275.159943 108.842583,276.403259 107.178688,280.695068 
	C105.322304,285.483307 103.697495,290.365234 102.089661,295.245178 
	C98.204308,307.037689 98.701744,307.977570 111.296318,312.205048 
M280.786865,332.898407 
	C283.167633,332.460266 286.238190,332.810974 287.804474,331.441345 
	C293.299377,326.636414 298.273071,321.235870 303.451202,316.067993 
	C306.480591,313.044586 306.538177,310.020203 303.492676,306.974457 
	C298.202332,301.683655 292.892242,296.412292 287.631744,291.091980 
	C285.111084,288.542694 282.491180,288.054047 279.821075,290.681244 
	C274.044128,296.365417 268.306458,302.091003 262.633972,307.879272 
	C259.997314,310.569733 260.607117,313.194397 263.146820,315.685303 
	C268.843384,321.272400 274.493195,326.907227 280.786865,332.898407 
M239.724075,234.489655 
	C242.108795,244.543259 252.082306,249.804626 261.148712,247.688095 
	C270.891937,245.413605 275.946777,236.368011 273.905762,225.563721 
	C272.423401,217.716660 262.612915,211.450104 253.801712,213.127640 
	C243.666595,215.057236 237.392242,225.247803 239.724075,234.489655 
M192.983093,364.138458 
	C192.188828,363.889954 191.408737,363.574158 190.598083,363.403442 
	C182.950287,361.792633 176.704285,364.257812 172.170700,370.442261 
	C168.246658,375.795197 167.595566,381.869843 170.496262,387.899750 
	C173.724167,394.609802 179.103989,398.225525 186.797577,398.033142 
	C194.773499,397.833679 201.471756,392.603394 203.544235,384.797028 
	C205.650238,376.864380 201.963593,369.234070 192.983093,364.138458 
M266.002563,117.212181 
	C267.034973,125.305939 271.361542,130.963791 279.299744,132.750809 
	C286.139465,134.290543 292.585693,132.613998 297.141663,126.700104 
	C302.221985,120.105606 302.438171,112.382988 297.960297,105.873550 
	C293.740814,99.739723 285.880310,96.761078 279.239899,98.779694 
	C270.315460,101.492630 266.160156,107.005981 266.002563,117.212181 
M401.011932,259.939697 
	C395.685638,247.355759 378.335968,246.910721 371.250031,256.104095 
	C366.003540,262.910858 365.404785,270.304016 370.765106,277.095062 
	C375.450195,283.030579 382.972412,287.312439 391.316681,283.405914 
	C400.266388,279.215881 403.783752,271.801971 401.011932,259.939697 
M374.027527,334.445282 
	C375.905518,337.219757 377.318878,340.542847 379.780853,342.627808 
	C382.760101,345.150970 386.573364,346.731628 390.122192,348.529663 
	C394.852936,350.926453 398.817383,349.872009 401.832489,345.641022 
	C404.177490,342.350342 403.681641,337.504333 399.986176,334.562653 
	C396.516785,331.800903 392.603119,329.529205 388.683258,327.416046 
	C381.227478,323.396729 376.546997,325.493073 374.027527,334.445282 
M223.945877,275.256470 
	C221.960663,270.020416 220.381485,264.578156 217.860519,259.614197 
	C215.877884,255.710190 210.498032,254.820969 206.434555,256.812622 
	C202.512009,258.735199 200.841156,263.348053 202.564896,267.953552 
	C203.612183,270.751678 204.800339,273.510162 206.121841,276.189453 
	C208.015579,280.028931 210.246368,283.214600 215.416641,283.110870 
	C220.428497,283.010376 222.430405,280.062469 223.945877,275.256470 
M279.571259,409.157867 
	C280.472198,408.732300 281.391388,408.341156 282.270996,407.875336 
	C286.642365,405.560516 288.603088,400.032440 286.650452,395.580719 
	C285.029053,391.884247 280.232544,390.103851 275.520142,391.747498 
	C271.927246,393.000702 268.350098,394.407166 264.975067,396.150299 
	C260.463684,398.480316 258.847931,403.344238 260.795624,407.543091 
	C262.868317,412.011383 267.032013,413.781525 271.921814,412.154480 
	C274.277924,411.370483 276.566284,410.382874 279.571259,409.157867 
M420.868042,211.901871 
	C421.178070,203.885437 417.514282,199.816589 410.661926,201.159866 
	C406.797089,201.917496 402.545502,202.845963 399.531433,205.111847 
	C397.180634,206.879089 395.314270,210.860168 395.395996,213.797241 
	C395.461395,216.146606 398.329956,219.433762 400.748840,220.496628 
	C406.286377,222.929886 417.479980,218.050522 420.868042,211.901871 
M111.304703,232.871429 
	C113.280098,231.670502 115.441452,230.690475 117.189171,229.219116 
	C120.123611,226.748688 122.220665,223.730850 120.257988,219.646805 
	C118.268257,215.506500 114.840134,212.497070 110.369286,214.215714 
	C105.419510,216.118439 100.777214,219.189804 96.595764,222.502899 
	C95.303017,223.527191 95.185303,227.258560 95.858612,229.315445 
	C98.061874,236.046066 102.816040,237.128159 111.304703,232.871429 
M237.465332,412.886810 
	C238.308197,411.265259 239.138840,409.637238 239.996429,408.023529 
	C241.845795,404.543518 240.922974,401.013245 238.223419,399.073975 
	C235.828857,397.353821 231.815567,395.947327 229.334610,396.795166 
	C226.457748,397.778351 224.049713,401.091858 222.191437,403.893463 
	C218.547485,409.387177 219.411057,415.251434 223.717606,418.112122 
	C227.825516,420.840942 233.403687,418.897156 237.465332,412.886810 
M349.160431,390.125214 
	C346.009430,392.728119 342.276093,394.901764 339.923615,398.093231 
	C338.488678,400.039948 338.414856,403.759216 339.102173,406.312958 
	C340.032501,409.769684 343.318878,411.891357 346.884033,410.862915 
	C350.315033,409.873230 353.551544,407.863434 356.558014,405.834351 
	C360.445740,403.210510 361.580383,399.251526 359.747375,394.946991 
	C357.963501,390.757904 354.392792,389.346954 349.160431,390.125214 
M349.223053,139.551361 
	C351.810242,140.050659 354.570038,141.347443 356.938232,140.834900 
	C359.538116,140.272232 362.919800,138.547821 363.868195,136.403900 
	C364.922180,134.021286 364.480743,130.069336 363.088470,127.771049 
	C361.731995,125.531784 358.494659,124.185898 355.829346,123.035713 
	C349.912964,120.482574 344.574951,122.189034 342.583618,126.885826 
	C340.440796,131.939941 342.436768,136.094086 349.223053,139.551361 
M188.253082,220.609955 
	C186.366745,216.788940 183.107697,215.617188 179.138885,216.051407 
	C174.072144,216.605743 167.591766,224.682297 168.036865,229.761337 
	C168.517776,235.248993 173.850296,238.846375 179.013458,237.166260 
	C185.865234,234.936691 189.612549,228.744064 188.253082,220.609955 
M206.834549,113.005219 
	C214.666550,112.884254 219.710922,107.266846 216.377335,101.571190 
	C214.291306,98.007042 210.444199,94.927650 206.673538,93.117828 
	C204.684616,92.163208 200.133118,93.552773 198.610901,95.414635 
	C196.891403,97.517776 195.880310,102.108147 197.056763,104.239098 
	C198.987549,107.736382 202.931244,110.122383 206.834549,113.005219 
z"/>
<path fill="#FFAF5D" opacity="1.000000" stroke="none" 
	d="
M113.962509,139.638641 
	C108.697563,147.409088 102.812279,154.605392 97.923737,162.424820 
	C85.713768,181.955170 77.854034,203.328796 74.295647,226.008545 
	C67.163391,271.466766 74.606232,314.424713 99.323540,353.583252 
	C106.981224,365.714996 115.724915,377.494751 125.696548,387.759827 
	C143.936829,406.537048 165.867783,420.359772 190.329422,429.946411 
	C216.616837,440.248596 244.042023,444.006714 271.975281,441.794128 
	C301.142151,439.483795 328.788635,431.034882 353.406464,414.837006 
	C365.547546,406.848480 377.423645,398.078979 387.952087,388.112518 
	C401.477661,375.308929 412.137146,359.964294 420.876373,343.370331 
	C430.013702,326.020416 436.386353,307.732025 439.609894,288.441925 
	C442.798340,269.362061 442.999512,250.228210 440.302917,230.960159 
	C437.318726,209.637314 430.884186,189.565231 420.791779,170.647385 
	C413.026459,156.091568 403.597595,142.773010 392.303253,130.588882 
	C373.533569,110.340523 351.242096,95.481529 325.918884,85.050743 
	C310.532532,78.713005 294.468384,74.743271 277.850006,72.939804 
	C251.739182,70.106201 226.091614,72.317993 201.115799,80.244186 
	C178.576675,87.397079 158.055145,98.588470 139.429993,113.777679 
	C133.267441,107.625648 127.387772,101.321190 121.074982,94.552322 
	C126.627930,90.348518 132.469131,85.457413 138.764725,81.245483 
	C160.542358,66.675644 184.253235,56.636391 209.761597,50.395924 
	C231.887634,44.982929 254.387085,44.602150 276.609589,46.367489 
	C319.769318,49.796066 358.554260,65.774445 391.779938,93.698601 
	C424.925598,121.555519 448.184875,156.059631 460.333649,198.100616 
	C467.790497,223.905151 469.711975,250.131653 467.657135,276.409515 
	C465.079803,309.368683 454.991638,340.358704 436.981415,368.510376 
	C406.372192,416.355530 363.845123,447.896759 308.905853,462.405304 
	C287.291779,468.113220 265.138000,470.621857 242.873917,468.839996 
	C207.972824,466.046753 175.257507,455.839478 145.514053,436.950134 
	C102.179642,409.429504 71.983925,371.581299 55.694862,322.765350 
	C50.649841,307.646149 46.830143,292.276733 46.030891,276.310516 
	C45.474937,265.204498 44.338871,253.994171 45.265713,242.982269 
	C46.339966,230.218964 48.724430,217.462753 51.711823,204.983963 
	C59.197796,173.713898 74.096069,146.058685 94.704330,121.051872 
	C101.249672,127.011909 107.522766,133.180008 113.962509,139.638641 
z"/>
<path fill="#FFAF5D" opacity="1.000000" stroke="none" 
	d="
M202.853546,145.323608 
	C211.822067,142.230118 220.643616,139.392212 229.520813,136.740677 
	C230.988525,136.302292 232.799332,136.327744 234.279556,136.746674 
	C238.433624,137.922363 240.974991,141.150360 240.746246,145.186035 
	C240.516022,149.248169 238.065567,152.174515 233.635010,153.768936 
	C223.370178,157.462875 212.696579,160.691193 203.333603,166.092804 
	C177.324539,181.097778 160.881470,203.717560 154.039932,233.073074 
	C152.873383,238.078461 150.435211,241.758041 145.259186,242.695831 
	C139.400116,243.757370 134.588089,237.137619 136.451782,230.343277 
	C138.730667,222.035309 141.471359,213.854034 144.037674,205.210022 
	C144.963486,203.685593 145.928650,202.614746 146.754349,201.445450 
	C153.763580,191.519684 160.747406,181.576004 167.886627,171.340698 
	C178.301758,160.806091 190.048706,152.589066 202.853546,145.323608 
z"/>
<path fill="#C9E66E" opacity="1.000000" stroke="none" 
	d="
M311.958038,160.107727 
	C322.038788,162.614319 332.170624,164.942703 342.149200,167.805420 
	C343.785156,168.274734 346.004120,171.355835 345.712555,172.766724 
	C345.316101,174.685211 343.057465,176.979889 341.085968,177.686630 
	C329.524719,181.831192 317.812317,185.553436 306.155060,189.430756 
	C285.676880,196.242004 265.201782,203.062424 244.399490,209.557831 
	C244.668655,208.053467 245.150665,206.795670 245.875397,205.698151 
	C260.961884,182.851471 281.856781,168.336624 308.496063,162.027496 
	C309.732239,161.734741 310.807709,160.763168 311.958038,160.107727 
z"/>
<path fill="#AEDF6E" opacity="1.000000" stroke="none" 
	d="
M330.124878,373.142822 
	C328.104828,376.959442 327.267609,382.303589 321.422882,381.890320 
	C315.360504,381.461609 317.068817,375.871429 316.540955,372.472809 
	C315.249329,364.156769 314.831451,355.706665 314.011444,347.315430 
	C312.772949,334.641571 311.442657,321.976501 310.245331,309.298859 
	C309.420654,300.566864 308.829681,291.812744 307.997406,283.081573 
	C307.135864,274.043121 306.140686,265.016937 305.138031,255.992722 
	C304.773407,252.711121 304.537720,248.925476 308.120117,247.949265 
	C310.106903,247.407867 313.044495,249.387283 315.209076,250.769760 
	C316.974792,251.897491 318.229126,253.825867 319.848267,256.164703 
	C320.654724,265.344086 321.306854,273.759308 321.995392,282.171570 
	C323.007965,294.543121 323.976532,306.918854 325.090790,319.281372 
	C326.709473,337.240540 328.441284,355.189514 330.124878,373.142822 
z"/>
<path fill="#AEDF6E" opacity="1.000000" stroke="none" 
	d="
M243.029053,358.989044 
	C243.899704,359.475220 245.145996,359.744751 245.573715,360.486389 
	C247.132965,363.190002 248.418808,366.051270 249.807709,368.853119 
	C247.197556,369.902252 244.543381,371.955353 241.984161,371.843170 
	C219.728043,370.867340 199.900864,363.194061 182.646942,349.087769 
	C162.239197,332.402924 151.360138,310.371521 147.263855,284.737610 
	C146.944839,282.741241 148.170975,279.730011 149.719864,278.469208 
	C150.777191,277.608551 153.646805,278.974182 155.861084,280.054474 
	C157.360580,285.879456 158.291122,291.148254 160.124161,296.081696 
	C166.703613,313.789581 177.482071,328.626282 192.602463,339.920654 
	C207.493515,351.043701 224.019028,358.459045 243.029053,358.989044 
z"/>
<path fill="#C9E66E" opacity="1.000000" stroke="none" 
	d="
M242.873932,358.692230 
	C224.019028,358.459045 207.493515,351.043701 192.602463,339.920654 
	C177.482071,328.626282 166.703613,313.789581 160.124161,296.081696 
	C158.291122,291.148254 157.360580,285.879456 156.030792,280.347778 
	C165.610245,288.383423 175.246857,296.756073 184.724213,305.305267 
	C202.830185,321.638062 220.850357,338.066010 238.888397,354.473969 
	C240.237747,355.701355 241.445328,357.084595 242.873932,358.692230 
z"/>
<path fill="#C9E66E" opacity="1.000000" stroke="none" 
	d="
M330.399414,372.938385 
	C328.441284,355.189514 326.709473,337.240540 325.090790,319.281372 
	C323.976532,306.918854 323.007965,294.543121 321.995392,282.171570 
	C321.306854,273.759308 320.654724,265.344086 319.987732,256.468140 
	C330.771301,267.498840 337.998169,280.984955 341.927765,296.169647 
	C346.241760,312.839722 346.796600,329.742706 341.827454,346.272095 
	C339.087372,355.386627 334.453888,363.931976 330.399414,372.938385 
z"/>
<path fill="#AEDF6E" opacity="1.000000" stroke="none" 
	d="
M311.494568,160.075989 
	C310.807709,160.763168 309.732239,161.734741 308.496063,162.027496 
	C281.856781,168.336624 260.961884,182.851471 245.875397,205.698151 
	C245.150665,206.795670 244.668655,208.053467 244.022614,209.582153 
	C237.732224,212.185059 231.573074,214.724548 225.206635,216.535156 
	C223.186356,217.109726 219.764481,216.465698 218.551422,215.042923 
	C217.504166,213.814621 217.916489,210.218307 218.990585,208.473404 
	C235.211304,182.122223 258.396606,165.793289 289.188782,161.114105 
	C296.358185,160.024643 303.744537,160.362930 311.494568,160.075989 
z"/>
<path fill="#FF975A" opacity="1.000000" stroke="none" 
	d="
M333.831848,183.689941 
	C336.606934,183.190430 339.286896,182.271652 341.560944,182.877228 
	C347.975159,184.585327 354.244537,186.856125 360.528992,189.026688 
	C365.625488,190.786972 366.877502,193.401672 365.200165,198.668076 
	C363.182556,205.002884 360.970062,211.276154 358.993134,217.623169 
	C357.584595,222.145309 354.350250,223.944931 350.170044,222.738571 
	C342.998383,220.668884 336.002899,217.980133 328.960144,215.476089 
	C325.598022,214.280701 324.109467,211.527893 325.112061,208.337402 
	C327.688232,200.139343 330.708618,192.080841 333.831848,183.689941 
z"/>
<path fill="#FF965A" opacity="1.000000" stroke="none" 
	d="
M110.917046,312.104919 
	C98.701744,307.977570 98.204308,307.037689 102.089661,295.245178 
	C103.697495,290.365234 105.322304,285.483307 107.178688,280.695068 
	C108.842583,276.403259 112.045013,275.159943 116.426071,276.654266 
	C122.861580,278.849304 129.359558,280.862610 135.781876,283.094482 
	C140.580276,284.762085 141.872772,287.455780 140.304398,292.412048 
	C138.253052,298.894592 136.127060,305.355621 133.900620,311.779968 
	C132.309921,316.369904 129.562500,317.815765 125.050453,316.502899 
	C120.439285,315.161163 115.878922,313.644897 110.917046,312.104919 
z"/>
<path fill="#FF965A" opacity="1.000000" stroke="none" 
	d="
M280.474426,332.710510 
	C274.493195,326.907227 268.843384,321.272400 263.146820,315.685303 
	C260.607117,313.194397 259.997314,310.569733 262.633972,307.879272 
	C268.306458,302.091003 274.044128,296.365417 279.821075,290.681244 
	C282.491180,288.054047 285.111084,288.542694 287.631744,291.091980 
	C292.892242,296.412292 298.202332,301.683655 303.492676,306.974457 
	C306.538177,310.020203 306.480591,313.044586 303.451202,316.067993 
	C298.273071,321.235870 293.299377,326.636414 287.804474,331.441345 
	C286.238190,332.810974 283.167633,332.460266 280.474426,332.710510 
z"/>
<path fill="#FBE6A4" opacity="1.000000" stroke="none" 
	d="
M239.554932,234.119080 
	C237.392242,225.247803 243.666595,215.057236 253.801712,213.127640 
	C262.612915,211.450104 272.423401,217.716660 273.905762,225.563721 
	C275.946777,236.368011 270.891937,245.413605 261.148712,247.688095 
	C252.082306,249.804626 242.108795,244.543259 239.554932,234.119080 
z"/>
<path fill="#FBE6A4" opacity="1.000000" stroke="none" 
	d="
M193.345428,364.288391 
	C201.963593,369.234070 205.650238,376.864380 203.544235,384.797028 
	C201.471756,392.603394 194.773499,397.833679 186.797577,398.033142 
	C179.103989,398.225525 173.724167,394.609802 170.496262,387.899750 
	C167.595566,381.869843 168.246658,375.795197 172.170700,370.442261 
	C176.704285,364.257812 182.950287,361.792633 190.598083,363.403442 
	C191.408737,363.574158 192.188828,363.889954 193.345428,364.288391 
z"/>
<path fill="#FBE6A4" opacity="1.000000" stroke="none" 
	d="
M265.997925,116.783882 
	C266.160156,107.005981 270.315460,101.492630 279.239899,98.779694 
	C285.880310,96.761078 293.740814,99.739723 297.960297,105.873550 
	C302.438171,112.382988 302.221985,120.105606 297.141663,126.700104 
	C292.585693,132.613998 286.139465,134.290543 279.299744,132.750809 
	C271.361542,130.963791 267.034973,125.305939 265.997925,116.783882 
z"/>
<path fill="#FBE6A5" opacity="1.000000" stroke="none" 
	d="
M401.172333,260.309692 
	C403.783752,271.801971 400.266388,279.215881 391.316681,283.405914 
	C382.972412,287.312439 375.450195,283.030579 370.765106,277.095062 
	C365.404785,270.304016 366.003540,262.910858 371.250031,256.104095 
	C378.335968,246.910721 395.685638,247.355759 401.172333,260.309692 
z"/>
<path fill="#FBE5A4" opacity="1.000000" stroke="none" 
	d="
M374.040924,334.056213 
	C376.546997,325.493073 381.227478,323.396729 388.683258,327.416046 
	C392.603119,329.529205 396.516785,331.800903 399.986176,334.562653 
	C403.681641,337.504333 404.177490,342.350342 401.832489,345.641022 
	C398.817383,349.872009 394.852936,350.926453 390.122192,348.529663 
	C386.573364,346.731628 382.760101,345.150970 379.780853,342.627808 
	C377.318878,340.542847 375.905518,337.219757 374.040924,334.056213 
z"/>
<path fill="#FF975A" opacity="1.000000" stroke="none" 
	d="
M223.884384,275.646912 
	C222.430405,280.062469 220.428497,283.010376 215.416641,283.110870 
	C210.246368,283.214600 208.015579,280.028931 206.121841,276.189453 
	C204.800339,273.510162 203.612183,270.751678 202.564896,267.953552 
	C200.841156,263.348053 202.512009,258.735199 206.434555,256.812622 
	C210.498032,254.820969 215.877884,255.710190 217.860519,259.614197 
	C220.381485,264.578156 221.960663,270.020416 223.884384,275.646912 
z"/>
<path fill="#FBE5A4" opacity="1.000000" stroke="none" 
	d="
M279.228271,409.322662 
	C276.566284,410.382874 274.277924,411.370483 271.921814,412.154480 
	C267.032013,413.781525 262.868317,412.011383 260.795624,407.543091 
	C258.847931,403.344238 260.463684,398.480316 264.975067,396.150299 
	C268.350098,394.407166 271.927246,393.000702 275.520142,391.747498 
	C280.232544,390.103851 285.029053,391.884247 286.650452,395.580719 
	C288.603088,400.032440 286.642365,405.560516 282.270996,407.875336 
	C281.391388,408.341156 280.472198,408.732300 279.228271,409.322662 
z"/>
<path fill="#FF975A" opacity="1.000000" stroke="none" 
	d="
M420.745575,212.281281 
	C417.479980,218.050522 406.286377,222.929886 400.748840,220.496628 
	C398.329956,219.433762 395.461395,216.146606 395.395996,213.797241 
	C395.314270,210.860168 397.180634,206.879089 399.531433,205.111847 
	C402.545502,202.845963 406.797089,201.917496 410.661926,201.159866 
	C417.514282,199.816589 421.178070,203.885437 420.745575,212.281281 
z"/>
<path fill="#FF975A" opacity="1.000000" stroke="none" 
	d="
M110.964203,233.028427 
	C102.816040,237.128159 98.061874,236.046066 95.858612,229.315445 
	C95.185303,227.258560 95.303017,223.527191 96.595764,222.502899 
	C100.777214,219.189804 105.419510,216.118439 110.369286,214.215714 
	C114.840134,212.497070 118.268257,215.506500 120.257988,219.646805 
	C122.220665,223.730850 120.123611,226.748688 117.189171,229.219116 
	C115.441452,230.690475 113.280098,231.670502 110.964203,233.028427 
z"/>
<path fill="#FF975A" opacity="1.000000" stroke="none" 
	d="
M237.241180,413.182281 
	C233.403687,418.897156 227.825516,420.840942 223.717606,418.112122 
	C219.411057,415.251434 218.547485,409.387177 222.191437,403.893463 
	C224.049713,401.091858 226.457748,397.778351 229.334610,396.795166 
	C231.815567,395.947327 235.828857,397.353821 238.223419,399.073975 
	C240.922974,401.013245 241.845795,404.543518 239.996429,408.023529 
	C239.138840,409.637238 238.308197,411.265259 237.241180,413.182281 
z"/>
<path fill="#FF975A" opacity="1.000000" stroke="none" 
	d="
M349.561066,390.076050 
	C354.392792,389.346954 357.963501,390.757904 359.747375,394.946991 
	C361.580383,399.251526 360.445740,403.210510 356.558014,405.834351 
	C353.551544,407.863434 350.315033,409.873230 346.884033,410.862915 
	C343.318878,411.891357 340.032501,409.769684 339.102173,406.312958 
	C338.414856,403.759216 338.488678,400.039948 339.923615,398.093231 
	C342.276093,394.901764 346.009430,392.728119 349.561066,390.076050 
z"/>
<path fill="#FBE5A4" opacity="1.000000" stroke="none" 
	d="
M348.865875,139.384369 
	C342.436768,136.094086 340.440796,131.939941 342.583618,126.885826 
	C344.574951,122.189034 349.912964,120.482574 355.829346,123.035713 
	C358.494659,124.185898 361.731995,125.531784 363.088470,127.771049 
	C364.480743,130.069336 364.922180,134.021286 363.868195,136.403900 
	C362.919800,138.547821 359.538116,140.272232 356.938232,140.834900 
	C354.570038,141.347443 351.810242,140.050659 348.865875,139.384369 
z"/>
<path fill="#FBE5A4" opacity="1.000000" stroke="none" 
	d="
M188.424072,220.971008 
	C189.612549,228.744064 185.865234,234.936691 179.013458,237.166260 
	C173.850296,238.846375 168.517776,235.248993 168.036865,229.761337 
	C167.591766,224.682297 174.072144,216.605743 179.138885,216.051407 
	C183.107697,215.617188 186.366745,216.788940 188.424072,220.971008 
z"/>
<path fill="#FF975A" opacity="1.000000" stroke="none" 
	d="
M206.430328,112.991112 
	C202.931244,110.122383 198.987549,107.736382 197.056763,104.239098 
	C195.880310,102.108147 196.891403,97.517776 198.610901,95.414635 
	C200.133118,93.552773 204.684616,92.163208 206.673538,93.117828 
	C210.444199,94.927650 214.291306,98.007042 216.377335,101.571190 
	C219.710922,107.266846 214.666550,112.884254 206.430328,112.991112 
z"/>
</svg>