<svg version="1.1" id="Layer_1" xmlns="http://www.w3.org/2000/svg" xmlns:xlink="http://www.w3.org/1999/xlink" x="0px" y="0px"
	 width="100%" viewBox="0 0 512 512" xml:space="preserve">

<path fill="#555A6E" opacity="1.000000" stroke="none" 
	d="
M454.991791,150.016632 
	C459.252319,159.827469 463.801239,169.525146 467.705444,179.475784 
	C473.499847,194.243896 477.710999,209.553925 478.910553,225.379211 
	C480.174438,242.053085 481.652649,258.888580 480.666046,275.512695 
	C479.256104,299.268494 473.439911,322.324524 463.926086,344.318695 
	C454.433563,366.263763 442.011139,386.245941 426.296600,404.373779 
	C398.495300,436.444611 364.301300,458.697937 324.015533,471.232483 
	C309.975952,475.600739 295.169983,478.089630 280.522766,479.751678 
	C266.724457,481.317444 252.592194,481.771301 238.753601,480.741699 
	C215.201492,478.989441 192.219727,473.820709 170.471985,464.153198 
	C163.852432,461.210602 157.319077,458.074127 150.201416,454.729431 
	C149.067001,453.851440 148.550674,453.162384 147.876831,452.705811 
	C137.697464,445.808197 127.510063,438.922180 117.280769,432.099091 
	C116.356552,431.482605 115.130943,431.317993 113.754700,430.784363 
	C103.328133,420.402344 93.192162,410.179565 83.021317,399.601929 
	C82.070168,397.694702 81.235527,396.086823 80.223938,394.599243 
	C74.993347,386.907410 69.731735,379.236572 64.449425,371.580109 
	C62.679783,369.015106 60.817085,366.514343 58.996929,363.984192 
	C54.688362,354.058838 49.474495,344.414276 46.287750,334.140930 
	C41.740059,319.480225 38.169209,304.459808 35.176941,289.395233 
	C33.459896,280.750732 33.711025,271.715271 33.501652,262.496429 
	C43.863720,267.597015 48.784847,264.570251 49.040581,253.101379 
	C49.416599,236.237762 51.658447,219.610199 56.072876,203.310089 
	C66.711960,164.025696 87.184502,130.707336 117.204155,103.297226 
	C145.786530,77.199463 179.077621,60.142807 217.163483,53.131996 
	C229.865372,50.793850 242.895782,50.160938 255.801086,49.036301 
	C263.778076,48.341141 266.975098,43.010990 263.233429,35.942883 
	C262.768616,35.064869 262.362579,34.155746 261.929321,33.261040 
	C276.237976,32.146564 290.153778,34.828037 304.087128,37.513687 
	C324.954651,41.535881 344.388916,49.450226 363.799225,59.262562 
	C372.488708,64.993935 380.618347,70.449677 388.781006,75.855652 
	C392.476501,78.303108 396.237457,80.651718 400.258118,83.206360 
	C410.682892,93.588676 420.818268,103.809807 430.988953,114.386108 
	C431.937805,116.294456 432.768341,117.904053 433.778839,119.391365 
	C439.006348,127.085350 444.265930,134.757660 449.545166,142.416260 
	C451.313812,144.982056 453.173645,147.484970 454.991791,150.016632 
M325.053894,436.578583 
	C355.045929,424.805573 380.992188,407.297974 401.984344,382.649292 
	C438.404419,339.885406 453.831512,290.406555 447.595551,234.788391 
	C442.034119,185.186478 419.839447,143.621704 381.711578,111.288864 
	C336.542725,72.985199 284.141022,58.459492 225.717773,67.706940 
	C179.713104,74.988731 141.292191,96.858673 111.152428,132.406998 
	C75.120705,174.904602 60.033558,224.287582 66.433334,279.565063 
	C72.107925,328.578766 93.632988,370.056824 131.513184,401.859192 
	C188.877640,450.019562 253.586899,460.845062 325.053894,436.578583 
z"/>
<path fill="#6D778B" opacity="1.000000" stroke="none" 
	d="
M261.467773,33.206860 
	C262.362579,34.155746 262.768616,35.064869 263.233429,35.942883 
	C266.975098,43.010990 263.778076,48.341141 255.801086,49.036301 
	C242.895782,50.160938 229.865372,50.793850 217.163483,53.131996 
	C179.077621,60.142807 145.786530,77.199463 117.204155,103.297226 
	C87.184502,130.707336 66.711960,164.025696 56.072876,203.310089 
	C51.658447,219.610199 49.416599,236.237762 49.040581,253.101379 
	C48.784847,264.570251 43.863720,267.597015 33.594177,262.032715 
	C31.979616,239.655701 34.928196,217.926376 40.783180,196.417206 
	C48.981228,166.300430 63.184143,139.247101 82.691399,115.191078 
	C99.610222,94.327049 119.844475,76.935616 143.214920,63.327435 
	C163.938034,51.260746 185.933029,42.489662 209.321823,37.436558 
	C226.315262,33.765163 243.575287,32.130508 261.467773,33.206860 
z"/>
<path fill="#463C4B" opacity="1.000000" stroke="none" 
	d="
M58.695030,364.129028 
	C60.817085,366.514343 62.679783,369.015106 64.449425,371.580109 
	C69.731735,379.236572 74.993347,386.907410 80.223938,394.599243 
	C81.235527,396.086823 82.070168,397.694702 82.707077,399.480194 
	C78.862328,396.221161 75.336845,392.687042 71.721771,389.247070 
	C66.862724,384.623444 61.894691,385.394287 58.982738,391.338196 
	C54.151703,401.199371 54.070541,411.577423 60.742535,420.005188 
	C69.356270,430.885620 79.038559,441.124054 89.405838,450.352448 
	C98.911224,458.813660 110.620041,461.069794 122.673347,454.963684 
	C128.746155,451.887268 129.304092,447.070831 124.642723,442.143219 
	C121.110748,438.409515 117.577812,434.676727 114.045303,430.943542 
	C115.130943,431.317993 116.356552,431.482605 117.280769,432.099091 
	C127.510063,438.922180 137.697464,445.808197 147.876831,452.705811 
	C148.550674,453.162384 149.067001,453.851440 149.836166,454.718689 
	C131.546234,477.810730 102.782120,482.559723 79.920845,464.486420 
	C67.162178,454.399872 55.828808,441.905945 45.992516,428.881195 
	C33.850761,412.803589 37.312267,385.940033 51.267181,371.269836 
	C53.560070,368.859406 56.013763,366.601990 58.695030,364.129028 
z"/>
<path fill="#463C4B" opacity="1.000000" stroke="none" 
	d="
M455.295074,149.872955 
	C453.173645,147.484970 451.313812,144.982056 449.545166,142.416260 
	C444.265930,134.757660 439.006348,127.085350 433.778839,119.391365 
	C432.768341,117.904053 431.937805,116.294456 431.301758,114.510818 
	C435.142761,117.774590 438.668335,121.308540 442.279144,124.753159 
	C446.972809,129.230789 451.816833,128.678299 454.857635,122.987640 
	C459.976166,113.408783 460.040710,102.956413 453.714050,94.713806 
	C445.076080,83.460007 435.028534,73.086563 424.477356,63.563278 
	C415.134674,55.130753 403.566406,53.193520 391.634644,58.852856 
	C385.314331,61.850658 384.552979,66.782341 389.357971,71.854485 
	C392.893250,75.586273 396.431671,79.315056 399.968719,83.045181 
	C396.237457,80.651718 392.476501,78.303108 388.781006,75.855652 
	C380.618347,70.449677 372.488708,64.993935 364.164307,59.271774 
	C382.526733,36.204899 411.298645,31.457621 434.119141,49.511158 
	C446.872314,59.600296 458.189575,72.106331 468.021667,85.132652 
	C480.143219,101.192162 476.671265,128.087677 462.726135,142.737961 
	C460.432892,145.147125 457.978363,147.402725 455.295074,149.872955 
z"/>
<path fill="#493E4B" opacity="1.000000" stroke="none" 
	d="
M324.693481,436.722565 
	C253.586899,460.845062 188.877640,450.019562 131.513184,401.859192 
	C93.632988,370.056824 72.107925,328.578766 66.433334,279.565063 
	C60.033558,224.287582 75.120705,174.904602 111.152428,132.406998 
	C141.292191,96.858673 179.713104,74.988731 225.717773,67.706940 
	C284.141022,58.459492 336.542725,72.985199 381.711578,111.288864 
	C419.839447,143.621704 442.034119,185.186478 447.595551,234.788391 
	C453.831512,290.406555 438.404419,339.885406 401.984344,382.649292 
	C380.992188,407.297974 355.045929,424.805573 324.693481,436.722565 
M367.302826,114.711029 
	C366.901733,114.528847 366.216492,114.425659 366.140717,114.153053 
	C363.655945,105.214432 362.033447,104.092857 353.467316,105.497429 
	C351.377655,97.300148 349.231354,96.039146 339.755859,97.441711 
	C337.028412,89.606598 333.775848,88.152924 325.712646,91.165306 
	C322.247101,83.386261 319.235657,82.259453 310.888580,85.618500 
	C306.657501,78.200249 304.174713,77.542122 296.736542,81.041000 
	C293.635620,79.083038 291.238495,76.529510 288.543427,76.162277 
	C285.884766,75.800018 282.924622,77.650253 279.890900,78.593842 
	C275.188416,72.347008 272.212433,72.072304 265.179626,77.112717 
	C262.458862,75.647423 260.013062,73.240578 257.674988,73.341019 
	C254.605759,73.472870 251.621414,75.580536 249.337402,76.531624 
	C246.244736,75.605209 243.250473,73.786728 240.563461,74.162880 
	C237.883041,74.538101 235.510513,77.112694 233.568970,78.359558 
	C230.895279,77.505569 228.090500,75.626114 225.799149,76.121490 
	C222.790039,76.772034 220.185379,79.293373 217.067719,81.219666 
	C210.878220,77.269630 207.623856,78.143425 202.943085,85.632980 
	C195.062897,82.148422 192.056854,83.278519 188.139481,91.198257 
	C180.376053,88.083046 177.110779,89.566338 174.134003,97.560417 
	C165.128769,95.779884 162.813904,97.138504 160.419785,105.609352 
	C152.010254,103.937790 149.425278,105.759109 147.522171,114.696770 
	C139.606201,113.431473 137.528900,115.126633 135.283890,124.683662 
	C126.923088,124.762527 125.435295,126.265282 124.357353,135.720062 
	C115.930717,136.502548 113.467026,139.507599 114.660538,147.547592 
	C105.806282,149.346771 103.968758,151.957764 105.579437,160.451141 
	C97.196922,162.732590 95.846664,165.031158 97.341446,173.152969 
	C94.672195,175.534973 91.556641,177.143997 90.433853,179.646957 
	C89.313004,182.145538 90.187973,185.539444 90.187973,188.868484 
	C83.489540,191.481125 82.209244,194.977188 85.624153,203.010101 
	C78.143791,207.510010 77.457832,210.148102 81.644142,218.316635 
	C74.577148,222.879150 73.971352,226.519165 79.084404,233.697235 
	C72.322090,238.842453 72.023521,242.037338 76.917053,248.463684 
	C75.471581,251.731796 73.253235,254.506012 73.323151,257.221313 
	C73.392693,259.922394 75.761055,262.564301 77.208572,265.403137 
	C71.978119,271.319672 72.319801,274.556366 78.511490,280.107697 
	C77.552597,283.017609 75.645462,285.808350 76.120239,288.107178 
	C76.742554,291.120422 79.244347,293.745483 81.174438,296.927734 
	C77.274277,303.168701 78.180603,306.545197 85.631645,310.957886 
	C82.186852,319.091553 83.338295,322.145966 91.211655,325.759888 
	C88.118591,333.629211 89.193176,336.028168 97.682076,340.204742 
	C95.502731,348.289581 97.308937,351.349701 105.526108,353.494232 
	C104.029358,362.093018 105.861832,364.702667 114.602196,366.419556 
	C113.531120,374.531769 115.362160,376.763947 124.625526,378.638794 
	C124.840759,387.159485 126.362709,388.670288 134.733322,389.493744 
	C136.302612,392.654816 137.023743,396.109863 139.148972,397.820587 
	C141.240280,399.503998 144.755630,399.418304 147.859344,400.159790 
	C149.010651,407.907928 152.144592,410.067444 160.392380,408.359161 
	C162.881866,416.912323 165.156265,418.246094 174.113541,416.405518 
	C177.142273,424.422607 179.655609,425.574677 187.384888,423.337860 
	C190.016937,425.815674 191.883102,428.808746 194.451660,429.645355 
	C197.056519,430.493744 200.355164,429.212036 203.473969,428.848816 
	C207.120392,435.741852 210.384460,436.567230 218.222519,432.339752 
	C223.039963,439.450806 226.672485,440.045288 233.627762,434.860870 
	C238.893875,441.676941 242.172058,441.997711 249.308334,436.395111 
	C255.106628,442.575836 258.283569,442.590088 264.995331,436.465546 
	C271.422638,442.040070 274.741272,441.683289 280.621613,434.785614 
	C286.941254,440.099884 290.327301,439.564178 295.394318,433.200012 
	C298.919373,433.726471 302.178101,435.130463 304.772186,434.343567 
	C307.385681,433.550781 309.338898,430.581329 311.692108,428.466125 
	C318.664795,431.947052 322.270782,430.566833 325.708069,422.827637 
	C333.712921,425.826599 336.172577,424.720245 340.154358,416.329803 
	C348.248108,418.426544 350.381256,417.175262 353.863647,408.288025 
	C361.813263,410.176117 364.775970,408.079742 366.385406,399.427826 
	C374.592072,400.403717 376.925140,398.487061 378.593933,389.398254 
	C387.202820,389.070007 388.790527,387.475220 389.485718,379.228790 
	C392.602142,377.703491 396.066772,376.999786 397.794891,374.880219 
	C399.490723,372.800323 399.421082,369.280975 399.930481,367.194946 
	C402.715393,365.449554 406.093262,364.389221 407.584137,362.099976 
	C409.065094,359.825897 408.648010,356.315704 409.085907,353.185669 
	C416.694672,351.502350 418.315613,348.677551 416.355316,339.903656 
	C424.434509,336.816711 425.623260,334.238953 423.316956,326.599854 
	C425.775513,324.011688 428.788513,322.152618 429.636597,319.579926 
	C430.494202,316.978333 429.208038,313.670044 428.844757,310.531433 
	C435.775757,306.850464 436.627258,303.514771 432.332458,295.822479 
	C439.468262,290.868134 440.061951,287.204132 434.829041,280.414185 
	C441.683105,275.078247 442.022583,271.707123 436.406830,264.746979 
	C442.591888,258.765717 442.600922,255.568634 436.451141,249.060043 
	C442.040283,242.513931 441.673065,239.119751 434.759338,233.422012 
	C440.100708,227.035370 439.551178,223.522675 433.149292,218.593796 
	C433.697479,215.118896 435.132324,211.867401 434.361816,209.270157 
	C433.585480,206.653259 430.618347,204.686325 428.495697,202.305191 
	C431.916229,195.307312 430.542450,191.691223 422.868958,188.301254 
	C425.787750,180.158173 424.703430,177.761047 416.333740,173.853729 
	C418.414703,165.675308 417.152618,163.528946 408.279602,160.156601 
	C410.181915,152.207886 408.037140,149.164062 399.451630,147.628021 
	C400.371735,139.377213 398.389496,136.967194 389.420013,135.431488 
	C389.076721,126.771240 387.389587,125.088638 378.422516,124.463470 
	C377.330994,116.245728 375.006012,114.010574 367.302826,114.711029 
z"/>
<path fill="#000000" opacity="1.000000" stroke="none" 
	d="
M113.754707,430.784363 
	C117.577812,434.676727 121.110748,438.409515 124.642723,442.143219 
	C129.304092,447.070831 128.746155,451.887268 122.673347,454.963684 
	C110.620041,461.069794 98.911224,458.813660 89.405838,450.352448 
	C79.038559,441.124054 69.356270,430.885620 60.742535,420.005188 
	C54.070541,411.577423 54.151703,401.199371 58.982738,391.338196 
	C61.894691,385.394287 66.862724,384.623444 71.721771,389.247070 
	C75.336845,392.687042 78.862328,396.221161 82.741959,399.835022 
	C93.192162,410.179565 103.328133,420.402344 113.754707,430.784363 
z"/>
<path fill="#000000" opacity="1.000000" stroke="none" 
	d="
M400.258118,83.206367 
	C396.431671,79.315056 392.893250,75.586273 389.357971,71.854485 
	C384.552979,66.782341 385.314331,61.850658 391.634644,58.852856 
	C403.566406,53.193520 415.134674,55.130753 424.477356,63.563278 
	C435.028534,73.086563 445.076080,83.460007 453.714050,94.713806 
	C460.040710,102.956413 459.976166,113.408783 454.857635,122.987640 
	C451.816833,128.678299 446.972809,129.230789 442.279144,124.753159 
	C438.668335,121.308540 435.142761,117.774590 431.266479,114.155640 
	C420.818268,103.809807 410.682892,93.588676 400.258118,83.206367 
z"/>
<path fill="#F99F19" opacity="1.000000" stroke="none" 
	d="
M367.677490,114.602448 
	C375.006012,114.010574 377.330994,116.245728 378.422516,124.463470 
	C387.389587,125.088638 389.076721,126.771240 389.420013,135.431488 
	C398.389496,136.967194 400.371735,139.377213 399.451630,147.628021 
	C408.037140,149.164062 410.181915,152.207886 408.279602,160.156601 
	C417.152618,163.528946 418.414703,165.675308 416.333740,173.853729 
	C424.703430,177.761047 425.787750,180.158173 422.868958,188.301254 
	C430.542450,191.691223 431.916229,195.307312 428.495697,202.305191 
	C430.618347,204.686325 433.585480,206.653259 434.361816,209.270157 
	C435.132324,211.867401 433.697479,215.118896 433.149292,218.593796 
	C439.551178,223.522675 440.100708,227.035370 434.759338,233.422012 
	C441.673065,239.119751 442.040283,242.513931 436.451141,249.060043 
	C442.600922,255.568634 442.591888,258.765717 436.406830,264.746979 
	C442.022583,271.707123 441.683105,275.078247 434.829041,280.414185 
	C440.061951,287.204132 439.468262,290.868134 432.332458,295.822479 
	C436.627258,303.514771 435.775757,306.850464 428.844757,310.531433 
	C429.208038,313.670044 430.494202,316.978333 429.636597,319.579926 
	C428.788513,322.152618 425.775513,324.011688 423.316956,326.599854 
	C425.623260,334.238953 424.434509,336.816711 416.355316,339.903656 
	C418.315613,348.677551 416.694672,351.502350 409.085907,353.185669 
	C408.648010,356.315704 409.065094,359.825897 407.584137,362.099976 
	C406.093262,364.389221 402.715393,365.449554 399.930481,367.194946 
	C399.421082,369.280975 399.490723,372.800323 397.794891,374.880219 
	C396.066772,376.999786 392.602142,377.703491 389.485718,379.228790 
	C388.790527,387.475220 387.202820,389.070007 378.593933,389.398254 
	C376.925140,398.487061 374.592072,400.403717 366.385406,399.427826 
	C364.775970,408.079742 361.813263,410.176117 353.863647,408.288025 
	C350.381256,417.175262 348.248108,418.426544 340.154358,416.329803 
	C336.172577,424.720245 333.712921,425.826599 325.708069,422.827637 
	C322.270782,430.566833 318.664795,431.947052 311.692108,428.466125 
	C309.338898,430.581329 307.385681,433.550781 304.772186,434.343567 
	C302.178101,435.130463 298.919373,433.726471 295.394318,433.200012 
	C290.327301,439.564178 286.941254,440.099884 280.621613,434.785614 
	C274.741272,441.683289 271.422638,442.040070 264.995331,436.465546 
	C258.283569,442.590088 255.106628,442.575836 249.308334,436.395111 
	C242.172058,441.997711 238.893875,441.676941 233.627762,434.860870 
	C226.672485,440.045288 223.039963,439.450806 218.222519,432.339752 
	C210.384460,436.567230 207.120392,435.741852 203.473969,428.848816 
	C200.355164,429.212036 197.056519,430.493744 194.451660,429.645355 
	C191.883102,428.808746 190.016937,425.815674 187.384888,423.337860 
	C179.655609,425.574677 177.142273,424.422607 174.113541,416.405518 
	C165.156265,418.246094 162.881866,416.912323 160.392380,408.359161 
	C152.144592,410.067444 149.010651,407.907928 147.859344,400.159790 
	C144.755630,399.418304 141.240280,399.503998 139.148972,397.820587 
	C137.023743,396.109863 136.302612,392.654816 134.733322,389.493744 
	C126.362709,388.670288 124.840759,387.159485 124.625526,378.638794 
	C115.362160,376.763947 113.531120,374.531769 114.602196,366.419556 
	C105.861832,364.702667 104.029358,362.093018 105.526108,353.494232 
	C97.308937,351.349701 95.502731,348.289581 97.682076,340.204742 
	C89.193176,336.028168 88.118591,333.629211 91.211655,325.759888 
	C83.338295,322.145966 82.186852,319.091553 85.631645,310.957886 
	C78.180603,306.545197 77.274277,303.168701 81.174438,296.927734 
	C79.244347,293.745483 76.742554,291.120422 76.120239,288.107178 
	C75.645462,285.808350 77.552597,283.017609 78.511490,280.107697 
	C72.319801,274.556366 71.978119,271.319672 77.208572,265.403137 
	C75.761055,262.564301 73.392693,259.922394 73.323151,257.221313 
	C73.253235,254.506012 75.471581,251.731796 76.917053,248.463684 
	C72.023521,242.037338 72.322090,238.842453 79.084404,233.697235 
	C73.971352,226.519165 74.577148,222.879150 81.644142,218.316635 
	C77.457832,210.148102 78.143791,207.510010 85.624153,203.010101 
	C82.209244,194.977188 83.489540,191.481125 90.187973,188.868484 
	C90.187973,185.539444 89.313004,182.145538 90.433853,179.646957 
	C91.556641,177.143997 94.672195,175.534973 97.341446,173.152969 
	C95.846664,165.031158 97.196922,162.732590 105.579437,160.451141 
	C103.968758,151.957764 105.806282,149.346771 114.660538,147.547592 
	C113.467026,139.507599 115.930717,136.502548 124.357353,135.720062 
	C125.435295,126.265282 126.923088,124.762527 135.283890,124.683662 
	C137.528900,115.126633 139.606201,113.431473 147.522171,114.696770 
	C149.425278,105.759109 152.010254,103.937790 160.419785,105.609352 
	C162.813904,97.138504 165.128769,95.779884 174.134003,97.560417 
	C177.110779,89.566338 180.376053,88.083046 188.139481,91.198257 
	C192.056854,83.278519 195.062897,82.148422 202.943085,85.632980 
	C207.623856,78.143425 210.878220,77.269630 217.067719,81.219666 
	C220.185379,79.293373 222.790039,76.772034 225.799149,76.121490 
	C228.090500,75.626114 230.895279,77.505569 233.568970,78.359558 
	C235.510513,77.112694 237.883041,74.538101 240.563461,74.162880 
	C243.250473,73.786728 246.244736,75.605209 249.337402,76.531624 
	C251.621414,75.580536 254.605759,73.472870 257.674988,73.341019 
	C260.013062,73.240578 262.458862,75.647423 265.179626,77.112717 
	C272.212433,72.072304 275.188416,72.347008 279.890900,78.593842 
	C282.924622,77.650253 285.884766,75.800018 288.543427,76.162277 
	C291.238495,76.529510 293.635620,79.083038 296.736542,81.041000 
	C304.174713,77.542122 306.657501,78.200249 310.888580,85.618500 
	C319.235657,82.259453 322.247101,83.386261 325.712646,91.165306 
	C333.775848,88.152924 337.028412,89.606598 339.755859,97.441711 
	C349.231354,96.039146 351.377655,97.300148 353.467316,105.497429 
	C362.033447,104.092857 363.655945,105.214432 366.140717,114.153053 
	C366.216492,114.425659 366.901733,114.528847 367.677490,114.602448 
M223.844467,318.075104 
	C223.844467,318.075104 223.693375,317.922333 224.577438,317.966919 
	C232.691803,315.630737 240.884308,313.520050 248.851532,310.759247 
	C250.360764,310.236267 251.594391,307.224487 251.892548,305.204224 
	C252.965607,297.933136 257.845093,295.457642 264.404327,298.844391 
	C265.961151,299.648254 268.888489,299.874207 270.082092,298.946472 
	C275.312073,294.881348 280.136780,290.294800 285.675690,286.307831 
	C291.002014,291.457886 297.328827,288.026733 299.046967,283.683868 
	C300.659973,279.606842 298.475952,276.779572 296.455292,273.514709 
	C299.957062,268.063873 303.458832,262.613037 307.891785,257.067596 
	C309.723267,257.043732 311.554657,257.012207 313.386200,256.997040 
	C360.124725,256.610626 394.085266,212.853729 382.843781,167.501877 
	C375.792114,139.053085 349.816254,115.842804 322.179871,113.672302 
	C318.421753,113.502975 314.663666,113.333649 309.990723,113.084908 
	C300.656982,113.003319 291.323242,112.921730 281.596344,112.320427 
	C277.254242,108.805313 272.912170,105.290199 269.044739,101.246857 
	C272.119598,98.950607 274.158844,95.772484 272.444275,92.229469 
	C271.301025,89.867020 268.635773,87.536385 266.142822,86.689590 
	C261.933594,85.259827 258.669891,88.273415 256.114929,93.984299 
	C248.809784,91.196030 241.652466,87.864998 234.144852,85.820137 
	C229.535522,84.564690 224.178482,84.279442 219.518875,85.266273 
	C184.279510,92.729385 154.421158,109.891380 129.492737,135.902374 
	C106.636833,159.750854 92.046120,187.866425 84.906006,219.994370 
	C82.770767,229.602188 86.091812,237.982758 90.465279,246.797424 
	C90.031746,250.199524 89.598221,253.601624 89.053368,257.843994 
	C89.596313,269.341278 94.639122,278.355804 104.498131,284.253448 
	C111.025391,288.158051 118.061272,290.763428 125.875877,288.412292 
	C125.556519,295.180939 127.537460,297.725922 134.756729,300.723389 
	C128.677734,315.468811 127.315186,330.591766 131.067200,346.141449 
	C137.949753,374.665161 164.149796,398.209290 191.805084,400.311859 
	C195.569595,400.486450 199.334106,400.661011 204.012497,400.914703 
	C223.444611,400.886993 242.876724,400.859253 263.076324,400.877808 
	C264.614441,400.860413 266.152527,400.843018 268.663361,400.912903 
	C278.949402,400.941376 289.235474,400.984161 299.521515,400.992584 
	C305.161865,400.997223 310.825623,401.217163 316.427429,400.738556 
	C317.967224,400.606995 319.321930,398.309265 320.761597,397.005554 
	C319.329681,395.697540 318.082458,393.672607 316.423645,393.245209 
	C313.761902,392.559357 310.827759,392.930786 307.439087,392.507782 
	C305.310211,391.357269 303.181366,390.206757 301.821716,388.930878 
	C308.519714,387.833496 314.679749,385.457306 319.141083,380.183685 
	C320.170502,378.966858 319.648895,376.437927 319.841034,374.512787 
	C317.914368,374.465851 315.230103,373.575012 314.186554,374.511841 
	C308.343018,379.757751 301.590424,381.501160 293.720703,380.338898 
	C293.490631,378.917725 293.260559,377.496582 293.787506,375.996460 
	C298.182434,373.530884 302.788055,371.355591 306.838562,368.415558 
	C307.990906,367.579102 307.528351,364.517883 307.806366,362.476929 
	C305.757324,362.555603 303.486969,362.092133 301.703156,362.820465 
	C297.347809,364.598755 293.217621,366.928619 288.479828,368.612305 
	C287.777191,367.687958 287.028503,366.794769 286.378754,365.834625 
	C275.302887,349.466858 260.024445,339.384827 240.350433,337.720886 
	C225.662476,336.478638 210.812119,337.156555 195.296082,336.862762 
	C184.998901,333.703979 176.226486,328.674500 172.926498,317.984039 
	C186.456863,320.399689 200.029907,322.109161 214.518280,320.640320 
	C217.268265,320.063293 220.018234,319.486298 223.199646,318.609009 
	C223.469589,318.385162 223.739548,318.161346 223.844467,318.075104 
M392.258575,225.088196 
	C386.831482,226.051224 384.954132,229.587769 384.977020,234.753479 
	C385.042725,249.582291 384.962677,264.411682 385.016357,279.240601 
	C385.042236,286.382782 388.591766,289.498047 395.761322,288.897827 
	C412.233673,287.518707 424.955872,273.563141 424.959503,256.150177 
	C424.836426,238.757919 409.975861,224.357712 392.258575,225.088196 
M305.092773,313.740601 
	C306.056183,319.169525 309.602814,321.043030 314.761200,321.021667 
	C329.589600,320.960205 344.418518,321.037872 359.246948,320.983246 
	C366.209412,320.957581 369.336517,317.556061 368.926971,310.721436 
	C367.934479,294.157562 353.733093,281.008087 336.150024,281.039886 
	C318.774292,281.141418 304.332672,296.047882 305.092773,313.740601 
M254.685501,412.332672 
	C248.516586,411.381683 244.706100,413.404785 243.976135,418.171906 
	C243.347977,422.274292 244.885727,425.370056 248.799011,427.002319 
	C252.482651,428.538788 256.892761,426.988739 258.595764,423.404938 
	C260.696564,418.984070 259.543701,415.345276 254.685501,412.332672 
M347.541779,366.051117 
	C351.535736,366.000641 354.697601,364.086304 355.049225,360.220245 
	C355.283142,357.647888 354.205170,353.960571 352.350433,352.473175 
	C350.487396,350.979126 346.255585,350.440765 344.302429,351.590698 
	C342.129608,352.869965 340.420746,356.452026 340.199402,359.169189 
	C339.883118,363.051788 342.810791,365.376617 347.541779,366.051117 
M397.410522,316.500732 
	C398.895569,312.668457 398.602234,308.747437 394.933685,306.853394 
	C392.543976,305.619629 388.543243,305.368378 386.315033,306.591431 
	C384.292542,307.701569 382.502686,311.548828 382.797089,313.917603 
	C383.092804,316.296967 385.675476,319.128418 387.998169,320.346985 
	C391.479309,322.173279 394.732330,320.372192 397.410522,316.500732 
M102.897583,315.521118 
	C104.828697,319.579956 107.877754,321.691315 112.446487,320.531403 
	C116.526604,319.495483 118.764000,315.513580 117.928238,311.276978 
	C117.173935,307.453278 113.404449,304.705566 109.539642,305.162201 
	C105.013374,305.696991 102.430016,309.327332 102.897583,315.521118 
M396.055420,196.886505 
	C396.135406,202.392242 398.253723,205.398285 402.466125,205.983810 
	C406.593719,206.557571 410.150574,204.260162 411.242645,200.315002 
	C412.294983,196.513382 410.233612,192.499908 406.469086,191.021027 
	C402.280914,189.375717 398.746857,191.127563 396.055420,196.886505 
z"/>
<path fill="#FFBE28" opacity="1.000000" stroke="none" 
	d="
M268.570068,101.775085 
	C272.912170,105.290199 277.254242,108.805313 281.326813,112.623428 
	C271.279266,113.008980 261.501251,113.091537 251.334457,113.145416 
	C249.386307,113.134796 247.826950,113.152855 245.784271,113.122437 
	C235.009033,113.049591 224.717117,113.012085 214.425171,113.006088 
	C208.781586,113.002800 203.114670,112.779755 197.509644,113.257835 
	C195.982193,113.388123 194.640900,115.700768 193.214172,117.011856 
	C194.644180,118.316154 195.890900,120.338699 197.545959,120.761024 
	C200.211212,121.441109 203.145874,121.065445 206.248062,121.320206 
	C208.669464,122.653923 210.809525,123.803238 212.563568,125.008499 
	C205.457275,126.159920 199.286209,128.554855 194.816086,133.846680 
	C193.788696,135.062958 194.318604,137.594727 194.131836,139.521103 
	C196.061630,139.573471 198.775589,140.475540 199.791656,139.537827 
	C205.607437,134.170517 212.393295,132.496277 220.142136,133.337189 
	C220.511612,135.090790 220.731125,136.510437 220.572281,137.958771 
	C215.790375,140.469803 211.176270,142.663025 207.117447,145.618774 
	C205.968582,146.455414 206.441605,149.519257 206.170776,151.561646 
	C208.222778,151.483902 210.500076,151.953491 212.282135,151.219971 
	C216.641891,149.425308 220.772858,147.074799 225.259155,145.160049 
	C237.356323,163.642151 253.775192,174.924805 275.686310,176.663681 
	C287.264404,177.582535 298.967377,176.877426 310.611969,177.045242 
	C313.398315,177.085373 316.176666,177.683060 318.992615,178.442841 
	C319.682800,185.133835 320.361053,191.404099 320.986176,197.679672 
	C321.307800,200.908737 320.348999,203.162262 317.184723,204.963470 
	C312.559601,207.596329 311.502167,212.943878 315.238892,216.319702 
	C319.576080,220.238007 319.178253,224.321945 317.752319,228.962463 
	C316.533356,232.929337 315.249420,236.876236 313.683105,240.650436 
	C310.174896,228.288284 305.572876,224.991730 292.124146,224.967789 
	C287.739960,224.959976 283.678711,225.345123 281.710632,230.035965 
	C279.814514,234.555237 282.169983,237.672043 285.342010,240.484619 
	C285.517426,240.640137 285.428040,241.094299 285.469910,241.484329 
	C282.221039,244.162857 279.847504,247.285538 281.657349,251.813828 
	C283.538025,256.519409 287.552338,257.103180 291.974823,257.032104 
	C296.968109,256.951813 301.965149,257.108521 306.960571,257.162170 
	C303.458832,262.613037 299.957062,268.063873 295.854980,273.675354 
	C291.689148,272.435883 288.418091,272.863281 285.818726,275.770905 
	C283.030334,278.889923 283.533966,282.392731 285.108490,285.897400 
	C280.136780,290.294800 275.312073,294.881348 270.082092,298.946472 
	C268.888489,299.874207 265.961151,299.648254 264.404327,298.844391 
	C257.845093,295.457642 252.965607,297.933136 251.892548,305.204224 
	C251.594391,307.224487 250.360764,310.236267 248.851532,310.759247 
	C240.884308,313.520050 232.691803,315.630737 224.247009,317.563171 
	C225.742889,311.438385 224.331589,307.417206 219.865860,305.617737 
	C215.823090,303.988678 211.294724,305.870331 209.686554,310.032166 
	C207.886078,314.691620 209.889114,317.984619 213.806259,320.454498 
	C200.029907,322.109161 186.456863,320.399689 172.299850,317.661987 
	C161.804794,295.002625 180.935440,271.847137 200.636414,273.622528 
	C201.967407,280.475922 205.156921,286.250061 212.442917,288.123718 
	C216.070709,289.056671 220.016052,288.822632 223.823410,288.970581 
	C227.647995,289.119202 230.690781,287.678894 232.258621,283.992340 
	C233.849884,280.250732 232.591400,277.201599 229.739273,274.595428 
	C229.177444,274.082062 228.748123,273.423706 228.210617,272.775391 
	C231.540237,269.994873 234.425720,266.818176 232.353683,262.786377 
	C231.107178,260.360931 227.907074,257.359406 225.562973,257.340546 
	C212.608231,257.236206 199.388611,256.503357 186.742737,258.729431 
	C162.452972,263.005219 145.572052,277.939728 134.908188,300.016357 
	C127.537460,297.725922 125.556519,295.180939 126.056839,287.729736 
	C127.158600,284.647247 128.838257,282.259430 128.876663,279.845520 
	C129.119766,264.560089 129.053406,249.268646 128.970917,233.979813 
	C128.940903,228.417297 126.734833,226.147751 120.586128,225.104172 
	C105.666222,225.534622 96.244957,233.133789 90.656967,246.101562 
	C86.091812,237.982758 82.770767,229.602188 84.906006,219.994370 
	C92.046120,187.866425 106.636833,159.750854 129.492737,135.902374 
	C154.421158,109.891380 184.279510,92.729385 219.518875,85.266273 
	C224.178482,84.279442 229.535522,84.564690 234.144852,85.820137 
	C241.652466,87.864998 248.809784,91.196030 256.548615,94.404961 
	C258.984100,101.375282 261.127045,102.660461 268.570068,101.775085 
M177.848618,224.952408 
	C193.172684,224.057571 204.973862,214.297516 208.167694,199.877274 
	C210.588669,188.946518 207.953705,185.407852 197.168716,184.087738 
	C198.664062,177.292038 196.870560,172.677277 191.922760,172.390610 
	C189.317566,172.239655 185.958527,173.424026 184.076614,175.205978 
	C181.263992,177.869186 181.988403,181.579590 183.046707,184.963120 
	C173.318161,184.975647 163.588852,184.918915 153.861389,185.027756 
	C148.396591,185.088913 146.104980,187.321167 145.038528,193.843246 
	C145.109375,211.196136 159.987534,225.620071 177.848618,224.952408 
M257.357849,186.916260 
	C259.749451,191.964844 263.166138,193.849747 267.447052,192.482224 
	C271.417664,191.213837 273.672241,187.062988 272.610992,182.975128 
	C271.607635,179.110275 267.872955,176.516815 263.902924,177.241104 
	C259.038757,178.128510 256.907562,181.280884 257.357849,186.916260 
M218.112930,243.517883 
	C222.838028,242.359573 225.420319,239.384277 224.787613,234.500717 
	C224.288315,230.646698 221.769684,228.269241 217.747910,227.882095 
	C213.471054,227.470352 209.788208,230.332214 209.131180,234.485870 
	C208.391434,239.162369 211.437332,242.540604 218.112930,243.517883 
M130.185501,207.910492 
	C134.292694,205.156128 135.394974,201.389999 133.106781,197.109665 
	C131.152603,193.454132 127.758400,192.197418 123.735161,193.542694 
	C119.686760,194.896408 117.571419,199.137909 118.753654,203.160995 
	C120.102028,207.749435 123.874313,209.537567 130.185501,207.910492 
M238.643936,213.756790 
	C240.223145,217.403137 242.804382,220.295013 246.918732,219.402664 
	C249.296692,218.886917 252.367859,216.784561 253.089966,214.693008 
	C253.894730,212.362061 253.297775,208.269562 251.644653,206.708786 
	C249.805313,204.972229 245.909027,204.307587 243.230560,204.829758 
	C239.352570,205.585815 238.144897,209.165298 238.643936,213.756790 
M138.721298,155.929321 
	C134.592804,156.625427 131.663177,159.101700 132.131393,163.197220 
	C132.437439,165.874268 134.334641,169.347183 136.552856,170.537933 
	C138.553238,171.611740 142.720978,170.962662 144.531830,169.424271 
	C146.344971,167.883942 147.307724,164.214722 147.054779,161.634369 
	C146.674500,157.755463 143.475128,155.951035 138.721298,155.929321 
M153.241348,242.744583 
	C154.086700,249.755280 159.544342,253.920471 164.091431,250.538345 
	C166.373795,248.840729 168.255219,245.276321 168.444504,242.431488 
	C168.676453,238.945602 165.856537,236.460541 161.981445,236.095932 
	C157.495331,235.673813 154.677826,237.741470 153.241348,242.744583 
z"/>
<path fill="#F04B37" opacity="1.000000" stroke="none" 
	d="
M220.950653,137.930084 
	C220.731125,136.510437 220.511612,135.090790 219.996948,133.025452 
	C217.451050,129.904022 215.200317,127.428284 212.949585,124.952553 
	C210.809525,123.803238 208.669464,122.653923 206.718781,121.301758 
	C218.214737,121.064911 229.521332,121.030914 240.907166,121.359268 
	C241.903214,126.150330 244.497574,128.976898 249.117065,128.895447 
	C254.021561,128.808960 256.392517,125.581467 257.629456,120.999908 
	C274.310638,120.994247 290.534424,121.061775 306.756866,120.943932 
	C312.786224,120.900124 314.057251,118.304123 310.905548,113.164322 
	C314.663666,113.333649 318.421753,113.502975 322.827637,114.041504 
	C324.913574,115.231186 326.321503,116.110779 327.794617,116.862785 
	C339.333771,122.753487 344.838623,132.674072 344.797028,145.115463 
	C344.755463,157.561478 339.136078,167.396637 327.595581,173.258011 
	C324.978577,174.587158 322.532074,176.252014 319.745239,177.828674 
	C319.308441,177.938110 319.133575,177.981201 318.958679,178.024307 
	C316.176666,177.683060 313.398315,177.085373 310.611969,177.045242 
	C298.967377,176.877426 287.264404,177.582535 275.686310,176.663681 
	C253.775192,174.924805 237.356323,163.642151 225.174561,144.822906 
	C223.534698,142.159180 222.242676,140.044632 220.950653,137.930084 
z"/>
<path fill="#F04B37" opacity="1.000000" stroke="none" 
	d="
M196.034088,336.979431 
	C210.812119,337.156555 225.662476,336.478638 240.350433,337.720886 
	C260.024445,339.384827 275.302887,349.466858 286.378754,365.834625 
	C287.028503,366.794769 287.777191,367.687958 288.823730,369.161926 
	C290.455231,371.832855 291.742859,373.954132 293.030487,376.075409 
	C293.260559,377.496582 293.490631,378.917725 294.011505,380.983795 
	C296.552368,384.104553 298.802429,386.580414 301.052521,389.056244 
	C303.181366,390.206757 305.310211,391.357269 307.255859,392.709961 
	C295.772461,392.941498 284.472321,392.970825 273.092163,392.638245 
	C272.087921,387.851532 269.503906,385.013916 264.874664,385.097412 
	C259.963898,385.185913 257.589355,388.405273 256.368225,392.999817 
	C239.684097,393.005493 223.457184,392.937927 207.231628,393.055847 
	C201.203369,393.099640 199.929703,395.709930 203.098618,400.835602 
	C199.334106,400.661011 195.569595,400.486450 191.158142,399.943756 
	C189.065292,398.752625 187.639832,397.890991 186.170334,397.112488 
	C170.587311,388.856964 164.890594,370.536865 172.510651,354.732025 
	C177.398453,344.594147 186.084518,340.096527 196.034088,336.979431 
z"/>
<path fill="#E1332D" opacity="1.000000" stroke="none" 
	d="
M195.665085,336.921082 
	C186.084518,340.096527 177.398453,344.594147 172.510651,354.732025 
	C164.890594,370.536865 170.587311,388.856964 186.170334,397.112488 
	C187.639832,397.890991 189.065292,398.752625 190.777863,399.793640 
	C164.149796,398.209290 137.949753,374.665161 131.067200,346.141449 
	C127.315186,330.591766 128.677734,315.468811 134.832458,300.369873 
	C145.572052,277.939728 162.452972,263.005219 186.742737,258.729431 
	C199.388611,256.503357 212.608231,257.236206 225.562973,257.340546 
	C227.907074,257.359406 231.107178,260.360931 232.353683,262.786377 
	C234.425720,266.818176 231.540237,269.994873 228.210617,272.775391 
	C228.748123,273.423706 229.177444,274.082062 229.739273,274.595428 
	C232.591400,277.201599 233.849884,280.250732 232.258621,283.992340 
	C230.690781,287.678894 227.647995,289.119202 223.823410,288.970581 
	C220.016052,288.822632 216.070709,289.056671 212.442917,288.123718 
	C205.156921,286.250061 201.967407,280.475922 200.636414,273.622528 
	C180.935440,271.847137 161.804794,295.002625 171.883804,317.645874 
	C176.226486,328.674500 184.998901,333.703979 195.665085,336.921082 
z"/>
<path fill="#E1332D" opacity="1.000000" stroke="none" 
	d="
M320.007111,177.762329 
	C322.532074,176.252014 324.978577,174.587158 327.595581,173.258011 
	C339.136078,167.396637 344.755463,157.561478 344.797028,145.115463 
	C344.838623,132.674072 339.333771,122.753487 327.794617,116.862785 
	C326.321503,116.110779 324.913574,115.231186 323.206390,114.192108 
	C349.816254,115.842804 375.792114,139.053085 382.843781,167.501877 
	C394.085266,212.853729 360.124725,256.610626 313.386200,256.997040 
	C311.554657,257.012207 309.723267,257.043732 307.426178,257.114868 
	C301.965149,257.108521 296.968109,256.951813 291.974823,257.032104 
	C287.552338,257.103180 283.538025,256.519409 281.657349,251.813828 
	C279.847504,247.285538 282.221039,244.162857 285.469910,241.484329 
	C285.428040,241.094299 285.517426,240.640137 285.342010,240.484619 
	C282.169983,237.672043 279.814514,234.555237 281.710632,230.035965 
	C283.678711,225.345123 287.739960,224.959976 292.124146,224.967789 
	C305.572876,224.991730 310.174896,228.288284 314.090332,240.677643 
	C331.568359,239.182175 343.496429,227.572815 344.884216,211.614410 
	C346.246124,195.953796 336.426361,182.591354 320.007111,177.762329 
z"/>
<path fill="#483D4B" opacity="1.000000" stroke="none" 
	d="
M337.005463,281.164398 
	C353.733093,281.008087 367.934479,294.157562 368.926971,310.721436 
	C369.336517,317.556061 366.209412,320.957581 359.246948,320.983246 
	C344.418518,321.037872 329.589600,320.960205 314.761200,321.021667 
	C309.602814,321.043030 306.056183,319.169525 305.592590,313.372955 
	C311.073273,312.992096 316.059601,313.123138 321.033844,312.934479 
	C330.308868,312.582733 336.568756,306.361969 336.928802,297.101868 
	C337.135071,291.796417 336.991516,286.477325 337.005463,281.164398 
z"/>
<path fill="#473D4B" opacity="1.000000" stroke="none" 
	d="
M424.835083,257.005341 
	C424.955872,273.563141 412.233673,287.518707 395.761322,288.897827 
	C388.591766,289.498047 385.042236,286.382782 385.016357,279.240601 
	C384.962677,264.411682 385.042725,249.582291 384.977020,234.753479 
	C384.954132,229.587769 386.831482,226.051224 392.626709,225.587585 
	C393.007904,231.068344 392.877350,236.055145 393.065063,241.029922 
	C393.415314,250.313889 399.635010,256.574310 408.896027,256.929779 
	C414.202179,257.133423 419.521637,256.991608 424.835083,257.005341 
z"/>
<path fill="#483D4B" opacity="1.000000" stroke="none" 
	d="
M121.014023,225.171158 
	C126.734833,226.147751 128.940903,228.417297 128.970917,233.979813 
	C129.053406,249.268646 129.119766,264.560089 128.876663,279.845520 
	C128.838257,282.259430 127.158600,284.647247 126.040977,287.333069 
	C118.061272,290.763428 111.025391,288.158051 104.498131,284.253448 
	C94.639122,278.355804 89.596313,269.341278 89.566925,257.422668 
	C94.895660,256.992920 99.713776,257.089203 104.525406,256.954193 
	C114.369385,256.678009 120.658836,250.429642 120.949295,240.612183 
	C121.101463,235.469040 121.000610,230.318405 121.014023,225.171158 
z"/>
<path fill="#565A6D" opacity="1.000000" stroke="none" 
	d="
M424.897278,256.577759 
	C419.521637,256.991608 414.202179,257.133423 408.896027,256.929779 
	C399.635010,256.574310 393.415314,250.313889 393.065063,241.029922 
	C392.877350,236.055145 393.007904,231.068344 392.992981,225.629547 
	C409.975861,224.357712 424.836426,238.757919 424.897278,256.577759 
z"/>
<path fill="#565A6D" opacity="1.000000" stroke="none" 
	d="
M336.577759,281.102142 
	C336.991516,286.477325 337.135071,291.796417 336.928802,297.101868 
	C336.568756,306.361969 330.308868,312.582733 321.033844,312.934479 
	C316.059601,313.123138 311.073273,312.992096 305.635345,313.006958 
	C304.332672,296.047882 318.774292,281.141418 336.577759,281.102142 
z"/>
<path fill="#565A6D" opacity="1.000000" stroke="none" 
	d="
M120.586128,225.104172 
	C121.000610,230.318405 121.101463,235.469040 120.949295,240.612183 
	C120.658836,250.429642 114.369385,256.678009 104.525406,256.954193 
	C99.713776,257.089203 94.895660,256.992920 89.622589,257.002533 
	C89.598221,253.601624 90.031746,250.199524 90.561127,246.449493 
	C96.244957,233.133789 105.666222,225.534622 120.586128,225.104172 
z"/>
<path fill="#F5826E" opacity="1.000000" stroke="none" 
	d="
M203.555557,400.875153 
	C199.929703,395.709930 201.203369,393.099640 207.231628,393.055847 
	C223.457184,392.937927 239.684097,393.005493 256.447937,393.357513 
	C258.759888,396.087585 260.534363,398.459534 262.308838,400.831512 
	C242.876724,400.859253 223.444611,400.886993 203.555557,400.875153 
z"/>
<path fill="#F5826E" opacity="1.000000" stroke="none" 
	d="
M310.448120,113.124619 
	C314.057251,118.304123 312.786224,120.900124 306.756866,120.943932 
	C290.534424,121.061775 274.310638,120.994247 257.548920,120.642761 
	C255.248047,117.914848 253.485641,115.544472 251.723236,113.174095 
	C261.501251,113.091537 271.279266,113.008980 281.523376,112.883286 
	C291.323242,112.921730 300.656982,113.003319 310.448120,113.124619 
z"/>
<path fill="#F5826E" opacity="1.000000" stroke="none" 
	d="
M273.172180,393.000183 
	C284.472321,392.970825 295.772461,392.941498 307.540649,392.883789 
	C310.827759,392.930786 313.761902,392.559357 316.423645,393.245209 
	C318.082458,393.672607 319.329681,395.697540 320.761597,397.005554 
	C319.321930,398.309265 317.967224,400.606995 316.427429,400.738556 
	C310.825623,401.217163 305.161865,400.997223 299.521515,400.992584 
	C289.235474,400.984161 278.949402,400.941376 268.426575,400.626984 
	C269.850586,397.894104 271.511383,395.447144 273.172180,393.000183 
z"/>
<path fill="#E2352C" opacity="1.000000" stroke="none" 
	d="
M301.437134,388.993561 
	C298.802429,386.580414 296.552368,384.104553 294.157135,381.317993 
	C301.590424,381.501160 308.343018,379.757751 314.186554,374.511841 
	C315.230103,373.575012 317.914368,374.465851 319.841034,374.512787 
	C319.648895,376.437927 320.170502,378.966858 319.141083,380.183685 
	C314.679749,385.457306 308.519714,387.833496 301.437134,388.993561 
z"/>
<path fill="#66AB44" opacity="1.000000" stroke="none" 
	d="
M214.162262,320.547424 
	C209.889114,317.984619 207.886078,314.691620 209.686554,310.032166 
	C211.294724,305.870331 215.823090,303.988678 219.865860,305.617737 
	C224.331589,307.417206 225.742889,311.438385 223.804977,317.540863 
	C223.693375,317.922333 223.844467,318.075104 223.652374,318.061615 
	C223.229584,318.335175 222.998901,318.622223 222.768219,318.909271 
	C220.018234,319.486298 217.268265,320.063293 214.162262,320.547424 
z"/>
<path fill="#4E3E4B" opacity="1.000000" stroke="none" 
	d="
M273.092163,392.638275 
	C271.511383,395.447144 269.850586,397.894104 267.940216,400.583344 
	C266.152527,400.843018 264.614441,400.860413 262.692566,400.854675 
	C260.534363,398.459534 258.759888,396.087585 256.905701,393.357910 
	C257.589355,388.405273 259.963898,385.185913 264.874664,385.097412 
	C269.503906,385.013916 272.087921,387.851532 273.092163,392.638275 
z"/>
<path fill="#64AA45" opacity="1.000000" stroke="none" 
	d="
M255.034363,412.519531 
	C259.543701,415.345276 260.696564,418.984070 258.595764,423.404938 
	C256.892761,426.988739 252.482651,428.538788 248.799011,427.002319 
	C244.885727,425.370056 243.347977,422.274292 243.976135,418.171906 
	C244.706100,413.404785 248.516586,411.381683 255.034363,412.519531 
z"/>
<path fill="#62AA45" opacity="1.000000" stroke="none" 
	d="
M268.807404,101.510971 
	C261.127045,102.660461 258.984100,101.375282 256.908478,94.470963 
	C258.669891,88.273415 261.933594,85.259827 266.142822,86.689590 
	C268.635773,87.536385 271.301025,89.867020 272.444275,92.229469 
	C274.158844,95.772484 272.119598,98.950607 268.807404,101.510971 
z"/>
<path fill="#F04D36" opacity="1.000000" stroke="none" 
	d="
M285.392090,286.102600 
	C283.533966,282.392731 283.030334,278.889923 285.818726,275.770905 
	C288.418091,272.863281 291.689148,272.435883 295.632568,273.924805 
	C298.475952,276.779572 300.659973,279.606842 299.046967,283.683868 
	C297.328827,288.026733 291.002014,291.457886 285.392090,286.102600 
z"/>
<path fill="#F04D36" opacity="1.000000" stroke="none" 
	d="
M347.139801,366.034851 
	C342.810791,365.376617 339.883118,363.051788 340.199402,359.169189 
	C340.420746,356.452026 342.129608,352.869965 344.302429,351.590698 
	C346.255585,350.440765 350.487396,350.979126 352.350433,352.473175 
	C354.205170,353.960571 355.283142,357.647888 355.049225,360.220245 
	C354.697601,364.086304 351.535736,366.000641 347.139801,366.034851 
z"/>
<path fill="#62AA45" opacity="1.000000" stroke="none" 
	d="
M397.211243,316.846802 
	C394.732330,320.372192 391.479309,322.173279 387.998169,320.346985 
	C385.675476,319.128418 383.092804,316.296967 382.797089,313.917603 
	C382.502686,311.548828 384.292542,307.701569 386.315033,306.591431 
	C388.543243,305.368378 392.543976,305.619629 394.933685,306.853394 
	C398.602234,308.747437 398.895569,312.668457 397.211243,316.846802 
z"/>
<path fill="#F04D36" opacity="1.000000" stroke="none" 
	d="
M102.782463,315.170410 
	C102.430016,309.327332 105.013374,305.696991 109.539642,305.162201 
	C113.404449,304.705566 117.173935,307.453278 117.928238,311.276978 
	C118.764000,315.513580 116.526604,319.495483 112.446487,320.531403 
	C107.877754,321.691315 104.828697,319.579956 102.782463,315.170410 
z"/>
<path fill="#F04D36" opacity="1.000000" stroke="none" 
	d="
M396.129608,196.498016 
	C398.746857,191.127563 402.280914,189.375717 406.469086,191.021027 
	C410.233612,192.499908 412.294983,196.513382 411.242645,200.315002 
	C410.150574,204.260162 406.593719,206.557571 402.466125,205.983810 
	C398.253723,205.398285 396.135406,202.392242 396.129608,196.498016 
z"/>
<path fill="#E2352C" opacity="1.000000" stroke="none" 
	d="
M293.408997,376.035950 
	C291.742859,373.954132 290.455231,371.832855 289.082184,369.374023 
	C293.217621,366.928619 297.347809,364.598755 301.703156,362.820465 
	C303.486969,362.092133 305.757324,362.555603 307.806366,362.476929 
	C307.528351,364.517883 307.990906,367.579102 306.838562,368.415558 
	C302.788055,371.355591 298.182434,373.530884 293.408997,376.035950 
z"/>
<path fill="#FFBE28" opacity="1.000000" stroke="none" 
	d="
M222.983932,318.759155 
	C222.998901,318.622223 223.229584,318.335175 223.734879,317.992828 
	C223.739548,318.161346 223.469589,318.385162 222.983932,318.759155 
z"/>
<path fill="#473D4B" opacity="1.000000" stroke="none" 
	d="
M145.176437,192.988617 
	C146.104980,187.321167 148.396591,185.088913 153.861389,185.027756 
	C163.588852,184.918915 173.318161,184.975647 183.970596,184.961121 
	C188.919418,184.918823 192.944351,184.878510 196.969284,184.838196 
	C207.953705,185.407852 210.588669,188.946518 208.167694,199.877274 
	C204.973862,214.297516 193.172684,224.057571 177.426208,224.436539 
	C176.994278,219.105927 177.089890,214.288177 176.953262,209.477051 
	C176.673492,199.626755 170.426956,193.337280 160.616104,193.050797 
	C155.473328,192.900635 150.323227,193.001266 145.176437,192.988617 
z"/>
<path fill="#FA9F19" opacity="1.000000" stroke="none" 
	d="
M319.745239,177.828674 
	C336.426361,182.591354 346.246124,195.953796 344.884216,211.614410 
	C343.496429,227.572815 331.568359,239.182175 314.401459,240.859161 
	C315.249420,236.876236 316.533356,232.929337 317.752319,228.962463 
	C319.178253,224.321945 319.576080,220.238007 315.238892,216.319702 
	C311.502167,212.943878 312.559601,207.596329 317.184723,204.963470 
	C320.348999,203.162262 321.307800,200.908737 320.986176,197.679672 
	C320.361053,191.404099 319.682800,185.133835 318.992615,178.442841 
	C319.133575,177.981201 319.308441,177.938110 319.745239,177.828674 
z"/>
<path fill="#565A6D" opacity="1.000000" stroke="none" 
	d="
M145.107483,193.415939 
	C150.323227,193.001266 155.473328,192.900635 160.616104,193.050797 
	C170.426956,193.337280 176.673492,199.626755 176.953262,209.477051 
	C177.089890,214.288177 176.994278,219.105927 177.005890,224.378693 
	C159.987534,225.620071 145.109375,211.196136 145.107483,193.415939 
z"/>
<path fill="#F5826E" opacity="1.000000" stroke="none" 
	d="
M240.827911,120.996902 
	C229.521332,121.030914 218.214737,121.064911 206.437439,121.117355 
	C203.145874,121.065445 200.211212,121.441109 197.545959,120.761024 
	C195.890900,120.338699 194.644180,118.316154 193.214172,117.011856 
	C194.640900,115.700768 195.982193,113.388123 197.509644,113.257835 
	C203.114670,112.779755 208.781586,113.002800 214.425171,113.006088 
	C224.717117,113.012085 235.009033,113.049591 245.537628,113.364998 
	C244.125488,116.102997 242.476700,118.549950 240.827911,120.996902 
z"/>
<path fill="#E2362D" opacity="1.000000" stroke="none" 
	d="
M212.563568,125.008499 
	C215.200317,127.428284 217.451050,129.904022 219.846985,132.691483 
	C212.393295,132.496277 205.607437,134.170517 199.791656,139.537827 
	C198.775589,140.475540 196.061630,139.573471 194.131836,139.521103 
	C194.318604,137.594727 193.788696,135.062958 194.816086,133.846680 
	C199.286209,128.554855 205.457275,126.159920 212.563568,125.008499 
z"/>
<path fill="#FAA11A" opacity="1.000000" stroke="none" 
	d="
M257.285950,186.536240 
	C256.907562,181.280884 259.038757,178.128510 263.902924,177.241104 
	C267.872955,176.516815 271.607635,179.110275 272.610992,182.975128 
	C273.672241,187.062988 271.417664,191.213837 267.447052,192.482224 
	C263.166138,193.849747 259.749451,191.964844 257.285950,186.536240 
z"/>
<path fill="#4E3E4B" opacity="1.000000" stroke="none" 
	d="
M240.907166,121.359268 
	C242.476700,118.549950 244.125488,116.102997 246.020935,113.413483 
	C247.826950,113.152855 249.386307,113.134796 251.334457,113.145416 
	C253.485641,115.544472 255.248047,117.914848 257.091003,120.642357 
	C256.392517,125.581467 254.021561,128.808960 249.117065,128.895447 
	C244.497574,128.976898 241.903214,126.150330 240.907166,121.359268 
z"/>
<path fill="#63AA45" opacity="1.000000" stroke="none" 
	d="
M217.740021,243.569153 
	C211.437332,242.540604 208.391434,239.162369 209.131180,234.485870 
	C209.788208,230.332214 213.471054,227.470352 217.747910,227.882095 
	C221.769684,228.269241 224.288315,230.646698 224.787613,234.500717 
	C225.420319,239.384277 222.838028,242.359573 217.740021,243.569153 
z"/>
<path fill="#63AA45" opacity="1.000000" stroke="none" 
	d="
M129.827576,208.075531 
	C123.874313,209.537567 120.102028,207.749435 118.753654,203.160995 
	C117.571419,199.137909 119.686760,194.896408 123.735161,193.542694 
	C127.758400,192.197418 131.152603,193.454132 133.106781,197.109665 
	C135.394974,201.389999 134.292694,205.156128 129.827576,208.075531 
z"/>
<path fill="#FAA11A" opacity="1.000000" stroke="none" 
	d="
M238.549255,213.395111 
	C238.144897,209.165298 239.352570,205.585815 243.230560,204.829758 
	C245.909027,204.307587 249.805313,204.972229 251.644653,206.708786 
	C253.297775,208.269562 253.894730,212.362061 253.089966,214.693008 
	C252.367859,216.784561 249.296692,218.886917 246.918732,219.402664 
	C242.804382,220.295013 240.223145,217.403137 238.549255,213.395111 
z"/>
<path fill="#F04E37" opacity="1.000000" stroke="none" 
	d="
M139.125793,155.910095 
	C143.475128,155.951035 146.674500,157.755463 147.054779,161.634369 
	C147.307724,164.214722 146.344971,167.883942 144.531830,169.424271 
	C142.720978,170.962662 138.553238,171.611740 136.552856,170.537933 
	C134.334641,169.347183 132.437439,165.874268 132.131393,163.197220 
	C131.663177,159.101700 134.592804,156.625427 139.125793,155.910095 
z"/>
<path fill="#FAA119" opacity="1.000000" stroke="none" 
	d="
M153.307739,242.368378 
	C154.677826,237.741470 157.495331,235.673813 161.981445,236.095932 
	C165.856537,236.460541 168.676453,238.945602 168.444504,242.431488 
	C168.255219,245.276321 166.373795,248.840729 164.091431,250.538345 
	C159.544342,253.920471 154.086700,249.755280 153.307739,242.368378 
z"/>
<path fill="#FAA119" opacity="1.000000" stroke="none" 
	d="
M197.069000,184.462967 
	C192.944351,184.878510 188.919418,184.918823 184.433441,184.895416 
	C181.988403,181.579590 181.263992,177.869186 184.076614,175.205978 
	C185.958527,173.424026 189.317566,172.239655 191.922760,172.390610 
	C196.870560,172.677277 198.664062,177.292038 197.069000,184.462967 
z"/>
<path fill="#E2362D" opacity="1.000000" stroke="none" 
	d="
M220.572296,137.958771 
	C222.242676,140.044632 223.534698,142.159180 224.911316,144.610870 
	C220.772858,147.074799 216.641891,149.425308 212.282135,151.219971 
	C210.500076,151.953491 208.222778,151.483902 206.170776,151.561646 
	C206.441605,149.519257 205.968582,146.455414 207.117447,145.618774 
	C211.176270,142.663025 215.790375,140.469803 220.572296,137.958771 
z"/>
</svg>