<svg version="1.1" id="Layer_1" xmlns="http://www.w3.org/2000/svg" xmlns:xlink="http://www.w3.org/1999/xlink" x="0px" y="0px"
	 width="100%" viewBox="0 0 512 512" enable-background="new 0 0 512 512" xml:space="preserve">
<path fill="none" opacity="1.000000" stroke="none" 
	d="
M513.000000,235.000000 
	C513.000000,249.354233 513.000000,263.708466 512.716309,278.826172 
	C510.933105,289.882385 509.897888,300.268799 507.844543,310.449829 
	C502.318146,337.850983 492.199036,363.541443 477.932953,387.597931 
	C461.928101,414.586426 441.466339,437.670532 417.128387,457.400909 
	C398.559692,472.454224 378.243622,484.617706 356.192261,493.758240 
	C335.130402,502.488556 313.329132,508.649323 290.572662,511.122467 
	C286.692932,511.544128 282.856445,512.364075 279.000000,513.000000 
	C264.645782,513.000000 250.291550,513.000000 235.173859,512.716309 
	C224.117615,510.933136 213.731186,509.897949 203.550125,507.844543 
	C176.148972,502.318115 150.458481,492.199158 126.401955,477.932983 
	C99.413528,461.928101 76.329491,441.466217 56.599075,417.128326 
	C41.545689,398.559662 29.382221,378.243591 20.241716,356.192230 
	C11.511374,335.130402 5.350694,313.329132 2.877570,290.572662 
	C2.455930,286.692932 1.635953,282.856445 1.000000,279.000000 
	C1.000000,264.645782 1.000000,250.291550 1.283690,235.173859 
	C3.066901,224.117630 4.102123,213.731216 6.155488,203.550156 
	C11.681877,176.148987 21.800936,150.458557 36.066982,126.402008 
	C52.071781,99.413467 72.533958,76.329666 96.871651,56.599106 
	C115.440216,41.545593 135.756409,29.382257 157.807755,20.241732 
	C178.869598,11.511369 200.670853,5.350697 223.427338,2.877565 
	C227.307098,2.455922 231.143539,1.635952 235.000000,1.000000 
	C249.354233,1.000000 263.708466,1.000000 278.826141,1.283687 
	C289.882385,3.066904 300.268829,4.102151 310.449921,6.155518 
	C337.851074,11.681900 363.541534,21.800945 387.598022,36.067039 
	C414.586487,52.071861 437.670441,72.533836 457.400940,96.871635 
	C472.454346,115.440277 484.617584,135.756500 493.758240,157.807755 
	C502.488739,178.869553 508.649231,200.670868 511.122375,223.427322 
	C511.544037,227.307083 512.364014,231.143539 513.000000,235.000000 
M437.815704,356.162994 
	C440.498627,350.385101 443.181519,344.607178 446.758728,338.928406 
	C451.024384,339.508331 455.284424,340.133575 459.556763,340.659241 
	C469.992981,341.943329 478.637817,341.364319 480.192352,326.567657 
	C481.160095,317.356262 482.846222,308.206635 484.525757,299.087463 
	C486.302734,289.439240 484.651154,284.843140 476.351044,279.335480 
	C481.250488,277.800873 485.758026,276.272858 490.333069,274.984528 
	C496.483826,273.252441 501.692383,270.274017 502.513519,263.421753 
	C502.905060,260.154114 501.842621,256.581421 500.887390,253.307770 
	C498.047272,243.574127 495.092468,233.867249 491.881317,224.250458 
	C488.801392,215.026672 482.381439,211.742767 473.320343,214.423950 
	C468.539459,215.838623 463.811951,217.433731 458.963379,218.162155 
	C457.919159,213.104263 456.874939,208.046371 456.472321,202.731049 
	C458.993896,200.312698 461.638184,198.008453 464.013336,195.453995 
	C470.365845,188.621902 473.419159,180.500961 474.097595,171.153534 
	C475.127167,156.969376 468.875427,145.193954 462.062134,133.765564 
	C450.967010,115.154976 434.971985,101.180054 417.234222,89.173569 
	C390.991882,71.410454 362.327026,58.778927 332.095520,49.487621 
	C301.472809,40.076088 270.471863,33.618813 238.158188,35.974876 
	C222.781342,37.096031 207.347122,37.558342 192.007614,39.033581 
	C169.143860,41.232441 147.455368,47.458836 127.233627,58.781418 
	C108.917862,69.036812 93.760422,82.764229 80.998772,99.171318 
	C65.347298,119.293694 54.029148,141.838943 45.579292,165.816727 
	C33.172386,201.023285 22.689796,236.702484 25.166088,274.613983 
	C25.959877,286.766724 27.767900,299.092224 31.054197,310.793121 
	C37.773960,334.718964 50.996567,354.935669 70.388512,370.680176 
	C78.349167,377.143463 86.666473,383.365265 97.415321,386.497101 
	C104.956238,394.208252 112.338943,402.082306 120.074242,409.593262 
	C132.447357,421.607483 146.500778,431.519043 162.032135,438.818298 
	C175.964584,445.366150 190.625443,450.364075 205.085587,456.769531 
	C214.034348,482.262756 238.990097,500.984039 266.543610,502.937561 
	C283.391876,504.132111 298.917542,499.618256 312.588165,489.800201 
	C324.431030,481.294861 333.273590,470.208252 338.078888,456.211761 
	C339.018219,453.475739 339.888306,451.348297 343.684204,453.236206 
	C356.622192,459.670929 370.231323,462.164917 384.709717,460.082520 
	C399.472321,457.959259 412.448181,452.145233 423.330109,442.062744 
	C435.959106,430.361603 443.852783,415.833649 445.709259,398.696472 
	C447.284821,384.152771 445.780640,369.833038 437.815704,356.162994 
z"/>
<path fill="#FFFFFF" opacity="1.000000" stroke="none" 
	d="
M234.531342,1.000000 
	C231.143539,1.635952 227.307098,2.455922 223.427338,2.877565 
	C200.670853,5.350697 178.869598,11.511369 157.807755,20.241732 
	C135.756409,29.382257 115.440216,41.545593 96.871651,56.599106 
	C72.533958,76.329666 52.071781,99.413467 36.066982,126.402008 
	C21.800936,150.458557 11.681877,176.148987 6.155488,203.550156 
	C4.102123,213.731216 3.066901,224.117630 1.283690,234.705200 
	C1.000000,157.072952 1.000000,79.145912 1.000000,1.000000 
	C78.687424,1.000000 156.375061,1.000000 234.531342,1.000000 
z"/>
<path fill="#FFFFFF" opacity="1.000000" stroke="none" 
	d="
M279.468658,513.000000 
	C282.856445,512.364075 286.692932,511.544128 290.572662,511.122467 
	C313.329132,508.649323 335.130402,502.488556 356.192261,493.758240 
	C378.243622,484.617706 398.559692,472.454224 417.128387,457.400909 
	C441.466339,437.670532 461.928101,414.586426 477.932953,387.597931 
	C492.199036,363.541443 502.318146,337.850983 507.844543,310.449829 
	C509.897888,300.268799 510.933105,289.882385 512.716309,279.294800 
	C513.000000,356.927032 513.000000,434.854095 513.000000,513.000000 
	C435.312561,513.000000 357.624939,513.000000 279.468658,513.000000 
z"/>
<path fill="#FFFFFF" opacity="1.000000" stroke="none" 
	d="
M1.000000,279.468658 
	C1.635953,282.856445 2.455930,286.692932 2.877570,290.572662 
	C5.350694,313.329132 11.511374,335.130402 20.241716,356.192230 
	C29.382221,378.243591 41.545689,398.559662 56.599075,417.128326 
	C76.329491,441.466217 99.413528,461.928101 126.401955,477.932983 
	C150.458481,492.199158 176.148972,502.318115 203.550125,507.844543 
	C213.731186,509.897949 224.117615,510.933136 234.705200,512.716309 
	C157.072968,513.000000 79.145927,513.000000 1.000000,513.000000 
	C1.000000,435.312561 1.000000,357.624939 1.000000,279.468658 
z"/>
<path fill="#FFFFFF" opacity="1.000000" stroke="none" 
	d="
M513.000000,234.531342 
	C512.364014,231.143539 511.544037,227.307083 511.122375,223.427322 
	C508.649231,200.670868 502.488739,178.869553 493.758240,157.807755 
	C484.617584,135.756500 472.454346,115.440277 457.400940,96.871635 
	C437.670441,72.533836 414.586487,52.071861 387.598022,36.067039 
	C363.541534,21.800945 337.851074,11.681900 310.449921,6.155518 
	C300.268829,4.102151 289.882385,3.066904 279.294800,1.283687 
	C356.927032,1.000000 434.854095,1.000000 513.000000,1.000000 
	C513.000000,78.687424 513.000000,156.375061 513.000000,234.531342 
z"/>
<path fill="#D8AD8F" opacity="1.000000" stroke="none" 
	d="
M204.964966,456.045776 
	C190.625443,450.364075 175.964584,445.366150 162.032135,438.818298 
	C146.500778,431.519043 132.447357,421.607483 120.074242,409.593262 
	C112.338943,402.082306 104.956238,394.208252 97.047867,385.972534 
	C94.158714,381.265991 91.637016,377.084015 89.437149,373.036072 
	C93.066444,375.900879 96.403931,376.383209 100.305161,374.071198 
	C101.532593,373.343750 103.694191,373.723450 105.281090,374.147308 
	C115.998138,377.009827 126.685165,379.986938 137.353806,383.025635 
	C138.662003,383.398285 140.072754,384.107666 140.976120,385.085754 
	C145.190506,389.648773 148.905914,389.902100 153.428314,386.043335 
	C154.664886,384.988190 156.481888,384.306183 158.119644,384.077911 
	C169.109863,382.545898 180.118393,381.139557 191.135193,379.810272 
	C192.819687,379.607025 194.717331,379.634766 196.274475,380.210236 
	C200.330170,381.709137 203.270508,380.581879 205.957230,377.379089 
	C207.368271,375.697021 209.219666,374.239349 211.139725,373.153259 
	C221.822464,367.110474 232.541855,361.127777 243.365585,355.343262 
	C245.318787,354.299408 247.853912,353.736542 250.054657,353.890533 
	C254.612762,354.209534 258.811951,351.770691 258.856384,347.178680 
	C258.897064,342.969910 260.901703,340.429443 263.589050,337.836182 
	C265.860260,335.644531 268.139679,333.398407 270.031525,330.887115 
	C279.737518,318.003082 289.234375,304.960388 299.038239,292.152222 
	C300.473328,290.277374 303.342834,289.571289 305.225464,287.949310 
	C307.343323,286.124695 309.371246,284.061829 310.929077,281.758179 
	C312.527191,279.395020 312.877197,275.903229 314.866760,274.136688 
	C325.803131,264.425964 337.025787,255.033447 348.312164,245.728195 
	C349.360718,244.863708 351.633087,244.973953 353.182526,245.321396 
	C357.990631,246.399490 361.578613,244.098816 363.104462,239.504532 
	C363.891998,237.133255 365.560089,234.401459 367.624512,233.218384 
	C377.431641,227.598282 387.441162,222.312729 397.559937,217.272018 
	C399.396912,216.356934 402.259583,216.579910 404.334869,217.249817 
	C409.124390,218.795853 413.349396,216.745605 415.058746,212.076401 
	C415.797302,210.058914 417.492340,207.985321 419.318909,206.839569 
	C429.715332,200.318253 440.282654,194.069443 450.845154,188.133331 
	C452.542511,193.355286 454.186615,198.171890 455.830719,202.988480 
	C456.874939,208.046371 457.919159,213.104263 459.005432,218.973236 
	C459.717072,224.589478 460.386627,229.394653 460.785461,234.434509 
	C436.727661,242.126724 412.934601,249.565292 389.156799,257.052429 
	C381.261505,259.538513 379.462067,263.072266 381.875824,270.980927 
	C382.894318,274.318054 383.925385,277.651367 384.526123,281.014160 
	C381.802551,280.720490 379.509766,280.343048 377.203461,280.088165 
	C370.200562,279.314178 367.085480,281.641571 365.829254,288.662628 
	C365.127960,292.582367 364.385712,296.511322 364.009949,300.469147 
	C363.340729,307.518829 365.781464,310.624847 372.844574,311.730743 
	C386.617432,313.887238 400.419922,315.853973 414.194214,318.001465 
	C426.476471,319.916290 438.737183,321.968933 450.957214,324.329651 
	C449.226166,329.408813 447.545288,334.119019 445.864441,338.829254 
	C443.181519,344.607178 440.498627,350.385101 437.474548,356.632385 
	C435.851044,358.775726 434.587067,360.464081 433.282166,362.120239 
	C431.220978,364.736267 429.132355,367.330688 426.990662,369.584045 
	C417.246674,344.690674 393.006744,331.301483 371.347687,334.419037 
	C331.539062,340.148926 316.609650,365.713715 320.624786,404.287262 
	C316.420807,399.463593 312.887024,394.349579 308.342194,390.398560 
	C296.119873,379.773407 281.806702,375.614594 265.490631,376.798859 
	C244.589600,378.315948 222.729813,396.795654 217.884171,417.208527 
	C214.499100,431.468445 216.149902,444.853302 221.857590,458.235596 
	C219.824539,458.541901 218.029434,458.842682 216.340378,458.543915 
	C212.520767,457.868347 208.753510,456.896881 204.964966,456.045776 
M386.834290,241.034195 
	C394.010437,239.005844 401.230499,237.119614 408.352814,234.917175 
	C420.213104,231.249634 432.010712,227.379410 444.122620,223.502365 
	C443.187805,219.673645 442.389252,216.403030 441.638794,213.329376 
	C440.590790,213.281296 440.203796,213.142578 439.947815,213.269073 
	C423.255402,221.519073 406.564056,229.771454 389.907776,238.093994 
	C388.474792,238.809998 387.280426,240.003616 385.523407,241.009659 
	C385.268799,241.131546 385.014160,241.253418 384.759552,241.375305 
	C385.178864,241.258408 385.598206,241.141525 386.834290,241.034195 
M262.931610,361.020844 
	C278.309296,359.872955 292.897095,362.873566 306.911407,370.281006 
	C314.639465,347.118469 329.254913,331.298248 351.844086,322.695190 
	C346.599396,317.251617 346.392792,311.327698 347.722748,304.733337 
	C349.258881,297.116974 349.806366,289.306854 351.075134,281.629150 
	C352.110565,275.363434 351.768219,268.025482 358.873260,264.906158 
	C364.013428,262.649445 363.329590,259.410431 362.287354,254.950378 
	C360.327728,256.204865 358.779480,257.119232 357.311096,258.147522 
	C334.189911,274.338623 315.177704,294.445160 299.019440,317.580688 
	C290.590729,329.649017 280.712494,340.717499 271.283936,352.067230 
	C268.556854,355.350006 265.118835,358.042175 261.764557,361.101532 
	C261.841217,361.065369 261.917877,361.029205 262.931610,361.020844 
M194.318512,436.227783 
	C196.286942,436.819489 198.255386,437.411194 199.999008,437.935333 
	C201.071381,429.067017 201.146500,420.627594 203.306610,412.760712 
	C205.507172,404.746613 209.759171,397.295837 212.778015,390.367096 
	C200.056015,393.105347 186.656601,397.142303 172.981644,398.607269 
	C159.411118,400.061035 145.563187,398.925415 131.159485,398.925415 
	C149.634033,415.832764 170.646164,427.500092 194.318512,436.227783 
M425.377930,335.069916 
	C424.188690,335.155609 422.999451,335.241302 420.910126,335.391876 
	C423.318054,337.689728 425.018707,339.312683 426.801605,341.014099 
	C429.179108,337.224243 429.179108,337.224243 425.377930,335.069916 
z"/>
<path fill="#EFCCB0" opacity="1.000000" stroke="none" 
	d="
M456.151520,202.859772 
	C454.186615,198.171890 452.542511,193.355286 451.015350,187.847458 
	C458.960999,178.878586 461.452881,169.150345 456.976227,158.711044 
	C453.425507,150.430984 448.424957,142.772614 444.037476,134.882889 
	C444.006805,134.927567 444.086334,135.001236 444.011078,134.698288 
	C443.637054,134.116257 443.338257,133.837173 443.000366,133.237076 
	C433.704742,124.184052 424.448273,115.452049 415.188477,106.323578 
	C414.566193,97.463562 411.026093,95.368469 401.800903,97.837616 
	C388.812775,90.920029 376.017395,84.285019 363.127563,77.316643 
	C359.899811,71.123207 358.452423,70.604515 349.758759,72.125122 
	C336.743713,67.771721 324.042786,63.631969 311.228729,59.160728 
	C307.952484,51.431454 303.438568,50.633877 295.698700,55.957909 
	C283.225220,54.197235 271.096802,52.644791 258.716370,50.857437 
	C253.651871,44.634918 249.124710,44.809357 243.606354,51.143394 
	C231.083572,51.803085 219.011597,52.497044 206.609192,53.026886 
	C200.370728,47.853153 196.685379,48.314342 191.377594,54.705803 
	C178.629990,57.745743 166.308090,60.754147 153.664429,63.641235 
	C145.563309,59.441555 141.199631,61.424072 139.457077,69.791321 
	C123.597557,77.916756 110.162781,88.540665 98.573120,102.006744 
	C90.457664,101.705673 88.082397,104.004372 87.859215,111.677643 
	C87.797882,113.786522 87.266769,115.881744 86.650558,118.136536 
	C69.882866,142.541885 59.437790,169.475266 51.473495,197.447556 
	C42.858822,227.704102 36.673191,258.255859 41.984062,289.983276 
	C44.965500,307.794495 51.065975,324.311157 61.825226,339.301086 
	C62.315674,339.730621 62.651878,339.901001 62.958076,340.034851 
	C62.928074,339.998352 62.848415,340.049194 62.881569,340.398376 
	C68.580315,346.887665 74.245895,353.027740 79.929245,359.526154 
	C81.416634,362.583038 82.697884,365.409790 84.418365,367.937622 
	C85.684204,369.797455 87.524567,371.266266 89.107796,372.925537 
	C89.106682,372.941711 89.115326,372.902069 89.115326,372.902069 
	C91.637016,377.084015 94.158714,381.265991 96.789986,385.771118 
	C86.666473,383.365265 78.349167,377.143463 70.388512,370.680176 
	C50.996567,354.935669 37.773960,334.718964 31.054197,310.793121 
	C27.767900,299.092224 25.959877,286.766724 25.166088,274.613983 
	C22.689796,236.702484 33.172386,201.023285 45.579292,165.816727 
	C54.029148,141.838943 65.347298,119.293694 80.998772,99.171318 
	C93.760422,82.764229 108.917862,69.036812 127.233627,58.781418 
	C147.455368,47.458836 169.143860,41.232441 192.007614,39.033581 
	C207.347122,37.558342 222.781342,37.096031 238.158188,35.974876 
	C270.471863,33.618813 301.472809,40.076088 332.095520,49.487621 
	C362.327026,58.778927 390.991882,71.410454 417.234222,89.173569 
	C434.971985,101.180054 450.967010,115.154976 462.062134,133.765564 
	C468.875427,145.193954 475.127167,156.969376 474.097595,171.153534 
	C473.419159,180.500961 470.365845,188.621902 464.013336,195.453995 
	C461.638184,198.008453 458.993896,200.312698 456.151520,202.859772 
z"/>
<path fill="#EFCDB1" opacity="1.000000" stroke="none" 
	d="
M205.025269,456.407654 
	C208.753510,456.896881 212.520767,457.868347 216.340378,458.543915 
	C218.029434,458.842682 219.824539,458.541901 222.099182,458.461487 
	C233.015106,477.597382 254.287369,490.172607 278.848297,486.933075 
	C294.216492,484.906006 306.948730,477.930481 316.056396,465.222961 
	C319.207153,460.826813 321.418549,455.757446 324.422852,450.942932 
	C333.243896,447.252228 341.701050,443.614258 350.522705,440.029846 
	C375.581207,449.641602 397.732971,446.483337 416.581390,426.914764 
	C430.552887,412.409454 435.078735,387.713806 427.055328,369.934235 
	C429.132355,367.330688 431.220978,364.736267 433.282166,362.120239 
	C434.587067,360.464081 435.851044,358.775726 437.445801,357.021484 
	C445.780640,369.833038 447.284821,384.152771 445.709259,398.696472 
	C443.852783,415.833649 435.959106,430.361603 423.330109,442.062744 
	C412.448181,452.145233 399.472321,457.959259 384.709717,460.082520 
	C370.231323,462.164917 356.622192,459.670929 343.684204,453.236206 
	C339.888306,451.348297 339.018219,453.475739 338.078888,456.211761 
	C333.273590,470.208252 324.431030,481.294861 312.588165,489.800201 
	C298.917542,499.618256 283.391876,504.132111 266.543610,502.937561 
	C238.990097,500.984039 214.034348,482.262756 205.025269,456.407654 
z"/>
<path fill="#EECDB1" opacity="1.000000" stroke="none" 
	d="
M446.311584,338.878845 
	C447.545288,334.119019 449.226166,329.408813 451.411316,324.292664 
	C452.738861,323.949615 453.562836,324.004761 454.385345,324.076508 
	C462.650879,324.797394 464.958191,323.062317 466.471802,314.781006 
	C467.094177,311.375946 467.642395,307.947784 468.006866,304.507111 
	C468.795502,297.062439 467.195892,294.793488 459.994446,292.285492 
	C460.652954,283.875092 461.310425,275.893250 462.244873,267.677246 
	C467.742279,265.784821 473.018311,264.280914 478.168152,262.426636 
	C483.763672,260.411896 485.563873,256.870392 484.030304,251.100616 
	C482.879974,246.772629 481.546661,242.480286 480.039215,238.263443 
	C478.033600,232.652939 474.518585,230.826080 468.738770,232.159210 
	C466.158295,232.754410 463.615875,233.514542 461.056183,234.199829 
	C460.386627,229.394653 459.717072,224.589478 459.053925,219.365845 
	C463.811951,217.433731 468.539459,215.838623 473.320343,214.423950 
	C482.381439,211.742767 488.801392,215.026672 491.881317,224.250458 
	C495.092468,233.867249 498.047272,243.574127 500.887390,253.307770 
	C501.842621,256.581421 502.905060,260.154114 502.513519,263.421753 
	C501.692383,270.274017 496.483826,273.252441 490.333069,274.984528 
	C485.758026,276.272858 481.250488,277.800873 476.351044,279.335480 
	C484.651154,284.843140 486.302734,289.439240 484.525757,299.087463 
	C482.846222,308.206635 481.160095,317.356262 480.192352,326.567657 
	C478.637817,341.364319 469.992981,341.943329 459.556763,340.659241 
	C455.284424,340.133575 451.024384,339.508331 446.311584,338.878845 
z"/>
<path fill="#A24223" opacity="1.000000" stroke="none" 
	d="
M244.057144,51.177658 
	C249.124710,44.809357 253.651871,44.634918 258.724792,51.319160 
	C258.985199,140.021774 258.985199,228.027725 258.985199,317.533752 
	C261.634735,314.674683 263.455872,313.034363 264.891998,311.107117 
	C274.212250,298.599731 283.378448,285.976929 292.762695,273.518219 
	C295.075134,270.448212 296.080078,267.398804 296.074554,263.496552 
	C295.976562,194.386536 296.026062,125.276314 296.043762,56.166138 
	C303.438568,50.633877 307.952484,51.431454 311.135651,59.664551 
	C311.114044,61.164364 311.035980,61.828861 311.035889,62.493366 
	C311.026581,124.607552 311.020447,186.721741 311.039795,248.835922 
	C311.040192,250.063660 311.343964,251.291306 311.577881,253.061508 
	C312.884979,252.129013 313.681854,251.610519 314.424347,251.023224 
	C324.047668,243.411285 333.511841,235.585220 343.365265,228.284332 
	C346.684387,225.825027 348.088898,223.450745 348.076385,219.312057 
	C347.939636,174.017395 347.942322,128.722015 348.080872,83.427376 
	C348.092163,79.729179 349.378815,76.034889 350.072876,72.338783 
	C358.452423,70.604515 359.899811,71.123207 363.069092,77.809547 
	C363.105072,123.948441 363.105072,169.261063 363.105072,215.127533 
	C364.951477,214.593170 365.931366,214.468719 366.758667,214.045822 
	C376.231384,209.203674 385.586975,204.119415 395.183685,199.539474 
	C398.918304,197.757156 400.106812,195.545975 400.081818,191.496597 
	C399.911499,163.877380 399.921753,136.256180 400.081146,108.636833 
	C400.101410,105.127724 401.326630,101.625565 401.993652,98.120186 
	C411.026093,95.368469 414.566193,97.463562 415.134338,106.811752 
	C415.083527,134.701950 415.083527,161.707489 415.083527,188.713028 
	C415.721100,189.105728 416.358643,189.498428 416.996216,189.891129 
	C425.103119,184.267029 433.942261,179.435669 441.119904,172.805573 
	C448.983063,165.542236 450.890594,155.765717 446.995972,145.279892 
	C445.741638,141.902725 445.028778,138.324463 444.068176,134.838211 
	C448.424957,142.772614 453.425507,150.430984 456.976227,158.711044 
	C461.452881,169.150345 458.960999,178.878586 450.962097,187.442108 
	C440.282654,194.069443 429.715332,200.318253 419.318909,206.839569 
	C417.492340,207.985321 415.797302,210.058914 415.058746,212.076401 
	C413.349396,216.745605 409.124390,218.795853 404.334869,217.249817 
	C402.259583,216.579910 399.396912,216.356934 397.559937,217.272018 
	C387.441162,222.312729 377.431641,227.598282 367.624512,233.218384 
	C365.560089,234.401459 363.891998,237.133255 363.104462,239.504532 
	C361.578613,244.098816 357.990631,246.399490 353.182526,245.321396 
	C351.633087,244.973953 349.360718,244.863708 348.312164,245.728195 
	C337.025787,255.033447 325.803131,264.425964 314.866760,274.136688 
	C312.877197,275.903229 312.527191,279.395020 310.929077,281.758179 
	C309.371246,284.061829 307.343323,286.124695 305.225464,287.949310 
	C303.342834,289.571289 300.473328,290.277374 299.038239,292.152222 
	C289.234375,304.960388 279.737518,318.003082 270.031525,330.887115 
	C268.139679,333.398407 265.860260,335.644531 263.589050,337.836182 
	C260.901703,340.429443 258.897064,342.969910 258.856384,347.178680 
	C258.811951,351.770691 254.612762,354.209534 250.054657,353.890533 
	C247.853912,353.736542 245.318787,354.299408 243.365585,355.343262 
	C232.541855,361.127777 221.822464,367.110474 211.139725,373.153259 
	C209.219666,374.239349 207.368271,375.697021 205.957230,377.379089 
	C203.270508,380.581879 200.330170,381.709137 196.274475,380.210236 
	C194.717331,379.634766 192.819687,379.607025 191.135193,379.810272 
	C180.118393,381.139557 169.109863,382.545898 158.119644,384.077911 
	C156.481888,384.306183 154.664886,384.988190 153.428314,386.043335 
	C148.905914,389.902100 145.190506,389.648773 140.976120,385.085754 
	C140.072754,384.107666 138.662003,383.398285 137.353806,383.025635 
	C126.685165,379.986938 115.998138,377.009827 105.281090,374.147308 
	C103.694191,373.723450 101.532593,373.343750 100.305161,374.071198 
	C96.403931,376.383209 93.066444,375.900879 89.437149,373.036072 
	C89.115326,372.902069 89.106682,372.941711 89.046608,372.536377 
	C88.597893,365.964325 85.807709,361.478851 79.911484,359.167816 
	C74.245895,353.027740 68.580315,346.887665 63.237694,340.413452 
	C67.769585,343.271301 71.880951,346.603973 76.218430,349.610382 
	C79.657898,351.994354 83.374435,353.978577 87.701012,356.581299 
	C87.841064,353.812958 87.979675,352.349548 87.979881,350.886139 
	C87.990402,274.979126 87.996033,199.072144 87.945824,123.165169 
	C87.944679,121.437637 87.297218,119.710533 86.951233,117.983231 
	C87.266769,115.881744 87.797882,113.786522 87.859215,111.677643 
	C88.082397,104.004372 90.457664,101.705673 98.733116,102.319344 
	C102.473412,105.136848 103.094460,108.418419 103.089760,112.344872 
	C102.992638,193.446381 103.016724,274.548035 103.016960,355.649658 
	C103.016960,356.981934 102.594627,358.518280 103.115013,359.601074 
	C104.009872,361.462982 105.215576,364.168854 106.775414,364.553101 
	C115.451340,366.690247 124.222221,368.585449 133.061401,369.869873 
	C139.885193,370.861420 139.989456,370.378082 139.989563,363.432404 
	C139.991089,267.509338 139.991791,171.586258 139.982269,75.663193 
	C139.982071,73.667664 139.857727,71.672150 139.791290,69.676628 
	C141.199631,61.424072 145.563309,59.441555 153.714111,64.076263 
	C154.395935,67.422935 154.976242,70.213127 154.977600,73.003601 
	C155.024490,169.477234 155.016663,265.950897 155.016983,362.424530 
	C155.016998,363.757507 155.112335,365.097961 155.004074,366.421906 
	C154.759872,369.408386 156.326950,370.415070 158.952744,369.902802 
	C168.054001,368.127319 177.120514,366.172150 186.228180,364.431580 
	C190.722717,363.572662 192.128998,361.362457 192.120636,356.583221 
	C191.948059,257.777161 191.991837,158.970734 191.983139,60.164394 
	C191.982986,58.334347 191.865875,56.504303 191.803329,54.674259 
	C196.685379,48.314342 200.370728,47.853153 206.620514,53.481312 
	C206.962280,154.606201 206.962280,255.112564 206.962280,356.449341 
	C209.375336,355.482971 210.663467,355.172241 211.730789,354.507172 
	C220.187057,349.237823 228.545456,343.809479 237.049820,338.619934 
	C242.024338,335.584381 244.145340,331.763489 244.132935,325.596985 
	C243.948898,234.124176 244.034973,142.650864 244.057144,51.177658 
z"/>
<path fill="#F9E7D3" opacity="1.000000" stroke="none" 
	d="
M324.059021,450.995605 
	C321.418549,455.757446 319.207153,460.826813 316.056396,465.222961 
	C306.948730,477.930481 294.216492,484.906006 278.848297,486.933075 
	C254.287369,490.172607 233.015106,477.597382 222.385269,458.183777 
	C216.149902,444.853302 214.499100,431.468445 217.884171,417.208527 
	C222.729813,396.795654 244.589600,378.315948 265.490631,376.798859 
	C281.806702,375.614594 296.119873,379.773407 308.342194,390.398560 
	C312.887024,394.349579 316.420807,399.463593 320.624786,404.287262 
	C316.609650,365.713715 331.539062,340.148926 371.347687,334.419037 
	C393.006744,331.301483 417.246674,344.690674 426.990662,369.584045 
	C435.078735,387.713806 430.552887,412.409454 416.581390,426.914764 
	C397.732971,446.483337 375.581207,449.641602 350.302185,439.763733 
	C339.422485,433.639252 331.449646,425.393494 324.901306,415.444580 
	C328.478668,427.581421 327.166931,439.307556 324.059021,450.995605 
M323.099915,409.240814 
	C323.099915,409.240814 323.419342,409.252960 323.419342,409.252960 
	C323.419342,409.252960 323.008423,408.993561 322.998932,408.397095 
	C322.781067,407.869873 322.563202,407.342621 322.345367,406.815369 
	C322.024841,407.105438 321.704346,407.395508 321.383850,407.685577 
	C321.920441,408.126587 322.457001,408.567596 323.099915,409.240814 
M241.562912,443.773682 
	C248.192108,458.126404 259.730164,465.112854 274.919495,463.971527 
	C290.752106,462.781799 304.035156,448.019531 303.861145,431.806854 
	C303.687225,415.595795 290.651093,401.526276 275.038788,399.971771 
	C252.070068,397.684814 233.169312,419.519592 241.562912,443.773682 
M402.704926,372.925262 
	C394.826904,361.040894 383.647186,355.923706 369.721222,358.149078 
	C357.629486,360.081390 349.186310,367.376343 345.037323,378.942413 
	C339.923096,393.199310 345.247742,408.695404 357.552185,416.695221 
	C370.092316,424.848328 386.146362,423.474396 397.221863,413.300201 
	C408.130524,403.279297 410.485626,387.214203 402.704926,372.925262 
z"/>
<path fill="#EFCDB1" opacity="1.000000" stroke="none" 
	d="
M262.006714,361.005066 
	C265.118835,358.042175 268.556854,355.350006 271.283936,352.067230 
	C280.712494,340.717499 290.590729,329.649017 299.019440,317.580688 
	C315.177704,294.445160 334.189911,274.338623 357.311096,258.147522 
	C358.779480,257.119232 360.327728,256.204865 362.287354,254.950378 
	C363.329590,259.410431 364.013428,262.649445 358.873260,264.906158 
	C351.768219,268.025482 352.110565,275.363434 351.075134,281.629150 
	C349.806366,289.306854 349.258881,297.116974 347.722748,304.733337 
	C346.392792,311.327698 346.599396,317.251617 351.844086,322.695190 
	C329.254913,331.298248 314.639465,347.118469 306.911407,370.281006 
	C292.897095,362.873566 278.309296,359.872955 262.465820,361.010437 
	C262.000000,361.000000 262.006714,361.005066 262.006714,361.005066 
z"/>
<path fill="#1DCF92" opacity="1.000000" stroke="none" 
	d="
M460.785461,234.434509 
	C463.615875,233.514542 466.158295,232.754410 468.738770,232.159210 
	C474.518585,230.826080 478.033600,232.652939 480.039215,238.263443 
	C481.546661,242.480286 482.879974,246.772629 484.030304,251.100616 
	C485.563873,256.870392 483.763672,260.411896 478.168152,262.426636 
	C473.018311,264.280914 467.742279,265.784821 461.853485,267.687775 
	C457.689056,268.969727 454.169922,269.935608 450.700989,271.056732 
	C436.530731,275.636444 422.375854,280.263672 407.805725,284.921539 
	C404.708893,285.664185 401.993439,286.265839 399.339569,287.070435 
	C390.871033,289.637695 388.943329,288.850037 384.950745,280.986420 
	C383.925385,277.651367 382.894318,274.318054 381.875824,270.980927 
	C379.462067,263.072266 381.261505,259.538513 389.156799,257.052429 
	C412.934601,249.565292 436.727661,242.126724 460.785461,234.434509 
z"/>
<path fill="#02AD6F" opacity="1.000000" stroke="none" 
	d="
M384.526123,281.014160 
	C388.943329,288.850037 390.871033,289.637695 399.339569,287.070435 
	C401.993439,286.265839 404.708893,285.664185 408.206696,284.960632 
	C426.009277,287.539124 443.001343,290.126587 459.993378,292.714050 
	C467.195892,294.793488 468.795502,297.062439 468.006866,304.507111 
	C467.642395,307.947784 467.094177,311.375946 466.471802,314.781006 
	C464.958191,323.062317 462.650879,324.797394 454.385345,324.076508 
	C453.562836,324.004761 452.738861,323.949615 451.461487,323.923767 
	C438.737183,321.968933 426.476471,319.916290 414.194214,318.001465 
	C400.419922,315.853973 386.617432,313.887238 372.844574,311.730743 
	C365.781464,310.624847 363.340729,307.518829 364.009949,300.469147 
	C364.385712,296.511322 365.127960,292.582367 365.829254,288.662628 
	C367.085480,281.641571 370.200562,279.314178 377.203461,280.088165 
	C379.509766,280.343048 381.802551,280.720490 384.526123,281.014160 
z"/>
<path fill="#EFCDB1" opacity="1.000000" stroke="none" 
	d="
M193.938599,436.120178 
	C170.646164,427.500092 149.634033,415.832764 131.159485,398.925415 
	C145.563187,398.925415 159.411118,400.061035 172.981644,398.607269 
	C186.656601,397.142303 200.056015,393.105347 212.778015,390.367096 
	C209.759171,397.295837 205.507172,404.746613 203.306610,412.760712 
	C201.146500,420.627594 201.071381,429.067017 199.999008,437.935333 
	C198.255386,437.411194 196.286942,436.819489 193.938599,436.120178 
z"/>
<path fill="#EECCB0" opacity="1.000000" stroke="none" 
	d="
M385.975220,240.975357 
	C387.280426,240.003616 388.474792,238.809998 389.907776,238.093994 
	C406.564056,229.771454 423.255402,221.519073 439.947815,213.269073 
	C440.203796,213.142578 440.590790,213.281296 441.638794,213.329376 
	C442.389252,216.403030 443.187805,219.673645 444.122620,223.502365 
	C432.010712,227.379410 420.213104,231.249634 408.352814,234.917175 
	C401.230499,237.119614 394.010437,239.005844 386.416199,241.016418 
	C385.998077,240.998657 385.975220,240.975357 385.975220,240.975357 
z"/>
<path fill="#ECC9AD" opacity="1.000000" stroke="none" 
	d="
M425.741364,335.136505 
	C429.179108,337.224243 429.179108,337.224243 426.801605,341.014099 
	C425.018707,339.312683 423.318054,337.689728 420.910126,335.391876 
	C422.999451,335.241302 424.188690,335.155609 425.741364,335.136505 
z"/>
<path fill="#EECCB0" opacity="1.000000" stroke="none" 
	d="
M386.007812,241.011642 
	C385.598206,241.141525 385.178864,241.258408 384.759552,241.375305 
	C385.014160,241.253418 385.268799,241.131546 385.749329,240.992508 
	C385.975220,240.975357 385.998077,240.998657 386.007812,241.011642 
z"/>
<path fill="#EFCDB1" opacity="1.000000" stroke="none" 
	d="
M261.997253,360.996521 
	C261.917877,361.029205 261.841217,361.065369 261.885620,361.053284 
	C262.006714,361.005066 262.000000,361.000000 261.997253,360.996521 
z"/>
<path fill="#B96340" opacity="1.000000" stroke="none" 
	d="
M191.377594,54.705803 
	C191.865875,56.504303 191.982986,58.334347 191.983139,60.164394 
	C191.991837,158.970734 191.948059,257.777161 192.120636,356.583221 
	C192.128998,361.362457 190.722717,363.572662 186.228180,364.431580 
	C177.120514,366.172150 168.054001,368.127319 158.952744,369.902802 
	C156.326950,370.415070 154.759872,369.408386 155.004074,366.421906 
	C155.112335,365.097961 155.016998,363.757507 155.016983,362.424530 
	C155.016663,265.950897 155.024490,169.477234 154.977600,73.003601 
	C154.976242,70.213127 154.395935,67.422935 154.035889,64.197578 
	C166.308090,60.754147 178.629990,57.745743 191.377594,54.705803 
z"/>
<path fill="#B96340" opacity="1.000000" stroke="none" 
	d="
M243.606354,51.143394 
	C244.034973,142.650864 243.948898,234.124176 244.132935,325.596985 
	C244.145340,331.763489 242.024338,335.584381 237.049820,338.619934 
	C228.545456,343.809479 220.187057,349.237823 211.730789,354.507172 
	C210.663467,355.172241 209.375336,355.482971 206.962280,356.449341 
	C206.962280,255.112564 206.962280,154.606201 206.950958,53.645424 
	C219.011597,52.497044 231.083572,51.803085 243.606354,51.143394 
z"/>
<path fill="#B96340" opacity="1.000000" stroke="none" 
	d="
M139.457077,69.791321 
	C139.857727,71.672150 139.982071,73.667664 139.982269,75.663193 
	C139.991791,171.586258 139.991089,267.509338 139.989563,363.432404 
	C139.989456,370.378082 139.885193,370.861420 133.061401,369.869873 
	C124.222221,368.585449 115.451340,366.690247 106.775414,364.553101 
	C105.215576,364.168854 104.009872,361.462982 103.115013,359.601074 
	C102.594627,358.518280 103.016960,356.981934 103.016960,355.649658 
	C103.016724,274.548035 102.992638,193.446381 103.089760,112.344872 
	C103.094460,108.418419 102.473412,105.136848 99.159790,102.316940 
	C110.162781,88.540665 123.597557,77.916756 139.457077,69.791321 
z"/>
<path fill="#B96340" opacity="1.000000" stroke="none" 
	d="
M295.698700,55.957909 
	C296.026062,125.276314 295.976562,194.386536 296.074554,263.496552 
	C296.080078,267.398804 295.075134,270.448212 292.762695,273.518219 
	C283.378448,285.976929 274.212250,298.599731 264.891998,311.107117 
	C263.455872,313.034363 261.634735,314.674683 258.985199,317.533752 
	C258.985199,228.027725 258.985199,140.021774 258.976807,51.554077 
	C271.096802,52.644791 283.225220,54.197235 295.698700,55.957909 
z"/>
<path fill="#B96340" opacity="1.000000" stroke="none" 
	d="
M86.650566,118.136536 
	C87.297218,119.710533 87.944679,121.437637 87.945824,123.165169 
	C87.996033,199.072144 87.990402,274.979126 87.979881,350.886139 
	C87.979675,352.349548 87.841064,353.812958 87.701012,356.581299 
	C83.374435,353.978577 79.657898,351.994354 76.218430,349.610382 
	C71.880951,346.603973 67.769585,343.271301 63.204544,340.064270 
	C62.848415,340.049194 62.928074,339.998352 62.808502,339.786682 
	C62.349621,339.397308 62.010311,339.219574 61.670994,339.041870 
	C51.065975,324.311157 44.965500,307.794495 41.984062,289.983276 
	C36.673191,258.255859 42.858822,227.704102 51.473495,197.447556 
	C59.437790,169.475266 69.882866,142.541885 86.650566,118.136536 
z"/>
<path fill="#B96340" opacity="1.000000" stroke="none" 
	d="
M349.758759,72.125122 
	C349.378815,76.034889 348.092163,79.729179 348.080872,83.427376 
	C347.942322,128.722015 347.939636,174.017395 348.076385,219.312057 
	C348.088898,223.450745 346.684387,225.825027 343.365265,228.284332 
	C333.511841,235.585220 324.047668,243.411285 314.424347,251.023224 
	C313.681854,251.610519 312.884979,252.129013 311.577881,253.061508 
	C311.343964,251.291306 311.040192,250.063660 311.039795,248.835922 
	C311.020447,186.721741 311.026581,124.607552 311.035889,62.493366 
	C311.035980,61.828861 311.114044,61.164364 311.248779,59.996040 
	C324.042786,63.631969 336.743713,67.771721 349.758759,72.125122 
z"/>
<path fill="#B96340" opacity="1.000000" stroke="none" 
	d="
M401.800903,97.837616 
	C401.326630,101.625565 400.101410,105.127724 400.081146,108.636833 
	C399.921753,136.256180 399.911499,163.877380 400.081818,191.496597 
	C400.106812,195.545975 398.918304,197.757156 395.183685,199.539474 
	C385.586975,204.119415 376.231384,209.203674 366.758667,214.045822 
	C365.931366,214.468719 364.951477,214.593170 363.105072,215.127533 
	C363.105072,169.261063 363.105072,123.948441 363.163513,78.142914 
	C376.017395,84.285019 388.812775,90.920029 401.800903,97.837616 
z"/>
<path fill="#B96340" opacity="1.000000" stroke="none" 
	d="
M444.037506,134.882889 
	C445.028778,138.324463 445.741638,141.902725 446.995972,145.279892 
	C450.890594,155.765717 448.983063,165.542236 441.119904,172.805573 
	C433.942261,179.435669 425.103119,184.267029 416.996216,189.891129 
	C416.358643,189.498428 415.721100,189.105728 415.083527,188.713028 
	C415.083527,161.707489 415.083527,134.701950 415.137634,107.208237 
	C424.448273,115.452049 433.704742,124.184052 443.094849,133.533173 
	C443.514435,134.433945 443.800385,134.717590 444.086334,135.001236 
	C444.086334,135.001236 444.006805,134.927567 444.037506,134.882889 
z"/>
<path fill="#D8AD8F" opacity="1.000000" stroke="none" 
	d="
M79.929245,359.526154 
	C85.807709,361.478851 88.597893,365.964325 89.047722,372.520172 
	C87.524567,371.266266 85.684204,369.797455 84.418365,367.937622 
	C82.697884,365.409790 81.416634,362.583038 79.929245,359.526154 
z"/>
<path fill="#A24223" opacity="1.000000" stroke="none" 
	d="
M61.825233,339.301086 
	C62.010311,339.219574 62.349621,339.397308 62.838509,339.823181 
	C62.651878,339.901001 62.315674,339.730621 61.825233,339.301086 
z"/>
<path fill="#A24223" opacity="1.000000" stroke="none" 
	d="
M444.011078,134.698288 
	C443.800385,134.717590 443.514435,134.433945 443.133972,133.854202 
	C443.338257,133.837173 443.637054,134.116257 444.011078,134.698288 
z"/>
<path fill="#D9AE91" opacity="1.000000" stroke="none" 
	d="
M324.422882,450.942932 
	C327.166931,439.307556 328.478668,427.581421 324.901306,415.444580 
	C331.449646,425.393494 339.422485,433.639252 349.937683,439.710144 
	C341.701050,443.614258 333.243896,447.252228 324.422882,450.942932 
z"/>
<path fill="#D4AE8F" opacity="1.000000" stroke="none" 
	d="
M459.994446,292.285461 
	C443.001343,290.126587 426.009277,287.539124 408.616272,284.912537 
	C422.375854,280.263672 436.530731,275.636444 450.700989,271.056732 
	C454.169922,269.935608 457.689056,268.969727 461.576477,267.921967 
	C461.310425,275.893250 460.652954,283.875092 459.994446,292.285461 
z"/>
<path fill="#8C391F" opacity="1.000000" stroke="none" 
	d="
M241.408920,443.413696 
	C233.169312,419.519592 252.070068,397.684814 275.038788,399.971771 
	C290.651093,401.526276 303.687225,415.595795 303.861145,431.806854 
	C304.035156,448.019531 290.752106,462.781799 274.919495,463.971527 
	C259.730164,465.112854 248.192108,458.126404 241.408920,443.413696 
z"/>
<path fill="#FB433A" opacity="1.000000" stroke="none" 
	d="
M402.874817,373.252991 
	C410.485626,387.214203 408.130524,403.279297 397.221863,413.300201 
	C386.146362,423.474396 370.092316,424.848328 357.552185,416.695221 
	C345.247742,408.695404 339.923096,393.199310 345.037323,378.942413 
	C349.186310,367.376343 357.629486,360.081390 369.721222,358.149078 
	C383.647186,355.923706 394.826904,361.040894 402.874817,373.252991 
z"/>
<path fill="#F8E7D3" opacity="1.000000" stroke="none" 
	d="
M322.993561,409.008636 
	C322.457001,408.567596 321.920441,408.126587 321.383850,407.685577 
	C321.704346,407.395508 322.024841,407.105438 322.345337,406.815369 
	C322.563202,407.342621 322.781067,407.869873 322.999451,408.698547 
	C323.000000,409.000000 322.993561,409.008636 322.993561,409.008636 
z"/>
<path fill="#F8E7D3" opacity="1.000000" stroke="none" 
	d="
M323.004211,408.996765 
	C323.008423,408.993561 323.419342,409.252960 323.419342,409.252960 
	C323.419342,409.252960 323.099915,409.240814 323.046753,409.124725 
	C322.993561,409.008636 323.000000,409.000000 323.004211,408.996765 
z"/>
</svg>