<svg version="1.1" id="Layer_1" xmlns="http://www.w3.org/2000/svg" xmlns:xlink="http://www.w3.org/1999/xlink" x="0px" y="0px"
	 width="100%" viewBox="0 0 512 512" enable-background="new 0 0 512 512" xml:space="preserve">
<path fill="#013F3F" opacity="1.000000" stroke="none" 
	d="
M513.000000,180.531342 
	C511.878845,183.559509 510.455139,186.031265 509.683563,188.692154 
	C502.360046,213.948090 487.589355,233.743195 466.217194,248.872223 
	C425.582550,277.636871 385.030518,306.518219 344.419830,335.316742 
	C317.082367,354.702667 289.899750,374.316589 262.256989,393.258057 
	C249.043945,402.311920 233.768158,406.362274 217.815842,408.062866 
	C196.920624,410.290436 177.246918,406.566284 158.448853,397.343597 
	C157.099670,396.681671 154.511780,397.103363 153.200897,398.021820 
	C135.122803,410.687439 117.164207,423.523712 99.184151,436.329193 
	C91.074715,442.104797 82.971397,447.889099 74.884758,453.696564 
	C50.378296,471.296051 15.912139,462.317291 3.696873,434.374207 
	C3.186594,433.206909 2.373883,432.171783 1.351030,431.037537 
	C1.000000,421.312439 1.000000,411.624878 1.000002,401.468658 
	C1.559224,400.705048 2.469477,400.535797 2.626667,400.096893 
	C7.390351,386.794769 17.803741,378.760193 28.862669,371.043213 
	C51.727749,355.087830 74.261032,338.657135 97.113434,322.683228 
	C100.779541,320.120605 100.235947,316.991455 99.843468,313.891907 
	C97.981194,299.184753 99.291237,284.911011 103.434120,270.612396 
	C107.292534,257.295593 113.330139,245.332764 121.769455,234.480499 
	C129.993744,223.904678 140.238098,215.604507 151.139069,207.908966 
	C191.681198,179.288147 232.091919,150.481003 272.522705,121.702713 
	C296.592010,104.570396 320.443451,87.126411 344.705048,70.271988 
	C360.102325,59.575558 377.344604,53.594208 396.198242,51.888466 
	C426.447144,49.151756 453.123444,57.813309 476.141602,77.012405 
	C494.109985,91.999573 505.648529,111.432251 511.022919,134.357697 
	C511.231232,135.246124 511.838715,136.040955 512.630127,136.939697 
	C513.000000,151.354233 513.000000,165.708450 513.000000,180.531342 
M129.170914,297.581299 
	C128.854462,308.329132 130.244934,318.755219 134.984955,329.232788 
	C149.443939,364.665009 184.180252,384.119080 221.374069,376.789642 
	C229.847458,375.119873 238.717804,372.112854 245.800446,367.339752 
	C271.302551,350.153442 296.118439,331.948853 321.839630,313.947876 
	C333.287506,305.703613 344.735352,297.459381 356.829498,288.990234 
	C387.760712,266.995728 418.761078,245.097687 449.601227,222.976242 
	C474.375610,205.205750 486.167053,180.963867 482.849213,150.551971 
	C480.109772,125.441772 467.465515,105.958176 445.349396,92.384888 
	C444.887695,92.236320 444.426025,92.087746 443.990295,92.015808 
	C443.990295,92.015808 444.067230,91.990746 443.706635,91.387482 
	C415.329559,76.189163 381.137726,79.034515 357.467133,98.816101 
	C346.302887,106.840935 335.138641,114.865768 323.305573,123.068420 
	C321.398102,124.405579 319.482239,125.730995 317.584320,127.081612 
	C266.590027,163.370667 215.617523,199.690475 164.589554,235.932129 
	C153.000519,244.163010 143.216660,253.884811 136.822342,267.601746 
	C132.299957,276.747345 129.793198,286.409637 129.170914,297.581299 
M108.803619,391.980804 
	C115.907738,386.920868 123.011864,381.860931 129.687836,377.105957 
	C123.093758,368.035278 116.892006,359.504303 110.372719,350.536499 
	C103.950401,355.336639 97.467712,360.181885 90.312050,365.167236 
	C72.546219,377.766632 54.698910,390.253387 37.053356,403.019012 
	C29.655552,408.370911 28.375481,417.809052 33.443199,425.176056 
	C38.494057,432.518616 47.972153,434.935364 55.398106,429.795715 
	C73.154915,417.505920 90.584396,404.743195 108.803619,391.980804 
z"/>
<path fill="#FEAE2A" opacity="1.000000" stroke="none" 
	d="
M445.587311,92.815765 
	C467.465515,105.958176 480.109772,125.441772 482.849213,150.551971 
	C486.167053,180.963867 474.375610,205.205750 449.601227,222.976242 
	C418.761078,245.097687 387.760712,266.995728 356.074097,289.050171 
	C353.843109,288.900635 352.367188,288.693024 350.891876,288.481384 
	C342.702332,287.306580 334.544617,285.590851 326.314545,285.107849 
	C318.172028,284.630096 312.050049,291.539154 311.962738,299.682037 
	C311.888611,306.594543 316.426178,310.396484 321.193573,314.128937 
	C296.118439,331.948853 271.302551,350.153442 245.800446,367.339752 
	C238.717804,372.112854 229.847458,375.119873 221.374069,376.789642 
	C184.180252,384.119080 149.443939,364.665009 135.042511,328.414825 
	C136.326355,318.452454 137.552658,309.308044 139.219299,300.134033 
	C142.080872,299.731354 144.689835,299.813843 146.891098,298.906891 
	C156.866730,294.796753 158.545776,283.957214 151.126160,273.561462 
	C158.408386,263.038055 167.402618,254.781845 177.560867,247.600708 
	C209.624435,224.934052 241.556824,202.081909 273.574921,179.350830 
	C293.104187,165.486130 312.697815,151.712051 332.655090,137.930099 
	C344.885223,140.866867 351.797668,136.404968 354.197021,124.332802 
	C354.422913,123.196320 354.773285,122.084579 355.388245,120.860703 
	C362.363861,116.096703 368.944977,111.326111 375.686035,106.793350 
	C388.000092,98.513245 401.465210,92.946518 416.328613,91.909470 
	C425.528137,91.267616 434.817963,91.919579 444.067230,91.990746 
	C444.067230,91.990746 443.990295,92.015808 444.099487,92.190445 
	C444.668243,92.515305 445.127777,92.665535 445.587311,92.815765 
M395.905487,124.026649 
	C382.101837,125.999748 371.057129,132.423874 363.804077,144.523102 
	C357.513062,155.017548 354.901825,166.624191 353.902771,178.743774 
	C353.331390,185.675537 352.579987,192.698929 350.832764,199.400314 
	C348.655670,207.750549 343.490875,211.694489 335.035553,210.852524 
	C325.506439,209.903625 316.108154,207.567978 306.679535,205.701202 
	C294.924408,203.373779 283.182129,202.355728 271.811920,207.132401 
	C254.603531,214.361725 246.549225,228.710480 243.201614,246.044174 
	C241.443069,255.149750 241.212097,264.539185 239.870087,273.739014 
	C237.922256,287.091736 232.799103,291.482727 219.493454,290.940399 
	C214.402740,290.732880 209.346359,289.341248 204.304962,288.335663 
	C193.250183,286.130524 184.341980,293.178680 185.035629,303.776093 
	C185.433868,309.860779 188.770096,314.552063 194.230255,316.398132 
	C208.294128,321.153168 222.840805,323.426666 237.390778,318.930847 
	C258.383728,312.444214 267.080841,296.173248 269.952789,275.829895 
	C271.205963,266.953186 271.650421,257.950409 273.167114,249.126053 
	C274.771149,239.793259 279.572693,234.872757 286.925354,234.165573 
	C290.202545,233.850372 293.636139,233.911407 296.860016,234.527588 
	C306.327454,236.337158 315.642639,239.125351 325.168640,240.405899 
	C341.901367,242.655304 357.600739,239.873856 369.556000,226.685196 
	C378.656311,216.646118 381.739746,204.072266 383.094543,190.880493 
	C383.974792,182.309555 384.918732,173.661591 386.935974,165.314423 
	C388.962128,156.930557 393.738831,153.724533 402.319946,154.083313 
	C407.912994,154.317169 413.456299,155.683899 419.028473,156.498215 
	C421.465912,156.854431 423.987091,157.610641 426.353760,157.299469 
	C434.149170,156.274551 439.372467,150.761139 439.917664,143.546783 
	C440.421448,136.880798 435.932953,130.498550 428.818359,128.133179 
	C418.436493,124.681557 407.759430,123.287270 395.905487,124.026649 
z"/>
<path fill="#FDE4C0" opacity="1.000000" stroke="none" 
	d="
M332.262512,137.897278 
	C312.697815,151.712051 293.104187,165.486130 273.574921,179.350830 
	C241.556824,202.081909 209.624435,224.934052 177.560867,247.600708 
	C167.402618,254.781845 158.408386,263.038055 150.817047,273.433868 
	C145.965866,271.390991 141.598282,269.196198 137.230698,267.001434 
	C143.216660,253.884811 153.000519,244.163010 164.589554,235.932129 
	C215.617523,199.690475 266.590027,163.370667 317.584320,127.081612 
	C319.482239,125.730995 321.398102,124.405579 323.685852,123.379684 
	C324.087372,129.990463 327.808624,134.155228 332.262512,137.897278 
z"/>
<path fill="#E0E0E0" opacity="1.000000" stroke="none" 
	d="
M108.146027,392.171387 
	C90.584396,404.743195 73.154915,417.505920 55.398106,429.795715 
	C47.972153,434.935364 38.494057,432.518616 33.443199,425.176056 
	C28.375481,417.809052 29.655552,408.370911 37.053356,403.019012 
	C54.698910,390.253387 72.546219,377.766632 90.601608,365.524994 
	C91.902657,369.863190 91.899178,374.587158 94.149979,377.659760 
	C98.085220,383.031799 103.405891,387.388947 108.146027,392.171387 
z"/>
<path fill="#FDE4BF" opacity="1.000000" stroke="none" 
	d="
M443.886932,91.689117 
	C434.817963,91.919579 425.528137,91.267616 416.328613,91.909470 
	C401.465210,92.946518 388.000092,98.513245 375.686035,106.793350 
	C368.944977,111.326111 362.363861,116.096703 355.378601,120.445938 
	C356.079010,112.923813 357.111450,105.715797 358.143890,98.507782 
	C381.137726,79.034515 415.329559,76.189163 443.886932,91.689117 
z"/>
<path fill="#A8A9A9" opacity="1.000000" stroke="none" 
	d="
M108.474823,392.076111 
	C103.405891,387.388947 98.085220,383.031799 94.149979,377.659760 
	C91.899178,374.587158 91.902657,369.863190 90.938103,365.454956 
	C97.467712,360.181885 103.950401,355.336639 110.372719,350.536499 
	C116.892006,359.504303 123.093758,368.035278 129.687836,377.105957 
	C123.011864,381.860931 115.907738,386.920868 108.474823,392.076111 
z"/>
<path fill="#CC7E0B" opacity="1.000000" stroke="none" 
	d="
M357.805511,98.661942 
	C357.111450,105.715797 356.079010,112.923813 355.056213,120.546585 
	C354.773285,122.084579 354.422913,123.196320 354.197021,124.332802 
	C351.797668,136.404968 344.885223,140.866867 332.655090,137.930099 
	C327.808624,134.155228 324.087372,129.990463 324.020264,123.290779 
	C335.138641,114.865768 346.302887,106.840935 357.805511,98.661942 
z"/>
<path fill="#CB7D0B" opacity="1.000000" stroke="none" 
	d="
M321.516602,314.038391 
	C316.426178,310.396484 311.888611,306.594543 311.962738,299.682037 
	C312.050049,291.539154 318.172028,284.630096 326.314545,285.107849 
	C334.544617,285.590851 342.702332,287.306580 350.891876,288.481384 
	C352.367188,288.693024 353.843109,288.900635 355.750977,289.162628 
	C344.735352,297.459381 333.287506,305.703613 321.516602,314.038391 
z"/>
<path fill="#CB7D0B" opacity="1.000000" stroke="none" 
	d="
M137.026520,267.301575 
	C141.598282,269.196198 145.965866,271.390991 150.642548,273.713379 
	C158.545776,283.957214 156.866730,294.796753 146.891098,298.906891 
	C144.689835,299.813843 142.080872,299.731354 138.869171,300.056244 
	C135.181320,298.875427 132.283936,297.742828 129.386551,296.610229 
	C129.793198,286.409637 132.299957,276.747345 137.026520,267.301575 
z"/>
<path fill="#F8E0BB" opacity="1.000000" stroke="none" 
	d="
M129.278732,297.095764 
	C132.283936,297.742828 135.181320,298.875427 138.428833,300.085815 
	C137.552658,309.308044 136.326355,318.452454 135.053680,328.071289 
	C130.244934,318.755219 128.854462,308.329132 129.278732,297.095764 
z"/>
<path fill="#FDE4BF" opacity="1.000000" stroke="none" 
	d="
M445.468353,92.600327 
	C445.127777,92.665535 444.668243,92.515305 444.086517,92.152130 
	C444.426025,92.087746 444.887695,92.236320 445.468353,92.600327 
z"/>
<path fill="#CC7D0A" opacity="1.000000" stroke="none" 
	d="
M396.365295,124.010078 
	C407.759430,123.287270 418.436493,124.681557 428.818359,128.133179 
	C435.932953,130.498550 440.421448,136.880798 439.917664,143.546783 
	C439.372467,150.761139 434.149170,156.274551 426.353760,157.299469 
	C423.987091,157.610641 421.465912,156.854431 419.028473,156.498215 
	C413.456299,155.683899 407.912994,154.317169 402.319946,154.083313 
	C393.738831,153.724533 388.962128,156.930557 386.935974,165.314423 
	C384.918732,173.661591 383.974792,182.309555 383.094543,190.880493 
	C381.739746,204.072266 378.656311,216.646118 369.556000,226.685196 
	C357.600739,239.873856 341.901367,242.655304 325.168640,240.405899 
	C315.642639,239.125351 306.327454,236.337158 296.860016,234.527588 
	C293.636139,233.911407 290.202545,233.850372 286.925354,234.165573 
	C279.572693,234.872757 274.771149,239.793259 273.167114,249.126053 
	C271.650421,257.950409 271.205963,266.953186 269.952789,275.829895 
	C267.080841,296.173248 258.383728,312.444214 237.390778,318.930847 
	C222.840805,323.426666 208.294128,321.153168 194.230255,316.398132 
	C188.770096,314.552063 185.433868,309.860779 185.035629,303.776093 
	C184.341980,293.178680 193.250183,286.130524 204.304962,288.335663 
	C209.346359,289.341248 214.402740,290.732880 219.493454,290.940399 
	C232.799103,291.482727 237.922256,287.091736 239.870087,273.739014 
	C241.212097,264.539185 241.443069,255.149750 243.201614,246.044174 
	C246.549225,228.710480 254.603531,214.361725 271.811920,207.132401 
	C283.182129,202.355728 294.924408,203.373779 306.679535,205.701202 
	C316.108154,207.567978 325.506439,209.903625 335.035553,210.852524 
	C343.490875,211.694489 348.655670,207.750549 350.832764,199.400314 
	C352.579987,192.698929 353.331390,185.675537 353.902771,178.743774 
	C354.901825,166.624191 357.513062,155.017548 363.804077,144.523102 
	C371.057129,132.423874 382.101837,125.999748 396.365295,124.010078 
z"/>
</svg>