<svg version="1.1" id="Layer_1" xmlns="http://www.w3.org/2000/svg" xmlns:xlink="http://www.w3.org/1999/xlink" x="0px" y="0px"
	 width="100%" viewBox="0 0 512 512" enable-background="new 0 0 512 512" xml:space="preserve">
<path fill="none" opacity="1.000000" stroke="none" 
	d="
M275.000000,513.000000 
	C183.698792,513.000000 92.397568,513.000000 1.048178,513.000000 
	C1.048178,342.425476 1.048178,171.850952 1.048178,1.000000 
	C146.356537,1.000000 291.713257,1.000000 437.431274,1.338179 
	C432.737885,3.840646 429.017548,7.192690 427.617706,12.755541 
	C427.330170,13.898333 426.755554,15.133425 425.938629,15.952226 
	C419.895721,22.009039 413.757996,27.971220 407.097412,34.505356 
	C406.157715,34.234203 403.851074,33.617916 401.575287,32.903267 
	C392.254395,29.976259 385.998047,33.834003 382.307892,39.517345 
	C378.122070,45.964020 379.154083,56.062572 384.740051,60.117840 
	C388.357056,62.743652 392.635345,64.442581 396.377411,66.919312 
	C398.066071,68.036972 399.170074,70.038017 400.539368,71.638268 
	C400.171448,71.957634 399.803528,72.276993 399.435608,72.596352 
	C383.170471,61.615002 365.999390,52.372707 347.685944,45.248859 
	C323.751251,35.938377 298.895233,30.664234 273.355682,29.115473 
	C251.609955,27.796776 229.961639,29.716246 208.593307,34.073425 
	C204.467468,34.914715 201.188446,37.293434 202.032928,42.297863 
	C203.029465,48.203388 204.208908,54.082649 205.477859,59.936710 
	C208.627121,74.465347 211.872375,88.973175 215.033997,103.285370 
	C205.851181,104.217957 196.676392,104.194511 187.971237,106.204788 
	C156.093979,113.566170 130.268723,130.332840 111.757469,157.664154 
	C95.604599,181.513351 89.584450,208.061920 90.984909,236.553802 
	C91.090599,238.704041 91.514946,241.001724 90.954842,242.995987 
	C86.124886,260.193451 83.950584,277.792206 83.096794,295.550629 
	C82.797485,301.776306 83.397102,308.085938 84.053917,314.307861 
	C85.217850,325.333557 85.890968,336.509308 88.277382,347.288452 
	C94.379341,374.850250 105.704643,400.294128 122.085419,423.344482 
	C133.191238,438.972107 146.031738,453.149963 160.903946,465.229675 
	C175.249619,476.881683 190.902832,486.621704 207.761581,494.399811 
	C223.701141,501.753876 240.251709,506.983704 257.522156,510.001282 
	C263.344971,511.018646 269.173889,512.001404 275.000000,513.000000 
M12.998782,437.500000 
	C13.331294,452.082550 13.355974,466.680603 14.087233,481.243103 
	C14.751905,494.479584 27.140268,504.325195 39.528687,504.951599 
	C56.816177,505.825775 69.955101,493.524139 69.975052,474.957794 
	C70.043251,411.468536 69.993568,347.979218 70.007729,284.489899 
	C70.010513,272.005341 65.582329,262.065948 54.123604,255.941742 
	C53.179714,255.437271 52.104233,254.067810 52.095585,253.091370 
	C51.966187,238.480026 52.006062,223.867188 52.006062,209.269211 
	C70.243546,208.983261 78.637650,197.150223 77.990097,181.528427 
	C77.375023,166.690353 76.413963,151.861938 76.073486,137.018509 
	C75.741112,122.528580 76.023758,108.024971 75.969193,93.527618 
	C75.963181,91.932091 75.493469,90.341187 75.276306,88.743042 
	C74.633644,84.013458 71.083290,83.529343 67.587746,84.129646 
	C64.383362,84.679947 62.861649,87.096825 62.947052,90.625679 
	C63.120377,97.786942 62.998798,104.955353 62.998791,112.120811 
	C62.998783,119.030418 62.998791,125.940025 62.998791,132.735809 
	C57.753887,131.966095 53.112537,131.284958 48.001217,130.534851 
	C48.001217,129.046722 48.001217,127.423996 48.001217,125.801262 
	C48.001217,114.303200 48.001320,102.805130 48.001171,91.307068 
	C48.001083,84.385490 46.102390,81.270988 41.731628,81.021881 
	C37.866146,80.801575 34.998913,85.112404 34.998833,91.145302 
	C34.998680,102.643364 34.998783,114.141434 34.998783,125.639496 
	C34.998783,127.393921 34.998783,129.148346 34.998783,130.527542 
	C29.628628,131.321136 24.989292,132.006729 20.001209,132.743851 
	C20.001209,118.907417 20.030664,105.096596 19.960361,91.286285 
	C19.952429,89.728004 19.889915,87.348358 18.969929,86.780960 
	C16.803391,85.444756 13.225394,83.581757 11.818655,84.469017 
	C9.537620,85.907722 7.338248,89.313049 7.188969,92.003769 
	C5.997439,113.480637 8.499218,135.024780 5.230208,156.532806 
	C3.843898,165.653854 4.907181,175.162308 5.022734,184.492645 
	C5.158921,195.489136 10.757496,204.108795 20.389643,207.654480 
	C23.648903,208.854248 27.306284,208.972473 30.997755,209.623032 
	C30.997755,223.947998 31.045053,238.261047 30.908224,252.572342 
	C30.897243,253.720795 29.897280,255.351685 28.885225,255.923355 
	C17.506304,262.350769 13.028758,272.511169 13.017542,285.025543 
	C12.972286,335.516968 12.998783,386.008514 12.998782,437.500000 
z"/>
<path fill="#35383B" opacity="1.000000" stroke="none" 
	d="
M275.468658,513.000000 
	C269.173889,512.001404 263.344971,511.018646 257.522156,510.001282 
	C240.251709,506.983704 223.701141,501.753876 207.761581,494.399811 
	C190.902832,486.621704 175.249619,476.881683 160.903946,465.229675 
	C146.031738,453.149963 133.191238,438.972107 122.085419,423.344482 
	C105.704643,400.294128 94.379341,374.850250 88.277382,347.288452 
	C85.890968,336.509308 85.217850,325.333557 84.053917,314.307861 
	C83.397102,308.085938 82.797485,301.776306 83.096794,295.550629 
	C83.950584,277.792206 86.124886,260.193451 90.954842,242.995987 
	C91.514946,241.001724 91.090599,238.704041 90.984909,236.553802 
	C89.584450,208.061920 95.604599,181.513351 111.757469,157.664154 
	C130.268723,130.332840 156.093979,113.566170 187.971237,106.204788 
	C196.676392,104.194511 205.851181,104.217957 215.033997,103.285370 
	C211.872375,88.973175 208.627121,74.465347 205.477859,59.936710 
	C204.208908,54.082649 203.029465,48.203388 202.032928,42.297863 
	C201.188446,37.293434 204.467468,34.914715 208.593307,34.073425 
	C229.961639,29.716246 251.609955,27.796776 273.355682,29.115473 
	C298.895233,30.664234 323.751251,35.938377 347.685944,45.248859 
	C365.999390,52.372707 383.170471,61.615002 399.435608,72.596352 
	C399.803528,72.276993 400.171448,71.957634 400.539368,71.638268 
	C399.170074,70.038017 398.066071,68.036972 396.377411,66.919312 
	C392.635345,64.442581 388.357056,62.743652 384.740051,60.117840 
	C379.154083,56.062572 378.122070,45.964020 382.307892,39.517345 
	C385.998047,33.834003 392.254395,29.976259 401.575287,32.903267 
	C403.851074,33.617916 406.157715,34.234203 407.097412,34.505356 
	C413.757996,27.971220 419.895721,22.009039 425.938629,15.952226 
	C426.755554,15.133425 427.330170,13.898333 427.617706,12.755541 
	C429.017548,7.192690 432.737885,3.840646 437.896301,1.338179 
	C441.361298,1.000000 444.722565,1.000000 448.657288,1.347718 
	C457.888672,4.310536 460.713074,12.480453 465.426636,18.859058 
	C475.505615,8.227069 489.827637,13.429121 493.560913,23.285561 
	C495.194214,27.597797 496.051514,32.551159 495.830261,37.144455 
	C495.404175,45.989590 493.959778,54.785675 492.905823,63.876659 
	C493.932190,64.161903 495.669800,64.515419 497.313080,65.123703 
	C504.720642,67.865723 510.435669,77.182816 508.771118,83.581070 
	C505.836700,94.860657 497.140503,99.576637 486.329041,96.616310 
	C472.557526,92.845451 461.019684,96.118965 451.198975,106.285851 
	C447.009949,110.622467 447.102448,110.353127 452.231689,114.070839 
	C464.474396,122.944595 473.923065,133.788513 476.031189,149.530106 
	C476.589081,153.696060 476.471008,158.223572 478.134003,161.924164 
	C485.883514,179.168716 493.282715,196.496643 497.541016,215.007309 
	C498.595520,219.591141 500.631744,224.157959 496.407043,228.308548 
	C496.116486,228.593994 496.606659,229.708466 496.779663,230.426361 
	C499.918488,243.451874 503.710327,256.363007 506.008514,269.534821 
	C507.917175,280.474182 508.522797,291.707092 508.837860,302.834534 
	C509.040344,309.987000 508.139954,317.265900 506.903931,324.343140 
	C504.679077,337.082520 502.462067,349.882965 499.105225,362.351898 
	C492.990692,385.064392 481.922333,405.403931 468.282227,424.572662 
	C456.763763,440.759827 443.330292,455.025085 427.949188,467.336731 
	C413.396271,478.985504 397.542694,488.789276 380.213928,495.984863 
	C364.805420,502.383087 349.131744,507.816254 332.487640,510.059204 
	C326.960052,510.804077 321.494110,512.006653 316.000000,513.000000 
	C302.645782,513.000000 289.291534,513.000000 275.468658,513.000000 
M416.243103,301.224365 
	C416.222565,302.394226 415.707489,303.943085 416.264679,304.670258 
	C419.111176,308.385162 422.234497,311.887970 425.260986,315.464966 
	C425.650208,315.392883 426.039398,315.320770 426.428619,315.248688 
	C426.428619,310.536530 426.428619,305.824402 426.637207,300.270142 
	C426.305939,295.097137 425.974670,289.924164 425.643372,284.751160 
	C425.251251,284.673401 424.859100,284.595642 424.466949,284.517883 
	C421.890625,289.956146 419.314301,295.394409 416.243103,301.224365 
M416.050049,123.966766 
	C416.050049,123.966766 416.129669,123.925156 415.861237,123.269760 
	C414.175568,119.763573 412.489899,116.257393 410.472137,112.060501 
	C401.535828,111.596634 391.826965,111.470612 382.328156,117.083511 
	C373.414642,122.325394 367.487793,129.839294 364.443451,140.474228 
	C359.969421,158.312393 355.495422,176.150558 350.655121,194.627502 
	C350.159180,196.709915 349.663239,198.792313 349.129486,201.033554 
	C353.363068,200.924332 358.204926,199.319794 360.077942,204.420410 
	C360.814453,206.426056 359.807587,211.118607 358.856628,211.334335 
	C355.208954,212.161850 351.261841,211.669296 346.899475,211.669296 
	C345.847351,216.393845 344.319824,222.520477 343.219696,228.722900 
	C342.953735,230.222366 343.806000,232.147339 344.653687,233.573792 
	C347.029938,237.572449 346.255524,240.680038 342.288910,243.186462 
	C341.063873,243.960526 339.812256,245.378967 339.468384,246.730255 
	C338.498444,250.541595 337.993500,254.471252 337.261017,258.604095 
	C357.044250,263.650391 375.106354,271.765747 391.856812,282.966675 
	C396.713440,286.214264 402.413483,288.200592 408.116699,290.953247 
	C411.782928,283.617737 415.011230,277.158447 418.343842,270.490479 
	C416.602844,269.827423 415.385345,269.322937 414.140991,268.896820 
	C408.640106,267.013092 403.089966,265.263641 397.641693,263.239471 
	C394.517914,262.078918 392.762146,259.809814 393.725067,256.214783 
	C394.753174,252.376328 397.495239,251.350967 401.031738,252.052231 
	C402.972687,252.437134 404.832825,253.231064 406.728241,253.844147 
	C412.348938,255.662186 417.969116,257.481964 423.753693,259.354248 
	C426.955414,252.511902 429.889893,246.240677 432.965851,239.667130 
	C425.926300,237.314926 419.294556,235.216949 412.754486,232.864059 
	C409.470215,231.682495 407.279449,229.353317 408.642578,225.561539 
	C409.945343,221.937576 412.535004,220.319077 416.507416,221.666901 
	C421.857513,223.482162 427.390350,224.857986 432.554626,227.092896 
	C437.392151,229.186386 439.624237,227.629456 441.073914,222.366486 
	C442.980713,218.025162 444.887512,213.683823 446.979187,208.921600 
	C444.598694,208.109818 442.902191,207.524429 441.201141,206.952438 
	C435.845551,205.151596 430.351807,203.665207 425.203491,201.395020 
	C423.328918,200.568436 421.488312,198.028214 421.103149,195.991623 
	C420.808533,194.433914 422.412018,191.705872 423.934052,190.841415 
	C425.493286,189.955765 428.111908,190.254379 430.038300,190.817017 
	C437.305878,192.939682 444.480530,195.380630 452.132446,197.844955 
	C454.880676,190.926529 457.413452,184.550385 460.047150,177.920258 
	C452.166534,175.271362 444.975098,172.702713 437.684265,170.456680 
	C432.825653,168.959946 430.809326,166.124359 432.671661,160.702225 
	C434.676788,158.104614 437.126770,157.692413 440.201385,158.741882 
	C447.878754,161.362442 455.621307,163.792175 463.614075,166.388260 
	C465.842163,157.990768 464.851746,150.349411 461.020599,142.401733 
	C460.728790,142.191956 460.436951,141.982178 460.294617,141.845154 
	C460.294617,141.845154 460.356354,141.690796 460.256805,141.010178 
	C455.950531,132.858505 449.229156,127.175591 442.439789,122.888046 
	C437.771637,125.111847 433.830658,126.989235 429.100342,128.797348 
	C425.124969,127.514946 421.149597,126.232544 416.956085,124.437630 
	C416.645050,124.252129 416.333984,124.066628 416.050049,123.966766 
M485.252167,83.621704 
	C486.184540,83.734047 487.116943,83.846390 488.755493,84.261513 
	C491.519653,85.087196 494.730438,86.210030 495.855835,82.412010 
	C497.039093,78.418633 493.805267,77.469231 490.728088,76.667419 
	C471.259338,71.594498 453.977203,75.584854 438.333801,89.295517 
	C431.980591,95.360481 427.314514,102.554085 424.653534,110.894310 
	C424.233643,112.210320 425.371674,115.061989 426.513062,115.566536 
	C427.847809,116.156578 430.473938,115.482895 431.634186,114.393204 
	C433.103668,113.013016 433.664459,110.663368 434.611267,108.728935 
	C438.175140,101.447525 443.172791,95.497505 449.920502,90.836548 
	C460.329163,83.646835 471.889832,82.180565 484.376740,83.150749 
	C484.376740,83.150749 484.720642,83.142029 485.252167,83.621704 
M465.837036,222.944046 
	C472.221771,221.523666 478.606476,220.103287 485.813934,218.499878 
	C481.342255,205.527985 477.136414,193.327301 472.930573,181.126617 
	C472.448181,181.255234 471.965820,181.383835 471.483429,181.512451 
	C467.926453,190.258926 464.369476,199.005417 460.312958,208.252472 
	C459.273651,210.495728 458.035065,212.671326 457.244873,214.999146 
	C456.231964,217.982925 455.579834,221.089203 454.772278,224.142700 
	C458.193756,223.728394 461.615204,223.314087 465.837036,222.944046 
M260.808777,257.058899 
	C265.903229,256.351410 271.045471,255.869019 276.063751,254.802811 
	C277.621155,254.471909 279.676575,252.783234 280.071289,251.327667 
	C281.711700,245.277847 282.804962,239.079666 284.405548,232.227814 
	C284.508301,230.136536 284.611084,228.045273 284.851105,225.169174 
	C284.590485,223.122238 284.329865,221.075302 284.120300,218.160049 
	C281.473541,209.521103 280.094910,200.209808 275.938843,192.371078 
	C264.144714,170.126144 245.469467,157.119980 219.245010,154.516708 
	C217.144485,154.410126 215.043961,154.303543 212.113800,154.080414 
	C209.729813,154.314316 207.345810,154.548233 204.097458,154.777252 
	C200.363892,155.508560 196.568863,156.013351 192.906570,157.007309 
	C165.487778,164.448914 143.253464,191.114838 141.529587,218.755157 
	C141.449966,221.143158 141.370346,223.531143 141.147247,226.738510 
	C141.363174,228.831161 141.579102,230.923828 141.773254,233.888977 
	C145.220001,261.010925 159.647385,280.107788 184.226746,291.655640 
	C185.488617,292.248505 187.701691,291.895264 188.977051,291.143250 
	C191.224060,289.818298 193.088791,287.845062 195.738647,285.872955 
	C201.544830,282.028870 207.351013,278.184784 213.842117,274.112976 
	C228.411392,266.256805 243.956512,261.037079 260.808777,257.058899 
M219.767441,66.981346 
	C220.391708,69.996475 221.015976,73.011597 221.693726,76.285019 
	C224.210922,75.954048 226.172806,75.754135 228.114380,75.431961 
	C250.975815,71.638443 273.818756,72.171471 296.503693,76.484398 
	C321.035034,81.148369 344.248993,89.768456 365.138489,103.475586 
	C371.877838,107.897774 376.863556,107.836960 382.768646,103.561806 
	C382.900635,103.466240 382.996033,103.320168 383.898102,103.121971 
	C391.466583,101.700851 399.035065,100.279732 407.299652,98.727898 
	C405.616547,96.228493 404.426575,93.021057 402.126587,91.280113 
	C387.366547,80.107758 371.713867,70.362968 354.798615,62.697067 
	C327.801361,50.462036 299.444794,43.868206 269.931122,42.289116 
	C251.617126,41.309250 233.445816,42.916424 214.984863,46.567310 
	C216.603882,53.306374 218.147110,59.730049 219.767441,66.981346 
M226.164322,96.804863 
	C226.473297,98.264687 226.874939,99.712128 227.071915,101.186913 
	C227.477478,104.223473 228.903839,105.612183 232.182129,106.054886 
	C246.487518,107.986687 259.878418,112.787766 272.411285,119.925720 
	C294.883942,132.724762 311.519287,151.022263 323.239319,174.722763 
	C327.202484,186.767899 331.165649,198.813034 334.814117,209.901688 
	C336.709717,201.564606 338.568085,191.951904 341.108612,182.523041 
	C346.114441,163.944412 351.498718,145.467773 357.130432,126.378738 
	C358.783875,123.901993 360.337891,121.350723 362.121490,118.971550 
	C363.607666,116.989090 363.408691,115.713966 360.628876,114.351318 
	C318.710663,88.740021 273.681122,79.603027 224.502304,88.362221 
	C225.141479,91.275299 225.663528,93.654518 226.164322,96.804863 
M103.905190,226.963135 
	C104.662514,269.639771 125.176666,300.370728 161.212677,322.319489 
	C166.725647,315.261261 171.950851,308.571472 177.281799,301.746277 
	C146.910675,285.122345 130.388977,260.305237 129.004578,225.068268 
	C129.319687,221.600281 129.538055,218.120331 129.965561,214.666260 
	C132.813934,191.651550 144.016846,173.312149 161.990601,159.134216 
	C176.822861,147.434311 193.969040,141.771484 213.821243,141.825378 
	C259.063416,141.587112 296.907501,179.527069 297.008545,226.869781 
	C295.682556,235.773712 294.356567,244.677658 293.041626,253.507370 
	C300.544159,253.986481 308.287964,254.592606 316.043182,254.839264 
	C317.046539,254.871155 318.873749,253.149567 319.022980,252.062271 
	C320.211029,243.407822 321.085907,234.710373 322.104706,225.090118 
	C322.559357,212.328781 320.412964,199.982208 316.002136,188.035629 
	C309.310608,169.911804 298.722321,154.558197 283.783569,142.144363 
	C263.212646,125.050308 239.749954,116.123215 212.044876,116.032822 
	C150.412842,116.344177 102.114311,168.550034 103.905190,226.963135 
M156.048370,392.794678 
	C158.159424,400.093323 159.332504,407.842468 162.576523,414.596985 
	C169.362244,428.725800 182.198441,435.796204 196.510223,440.484222 
	C216.855560,447.148651 238.000504,448.628632 259.126007,448.810699 
	C290.427582,449.080444 321.754456,448.783173 353.038727,447.757690 
	C370.494659,447.185486 387.830811,444.318054 404.005768,436.972656 
	C422.896667,428.393921 433.640472,413.982117 435.251678,392.202332 
	C436.464600,379.504120 435.362518,367.065308 431.083588,354.204865 
	C421.269470,322.759827 400.349854,300.603973 372.144958,284.976624 
	C341.600220,268.052856 308.631348,262.682037 274.206268,267.226715 
	C237.097839,272.125671 205.183105,287.504547 180.764084,316.572144 
	C171.614548,327.463440 164.408768,339.574738 160.226929,354.106445 
	C156.442795,366.469147 154.991714,379.081390 156.048370,392.794678 
M295.100128,461.726044 
	C280.272949,461.444489 265.439514,461.344666 250.620102,460.836487 
	C230.944427,460.161743 211.395767,458.327057 192.542664,452.131470 
	C177.364380,447.143524 164.014130,439.516205 154.825577,425.828552 
	C143.223297,408.545380 142.057663,389.197845 144.853546,369.650085 
	C146.619492,357.303162 150.931564,345.320374 154.304352,332.397308 
	C129.307175,318.545441 110.732552,297.219818 98.745880,269.806305 
	C97.435440,276.104889 96.324081,282.021912 96.264481,287.949493 
	C96.152420,299.095276 95.919876,310.319519 97.020149,321.383606 
	C101.104965,362.459503 116.840897,398.804596 143.422485,430.298218 
	C167.943832,459.350891 198.479172,479.836639 234.624069,491.594299 
	C254.493423,498.057617 274.910614,501.910339 296.906067,501.158295 
	C374.803497,498.766541 433.737640,463.566193 471.596436,395.987549 
	C501.020447,343.465210 503.683960,287.708191 483.074493,230.782379 
	C470.993683,233.434402 459.652313,235.838821 448.375763,238.516205 
	C447.082550,238.823257 445.779114,240.470642 445.115265,241.811005 
	C441.869415,248.364548 438.651123,254.946442 435.838623,261.691559 
	C434.910767,263.916840 434.586304,266.795288 435.078186,269.146576 
	C438.583954,285.905029 439.904816,302.777252 437.083405,319.692902 
	C435.703308,327.967407 436.045532,335.406067 439.849976,343.141327 
	C442.734192,349.005463 444.160675,355.699524 445.529938,362.173553 
	C448.956177,378.373199 449.011627,394.660095 444.002411,410.533356 
	C436.635773,433.876923 418.860687,446.039673 396.601074,452.843842 
	C377.010529,458.832153 356.783325,460.430786 336.439972,460.988190 
	C322.963562,461.357483 309.484894,461.644073 295.100128,461.726044 
M419.732574,72.885284 
	C421.625702,76.923981 423.518799,80.962677 425.404419,84.985374 
	C432.172699,78.702965 432.173309,78.702637 427.931976,70.760208 
	C427.618958,70.174034 427.300598,69.589958 426.962769,69.017899 
	C420.290192,57.719017 410.891052,49.599686 398.448181,45.372425 
	C396.895447,44.844906 394.575378,46.576199 392.610840,47.260868 
	C393.449829,48.987198 394.048889,50.904282 395.214722,52.370762 
	C395.954437,53.301205 397.527649,53.583508 398.743805,54.118382 
	C407.533813,57.984264 414.393829,64.032669 419.732574,72.885284 
M452.061707,49.584419 
	C451.681488,54.121952 451.301270,58.659485 450.918671,63.225292 
	C455.554840,61.695488 459.886841,56.076569 460.023743,51.065479 
	C460.389740,37.670403 455.935516,25.926607 447.178619,15.903605 
	C446.121857,14.694074 443.543396,14.814005 441.670258,14.317752 
	C441.357910,16.376013 440.391876,18.617710 440.904449,20.444469 
	C441.498413,22.561140 443.454773,24.272861 444.710022,26.230700 
	C449.094238,33.068718 451.621521,40.527866 452.061707,49.584419 
M483.035248,37.625652 
	C482.702301,34.835632 482.868286,31.846748 481.863068,29.324673 
	C481.179474,27.609594 478.855103,26.548475 477.264435,25.194933 
	C476.217804,26.994761 474.442657,28.730000 474.276184,30.607866 
	C473.929779,34.515129 475.084778,38.606224 474.447815,42.425846 
	C473.318665,49.197319 471.313965,55.822788 469.682343,62.481888 
	C469.992615,62.450127 471.162964,62.058037 472.211945,62.269150 
	C477.285583,63.290215 479.633575,60.662666 480.406677,56.166649 
	C481.411774,50.321285 482.186554,44.436314 483.035248,37.625652 
M433.951538,31.413584 
	C433.123383,30.466167 432.295197,29.518751 430.911011,27.935301 
	C426.871674,32.791637 423.133484,37.285927 419.209351,42.003773 
	C421.741730,44.107780 423.596008,45.648422 425.382538,47.132748 
	C428.587372,43.407516 431.656250,40.180565 434.251007,36.609112 
	C434.993805,35.586670 434.363953,33.566967 433.951538,31.413584 
z"/>
<path fill="#FFFFFF" opacity="1.000000" stroke="none" 
	d="
M316.468658,513.000000 
	C321.494110,512.006653 326.960052,510.804077 332.487640,510.059204 
	C349.131744,507.816254 364.805420,502.383087 380.213928,495.984863 
	C397.542694,488.789276 413.396271,478.985504 427.949188,467.336731 
	C443.330292,455.025085 456.763763,440.759827 468.282227,424.572662 
	C481.922333,405.403931 492.990692,385.064392 499.105225,362.351898 
	C502.462067,349.882965 504.679077,337.082520 506.903931,324.343140 
	C508.139954,317.265900 509.040344,309.987000 508.837860,302.834534 
	C508.522797,291.707092 507.917175,280.474182 506.008514,269.534821 
	C503.710327,256.363007 499.918488,243.451874 496.779663,230.426361 
	C496.606659,229.708466 496.116486,228.593994 496.407043,228.308548 
	C500.631744,224.157959 498.595520,219.591141 497.541016,215.007309 
	C493.282715,196.496643 485.883514,179.168716 478.134003,161.924164 
	C476.471008,158.223572 476.589081,153.696060 476.031189,149.530106 
	C473.923065,133.788513 464.474396,122.944595 452.231689,114.070839 
	C447.102448,110.353127 447.009949,110.622467 451.198975,106.285851 
	C461.019684,96.118965 472.557526,92.845451 486.329041,96.616310 
	C497.140503,99.576637 505.836700,94.860657 508.771118,83.581070 
	C510.435669,77.182816 504.720642,67.865723 497.313080,65.123703 
	C495.669800,64.515419 493.932190,64.161903 492.905823,63.876659 
	C493.959778,54.785675 495.404175,45.989590 495.830261,37.144455 
	C496.051514,32.551159 495.194214,27.597797 493.560913,23.285561 
	C489.827637,13.429121 475.505615,8.227069 465.426636,18.859058 
	C460.713074,12.480453 457.888672,4.310536 449.115356,1.347718 
	C470.321259,1.000000 491.642487,1.000000 512.981873,1.000000 
	C512.981873,171.557983 512.981873,342.115967 512.981873,513.000000 
	C447.646149,513.000000 382.291718,513.000000 316.468658,513.000000 
z"/>
<path fill="#33363B" opacity="1.000000" stroke="none" 
	d="
M12.998782,437.000000 
	C12.998783,386.008514 12.972286,335.516968 13.017542,285.025543 
	C13.028758,272.511169 17.506304,262.350769 28.885225,255.923355 
	C29.897280,255.351685 30.897243,253.720795 30.908224,252.572342 
	C31.045053,238.261047 30.997755,223.947998 30.997755,209.623032 
	C27.306284,208.972473 23.648903,208.854248 20.389643,207.654480 
	C10.757496,204.108795 5.158921,195.489136 5.022734,184.492645 
	C4.907181,175.162308 3.843898,165.653854 5.230208,156.532806 
	C8.499218,135.024780 5.997439,113.480637 7.188969,92.003769 
	C7.338248,89.313049 9.537620,85.907722 11.818655,84.469017 
	C13.225394,83.581757 16.803391,85.444756 18.969929,86.780960 
	C19.889915,87.348358 19.952429,89.728004 19.960361,91.286285 
	C20.030664,105.096596 20.001209,118.907417 20.001209,132.743851 
	C24.989292,132.006729 29.628628,131.321136 34.998783,130.527542 
	C34.998783,129.148346 34.998783,127.393921 34.998783,125.639496 
	C34.998783,114.141434 34.998680,102.643364 34.998833,91.145302 
	C34.998913,85.112404 37.866146,80.801575 41.731628,81.021881 
	C46.102390,81.270988 48.001083,84.385490 48.001171,91.307068 
	C48.001320,102.805130 48.001217,114.303200 48.001217,125.801262 
	C48.001217,127.423996 48.001217,129.046722 48.001217,130.534851 
	C53.112537,131.284958 57.753887,131.966095 62.998791,132.735809 
	C62.998791,125.940025 62.998783,119.030418 62.998791,112.120811 
	C62.998798,104.955353 63.120377,97.786942 62.947052,90.625679 
	C62.861649,87.096825 64.383362,84.679947 67.587746,84.129646 
	C71.083290,83.529343 74.633644,84.013458 75.276306,88.743042 
	C75.493469,90.341187 75.963181,91.932091 75.969193,93.527618 
	C76.023758,108.024971 75.741112,122.528580 76.073486,137.018509 
	C76.413963,151.861938 77.375023,166.690353 77.990097,181.528427 
	C78.637650,197.150223 70.243546,208.983261 52.006062,209.269211 
	C52.006062,223.867188 51.966187,238.480026 52.095585,253.091370 
	C52.104233,254.067810 53.179714,255.437271 54.123604,255.941742 
	C65.582329,262.065948 70.010513,272.005341 70.007729,284.489899 
	C69.993568,347.979218 70.043251,411.468536 69.975052,474.957794 
	C69.955101,493.524139 56.816177,505.825775 39.528687,504.951599 
	C27.140268,504.325195 14.751905,494.479584 14.087233,481.243103 
	C13.355974,466.680603 13.331294,452.082550 12.998782,437.000000 
M42.713894,492.186737 
	C52.042557,491.070862 57.091885,485.172516 57.096825,475.106567 
	C57.124126,419.445465 57.112484,363.784393 57.108391,308.123291 
	C57.107719,298.957794 57.001976,289.791626 57.086357,280.627045 
	C57.153877,273.293121 49.804535,265.165466 41.066341,265.909882 
	C31.473412,266.655792 25.974895,272.697540 25.965818,282.797546 
	C25.927944,324.948608 25.948526,367.099762 25.948982,409.250854 
	C25.949224,431.575958 25.884899,453.901337 25.984781,476.225983 
	C26.028744,486.052246 32.387413,492.224213 42.713894,492.186737 
z"/>
<path fill="#C7DADA" opacity="1.000000" stroke="none" 
	d="
M296.007233,461.967651 
	C309.484894,461.644073 322.963562,461.357483 336.439972,460.988190 
	C356.783325,460.430786 377.010529,458.832153 396.601074,452.843842 
	C418.860687,446.039673 436.635773,433.876923 444.002411,410.533356 
	C449.011627,394.660095 448.956177,378.373199 445.529938,362.173553 
	C444.160675,355.699524 442.734192,349.005463 439.849976,343.141327 
	C436.045532,335.406067 435.703308,327.967407 437.083405,319.692902 
	C439.904816,302.777252 438.583954,285.905029 435.078186,269.146576 
	C434.586304,266.795288 434.910767,263.916840 435.838623,261.691559 
	C438.651123,254.946442 441.869415,248.364548 445.115265,241.811005 
	C445.779114,240.470642 447.082550,238.823257 448.375763,238.516205 
	C459.652313,235.838821 470.993683,233.434402 483.074493,230.782379 
	C503.683960,287.708191 501.020447,343.465210 471.596436,395.987549 
	C433.737640,463.566193 374.803497,498.766541 296.439941,500.595642 
	C295.984955,487.344513 295.996094,474.656097 296.007233,461.967651 
z"/>
<path fill="#FEFEFE" opacity="1.000000" stroke="none" 
	d="
M160.742065,353.519196 
	C164.408768,339.574738 171.614548,327.463440 180.764084,316.572144 
	C205.183105,287.504547 237.097839,272.125671 274.206268,267.226715 
	C308.631348,262.682037 341.600220,268.052856 372.144958,284.976624 
	C400.349854,300.603973 421.269470,322.759827 430.654968,354.590698 
	C418.893463,352.065308 408.389679,355.731171 397.848938,359.070221 
	C389.538666,361.702698 381.237366,364.363373 372.866577,366.564636 
	C373.023315,352.927704 369.728058,340.687561 362.103821,329.905914 
	C346.307983,307.568573 324.058533,297.542847 297.203705,296.744751 
	C256.808716,295.544281 217.367706,324.744141 218.574463,367.953613 
	C211.808182,365.609772 205.422775,363.261963 199.002548,361.013550 
	C187.110352,356.848755 175.277054,352.310760 162.240387,354.568146 
	C161.814255,354.641937 161.244736,353.887543 160.742065,353.519196 
z"/>
<path fill="#FDFDFD" opacity="1.000000" stroke="none" 
	d="
M295.553680,461.846863 
	C295.996094,474.656097 295.984955,487.344513 295.979126,500.499329 
	C274.910614,501.910339 254.493423,498.057617 234.624069,491.594299 
	C198.479172,479.836639 167.943832,459.350891 143.422485,430.298218 
	C116.840897,398.804596 101.104965,362.459503 97.020149,321.383606 
	C95.919876,310.319519 96.152420,299.095276 96.264481,287.949493 
	C96.324081,282.021912 97.435440,276.104889 98.745880,269.806305 
	C110.732552,297.219818 129.307175,318.545441 154.304352,332.397308 
	C150.931564,345.320374 146.619492,357.303162 144.853546,369.650085 
	C142.057663,389.197845 143.223297,408.545380 154.825577,425.828552 
	C164.014130,439.516205 177.364380,447.143524 192.542664,452.131470 
	C211.395767,458.327057 230.944427,460.161743 250.620102,460.836487 
	C265.439514,461.344666 280.272949,461.444489 295.553680,461.846863 
z"/>
<path fill="#DFDDCD" opacity="1.000000" stroke="none" 
	d="
M435.009064,393.004059 
	C433.640472,413.982117 422.896667,428.393921 404.005768,436.972656 
	C387.830811,444.318054 370.494659,447.185486 353.038727,447.757690 
	C321.754456,448.783173 290.427582,449.080444 259.126007,448.810699 
	C238.000504,448.628632 216.855560,447.148651 196.510223,440.484222 
	C182.198441,435.796204 169.362244,428.725800 162.576523,414.596985 
	C159.332504,407.842468 158.159424,400.093323 156.491928,392.388214 
	C162.569489,391.037659 168.483353,388.532379 173.777954,389.481567 
	C184.114944,391.334625 194.132767,395.030823 204.231888,398.129608 
	C213.532425,400.983368 222.766296,404.054443 232.168854,407.343689 
	C235.812088,412.848816 238.535187,418.865631 242.976379,423.065765 
	C253.430862,432.952789 266.859497,436.444580 280.846222,436.856842 
	C292.749634,437.207703 304.707764,436.652496 316.608154,435.938629 
	C336.007263,434.774994 350.593323,425.915955 359.421021,407.922882 
	C375.465454,402.565186 391.087280,397.087494 406.828369,391.977112 
	C416.244843,388.920044 425.815857,387.271606 435.009064,393.004059 
z"/>
<path fill="#FC6A07" opacity="1.000000" stroke="none" 
	d="
M440.699554,223.000488 
	C439.624237,227.629456 437.392151,229.186386 432.554626,227.092896 
	C427.390350,224.857986 421.857513,223.482162 416.507416,221.666901 
	C412.535004,220.319077 409.945343,221.937576 408.642578,225.561539 
	C407.279449,229.353317 409.470215,231.682495 412.754486,232.864059 
	C419.294556,235.216949 425.926300,237.314926 432.965851,239.667130 
	C429.889893,246.240677 426.955414,252.511902 423.753693,259.354248 
	C417.969116,257.481964 412.348938,255.662186 406.728241,253.844147 
	C404.832825,253.231064 402.972687,252.437134 401.031738,252.052231 
	C397.495239,251.350967 394.753174,252.376328 393.725067,256.214783 
	C392.762146,259.809814 394.517914,262.078918 397.641693,263.239471 
	C403.089966,265.263641 408.640106,267.013092 414.140991,268.896820 
	C415.385345,269.322937 416.602844,269.827423 418.343842,270.490479 
	C415.011230,277.158447 411.782928,283.617737 408.116699,290.953247 
	C402.413483,288.200592 396.713440,286.214264 391.856812,282.966675 
	C375.106354,271.765747 357.044250,263.650391 337.261017,258.604095 
	C337.993500,254.471252 338.498444,250.541595 339.468384,246.730255 
	C339.812256,245.378967 341.063873,243.960526 342.288910,243.186462 
	C346.255524,240.680038 347.029938,237.572449 344.653687,233.573792 
	C343.806000,232.147339 342.953735,230.222366 343.219696,228.722900 
	C344.319824,222.520477 345.847351,216.393845 346.899475,211.669296 
	C351.261841,211.669296 355.208954,212.161850 358.856628,211.334335 
	C359.807587,211.118607 360.814453,206.426056 360.077942,204.420410 
	C358.204926,199.319794 353.363068,200.924332 349.129486,201.033554 
	C349.663239,198.792313 350.159180,196.709915 351.228058,194.318649 
	C352.603271,194.201248 353.426483,194.330536 354.204742,194.593124 
	C378.898438,202.925735 403.576782,211.304077 428.288696,219.582123 
	C432.351440,220.943069 436.558960,221.871933 440.699554,223.000488 
M374.732666,243.037033 
	C371.423615,243.613190 368.614868,245.564606 369.311737,248.835754 
	C369.818115,251.212662 372.537506,253.207581 374.500519,255.138718 
	C375.240967,255.867172 376.632935,255.926422 377.721313,256.309418 
	C381.327148,257.578308 383.946869,256.332001 385.341461,252.929825 
	C386.785522,249.407135 385.188385,246.722519 382.082306,245.130447 
	C380.068665,244.098343 377.725281,243.709625 374.732666,243.037033 
M397.608246,225.544357 
	C400.351807,223.594452 402.167572,220.488556 399.893036,218.021179 
	C397.581207,215.513428 393.865387,213.738541 390.474518,213.030075 
	C388.843384,212.689316 385.568848,215.168823 384.847748,217.060791 
	C384.233459,218.672440 385.613098,222.313873 387.171051,223.206497 
	C389.993561,224.823639 393.605591,225.062744 397.608246,225.544357 
M355.307281,249.094650 
	C360.262360,249.657242 362.898071,247.956482 363.140198,244.000443 
	C363.391296,239.897202 361.035400,237.840332 357.357086,237.171600 
	C353.903259,236.543655 350.784393,237.539444 349.753601,241.148010 
	C348.610352,245.150345 350.608429,247.816818 355.307281,249.094650 
M369.058807,206.672714 
	C365.482544,207.935730 363.268555,210.141418 364.634521,214.171036 
	C365.973175,218.120117 369.519775,219.643433 372.980988,218.693863 
	C375.036316,218.129990 377.447784,215.188568 377.825775,212.993546 
	C378.499451,209.081223 375.525787,207.145370 371.748016,206.707474 
	C371.090668,206.631256 370.432495,206.561737 369.058807,206.672714 
z"/>
<path fill="#FD8004" opacity="1.000000" stroke="none" 
	d="
M440.886719,222.683487 
	C436.558960,221.871933 432.351440,220.943069 428.288696,219.582123 
	C403.576782,211.304077 378.898438,202.925735 354.204742,194.593124 
	C353.426483,194.330536 352.603271,194.201248 351.411194,193.999252 
	C355.495422,176.150558 359.969421,158.312393 365.085815,140.225769 
	C367.231537,140.351990 368.734924,140.726639 370.225525,141.480804 
	C370.114227,145.697495 371.902435,147.994263 375.631744,149.081528 
	C379.330292,150.159805 382.122406,149.338333 384.406860,146.014252 
	C385.719818,146.359131 386.717957,146.670914 387.726807,147.393250 
	C387.466248,151.351395 388.836243,153.809158 392.341522,154.962952 
	C396.086212,156.195541 399.112823,155.477936 401.584503,151.968918 
	C403.895905,152.337799 405.836273,152.687790 407.794006,153.438354 
	C407.286011,159.249191 411.146759,160.609375 415.152039,162.163895 
	C419.192474,163.732117 421.741608,162.146423 424.241211,159.135635 
	C427.095703,159.894989 429.599487,160.510315 432.103271,161.125641 
	C430.809326,166.124359 432.825653,168.959946 437.684265,170.456680 
	C444.975098,172.702713 452.166534,175.271362 460.047150,177.920258 
	C457.413452,184.550385 454.880676,190.926529 452.132446,197.844955 
	C444.480530,195.380630 437.305878,192.939682 430.038300,190.817017 
	C428.111908,190.254379 425.493286,189.955765 423.934052,190.841415 
	C422.412018,191.705872 420.808533,194.433914 421.103149,195.991623 
	C421.488312,198.028214 423.328918,200.568436 425.203491,201.395020 
	C430.351807,203.665207 435.845551,205.151596 441.201141,206.952438 
	C442.902191,207.524429 444.598694,208.109818 446.979187,208.921600 
	C444.887512,213.683823 442.980713,218.025162 440.886719,222.683487 
M397.371704,189.686584 
	C400.450562,191.425201 403.351898,193.761871 406.655731,194.742722 
	C410.330811,195.833771 413.575562,191.940445 412.985107,187.966476 
	C412.462463,184.448868 406.874756,180.616440 402.566193,181.214172 
	C398.229889,181.815796 396.220276,184.461777 397.371704,189.686584 
M366.033295,181.440292 
	C369.748779,182.277969 372.303223,180.933365 373.046844,177.171463 
	C373.847839,173.119308 372.012451,170.444046 368.000671,169.380951 
	C364.095093,168.345978 360.281342,170.086517 359.657104,173.497864 
	C358.862183,177.841965 361.030243,180.387451 366.033295,181.440292 
M382.844177,186.986206 
	C386.967987,187.731491 389.919006,186.259521 390.553650,182.014755 
	C391.049042,178.701004 389.371460,176.040024 385.987000,175.257523 
	C382.464935,174.443176 378.603455,174.256332 377.194458,178.581772 
	C375.831848,182.764801 377.702576,185.691818 382.844177,186.986206 
z"/>
<path fill="#83692C" opacity="1.000000" stroke="none" 
	d="
M297.071625,225.970520 
	C296.907501,179.527069 259.063416,141.587112 213.391693,141.306091 
	C212.959061,132.566101 212.955963,124.345406 212.952881,116.124710 
	C239.749954,116.123215 263.212646,125.050308 283.783569,142.144363 
	C298.722321,154.558197 309.310608,169.911804 316.002136,188.035629 
	C320.412964,199.982208 322.559357,212.328781 321.605988,225.548767 
	C313.095398,225.995102 305.083496,225.982819 297.071625,225.970520 
z"/>
<path fill="#9F7E3C" opacity="1.000000" stroke="none" 
	d="
M212.498871,116.078766 
	C212.955963,124.345406 212.959061,132.566101 212.930817,141.220612 
	C193.969040,141.771484 176.822861,147.434311 161.990601,159.134216 
	C144.016846,173.312149 132.813934,191.651550 129.965561,214.666260 
	C129.538055,218.120331 129.319687,221.600281 128.501770,225.529648 
	C119.972763,226.007172 111.946548,226.023315 103.920334,226.039459 
	C102.114311,168.550034 150.412842,116.344177 212.498871,116.078766 
z"/>
<path fill="#F32535" opacity="1.000000" stroke="none" 
	d="
M323.128723,174.019363 
	C311.519287,151.022263 294.883942,132.724762 272.411285,119.925720 
	C259.878418,112.787766 246.487518,107.986687 232.182129,106.054886 
	C228.903839,105.612183 227.477478,104.223473 227.071915,101.186913 
	C226.874939,99.712128 226.473297,98.264687 226.594727,96.407135 
	C243.405533,96.023727 259.936279,94.638000 276.131378,96.377396 
	C301.020264,99.050529 324.428192,107.513725 346.216400,120.078705 
	C348.901337,121.627083 351.613129,123.128929 354.461853,124.736641 
	C356.817108,121.206833 358.927887,118.043381 361.038696,114.879929 
	C363.408691,115.713966 363.607666,116.989090 362.121490,118.971550 
	C360.337891,121.350723 358.783875,123.901993 356.653442,126.518402 
	C355.054474,127.224564 353.496857,127.496254 352.881531,128.405594 
	C348.991852,134.153702 345.342285,140.063477 341.554047,145.881226 
	C335.436401,155.276306 329.272888,164.641525 323.128723,174.019363 
z"/>
<path fill="#82EB87" opacity="1.000000" stroke="none" 
	d="
M219.690369,66.153717 
	C218.147110,59.730049 216.603882,53.306374 214.984863,46.567310 
	C233.445816,42.916424 251.617126,41.309250 269.931122,42.289116 
	C299.444794,43.868206 327.801361,50.462036 354.798615,62.697067 
	C371.713867,70.362968 387.366547,80.107758 402.126587,91.280113 
	C404.426575,93.021057 405.616547,96.228493 407.299652,98.727898 
	C399.035065,100.279732 391.466583,101.700851 383.355530,102.834473 
	C381.681793,101.592247 380.666473,100.433540 379.401184,99.714821 
	C368.588287,93.572800 357.983704,86.993118 346.834625,81.528046 
	C320.502899,68.620674 292.254791,62.763939 263.158325,62.301975 
	C248.693024,62.072308 234.181168,64.776657 219.690369,66.153717 
z"/>
<path fill="#83682C" opacity="1.000000" stroke="none" 
	d="
M103.912766,226.501297 
	C111.946548,226.023315 119.972763,226.007172 128.459839,225.978394 
	C130.388977,260.305237 146.910675,285.122345 177.281799,301.746277 
	C171.950851,308.571472 166.725647,315.261261 161.212677,322.319489 
	C125.176666,300.370728 104.662514,269.639771 103.912766,226.501297 
z"/>
<path fill="#F3F2E8" opacity="1.000000" stroke="none" 
	d="
M435.130371,392.603210 
	C425.815857,387.271606 416.244843,388.920044 406.828369,391.977112 
	C391.087280,397.087494 375.465454,402.565186 359.447876,407.557983 
	C360.385132,402.790131 361.667969,398.352600 363.062469,393.592407 
	C369.120575,385.518097 371.710510,376.519043 372.932068,367.011505 
	C381.237366,364.363373 389.538666,361.702698 397.848938,359.070221 
	C408.389679,355.731171 418.893463,352.065308 430.654053,354.979553 
	C435.362518,367.065308 436.464600,379.504120 435.130371,392.603210 
z"/>
<path fill="#F3F2E8" opacity="1.000000" stroke="none" 
	d="
M232.029541,407.029785 
	C222.766296,404.054443 213.532425,400.983368 204.231888,398.129608 
	C194.132767,395.030823 184.114944,391.334625 173.777954,389.481567 
	C168.483353,388.532379 162.569489,391.037659 156.555893,391.978638 
	C154.991714,379.081390 156.442795,366.469147 160.484497,353.812805 
	C161.244736,353.887543 161.814255,354.641937 162.240387,354.568146 
	C175.277054,352.310760 187.110352,356.848755 199.002548,361.013550 
	C205.422775,363.261963 211.808182,365.609772 218.685928,368.348999 
	C220.036926,378.402618 223.684570,386.966034 229.029999,395.287781 
	C230.000000,399.482208 231.014771,403.256012 232.029541,407.029785 
z"/>
<path fill="#FEB106" opacity="1.000000" stroke="none" 
	d="
M407.776611,153.037796 
	C405.836273,152.687790 403.895905,152.337799 401.578979,151.556885 
	C401.680511,147.589050 400.586090,144.908112 397.041901,143.614761 
	C393.008820,142.143021 389.925781,143.370773 387.716125,146.982697 
	C386.717957,146.670914 385.719818,146.359131 384.382812,145.604767 
	C384.498413,141.417114 383.230469,138.664459 379.466248,137.458099 
	C375.425842,136.163223 372.405579,137.584717 370.238312,141.101303 
	C368.734924,140.726639 367.231537,140.351990 365.338226,139.953674 
	C367.487793,129.839294 373.414642,122.325394 383.104553,117.029404 
	C387.779999,117.559509 391.731018,117.913429 395.566772,118.778366 
	C402.457550,120.332161 409.279175,122.192757 416.129669,123.925156 
	C416.129669,123.925156 416.050049,123.966766 416.148773,124.176743 
	C416.556396,124.574524 416.865326,124.762337 417.174225,124.950150 
	C421.149597,126.232544 425.124969,127.514946 429.718445,129.123505 
	C436.953461,131.998199 443.596069,134.482559 450.176697,137.121475 
	C453.626007,138.504684 456.966644,140.158951 460.356354,141.690796 
	C460.356354,141.690796 460.294617,141.845154 460.271362,142.083130 
	C460.532715,142.543579 460.817291,142.766068 461.101898,142.988556 
	C464.851746,150.349411 465.842163,157.990768 463.614075,166.388260 
	C455.621307,163.792175 447.878754,161.362442 440.201385,158.741882 
	C437.126770,157.692413 434.676788,158.104614 432.387451,160.913940 
	C429.599487,160.510315 427.095703,159.894989 424.247070,158.737122 
	C424.447540,153.104950 421.159943,151.294434 417.096039,149.792664 
	C412.920074,148.249481 409.993439,149.400848 407.776611,153.037796 
z"/>
<path fill="#BEDD05" opacity="1.000000" stroke="none" 
	d="
M141.290741,225.919144 
	C141.370346,223.531143 141.449966,221.143158 142.059875,218.364227 
	C143.416412,217.448700 144.373428,217.055191 145.049911,216.380417 
	C164.352249,197.126831 183.639008,177.857513 202.868286,158.531036 
	C203.840256,157.554138 204.276276,156.043991 204.961823,154.782135 
	C207.345810,154.548233 209.729813,154.314316 212.544952,154.592804 
	C212.969498,169.389633 212.962891,183.674042 212.558990,197.992905 
	C203.287811,199.219894 195.076996,202.143661 190.485077,210.281952 
	C187.800018,215.040726 186.781464,220.739807 184.543732,226.009949 
	C169.813095,225.975739 155.551926,225.947449 141.290741,225.919144 
z"/>
<path fill="#85C606" opacity="1.000000" stroke="none" 
	d="
M212.956284,197.958466 
	C212.962891,183.674042 212.969498,169.389633 212.959778,154.651093 
	C215.043961,154.303543 217.144485,154.410126 219.736877,154.996338 
	C239.554153,174.881973 258.872009,194.295517 278.217010,213.681915 
	C280.081360,215.550262 282.114471,217.250229 284.069244,219.028366 
	C284.329865,221.075302 284.590485,223.122238 284.337402,225.574554 
	C269.545685,225.991196 255.267654,226.002472 240.939392,225.616882 
	C240.410492,222.797485 240.173874,220.295929 239.412857,217.965607 
	C235.272537,205.287292 226.054489,199.220306 213.084793,198.080612 
	C213.042099,198.039749 212.956284,197.958466 212.956284,197.958466 
z"/>
<path fill="#85C606" opacity="1.000000" stroke="none" 
	d="
M141.218994,226.328827 
	C155.551926,225.947449 169.813095,225.975739 184.536072,226.000992 
	C184.997849,225.997940 184.981079,225.983719 185.044846,226.378891 
	C186.388290,230.992752 187.007019,235.573181 189.078613,239.358475 
	C194.145844,248.617523 202.683670,252.883896 212.977966,254.437271 
	C213.044785,261.385345 213.100983,267.863037 213.157196,274.340698 
	C207.351013,278.184784 201.544830,282.028870 195.265808,285.701233 
	C177.689270,268.363586 160.588150,251.195084 143.467712,234.045883 
	C143.017853,233.595230 142.357300,233.354889 141.795013,233.016479 
	C141.579102,230.923828 141.363174,228.831161 141.218994,226.328827 
z"/>
<path fill="#5FCD95" opacity="1.000000" stroke="none" 
	d="
M219.728912,66.567535 
	C234.181168,64.776657 248.693024,62.072308 263.158325,62.301975 
	C292.254791,62.763939 320.502899,68.620674 346.834625,81.528046 
	C357.983704,86.993118 368.588287,93.572800 379.401184,99.714821 
	C380.666473,100.433540 381.681793,101.592247 382.960754,102.872314 
	C382.996033,103.320168 382.900635,103.466240 382.768646,103.561806 
	C376.863556,107.836960 371.877838,107.897774 365.138489,103.475586 
	C344.248993,89.768456 321.035034,81.148369 296.503693,76.484398 
	C273.818756,72.171471 250.975815,71.638443 228.114380,75.431961 
	C226.172806,75.754135 224.210922,75.954048 221.693726,76.285019 
	C221.015976,73.011597 220.391708,69.996475 219.728912,66.567535 
z"/>
<path fill="#52C308" opacity="1.000000" stroke="none" 
	d="
M213.499664,274.226837 
	C213.100983,267.863037 213.044785,261.385345 212.981781,254.444336 
	C212.974976,253.981003 212.967499,253.966324 213.379700,253.979004 
	C230.603745,251.700333 240.627258,241.389145 241.008728,225.992279 
	C241.001740,225.997986 240.989624,226.013748 240.989624,226.013763 
	C255.267654,226.002472 269.545685,225.991196 284.268799,225.966949 
	C284.611084,228.045273 284.508301,230.136536 283.940979,232.730194 
	C275.636200,241.169876 267.796021,249.107162 259.955841,257.044464 
	C243.956512,261.037079 228.411392,266.256805 213.499664,274.226837 
z"/>
<path fill="#D50125" opacity="1.000000" stroke="none" 
	d="
M360.833801,114.615623 
	C358.927887,118.043381 356.817108,121.206833 354.461853,124.736641 
	C351.613129,123.128929 348.901337,121.627083 346.216400,120.078705 
	C324.428192,107.513725 301.020264,99.050529 276.131378,96.377396 
	C259.936279,94.638000 243.405533,96.023727 226.605362,96.021576 
	C225.663528,93.654518 225.141479,91.275299 224.502304,88.362221 
	C273.681122,79.603027 318.710663,88.740021 360.833801,114.615623 
z"/>
<path fill="#DBEF1D" opacity="1.000000" stroke="none" 
	d="
M204.529633,154.779694 
	C204.276276,156.043991 203.840256,157.554138 202.868286,158.531036 
	C183.639008,177.857513 164.352249,197.126831 145.049911,216.380417 
	C144.373428,217.055191 143.416412,217.448700 142.236237,218.017441 
	C143.253464,191.114838 165.487778,164.448914 192.906570,157.007309 
	C196.568863,156.013351 200.363892,155.508560 204.529633,154.779694 
z"/>
<path fill="#52C209" opacity="1.000000" stroke="none" 
	d="
M284.094788,218.594208 
	C282.114471,217.250229 280.081360,215.550262 278.217010,213.681915 
	C258.872009,194.295517 239.554153,174.881973 220.089966,155.155136 
	C245.469467,157.119980 264.144714,170.126144 275.938843,192.371078 
	C280.094910,200.209808 281.473541,209.521103 284.094788,218.594208 
z"/>
<path fill="#BBDB06" opacity="1.000000" stroke="none" 
	d="
M141.784134,233.452728 
	C142.357300,233.354889 143.017853,233.595230 143.467712,234.045883 
	C160.588150,251.195084 177.689270,268.363586 194.953278,285.836395 
	C193.088791,287.845062 191.224060,289.818298 188.977051,291.143250 
	C187.701691,291.895264 185.488617,292.248505 184.226746,291.655640 
	C159.647385,280.107788 145.220001,261.010925 141.784134,233.452728 
z"/>
<path fill="#F84258" opacity="1.000000" stroke="none" 
	d="
M323.184021,174.371063 
	C329.272888,164.641525 335.436401,155.276306 341.554047,145.881226 
	C345.342285,140.063477 348.991852,134.153702 352.881531,128.405594 
	C353.496857,127.496254 355.054474,127.224564 356.451416,126.803505 
	C351.498718,145.467773 346.114441,163.944412 341.108612,182.523041 
	C338.568085,191.951904 336.709717,201.564606 334.814117,209.901688 
	C331.165649,198.813034 327.202484,186.767899 323.184021,174.371063 
z"/>
<path fill="#6F5622" opacity="1.000000" stroke="none" 
	d="
M297.040100,226.420151 
	C305.083496,225.982819 313.095398,225.995102 321.582031,226.016754 
	C321.085907,234.710373 320.211029,243.407822 319.022980,252.062271 
	C318.873749,253.149567 317.046539,254.871155 316.043182,254.839264 
	C308.287964,254.592606 300.544159,253.986481 293.041626,253.507370 
	C294.356567,244.677658 295.682556,235.773712 297.040100,226.420151 
z"/>
<path fill="#81E986" opacity="1.000000" stroke="none" 
	d="
M460.812531,207.751892 
	C464.369476,199.005417 467.926453,190.258926 471.483429,181.512451 
	C471.965820,181.383835 472.448181,181.255234 472.930573,181.126617 
	C477.136414,193.327301 481.342255,205.527985 485.813934,218.499878 
	C478.606476,220.103287 472.221771,221.523666 465.414795,222.531708 
	C463.599243,217.330215 462.205872,212.541046 460.812531,207.751892 
z"/>
<path fill="#86EC5C" opacity="1.000000" stroke="none" 
	d="
M419.525330,72.580902 
	C414.393829,64.032669 407.533813,57.984264 398.743805,54.118382 
	C397.527649,53.583508 395.954437,53.301205 395.214722,52.370762 
	C394.048889,50.904282 393.449829,48.987198 392.610840,47.260864 
	C394.575378,46.576199 396.895447,44.844906 398.448181,45.372425 
	C410.891052,49.599686 420.290192,57.719017 426.962769,69.017899 
	C427.300598,69.589958 427.618958,70.174034 427.931976,70.760208 
	C432.173309,78.702637 432.172699,78.702965 425.404419,84.985374 
	C423.518799,80.962677 421.625702,76.923981 419.525330,72.580902 
z"/>
<path fill="#87EE5D" opacity="1.000000" stroke="none" 
	d="
M452.055176,49.125710 
	C451.621521,40.527866 449.094238,33.068718 444.710022,26.230700 
	C443.454773,24.272861 441.498413,22.561140 440.904449,20.444469 
	C440.391876,18.617710 441.357910,16.376013 441.670227,14.317753 
	C443.543396,14.814005 446.121857,14.694074 447.178619,15.903605 
	C455.935516,25.926607 460.389740,37.670403 460.023743,51.065479 
	C459.886841,56.076569 455.554840,61.695488 450.918671,63.225292 
	C451.301270,58.659485 451.681488,54.121952 452.055176,49.125710 
z"/>
<path fill="#6FD23C" opacity="1.000000" stroke="none" 
	d="
M484.055389,83.027977 
	C471.889832,82.180565 460.329163,83.646835 449.920502,90.836548 
	C443.172791,95.497505 438.175140,101.447525 434.611267,108.728935 
	C433.664459,110.663368 433.103668,113.013016 431.634186,114.393204 
	C430.473938,115.482895 427.847809,116.156578 426.513062,115.566536 
	C425.371674,115.061989 424.233643,112.210320 424.653534,110.894310 
	C427.314514,102.554085 431.980591,95.360481 438.846375,89.419693 
	C441.911621,88.526436 444.472565,87.529259 447.015503,86.488113 
	C459.012726,81.576088 471.220642,78.957718 484.055389,83.027977 
z"/>
<path fill="#8FF669" opacity="1.000000" stroke="none" 
	d="
M484.216064,83.089363 
	C471.220642,78.957718 459.012726,81.576088 447.015503,86.488113 
	C444.472565,87.529259 441.911621,88.526436 439.151154,89.289543 
	C453.977203,75.584854 471.259338,71.594498 490.728088,76.667419 
	C493.805267,77.469231 497.039093,78.418633 495.855835,82.412010 
	C494.730438,86.210030 491.519653,85.087196 488.157776,83.844849 
	C486.613586,83.332809 485.667114,83.237419 484.720642,83.142029 
	C484.720642,83.142029 484.376740,83.150749 484.216064,83.089363 
z"/>
<path fill="#8AF061" opacity="1.000000" stroke="none" 
	d="
M483.047852,38.097023 
	C482.186554,44.436314 481.411774,50.321285 480.406677,56.166649 
	C479.633575,60.662666 477.285583,63.290215 472.211945,62.269150 
	C471.162964,62.058037 469.992615,62.450127 469.682343,62.481888 
	C471.313965,55.822788 473.318665,49.197319 474.447815,42.425846 
	C475.084778,38.606224 473.929779,34.515129 474.276184,30.607866 
	C474.442657,28.730000 476.217804,26.994761 477.264435,25.194927 
	C478.855103,26.548475 481.179474,27.609594 481.863068,29.324673 
	C482.868286,31.846748 482.702301,34.835632 483.047852,38.097023 
z"/>
<path fill="#26BE0B" opacity="1.000000" stroke="none" 
	d="
M260.382324,257.051697 
	C267.796021,249.107162 275.636200,241.169876 283.787689,233.084259 
	C282.804962,239.079666 281.711700,245.277847 280.071289,251.327667 
	C279.676575,252.783234 277.621155,254.471909 276.063751,254.802811 
	C271.045471,255.869019 265.903229,256.351410 260.382324,257.051697 
z"/>
<path fill="#FADC09" opacity="1.000000" stroke="none" 
	d="
M460.306580,141.350494 
	C456.966644,140.158951 453.626007,138.504684 450.176697,137.121475 
	C443.596069,134.482559 436.953461,131.998199 430.113129,129.158142 
	C433.830658,126.989235 437.771637,125.111847 442.439789,122.888046 
	C449.229156,127.175591 455.950531,132.858505 460.306580,141.350494 
z"/>
<path fill="#FBDD09" opacity="1.000000" stroke="none" 
	d="
M415.995453,123.597458 
	C409.279175,122.192757 402.457550,120.332161 395.566772,118.778366 
	C391.731018,117.913429 387.779999,117.559509 383.447876,116.977615 
	C391.826965,111.470612 401.535828,111.596634 410.472137,112.060501 
	C412.489899,116.257393 414.175568,119.763573 415.995453,123.597458 
z"/>
<path fill="#8BF064" opacity="1.000000" stroke="none" 
	d="
M434.157532,31.709057 
	C434.363953,33.566967 434.993805,35.586670 434.251007,36.609112 
	C431.656250,40.180565 428.587372,43.407516 425.382538,47.132748 
	C423.596008,45.648422 421.741730,44.107780 419.209351,42.003773 
	C423.133484,37.285927 426.871674,32.791637 430.911011,27.935301 
	C432.295197,29.518751 433.123383,30.466167 434.157532,31.709057 
z"/>
<path fill="#5EC892" opacity="1.000000" stroke="none" 
	d="
M460.562744,208.002182 
	C462.205872,212.541046 463.599243,217.330215 465.014648,222.509583 
	C461.615204,223.314087 458.193756,223.728394 454.772278,224.142700 
	C455.579834,221.089203 456.231964,217.982925 457.244873,214.999146 
	C458.035065,212.671326 459.273651,210.495728 460.562744,208.002182 
z"/>
<path fill="#C1D3D3" opacity="1.000000" stroke="none" 
	d="
M416.737976,300.832672 
	C419.314301,295.394409 421.890625,289.956146 424.466949,284.517883 
	C424.859100,284.595642 425.251251,284.673401 425.643372,284.751160 
	C425.974670,289.924164 426.305939,295.097137 426.112183,300.654816 
	C422.637421,300.970551 419.687683,300.901611 416.737976,300.832672 
z"/>
<path fill="#F9F9F9" opacity="1.000000" stroke="none" 
	d="
M416.490540,301.028503 
	C419.687683,300.901611 422.637421,300.970551 426.007874,301.075867 
	C426.428619,305.824402 426.428619,310.536530 426.428619,315.248688 
	C426.039398,315.320770 425.650208,315.392883 425.260986,315.464966 
	C422.234497,311.887970 419.111176,308.385162 416.264679,304.670258 
	C415.707489,303.943085 416.222565,302.394226 416.490540,301.028503 
z"/>
<path fill="#6FD23C" opacity="1.000000" stroke="none" 
	d="
M484.986389,83.381866 
	C485.667114,83.237419 486.613586,83.332809 487.804688,83.693466 
	C487.116943,83.846390 486.184540,83.734047 484.986389,83.381866 
z"/>
<path fill="#FADC09" opacity="1.000000" stroke="none" 
	d="
M461.061249,142.695145 
	C460.817291,142.766068 460.532715,142.543579 460.196625,142.046753 
	C460.436951,141.982178 460.728790,142.191956 461.061249,142.695145 
z"/>
<path fill="#FBDD09" opacity="1.000000" stroke="none" 
	d="
M417.065155,124.693886 
	C416.865326,124.762337 416.556396,124.574524 416.135223,124.133926 
	C416.333984,124.066628 416.645050,124.252129 417.065155,124.693886 
z"/>
<path fill="#7DC1FE" opacity="1.000000" stroke="none" 
	d="
M41.886948,492.073853 
	C32.387413,492.224213 26.028744,486.052246 25.984781,476.225983 
	C25.884899,453.901337 25.949224,431.575958 25.948982,409.250854 
	C25.948526,367.099762 25.927944,324.948608 25.965818,282.797546 
	C25.974895,272.697540 31.473412,266.655792 41.478928,266.449829 
	C41.882805,329.351379 41.874096,391.713043 41.542709,454.191986 
	C36.331451,455.431061 35.411049,459.005554 35.387859,463.356140 
	C35.363232,467.976013 37.244705,470.944061 41.872398,472.435364 
	C41.883739,479.295074 41.885345,485.684479 41.886948,492.073853 
z"/>
<path fill="#2A8BF4" opacity="1.000000" stroke="none" 
	d="
M42.300423,492.130310 
	C41.885345,485.684479 41.883739,479.295074 42.189720,472.262268 
	C46.780399,470.382660 47.715530,467.156830 47.821537,463.177887 
	C47.942104,458.652435 46.316227,455.497833 41.865383,454.074677 
	C41.874096,391.713043 41.882805,329.351379 41.874123,266.524994 
	C49.804535,265.165466 57.153877,273.293121 57.086357,280.627045 
	C57.001976,289.791626 57.107719,298.957794 57.108391,308.123291 
	C57.112484,363.784393 57.124126,419.445465 57.096825,475.106567 
	C57.091885,485.172516 52.042557,491.070862 42.300423,492.130310 
z"/>
<path fill="#37393C" opacity="1.000000" stroke="none" 
	d="
M229.074799,394.867157 
	C223.684570,386.966034 220.036926,378.402618 219.051086,368.389893 
	C217.367706,324.744141 256.808716,295.544281 297.203705,296.744751 
	C324.058533,297.542847 346.307983,307.568573 362.103821,329.905914 
	C369.728058,340.687561 373.023315,352.927704 372.866577,366.564636 
	C371.710510,376.519043 369.120575,385.518097 362.769958,393.757446 
	C356.320404,399.109802 350.845276,405.041229 344.121063,408.636475 
	C325.010742,418.854095 304.128784,420.182800 282.946198,418.422150 
	C262.335327,416.709076 243.538528,410.706635 229.074799,394.867157 
M237.996246,339.981903 
	C237.996246,339.981903 237.966904,339.930511 237.375580,340.312134 
	C223.969849,365.422699 231.807831,390.155029 257.218323,399.950958 
	C283.195740,409.965546 309.705261,409.796021 335.584961,399.486237 
	C357.402924,390.794464 366.110321,369.992310 357.865326,348.260712 
	C356.288849,345.162872 354.712372,342.065002 353.045227,338.387573 
	C352.688782,337.946259 352.332306,337.504913 351.896637,336.572388 
	C351.766510,336.232697 351.523804,336.023712 350.971710,335.287598 
	C336.564972,316.582184 317.299347,308.401978 293.322510,308.635345 
	C290.773254,308.167389 288.105377,306.960602 285.693390,307.347809 
	C265.601685,310.573303 249.159485,319.563568 238.484543,338.332855 
	C238.302933,338.888031 238.121307,339.443237 237.996246,339.981903 
z"/>
<path fill="#D2D0C0" opacity="1.000000" stroke="none" 
	d="
M229.029999,395.287781 
	C243.538528,410.706635 262.335327,416.709076 282.946198,418.422150 
	C304.128784,420.182800 325.010742,418.854095 344.121063,408.636475 
	C350.845276,405.041229 356.320404,399.109802 362.658325,394.080078 
	C361.667969,398.352600 360.385132,402.790131 359.075439,407.592590 
	C350.593323,425.915955 336.007263,434.774994 316.608154,435.938629 
	C304.707764,436.652496 292.749634,437.207703 280.846222,436.856842 
	C266.859497,436.444580 253.430862,432.952789 242.976379,423.065765 
	C238.535187,418.865631 235.812088,412.848816 232.168854,407.343689 
	C231.014771,403.256012 230.000000,399.482208 229.029999,395.287781 
z"/>
<path fill="#3C3838" opacity="1.000000" stroke="none" 
	d="
M375.131165,243.034821 
	C377.725281,243.709625 380.068665,244.098343 382.082306,245.130447 
	C385.188385,246.722519 386.785522,249.407135 385.341461,252.929825 
	C383.946869,256.332001 381.327148,257.578308 377.721313,256.309418 
	C376.632935,255.926422 375.240967,255.867172 374.500519,255.138718 
	C372.537506,253.207581 369.818115,251.212662 369.311737,248.835754 
	C368.614868,245.564606 371.423615,243.613190 375.131165,243.034821 
z"/>
<path fill="#393838" opacity="1.000000" stroke="none" 
	d="
M397.248138,225.710754 
	C393.605591,225.062744 389.993561,224.823639 387.171051,223.206497 
	C385.613098,222.313873 384.233459,218.672440 384.847748,217.060791 
	C385.568848,215.168823 388.843384,212.689316 390.474518,213.030075 
	C393.865387,213.738541 397.581207,215.513428 399.893036,218.021179 
	C402.167572,220.488556 400.351807,223.594452 397.248138,225.710754 
z"/>
<path fill="#3B3838" opacity="1.000000" stroke="none" 
	d="
M354.934204,249.047455 
	C350.608429,247.816818 348.610352,245.150345 349.753601,241.148010 
	C350.784393,237.539444 353.903259,236.543655 357.357086,237.171600 
	C361.035400,237.840332 363.391296,239.897202 363.140198,244.000443 
	C362.898071,247.956482 360.262360,249.657242 354.934204,249.047455 
z"/>
<path fill="#3A3838" opacity="1.000000" stroke="none" 
	d="
M369.416748,206.580933 
	C370.432495,206.561737 371.090668,206.631256 371.748016,206.707474 
	C375.525787,207.145370 378.499451,209.081223 377.825775,212.993546 
	C377.447784,215.188568 375.036316,218.129990 372.980988,218.693863 
	C369.519775,219.643433 365.973175,218.120117 364.634521,214.171036 
	C363.268555,210.141418 365.482544,207.935730 369.416748,206.580933 
z"/>
<path fill="#3A3938" opacity="1.000000" stroke="none" 
	d="
M397.233582,189.317963 
	C396.220276,184.461777 398.229889,181.815796 402.566193,181.214172 
	C406.874756,180.616440 412.462463,184.448868 412.985107,187.966476 
	C413.575562,191.940445 410.330811,195.833771 406.655731,194.742722 
	C403.351898,193.761871 400.450562,191.425201 397.233582,189.317963 
z"/>
<path fill="#3A3938" opacity="1.000000" stroke="none" 
	d="
M407.794006,153.438354 
	C409.993439,149.400848 412.920074,148.249481 417.096039,149.792664 
	C421.159943,151.294434 424.447540,153.104950 423.896393,158.593109 
	C421.741608,162.146423 419.192474,163.732117 415.152039,162.163895 
	C411.146759,160.609375 407.286011,159.249191 407.794006,153.438354 
z"/>
<path fill="#3C3B38" opacity="1.000000" stroke="none" 
	d="
M370.225525,141.480804 
	C372.405579,137.584717 375.425842,136.163223 379.466248,137.458099 
	C383.230469,138.664459 384.498413,141.417114 384.068054,145.571671 
	C382.122406,149.338333 379.330292,150.159805 375.631744,149.081528 
	C371.902435,147.994263 370.114227,145.697495 370.225525,141.480804 
z"/>
<path fill="#3B3938" opacity="1.000000" stroke="none" 
	d="
M365.662292,181.335892 
	C361.030243,180.387451 358.862183,177.841965 359.657104,173.497864 
	C360.281342,170.086517 364.095093,168.345978 368.000671,169.380951 
	C372.012451,170.444046 373.847839,173.119308 373.046844,177.171463 
	C372.303223,180.933365 369.748779,182.277969 365.662292,181.335892 
z"/>
<path fill="#3A3938" opacity="1.000000" stroke="none" 
	d="
M382.441315,186.925766 
	C377.702576,185.691818 375.831848,182.764801 377.194458,178.581772 
	C378.603455,174.256332 382.464935,174.443176 385.987000,175.257523 
	C389.371460,176.040024 391.049042,178.701004 390.553650,182.014755 
	C389.919006,186.259521 386.967987,187.731491 382.441315,186.925766 
z"/>
<path fill="#393938" opacity="1.000000" stroke="none" 
	d="
M387.726807,147.393250 
	C389.925781,143.370773 393.008820,142.143021 397.041901,143.614761 
	C400.586090,144.908112 401.680511,147.589050 401.207886,151.538010 
	C399.112823,155.477936 396.086212,156.195541 392.341522,154.962952 
	C388.836243,153.809158 387.466248,151.351395 387.726807,147.393250 
z"/>
<path fill="#86C606" opacity="1.000000" stroke="none" 
	d="
M185.005524,226.006897 
	C186.781464,220.739807 187.800018,215.040726 190.485077,210.281952 
	C195.076996,202.143661 203.287811,199.219894 212.558990,197.992905 
	C212.956284,197.958466 213.042099,198.039749 213.041977,198.524307 
	C213.023636,202.343369 213.005417,205.677887 212.994293,209.005524 
	C213.001404,208.998657 213.013214,208.986450 212.613297,208.993042 
	C202.159851,210.407791 197.012070,216.160645 196.537231,226.006424 
	C192.378098,226.000717 188.679596,225.992218 184.981079,225.983719 
	C184.981079,225.983719 184.997849,225.997940 185.005524,226.006897 
z"/>
<path fill="#53C408" opacity="1.000000" stroke="none" 
	d="
M212.987183,209.012390 
	C213.005417,205.677887 213.023636,202.343369 213.084671,198.565170 
	C226.054489,199.220306 235.272537,205.287292 239.412857,217.965607 
	C240.173874,220.295929 240.410492,222.797485 240.939392,225.616882 
	C240.989624,226.013748 241.001740,225.997986 240.548355,225.992538 
	C239.102493,225.991470 238.087662,225.861694 237.121338,226.022858 
	C232.328781,226.822159 229.896255,225.209320 228.365219,220.176376 
	C226.202530,213.067062 220.402328,209.594711 212.987183,209.012390 
z"/>
<path fill="#BDDD05" opacity="1.000000" stroke="none" 
	d="
M185.044846,226.378891 
	C188.679596,225.992218 192.378098,226.000717 196.538300,226.004608 
	C197.000000,226.000000 196.996552,226.001907 196.987457,226.412720 
	C197.549255,236.346619 203.378174,241.857147 213.010742,242.445984 
	C212.993210,246.593689 212.980362,250.279999 212.967499,253.966324 
	C212.967499,253.966324 212.974976,253.981003 212.971176,253.973938 
	C202.683670,252.883896 194.145844,248.617523 189.078613,239.358475 
	C187.007019,235.573181 186.388290,230.992752 185.044846,226.378891 
z"/>
<path fill="#86C706" opacity="1.000000" stroke="none" 
	d="
M213.379700,253.979004 
	C212.980362,250.279999 212.993210,246.593689 213.002258,242.454407 
	C212.998474,242.001450 212.983231,242.016632 213.395676,242.018051 
	C223.473038,241.409943 229.727966,234.795685 228.319504,226.044220 
	C223.291321,226.044220 218.167740,226.044220 213.006836,226.005814 
	C212.969513,225.967407 212.896301,225.889236 212.927612,225.429581 
	C212.977020,219.642105 212.995117,214.314270 213.013214,208.986450 
	C213.013214,208.986450 213.001404,208.998657 212.994293,209.005524 
	C220.402328,209.594711 226.202530,213.067062 228.365219,220.176376 
	C229.896255,225.209320 232.328781,226.822159 237.121338,226.022858 
	C238.087662,225.861694 239.102493,225.991470 240.555344,225.986847 
	C240.627258,241.389145 230.603745,251.700333 213.379700,253.979004 
z"/>
<path fill="#343A41" opacity="1.000000" stroke="none" 
	d="
M41.542709,454.191986 
	C46.316227,455.497833 47.942104,458.652435 47.821537,463.177887 
	C47.715530,467.156830 46.780399,470.382660 42.179989,471.791931 
	C37.244705,470.944061 35.363232,467.976013 35.387859,463.356140 
	C35.411049,459.005554 36.331451,455.431061 41.542709,454.191986 
z"/>
<path fill="#FE9101" opacity="1.000000" stroke="none" 
	d="
M357.853760,348.972656 
	C366.110321,369.992310 357.402924,390.794464 335.584961,399.486237 
	C309.705261,409.796021 283.195740,409.965546 257.218323,399.950958 
	C231.807831,390.155029 223.969849,365.422699 237.707260,340.570099 
	C237.689499,350.678162 240.217209,353.485138 249.277313,352.910767 
	C253.922592,354.363190 258.193970,355.706085 262.414368,357.193604 
	C273.087280,360.955292 283.933105,363.901917 295.345703,363.981689 
	C309.208710,364.078674 321.999634,359.407135 334.921021,355.129517 
	C342.422546,352.646149 350.200317,350.997131 357.853760,348.972656 
M254.747604,360.837250 
	C254.130417,359.481384 253.854095,357.380859 252.830688,356.912384 
	C250.016037,355.623932 246.758133,354.017822 243.915573,354.386719 
	C239.947266,354.901642 237.461884,358.128632 236.929352,362.417175 
	C236.451065,366.268829 238.290817,368.910950 241.489899,370.496979 
	C246.546021,373.003693 253.186813,368.477783 254.747604,360.837250 
M249.679169,374.829376 
	C248.441208,374.180328 247.149857,372.933685 245.979279,373.038361 
	C244.615479,373.160217 242.817825,374.185425 242.220688,375.341492 
	C241.725113,376.300964 242.264420,378.672638 243.123993,379.240997 
	C244.304474,380.021545 246.539627,380.292023 247.728073,379.660950 
	C248.846893,379.066864 249.194244,377.019958 249.679169,374.829376 
z"/>
<path fill="#FFBC00" opacity="1.000000" stroke="none" 
	d="
M357.859558,348.616699 
	C350.200317,350.997131 342.422546,352.646149 334.921021,355.129517 
	C321.999634,359.407135 309.208710,364.078674 295.345703,363.981689 
	C283.933105,363.901917 273.087280,360.955292 262.414368,357.193604 
	C258.193970,355.706085 253.922592,354.363190 249.506500,352.655792 
	C250.746948,350.213745 252.127609,348.051544 253.569611,345.931061 
	C256.329193,341.873077 258.416382,336.983856 262.053101,333.975433 
	C269.282318,327.995178 277.940063,324.374329 287.373993,323.073853 
	C293.915710,322.172058 295.603973,320.531799 296.703186,314.020447 
	C299.211914,314.335571 301.306030,314.808136 303.423035,314.958801 
	C320.480164,316.173065 335.255829,322.567383 347.787720,334.216339 
	C348.679688,335.045502 350.030853,335.380646 351.168518,335.945465 
	C351.523804,336.023712 351.766510,336.232697 351.972412,337.117126 
	C352.410736,338.096954 352.773315,338.532043 353.135895,338.967133 
	C354.712372,342.065002 356.288849,345.162872 357.859558,348.616699 
z"/>
<path fill="#FDED59" opacity="1.000000" stroke="none" 
	d="
M296.299164,314.028809 
	C295.603973,320.531799 293.915710,322.172058 287.373993,323.073853 
	C277.940063,324.374329 269.282318,327.995178 262.053101,333.975433 
	C258.416382,336.983856 256.329193,341.873077 253.569611,345.931061 
	C252.127609,348.051544 250.746948,350.213745 249.109375,352.612122 
	C240.217209,353.485138 237.689499,350.678162 238.002930,340.379272 
	C237.966904,339.930511 237.996246,339.981903 238.236633,339.843811 
	C238.641479,339.131714 238.805939,338.557648 238.970413,337.983612 
	C249.159485,319.563568 265.601685,310.573303 285.693390,307.347809 
	C288.105377,306.960602 290.773254,308.167389 293.813110,309.120270 
	C294.968842,311.079742 295.634003,312.554260 296.299164,314.028809 
z"/>
<path fill="#FACA02" opacity="1.000000" stroke="none" 
	d="
M296.703186,314.020447 
	C295.634003,312.554260 294.968842,311.079742 294.146606,309.293762 
	C317.299347,308.401978 336.564972,316.582184 351.070129,335.616516 
	C350.030853,335.380646 348.679688,335.045502 347.787720,334.216339 
	C335.255829,322.567383 320.480164,316.173065 303.423035,314.958801 
	C301.306030,314.808136 299.211914,314.335571 296.703186,314.020447 
z"/>
<path fill="#FACA02" opacity="1.000000" stroke="none" 
	d="
M353.090576,338.677368 
	C352.773315,338.532043 352.410736,338.096954 352.012024,337.362732 
	C352.332306,337.504913 352.688782,337.946259 353.090576,338.677368 
z"/>
<path fill="#FE9101" opacity="1.000000" stroke="none" 
	d="
M238.727478,338.158234 
	C238.805939,338.557648 238.641479,339.131714 238.208344,339.852081 
	C238.121307,339.443237 238.302933,338.888031 238.727478,338.158234 
z"/>
<path fill="#54C408" opacity="1.000000" stroke="none" 
	d="
M212.613297,208.993042 
	C212.995117,214.314270 212.977020,219.642105 212.472809,225.461197 
	C206.989975,225.968948 201.993256,225.985428 196.996552,226.001907 
	C196.996552,226.001907 197.000000,226.000000 196.998917,226.001801 
	C197.012070,216.160645 202.159851,210.407791 212.613297,208.993042 
z"/>
<path fill="#86C606" opacity="1.000000" stroke="none" 
	d="
M196.987457,226.412720 
	C201.993256,225.985428 206.989975,225.968948 212.441498,225.920853 
	C212.896301,225.889236 212.969513,225.967407 212.989838,226.467438 
	C213.001205,231.983856 212.992218,237.000244 212.983231,242.016632 
	C212.983231,242.016632 212.998474,242.001450 213.006958,241.993011 
	C203.378174,241.857147 197.549255,236.346619 196.987457,226.412720 
z"/>
<path fill="#BDDD05" opacity="1.000000" stroke="none" 
	d="
M213.395676,242.018051 
	C212.992218,237.000244 213.001205,231.983856 213.027161,226.505844 
	C218.167740,226.044220 223.291321,226.044220 228.319504,226.044220 
	C229.727966,234.795685 223.473038,241.409943 213.395676,242.018051 
z"/>
<path fill="#FFED58" opacity="1.000000" stroke="none" 
	d="
M254.804581,361.212524 
	C253.186813,368.477783 246.546021,373.003693 241.489899,370.496979 
	C238.290817,368.910950 236.451065,366.268829 236.929352,362.417175 
	C237.461884,358.128632 239.947266,354.901642 243.915573,354.386719 
	C246.758133,354.017822 250.016037,355.623932 252.830688,356.912384 
	C253.854095,357.380859 254.130417,359.481384 254.804581,361.212524 
z"/>
<path fill="#FFEB56" opacity="1.000000" stroke="none" 
	d="
M249.780090,375.220795 
	C249.194244,377.019958 248.846893,379.066864 247.728073,379.660950 
	C246.539627,380.292023 244.304474,380.021545 243.123993,379.240997 
	C242.264420,378.672638 241.725113,376.300964 242.220688,375.341492 
	C242.817825,374.185425 244.615479,373.160217 245.979279,373.038361 
	C247.149857,372.933685 248.441208,374.180328 249.780090,375.220795 
z"/>
</svg>