<svg version="1.1" id="Layer_1" xmlns="http://www.w3.org/2000/svg" xmlns:xlink="http://www.w3.org/1999/xlink" x="0px" y="0px"
	 width="100%" viewBox="0 0 512 512" xml:space="preserve">
<path fill="#EA9F15" opacity="1.000000" stroke="none" 
	d="
M1.000000,281.000000 
	C1.000000,265.312439 1.000000,249.624878 1.361732,233.759598 
	C2.883543,228.235474 3.789199,222.818604 5.246741,217.554565 
	C12.432504,191.602570 20.365255,165.929092 30.407112,140.867416 
	C41.635777,112.843788 59.611763,90.095139 83.024475,71.805748 
	C101.711937,57.207584 121.448059,43.917271 141.055267,30.539743 
	C166.006226,13.516313 194.256638,5.782320 224.038315,5.263745 
	C251.873062,4.779072 279.791412,3.449899 307.621948,6.889476 
	C323.435883,8.843918 338.829376,12.259988 352.876312,19.630785 
	C366.377075,26.714998 379.591736,34.543217 392.149323,43.182312 
	C414.451141,58.525002 436.831024,74.001518 454.812531,94.558723 
	C461.958038,102.727783 468.337006,111.763458 473.847107,121.121666 
	C482.444061,135.722366 488.276886,151.627304 493.436005,167.783615 
	C500.149475,188.807617 508.102692,209.468979 511.104828,231.523193 
	C511.182129,232.090927 512.343933,232.511032 513.000000,233.000000 
	C513.000000,248.687561 513.000000,264.375122 512.638367,280.240173 
	C511.862671,281.095367 511.235535,281.724060 511.066711,282.458160 
	C508.665833,292.896942 507.064056,303.585327 503.819061,313.750458 
	C497.123779,334.723969 490.121216,355.636292 482.214508,376.177063 
	C471.857147,403.084534 453.558533,424.464600 431.178284,441.984070 
	C412.509369,456.598206 392.748138,469.843842 373.194611,483.294250 
	C348.435059,500.325806 320.352600,508.111176 290.772003,508.707581 
	C262.787659,509.271759 234.713226,510.556396 206.717697,507.134399 
	C190.056335,505.097778 174.181931,500.913513 159.153320,493.570648 
	C143.631607,485.986847 129.443665,476.301483 115.387924,466.272003 
	C95.449966,452.045197 75.420860,437.946198 59.191990,419.437042 
	C52.038937,411.278900 45.549339,402.295654 40.159248,392.884766 
	C28.228920,372.054871 20.575346,349.369568 14.067366,326.358673 
	C9.966913,311.860321 6.662113,297.137451 2.908138,282.539032 
	C2.744948,281.904419 1.657114,281.507599 1.000000,281.000000 
M385.174713,64.337296 
	C377.672241,53.845207 366.968872,49.163242 354.578979,49.202835 
	C340.260590,49.248596 327.916260,45.379715 316.968079,35.909641 
	C308.976990,28.997463 299.430359,24.669668 288.466217,26.168749 
	C282.402283,26.997849 276.376373,28.607903 270.543915,30.511200 
	C261.485413,33.467243 252.519775,34.035133 243.664642,30.396711 
	C224.164719,22.384527 206.863815,25.728842 191.463898,39.900288 
	C190.977127,40.348248 190.378296,40.672226 189.847900,41.075325 
	C184.278137,45.308254 178.181229,48.038269 171.031616,48.243053 
	C166.212372,48.381081 161.403152,48.891048 156.591156,49.256935 
	C142.249466,50.347435 131.963333,57.825645 124.871941,69.909691 
	C118.619934,80.563393 110.909370,89.244911 98.647461,93.181068 
	C80.874290,98.886375 70.904343,111.344460 68.039299,129.689651 
	C66.353966,140.481064 61.541203,149.534180 52.929562,156.458038 
	C51.249149,157.809097 49.885231,159.547089 48.252728,160.965500 
	C36.394398,171.268753 32.911671,184.372467 35.680874,199.373032 
	C37.911880,211.458191 36.982834,222.899216 30.207996,233.482330 
	C29.583038,234.458588 29.202620,235.587769 28.638203,236.606934 
	C21.064598,250.282669 20.841311,264.114624 28.827969,277.516266 
	C36.209854,289.903107 38.025410,302.667908 35.425018,316.818726 
	C32.972164,330.166687 36.172920,342.685211 47.080193,351.649536 
	C59.941273,362.219574 67.794090,375.276611 69.961372,391.765930 
	C70.026047,392.257996 70.183456,392.740173 70.322121,393.219910 
	C73.399353,403.865631 79.696777,411.892365 89.730240,416.772949 
	C94.221573,418.957703 98.770370,421.048523 103.397797,422.923553 
	C110.270607,425.708496 115.679932,430.105286 119.708160,436.347198 
	C122.777710,441.103607 125.940529,445.818726 129.359085,450.326843 
	C135.257126,458.104675 143.042496,462.895416 152.849854,464.052917 
	C156.645447,464.500885 160.460175,464.942871 164.275101,465.041107 
	C174.906174,465.314789 184.701508,467.762878 192.827118,475.109650 
	C194.179703,476.332581 195.799942,477.253845 197.230713,478.396851 
	C209.419495,488.133942 222.922485,490.798737 237.561081,485.204559 
	C250.641785,480.205688 263.404816,480.249603 276.492920,485.219269 
	C291.118469,490.772736 304.959412,488.489441 316.736664,478.272278 
	C327.818390,468.658478 340.296936,464.758484 354.781219,464.788971 
	C368.037262,464.816895 378.963684,459.233124 386.518799,447.911713 
	C389.015656,444.170135 391.652832,440.518494 394.049469,436.714600 
	C397.907043,430.592010 403.066925,426.111542 409.792236,423.386993 
	C413.186890,422.011749 416.465027,420.349487 419.855988,418.964172 
	C433.383881,413.437744 442.202484,403.678986 444.607849,389.255219 
	C447.060638,374.547028 453.764191,362.840881 465.240265,353.390381 
	C477.619965,343.195709 481.180084,329.668488 478.275391,314.236786 
	C476.036133,302.340332 477.051300,291.038391 483.746338,280.619812 
	C484.283234,279.784302 484.600830,278.811188 485.088165,277.939972 
	C492.900146,263.974548 493.169647,249.855087 485.000031,236.103409 
	C477.728638,223.863693 475.958771,211.249634 478.552826,197.266281 
	C481.025970,183.934616 477.885468,171.398056 466.989990,162.402451 
	C454.174469,151.821640 446.182007,138.840561 444.058929,122.319199 
	C444.037781,122.154518 443.996246,121.991615 443.953796,121.830627 
	C440.929535,110.367004 434.549957,101.024849 423.379913,97.002602 
	C406.533691,90.936409 393.921997,80.637566 385.174713,64.337296 
z"/>

<path fill="#CD3633" opacity="1.000000" stroke="none" 
	d="
M385.391296,64.619705 
	C393.921997,80.637566 406.533691,90.936409 423.379913,97.002602 
	C434.549957,101.024849 440.929535,110.367004 443.953796,121.830627 
	C443.996246,121.991615 444.037781,122.154518 444.058929,122.319199 
	C446.182007,138.840561 454.174469,151.821640 466.989990,162.402451 
	C477.885468,171.398056 481.025970,183.934616 478.552826,197.266281 
	C475.958771,211.249634 477.728638,223.863693 485.000031,236.103409 
	C493.169647,249.855087 492.900146,263.974548 485.088165,277.939972 
	C484.600830,278.811188 484.283234,279.784302 483.746338,280.619812 
	C477.051300,291.038391 476.036133,302.340332 478.275391,314.236786 
	C481.180084,329.668488 477.619965,343.195709 465.240265,353.390381 
	C453.764191,362.840881 447.060638,374.547028 444.607849,389.255219 
	C442.202484,403.678986 433.383881,413.437744 419.855988,418.964172 
	C416.465027,420.349487 413.186890,422.011749 409.792236,423.386993 
	C403.066925,426.111542 397.907043,430.592010 394.049469,436.714600 
	C391.652832,440.518494 389.015656,444.170135 386.518799,447.911713 
	C378.963684,459.233124 368.037262,464.816895 354.781219,464.788971 
	C340.296936,464.758484 327.818390,468.658478 316.736664,478.272278 
	C304.959412,488.489441 291.118469,490.772736 276.492920,485.219269 
	C263.404816,480.249603 250.641785,480.205688 237.561081,485.204559 
	C222.922485,490.798737 209.419495,488.133942 197.230713,478.396851 
	C195.799942,477.253845 194.179703,476.332581 192.827118,475.109650 
	C184.701508,467.762878 174.906174,465.314789 164.275101,465.041107 
	C160.460175,464.942871 156.645447,464.500885 152.849854,464.052917 
	C143.042496,462.895416 135.257126,458.104675 129.359085,450.326843 
	C125.940529,445.818726 122.777710,441.103607 119.708160,436.347198 
	C115.679932,430.105286 110.270607,425.708496 103.397797,422.923553 
	C98.770370,421.048523 94.221573,418.957703 89.730240,416.772949 
	C79.696777,411.892365 73.399353,403.865631 70.322121,393.219910 
	C70.183456,392.740173 70.026047,392.257996 69.961372,391.765930 
	C67.794090,375.276611 59.941273,362.219574 47.080193,351.649536 
	C36.172920,342.685211 32.972164,330.166687 35.425018,316.818726 
	C38.025410,302.667908 36.209854,289.903107 28.827969,277.516266 
	C20.841311,264.114624 21.064598,250.282669 28.638203,236.606934 
	C29.202620,235.587769 29.583038,234.458588 30.207996,233.482330 
	C36.982834,222.899216 37.911880,211.458191 35.680874,199.373032 
	C32.911671,184.372467 36.394398,171.268753 48.252728,160.965500 
	C49.885231,159.547089 51.249149,157.809097 52.929562,156.458038 
	C61.541203,149.534180 66.353966,140.481064 68.039299,129.689651 
	C70.904343,111.344460 80.874290,98.886375 98.647461,93.181068 
	C110.909370,89.244911 118.619934,80.563393 124.871941,69.909691 
	C131.963333,57.825645 142.249466,50.347435 156.591156,49.256935 
	C161.403152,48.891048 166.212372,48.381081 171.031616,48.243053 
	C178.181229,48.038269 184.278137,45.308254 189.847900,41.075325 
	C190.378296,40.672226 190.977127,40.348248 191.463898,39.900288 
	C206.863815,25.728842 224.164719,22.384527 243.664642,30.396711 
	C252.519775,34.035133 261.485413,33.467243 270.543915,30.511200 
	C276.376373,28.607903 282.402283,26.997849 288.466217,26.168749 
	C299.430359,24.669668 308.976990,28.997463 316.968079,35.909641 
	C327.916260,45.379715 340.260590,49.248596 354.578979,49.202835 
	C366.968872,49.163242 377.672241,53.845207 385.391296,64.619705 
M473.775208,248.904480 
	C471.812592,244.693314 470.116699,240.331223 467.835571,236.300293 
	C461.813599,225.658905 460.178619,214.156708 462.446228,202.496140 
	C465.262726,188.012909 462.441986,176.153320 450.054779,167.332153 
	C449.652161,167.045456 449.343201,166.630997 448.965088,166.305740 
	C439.679565,158.317795 433.242828,148.420517 431.670593,136.272491 
	C429.590881,120.203606 421.073273,110.627556 405.782562,105.776718 
	C394.639252,102.241600 386.323975,94.565544 380.138672,84.582321 
	C377.697723,80.642639 374.806335,76.982025 371.824158,72.555771 
	C368.596405,68.344315 364.387054,65.902115 358.331421,65.181442 
	C356.675140,65.037163 355.020508,64.790855 353.362366,64.764458 
	C337.516541,64.512100 322.622070,61.468410 310.485779,50.267948 
	C300.641144,41.182430 289.581604,39.423111 277.321625,44.689064 
	C276.566833,45.013271 275.698029,45.062256 274.919952,45.343544 
	C263.052032,49.634041 251.015823,50.041901 239.346237,45.294998 
	C224.832245,39.391060 212.445587,41.556847 200.812057,52.147205 
	C191.643692,60.493439 180.317993,64.112740 167.815125,64.126907 
	C163.525742,64.131767 159.237320,64.998558 154.142593,65.532257 
	C148.935257,66.298416 144.728363,68.663445 141.360886,73.564598 
	C131.897675,89.248756 120.758995,102.986259 102.220657,108.625038 
	C91.429382,111.907402 85.611069,119.569618 83.853462,130.625290 
	C81.384293,146.156906 74.654037,159.402679 62.001690,169.122330 
	C52.071098,176.751068 48.861202,186.656784 51.083809,198.673553 
	C51.235096,199.491470 51.364162,200.314056 51.481979,201.137558 
	C53.217072,213.265335 52.480774,224.975250 46.329201,235.996277 
	C43.914013,240.323273 42.168495,245.024048 39.741302,250.278091 
	C37.834538,255.056961 37.853710,259.783691 40.234093,265.096710 
	C42.197762,269.307861 43.894207,273.670349 46.176895,277.700836 
	C52.204227,288.343109 53.825096,299.852783 51.549240,311.506104 
	C48.717621,326.005157 51.611012,337.833282 63.958454,346.660980 
	C64.226929,346.852905 64.438812,347.122040 64.691803,347.337891 
	C74.140694,355.399353 80.745354,365.391083 82.329300,377.725586 
	C84.396439,393.822723 92.994827,403.340179 108.228317,408.211761 
	C119.371681,411.775330 127.680931,419.432190 133.875656,429.403015 
	C136.320831,433.338684 139.203308,437.002747 142.189651,441.426178 
	C145.400620,445.661072 149.615967,448.089996 155.670639,448.816650 
	C160.476883,449.214661 165.276398,449.764252 170.090820,449.978577 
	C179.611298,450.402344 188.434540,452.822357 196.252121,458.443237 
	C200.842468,461.743744 205.459534,465.007172 210.042572,468.317749 
	C215.854797,472.516205 222.424805,473.832275 228.975555,471.340515 
	C247.667801,464.230347 266.112488,464.040283 284.819885,471.275360 
	C291.564575,473.883911 298.252106,472.471252 304.201782,468.171112 
	C308.784027,464.859222 313.406555,461.603058 317.997009,458.302429 
	C325.676849,452.780426 334.363159,450.480469 343.695190,449.974762 
	C348.826538,449.696655 353.936005,449.015411 359.859772,448.450867 
	C365.076904,447.707672 369.257538,445.303253 372.640015,440.423859 
	C374.442291,437.829651 376.450836,435.353271 378.011536,432.621063 
	C385.164825,420.098022 395.390381,411.218292 409.106659,406.734497 
	C421.794617,402.586884 429.067047,394.194275 430.836151,380.971222 
	C431.055206,379.333984 431.628601,377.747437 431.959778,376.121460 
	C434.122620,365.503876 439.259613,356.613953 447.252167,349.298676 
	C450.810913,346.041504 454.186035,342.581757 457.605225,339.174500 
	C461.858551,334.936066 463.792419,329.777527 463.388062,323.798645 
	C463.118958,319.818787 462.792542,315.837494 462.315857,311.878021 
	C460.894165,300.069183 461.684204,288.687836 467.671295,278.000580 
	C470.092224,273.679077 471.829651,268.974701 474.251892,263.719635 
	C476.174896,258.943848 476.143402,254.219360 473.775208,248.904480 
z"/>
<path fill="#FFA602" opacity="1.000000" stroke="none" 
	d="
M141.882553,73.203674 
	C144.728363,68.663445 148.935257,66.298416 154.802353,65.782562 
	C189.148483,124.345779 222.834854,182.658691 256.898102,241.624008 
	C258.351196,239.274918 259.331482,237.778610 260.225189,236.232239 
	C276.805573,207.542908 293.355591,178.835983 309.953583,150.156845 
	C326.298309,121.915337 342.689392,93.700691 359.060150,65.474266 
	C364.387054,65.902115 368.596405,68.344315 371.764404,73.142044 
	C371.508972,73.996124 371.286438,74.248398 371.121490,74.533936 
	C338.242188,131.455933 305.365082,188.379196 272.505798,245.312729 
	C271.880371,246.396423 271.466614,247.602325 270.756134,249.194992 
	C272.522369,249.375107 273.792145,249.617996 275.061951,249.617844 
	C341.334595,249.609406 407.607269,249.580368 473.879913,249.553497 
	C476.143402,254.219360 476.174896,258.943848 473.603943,264.057007 
	C405.724548,264.394379 338.493103,264.394379 270.206390,264.394379 
	C271.590149,266.952545 272.389709,268.519714 273.268097,270.041443 
	C292.830902,303.932526 312.379242,337.832031 331.980347,371.700958 
	C345.323029,394.755829 358.741974,417.766602 372.126831,440.797089 
	C369.257538,445.303253 365.076904,447.707672 359.200562,448.200806 
	C324.852814,389.637665 291.164246,331.324646 257.094360,272.351562 
	C255.639435,274.703583 254.659195,276.199554 253.765762,277.745667 
	C238.519394,304.129883 223.303436,330.531708 208.040634,356.906372 
	C190.361969,387.455780 172.644241,417.982544 154.943481,448.519135 
	C149.615967,448.089996 145.400620,445.661072 142.244446,440.841614 
	C142.576538,439.844391 142.879410,439.446472 143.127502,439.016937 
	C175.922318,382.242798 208.714951,325.467407 241.490417,268.682068 
	C242.115082,267.599823 242.534073,266.398834 243.249741,264.806702 
	C241.640900,264.622467 240.536163,264.385071 239.431458,264.385223 
	C172.996002,264.394196 106.560547,264.422729 40.125095,264.449402 
	C37.853710,259.783691 37.834538,255.056961 40.390984,249.941681 
	C108.272942,249.605255 175.505219,249.605255 243.667435,249.605255 
	C242.443726,247.227890 241.772552,245.779144 240.978012,244.401535 
	C221.260605,210.214813 201.557007,176.020065 181.792572,141.860550 
	C168.535614,118.948090 155.189026,96.087486 141.882553,73.203674 
z"/>
<path fill="#FFF2B0" opacity="1.000000" stroke="none" 
	d="
M40.179596,264.773071 
	C106.560547,264.422729 172.996002,264.394196 239.431458,264.385223 
	C240.536163,264.385071 241.640900,264.622467 243.249741,264.806702 
	C242.534073,266.398834 242.115082,267.599823 241.490417,268.682068 
	C208.714951,325.467407 175.922318,382.242798 143.127502,439.016937 
	C142.879410,439.446472 142.576538,439.844391 142.092957,440.523773 
	C139.203308,437.002747 136.320831,433.338684 133.875656,429.403015 
	C127.680931,419.432190 119.371681,411.775330 108.228317,408.211761 
	C92.994827,403.340179 84.396439,393.822723 82.329300,377.725586 
	C80.745354,365.391083 74.140694,355.399353 64.691803,347.337891 
	C64.438812,347.122040 64.226929,346.852905 63.958454,346.660980 
	C51.611012,337.833282 48.717621,326.005157 51.549240,311.506104 
	C53.825096,299.852783 52.204227,288.343109 46.176895,277.700836 
	C43.894207,273.670349 42.197762,269.307861 40.179596,264.773071 
M143.870667,352.475769 
	C156.924911,351.531860 165.679153,338.229095 161.335281,325.754761 
	C158.461273,317.501434 152.615509,311.679871 145.242950,307.358093 
	C128.943100,297.803253 109.713570,304.457825 102.647362,322.022156 
	C100.940697,326.264374 101.587814,330.160828 105.718132,332.417511 
	C118.112396,339.189362 130.657425,345.685272 143.870667,352.475769 
M196.918167,299.674774 
	C200.520935,301.398285 204.237228,301.132965 206.186951,297.743927 
	C207.446945,295.553741 207.859634,291.621643 206.683350,289.636963 
	C205.505753,287.650085 201.830994,286.128113 199.343887,286.253204 
	C197.350006,286.353485 194.164780,289.036713 193.900665,290.910828 
	C193.533081,293.519165 195.399292,296.442322 196.918167,299.674774 
M153.370590,290.368622 
	C159.951614,291.650452 165.051208,287.715698 163.193970,282.230103 
	C162.359497,279.765411 159.269669,276.734711 156.930313,276.481415 
	C154.570465,276.225891 150.885208,278.501984 149.551193,280.729340 
	C147.488022,284.174133 148.958740,287.804596 153.370590,290.368622 
M77.600464,311.080688 
	C83.066010,312.486420 87.129288,310.406464 87.978355,305.768372 
	C88.739136,301.612549 85.855293,296.967316 81.789940,297.252594 
	C79.112587,297.440521 75.713211,299.197540 74.195274,301.350494 
	C71.739594,304.833496 73.556229,308.310425 77.600464,311.080688 
M130.887589,383.843842 
	C125.858589,379.360199 119.484711,379.986633 118.190262,385.544250 
	C117.604309,388.060028 118.803467,391.727844 120.484444,393.849731 
	C122.603882,396.525085 126.199646,396.283844 129.068130,394.222015 
	C132.536530,391.728973 133.044220,388.350952 130.887589,383.843842 
z"/>
<path fill="#FFF2B0" opacity="1.000000" stroke="none" 
	d="
M473.827576,249.228989 
	C407.607269,249.580368 341.334595,249.609406 275.061951,249.617844 
	C273.792145,249.617996 272.522369,249.375107 270.756134,249.194992 
	C271.466614,247.602325 271.880371,246.396423 272.505798,245.312729 
	C305.365082,188.379196 338.242188,131.455933 371.121490,74.533936 
	C371.286438,74.248398 371.508972,73.996124 371.912354,73.461319 
	C374.806335,76.982025 377.697723,80.642639 380.138672,84.582321 
	C386.323975,94.565544 394.639252,102.241600 405.782562,105.776718 
	C421.073273,110.627556 429.590881,120.203606 431.670593,136.272491 
	C433.242828,148.420517 439.679565,158.317795 448.965088,166.305740 
	C449.343201,166.630997 449.652161,167.045456 450.054779,167.332153 
	C462.441986,176.153320 465.262726,188.012909 462.446228,202.496140 
	C460.178619,214.156708 461.813599,225.658905 467.835571,236.300293 
	C470.116699,240.331223 471.812592,244.693314 473.827576,249.228989 
M377.923187,166.358612 
	C375.137787,166.828140 372.274689,167.042038 369.594177,167.856659 
	C367.794373,168.403625 365.821411,169.451279 364.666443,170.875458 
	C357.295654,179.964523 359.215942,194.085815 369.100403,200.338425 
	C380.692932,207.671524 393.131317,208.043961 405.184448,201.637985 
	C416.307465,195.726349 419.727173,185.436050 419.084045,173.389328 
	C418.556671,163.511566 415.204346,160.745026 405.416779,162.238495 
	C396.543915,163.592392 387.662018,164.887024 377.923187,166.358612 
M307.250519,235.319031 
	C313.641418,235.953293 318.400604,231.771225 316.351654,226.701279 
	C315.376831,224.289124 312.363312,221.904953 309.785370,221.128754 
	C306.188202,220.045731 303.282684,222.579132 302.263611,226.094162 
	C301.112885,230.062988 302.591461,233.277145 307.250519,235.319031 
M424.734253,233.068161 
	C429.018921,233.357452 431.881042,231.354340 432.835144,227.284576 
	C433.684814,223.660141 432.167511,220.733978 428.763153,219.053177 
	C425.113190,217.251160 420.866272,218.766937 419.009613,222.407471 
	C416.871033,226.600677 418.642700,230.396652 424.734253,233.068161 
M327.384888,191.215012 
	C331.060638,192.436325 334.401581,191.404510 335.842072,188.072556 
	C336.807861,185.838516 336.950562,182.059097 335.649689,180.350800 
	C334.187958,178.431198 330.506470,176.959625 328.128723,177.350342 
	C326.007751,177.698868 323.543488,180.546417 322.671661,182.839127 
	C321.345612,186.326172 323.398590,189.200729 327.384888,191.215012 
M364.136810,223.783936 
	C363.383087,219.785095 360.784698,217.217667 356.940063,217.835373 
	C354.445587,218.236160 351.271759,220.290817 350.286499,222.460205 
	C349.395782,224.421448 350.256836,228.336929 351.827087,229.932602 
	C353.409698,231.540817 357.442413,232.575989 359.265289,231.642715 
	C361.524384,230.486115 362.614685,227.046494 364.136810,223.783936 
M375.895081,125.589508 
	C372.855286,123.751259 369.542480,123.575554 367.232819,126.183098 
	C365.680664,127.935455 364.225830,131.190155 364.841248,133.086899 
	C365.605591,135.442764 368.343903,138.316666 370.612885,138.700302 
	C372.885529,139.084595 376.388184,137.300034 377.992493,135.348618 
	C380.471710,132.333084 379.432556,128.777405 375.895081,125.589508 
z"/>
<path fill="#FFF1B0" opacity="1.000000" stroke="none" 
	d="
M372.383423,440.610474 
	C358.741974,417.766602 345.323029,394.755829 331.980347,371.700958 
	C312.379242,337.832031 292.830902,303.932526 273.268097,270.041443 
	C272.389709,268.519714 271.590149,266.952545 270.206390,264.394379 
	C338.493103,264.394379 405.724548,264.394379 473.417053,264.419464 
	C471.829651,268.974701 470.092224,273.679077 467.671295,278.000580 
	C461.684204,288.687836 460.894165,300.069183 462.315857,311.878021 
	C462.792542,315.837494 463.118958,319.818787 463.388062,323.798645 
	C463.792419,329.777527 461.858551,334.936066 457.605225,339.174500 
	C454.186035,342.581757 450.810913,346.041504 447.252167,349.298676 
	C439.259613,356.613953 434.122620,365.503876 431.959778,376.121460 
	C431.628601,377.747437 431.055206,379.333984 430.836151,380.971222 
	C429.067047,394.194275 421.794617,402.586884 409.106659,406.734497 
	C395.390381,411.218292 385.164825,420.098022 378.011536,432.621063 
	C376.450836,435.353271 374.442291,437.829651 372.383423,440.610474 
M360.882019,280.608398 
	C358.018982,278.068970 355.344421,275.258087 352.223022,273.090759 
	C350.315826,271.766479 347.690216,270.682617 345.441589,270.777527 
	C333.746521,271.271362 324.607056,281.435516 326.178101,292.952271 
	C328.082458,306.912598 336.036652,317.000702 349.305206,321.762726 
	C361.984039,326.313080 372.376678,321.117950 381.031036,311.776642 
	C385.672485,306.766754 385.469116,302.603363 380.423798,298.015411 
	C374.145477,292.306213 367.756592,286.718628 360.882019,280.608398 
M383.500092,350.919464 
	C377.351135,350.849548 371.196014,350.598663 365.056488,350.807068 
	C362.882263,350.880859 360.278229,351.512054 358.670776,352.850159 
	C350.291870,359.825378 349.568451,373.386414 356.850952,381.567078 
	C364.897369,390.605865 381.593842,394.365540 393.749695,389.875885 
	C404.804626,385.792877 411.729218,375.021118 411.976501,361.522614 
	C412.111298,354.164703 409.244507,351.140778 401.950958,351.044891 
	C396.134460,350.968414 390.317017,350.963135 383.500092,350.919464 
M332.408173,346.070892 
	C337.293091,348.707306 341.465118,348.076813 343.589569,344.198730 
	C345.509399,340.694183 344.994202,337.337646 341.925751,334.773224 
	C338.852936,332.205139 335.363312,332.158722 332.406464,334.884949 
	C328.929474,338.090759 328.890686,341.810272 332.408173,346.070892 
M425.645874,325.503693 
	C424.158997,319.643524 420.350555,316.825348 415.904022,318.461670 
	C412.154724,319.841370 410.361176,322.644501 410.925476,326.650055 
	C411.461670,330.456390 413.944122,332.660400 417.628784,332.883881 
	C422.115753,333.156128 424.712585,330.606079 425.645874,325.503693 
M308.283600,279.127777 
	C301.853485,277.364380 296.400330,280.861755 297.739594,286.431183 
	C298.341492,288.934296 301.192993,292.178192 303.503204,292.629120 
	C305.824554,293.082214 309.647400,291.150391 311.189667,289.064178 
	C313.606506,285.794861 312.351868,282.104584 308.283600,279.127777 
M396.560089,290.941589 
	C398.722260,294.123413 401.975220,295.308380 405.206451,293.755493 
	C407.260040,292.768555 409.698547,290.090942 409.766754,288.096344 
	C409.851654,285.614624 408.285583,282.112000 406.286316,280.809052 
	C404.479797,279.631775 400.699066,280.012299 398.559448,281.152161 
	C395.091309,282.999817 394.655029,286.625519 396.560089,290.941589 
z"/>
<path fill="#FFF1B0" opacity="1.000000" stroke="none" 
	d="
M141.621719,73.384140 
	C155.189026,96.087486 168.535614,118.948090 181.792572,141.860550 
	C201.557007,176.020065 221.260605,210.214813 240.978012,244.401535 
	C241.772552,245.779144 242.443726,247.227890 243.667435,249.605255 
	C175.505219,249.605255 108.272942,249.605255 40.579338,249.579926 
	C42.168495,245.024048 43.914013,240.323273 46.329201,235.996277 
	C52.480774,224.975250 53.217072,213.265335 51.481979,201.137558 
	C51.364162,200.314056 51.235096,199.491470 51.083809,198.673553 
	C48.861202,186.656784 52.071098,176.751068 62.001690,169.122330 
	C74.654037,159.402679 81.384293,146.156906 83.853462,130.625290 
	C85.611069,119.569618 91.429382,111.907402 102.220657,108.625038 
	C120.758995,102.986259 131.897675,89.248756 141.621719,73.384140 
M193.228470,243.006744 
	C204.100357,241.942535 211.520767,235.681396 217.068146,226.853653 
	C219.812469,222.486511 218.997955,218.471298 214.738861,215.526062 
	C203.938156,208.057175 193.058533,200.696350 182.043900,193.549057 
	C180.285782,192.408234 177.538879,191.901688 175.465851,192.282349 
	C163.410812,194.495972 156.108673,206.678970 159.555328,218.340561 
	C163.687485,232.321503 177.747360,242.914017 193.228470,243.006744 
M139.374039,153.843887 
	C135.738770,140.942307 119.223549,135.788788 108.104218,144.232254 
	C100.611946,149.921524 96.550674,157.761383 94.729218,166.896851 
	C91.134407,184.926575 103.528191,198.317764 120.580055,201.186020 
	C125.189674,201.961411 128.604477,199.888931 129.726807,195.413971 
	C133.120346,181.883194 136.215317,168.277512 139.374039,153.843887 
M93.950562,212.834503 
	C91.359489,207.112686 86.902054,205.143570 82.666824,208.029404 
	C79.624390,210.102463 78.325127,213.007187 79.683807,216.674744 
	C81.009621,220.253571 83.768196,222.072723 87.429749,221.577255 
	C91.789490,220.987305 94.104576,218.175934 93.950562,212.834503 
M143.974045,119.335197 
	C142.775391,122.030968 140.537994,124.757698 140.617218,127.415382 
	C140.741577,131.587555 145.456116,134.008057 149.584686,132.965805 
	C153.353546,132.014343 155.821915,127.868370 154.897858,124.041634 
	C153.857773,119.734383 150.043030,117.865227 143.974045,119.335197 
M158.197113,173.266159 
	C162.717606,176.325363 166.560760,176.308350 169.223053,173.015366 
	C171.734726,169.908691 171.857910,166.527023 169.252960,163.459183 
	C166.655457,160.400070 163.283951,159.940277 159.814270,161.889099 
	C156.057404,163.999268 155.414276,167.764511 158.197113,173.266159 
M129.474289,219.061691 
	C125.812553,220.722809 123.830307,223.759750 125.117241,227.442581 
	C125.905968,229.699707 128.373871,232.377655 130.538559,232.865295 
	C132.738876,233.360977 136.392899,232.090698 137.751938,230.320541 
	C139.121689,228.536423 139.277176,224.905518 138.485535,222.589294 
	C137.275452,219.048752 133.832657,218.200668 129.474289,219.061691 
z"/>
<path fill="#FFF2B1" opacity="1.000000" stroke="none" 
	d="
M358.695801,65.327850 
	C342.689392,93.700691 326.298309,121.915337 309.953583,150.156845 
	C293.355591,178.835983 276.805573,207.542908 260.225189,236.232239 
	C259.331482,237.778610 258.351196,239.274918 256.898102,241.624008 
	C222.834854,182.658691 189.148483,124.345779 155.205292,65.752213 
	C159.237320,64.998558 163.525742,64.131767 167.815125,64.126907 
	C180.317993,64.112740 191.643692,60.493439 200.812057,52.147205 
	C212.445587,41.556847 224.832245,39.391060 239.346237,45.294998 
	C251.015823,50.041901 263.052032,49.634041 274.919952,45.343544 
	C275.698029,45.062256 276.566833,45.013271 277.321625,44.689064 
	C289.581604,39.423111 300.641144,41.182430 310.485779,50.267948 
	C322.622070,61.468410 337.516541,64.512100 353.362366,64.764458 
	C355.020508,64.790855 356.675140,65.037163 358.695801,65.327850 
M311.836243,85.662315 
	C304.574432,79.809753 297.413361,73.824280 289.983276,68.193779 
	C288.012360,66.700233 285.139832,65.363266 282.808655,65.549446 
	C269.678284,66.598114 261.325684,79.053467 264.820068,91.818451 
	C266.773651,98.954857 270.837402,104.747383 276.325531,109.584206 
	C290.730896,122.279907 310.890533,119.410820 321.285553,103.236046 
	C323.821075,99.290749 323.523224,95.631767 320.099915,92.458702 
	C317.661804,90.198799 314.973419,88.208908 311.836243,85.662315 
M255.820236,119.588829 
	C253.826065,118.759018 251.878174,117.785767 249.829529,117.124763 
	C241.871475,114.557060 238.378006,116.440620 236.115341,124.450089 
	C232.905045,135.814087 229.603210,147.155197 226.641647,158.584106 
	C226.019852,160.983658 225.912598,164.094254 226.922348,166.239990 
	C231.567673,176.111328 244.743469,180.451309 254.265869,175.107468 
	C265.692291,168.695129 271.020996,158.091522 271.702698,145.449005 
	C272.325714,133.894379 266.583344,125.442444 255.820236,119.588829 
M299.791779,143.067337 
	C301.830048,137.256699 299.736267,132.679993 294.645721,131.967926 
	C290.890503,131.442657 288.076141,132.936798 286.600281,136.426407 
	C285.110779,139.948196 286.072113,143.098831 289.151917,145.216034 
	C292.862396,147.766769 296.371918,147.048584 299.791779,143.067337 
M233.083023,76.505417 
	C231.912140,70.910149 228.284943,68.027008 223.870453,69.366035 
	C220.068344,70.519318 217.958771,73.259193 218.308289,77.212044 
	C218.632996,80.884438 220.905289,83.485741 224.658401,83.875801 
	C229.332352,84.361557 232.215607,82.000954 233.083023,76.505417 
M254.845795,206.505066 
	C258.614868,205.217606 261.038666,202.521759 260.078766,198.651566 
	C259.492401,196.287506 257.387604,193.312378 255.284515,192.588669 
	C253.161591,191.858154 249.376755,192.793808 247.833755,194.428436 
	C246.281021,196.073380 245.719879,199.687012 246.290970,202.061127 
	C247.140457,205.592422 250.371155,207.044434 254.845795,206.505066 
M218.701218,126.342415 
	C222.474487,120.911644 221.370407,115.031082 215.901886,114.138290 
	C213.334900,113.719193 209.701828,115.047256 207.740143,116.865517 
	C205.044540,119.364075 205.625000,123.041374 208.191513,125.816360 
	C211.093918,128.954514 214.522202,129.014679 218.701218,126.342415 
z"/>
<path fill="#FEF2B1" opacity="1.000000" stroke="none" 
	d="
M155.307068,448.667908 
	C172.644241,417.982544 190.361969,387.455780 208.040634,356.906372 
	C223.303436,330.531708 238.519394,304.129883 253.765762,277.745667 
	C254.659195,276.199554 255.639435,274.703583 257.094360,272.351562 
	C291.164246,331.324646 324.852814,389.637665 358.798370,448.233337 
	C353.936005,449.015411 348.826538,449.696655 343.695190,449.974762 
	C334.363159,450.480469 325.676849,452.780426 317.997009,458.302429 
	C313.406555,461.603058 308.784027,464.859222 304.201782,468.171112 
	C298.252106,472.471252 291.564575,473.883911 284.819885,471.275360 
	C266.112488,464.040283 247.667801,464.230347 228.975555,471.340515 
	C222.424805,473.832275 215.854797,472.516205 210.042572,468.317749 
	C205.459534,465.007172 200.842468,461.743744 196.252121,458.443237 
	C188.434540,452.822357 179.611298,450.402344 170.090820,449.978577 
	C165.276398,449.764252 160.476883,449.214661 155.307068,448.667908 
M264.223572,369.887573 
	C280.779785,361.126465 285.902039,345.049347 277.389282,328.564423 
	C274.630920,323.222870 270.932617,321.771271 265.460449,324.242218 
	C253.942993,329.442993 242.426361,334.656128 231.069504,340.192627 
	C228.916885,341.242035 226.709534,343.513916 225.883194,345.727814 
	C221.276978,358.068665 229.097122,370.926544 242.078049,373.085541 
	C249.556992,374.329468 256.641541,373.148499 264.223572,369.887573 
M233.677994,425.528351 
	C234.428375,427.009247 235.081238,428.549683 235.943741,429.962128 
	C249.546051,452.237396 276.584595,453.143921 289.812256,431.785553 
	C293.158234,426.382904 292.487640,422.553711 287.199158,419.015198 
	C276.832123,412.078674 266.337677,405.332672 255.954132,398.420502 
	C252.578918,396.173645 249.296204,396.064117 245.585251,397.581177 
	C234.027130,402.306366 229.455643,412.297455 233.677994,425.528351 
M311.615601,416.984406 
	C308.926910,419.942963 308.135315,423.558319 310.869415,426.383942 
	C312.630768,428.204193 316.037628,429.520935 318.544586,429.291199 
	C322.969513,428.885742 325.269562,423.891357 323.760864,419.729279 
	C322.112793,415.182739 317.580414,413.899963 311.615601,416.984406 
M204.955124,440.598633 
	C207.989471,438.444183 209.657791,435.411652 208.000809,432.027679 
	C206.979889,429.942719 204.472015,427.392090 202.495316,427.270630 
	C200.015015,427.118225 196.476837,428.599976 195.108124,430.567871 
	C193.877762,432.336884 194.135437,436.129883 195.215149,438.291718 
	C196.966537,441.798431 200.557251,442.416443 204.955124,440.598633 
M296.512146,393.941376 
	C300.983795,388.278748 299.330811,381.466949 293.084442,381.138458 
	C290.598755,381.007782 286.751404,382.619141 285.763031,384.571167 
	C284.646729,386.775757 285.160217,390.815857 286.566803,393.048553 
	C288.628510,396.321106 292.403442,396.378815 296.512146,393.941376 
M207.803085,397.583923 
	C212.097763,401.250427 216.635742,401.288544 219.480576,397.682007 
	C222.076828,394.390533 221.669403,388.961609 217.918503,387.299713 
	C215.464081,386.212250 211.580215,386.165588 209.285370,387.406830 
	C205.685883,389.353760 205.279572,393.226166 207.803085,397.583923 
M253.395706,318.160370 
	C256.961090,317.899841 259.252411,316.032257 260.089966,312.579346 
	C261.119293,308.335724 258.626221,304.491211 254.418228,303.619385 
	C250.456345,302.798584 246.636703,305.269135 245.818390,309.181732 
	C244.857101,313.777802 247.170425,316.845306 253.395706,318.160370 
z"/>
<path fill="#E53B3A" opacity="1.000000" stroke="none" 
	d="
M143.507141,352.382324 
	C130.657425,345.685272 118.112396,339.189362 105.718132,332.417511 
	C101.587814,330.160828 100.940697,326.264374 102.647362,322.022156 
	C109.713570,304.457825 128.943100,297.803253 145.242950,307.358093 
	C152.615509,311.679871 158.461273,317.501434 161.335281,325.754761 
	C165.679153,338.229095 156.924911,351.531860 143.507141,352.382324 
z"/>
<path fill="#2F2E2C" opacity="1.000000" stroke="none" 
	d="
M196.613785,299.452759 
	C195.399292,296.442322 193.533081,293.519165 193.900665,290.910828 
	C194.164780,289.036713 197.350006,286.353485 199.343887,286.253204 
	C201.830994,286.128113 205.505753,287.650085 206.683350,289.636963 
	C207.859634,291.621643 207.446945,295.553741 206.186951,297.743927 
	C204.237228,301.132965 200.520935,301.398285 196.613785,299.452759 
z"/>
<path fill="#2F2E2C" opacity="1.000000" stroke="none" 
	d="
M153.013885,290.204956 
	C148.958740,287.804596 147.488022,284.174133 149.551193,280.729340 
	C150.885208,278.501984 154.570465,276.225891 156.930313,276.481415 
	C159.269669,276.734711 162.359497,279.765411 163.193970,282.230103 
	C165.051208,287.715698 159.951614,291.650452 153.013885,290.204956 
z"/>
<path fill="#2F2F2C" opacity="1.000000" stroke="none" 
	d="
M77.252747,310.928009 
	C73.556229,308.310425 71.739594,304.833496 74.195274,301.350494 
	C75.713211,299.197540 79.112587,297.440521 81.789940,297.252594 
	C85.855293,296.967316 88.739136,301.612549 87.978355,305.768372 
	C87.129288,310.406464 83.066010,312.486420 77.252747,310.928009 
z"/>
<path fill="#2E2E2B" opacity="1.000000" stroke="none" 
	d="
M131.090424,384.198486 
	C133.044220,388.350952 132.536530,391.728973 129.068130,394.222015 
	C126.199646,396.283844 122.603882,396.525085 120.484444,393.849731 
	C118.803467,391.727844 117.604309,388.060028 118.190262,385.544250 
	C119.484711,379.986633 125.858589,379.360199 131.090424,384.198486 
z"/>
<path fill="#E53B3A" opacity="1.000000" stroke="none" 
	d="
M378.353638,166.283203 
	C387.662018,164.887024 396.543915,163.592392 405.416779,162.238495 
	C415.204346,160.745026 418.556671,163.511566 419.084045,173.389328 
	C419.727173,185.436050 416.307465,195.726349 405.184448,201.637985 
	C393.131317,208.043961 380.692932,207.671524 369.100403,200.338425 
	C359.215942,194.085815 357.295654,179.964523 364.666443,170.875458 
	C365.821411,169.451279 367.794373,168.403625 369.594177,167.856659 
	C372.274689,167.042038 375.137787,166.828140 378.353638,166.283203 
z"/>
<path fill="#2E2E2C" opacity="1.000000" stroke="none" 
	d="
M306.886475,235.202911 
	C302.591461,233.277145 301.112885,230.062988 302.263611,226.094162 
	C303.282684,222.579132 306.188202,220.045731 309.785370,221.128754 
	C312.363312,221.904953 315.376831,224.289124 316.351654,226.701279 
	C318.400604,231.771225 313.641418,235.953293 306.886475,235.202911 
z"/>
<path fill="#2E2E2C" opacity="1.000000" stroke="none" 
	d="
M424.338684,233.023148 
	C418.642700,230.396652 416.871033,226.600677 419.009613,222.407471 
	C420.866272,218.766937 425.113190,217.251160 428.763153,219.053177 
	C432.167511,220.733978 433.684814,223.660141 432.835144,227.284576 
	C431.881042,231.354340 429.018921,233.357452 424.338684,233.023148 
z"/>
<path fill="#2E2D2B" opacity="1.000000" stroke="none" 
	d="
M327.025604,191.101074 
	C323.398590,189.200729 321.345612,186.326172 322.671661,182.839127 
	C323.543488,180.546417 326.007751,177.698868 328.128723,177.350342 
	C330.506470,176.959625 334.187958,178.431198 335.649689,180.350800 
	C336.950562,182.059097 336.807861,185.838516 335.842072,188.072556 
	C334.401581,191.404510 331.060638,192.436325 327.025604,191.101074 
z"/>
<path fill="#2D2C2B" opacity="1.000000" stroke="none" 
	d="
M364.173340,224.188507 
	C362.614685,227.046494 361.524384,230.486115 359.265289,231.642715 
	C357.442413,232.575989 353.409698,231.540817 351.827087,229.932602 
	C350.256836,228.336929 349.395782,224.421448 350.286499,222.460205 
	C351.271759,220.290817 354.445587,218.236160 356.940063,217.835373 
	C360.784698,217.217667 363.383087,219.785095 364.173340,224.188507 
z"/>
<path fill="#2E2E2C" opacity="1.000000" stroke="none" 
	d="
M376.209381,125.812416 
	C379.432556,128.777405 380.471710,132.333084 377.992493,135.348618 
	C376.388184,137.300034 372.885529,139.084595 370.612885,138.700302 
	C368.343903,138.316666 365.605591,135.442764 364.841248,133.086899 
	C364.225830,131.190155 365.680664,127.935455 367.232819,126.183098 
	C369.542480,123.575554 372.855286,123.751259 376.209381,125.812416 
z"/>
<path fill="#E53B3A" opacity="1.000000" stroke="none" 
	d="
M361.148743,280.843445 
	C367.756592,286.718628 374.145477,292.306213 380.423798,298.015411 
	C385.469116,302.603363 385.672485,306.766754 381.031036,311.776642 
	C372.376678,321.117950 361.984039,326.313080 349.305206,321.762726 
	C336.036652,317.000702 328.082458,306.912598 326.178101,292.952271 
	C324.607056,281.435516 333.746521,271.271362 345.441589,270.777527 
	C347.690216,270.682617 350.315826,271.766479 352.223022,273.090759 
	C355.344421,275.258087 358.018982,278.068970 361.148743,280.843445 
z"/>
<path fill="#E53A3A" opacity="1.000000" stroke="none" 
	d="
M384.000061,350.922852 
	C390.317017,350.963135 396.134460,350.968414 401.950958,351.044891 
	C409.244507,351.140778 412.111298,354.164703 411.976501,361.522614 
	C411.729218,375.021118 404.804626,385.792877 393.749695,389.875885 
	C381.593842,394.365540 364.897369,390.605865 356.850952,381.567078 
	C349.568451,373.386414 350.291870,359.825378 358.670776,352.850159 
	C360.278229,351.512054 362.882263,350.880859 365.056488,350.807068 
	C371.196014,350.598663 377.351135,350.849548 384.000061,350.922852 
z"/>
<path fill="#2F2F2C" opacity="1.000000" stroke="none" 
	d="
M332.127686,345.796997 
	C328.890686,341.810272 328.929474,338.090759 332.406464,334.884949 
	C335.363312,332.158722 338.852936,332.205139 341.925751,334.773224 
	C344.994202,337.337646 345.509399,340.694183 343.589569,344.198730 
	C341.465118,348.076813 337.293091,348.707306 332.127686,345.796997 
z"/>
<path fill="#2F2F2C" opacity="1.000000" stroke="none" 
	d="
M425.605255,325.874634 
	C424.712585,330.606079 422.115753,333.156128 417.628784,332.883881 
	C413.944122,332.660400 411.461670,330.456390 410.925476,326.650055 
	C410.361176,322.644501 412.154724,319.841370 415.904022,318.461670 
	C420.350555,316.825348 424.158997,319.643524 425.605255,325.874634 
z"/>
<path fill="#2F2F2C" opacity="1.000000" stroke="none" 
	d="
M308.608887,279.333466 
	C312.351868,282.104584 313.606506,285.794861 311.189667,289.064178 
	C309.647400,291.150391 305.824554,293.082214 303.503204,292.629120 
	C301.192993,292.178192 298.341492,288.934296 297.739594,286.431183 
	C296.400330,280.861755 301.853485,277.364380 308.608887,279.333466 
z"/>
<path fill="#2C2C2A" opacity="1.000000" stroke="none" 
	d="
M396.355194,290.618896 
	C394.655029,286.625519 395.091309,282.999817 398.559448,281.152161 
	C400.699066,280.012299 404.479797,279.631775 406.286316,280.809052 
	C408.285583,282.112000 409.851654,285.614624 409.766754,288.096344 
	C409.698547,290.090942 407.260040,292.768555 405.206451,293.755493 
	C401.975220,295.308380 398.722260,294.123413 396.355194,290.618896 
z"/>
<path fill="#E53B3A" opacity="1.000000" stroke="none" 
	d="
M192.783356,243.022736 
	C177.747360,242.914017 163.687485,232.321503 159.555328,218.340561 
	C156.108673,206.678970 163.410812,194.495972 175.465851,192.282349 
	C177.538879,191.901688 180.285782,192.408234 182.043900,193.549057 
	C193.058533,200.696350 203.938156,208.057175 214.738861,215.526062 
	C218.997955,218.471298 219.812469,222.486511 217.068146,226.853653 
	C211.520767,235.681396 204.100357,241.942535 192.783356,243.022736 
z"/>
<path fill="#E53B3A" opacity="1.000000" stroke="none" 
	d="
M139.400345,154.272461 
	C136.215317,168.277512 133.120346,181.883194 129.726807,195.413971 
	C128.604477,199.888931 125.189674,201.961411 120.580055,201.186020 
	C103.528191,198.317764 91.134407,184.926575 94.729218,166.896851 
	C96.550674,157.761383 100.611946,149.921524 108.104218,144.232254 
	C119.223549,135.788788 135.738770,140.942307 139.400345,154.272461 
z"/>
<path fill="#2F2E2C" opacity="1.000000" stroke="none" 
	d="
M93.983604,213.233551 
	C94.104576,218.175934 91.789490,220.987305 87.429749,221.577255 
	C83.768196,222.072723 81.009621,220.253571 79.683807,216.674744 
	C78.325127,213.007187 79.624390,210.102463 82.666824,208.029404 
	C86.902054,205.143570 91.359489,207.112686 93.983604,213.233551 
z"/>
<path fill="#2F2E2C" opacity="1.000000" stroke="none" 
	d="
M144.316925,119.180191 
	C150.043030,117.865227 153.857773,119.734383 154.897858,124.041634 
	C155.821915,127.868370 153.353546,132.014343 149.584686,132.965805 
	C145.456116,134.008057 140.741577,131.587555 140.617218,127.415382 
	C140.537994,124.757698 142.775391,122.030968 144.316925,119.180191 
z"/>
<path fill="#2F2E2C" opacity="1.000000" stroke="none" 
	d="
M157.962341,172.968903 
	C155.414276,167.764511 156.057404,163.999268 159.814270,161.889099 
	C163.283951,159.940277 166.655457,160.400070 169.252960,163.459183 
	C171.857910,166.527023 171.734726,169.908691 169.223053,173.015366 
	C166.560760,176.308350 162.717606,176.325363 157.962341,172.968903 
z"/>
<path fill="#2D2C2B" opacity="1.000000" stroke="none" 
	d="
M129.831421,218.983765 
	C133.832657,218.200668 137.275452,219.048752 138.485535,222.589294 
	C139.277176,224.905518 139.121689,228.536423 137.751938,230.320541 
	C136.392899,232.090698 132.738876,233.360977 130.538559,232.865295 
	C128.373871,232.377655 125.905968,229.699707 125.117241,227.442581 
	C123.830307,223.759750 125.812553,220.722809 129.831421,218.983765 
z"/>
<path fill="#E53B3A" opacity="1.000000" stroke="none" 
	d="
M312.116486,85.880417 
	C314.973419,88.208908 317.661804,90.198799 320.099915,92.458702 
	C323.523224,95.631767 323.821075,99.290749 321.285553,103.236046 
	C310.890533,119.410820 290.730896,122.279907 276.325531,109.584206 
	C270.837402,104.747383 266.773651,98.954857 264.820068,91.818451 
	C261.325684,79.053467 269.678284,66.598114 282.808655,65.549446 
	C285.139832,65.363266 288.012360,66.700233 289.983276,68.193779 
	C297.413361,73.824280 304.574432,79.809753 312.116486,85.880417 
z"/>
<path fill="#E53B3A" opacity="1.000000" stroke="none" 
	d="
M256.154175,119.757233 
	C266.583344,125.442444 272.325714,133.894379 271.702698,145.449005 
	C271.020996,158.091522 265.692291,168.695129 254.265869,175.107468 
	C244.743469,180.451309 231.567673,176.111328 226.922348,166.239990 
	C225.912598,164.094254 226.019852,160.983658 226.641647,158.584106 
	C229.603210,147.155197 232.905045,135.814087 236.115341,124.450089 
	C238.378006,116.440620 241.871475,114.557060 249.829529,117.124763 
	C251.878174,117.785767 253.826065,118.759018 256.154175,119.757233 
z"/>
<path fill="#2F2E2C" opacity="1.000000" stroke="none" 
	d="
M299.564697,143.373367 
	C296.371918,147.048584 292.862396,147.766769 289.151917,145.216034 
	C286.072113,143.098831 285.110779,139.948196 286.600281,136.426407 
	C288.076141,132.936798 290.890503,131.442657 294.645721,131.967926 
	C299.736267,132.679993 301.830048,137.256699 299.564697,143.373367 
z"/>
<path fill="#2F2F2C" opacity="1.000000" stroke="none" 
	d="
M233.066528,76.903702 
	C232.215607,82.000954 229.332352,84.361557 224.658401,83.875801 
	C220.905289,83.485741 218.632996,80.884438 218.308289,77.212044 
	C217.958771,73.259193 220.068344,70.519318 223.870453,69.366035 
	C228.284943,68.027008 231.912140,70.910149 233.066528,76.903702 
z"/>
<path fill="#2D2D2B" opacity="1.000000" stroke="none" 
	d="
M254.480774,206.613525 
	C250.371155,207.044434 247.140457,205.592422 246.290970,202.061127 
	C245.719879,199.687012 246.281021,196.073380 247.833755,194.428436 
	C249.376755,192.793808 253.161591,191.858154 255.284515,192.588669 
	C257.387604,193.312378 259.492401,196.287506 260.078766,198.651566 
	C261.038666,202.521759 258.614868,205.217606 254.480774,206.613525 
z"/>
<path fill="#2D2D2B" opacity="1.000000" stroke="none" 
	d="
M218.393097,126.600372 
	C214.522202,129.014679 211.093918,128.954514 208.191513,125.816360 
	C205.625000,123.041374 205.044540,119.364075 207.740143,116.865517 
	C209.701828,115.047256 213.334900,113.719193 215.901886,114.138290 
	C221.370407,115.031082 222.474487,120.911644 218.393097,126.600372 
z"/>
<path fill="#E53B3A" opacity="1.000000" stroke="none" 
	d="
M263.865295,370.017090 
	C256.641541,373.148499 249.556992,374.329468 242.078049,373.085541 
	C229.097122,370.926544 221.276978,358.068665 225.883194,345.727814 
	C226.709534,343.513916 228.916885,341.242035 231.069504,340.192627 
	C242.426361,334.656128 253.942993,329.442993 265.460449,324.242218 
	C270.932617,321.771271 274.630920,323.222870 277.389282,328.564423 
	C285.902039,345.049347 280.779785,361.126465 263.865295,370.017090 
z"/>
<path fill="#E53A3A" opacity="1.000000" stroke="none" 
	d="
M233.496704,425.173798 
	C229.455643,412.297455 234.027130,402.306366 245.585251,397.581177 
	C249.296204,396.064117 252.578918,396.173645 255.954132,398.420502 
	C266.337677,405.332672 276.832123,412.078674 287.199158,419.015198 
	C292.487640,422.553711 293.158234,426.382904 289.812256,431.785553 
	C276.584595,453.143921 249.546051,452.237396 235.943741,429.962128 
	C235.081238,428.549683 234.428375,427.009247 233.496704,425.173798 
z"/>
<path fill="#2F2E2C" opacity="1.000000" stroke="none" 
	d="
M311.896790,416.717712 
	C317.580414,413.899963 322.112793,415.182739 323.760864,419.729279 
	C325.269562,423.891357 322.969513,428.885742 318.544586,429.291199 
	C316.037628,429.520935 312.630768,428.204193 310.869415,426.383942 
	C308.135315,423.558319 308.926910,419.942963 311.896790,416.717712 
z"/>
<path fill="#2E2E2C" opacity="1.000000" stroke="none" 
	d="
M204.620483,440.769897 
	C200.557251,442.416443 196.966537,441.798431 195.215149,438.291718 
	C194.135437,436.129883 193.877762,432.336884 195.108124,430.567871 
	C196.476837,428.599976 200.015015,427.118225 202.495316,427.270630 
	C204.472015,427.392090 206.979889,429.942719 208.000809,432.027679 
	C209.657791,435.411652 207.989471,438.444183 204.620483,440.769897 
z"/>
<path fill="#2D2D2B" opacity="1.000000" stroke="none" 
	d="
M296.194946,394.156342 
	C292.403442,396.378815 288.628510,396.321106 286.566803,393.048553 
	C285.160217,390.815857 284.646729,386.775757 285.763031,384.571167 
	C286.751404,382.619141 290.598755,381.007782 293.084442,381.138458 
	C299.330811,381.466949 300.983795,388.278748 296.194946,394.156342 
z"/>
<path fill="#2E2D2B" opacity="1.000000" stroke="none" 
	d="
M207.572205,397.288116 
	C205.279572,393.226166 205.685883,389.353760 209.285370,387.406830 
	C211.580215,386.165588 215.464081,386.212250 217.918503,387.299713 
	C221.669403,388.961609 222.076828,394.390533 219.480576,397.682007 
	C216.635742,401.288544 212.097763,401.250427 207.572205,397.288116 
z"/>
<path fill="#2C2C2A" opacity="1.000000" stroke="none" 
	d="
M252.992828,318.160706 
	C247.170425,316.845306 244.857101,313.777802 245.818390,309.181732 
	C246.636703,305.269135 250.456345,302.798584 254.418228,303.619385 
	C258.626221,304.491211 261.119293,308.335724 260.089966,312.579346 
	C259.252411,316.032257 256.961090,317.899841 252.992828,318.160706 
z"/>
</svg>