<svg version="1.1" id="Layer_1" xmlns="http://www.w3.org/2000/svg" xmlns:xlink="http://www.w3.org/1999/xlink" x="0px" y="0px"
	 width="100%" viewBox="0 0 512 512" xml:space="preserve">

<path fill="#EDF4FF" opacity="1.000000" stroke="none" 
	d="
M437.998535,31.851587 
	C431.206482,31.736389 426.643524,35.201237 424.071808,41.159611 
	C421.425262,47.291313 423.755310,52.316082 428.229187,56.795166 
	C431.914581,60.484867 435.309235,64.464966 438.658569,68.924706 
	C438.322144,70.993172 438.021179,72.453079 438.018951,73.913452 
	C437.994904,89.630974 438.017975,105.348579 437.971741,121.218002 
	C437.915283,121.369843 437.822968,121.680382 437.370941,121.629509 
	C431.923157,121.378494 426.927368,121.178345 421.931610,120.978203 
	C421.679382,112.541367 423.648102,103.767998 418.952667,95.954903 
	C415.985352,91.017395 413.342102,85.311684 409.029175,81.849167 
	C380.584564,59.013054 389.476440,13.486019 423.636292,2.745630 
	C424.035767,2.620028 424.283569,2.011934 424.301086,1.314534 
	C428.356903,1.000000 432.713806,1.000000 437.534698,1.468657 
	C437.998627,11.908738 437.998566,21.880163 437.998535,31.851587 
z"/>
<path fill="#EDF4FF" opacity="1.000000" stroke="none" 
	d="
M180.931473,120.979881 
	C180.678955,112.542793 182.681381,103.748108 177.943222,95.961906 
	C174.780304,90.764267 171.750778,85.075386 167.298523,81.153847 
	C156.503494,71.645584 151.107285,60.002201 151.067673,45.925392 
	C151.012756,26.415907 163.444687,9.395651 181.704895,2.963598 
	C182.406921,2.716316 182.972839,2.082685 183.301086,1.314541 
	C187.356903,1.000000 191.713806,1.000000 196.534363,1.468657 
	C196.998032,11.908641 196.998047,21.879969 196.998062,31.851295 
	C190.206665,31.737352 185.643265,35.201111 183.071686,41.159859 
	C180.425385,47.291821 182.755951,52.316231 187.229355,56.795269 
	C190.914566,60.485111 194.309326,64.465065 197.658630,68.924736 
	C197.322220,70.993217 197.021317,72.453194 197.019104,73.913620 
	C196.995346,89.631859 197.018677,105.350174 196.978882,121.218933 
	C196.928619,121.369392 196.842880,121.674850 196.389862,121.626404 
	C190.935043,121.378593 185.933258,121.179237 180.931473,120.979881 
z"/>
<path fill="#EDF4FF" opacity="1.000000" stroke="none" 
	d="
M60.900341,120.945709 
	C61.226776,112.750778 61.599117,104.482414 57.929699,96.862549 
	C55.998665,92.852570 53.787701,88.753250 50.808968,85.517387 
	C44.071148,78.197960 36.257023,71.779190 33.296978,61.709053 
	C28.856842,46.603622 29.831665,32.292767 39.332893,19.141886 
	C45.228416,10.981750 52.812500,5.319141 62.617073,2.737661 
	C63.014553,2.633007 63.277790,2.018481 63.301788,1.320756 
	C67.024544,1.000000 71.049088,1.000000 75.537537,1.468657 
	C75.997337,11.907068 75.993233,21.876822 75.989128,31.846577 
	C69.521385,31.554485 65.493111,35.406139 63.131168,40.605816 
	C60.417507,46.579773 61.624027,52.333660 66.542290,57.071007 
	C70.031967,60.432323 73.416985,63.902294 76.670479,67.928848 
	C76.328812,69.664841 76.023911,70.795662 76.023216,71.926674 
	C76.013084,88.333214 76.043724,104.739784 76.024796,121.310486 
	C75.984985,121.474625 75.909851,121.803955 75.456070,121.724655 
	C70.301636,121.412148 65.600990,121.178932 60.900341,120.945709 
z"/>
<path fill="#EDF4FF" opacity="1.000000" stroke="none" 
	d="
M316.988678,31.846605 
	C310.521179,31.554943 306.492859,35.406193 304.131134,40.606037 
	C301.417847,46.579937 302.623962,52.333771 307.542267,57.071041 
	C311.031952,60.432274 314.416901,63.902222 317.670410,67.928802 
	C317.328766,69.664856 317.023865,70.795685 317.023193,71.926697 
	C317.013062,88.333229 317.043732,104.739792 317.023163,121.311081 
	C316.981689,121.475807 316.904388,121.806641 316.450806,121.726349 
	C311.298279,121.412651 306.599274,121.179245 301.900299,120.945831 
	C302.226624,112.750916 302.599396,104.482536 298.929718,96.862663 
	C296.998596,92.852722 294.787781,88.753288 291.809052,85.517471 
	C285.071136,78.198105 277.257111,71.779274 274.297028,61.709141 
	C269.856903,46.603729 270.831543,32.292793 280.332855,19.141983 
	C286.228394,10.981990 293.812286,5.319005 303.617004,2.737715 
	C304.014496,2.633067 304.277740,2.018515 304.301758,1.320766 
	C308.024536,1.000000 312.049103,1.000000 316.537537,1.468657 
	C316.997162,11.907078 316.992920,21.876841 316.988678,31.846605 
z"/>
<path fill="#D8E5F7" opacity="1.000000" stroke="none" 
	d="
M317.395630,31.917404 
	C316.992920,21.876841 316.997162,11.907078 317.000702,1.468657 
	C321.356903,1.000000 325.713806,1.000000 330.535339,1.000000 
	C331.644775,1.669334 332.165588,2.641385 332.952484,2.963646 
	C351.653564,10.622292 362.777283,26.820135 362.981232,46.031368 
	C363.074829,54.848976 355.439911,62.236732 346.812927,62.008701 
	C338.882111,61.799072 332.195129,54.742519 332.002960,46.307438 
	C331.812988,37.967442 324.802795,31.614044 317.395630,31.917404 
z"/>
<path fill="#D8E5F7" opacity="1.000000" stroke="none" 
	d="
M76.396057,31.917393 
	C75.993233,21.876822 75.997337,11.907068 76.000717,1.468657 
	C80.356903,1.000000 84.713799,1.000000 89.535355,0.999999 
	C90.644768,1.669329 91.165565,2.641370 91.952461,2.963630 
	C110.653893,10.622428 121.777222,26.820324 121.981247,46.031181 
	C122.074898,54.848904 114.440483,62.236294 105.813210,62.008698 
	C97.880829,61.799438 91.196236,54.744411 91.002754,46.306713 
	C90.811623,37.971519 83.815392,31.618069 76.396057,31.917393 
z"/>
<path fill="#D8E4F7" opacity="1.000000" stroke="none" 
	d="
M438.403137,31.923080 
	C437.998566,21.880163 437.998627,11.908738 437.999329,1.468657 
	C442.024536,1.000000 446.049103,1.000000 450.536804,1.000000 
	C451.479340,1.663762 451.825836,2.720490 452.457397,2.933963 
	C469.454193,8.679420 479.309357,20.889545 482.728638,37.993999 
	C483.815552,43.431000 484.294830,49.620228 480.590393,55.123829 
	C477.201813,60.158192 472.029968,62.526134 467.044434,61.685863 
	C458.028564,60.166325 455.345520,58.114601 452.982788,49.931496 
	C451.799622,45.833801 450.908203,41.576973 449.120392,37.749168 
	C447.214905,33.669453 443.386902,31.876762 438.403137,31.923080 
z"/>
<path fill="#D8E4F7" opacity="1.000000" stroke="none" 
	d="
M197.402756,31.922665 
	C196.998047,21.879969 196.998032,11.908641 196.999008,1.468657 
	C201.024551,1.000000 205.049088,1.000000 209.536819,1.000001 
	C210.479385,1.663814 210.825928,2.720600 211.457550,2.934122 
	C228.453323,8.679653 238.309311,20.888161 241.728333,37.992577 
	C242.815292,43.430321 243.292435,49.619251 239.589752,55.123291 
	C236.202515,60.158421 231.032974,62.525055 226.045990,61.686413 
	C217.036148,60.171257 214.339630,58.108147 211.983246,49.929977 
	C210.802460,45.831833 209.903809,41.578651 208.120758,37.747849 
	C206.217163,33.658089 202.387085,31.875107 197.402756,31.922665 
z"/>
<path fill="#EDF4FF" opacity="1.000000" stroke="none" 
	d="
M430.444153,513.000000 
	C430.073608,512.620239 430.310913,511.967743 430.197418,511.899597 
	C423.116180,507.648285 421.877930,500.912689 421.959991,493.401642 
	C422.103607,480.256958 421.999268,467.109589 422.451019,453.401489 
	C427.946777,452.943573 432.990356,453.047485 438.022217,453.610443 
	C438.007050,473.712982 438.003510,493.356476 438.000000,513.000000 
	C435.629425,513.000000 433.258881,513.000000 430.444153,513.000000 
z"/>
<path fill="#D8E5F7" opacity="1.000000" stroke="none" 
	d="
M333.030518,453.041138 
	C333.023834,466.765747 332.848663,480.493134 333.076538,494.213837 
	C333.203766,501.875031 330.893524,508.057587 324.706238,512.708740 
	C322.629425,513.000000 320.258881,513.000000 317.444763,512.531372 
	C317.010590,492.412262 317.019897,472.761841 317.029297,452.985291 
	C317.029388,452.859192 316.948608,452.620270 317.403290,452.747314 
	C322.915497,452.929993 327.972992,452.985565 333.030518,453.041138 
z"/>
<path fill="#EDF4FF" opacity="1.000000" stroke="none" 
	d="
M189.444153,513.000000 
	C189.073593,512.620178 189.310913,511.967743 189.197433,511.899597 
	C182.116150,507.648346 180.877960,500.912750 180.960022,493.401672 
	C181.103668,480.256989 180.999283,467.109589 181.451141,453.401489 
	C186.966049,452.814331 192.028656,452.789062 197.078125,452.850281 
	C197.065002,452.936768 196.965485,453.080688 196.975616,453.544189 
	C196.990509,473.671783 196.995255,493.335876 197.000000,513.000000 
	C194.629440,513.000000 192.258896,513.000000 189.444153,513.000000 
z"/>
<path fill="#D8E5F7" opacity="1.000000" stroke="none" 
	d="
M92.031281,453.041046 
	C92.024345,466.765656 91.848946,480.493103 92.076584,494.213806 
	C92.203697,501.875000 89.893593,508.057617 83.706223,512.708740 
	C81.629440,513.000000 79.258888,513.000000 76.444786,512.531372 
	C75.996384,492.388123 75.991516,472.713593 76.451988,452.989990 
	C81.955315,452.974335 86.993294,453.007690 92.031281,453.041046 
z"/>
<path fill="#EDF4FF" opacity="1.000000" stroke="none" 
	d="
M317.029236,453.111420 
	C317.019897,472.761841 317.010590,492.412262 317.000610,512.531372 
	C314.629425,513.000000 312.258881,513.000000 309.444153,513.000000 
	C308.973389,512.487061 309.152344,511.695221 308.890137,511.501984 
	C302.248291,506.606995 301.688934,499.742645 301.900970,492.211578 
	C302.259796,479.468536 301.997009,466.707977 302.427094,453.371460 
	C307.582153,452.895905 312.305695,453.003662 317.029236,453.111420 
z"/>
<path fill="#EDF4FF" opacity="1.000000" stroke="none" 
	d="
M75.986649,453.039032 
	C75.991516,472.713593 75.996384,492.388123 76.000626,512.531372 
	C73.629440,513.000000 71.258888,513.000000 68.444168,513.000000 
	C67.973389,512.487061 68.152328,511.695282 67.890121,511.501953 
	C61.248981,506.606689 60.688732,499.742706 60.900894,492.211487 
	C61.259880,479.468475 60.996983,466.707947 61.427410,453.371460 
	C66.610321,452.758057 71.361359,452.727997 76.098846,452.789795 
	C76.085304,452.881653 75.986649,453.039032 75.986649,453.039032 
z"/>
<path fill="#D7E4F7" opacity="1.000000" stroke="none" 
	d="
M438.437500,513.000000 
	C438.003510,493.356476 438.007050,473.712982 438.024841,453.493103 
	C438.039154,452.916779 437.947632,452.700653 438.406738,452.805389 
	C443.587860,452.951721 448.309906,452.993317 453.031921,453.034882 
	C453.022156,466.615417 452.605682,480.212433 453.155426,493.770294 
	C453.484009,501.874329 451.302216,508.063660 444.706451,512.712830 
	C442.958344,513.000000 440.916656,513.000000 438.437500,513.000000 
z"/>
<path fill="#D7E4F7" opacity="1.000000" stroke="none" 
	d="
M197.437500,513.000000 
	C196.995255,493.335876 196.990509,473.671783 197.441010,453.487366 
	C202.608139,452.989655 207.320023,453.012238 212.031891,453.034851 
	C212.022125,466.615387 211.605698,480.212402 212.155457,493.770264 
	C212.484039,501.874298 210.302170,508.063599 203.706482,512.712830 
	C201.958328,513.000000 199.916672,513.000000 197.437500,513.000000 
z"/>
<path fill="#613E26" opacity="1.000000" stroke="none" 
	d="
M357.999786,256.996338 
	C365.478607,272.713623 363.529694,289.243347 361.881348,305.655853 
	C361.517181,309.282043 359.366730,312.728790 357.672852,316.782043 
	C354.786377,319.910156 352.460358,322.744019 349.708710,325.075531 
	C341.585846,331.958160 331.696259,333.040192 321.599792,332.917206 
	C318.228973,332.876160 316.901459,333.759460 316.940643,337.382263 
	C317.140503,355.869873 317.103119,374.359985 317.111572,392.886932 
	C317.074402,392.924622 317.000000,393.000000 316.546265,392.990540 
	C311.990356,392.661652 307.892120,392.151581 303.785126,392.066437 
	C297.271118,391.931427 291.443787,390.038910 286.390717,385.940521 
	C283.238861,383.384155 280.205597,380.681580 277.119110,378.044647 
	C272.004333,370.139618 271.451447,361.320007 272.008545,352.297211 
	C272.586487,342.937164 273.103638,333.569794 273.943756,324.232300 
	C274.125397,322.213470 275.571350,320.308380 277.073730,318.221680 
	C286.891205,328.898102 298.534546,333.308533 312.634308,332.137177 
	C316.183075,331.842377 317.098022,330.786163 317.071838,327.427612 
	C316.928101,308.967255 316.975311,290.505371 316.988953,272.011658 
	C317.020844,271.979248 317.084656,271.914459 317.542297,271.943542 
	C329.056854,272.391296 340.057190,272.469055 349.254272,264.847137 
	C352.268219,262.349396 355.090088,259.619873 357.999786,256.996338 
z"/>
<path fill="#613E26" opacity="1.000000" stroke="none" 
	d="
M156.890137,377.906860 
	C153.107529,371.770782 150.859772,365.149017 151.026245,357.893097 
	C151.249130,348.177460 151.325562,338.437592 152.154312,328.767212 
	C152.477692,324.993866 154.673553,321.381012 156.372742,317.495728 
	C165.836090,328.291443 177.258789,333.493073 191.745377,332.167328 
	C195.751068,331.800781 197.126923,330.996307 197.077454,326.813477 
	C196.861542,308.555115 196.976639,290.292786 197.441086,272.022095 
	C199.738785,272.008179 201.572525,271.909180 203.394165,272.016113 
	C212.088348,272.526581 220.338455,271.157959 227.395126,265.723328 
	C230.791092,263.107941 233.769943,259.950989 236.937683,257.039307 
	C240.745132,263.043915 242.470779,269.510986 242.076065,276.695618 
	C241.731888,282.959869 241.680435,289.278931 242.085678,295.535797 
	C242.592712,303.364441 240.882141,310.514465 236.757935,317.760803 
	C227.202240,329.328766 215.070847,333.530762 201.031693,332.934174 
	C197.511795,332.784637 196.921280,334.400726 196.941635,337.429993 
	C197.065857,355.925476 197.049744,374.421906 197.049377,392.949707 
	C197.018311,392.981415 196.955811,393.044464 196.506943,393.023804 
	C186.722580,392.231598 176.953705,393.225189 168.650345,387.735168 
	C164.415527,384.935120 160.790695,381.212463 156.890137,377.906860 
z"/>
<path fill="#613E26" opacity="1.000000" stroke="none" 
	d="
M196.842880,121.674850 
	C196.842880,121.674850 196.928619,121.369392 197.439651,121.285080 
	C202.666977,121.126541 207.383270,121.052307 212.099564,120.978081 
	C223.072495,123.221527 232.605560,127.827965 237.774811,138.370850 
	C239.824402,142.551102 241.431793,147.265152 241.840714,151.860718 
	C242.502625,159.299850 241.686874,166.859177 242.089859,174.335678 
	C242.531784,182.534576 241.040039,190.130936 236.661880,197.660416 
	C232.392349,201.280365 228.750809,204.907013 224.527588,207.632187 
	C216.083344,213.081085 206.407242,212.087570 196.971329,211.493927 
	C196.933365,181.244781 196.888123,151.459824 196.842880,121.674850 
z"/>
<path fill="#805142" opacity="1.000000" stroke="none" 
	d="
M301.518799,120.989044 
	C306.599274,121.179245 311.298279,121.412651 316.483398,122.207405 
	C316.959686,152.492188 316.949860,182.215622 316.477295,211.952942 
	C314.856232,211.973038 313.695953,211.937256 312.539917,211.991898 
	C299.887543,212.589813 288.656952,209.524521 279.999786,199.585312 
	C279.314911,198.798981 278.056274,198.512329 277.064301,197.993439 
	C268.512817,182.135468 271.533112,164.837875 272.551025,148.359848 
	C273.326904,135.800537 282.918610,125.833466 297.859619,122.003387 
	C298.962646,121.720619 300.045227,121.357841 301.518799,120.989044 
z"/>
<path fill="#805142" opacity="1.000000" stroke="none" 
	d="
M276.947205,378.356689 
	C280.205597,380.681580 283.238861,383.384155 286.390717,385.940521 
	C291.443787,390.038910 297.271118,391.931427 303.785126,392.066437 
	C307.892120,392.151581 311.990356,392.661652 316.550598,393.459198 
	C316.988678,413.498291 316.968658,433.059265 316.948608,452.620270 
	C316.948608,452.620270 317.029388,452.859192 317.029297,452.985291 
	C312.305695,453.003662 307.582153,452.895905 302.400452,452.904846 
	C286.478851,450.768555 276.814819,441.937714 272.549805,427.035828 
	C272.193970,425.792603 272.029480,424.453186 272.024323,423.157501 
	C271.982788,412.702728 271.536957,402.217377 272.217865,391.807007 
	C272.509583,387.347321 275.183685,383.043427 276.947205,378.356689 
z"/>
<path fill="#613E26" opacity="1.000000" stroke="none" 
	d="
M212.429657,453.030914 
	C207.320023,453.012238 202.608139,452.989655 197.430878,453.023865 
	C196.965485,453.080688 197.065002,452.936768 197.054688,452.397583 
	C197.014847,432.253754 196.985336,412.649109 196.955811,393.044464 
	C196.955811,393.044464 197.018311,392.981415 197.499969,392.971252 
	C213.307861,393.455627 227.290359,390.658081 236.874969,377.085938 
	C241.354416,384.022583 242.498947,391.652832 242.071884,399.777832 
	C241.732132,406.241913 241.994141,412.738159 242.006775,419.220093 
	C242.038986,435.739075 232.284195,448.152130 216.144409,452.124817 
	C215.032120,452.398621 213.932785,452.725037 212.429657,453.030914 
z"/>
<path fill="#805142" opacity="1.000000" stroke="none" 
	d="
M316.957031,272.044037 
	C316.975311,290.505371 316.928101,308.967255 317.071838,327.427612 
	C317.098022,330.786163 316.183075,331.842377 312.634308,332.137177 
	C298.534546,333.308533 286.891205,328.898102 277.380463,318.044373 
	C268.773895,301.251770 272.015991,283.581055 273.129608,266.143188 
	C273.313690,263.261078 275.518280,260.507996 277.253235,257.528961 
	C281.802460,260.903717 285.556946,264.952545 290.044739,267.875366 
	C298.245209,273.216125 307.775848,271.930908 316.957031,272.044037 
z"/>
<path fill="#613E26" opacity="1.000000" stroke="none" 
	d="
M316.988953,272.011658 
	C307.775848,271.930908 298.245209,273.216125 290.044739,267.875366 
	C285.556946,264.952545 281.802460,260.903717 277.431427,257.220154 
	C273.224213,250.866806 271.541473,244.161209 271.942627,236.765152 
	C272.489502,226.682968 272.405884,216.563278 273.098236,206.494431 
	C273.289703,203.710037 275.275970,201.049072 276.751526,198.162445 
	C278.056274,198.512329 279.314911,198.798981 279.999786,199.585312 
	C288.656952,209.524521 299.887543,212.589813 312.539917,211.991898 
	C313.695953,211.937256 314.856232,211.973038 316.508698,211.985107 
	C317.002838,212.003387 317.065399,212.067947 317.045349,212.529175 
	C317.045044,232.631760 317.064850,252.273102 317.084656,271.914459 
	C317.084656,271.914459 317.020844,271.979248 316.988953,272.011658 
z"/>
<path fill="#3E2C10" opacity="1.000000" stroke="none" 
	d="
M237.051514,376.768372 
	C227.290359,390.658081 213.307861,393.455627 197.531036,392.939575 
	C197.049744,374.421906 197.065857,355.925476 196.941635,337.429993 
	C196.921280,334.400726 197.511795,332.784637 201.031693,332.934174 
	C215.070847,333.530762 227.202240,329.328766 236.758850,318.126495 
	C238.719040,323.075012 241.378922,328.074890 241.794418,333.254791 
	C242.562241,342.826904 242.528625,352.543549 241.800873,362.121887 
	C241.431305,366.985931 238.823837,371.679962 237.051514,376.768372 
z"/>
<path fill="#3E2C10" opacity="1.000000" stroke="none" 
	d="
M196.964066,211.958099 
	C206.407242,212.087570 216.083344,213.081085 224.527588,207.632187 
	C228.750809,204.907013 232.392349,201.280365 236.642014,198.028580 
	C240.569412,202.404022 242.023132,207.515671 242.013748,213.121521 
	C242.000443,221.083481 241.764252,229.054901 242.074722,237.004639 
	C242.348694,244.019623 240.978989,250.456635 237.097000,256.717224 
	C233.769943,259.950989 230.791092,263.107941 227.395126,265.723328 
	C220.338455,271.157959 212.088348,272.526581 203.394165,272.016113 
	C201.572525,271.909180 199.738785,272.008179 197.446686,272.015472 
	C196.982758,272.018677 196.969025,272.028198 196.975571,271.556824 
	C196.974823,251.378510 196.967514,231.671585 196.967102,211.968567 
	C196.974014,211.972504 196.964066,211.958099 196.964066,211.958099 
z"/>
<path fill="#D8E5F7" opacity="1.000000" stroke="none" 
	d="
M212.054840,120.514069 
	C207.383270,121.052307 202.666977,121.126541 197.489899,121.134613 
	C197.018677,105.350174 196.995346,89.631859 197.019104,73.913620 
	C197.021317,72.453194 197.322220,70.993217 197.795074,69.245621 
	C205.274384,77.119598 209.392929,86.793457 210.868896,97.371353 
	C211.910843,104.838608 211.675308,112.484123 212.054840,120.514069 
z"/>
<path fill="#613E26" opacity="1.000000" stroke="none" 
	d="
M36.119186,378.044464 
	C31.004217,370.139526 30.451666,361.319885 31.008785,352.297150 
	C31.586725,342.937134 32.103771,333.569794 32.943806,324.232330 
	C33.125423,322.213501 34.571377,320.308411 36.073700,318.221680 
	C45.777905,328.704742 57.194538,333.203369 71.162621,332.170044 
	C75.253075,331.867432 76.111900,330.629944 76.081779,326.896545 
	C75.934090,308.590240 76.023254,290.282043 76.494781,271.979370 
	C78.794098,271.989899 80.632156,271.911255 82.459793,272.015381 
	C91.871193,272.551697 100.696587,270.913025 108.229271,264.848785 
	C111.278214,262.394196 114.075729,259.627289 116.987656,257.002533 
	C124.497215,272.714020 122.520416,289.245270 120.881050,305.656097 
	C120.518852,309.281860 118.366837,312.728851 116.672981,316.781982 
	C113.786346,319.910187 111.460457,322.744537 108.708366,325.075684 
	C100.585007,331.956512 90.695976,333.040741 80.599350,332.917236 
	C77.228027,332.876007 75.901634,333.760315 75.940796,337.382660 
	C76.140656,355.870148 76.103233,374.360168 76.111610,392.886963 
	C76.074402,392.924652 76.000000,393.000000 75.546249,392.990540 
	C70.990349,392.661652 66.892151,392.151581 62.785145,392.066437 
	C56.271114,391.931427 50.443771,390.039001 45.390751,385.940521 
	C42.238918,383.384094 39.205658,380.681488 36.119186,378.044464 
z"/>
<path fill="#805142" opacity="1.000000" stroke="none" 
	d="
M196.389862,121.626404 
	C196.888123,151.459824 196.933365,181.244781 196.971329,211.493927 
	C196.964066,211.958099 196.974014,211.972504 196.504028,211.973267 
	C194.205170,211.977936 192.372269,211.903778 190.548141,211.998703 
	C180.390366,212.527390 171.132004,210.149857 163.227051,203.508514 
	C160.756424,201.432831 158.451355,199.160049 156.070511,196.977493 
	C148.577744,179.045380 148.666107,160.570557 154.099045,142.432129 
	C157.496445,131.089493 166.334885,124.085770 178.407135,121.954926 
	C179.034119,121.844261 179.623886,121.522949 180.581238,121.139793 
	C185.933258,121.179237 190.935043,121.378593 196.389862,121.626404 
z"/>
<path fill="#623E27" opacity="1.000000" stroke="none" 
	d="
M75.909851,121.803955 
	C75.909851,121.803955 75.984985,121.474625 76.485474,121.358643 
	C82.020058,121.150154 87.054169,121.057640 92.088272,120.965134 
	C100.348656,122.589516 107.440247,126.123711 113.212814,132.525650 
	C117.569107,137.356918 120.157562,142.746262 121.013206,149.964966 
	C121.013252,161.589493 121.018532,172.337357 121.023811,183.085205 
	C119.710403,187.480606 118.396988,191.876022 116.700241,196.702896 
	C111.020485,201.203705 106.023911,205.765015 100.353607,209.220856 
	C92.861542,213.786972 84.199486,211.601151 76.005402,211.537094 
	C75.972885,181.313156 75.941368,151.558548 75.909851,121.803955 
z"/>
<path fill="#805142" opacity="1.000000" stroke="none" 
	d="
M196.506943,393.023804 
	C196.985336,412.649109 197.014847,432.253754 197.067810,452.311096 
	C192.028656,452.789062 186.966049,452.814331 181.442398,452.934753 
	C162.626617,450.165375 150.822159,436.085846 151.040039,417.893677 
	C151.156830,408.142212 151.342285,398.365601 152.200455,388.662598 
	C152.515015,385.106018 154.859741,381.729004 156.584259,378.088470 
	C160.790695,381.212463 164.415527,384.935120 168.650345,387.735168 
	C176.953705,393.225189 186.722580,392.231598 196.506943,393.023804 
z"/>
<path fill="#805142" opacity="1.000000" stroke="none" 
	d="
M196.977142,272.025299 
	C196.976639,290.292786 196.861542,308.555115 197.077454,326.813477 
	C197.126923,330.996307 195.751068,331.800781 191.745377,332.167328 
	C177.258789,333.493073 165.836090,328.291443 156.451630,317.130341 
	C148.212616,300.968567 150.701248,284.077118 152.207321,267.351501 
	C152.502487,264.073517 154.686325,260.965576 156.396790,257.461853 
	C161.745026,262.739777 167.094711,268.256409 174.536163,269.819458 
	C181.845917,271.354889 189.478256,271.354584 196.969025,272.028198 
	C196.969025,272.028198 196.982758,272.018677 196.977142,272.025299 
z"/>
<path fill="#613E26" opacity="1.000000" stroke="none" 
	d="
M196.975571,271.556824 
	C189.478256,271.354584 181.845917,271.354889 174.536163,269.819458 
	C167.094711,268.256409 161.745026,262.739777 156.472015,257.099792 
	C148.366058,241.187256 150.624405,224.446259 152.167725,207.853333 
	C152.490265,204.385590 154.652298,201.088913 156.018585,197.345459 
	C158.451355,199.160049 160.756424,201.432831 163.227051,203.508514 
	C171.132004,210.149857 180.390366,212.527390 190.548141,211.998703 
	C192.372269,211.903778 194.205170,211.977936 196.497116,211.969330 
	C196.967514,231.671585 196.974823,251.378510 196.975571,271.556824 
z"/>
<path fill="#613E26" opacity="1.000000" stroke="none" 
	d="
M92.426437,453.034668 
	C86.993294,453.007690 81.955315,452.974335 76.451988,452.989990 
	C75.986649,453.039032 76.085304,452.881653 76.078499,452.341248 
	C76.047791,432.200592 76.023895,412.600281 76.000000,393.000000 
	C76.000000,393.000000 76.074402,392.924652 76.556213,392.931122 
	C86.500046,392.935516 96.105759,393.143707 104.400764,387.703918 
	C108.643387,384.921661 112.254448,381.176300 116.150940,377.866211 
	C117.773621,381.940277 119.396309,386.014343 121.013412,390.964600 
	C121.013214,402.589294 121.018600,413.337769 121.023979,424.086243 
	C120.390923,435.237366 114.397041,443.028931 105.101875,448.343170 
	C101.343903,450.491608 96.934532,451.500702 92.426437,453.034668 
z"/>
<path fill="#3F2C10" opacity="1.000000" stroke="none" 
	d="
M76.006401,212.006439 
	C84.199486,211.601151 92.861542,213.786972 100.353607,209.220856 
	C106.023911,205.765015 111.020485,201.203705 116.645203,197.067474 
	C124.483635,212.703583 122.507263,229.227585 120.876717,245.632050 
	C120.515221,249.269012 118.397499,252.731400 117.038040,256.638367 
	C114.075729,259.627289 111.278214,262.394196 108.229271,264.848785 
	C100.696587,270.913025 91.871193,272.551697 82.459793,272.015381 
	C80.632156,271.911255 78.794098,271.989899 76.488632,271.984314 
	C76.016426,271.984406 76.026070,271.971008 76.020912,271.505188 
	C76.013176,251.362305 76.010597,231.685226 76.004578,212.004425 
	C76.001137,212.000671 76.006401,212.006439 76.006401,212.006439 
z"/>
<path fill="#3F2C10" opacity="1.000000" stroke="none" 
	d="
M116.283463,377.559937 
	C112.254448,381.176300 108.643387,384.921661 104.400764,387.703918 
	C96.105759,393.143707 86.500046,392.935516 76.593414,392.893433 
	C76.103233,374.360168 76.140656,355.870148 75.940796,337.382660 
	C75.901634,333.760315 77.228027,332.876007 80.599350,332.917236 
	C90.695976,333.040741 100.585007,331.956512 108.708366,325.075684 
	C111.460457,322.744537 113.786346,319.910187 116.592194,317.142639 
	C124.520340,335.036804 123.713745,353.451904 119.075752,371.984711 
	C118.609871,373.846313 117.322250,375.502289 116.283463,377.559937 
z"/>
<path fill="#D8E5F7" opacity="1.000000" stroke="none" 
	d="
M92.052147,120.502365 
	C87.054169,121.057640 82.020058,121.150154 76.525284,121.194504 
	C76.043724,104.739784 76.013084,88.333214 76.023216,71.926674 
	C76.023911,70.795662 76.328812,69.664841 76.801399,68.245041 
	C89.747131,83.122810 92.666122,101.070488 92.052147,120.502365 
z"/>
<path fill="#6F4532" opacity="1.000000" stroke="none" 
	d="
M121.348679,423.805145 
	C121.018600,413.337769 121.013214,402.589294 121.019524,391.361938 
	C121.353874,392.411591 121.956245,393.940613 121.953445,395.468506 
	C121.936287,404.820496 121.781975,414.172241 121.348679,423.805145 
z"/>
<path fill="#6F4532" opacity="1.000000" stroke="none" 
	d="
M121.348663,182.804382 
	C121.018532,172.337357 121.013252,161.589493 121.019539,150.362885 
	C121.353798,151.412445 121.956215,152.941284 121.953415,154.469025 
	C121.936317,163.820663 121.782066,173.172058 121.348663,182.804382 
z"/>
<path fill="#613E26" opacity="1.000000" stroke="none" 
	d="
M477.937714,257.039307 
	C481.807281,263.087891 483.460510,269.634155 483.072449,276.861237 
	C482.742249,283.010010 482.696533,289.209808 483.080811,295.352264 
	C483.573425,303.226685 481.957458,310.465942 477.757874,317.760803 
	C468.202393,329.328430 456.071381,333.530640 442.032501,332.934174 
	C438.513824,332.784698 437.920868,334.398712 437.941376,337.428925 
	C438.066559,355.923950 438.051300,374.419891 438.048767,392.950012 
	C438.014648,392.984528 437.946228,393.053345 437.496216,393.031982 
	C427.715820,392.221283 417.946045,393.227386 409.646576,387.733643 
	C405.414062,384.931976 401.789642,381.211700 397.890350,377.906647 
	C395.926880,371.400757 392.782593,364.984833 392.278290,358.367737 
	C391.531647,348.571075 392.328949,338.603973 393.154755,328.766998 
	C393.471405,324.994873 395.673553,321.381012 397.372742,317.495728 
	C406.944519,328.497437 418.607025,333.571930 433.222443,332.146637 
	C436.784485,331.799316 438.105652,331.119476 438.065491,327.336517 
	C437.870026,308.920929 437.941895,290.502533 437.947327,272.055420 
	C437.975586,272.025757 438.032745,271.967041 438.496765,271.979431 
	C440.786865,271.994568 442.618256,271.907654 444.438110,272.015259 
	C453.124481,272.528900 461.360962,271.142181 468.407593,265.715271 
	C471.799652,263.102905 474.774109,259.948334 477.937714,257.039307 
z"/>
<path fill="#805142" opacity="1.000000" stroke="none" 
	d="
M421.581604,121.138489 
	C426.927368,121.178345 431.923157,121.378494 437.418335,122.118759 
	C437.913696,152.408859 437.909668,182.158844 437.444702,211.929871 
	C435.157104,211.962540 433.326599,211.902191 431.504303,211.997681 
	C421.355133,212.529449 412.113342,210.131012 404.217865,203.502274 
	C401.749359,201.429810 399.448212,199.158051 397.070465,196.977509 
	C389.577911,179.045151 389.665802,160.570068 395.099274,142.431549 
	C398.496887,131.089142 407.335266,124.084869 419.408081,121.954765 
	C420.034973,121.844162 420.624603,121.522285 421.581604,121.138489 
z"/>
<path fill="#623E27" opacity="1.000000" stroke="none" 
	d="
M316.971436,211.971222 
	C316.949860,182.215622 316.959686,152.492188 316.936951,122.287697 
	C316.904388,121.806641 316.981689,121.475807 317.483826,121.359238 
	C323.020050,121.150154 328.054169,121.057640 333.088257,120.965134 
	C341.348663,122.589485 348.440247,126.123726 354.212799,132.525635 
	C358.569122,137.356888 361.157593,142.746216 362.013184,149.964966 
	C362.013245,161.589493 362.018585,172.337326 362.023926,183.085175 
	C360.711060,187.480774 359.398224,191.876358 357.701416,196.703278 
	C351.718231,203.293564 345.746704,209.288376 337.278137,210.800064 
	C330.675507,211.978683 323.812622,211.699356 317.065399,212.067947 
	C317.065399,212.067947 317.002838,212.003387 316.971436,211.971222 
z"/>
<path fill="#805142" opacity="1.000000" stroke="none" 
	d="
M397.584290,378.088196 
	C401.789642,381.211700 405.414062,384.931976 409.646576,387.733643 
	C417.946045,393.227386 427.715820,392.221283 437.511230,393.494507 
	C437.966766,413.552521 437.957184,433.126587 437.947632,452.700653 
	C437.947632,452.700653 438.039154,452.916779 438.036530,453.034119 
	C432.990356,453.047485 427.946777,452.943573 422.442291,452.934814 
	C403.626831,450.165344 391.822357,436.086517 392.039886,417.893555 
	C392.156494,408.142059 392.342255,398.365448 393.200439,388.662415 
	C393.515015,385.105804 395.859650,381.728729 397.584290,378.088196 
z"/>
<path fill="#805142" opacity="1.000000" stroke="none" 
	d="
M437.919098,272.085114 
	C437.941895,290.502533 437.870026,308.920929 438.065491,327.336517 
	C438.105652,331.119476 436.784485,331.799316 433.222443,332.146637 
	C418.607025,333.571930 406.944519,328.497437 397.451630,317.130310 
	C389.212555,300.968567 391.701660,284.077087 393.207306,267.351501 
	C393.502380,264.073517 395.686340,260.965576 397.396790,257.461823 
	C402.823120,262.760254 408.184509,268.346558 415.748199,269.889984 
	C422.986420,271.366974 430.516998,271.411163 437.919098,272.085114 
z"/>
<path fill="#613E26" opacity="1.000000" stroke="none" 
	d="
M437.947327,272.055420 
	C430.516998,271.411163 422.986420,271.366974 415.748199,269.889984 
	C408.184509,268.346558 402.823120,262.760254 397.472015,257.099762 
	C389.365814,241.187286 391.625031,224.446228 393.167786,207.853363 
	C393.490173,204.385620 395.652313,201.088928 397.018555,197.345474 
	C399.448212,199.158051 401.749359,201.429810 404.217865,203.502274 
	C412.113342,210.131012 421.355133,212.529449 431.504303,211.997681 
	C433.326599,211.902191 435.157104,211.962540 437.475037,211.959076 
	C437.966248,211.967209 438.025635,212.026840 438.011658,212.492554 
	C438.009338,232.627869 438.021027,252.297455 438.032715,271.967041 
	C438.032745,271.967041 437.975586,272.025757 437.947327,272.055420 
z"/>
<path fill="#613E26" opacity="1.000000" stroke="none" 
	d="
M317.403290,452.747314 
	C316.968658,433.059265 316.988678,413.498291 317.004364,393.468628 
	C317.000000,393.000000 317.074402,392.924622 317.556213,392.931091 
	C327.499695,392.935150 337.105286,393.144073 345.400085,387.704376 
	C349.642517,384.922180 353.253479,381.177094 357.149872,377.867218 
	C358.772919,381.940948 360.395966,386.014679 362.013428,390.964600 
	C362.013214,402.589294 362.018585,413.337799 362.023987,424.086273 
	C361.393738,435.240021 355.390686,443.028381 346.102417,448.348328 
	C342.347168,450.499146 337.934265,451.501740 333.425598,453.033997 
	C327.972992,452.985565 322.915497,452.929993 317.403290,452.747314 
z"/>
<path fill="#3F2C10" opacity="1.000000" stroke="none" 
	d="
M317.045349,212.529175 
	C323.812622,211.699356 330.675507,211.978683 337.278137,210.800064 
	C345.746704,209.288376 351.718231,203.293564 357.645782,197.067688 
	C365.482178,212.701996 363.507538,229.223831 361.877350,245.626541 
	C361.515900,249.263397 359.403503,252.726242 358.048584,256.632782 
	C355.090088,259.619873 352.268219,262.349396 349.254272,264.847137 
	C340.057190,272.469055 329.056854,272.391296 317.542267,271.943542 
	C317.064850,252.273102 317.045044,232.631760 317.045349,212.529175 
z"/>
<path fill="#3F2C10" opacity="1.000000" stroke="none" 
	d="
M357.282257,377.560791 
	C353.253479,381.177094 349.642517,384.922180 345.400085,387.704376 
	C337.105286,393.144073 327.499695,392.935150 317.593384,392.893433 
	C317.103119,374.359985 317.140503,355.869873 316.940643,337.382263 
	C316.901459,333.759460 318.228973,332.876160 321.599792,332.917206 
	C331.696259,333.040192 341.585846,331.958160 349.708710,325.075531 
	C352.460358,322.744019 354.786377,319.910156 357.592133,317.142700 
	C365.520538,335.037201 364.713684,353.452698 360.075562,371.985809 
	C359.609680,373.847351 358.321320,375.503082 357.282257,377.560791 
z"/>
<path fill="#D8E5F7" opacity="1.000000" stroke="none" 
	d="
M333.052124,120.502365 
	C328.054169,121.057640 323.020050,121.150154 317.525299,121.194504 
	C317.043732,104.739792 317.013062,88.333229 317.023193,71.926697 
	C317.023865,70.795685 317.328766,69.664856 317.801270,68.244980 
	C330.747253,83.122643 333.666077,101.070435 333.052124,120.502365 
z"/>
<path fill="#6F4532" opacity="1.000000" stroke="none" 
	d="
M362.348694,423.805176 
	C362.018585,413.337799 362.013214,402.589294 362.019531,391.361938 
	C362.353882,392.411591 362.956146,393.940643 362.953369,395.468536 
	C362.936218,404.820526 362.781982,414.172272 362.348694,423.805176 
z"/>
<path fill="#6F4532" opacity="1.000000" stroke="none" 
	d="
M362.348755,182.804321 
	C362.018585,172.337326 362.013245,161.589493 362.019501,150.362885 
	C362.353760,151.412445 362.956116,152.941269 362.953339,154.469009 
	C362.936310,163.820618 362.782104,173.172012 362.348755,182.804321 
z"/>
<path fill="#613E26" opacity="1.000000" stroke="none" 
	d="
M437.935913,211.938019 
	C437.909668,182.158844 437.913696,152.408859 437.870361,122.169632 
	C437.822968,121.680382 437.915283,121.369843 438.432434,121.285095 
	C443.666260,121.126259 448.382904,121.052170 453.099579,120.978073 
	C464.072571,123.221596 473.605652,127.828125 478.774902,138.371078 
	C480.824493,142.551361 482.431885,147.265457 482.840759,151.861069 
	C483.502686,159.300247 482.687073,166.859604 483.089813,174.336197 
	C483.531433,182.534821 482.049530,190.133209 477.661865,197.660431 
	C473.250763,201.351868 469.468567,205.055801 465.101685,207.843948 
	C456.800598,213.143967 447.266693,211.966492 438.025635,212.026840 
	C438.025635,212.026840 437.966248,211.967209 437.935913,211.938019 
z"/>
<path fill="#613E26" opacity="1.000000" stroke="none" 
	d="
M438.406738,452.805389 
	C437.957184,433.126587 437.966766,413.552521 437.961273,393.515900 
	C437.946228,393.053345 438.014648,392.984528 438.499084,392.972473 
	C454.304718,393.444427 468.292816,390.662354 477.874939,377.085968 
	C482.354858,384.022888 483.498749,391.653595 483.071838,399.778931 
	C482.732178,406.243317 482.992767,412.739899 483.008118,419.222137 
	C483.047180,435.719452 473.274597,448.154907 457.144562,452.124817 
	C456.032196,452.398621 454.932770,452.724884 453.429626,453.030823 
	C448.309906,452.993317 443.587860,452.951721 438.406738,452.805389 
z"/>
<path fill="#3E2C10" opacity="1.000000" stroke="none" 
	d="
M478.051514,376.768402 
	C468.292816,390.662354 454.304718,393.444427 438.533203,392.937988 
	C438.051300,374.419891 438.066559,355.923950 437.941376,337.428925 
	C437.920868,334.398712 438.513824,332.784698 442.032501,332.934174 
	C456.071381,333.530640 468.202393,329.328430 477.758789,318.126526 
	C479.718994,323.075012 482.378754,328.074829 482.794373,333.254761 
	C483.562439,342.826904 483.529297,352.543549 482.801666,362.121918 
	C482.432159,366.985962 479.824158,371.679962 478.051514,376.768402 
z"/>
<path fill="#3E2C10" opacity="1.000000" stroke="none" 
	d="
M438.011658,212.492554 
	C447.266693,211.966492 456.800598,213.143967 465.101685,207.843948 
	C469.468567,205.055801 473.250763,201.351868 477.642029,198.028595 
	C481.569550,202.404129 483.023163,207.515961 483.013855,213.121918 
	C483.000610,221.084061 482.762573,229.055786 483.075378,237.005524 
	C483.351440,244.021591 481.974121,250.455780 478.097015,256.717224 
	C474.774109,259.948334 471.799652,263.102905 468.407593,265.715271 
	C461.360962,271.142181 453.124481,272.528900 444.438110,272.015259 
	C442.618256,271.907654 440.786865,271.994568 438.496765,271.979431 
	C438.021027,252.297455 438.009338,232.627869 438.011658,212.492554 
z"/>
<path fill="#D8E5F7" opacity="1.000000" stroke="none" 
	d="
M453.054840,120.514069 
	C448.382904,121.052170 443.666260,121.126259 438.488892,121.133255 
	C438.017975,105.348579 437.994904,89.630974 438.018951,73.913452 
	C438.021179,72.453079 438.322144,70.993172 438.795013,69.245590 
	C446.274384,77.119492 450.392883,86.793381 451.868896,97.371284 
	C452.910828,104.838562 452.675323,112.484100 453.054840,120.514069 
z"/>
<path fill="#805142" opacity="1.000000" stroke="none" 
	d="
M75.456070,121.724655 
	C75.941368,151.558548 75.972885,181.313156 76.005402,211.537094 
	C76.006401,212.006439 76.001137,212.000671 75.537079,211.996155 
	C73.913094,211.989594 72.750885,211.938629 71.593613,211.992996 
	C58.928528,212.588089 47.672558,209.549255 39.003075,199.588715 
	C38.317528,198.801056 37.057415,198.513458 36.064331,197.993454 
	C27.516104,182.135117 30.527502,164.838303 31.550301,148.359909 
	C32.329880,135.800049 41.918842,125.833328 56.859764,122.003387 
	C57.962830,121.720627 59.045353,121.357727 60.518883,120.988899 
	C65.600990,121.178932 70.301636,121.412148 75.456070,121.724655 
z"/>
<path fill="#805142" opacity="1.000000" stroke="none" 
	d="
M75.546249,392.990540 
	C76.023895,412.600281 76.047791,432.200592 76.092041,452.249390 
	C71.361359,452.727997 66.610321,452.758057 61.400803,452.904816 
	C45.478832,450.768555 35.814827,441.937653 31.549791,427.035797 
	C31.193960,425.792542 31.029408,424.453156 31.024261,423.157471 
	C30.982738,412.702698 30.537024,402.217346 31.217958,391.806976 
	C31.509668,387.347198 34.183617,383.043274 35.947170,378.356506 
	C39.205658,380.681488 42.238918,383.384094 45.390751,385.940521 
	C50.443771,390.039001 56.271114,391.931427 62.785145,392.066437 
	C66.892151,392.151581 70.990349,392.661652 75.546249,392.990540 
z"/>
<path fill="#805142" opacity="1.000000" stroke="none" 
	d="
M76.022575,271.979462 
	C76.023254,290.282043 75.934090,308.590240 76.081779,326.896545 
	C76.111900,330.629944 75.253075,331.867432 71.162621,332.170044 
	C57.194538,333.203369 45.777905,328.704742 36.380447,318.044342 
	C27.773630,301.251770 31.015560,283.581055 32.129589,266.143127 
	C32.313713,263.260986 34.518311,260.507965 36.253242,257.528931 
	C40.810173,260.907196 44.569046,264.966949 49.068584,267.884308 
	C57.291946,273.216125 66.814865,272.014130 76.026070,271.971008 
	C76.026070,271.971008 76.016426,271.984406 76.022575,271.979462 
z"/>
<path fill="#613E26" opacity="1.000000" stroke="none" 
	d="
M76.020912,271.505188 
	C66.814865,272.014130 57.291946,273.216125 49.068584,267.884308 
	C44.569046,264.966949 40.810173,260.907196 36.431404,257.220123 
	C32.224274,250.866760 30.541563,244.161224 30.942831,236.765121 
	C31.489828,226.682968 31.405993,216.563263 32.098274,206.494431 
	C32.289715,203.710037 34.275997,201.049057 35.751549,198.162445 
	C37.057415,198.513458 38.317528,198.801056 39.003075,199.588715 
	C47.672558,209.549255 58.928528,212.588089 71.593613,211.992996 
	C72.750885,211.938629 73.913094,211.989594 75.540512,211.999908 
	C76.010597,231.685226 76.013176,251.362305 76.020912,271.505188 
z"/>
</svg>