<svg version="1.1" id="Layer_1" xmlns="http://www.w3.org/2000/svg" xmlns:xlink="http://www.w3.org/1999/xlink" x="0px" y="0px"
	 width="100%" viewBox="0 0 512 512" xml:space="preserve">

<path fill="#F8664F" opacity="1.000000" stroke="none" 
	d="
M365.009674,480.155365 
	C364.891235,487.254089 366.326294,494.815643 361.850159,500.965179 
	C358.712616,505.275635 354.269409,508.635681 350.704651,512.710083 
	C288.645782,513.000000 226.291550,513.000000 163.468658,513.000000 
	C162.694824,512.345093 162.568130,511.360138 162.057968,511.084320 
	C152.847916,506.104401 148.877747,498.213043 148.996017,487.980286 
	C149.022644,485.676117 148.999039,483.371307 149.454575,480.512695 
	C150.574799,479.924774 151.238983,479.861359 151.903183,479.861298 
	C221.615891,479.855957 291.328613,479.853729 361.041321,479.867035 
	C362.364136,479.867279 363.686890,480.055054 365.009674,480.155365 
z"/>
<path fill="#878787" opacity="1.000000" stroke="none" 
	d="
M408.532043,1.000006 
	C409.770264,1.942385 410.357880,3.188066 411.339630,3.779253 
	C419.395477,8.630359 423.178375,20.784000 418.333008,30.424730 
	C408.719147,49.553387 399.621033,68.941246 389.701538,88.593086 
	C374.054016,88.928253 359.014771,88.892311 343.975494,88.856369 
	C355.371246,65.406616 366.794037,41.969917 378.145538,18.498775 
	C381.354828,11.863059 384.680084,5.382863 391.248505,1.316226 
	C396.688049,1.000000 402.376068,1.000000 408.532043,1.000006 
z"/>
<path fill="#EDEFED" opacity="1.000000" stroke="none" 
	d="
M406.828491,229.129425 
	C405.552490,245.272522 404.258789,261.414246 403.010681,277.559509 
	C402.605103,282.805969 402.281464,288.059509 401.985291,293.313507 
	C401.281464,305.800262 400.698639,318.294373 399.914581,330.775940 
	C398.977448,345.694214 397.881592,360.602478 396.024750,375.754456 
	C302.744141,376.000397 210.293289,376.006927 117.842438,376.013458 
	C117.249863,370.553528 116.462463,365.106384 116.104301,359.631104 
	C115.298393,347.311218 114.775101,334.972992 114.007523,322.650330 
	C113.078316,307.732758 112.038620,292.821960 111.002197,277.911316 
	C110.388107,269.076569 109.732460,260.244202 109.012695,251.417542 
	C108.429352,244.263824 107.722481,237.120209 107.574585,229.474274 
	C109.076553,228.938446 110.074341,228.867264 111.072128,228.867203 
	C208.164383,228.861954 305.256653,228.860931 402.348907,228.873047 
	C403.842102,228.873230 405.335297,229.040253 406.828491,229.129425 
M192.574005,322.991669 
	C203.870422,322.464996 211.610352,315.895660 213.447617,305.274994 
	C215.006302,296.264709 209.636398,286.562836 200.846954,283.193848 
	C192.898819,280.147308 185.358536,281.250397 179.036926,287.113586 
	C172.761459,292.933990 170.629425,300.310547 173.288406,308.481201 
	C176.134308,317.226227 182.537842,321.993591 192.574005,322.991669 
M254.709778,303.897766 
	C250.056946,303.490112 245.407043,302.922760 240.748337,302.837646 
	C240.003418,302.824036 238.531067,305.044861 238.645050,306.097321 
	C238.760559,307.164001 240.285812,308.626251 241.442505,308.913696 
	C243.611740,309.452728 245.960480,309.269379 248.092255,309.379150 
	C249.886276,313.855896 247.331238,315.150848 244.103439,315.858734 
	C238.331314,317.124664 232.119110,314.262878 229.226044,309.104919 
	C226.337814,303.955627 227.146500,297.148499 231.153366,292.881927 
	C235.295776,288.471008 241.682022,287.243317 247.157486,289.843872 
	C248.500854,290.481903 249.730392,291.597229 251.120865,291.822388 
	C252.208008,291.998444 253.929611,291.468140 254.514343,290.644623 
	C255.116013,289.797211 255.032089,288.072174 254.595535,286.995850 
	C254.211472,286.048981 252.990829,285.367798 252.027832,284.741089 
	C244.670105,279.952637 234.173050,280.901764 227.489899,286.915924 
	C220.557953,293.154022 218.651566,303.220184 222.828461,311.529205 
	C226.917084,319.662628 236.222534,324.383453 244.818344,322.685120 
	C253.407394,320.988129 255.545883,318.382660 255.443268,309.612213 
	C255.423904,307.958344 255.198502,306.306824 254.709778,303.897766 
M319.882996,307.330444 
	C323.601837,310.272125 322.554260,314.485321 323.094757,318.371399 
	C323.322174,320.006775 325.267548,321.403229 326.431946,322.908264 
	C327.543335,321.479675 329.684509,319.974243 329.584656,318.636047 
	C329.189392,313.338837 328.092438,308.093964 327.255615,302.829712 
	C326.119354,302.379333 326.459045,301.834839 326.846283,301.326599 
	C329.814606,297.430756 330.704987,293.182190 328.485657,288.706177 
	C326.221802,284.140472 322.358002,281.825745 317.233429,281.730194 
	C314.735870,281.683594 312.233490,281.777283 309.739960,281.662964 
	C306.101929,281.496155 304.700134,283.167480 304.739960,286.761993 
	C304.854340,297.087463 304.628296,307.419525 304.930054,317.737488 
	C304.981201,319.485809 306.984772,321.177063 308.086334,322.894653 
	C309.234253,321.178436 311.129578,319.562042 311.374786,317.725281 
	C311.887543,313.884430 311.530121,309.927399 311.530121,305.297028 
	C314.744598,305.965576 316.963074,306.427002 319.882996,307.330444 
M282.943970,322.819946 
	C292.224548,320.081177 297.268158,314.734528 297.746429,306.272919 
	C298.121277,299.641144 298.069092,292.960876 297.705292,286.329681 
	C297.619537,284.765564 295.518494,283.312012 294.344513,281.807587 
	C293.224365,283.331085 291.240784,284.798645 291.137817,286.388062 
	C290.751587,292.350403 291.059723,298.353912 290.956390,304.339386 
	C290.834900,311.378265 286.412384,316.054596 280.066742,316.060089 
	C273.720306,316.065582 269.277679,311.432129 269.114960,304.377655 
	C268.980743,298.559784 269.334442,292.718811 268.928070,286.926208 
	C268.804047,285.158813 266.876862,283.517914 265.775452,281.819061 
	C264.588654,283.478943 262.514526,285.069550 262.378510,286.811493 
	C261.939636,292.431824 262.157379,298.108582 262.225586,303.762329 
	C262.372467,315.936554 269.851349,323.113037 282.943970,322.819946 
M147.013626,287.424255 
	C146.298172,286.109894 145.864304,284.447723 144.789307,283.577515 
	C143.679581,282.679138 141.235550,281.741913 140.641983,282.263458 
	C139.584198,283.192810 138.986038,285.250153 139.115234,286.756927 
	C139.246704,288.290222 140.385941,289.791321 141.259048,291.197815 
	C146.250504,299.238434 149.966110,307.566315 148.480484,317.438904 
	C148.105698,319.929413 148.555481,322.949982 152.042801,322.800049 
	C155.582306,322.647827 155.432068,319.537231 155.146118,317.098450 
	C154.130371,308.435425 156.438416,300.717224 161.210175,293.567200 
	C162.312759,291.915070 163.581863,290.161621 163.952194,288.291962 
	C164.336212,286.353210 163.722076,284.216736 163.544510,282.166748 
	C161.725159,283.117279 159.278152,283.619965 158.214844,285.110016 
	C155.876373,288.387115 154.237045,292.163116 151.939651,296.427185 
	C150.052704,293.009064 148.698669,290.556274 147.013626,287.424255 
M365.429199,281.690430 
	C357.438324,281.693054 349.440308,281.521332 341.462585,281.846771 
	C339.885406,281.911102 338.386200,283.887329 336.851044,284.981873 
	C338.379395,286.088196 339.807098,287.922729 341.456787,288.150696 
	C344.998138,288.640076 348.653992,288.300873 352.776581,288.300873 
	C352.776581,297.753967 352.663025,306.535858 352.842224,315.311768 
	C352.899872,318.133575 351.296478,322.779053 356.153137,322.668060 
	C360.865295,322.560364 359.249115,317.958679 359.308075,315.118225 
	C359.490021,306.356323 359.374481,297.588257 359.374481,288.235474 
	C364.014893,288.235474 367.990051,288.465088 371.909180,288.097565 
	C373.107361,287.985229 374.151733,286.232910 375.266571,285.231628 
	C374.142303,284.073059 373.209778,282.393738 371.844086,281.890930 
	C370.224884,281.294800 368.232574,281.712128 365.429199,281.690430 
z"/>
<path fill="#65C5EF" opacity="1.000000" stroke="none" 
	d="
M406.911774,228.667023 
	C405.335297,229.040253 403.842102,228.873230 402.348907,228.873047 
	C305.256653,228.860931 208.164383,228.861954 111.072128,228.867203 
	C110.074341,228.867264 109.076553,228.938446 107.625206,229.049683 
	C106.447739,217.482666 105.756310,205.840256 104.991753,194.202652 
	C104.023895,179.470490 103.036926,164.739319 101.978668,150.013428 
	C101.404274,142.020554 100.664864,134.039536 100.462723,125.535889 
	C186.812592,124.990784 272.699615,124.948883 358.586639,124.946388 
	C377.058319,124.945847 395.530029,125.087646 414.001709,125.163887 
	C412.674164,142.962845 411.343384,160.761551 410.021332,178.560913 
	C409.669189,183.302032 409.296661,188.042343 409.015747,192.787903 
	C408.316895,204.591995 407.665497,216.398880 406.911774,228.667023 
z"/>
<path fill="#65C5EF" opacity="1.000000" stroke="none" 
	d="
M117.911942,376.475647 
	C210.293289,376.006927 302.744141,376.000397 395.676392,376.003540 
	C395.437805,389.184692 394.803040,402.361481 393.974579,415.526093 
	C393.077026,429.789459 392.107605,444.050171 390.966278,458.295746 
	C389.988678,470.497253 382.590240,481.435822 365.459503,480.087250 
	C363.686890,480.055054 362.364136,479.867279 361.041321,479.867035 
	C291.328613,479.853729 221.615891,479.855957 151.903183,479.861298 
	C151.238983,479.861359 150.574799,479.924774 149.450470,480.056976 
	C144.046265,479.319672 138.622879,479.495697 134.261734,477.429596 
	C126.144630,473.584045 123.506165,465.776031 123.001595,457.212677 
	C121.995071,440.129974 121.031273,423.044617 119.980598,405.964630 
	C119.385132,396.284668 118.652367,386.613129 117.911942,376.475647 
z"/>
<path fill="#F8664F" opacity="1.000000" stroke="none" 
	d="
M414.428650,125.094513 
	C395.530029,125.087646 377.058319,124.945847 358.586639,124.946388 
	C272.699615,124.948883 186.812592,124.990784 100.461845,125.091064 
	C94.001160,125.172844 87.289284,124.634186 86.210014,117.712120 
	C85.022881,110.098175 85.275566,101.983498 86.589714,94.378815 
	C87.196266,90.868866 91.889252,88.888588 96.688995,88.896591 
	C178.806824,89.033607 260.924927,88.986282 343.509247,88.917938 
	C359.014771,88.892311 374.054016,88.928253 389.558350,88.909088 
	C398.993744,88.902618 407.964050,88.961182 416.934448,88.996506 
	C423.335724,89.021721 426.987671,90.695496 428.144379,96.969780 
	C429.340546,103.458290 429.031555,110.406967 428.241974,117.018333 
	C427.660095,121.890648 422.920959,125.632256 414.428650,125.094513 
z"/>
<path fill="#5C5C5C" opacity="1.000000" stroke="none" 
	d="
M192.142517,322.979858 
	C182.537842,321.993591 176.134308,317.226227 173.288406,308.481201 
	C170.629425,300.310547 172.761459,292.933990 179.036926,287.113586 
	C185.358536,281.250397 192.898819,280.147308 200.846954,283.193848 
	C209.636398,286.562836 215.006302,296.264709 213.447617,305.274994 
	C211.610352,315.895660 203.870422,322.464996 192.142517,322.979858 
M197.406448,315.353912 
	C204.531021,312.083649 208.021149,306.109528 206.598053,299.620483 
	C205.153290,293.032562 199.734650,288.568237 193.113495,288.510773 
	C186.501846,288.453400 180.958389,292.837860 179.431610,299.377258 
	C177.249176,308.724884 186.069839,318.468475 197.406448,315.353912 
z"/>
<path fill="#5C5C5C" opacity="1.000000" stroke="none" 
	d="
M254.888977,304.276001 
	C255.198502,306.306824 255.423904,307.958344 255.443268,309.612213 
	C255.545883,318.382660 253.407394,320.988129 244.818344,322.685120 
	C236.222534,324.383453 226.917084,319.662628 222.828461,311.529205 
	C218.651566,303.220184 220.557953,293.154022 227.489899,286.915924 
	C234.173050,280.901764 244.670105,279.952637 252.027832,284.741089 
	C252.990829,285.367798 254.211472,286.048981 254.595535,286.995850 
	C255.032089,288.072174 255.116013,289.797211 254.514343,290.644623 
	C253.929611,291.468140 252.208008,291.998444 251.120865,291.822388 
	C249.730392,291.597229 248.500854,290.481903 247.157486,289.843872 
	C241.682022,287.243317 235.295776,288.471008 231.153366,292.881927 
	C227.146500,297.148499 226.337814,303.955627 229.226044,309.104919 
	C232.119110,314.262878 238.331314,317.124664 244.103439,315.858734 
	C247.331238,315.150848 249.886276,313.855896 248.092255,309.379150 
	C245.960480,309.269379 243.611740,309.452728 241.442505,308.913696 
	C240.285812,308.626251 238.760559,307.164001 238.645050,306.097321 
	C238.531067,305.044861 240.003418,302.824036 240.748337,302.837646 
	C245.407043,302.922760 250.056946,303.490112 254.888977,304.276001 
z"/>
<path fill="#5A5A5A" opacity="1.000000" stroke="none" 
	d="
M319.532288,307.109436 
	C316.963074,306.427002 314.744598,305.965576 311.530121,305.297028 
	C311.530121,309.927399 311.887543,313.884430 311.374786,317.725281 
	C311.129578,319.562042 309.234253,321.178436 308.086334,322.894653 
	C306.984772,321.177063 304.981201,319.485809 304.930054,317.737488 
	C304.628296,307.419525 304.854340,297.087463 304.739960,286.761993 
	C304.700134,283.167480 306.101929,281.496155 309.739960,281.662964 
	C312.233490,281.777283 314.735870,281.683594 317.233429,281.730194 
	C322.358002,281.825745 326.221802,284.140472 328.485657,288.706177 
	C330.704987,293.182190 329.814606,297.430756 326.846283,301.326599 
	C326.459045,301.834839 326.119354,302.379333 327.255615,302.829712 
	C328.092438,308.093964 329.189392,313.338837 329.584656,318.636047 
	C329.684509,319.974243 327.543335,321.479675 326.431946,322.908264 
	C325.267548,321.403229 323.322174,320.006775 323.094757,318.371399 
	C322.554260,314.485321 323.601837,310.272125 319.532288,307.109436 
M313.686768,298.991577 
	C314.843079,298.989502 316.306000,299.437134 317.096313,298.898254 
	C319.188446,297.471832 320.989563,295.618500 322.906525,293.935089 
	C321.150970,292.077301 319.688385,289.625549 317.539337,288.565674 
	C316.047638,287.829956 311.875458,288.977234 311.868713,289.338501 
	C311.809265,292.534302 312.413940,295.742493 313.686768,298.991577 
z"/>
<path fill="#5C5C5C" opacity="1.000000" stroke="none" 
	d="
M282.525024,322.869446 
	C269.851349,323.113037 262.372467,315.936554 262.225586,303.762329 
	C262.157379,298.108582 261.939636,292.431824 262.378510,286.811493 
	C262.514526,285.069550 264.588654,283.478943 265.775452,281.819061 
	C266.876862,283.517914 268.804047,285.158813 268.928070,286.926208 
	C269.334442,292.718811 268.980743,298.559784 269.114960,304.377655 
	C269.277679,311.432129 273.720306,316.065582 280.066742,316.060089 
	C286.412384,316.054596 290.834900,311.378265 290.956390,304.339386 
	C291.059723,298.353912 290.751587,292.350403 291.137817,286.388062 
	C291.240784,284.798645 293.224365,283.331085 294.344513,281.807587 
	C295.518494,283.312012 297.619537,284.765564 297.705292,286.329681 
	C298.069092,292.960876 298.121277,299.641144 297.746429,306.272919 
	C297.268158,314.734528 292.224548,320.081177 282.525024,322.869446 
z"/>
<path fill="#5C5C5C" opacity="1.000000" stroke="none" 
	d="
M147.179138,287.763855 
	C148.698669,290.556274 150.052704,293.009064 151.939651,296.427185 
	C154.237045,292.163116 155.876373,288.387115 158.214844,285.110016 
	C159.278152,283.619965 161.725159,283.117279 163.544495,282.166748 
	C163.722076,284.216736 164.336212,286.353210 163.952194,288.291962 
	C163.581863,290.161621 162.312759,291.915070 161.210175,293.567200 
	C156.438416,300.717224 154.130371,308.435425 155.146118,317.098450 
	C155.432068,319.537231 155.582306,322.647827 152.042801,322.800049 
	C148.555481,322.949982 148.105698,319.929413 148.480484,317.438904 
	C149.966110,307.566315 146.250504,299.238434 141.259048,291.197815 
	C140.385941,289.791321 139.246704,288.290222 139.115234,286.756927 
	C138.986038,285.250153 139.584198,283.192810 140.641983,282.263458 
	C141.235550,281.741913 143.679581,282.679138 144.789307,283.577515 
	C145.864304,284.447723 146.298172,286.109894 147.179138,287.763855 
z"/>
<path fill="#575757" opacity="1.000000" stroke="none" 
	d="
M365.915588,281.690308 
	C368.232574,281.712128 370.224884,281.294800 371.844086,281.890930 
	C373.209778,282.393738 374.142303,284.073059 375.266571,285.231628 
	C374.151733,286.232910 373.107361,287.985229 371.909180,288.097565 
	C367.990051,288.465088 364.014893,288.235474 359.374481,288.235474 
	C359.374481,297.588257 359.490021,306.356323 359.308075,315.118225 
	C359.249115,317.958679 360.865295,322.560364 356.153137,322.668060 
	C351.296478,322.779053 352.899872,318.133575 352.842224,315.311768 
	C352.663025,306.535858 352.776581,297.753967 352.776581,288.300873 
	C348.653992,288.300873 344.998138,288.640076 341.456787,288.150696 
	C339.807098,287.922729 338.379395,286.088196 336.851044,284.981873 
	C338.386200,283.887329 339.885406,281.911102 341.462585,281.846771 
	C349.440308,281.521332 357.438324,281.693054 365.915588,281.690308 
z"/>
<path fill="#EBEDEB" opacity="1.000000" stroke="none" 
	d="
M197.032043,315.511536 
	C186.069839,318.468475 177.249176,308.724884 179.431610,299.377258 
	C180.958389,292.837860 186.501846,288.453400 193.113495,288.510773 
	C199.734650,288.568237 205.153290,293.032562 206.598053,299.620483 
	C208.021149,306.109528 204.531021,312.083649 197.032043,315.511536 
z"/>
<path fill="#E0E2E0" opacity="1.000000" stroke="none" 
	d="
M313.254578,298.969299 
	C312.413940,295.742493 311.809265,292.534302 311.868713,289.338501 
	C311.875458,288.977234 316.047638,287.829956 317.539337,288.565674 
	C319.688385,289.625549 321.150970,292.077301 322.906525,293.935089 
	C320.989563,295.618500 319.188446,297.471832 317.096313,298.898254 
	C316.306000,299.437134 314.843079,298.989502 313.254578,298.969299 
z"/>
</svg>