<svg version="1.1" id="Layer_1" xmlns="http://www.w3.org/2000/svg" xmlns:xlink="http://www.w3.org/1999/xlink" x="0px" y="0px"
	 width="100%" viewBox="0 0 512 512" xml:space="preserve">

<path fill="#AD6340" opacity="1.000000" stroke="none" 
	d="
M1.000000,251.468658 
	C2.171555,248.660889 3.719732,246.433975 4.455175,243.964966 
	C10.427293,223.915344 20.588366,206.039124 33.145668,189.536270 
	C39.433544,181.272720 46.166058,173.189850 53.660721,166.034134 
	C70.673317,149.790848 89.509071,136.288910 113.231117,131.422516 
	C114.507271,131.160721 115.840729,131.178299 117.696381,131.446213 
	C129.265610,136.768372 140.670731,141.008026 151.228470,146.793915 
	C175.316956,159.994965 193.605362,179.274094 206.646317,203.391144 
	C219.698166,227.528290 224.902405,253.521210 223.979248,280.836334 
	C212.261307,285.225189 200.543365,289.614014 188.047852,294.059143 
	C172.921204,297.648590 158.592819,301.269165 144.214127,304.677490 
	C137.153595,306.351105 129.999802,307.631165 122.888206,309.089325 
	C110.803680,310.371155 98.743988,312.075165 86.625992,312.787964 
	C78.397507,313.272003 70.048660,312.765839 61.823940,311.973114 
	C52.859276,311.109100 43.658806,310.420746 35.148136,307.770691 
	C27.012810,305.237457 19.386269,300.683502 12.038692,296.195007 
	C9.043292,294.365173 7.299778,290.418427 5.125960,287.336578 
	C3.825568,285.492950 2.794858,283.459106 1.321462,281.755371 
	C1.000000,271.979095 1.000000,261.958221 1.000000,251.468658 
M72.077400,188.045227 
	C60.426235,188.222458 48.560581,200.291138 48.005215,212.529297 
	C47.561607,222.304810 54.568954,226.979523 63.470470,222.690765 
	C72.315346,218.429321 77.495216,211.077515 79.725754,201.739212 
	C81.344795,194.960983 78.991379,190.804947 72.077400,188.045227 
M35.241375,252.806076 
	C42.870655,253.637512 48.019939,250.132843 48.871471,243.448380 
	C49.412277,239.203079 47.774189,235.294281 43.984665,234.071381 
	C41.171860,233.163651 36.913921,233.709061 34.448570,235.341873 
	C28.162661,239.505066 28.497606,247.379913 35.241375,252.806076 
z"/>
<path fill="#9D5A3A" opacity="1.000000" stroke="none" 
	d="
M371.982422,49.177544 
	C380.058929,51.657322 388.455841,53.401005 396.153320,56.751541 
	C421.742432,67.889847 442.768005,85.450432 461.272156,105.937088 
	C481.594452,128.436676 498.468903,153.245316 508.148865,182.368912 
	C509.470337,186.344696 510.869171,190.294785 512.616089,194.128387 
	C513.000000,204.354233 513.000000,214.708450 513.000000,225.531342 
	C512.373901,226.302460 511.341248,226.463898 511.180328,226.927780 
	C505.178925,244.225113 491.573212,253.103943 475.425781,258.930145 
	C462.427399,263.620148 449.004974,266.556335 435.120422,267.036865 
	C434.336456,267.063995 433.564728,267.442688 432.410156,267.377747 
	C432.284119,266.135681 432.430298,265.131042 432.801453,264.217865 
	C444.620544,235.139816 448.472748,204.978638 444.979034,173.853241 
	C443.000946,156.230469 438.325378,139.312088 431.056366,123.131584 
	C419.414764,97.217957 402.520111,75.310005 380.699310,57.150013 
	C377.675995,54.633919 374.882385,51.841854 371.982422,49.177544 
z"/>
<path fill="#AD6340" opacity="1.000000" stroke="none" 
	d="
M371.627258,48.983410 
	C374.882385,51.841854 377.675995,54.633919 380.699310,57.150013 
	C402.520111,75.310005 419.414764,97.217957 431.056366,123.131584 
	C438.325378,139.312088 443.000946,156.230469 444.979034,173.853241 
	C448.472748,204.978638 444.620544,235.139816 432.801453,264.217865 
	C432.430298,265.131042 432.284119,266.135681 432.008179,267.472473 
	C422.718018,268.230530 413.444794,269.055267 404.189392,268.888641 
	C391.804321,268.665588 379.433105,267.674286 366.343262,266.737244 
	C363.535797,266.006348 361.458527,265.435394 359.343353,265.114349 
	C342.664642,262.582642 325.965881,260.180176 309.300323,257.565826 
	C300.824310,256.236176 292.403992,254.551575 283.958496,253.027435 
	C278.562012,251.440521 273.165558,249.853622 267.451965,247.826065 
	C270.388641,240.459595 273.371521,233.588593 272.435699,225.515503 
	C270.643555,210.055099 261.904053,198.343689 251.903732,187.568497 
	C234.333252,168.636536 212.882385,155.054962 189.535416,144.315369 
	C188.238510,143.718796 187.133072,142.705978 185.938522,141.886902 
	C194.172272,128.805862 204.284164,117.282043 215.664597,106.913681 
	C229.147385,94.629921 243.666351,83.728165 259.595795,74.704636 
	C276.638550,65.050438 294.271729,56.950851 313.254517,51.851490 
	C332.407745,46.706337 351.678436,44.997623 371.627258,48.983410 
z"/>
<path fill="#F7BB90" opacity="1.000000" stroke="none" 
	d="
M359.848328,296.017334 
	C359.232300,301.517426 358.413574,307.004089 358.048645,312.520782 
	C357.525452,320.429749 356.527771,328.425751 357.161987,336.269012 
	C358.636902,354.508820 360.886383,372.688812 362.993103,390.873199 
	C363.740723,397.326599 365.818604,403.719635 365.840820,410.145264 
	C365.901672,427.723999 359.405945,442.761749 345.447754,453.767029 
	C335.335022,461.740387 323.510712,465.502228 310.472931,465.009277 
	C285.718719,464.073364 262.261627,446.303925 259.077637,421.422455 
	C257.327484,407.745850 255.892990,394.013824 257.873718,380.125916 
	C258.895172,372.964020 258.302429,365.584473 259.081665,358.372711 
	C260.376160,346.391876 262.184814,334.466522 263.784973,322.518860 
	C264.238800,319.130310 264.720703,315.745544 265.916748,312.158386 
	C273.173035,308.765900 279.545319,305.189026 286.259918,302.451721 
	C310.085327,292.738861 334.614319,290.099335 359.848328,296.017334 
z"/>
<path fill="#F7BB90" opacity="1.000000" stroke="none" 
	d="
M205.837067,342.018555 
	C208.224884,353.738770 211.326477,365.369110 212.816254,377.202393 
	C214.598297,391.356995 214.616364,405.725403 216.099609,419.927979 
	C218.035477,438.464630 208.260651,455.665466 192.316208,462.835663 
	C169.518082,473.087891 142.218216,465.776093 131.959595,440.533905 
	C128.834290,432.843811 128.107956,424.842529 129.688690,416.558929 
	C130.756454,410.963531 131.447876,405.239319 131.654572,399.549011 
	C132.035004,389.076477 132.074905,378.585175 131.981232,368.104156 
	C131.925354,361.853027 131.483124,355.594971 130.959320,349.361481 
	C130.496094,343.848724 129.679474,338.365662 129.493317,332.433594 
	C145.218643,328.393707 160.663361,327.146454 175.878159,331.218781 
	C186.095993,333.953674 195.866440,338.360046 205.837067,342.018555 
z"/>
<path fill="#9D5A3A" opacity="1.000000" stroke="none" 
	d="
M185.567261,141.908752 
	C187.133072,142.705978 188.238510,143.718796 189.535416,144.315369 
	C212.882385,155.054962 234.333252,168.636536 251.903732,187.568497 
	C261.904053,198.343689 270.643555,210.055099 272.435699,225.515503 
	C273.371521,233.588593 270.388641,240.459595 267.079346,247.748032 
	C260.807892,259.152618 250.665253,265.892792 240.264114,272.259827 
	C235.226929,275.343292 229.879059,277.919220 224.325546,280.780640 
	C224.902405,253.521210 219.698166,227.528290 206.646317,203.391144 
	C193.605362,179.274094 175.316956,159.994965 151.228470,146.793915 
	C140.670731,141.008026 129.265610,136.768372 118.114426,131.505005 
	C125.559074,130.807556 133.362503,129.098389 140.660431,130.346039 
	C153.991806,132.625153 167.030319,136.629517 180.173340,139.983398 
	C181.900711,140.424194 183.524338,141.271530 185.567261,141.908752 
z"/>
<path fill="#E1AA83" opacity="1.000000" stroke="none" 
	d="
M359.922211,295.589447 
	C334.614319,290.099335 310.085327,292.738861 286.259918,302.451721 
	C279.545319,305.189026 273.173035,308.765900 266.269592,311.956085 
	C269.407349,299.028839 272.690796,286.034912 276.525665,273.205780 
	C278.505493,266.582367 281.465027,260.251709 283.970215,253.408112 
	C292.403992,254.551575 300.824310,256.236176 309.300323,257.565826 
	C325.965881,260.180176 342.664642,262.582642 359.343353,265.114349 
	C361.458527,265.435394 363.535797,266.006348 365.888672,266.763275 
	C364.096527,276.430511 362.046295,285.796051 359.922211,295.589447 
z"/>
<path fill="#E1AA83" opacity="1.000000" stroke="none" 
	d="
M205.904297,341.629120 
	C195.866440,338.360046 186.095993,333.953674 175.878159,331.218781 
	C160.663361,327.146454 145.218643,328.393707 129.566498,332.007690 
	C127.105003,324.639954 125.044777,317.262177 122.936371,309.486877 
	C129.999802,307.631165 137.153595,306.351105 144.214127,304.677490 
	C158.592819,301.269165 172.921204,297.648590 187.654724,294.077209 
	C194.016617,309.772583 199.994080,325.506165 205.904297,341.629120 
z"/>
<path fill="#CEA08B" opacity="1.000000" stroke="none" 
	d="
M72.477539,188.098022 
	C78.991379,190.804947 81.344795,194.960983 79.725754,201.739212 
	C77.495216,211.077515 72.315346,218.429321 63.470470,222.690765 
	C54.568954,226.979523 47.561607,222.304810 48.005215,212.529297 
	C48.560581,200.291138 60.426235,188.222458 72.477539,188.098022 
z"/>
<path fill="#CDA08B" opacity="1.000000" stroke="none" 
	d="
M34.870461,252.643326 
	C28.497606,247.379913 28.162661,239.505066 34.448570,235.341873 
	C36.913921,233.709061 41.171860,233.163651 43.984665,234.071381 
	C47.774189,235.294281 49.412277,239.203079 48.871471,243.448380 
	C48.019939,250.132843 42.870655,253.637512 34.870461,252.643326 
z"/>
</svg>