<svg version="1.1" id="Layer_1" xmlns="http://www.w3.org/2000/svg" xmlns:xlink="http://www.w3.org/1999/xlink" x="0px" y="0px"
	 width="100%" viewBox="0 0 512 512" xml:space="preserve">

<path fill="#D8ACA7" opacity="1.000000" stroke="none" 
	d="
M360.424652,82.610352 
	C385.387451,97.192299 405.745483,116.249352 422.280243,139.454514 
	C441.651367,166.640320 453.530884,196.734329 458.137512,229.846817 
	C462.312439,259.856140 459.780945,289.278595 450.667419,317.988037 
	C441.331024,347.399536 426.016571,373.470886 404.667236,395.988647 
	C376.150665,426.065918 341.813080,445.843384 301.464478,455.018707 
	C261.291595,464.154083 221.915451,461.058289 183.513763,446.160248 
	C158.707138,436.536469 136.735352,422.468170 117.430817,404.091370 
	C93.736305,381.535614 76.497253,354.943329 65.494209,324.134125 
	C56.355232,298.544434 52.571632,272.170776 54.214252,245.210190 
	C56.301723,210.948120 66.326462,178.977921 84.768631,149.842468 
	C110.323738,109.469788 145.574234,81.236816 190.636383,65.224792 
	C215.409271,56.422195 240.974823,52.762993 267.110413,54.154804 
	C300.344421,55.924622 331.528168,65.052032 360.424652,82.610352 
M72.313255,271.683960 
	C73.723495,288.318085 77.085121,304.515686 82.904900,320.197693 
	C99.152328,363.978149 127.666092,397.374451 168.564301,419.724548 
	C204.566269,439.398987 243.142853,446.007538 283.879150,440.152252 
	C324.517578,434.311035 359.195374,416.464325 388.212799,387.889282 
	C407.033020,369.355957 420.893829,347.287201 430.290558,322.453735 
	C442.997101,288.873016 445.698395,254.374420 438.434326,219.455734 
	C430.429382,180.975861 411.904510,148.035538 382.838043,121.190834 
	C351.231750,92.000458 313.868988,75.763016 271.219971,72.269775 
	C244.772293,70.103531 218.827301,73.649277 193.723343,82.882698 
	C162.538208,94.352821 136.161407,112.728188 114.876366,138.051193 
	C96.530518,159.877411 83.882988,184.877533 77.109070,212.676895 
	C73.236290,228.570343 71.049355,244.668686 72.099983,261.972168 
	C72.253067,264.941956 72.406151,267.911743 72.313255,271.683960 
z"/>
<path fill="#A55C5F" opacity="1.000000" stroke="none" 
	d="
M72.231201,261.088501 
	C71.049355,244.668686 73.236290,228.570343 77.109070,212.676895 
	C83.882988,184.877533 96.530518,159.877411 114.876366,138.051193 
	C136.161407,112.728188 162.538208,94.352821 193.723343,82.882698 
	C218.827301,73.649277 244.772293,70.103531 271.219971,72.269775 
	C313.868988,75.763016 351.231750,92.000458 382.838043,121.190834 
	C411.904510,148.035538 430.429382,180.975861 438.434326,219.455734 
	C445.698395,254.374420 442.997101,288.873016 430.290558,322.453735 
	C420.893829,347.287201 407.033020,369.355957 388.212799,387.889282 
	C359.195374,416.464325 324.517578,434.311035 283.879150,440.152252 
	C243.142853,446.007538 204.566269,439.398987 168.564301,419.724548 
	C127.666092,397.374451 99.152328,363.978149 82.904900,320.197693 
	C77.085121,304.515686 73.723495,288.318085 72.707596,271.405579 
	C74.668007,272.838684 76.170929,274.613251 77.809311,276.252441 
	C125.111794,323.577667 172.426376,370.890778 219.749222,418.195648 
	C221.039352,419.485291 222.342056,420.799957 223.810318,421.867035 
	C229.062424,425.683929 232.822876,425.412292 237.536301,420.966522 
	C241.040237,417.661591 244.499634,414.309448 248.291229,411.141296 
	C255.148499,416.854340 259.817780,416.672394 265.915558,410.578156 
	C286.475769,390.030029 307.020782,369.466705 327.591919,348.929504 
	C328.990814,347.532898 330.557465,346.304291 332.479065,344.995789 
	C341.887573,345.007233 344.777588,342.979614 344.991394,336.484589 
	C345.040039,335.006683 344.997925,333.525787 345.140991,331.743591 
	C366.993835,309.655762 388.703430,287.870789 410.412598,266.085358 
	C417.047760,259.426880 417.021851,254.528290 410.290710,247.794769 
	C390.072784,227.569641 369.842682,207.356735 349.639282,187.117157 
	C348.006470,185.481415 346.540863,183.678772 344.995789,181.520248 
	C345.007172,172.112045 342.979340,169.222107 336.484222,169.008453 
	C335.006378,168.959824 333.525574,169.001984 331.743408,168.858963 
	C309.768890,147.119370 287.916229,125.699799 266.544708,103.810455 
	C260.754913,97.880356 252.999252,97.148705 247.329330,103.997940 
	C244.770416,107.089088 241.182053,109.328033 237.878967,111.648438 
	C232.372238,106.509361 227.956085,106.504677 223.033676,111.425667 
	C174.437332,160.008072 125.856033,208.605515 77.238075,257.166290 
	C75.748924,258.653687 73.908073,259.789001 72.231201,261.088501 
z"/>
<path fill="#833D47" opacity="1.000000" stroke="none" 
	d="
M72.165588,261.530334 
	C73.908073,259.789001 75.748924,258.653687 77.238075,257.166290 
	C125.856033,208.605515 174.437332,160.008072 223.033676,111.425667 
	C227.956085,106.504677 232.372238,106.509361 237.825027,111.996689 
	C236.720062,114.182602 235.615219,115.842506 234.234940,117.228058 
	C218.272476,133.251694 202.250168,149.215744 186.308258,165.259720 
	C184.966461,166.610107 184.090118,168.422943 182.601273,169.958191 
	C178.379135,168.470062 174.744995,168.344513 171.554901,171.416412 
	C167.963531,174.874741 168.762177,178.902618 169.674957,183.032593 
	C168.384399,183.714706 167.310959,184.231995 166.514450,185.026779 
	C145.052597,206.441559 123.595436,227.861176 102.199226,249.341492 
	C97.456116,254.103210 97.526321,259.977173 102.334099,264.800842 
	C123.501823,286.038513 144.712845,307.233124 165.959076,328.392212 
	C167.073975,329.502502 168.656387,330.143372 169.959549,331.399231 
	C168.467041,335.621521 168.345306,339.255096 171.416565,342.444977 
	C174.874512,346.036499 178.902908,345.238556 183.032745,344.324463 
	C184.303009,346.203583 185.410324,347.864685 186.792679,349.251709 
	C204.078506,366.596710 221.416687,383.889496 238.708389,401.228607 
	C241.874161,404.403137 244.892502,407.724670 247.978897,410.978363 
	C244.499634,414.309448 241.040237,417.661591 237.536301,420.966522 
	C232.822876,425.412292 229.062424,425.683929 223.810318,421.867035 
	C222.342056,420.799957 221.039352,419.485291 219.749222,418.195648 
	C172.426376,370.890778 125.111794,323.577667 77.809311,276.252441 
	C76.170929,274.613251 74.668007,272.838684 72.830589,271.004395 
	C72.406151,267.911743 72.253067,264.941956 72.165588,261.530334 
z"/>
<path fill="#915055" opacity="1.000000" stroke="none" 
	d="
M182.997528,170.020935 
	C184.090118,168.422943 184.966461,166.610107 186.308258,165.259720 
	C202.250168,149.215744 218.272476,133.251694 234.234940,117.228058 
	C235.615219,115.842506 236.720062,114.182602 238.006805,112.301880 
	C241.182053,109.328033 244.770416,107.089088 247.329330,103.997940 
	C252.999252,97.148705 260.754913,97.880356 266.544708,103.810455 
	C287.916229,125.699799 309.768890,147.119370 331.590332,169.157608 
	C306.825439,194.329651 281.910858,219.059647 256.769653,244.014587 
	C255.473694,242.810089 254.240311,241.734146 253.085236,240.579834 
	C230.805099,218.314377 208.530502,196.043381 186.271561,173.756744 
	C185.103928,172.587662 184.085449,171.269623 182.997528,170.020935 
z"/>
<path fill="#915055" opacity="1.000000" stroke="none" 
	d="
M248.291245,411.141296 
	C244.892502,407.724670 241.874161,404.403137 238.708389,401.228607 
	C221.416687,383.889496 204.078506,366.596710 186.792679,349.251709 
	C185.410324,347.864685 184.303009,346.203583 183.177551,344.026917 
	C207.858780,319.008759 232.430344,294.633484 258.447174,268.824463 
	C259.401733,270.503174 260.019318,272.417908 261.283722,273.689392 
	C283.377747,295.906921 305.555450,318.041229 327.697144,340.211426 
	C329.218719,341.734985 330.599731,343.398895 332.046112,344.997559 
	C330.557465,346.304291 328.990814,347.532898 327.591919,348.929504 
	C307.020782,369.466705 286.475769,390.030029 265.915558,410.578156 
	C259.817780,416.672394 255.148499,416.854340 248.291245,411.141296 
z"/>
<path fill="#915055" opacity="1.000000" stroke="none" 
	d="
M344.997559,181.953674 
	C346.540863,183.678772 348.006470,185.481415 349.639282,187.117157 
	C369.842682,207.356735 390.072784,227.569641 410.290710,247.794769 
	C417.021851,254.528290 417.047760,259.426880 410.412598,266.085358 
	C388.703430,287.870789 366.993835,309.655762 344.842346,331.590515 
	C330.885071,318.279968 317.342957,304.846588 303.867920,291.346283 
	C298.487518,285.955811 293.255157,280.417542 288.376801,274.933044 
	C290.411621,274.635254 292.014709,274.206848 293.640167,274.089996 
	C303.872864,273.354340 312.879578,269.540741 320.940887,263.334351 
	C326.214935,259.273865 326.546173,254.280106 320.941528,250.861298 
	C314.660126,247.029663 307.886841,243.847336 301.010834,241.207413 
	C296.977966,239.659027 292.328003,239.718048 288.104706,238.751617 
	C299.360229,227.273346 310.429810,216.060562 321.585724,204.934296 
	C329.328156,197.212448 337.189392,189.609665 344.997559,181.953674 
z"/>
<path fill="#B96969" opacity="1.000000" stroke="none" 
	d="
M287.955414,274.946533 
	C293.255157,280.417542 298.487518,285.955811 303.867920,291.346283 
	C317.342957,304.846588 330.885071,318.279968 344.698914,331.893219 
	C344.997925,333.525787 345.040039,335.006683 344.991394,336.484589 
	C344.777588,342.979614 341.887573,345.007233 332.479065,344.995789 
	C330.599731,343.398895 329.218719,341.734985 327.697144,340.211426 
	C305.555450,318.041229 283.377747,295.906921 261.283722,273.689392 
	C260.019318,272.417908 259.401733,270.503174 258.447174,268.824463 
	C232.430344,294.633484 207.858780,319.008759 183.142426,343.681549 
	C178.902908,345.238556 174.874512,346.036499 171.416565,342.444977 
	C168.345306,339.255096 168.467041,335.621521 170.256989,331.254181 
	C182.613892,318.773590 194.645111,306.867737 206.596405,294.882141 
	C213.148972,288.310760 219.566620,281.604858 226.442291,274.882996 
	C230.396393,274.313049 234.136795,274.355927 237.471954,273.214600 
	C244.384537,270.848999 251.081772,267.854187 258.066437,265.398254 
	C259.661865,266.531860 260.955414,267.754150 262.472015,268.177551 
	C270.936646,270.540710 279.455261,272.710571 287.955414,274.946533 
z"/>
<path fill="#B96969" opacity="1.000000" stroke="none" 
	d="
M344.995789,181.520248 
	C337.189392,189.609665 329.328156,197.212448 321.585724,204.934296 
	C310.429810,216.060562 299.360229,227.273346 287.708038,238.830612 
	C285.022583,239.471420 282.881165,239.717606 280.743500,239.992554 
	C272.385986,241.067474 264.541840,243.469330 257.528198,248.861603 
	C255.318649,247.821152 253.559143,246.414200 251.561203,245.846741 
	C243.094452,243.442017 234.556839,241.286728 225.894012,238.739624 
	C214.748627,227.377655 203.791977,216.278610 192.747055,205.268127 
	C185.235748,197.780228 177.600784,190.416367 170.021118,182.997055 
	C168.762177,178.902618 167.963531,174.874741 171.554901,171.416412 
	C174.744995,168.344513 178.379135,168.470062 182.601273,169.958191 
	C184.085449,171.269623 185.103928,172.587662 186.271561,173.756744 
	C208.530502,196.043381 230.805099,218.314377 253.085236,240.579834 
	C254.240311,241.734146 255.473694,242.810089 256.769653,244.014587 
	C281.910858,219.059647 306.825439,194.329651 331.893066,169.301010 
	C333.525574,169.001984 335.006378,168.959824 336.484222,169.008453 
	C342.979340,169.222107 345.007172,172.112045 344.995789,181.520248 
z"/>
<path fill="#915055" opacity="1.000000" stroke="none" 
	d="
M169.674957,183.032593 
	C177.600784,190.416367 185.235748,197.780228 192.747055,205.268127 
	C203.791977,216.278610 214.748627,227.377655 225.478683,238.787933 
	C213.802216,240.215103 202.979797,242.875320 193.688904,250.145676 
	C187.690384,254.839645 187.647095,259.100708 193.554855,263.761627 
	C203.112030,271.301727 214.301910,273.879944 226.045090,274.959595 
	C219.566620,281.604858 213.148972,288.310760 206.596405,294.882141 
	C194.645111,306.867737 182.613892,318.773590 170.318573,330.857788 
	C168.656387,330.143372 167.073975,329.502502 165.959076,328.392212 
	C144.712845,307.233124 123.501823,286.038513 102.334099,264.800842 
	C97.526321,259.977173 97.456116,254.103210 102.199226,249.341492 
	C123.595436,227.861176 145.052597,206.441559 166.514450,185.026779 
	C167.310959,184.231995 168.384399,183.714706 169.674957,183.032593 
z"/>
<path fill="#ADDE6E" opacity="1.000000" stroke="none" 
	d="
M257.868591,248.881302 
	C264.541840,243.469330 272.385986,241.067474 280.743500,239.992554 
	C282.881165,239.717606 285.022583,239.471420 287.558929,239.133026 
	C292.328003,239.718048 296.977966,239.659027 301.010834,241.207413 
	C307.886841,243.847336 314.660126,247.029663 320.941528,250.861298 
	C326.546173,254.280106 326.214935,259.273865 320.940887,263.334351 
	C312.879578,269.540741 303.872864,273.354340 293.640167,274.089996 
	C292.014709,274.206848 290.411621,274.635254 288.376801,274.933044 
	C279.455261,272.710571 270.936646,270.540710 262.472015,268.177551 
	C260.955414,267.754150 259.661865,266.531860 258.238037,265.085205 
	C258.756165,263.881683 259.281891,263.252411 259.850067,262.664124 
	C264.253387,258.105347 264.283081,256.000458 260.046997,251.520889 
	C259.264954,250.693893 258.591949,249.763809 257.868591,248.881302 
z"/>
<path fill="#87CC6E" opacity="1.000000" stroke="none" 
	d="
M257.528198,248.861603 
	C258.591949,249.763809 259.264954,250.693893 260.046997,251.520889 
	C264.283081,256.000458 264.253387,258.105347 259.850067,262.664124 
	C259.281891,263.252411 258.756165,263.881683 258.039185,264.805054 
	C251.081772,267.854187 244.384537,270.848999 237.471954,273.214600 
	C234.136795,274.355927 230.396393,274.313049 226.442291,274.882996 
	C214.301910,273.879944 203.112030,271.301727 193.554855,263.761627 
	C187.647095,259.100708 187.690384,254.839645 193.688904,250.145676 
	C202.979797,242.875320 213.802216,240.215103 225.629822,239.088562 
	C234.556839,241.286728 243.094452,243.442017 251.561203,245.846741 
	C253.559143,246.414200 255.318649,247.821152 257.528198,248.861603 
z"/>
</svg>